<svg width="24" height="24" viewBox="0 0 24 24" fill="none" xmlns="http://www.w3.org/2000/svg">
<g id="Bomb">
<g id="Expanded">
<path id="Vector" d="M9 24C4.589 24 1 20.411 1 16C1 12.547 3.243 9.4785 6.5 8.407V7C6.5 6.86739 6.55268 6.74021 6.64645 6.64645C6.74021 6.55268 6.86739 6.5 7 6.5H11C11.1326 6.5 11.2598 6.55268 11.3536 6.64645C11.4473 6.74021 11.5 6.86739 11.5 7V8.407C14.757 9.4785 17 12.547 17 16C17 20.411 13.4115 24 9 24ZM7.5 7.5V8.778C7.50003 8.88737 7.46421 8.99373 7.39801 9.08079C7.33181 9.16785 7.2389 9.2308 7.1335 9.26C4.111 10.0955 2 12.867 2 16C2 19.86 5.14 23 9 23C12.86 23 16 19.86 16 16C16 12.867 13.889 10.0955 10.8665 9.26C10.7612 9.23058 10.6685 9.16756 10.6023 9.08056C10.5361 8.99355 10.5002 8.8873 10.5 8.778V7.5H7.5Z" fill="black"/>
<path id="Vector_2" d="M16 8C14.6215 8 13.5 6.8785 13.5 5.5C13.5 4.397 12.603 3.5 11.5 3.5C10.397 3.5 9.5 4.397 9.5 5.5V7C9.5 7.13261 9.44732 7.25979 9.35355 7.35355C9.25979 7.44732 9.13261 7.5 9 7.5C8.86739 7.5 8.74021 7.44732 8.64645 7.35355C8.55268 7.25979 8.5 7.13261 8.5 7V5.5C8.5 3.8455 9.8455 2.5 11.5 2.5C13.1545 2.5 14.5 3.8455 14.5 5.5C14.5 6.327 15.173 7 16 7C16.827 7 17.5 6.327 17.5 5.5C17.5 4.673 18.173 4 19 4C19.1326 4 19.2598 4.05268 19.3536 4.14645C19.4473 4.24021 19.5 4.36739 19.5 4.5C19.5 4.63261 19.4473 4.75979 19.3536 4.85355C19.2598 4.94732 19.1326 5 19 5C18.7245 5 18.5 5.2245 18.5 5.5C18.5 6.8785 17.3785 8 16 8Z" fill="black"/>
<path id="Vector_3" d="M19 3C18.8674 3 18.7402 2.94732 18.6464 2.85355C18.5527 2.75979 18.5 2.63261 18.5 2.5V0.5C18.5 0.367392 18.5527 0.240215 18.6464 0.146447C18.7402 0.0526784 18.8674 0 19 0C19.1326 0 19.2598 0.0526784 19.3536 0.146447C19.4473 0.240215 19.5 0.367392 19.5 0.5V2.5C19.5 2.63261 19.4473 2.75979 19.3536 2.85355C19.2598 2.94732 19.1326 3 19 3Z" fill="black"/>
<path id="Vector_4" d="M20.4147 3.5863C20.3157 3.58652 20.2189 3.55732 20.1365 3.50242C20.0541 3.44752 19.99 3.36939 19.9521 3.27794C19.9142 3.18649 19.9044 3.08585 19.9238 2.98879C19.9432 2.89173 19.991 2.80263 20.0612 2.7328L21.4752 1.3183C21.5216 1.27188 21.5767 1.23505 21.6374 1.20993C21.698 1.18481 21.763 1.17188 21.8287 1.17188C21.8943 1.17187 21.9593 1.18481 22.02 1.20993C22.0806 1.23505 22.1357 1.27188 22.1822 1.3183C22.2286 1.36472 22.2654 1.41983 22.2905 1.48049C22.3157 1.54114 22.3286 1.60615 22.3286 1.6718C22.3286 1.73745 22.3157 1.80246 22.2905 1.86311C22.2654 1.92377 22.2286 1.97888 22.1822 2.0253L20.7682 3.4398C20.7218 3.48625 20.6667 3.5231 20.606 3.54824C20.5453 3.57338 20.4803 3.58631 20.4147 3.5863Z" fill="black"/>
<path id="Vector_5" d="M17.5858 3.5863C17.5201 3.58637 17.4551 3.57346 17.3944 3.54832C17.3338 3.52318 17.2787 3.4863 17.2323 3.4398L15.8183 2.0253C15.7245 1.93155 15.6719 1.80439 15.6719 1.6718C15.6719 1.53921 15.7245 1.41205 15.8183 1.3183C15.9121 1.22455 16.0392 1.17188 16.1718 1.17188C16.3044 1.17188 16.4315 1.22455 16.5253 1.3183L17.9393 2.7328C18.0095 2.80263 18.0573 2.89173 18.0767 2.98879C18.0961 3.08585 18.0863 3.18649 18.0484 3.27794C18.0105 3.36939 17.9463 3.44752 17.864 3.50242C17.7816 3.55732 17.6848 3.58652 17.5858 3.5863Z" fill="black"/>
<path id="Vector_6" d="M23 5H21C20.8674 5 20.7402 4.94732 20.6464 4.85355C20.5527 4.75979 20.5 4.63261 20.5 4.5C20.5 4.36739 20.5527 4.24021 20.6464 4.14645C20.7402 4.05268 20.8674 4 21 4H23C23.1326 4 23.2598 4.05268 23.3536 4.14645C23.4473 4.24021 23.5 4.36739 23.5 4.5C23.5 4.63261 23.4473 4.75979 23.3536 4.85355C23.2598 4.94732 23.1326 5 23 5Z" fill="black"/>
<path id="Vector_7" d="M21.8281 7.82759C21.6956 7.82769 21.5684 7.77518 21.4746 7.68159L20.0596 6.26809C20.0132 6.22164 19.9763 6.16649 19.9512 6.10579C19.926 6.04509 19.9131 5.98004 19.9131 5.91434C19.9131 5.84864 19.926 5.78359 19.9512 5.72289C19.9763 5.6622 20.0132 5.60705 20.0596 5.56059C20.1061 5.51414 20.1612 5.47729 20.2219 5.45214C20.2826 5.427 20.3477 5.41406 20.4134 5.41406C20.4791 5.41406 20.5441 5.427 20.6048 5.45214C20.6655 5.47729 20.7207 5.51414 20.7671 5.56059L22.1821 6.97409C22.2521 7.04405 22.2997 7.13317 22.3189 7.2302C22.3382 7.32722 22.3283 7.42778 22.2904 7.51915C22.2525 7.61052 22.1883 7.6886 22.106 7.7435C22.0237 7.7984 21.927 7.82767 21.8281 7.82759Z" fill="black"/>
<path id="Vector_8" d="M4.48934 19.6452C4.40871 19.6454 4.32924 19.6261 4.25774 19.5888C4.18624 19.5515 4.12485 19.4974 4.07884 19.4312C3.62633 18.7858 3.30635 18.057 3.13745 17.2871C2.96854 16.5171 2.95406 15.7213 3.09484 14.9457C3.23116 14.1693 3.5202 13.4277 3.94522 12.7638C4.37024 12.1 4.92279 11.527 5.57084 11.0782C5.6797 11.0045 5.81322 10.9766 5.9425 11.0006C6.07178 11.0246 6.18641 11.0985 6.26156 11.2064C6.33671 11.3143 6.36634 11.4475 6.34402 11.577C6.32171 11.7066 6.24925 11.8222 6.14234 11.8987C3.88034 13.4752 3.32284 16.5977 4.89934 18.8597C4.95165 18.9346 4.98242 19.0225 4.98829 19.1136C4.99416 19.2048 4.97491 19.2959 4.93263 19.3769C4.89035 19.4579 4.82667 19.5257 4.74851 19.573C4.67035 19.6204 4.58071 19.6453 4.48934 19.6452Z" fill="black"/>
</g>
</g>
</svg>
