<svg width="16" height="16" viewBox="0 0 16 16" fill="none" xmlns="http://www.w3.org/2000/svg">
<g id="Calendar">
<path id="Vector" d="M7.99967 12.667C8.13153 12.667 8.26042 12.6279 8.37005 12.5546C8.47969 12.4814 8.56514 12.3773 8.61559 12.2554C8.66605 12.1336 8.67925 11.9996 8.65353 11.8703C8.62781 11.7409 8.56431 11.6222 8.47108 11.5289C8.37784 11.4357 8.25906 11.3722 8.12973 11.3465C8.00041 11.3207 7.86637 11.3339 7.74455 11.3844C7.62273 11.4349 7.51862 11.5203 7.44536 11.6299C7.37211 11.7396 7.33301 11.8685 7.33301 12.0003C7.33301 12.1771 7.40325 12.3467 7.52827 12.4717C7.65329 12.5968 7.82286 12.667 7.99967 12.667ZM11.333 12.667C11.4649 12.667 11.5938 12.6279 11.7034 12.5546C11.813 12.4814 11.8985 12.3773 11.9489 12.2554C11.9994 12.1336 12.0126 11.9996 11.9869 11.8703C11.9611 11.7409 11.8976 11.6222 11.8044 11.5289C11.7112 11.4357 11.5924 11.3722 11.4631 11.3465C11.3337 11.3207 11.1997 11.3339 11.0779 11.3844C10.9561 11.4349 10.8519 11.5203 10.7787 11.6299C10.7054 11.7396 10.6663 11.8685 10.6663 12.0003C10.6663 12.1771 10.7366 12.3467 10.8616 12.4717C10.9866 12.5968 11.1562 12.667 11.333 12.667ZM11.333 10.0003C11.4649 10.0003 11.5938 9.96123 11.7034 9.88797C11.813 9.81472 11.8985 9.7106 11.9489 9.58878C11.9994 9.46696 12.0126 9.33292 11.9869 9.2036C11.9611 9.07428 11.8976 8.95549 11.8044 8.86226C11.7112 8.76902 11.5924 8.70553 11.4631 8.6798C11.3337 8.65408 11.1997 8.66728 11.0779 8.71774C10.9561 8.7682 10.8519 8.85365 10.7787 8.96328C10.7054 9.07291 10.6663 9.20181 10.6663 9.33366C10.6663 9.51047 10.7366 9.68004 10.8616 9.80506C10.9866 9.93009 11.1562 10.0003 11.333 10.0003ZM7.99967 10.0003C8.13153 10.0003 8.26042 9.96123 8.37005 9.88797C8.47969 9.81472 8.56514 9.7106 8.61559 9.58878C8.66605 9.46696 8.67925 9.33292 8.65353 9.2036C8.62781 9.07428 8.56431 8.95549 8.47108 8.86226C8.37784 8.76902 8.25906 8.70553 8.12973 8.6798C8.00041 8.65408 7.86637 8.66728 7.74455 8.71774C7.62273 8.7682 7.51862 8.85365 7.44536 8.96328C7.37211 9.07291 7.33301 9.20181 7.33301 9.33366C7.33301 9.51047 7.40325 9.68004 7.52827 9.80506C7.65329 9.93009 7.82286 10.0003 7.99967 10.0003ZM12.6663 2.00033H11.9997V1.33366C11.9997 1.15685 11.9294 0.987279 11.8044 0.862254C11.6794 0.73723 11.5098 0.666992 11.333 0.666992C11.1562 0.666992 10.9866 0.73723 10.8616 0.862254C10.7366 0.987279 10.6663 1.15685 10.6663 1.33366V2.00033H5.33301V1.33366C5.33301 1.15685 5.26277 0.987279 5.13775 0.862254C5.01272 0.73723 4.84315 0.666992 4.66634 0.666992C4.48953 0.666992 4.31996 0.73723 4.19494 0.862254C4.06991 0.987279 3.99967 1.15685 3.99967 1.33366V2.00033H3.33301C2.80257 2.00033 2.29387 2.21104 1.91879 2.58611C1.54372 2.96118 1.33301 3.46989 1.33301 4.00033V13.3337C1.33301 13.8641 1.54372 14.3728 1.91879 14.7479C2.29387 15.1229 2.80257 15.3337 3.33301 15.3337H12.6663C13.1968 15.3337 13.7055 15.1229 14.0806 14.7479C14.4556 14.3728 14.6663 13.8641 14.6663 13.3337V4.00033C14.6663 3.46989 14.4556 2.96118 14.0806 2.58611C13.7055 2.21104 13.1968 2.00033 12.6663 2.00033ZM13.333 13.3337C13.333 13.5105 13.2628 13.68 13.1377 13.8051C13.0127 13.9301 12.8432 14.0003 12.6663 14.0003H3.33301C3.1562 14.0003 2.98663 13.9301 2.8616 13.8051C2.73658 13.68 2.66634 13.5105 2.66634 13.3337V7.33366H13.333V13.3337ZM13.333 6.00033H2.66634V4.00033C2.66634 3.82351 2.73658 3.65395 2.8616 3.52892C2.98663 3.4039 3.1562 3.33366 3.33301 3.33366H3.99967V4.00033C3.99967 4.17714 4.06991 4.34671 4.19494 4.47173C4.31996 4.59675 4.48953 4.66699 4.66634 4.66699C4.84315 4.66699 5.01272 4.59675 5.13775 4.47173C5.26277 4.34671 5.33301 4.17714 5.33301 4.00033V3.33366H10.6663V4.00033C10.6663 4.17714 10.7366 4.34671 10.8616 4.47173C10.9866 4.59675 11.1562 4.66699 11.333 4.66699C11.5098 4.66699 11.6794 4.59675 11.8044 4.47173C11.9294 4.34671 11.9997 4.17714 11.9997 4.00033V3.33366H12.6663C12.8432 3.33366 13.0127 3.4039 13.1377 3.52892C13.2628 3.65395 13.333 3.82351 13.333 4.00033V6.00033ZM4.66634 10.0003C4.7982 10.0003 4.92709 9.96123 5.03672 9.88797C5.14635 9.81472 5.2318 9.7106 5.28226 9.58878C5.33272 9.46696 5.34592 9.33292 5.3202 9.2036C5.29447 9.07428 5.23098 8.95549 5.13775 8.86226C5.04451 8.76902 4.92572 8.70553 4.7964 8.6798C4.66708 8.65408 4.53304 8.66728 4.41122 8.71774C4.2894 8.7682 4.18528 8.85365 4.11203 8.96328C4.03877 9.07291 3.99967 9.20181 3.99967 9.33366C3.99967 9.51047 4.06991 9.68004 4.19494 9.80506C4.31996 9.93009 4.48953 10.0003 4.66634 10.0003ZM4.66634 12.667C4.7982 12.667 4.92709 12.6279 5.03672 12.5546C5.14635 12.4814 5.2318 12.3773 5.28226 12.2554C5.33272 12.1336 5.34592 11.9996 5.3202 11.8703C5.29447 11.7409 5.23098 11.6222 5.13775 11.5289C5.04451 11.4357 4.92572 11.3722 4.7964 11.3465C4.66708 11.3207 4.53304 11.3339 4.41122 11.3844C4.2894 11.4349 4.18528 11.5203 4.11203 11.6299C4.03877 11.7396 3.99967 11.8685 3.99967 12.0003C3.99967 12.1771 4.06991 12.3467 4.19494 12.4717C4.31996 12.5968 4.48953 12.667 4.66634 12.667Z" fill="black"/>
</g>
</svg>
