<svg width="25" height="24" viewBox="0 0 25 24" fill="none" xmlns="http://www.w3.org/2000/svg">
<g id="Dashboard">
<path id="Vector" d="M11 13H4C3.7 13 3.5 13.2 3.5 13.5V20.5C3.5 20.8 3.7 21 4 21H11C11.3 21 11.5 20.8 11.5 20.5V13.5C11.5 13.2 11.3 13 11 13ZM10.5 20H4.5V14H10.5V20ZM11 3H4C3.7 3 3.5 3.2 3.5 3.5V10.5C3.5 10.8 3.7 11 4 11H11C11.3 11 11.5 10.8 11.5 10.5V3.5C11.5 3.2 11.3 3 11 3ZM10.5 10H4.5V4H10.5V10ZM21 3H14C13.7 3 13.5 3.2 13.5 3.5V10.5C13.5 10.8 13.7 11 14 11H21C21.3 11 21.5 10.8 21.5 10.5V3.5C21.5 3.2 21.3 3 21 3ZM20.5 10H14.5V4H20.5V10ZM21 16.5H18V13.5C18 13.2 17.8 13 17.5 13C17.2 13 17 13.2 17 13.5V16.5H14C13.7 16.5 13.5 16.7 13.5 17C13.5 17.3 13.7 17.5 14 17.5H17V20.5C17 20.8 17.2 21 17.5 21C17.8 21 18 20.8 18 20.5V17.5H21C21.3 17.5 21.5 17.3 21.5 17C21.5 16.7 21.3 16.5 21 16.5Z" fill="#6C63FF"/>
</g>
</svg>
