<svg width="50" height="51" viewBox="0 0 50 51" fill="none" xmlns="http://www.w3.org/2000/svg">
<g id="Elearning">
<path id="Vector" d="M48.4375 7.41968V30.8572C48.4358 32.3071 47.8591 33.6971 46.8339 34.7223C45.8087 35.7476 44.4186 36.3243 42.9688 36.3259H33.6953L34.2812 41.0134H35.9375C36.5591 41.0134 37.1552 41.2604 37.5948 41.6999C38.0343 42.1394 38.2812 42.7356 38.2812 43.3572C38.2812 43.9788 38.0343 44.5749 37.5948 45.0145C37.1552 45.454 36.5591 45.7009 35.9375 45.7009H26.5625V44.1384H35.9375C36.1447 44.1384 36.3434 44.0561 36.4899 43.9096C36.6364 43.7631 36.7188 43.5644 36.7188 43.3572C36.7188 43.15 36.6364 42.9513 36.4899 42.8047C36.3434 42.6582 36.1447 42.5759 35.9375 42.5759H26.5625V41.0134H32.7109L32.125 36.3259H26.5625V34.7634H42.9688C44.0048 34.7634 44.9983 34.3519 45.7309 33.6193C46.4635 32.8867 46.875 31.8932 46.875 30.8572V30.0759H26.5625V28.5134H46.875V7.41968C46.875 6.38368 46.4635 5.39011 45.7309 4.65754C44.9983 3.92498 44.0048 3.51343 42.9688 3.51343H11.7188C10.6827 3.51343 9.68918 3.92498 8.95661 4.65754C8.22405 5.39011 7.8125 6.38368 7.8125 7.41968V23.8259H6.25V7.41968C6.25165 5.96978 6.82836 4.57975 7.85359 3.55451C8.87882 2.52928 10.2689 1.95258 11.7188 1.95093H42.9688C44.4186 1.95258 45.8087 2.52928 46.8339 3.55451C47.8591 4.57975 48.4358 5.96978 48.4375 7.41968Z" fill="#6C63FF"/>
<path id="Vector_2" d="M42.1875 31.6384H43.75V33.2009H42.1875V31.6384ZM22.6562 25.3884H3.90625C3.28522 25.3903 2.69015 25.6378 2.25102 26.0769C1.81188 26.5161 1.56435 27.1111 1.5625 27.7322V46.4822C1.56435 47.1032 1.81188 47.6983 2.25102 48.1374C2.69015 48.5765 3.28522 48.8241 3.90625 48.8259H22.6562C23.2773 48.8241 23.8723 48.5765 24.3115 48.1374C24.7506 47.6983 24.9981 47.1032 25 46.4822V27.7322C24.9981 27.1111 24.7506 26.5161 24.3115 26.0769C23.8723 25.6378 23.2773 25.3903 22.6562 25.3884ZM23.4375 46.4822C23.4375 46.6894 23.3552 46.8881 23.2087 47.0346C23.0622 47.1811 22.8635 47.2634 22.6562 47.2634H3.90625C3.69905 47.2634 3.50034 47.1811 3.35382 47.0346C3.20731 46.8881 3.125 46.6894 3.125 46.4822V27.7322C3.125 27.525 3.20731 27.3263 3.35382 27.1797C3.50034 27.0332 3.69905 26.9509 3.90625 26.9509H22.6562C22.8635 26.9509 23.0622 27.0332 23.2087 27.1797C23.3552 27.3263 23.4375 27.525 23.4375 27.7322V46.4822Z" fill="#6C63FF"/>
<path id="Vector_3" d="M15.8648 35.8072L13.3648 34.1415C13.1296 33.9852 12.8563 33.8955 12.5741 33.8821C12.2919 33.8687 12.0114 33.9321 11.7623 34.0655C11.5133 34.1989 11.3051 34.3973 11.1598 34.6396C11.0146 34.8819 10.9377 35.159 10.9375 35.4415V38.7728C10.937 39.0558 11.0134 39.3337 11.1584 39.5767C11.3035 39.8197 11.5119 40.0187 11.7613 40.1525C12.0107 40.2863 12.2918 40.3498 12.5745 40.3364C12.8572 40.3229 13.1309 40.2329 13.3664 40.0759L15.8664 38.4103C16.0804 38.2676 16.2559 38.0743 16.3772 37.8475C16.4986 37.6207 16.5621 37.3675 16.5621 37.1103C16.5621 36.8531 16.4986 36.5999 16.3772 36.3731C16.2559 36.1463 16.0804 35.953 15.8664 35.8103L15.8648 35.8072ZM12.5 38.7775V35.4415L15 37.1072L12.5 38.7775Z" fill="#6C63FF"/>
<path id="Vector_4" d="M13.2813 30.0759C11.8906 30.0759 10.5312 30.4883 9.3749 31.2609C8.21862 32.0335 7.3174 33.1316 6.78523 34.4164C6.25305 35.7012 6.1138 37.115 6.38511 38.4789C6.65641 39.8428 7.32607 41.0957 8.30941 42.079C9.29275 43.0624 10.5456 43.732 11.9095 44.0033C13.2735 44.2746 14.6872 44.1354 15.972 43.6032C17.2568 43.071 18.3549 42.1698 19.1275 41.0135C19.9001 39.8572 20.3125 38.4978 20.3125 37.1072C20.3104 35.243 19.569 33.4558 18.2508 32.1376C16.9326 30.8194 15.1454 30.078 13.2813 30.0759ZM13.2813 42.5759C12.1996 42.5759 11.1423 42.2552 10.243 41.6543C9.34365 41.0534 8.6427 40.1993 8.22879 39.2C7.81487 38.2007 7.70657 37.1011 7.91758 36.0403C8.1286 34.9794 8.64944 34.005 9.41426 33.2402C10.1791 32.4754 11.1535 31.9545 12.2144 31.7435C13.2752 31.5325 14.3748 31.6408 15.3741 32.0547C16.3733 32.4686 17.2274 33.1696 17.8284 34.0689C18.4293 34.9682 18.75 36.0256 18.75 37.1072C18.7484 38.5571 18.1716 39.9471 17.1464 40.9723C16.1212 41.9976 14.7311 42.5743 13.2813 42.5759ZM41.0781 16.904L39.0625 16.2322V15.99C39.5466 15.6305 39.94 15.1629 40.2113 14.6244C40.4826 14.0859 40.6243 13.4914 40.625 12.8884V10.5447C40.625 9.50867 40.2135 8.5151 39.4809 7.78254C38.7483 7.04997 37.7548 6.63842 36.7188 6.63842C35.6828 6.63842 34.6892 7.04997 33.9566 7.78254C33.2241 8.5151 32.8125 9.50867 32.8125 10.5447V12.8884C32.8132 13.4914 32.9549 14.0859 33.2262 14.6244C33.4975 15.1629 33.8909 15.6305 34.375 15.99V16.2322L32.3594 16.904C31.581 17.1617 30.9038 17.6583 30.4241 18.3231C29.9443 18.988 29.6866 19.7873 29.6875 20.6072V24.6072C29.6875 24.8144 29.7698 25.0131 29.9163 25.1596C30.0628 25.3061 30.2616 25.3884 30.4688 25.3884H42.9688C43.176 25.3884 43.3747 25.3061 43.5212 25.1596C43.6677 25.0131 43.75 24.8144 43.75 24.6072V20.6072C43.7509 19.7873 43.4932 18.988 43.0135 18.3231C42.5337 17.6583 41.8565 17.1617 41.0781 16.904ZM34.375 10.5447C34.375 9.92307 34.6219 9.32693 35.0615 8.88739C35.501 8.44785 36.0972 8.20092 36.7188 8.20092C37.3404 8.20092 37.9365 8.44785 38.376 8.88739C38.8156 9.32693 39.0625 9.92307 39.0625 10.5447V11.3025C38.952 11.2768 38.8485 11.2271 38.7594 11.1569C38.6702 11.0867 38.5977 10.9977 38.5469 10.8962L38.2031 10.1931C38.147 10.0822 38.0655 9.98619 37.9652 9.91285C37.8649 9.83952 37.7486 9.79096 37.626 9.77115C37.5033 9.75134 37.3777 9.76084 37.2594 9.79887C37.1411 9.83691 37.0335 9.9024 36.9453 9.98999L36.7578 10.1853C36.1152 10.8175 35.2729 11.2069 34.375 11.2869V10.5447ZM34.375 12.8572C35.4211 12.7966 36.4263 12.4299 37.2656 11.8025C37.4612 12.1077 37.7257 12.3629 38.0377 12.5474C38.3498 12.7319 38.7008 12.8407 39.0625 12.865V12.8884C39.0625 13.51 38.8156 14.1062 38.376 14.5457C37.9365 14.9852 37.3404 15.2322 36.7188 15.2322C36.0972 15.2322 35.501 14.9852 35.0615 14.5457C34.6219 14.1062 34.375 13.51 34.375 12.8884V12.8572ZM37.7656 17.3728L36.7188 18.1619L35.6719 17.3728C35.7545 17.3007 35.8208 17.2118 35.8666 17.1122C35.9124 17.0125 35.9366 16.9043 35.9375 16.7947V16.7165C36.4531 16.8207 36.9844 16.8207 37.5 16.7165V16.7947C37.501 16.9043 37.5251 17.0125 37.5709 17.1122C37.6167 17.2118 37.683 17.3007 37.7656 17.3728ZM42.1875 23.8259H31.25V20.6072C31.2495 20.1159 31.404 19.6369 31.6916 19.2385C31.9792 18.8401 32.3851 18.5427 32.8516 18.3884L33.9375 18.0212L36.25 19.7634C36.3852 19.8648 36.5497 19.9197 36.7188 19.9197C36.8878 19.9197 37.0523 19.8648 37.1875 19.7634L39.5 18.0212L40.5859 18.3884C41.0524 18.5427 41.4584 18.8401 41.7459 19.2385C42.0335 19.6369 42.188 20.1159 42.1875 20.6072V23.8259ZM26.5625 11.6986V15.2322H28.125V10.5447C28.1251 10.3885 28.0784 10.2359 27.991 10.1065C27.9035 9.97718 27.7793 9.87698 27.6344 9.81889L19.8219 6.69389C19.6352 6.6197 19.4273 6.6197 19.2406 6.69389L11.4281 9.81889C11.2829 9.87675 11.1584 9.97684 11.0706 10.1062C10.9829 10.2356 10.936 10.3883 10.936 10.5447C10.936 10.701 10.9829 10.8537 11.0706 10.9831C11.1584 11.1125 11.2829 11.2126 11.4281 11.2705L14.0625 12.3236V16.7947C14.0625 17.0019 14.1448 17.2006 14.2913 17.3471C14.4378 17.4936 14.6366 17.5759 14.8438 17.5759H24.2188C24.426 17.5759 24.6247 17.4936 24.7712 17.3471C24.9177 17.2006 25 17.0019 25 16.7947V12.3236L26.5625 11.6986ZM19.5313 8.26108L25.2406 10.5447L19.5313 12.8283L13.8219 10.5447L19.5313 8.26108ZM23.4375 16.0134H15.625V12.9486L19.2406 14.3955C19.4273 14.4694 19.6352 14.4694 19.8219 14.3955L23.4375 12.9486V16.0134ZM14.0625 19.1384H15.625V20.7009H14.0625V19.1384ZM17.1875 19.1384H25V20.7009H17.1875V19.1384ZM14.0625 22.2634H25V23.8259H14.0625V22.2634Z" fill="#6C63FF"/>
</g>
</svg>
