<svg width="24" height="24" viewBox="0 0 24 24" fill="none" xmlns="http://www.w3.org/2000/svg">
<g id="Explore" clip-path="url(#clip0_1_8590)">
<path id="Vector" d="M12 10.9C11.395 10.9 10.9 11.395 10.9 12C10.9 12.605 11.395 13.1 12 13.1C12.2917 13.1 12.5715 12.9841 12.7778 12.7778C12.9841 12.5715 13.1 12.2917 13.1 12C13.1 11.7083 12.9841 11.4285 12.7778 11.2222C12.5715 11.0159 12.2917 10.9 12 10.9ZM12 2C6.475 2 2 6.475 2 12C2 17.52 6.475 22 12 22C17.525 22 22 17.52 22 12C22 6.475 17.525 2 12 2ZM14.19 14.19L6 18L9.81 9.81L18 6L14.19 14.19Z" fill="#6C63FF"/>
</g>
<defs>
<clipPath id="clip0_1_8590">
<rect width="24" height="24" fill="white"/>
</clipPath>
</defs>
</svg>
