<svg width="25" height="25" viewBox="0 0 25 25" fill="none" xmlns="http://www.w3.org/2000/svg">
<g clip-path="url(#clip0_1_13003)">
<path d="M5.81891 14.7174L4.9835 17.8361L1.93011 17.9007C1.01759 16.2082 0.5 14.2717 0.5 12.2139C0.5 10.224 0.983938 8.34751 1.84175 6.69521H1.84241L4.56078 7.19358L5.75159 9.89565C5.50236 10.6223 5.36652 11.4023 5.36652 12.2139C5.36661 13.0948 5.52617 13.9388 5.81891 14.7174Z" fill="#FBBB00"/>
<path d="M24.2902 9.97215C24.428 10.6981 24.4999 11.4477 24.4999 12.2139C24.4999 13.073 24.4095 13.9111 24.2375 14.7194C23.6533 17.4702 22.1269 19.8721 20.0124 21.5719L20.0118 21.5713L16.5878 21.3966L16.1032 18.3715C17.5063 17.5486 18.6028 16.2609 19.1804 14.7194H12.7637V9.97215H24.2902Z" fill="#518EF8"/>
<path d="M20.0119 21.5713L20.0126 21.5719C17.9561 23.2249 15.3438 24.2139 12.5001 24.2139C7.93018 24.2139 3.957 21.6596 1.93018 17.9007L5.81897 14.7174C6.83236 17.422 9.44138 19.3473 12.5001 19.3473C13.8148 19.3473 15.0465 18.9919 16.1033 18.3715L20.0119 21.5713Z" fill="#28B446"/>
<path d="M20.1596 2.97652L16.2721 6.15915C15.1783 5.47543 13.8853 5.08046 12.5 5.08046C9.37213 5.08046 6.71431 7.09407 5.75169 9.89565L1.84245 6.69521H1.8418C3.83895 2.84466 7.86223 0.213898 12.5 0.213898C15.4117 0.213898 18.0814 1.25105 20.1596 2.97652Z" fill="#F14336"/>
</g>
<defs>
<clipPath id="clip0_1_13003">
<rect width="24" height="24" fill="white" transform="translate(0.5 0.213898)"/>
</clipPath>
</defs>
</svg>
