<svg width="20" height="20" viewBox="0 0 20 20" fill="none" xmlns="http://www.w3.org/2000/svg">
<g id="Group">
<path id="Vector" d="M14.2924 5.70783C15.7878 6.34687 17.4697 6.39634 19.0001 5.84629M5.84623 19.0001C6.39578 17.4649 6.34634 15.779 5.70777 14.2786C5.20795 13.084 5.07272 11.7681 5.3191 10.4968C5.56549 9.22546 6.18247 8.05543 7.09239 7.13398C8.02516 6.21086 9.21035 5.58454 10.4985 5.33398" stroke="#00A74A" stroke-linecap="round" stroke-linejoin="round"/>
<path id="Vector_2" d="M9.44615 14.6659C10.7406 14.4133 11.9309 13.782 12.8662 12.8521M12.8662 12.8521C13.7777 11.9316 14.3957 10.7615 14.6422 9.48978C14.8887 8.21804 14.7524 6.90177 14.2508 5.70745C13.6252 4.20674 13.5906 2.52494 14.1538 0.999756M12.8662 12.8521L7.14769 7.1336M1 14.1536C2.53104 13.601 4.21557 13.6555 5.70769 14.3059" stroke="#00A74A" stroke-linecap="round" stroke-linejoin="round"/>
</g>
</svg>
