<svg width="51" height="51" viewBox="0 0 51 51" fill="none" xmlns="http://www.w3.org/2000/svg">
<g id="Gym" clip-path="url(#clip0_1_13754)">
<path id="Vector" d="M35.6649 46.134H33.1923C33.0424 46.1457 32.9024 46.2134 32.8002 46.3238C32.6981 46.4341 32.6414 46.5789 32.6414 46.7293C32.6414 46.8796 32.6981 47.0244 32.8002 47.1348C32.9024 47.2451 33.0424 47.3129 33.1923 47.3245H35.6649C35.8148 47.3129 35.9548 47.2451 36.0569 47.1348C36.159 47.0244 36.2158 46.8796 36.2158 46.7293C36.2158 46.5789 36.159 46.4341 36.0569 46.3238C35.9548 46.2134 35.8148 46.1457 35.6649 46.134ZM17.8077 46.134H15.3351C15.1852 46.1457 15.0452 46.2134 14.9431 46.3238C14.841 46.4341 14.7842 46.5789 14.7842 46.7293C14.7842 46.8796 14.841 47.0244 14.9431 47.1348C15.0452 47.2451 15.1852 47.3129 15.3351 47.3245H17.8077C17.9576 47.3129 18.0976 47.2451 18.1998 47.1348C18.3019 47.0244 18.3586 46.8796 18.3586 46.7293C18.3586 46.5789 18.3019 46.4341 18.1998 46.3238C18.0976 46.2134 17.9576 46.1457 17.8077 46.134ZM31.4524 46.134H19.5476C19.3898 46.134 19.2384 46.1967 19.1267 46.3084C19.0151 46.42 18.9524 46.5714 18.9524 46.7293C18.9524 46.8871 19.0151 47.0385 19.1267 47.1502C19.2384 47.2618 19.3898 47.3245 19.5476 47.3245H24.2917V47.9197H21.9286C21.7707 47.9197 21.6193 47.9825 21.5077 48.0941C21.396 48.2057 21.3333 48.3571 21.3333 48.515C21.3333 48.6729 21.396 48.8243 21.5077 48.9359C21.6193 49.0475 21.7707 49.1102 21.9286 49.1102H29.3691C29.5269 49.1102 29.6783 49.0475 29.7899 48.9359C29.9016 48.8243 29.9643 48.6729 29.9643 48.515C29.9643 48.3571 29.9016 48.2057 29.7899 48.0941C29.6783 47.9825 29.5269 47.9197 29.3691 47.9197H26.7083V47.3245H31.4524C31.6103 47.3245 31.7617 47.2618 31.8733 47.1502C31.9849 47.0385 32.0476 46.8871 32.0476 46.7293C32.0476 46.5714 31.9849 46.42 31.8733 46.3084C31.7617 46.1967 31.6103 46.134 31.4524 46.134Z" fill="#6C63FF"/>
<path id="Vector_2" d="M22.4911 11.2889L21.2024 10.0002C21.0906 9.88836 20.9579 9.79967 20.8119 9.73917C20.6658 9.67866 20.5093 9.64751 20.3512 9.64751C20.1931 9.64751 20.0366 9.67866 19.8905 9.73917C19.7445 9.79967 19.6118 9.88836 19.5 10.0002L18.8423 10.6549C18.8393 10.652 18.8393 10.646 18.8333 10.643L17.5446 9.35433C17.319 9.12879 17.0131 9.00185 16.6941 9.0013C16.375 9.00074 16.0687 9.12661 15.8423 9.35136L15.4018 9.79183L15.3928 9.78291L13.6726 8.06267C13.4469 7.83713 13.1411 7.71019 12.822 7.70963C12.503 7.70907 12.1967 7.83494 11.9702 8.05969L11.5298 8.50017L11.5208 8.49124L10.2321 7.19957C10.0061 6.97443 9.7 6.84802 9.38094 6.84802C9.06189 6.84802 8.75582 6.97443 8.52975 7.19957L6.80654 8.91683C6.69454 9.0284 6.60562 9.16095 6.54485 9.30689C6.48409 9.45283 6.45267 9.60932 6.45239 9.76741C6.45212 9.92549 6.48299 10.0821 6.54324 10.2282C6.6035 10.3744 6.69195 10.5073 6.80356 10.6192L8.09523 11.9109C8.09821 11.9139 8.10118 11.9139 8.10416 11.9168L7.66368 12.3573C7.55091 12.4684 7.46149 12.601 7.40067 12.7472C7.33985 12.8933 7.30886 13.0502 7.30951 13.2085C7.30927 13.3665 7.34016 13.523 7.40042 13.669C7.46068 13.8151 7.54913 13.9478 7.6607 14.0597L9.38094 15.7799C9.38392 15.7829 9.3869 15.7829 9.38987 15.7859L8.9494 16.2264C8.72447 16.4525 8.59821 16.7586 8.59821 17.0775C8.59821 17.3965 8.72447 17.7026 8.9494 17.9287L10.2381 19.2174L10.247 19.2264L9.59225 19.8781C9.36609 20.1038 9.23872 20.4099 9.23809 20.7293C9.23743 20.8877 9.26842 21.0445 9.32924 21.1907C9.39006 21.3369 9.47948 21.4694 9.59225 21.5805L10.8809 22.8722C11.1072 23.097 11.4132 23.2232 11.7321 23.2234C11.8902 23.224 12.0468 23.1933 12.1929 23.133C12.339 23.0727 12.4717 22.9841 12.5833 22.8722L15.8244 19.64L16.6667 18.8008L18.4077 17.0627L19.25 16.2234L22.4911 12.9912C22.6033 12.8797 22.6924 12.7471 22.7531 12.601C22.8139 12.4549 22.8452 12.2983 22.8452 12.14C22.8452 11.9818 22.8139 11.8252 22.7531 11.6791C22.6924 11.533 22.6033 11.4004 22.4911 11.2889ZM7.64582 9.76207L9.38987 8.04183L10.6786 9.34838L8.95535 11.0686C8.9494 11.0746 8.94047 11.0746 8.93749 11.0686L7.64582 9.76207ZM8.50297 13.1996L12.8303 8.90493L14.5506 10.64L10.244 14.9377C10.2408 14.9391 10.2372 14.9399 10.2336 14.9399C10.23 14.9399 10.2265 14.9391 10.2232 14.9377L8.50297 13.1996ZM9.79166 17.0686L16.7024 10.1936L17.9911 11.5031L11.1012 18.3752C11.0998 18.3766 11.0982 18.3777 11.0964 18.3785C11.0946 18.3793 11.0927 18.3797 11.0908 18.3797C11.0888 18.3797 11.0869 18.3793 11.0851 18.3785C11.0833 18.3777 11.0817 18.3766 11.0803 18.3752L9.79166 17.0686ZM11.7411 22.0299C11.7381 22.0359 11.7292 22.0359 11.7232 22.0299L10.4345 20.7234L20.3601 10.8424L21.6488 12.149L11.7411 22.0299Z" fill="#6C63FF"/>
<path id="Vector_3" d="M15.8244 19.6415L16.6664 18.7999L22.0774 24.2115L21.2357 25.0528L15.8244 19.6415ZM18.4077 17.0641L19.2494 16.2228L24.6577 21.6311L23.8161 22.4728L18.4077 17.0641Z" fill="#6C63FF"/>
<path id="Vector_4" d="M1.09524 44.9437C1.42398 44.9437 1.69048 44.6772 1.69048 44.3484C1.69048 44.0197 1.42398 43.7532 1.09524 43.7532C0.766497 43.7532 0.5 44.0197 0.5 44.3484C0.5 44.6772 0.766497 44.9437 1.09524 44.9437Z" fill="#6C63FF"/>
<path id="Vector_5" d="M3.7738 43.7532H2.88094C2.72308 43.7532 2.57168 43.8159 2.46005 43.9275C2.34842 44.0391 2.28571 44.1905 2.28571 44.3484C2.28571 44.5063 2.34842 44.6577 2.46005 44.7693C2.57168 44.8809 2.72308 44.9437 2.88094 44.9437H3.7738C3.93167 44.9437 4.08307 44.8809 4.1947 44.7693C4.30633 44.6577 4.36904 44.5063 4.36904 44.3484C4.36904 44.1905 4.30633 44.0391 4.1947 43.9275C4.08307 43.8159 3.93167 43.7532 3.7738 43.7532ZM48.119 43.7532H47.2262C47.0683 43.7532 46.9169 43.8159 46.8053 43.9275C46.6937 44.0391 46.6309 44.1905 46.6309 44.3484C46.6309 44.5063 46.6937 44.6577 46.8053 44.7693C46.9169 44.8809 47.0683 44.9437 47.2262 44.9437H48.119C48.2769 44.9437 48.4283 44.8809 48.5399 44.7693C48.6516 44.6577 48.7143 44.5063 48.7143 44.3484C48.7143 44.1905 48.6516 44.0391 48.5399 43.9275C48.4283 43.8159 48.2769 43.7532 48.119 43.7532Z" fill="#6C63FF"/>
<path id="Vector_6" d="M49.9047 44.9437C50.2335 44.9437 50.5 44.6772 50.5 44.3484C50.5 44.0197 50.2335 43.7532 49.9047 43.7532C49.576 43.7532 49.3095 44.0197 49.3095 44.3484C49.3095 44.6772 49.576 44.9437 49.9047 44.9437Z" fill="#6C63FF"/>
<path id="Vector_7" d="M45.3571 43.7531H43.3125L44.1934 42.8752C44.3054 42.7636 44.3944 42.6311 44.4551 42.4851C44.5159 42.3392 44.5473 42.1827 44.5476 42.0246C44.5479 41.8665 44.517 41.7099 44.4567 41.5638C44.3965 41.4176 44.308 41.2848 44.1964 41.1728L42.9048 39.8811C42.9018 39.8781 42.8988 39.8781 42.8958 39.8752L43.3363 39.4347C43.4491 39.3236 43.5385 39.191 43.5993 39.0448C43.6601 38.8987 43.6911 38.7418 43.6905 38.5835C43.6907 38.4255 43.6598 38.269 43.5996 38.123C43.5393 37.9769 43.4509 37.8442 43.3393 37.7323L41.619 36.015L41.6101 36.0061L42.0506 35.5656C42.2755 35.3395 42.4018 35.0334 42.4018 34.7145C42.4018 34.3955 42.2755 34.0894 42.0506 33.8633L40.753 32.5656L41.4077 31.9139C41.6339 31.6883 41.7613 31.3821 41.7619 31.0627C41.7626 30.9043 41.7316 30.7475 41.6707 30.6013C41.6099 30.4551 41.5205 30.3226 41.4077 30.2115L40.119 28.9198C39.8926 28.6953 39.5867 28.5694 39.2678 28.5694C38.949 28.5694 38.6431 28.6953 38.4167 28.9198L35.1756 32.152L34.3333 32.9912L32.5923 34.7293L31.75 35.5686L28.5089 38.8008C28.3967 38.9123 28.3076 39.0449 28.2468 39.191C28.1861 39.3371 28.1548 39.4937 28.1548 39.652C28.1548 39.8102 28.1861 39.9668 28.2468 40.1129C28.3076 40.259 28.3967 40.3916 28.5089 40.5031L29.7976 41.7918C30.0238 42.0168 30.3298 42.143 30.6488 42.143C30.9678 42.143 31.2738 42.0168 31.5 41.7918L32.1577 41.1371C32.1607 41.14 32.1607 41.146 32.1667 41.149L33.4554 42.4377C33.5668 42.5499 33.6995 42.639 33.8455 42.6998C33.9916 42.7606 34.1483 42.7919 34.3065 42.7918C34.6254 42.7911 34.9311 42.665 35.1577 42.4406L35.5982 42.0002L37.3274 43.7293C37.3363 43.7383 37.3452 43.7442 37.3542 43.7531H13.6458C13.6548 43.7442 13.6637 43.7383 13.6726 43.7293L15.4018 42.0002L15.8423 42.4406C16.0688 42.665 16.3746 42.7911 16.6934 42.7918C16.8517 42.7919 17.0084 42.7606 17.1544 42.6998C17.3005 42.639 17.4331 42.5499 17.5446 42.4377L18.8333 41.149C18.8393 41.146 18.8393 41.14 18.8423 41.1371L19.5 41.7948C19.727 42.0185 20.0331 42.1436 20.3518 42.143C20.6705 42.1425 20.9761 42.0163 21.2024 41.7918L22.4911 40.5031C22.6033 40.3916 22.6924 40.259 22.7531 40.1129C22.8139 39.9668 22.8452 39.8102 22.8452 39.652C22.8452 39.4937 22.8139 39.3371 22.7531 39.191C22.6924 39.0449 22.6033 38.9123 22.4911 38.8008L19.25 35.5686L18.4077 34.7293L16.6667 32.9912L15.8244 32.152L12.5833 28.9198C12.3569 28.6953 12.051 28.5694 11.7321 28.5694C11.4133 28.5694 11.1074 28.6953 10.8809 28.9198L9.59226 30.2115C9.47949 30.3226 9.39007 30.4551 9.32925 30.6013C9.26843 30.7475 9.23743 30.9043 9.23809 31.0627C9.23869 31.3821 9.36607 31.6883 9.59226 31.9139L10.247 32.5656L8.9494 33.8633C8.72448 34.0894 8.59822 34.3955 8.59822 34.7145C8.59822 35.0334 8.72448 35.3395 8.9494 35.5656L9.38988 36.0061C9.3869 36.0091 9.38393 36.0091 9.38095 36.0121L7.66071 37.7323C7.54913 37.8442 7.46069 37.9769 7.40043 38.123C7.34017 38.269 7.30928 38.4255 7.30952 38.5835C7.30886 38.7418 7.33986 38.8987 7.40068 39.0448C7.4615 39.191 7.55092 39.3236 7.66369 39.4347L8.10416 39.8752C8.10119 39.8781 8.09821 39.8781 8.09524 39.8811L6.80357 41.1728C6.69196 41.2848 6.6035 41.4176 6.54325 41.5638C6.483 41.7099 6.45212 41.8665 6.4524 42.0246C6.45268 42.1827 6.4841 42.3392 6.54486 42.4851C6.60563 42.6311 6.69455 42.7636 6.80655 42.8752L7.6875 43.7531H5.64285C5.55817 43.7421 5.47211 43.7492 5.3904 43.7741C5.3087 43.7989 5.23324 43.8409 5.16906 43.8972C5.10488 43.9536 5.05346 44.023 5.01823 44.1008C4.983 44.1786 4.96478 44.263 4.96478 44.3484C4.96478 44.4338 4.983 44.5182 5.01823 44.596C5.05346 44.6738 5.10488 44.7432 5.16906 44.7995C5.23324 44.8559 5.3087 44.8979 5.3904 44.9227C5.47211 44.9476 5.55817 44.9547 5.64285 44.9436H45.3571C45.4418 44.9547 45.5279 44.9476 45.6096 44.9227C45.6913 44.8979 45.7668 44.8559 45.8309 44.7995C45.8951 44.7432 45.9465 44.6738 45.9818 44.596C46.017 44.5182 46.0352 44.4338 46.0352 44.3484C46.0352 44.263 46.017 44.1786 45.9818 44.1008C45.9465 44.023 45.8951 43.9536 45.8309 43.8972C45.7668 43.8409 45.6913 43.7989 45.6096 43.7741C45.5279 43.7492 45.4418 43.7421 45.3571 43.7531ZM11.7411 29.7621L21.6548 39.652C21.6548 39.6579 21.6518 39.6579 21.6488 39.6609L20.3423 40.9496L10.4345 31.0537L11.7411 29.7621ZM11.1012 33.4168L11.1488 33.4645L17.997 40.2978C17.9972 40.301 17.9961 40.3042 17.994 40.3067L16.6845 41.5984L9.79166 34.7055L11.1012 33.4168ZM10.6786 42.4585L9.36904 43.7502L7.64583 42.015L8.95535 40.7234L8.97619 40.7442L10.6815 42.4525C10.6815 42.4555 10.6815 42.4585 10.6786 42.4585ZM11.0684 43.7531L11.5208 43.3008L11.5298 43.2918L11.9702 43.7323C11.9799 43.7383 11.9888 43.7453 11.997 43.7531H11.0684ZM8.50297 38.5746L10.244 36.8543L14.5536 41.1609C14.5538 41.1625 14.5536 41.1641 14.5531 41.1657C14.5526 41.1672 14.5517 41.1686 14.5506 41.1698L12.8125 42.8871L8.50297 38.5746ZM30.6399 40.9496L29.3512 39.6609V39.643L39.2768 29.7621L40.5655 31.0686L30.6399 40.9496ZM34.2976 41.5984L33.0059 40.3067L39.9196 33.4168L41.2083 34.7234L34.2976 41.5984ZM36.4494 41.1698V41.152L36.4732 41.1281L40.7768 36.8543L42.497 38.5924L38.1696 42.8871L36.4494 41.1698ZM39.003 43.7531C39.0112 43.7453 39.0201 43.7383 39.0298 43.7323L39.4702 43.2918L39.4792 43.3008L39.9315 43.7531H39.003ZM40.3214 42.4585V42.4436L42.0625 40.7234L43.3542 42.0329L41.6101 43.7502L40.3214 42.4585ZM31.75 16.2234L32.5923 17.0627L34.3333 18.8008L35.1756 19.64L38.4167 22.8722C38.5283 22.9841 38.661 23.0727 38.8071 23.133C38.9532 23.1933 39.1098 23.224 39.2678 23.2234C39.5868 23.2232 39.8928 23.097 40.119 22.8722L41.4077 21.5805C41.5205 21.4694 41.6099 21.3369 41.6707 21.1907C41.7316 21.0445 41.7626 20.8877 41.7619 20.7293C41.7613 20.4099 41.6339 20.1038 41.4077 19.8781L40.75 19.2264C40.753 19.2234 40.7589 19.2204 40.7619 19.2174L42.0506 17.9287C42.2755 17.7026 42.4018 17.3965 42.4018 17.0775C42.4018 16.7586 42.2755 16.4525 42.0506 16.2264L41.6101 15.7859C41.6131 15.7829 41.6161 15.7829 41.619 15.7799L43.3393 14.0597C43.4509 13.9478 43.5393 13.8151 43.5996 13.669C43.6598 13.523 43.6907 13.3665 43.6905 13.2085C43.6911 13.0502 43.6601 12.8933 43.5993 12.7472C43.5385 12.601 43.4491 12.4684 43.3363 12.3573L42.8958 11.9168C42.8988 11.9139 42.9018 11.9139 42.9048 11.9109L44.1964 10.6192C44.308 10.5073 44.3965 10.3744 44.4567 10.2282C44.517 10.0821 44.5479 9.9255 44.5476 9.76741C44.5473 9.60932 44.5159 9.45284 44.4551 9.30689C44.3944 9.16095 44.3054 9.02841 44.1934 8.91683L42.4702 7.19957C42.2438 6.97508 41.9379 6.84912 41.619 6.84912C41.3002 6.84912 40.9943 6.97508 40.7679 7.19957L39.4792 8.49124L39.4702 8.50017L39.0298 8.05969C38.8033 7.83494 38.497 7.70907 38.178 7.70963C37.8589 7.71019 37.5531 7.83713 37.3274 8.06267L35.6071 9.78291L35.5982 9.79183L35.1577 9.35136C34.9313 9.12661 34.625 9.00074 34.3059 9.0013C33.9869 9.00185 33.681 9.1288 33.4554 9.35433L32.1667 10.643C32.1607 10.646 32.1607 10.652 32.1577 10.6549L31.5 10.0002C31.3882 9.88837 31.2555 9.79968 31.1095 9.73917C30.9634 9.67866 30.8069 9.64751 30.6488 9.64751C30.4907 9.64751 30.3342 9.67866 30.1881 9.73917C30.0421 9.79968 29.9094 9.88837 29.7976 10.0002L28.5089 11.2889C28.3967 11.4004 28.3076 11.533 28.2468 11.6791C28.1861 11.8252 28.1548 11.9818 28.1548 12.14C28.1548 12.2983 28.1861 12.4549 28.2468 12.601C28.3076 12.7471 28.3967 12.8797 28.5089 12.9912L31.75 16.2234ZM41.6309 8.04183L43.3542 9.77695L42.0625 11.0686H42.0446L40.3214 9.3335L41.6309 8.04183ZM38.1875 8.90493L42.497 13.2174L40.7768 14.9377H40.7559L36.4494 10.6252L38.1875 8.90493ZM34.3155 10.1966L41.2083 17.0865L39.9196 18.3752H39.8988L33.0059 11.4853L34.3155 10.1966ZM30.6577 10.8424L40.5655 20.7383L39.2768 22.0299L29.3512 12.1311L30.6577 10.8424Z" fill="#6C63FF"/>
<path id="Vector_8" d="M32.5923 17.0627L16.6667 32.9912L15.8244 32.152L31.75 16.2234L32.5923 17.0627ZM35.1756 19.6401L19.25 35.5686L18.4077 34.7293L34.3333 18.8008L35.1756 19.6401ZM28.9268 27.5752L29.7699 26.735L35.1717 32.1561L34.3286 32.996L28.9268 27.5752ZM26.3467 30.1555L27.1896 29.3154L32.5884 34.7332L31.7455 35.5734L26.3467 30.1555Z" fill="#6C63FF"/>
<path id="Vector_9" d="M38 5.74658C38.1766 5.74658 38.3492 5.69422 38.4961 5.59611C38.6429 5.498 38.7573 5.35856 38.8249 5.19541C38.8925 5.03226 38.9102 4.85274 38.8757 4.67954C38.8413 4.50634 38.7562 4.34725 38.6314 4.22238C38.5065 4.09751 38.3474 4.01248 38.1742 3.97803C38.001 3.94358 37.8215 3.96126 37.6583 4.02884C37.4952 4.09641 37.3557 4.21085 37.2576 4.35768C37.1595 4.50451 37.1072 4.67714 37.1072 4.85373C37.1074 5.09046 37.2015 5.31742 37.3689 5.48481C37.5363 5.6522 37.7633 5.74635 38 5.74658ZM38 4.4073C38.0883 4.4073 38.1746 4.43348 38.248 4.48254C38.3214 4.53159 38.3787 4.60131 38.4125 4.68289C38.4462 4.76446 38.4551 4.85422 38.4379 4.94082C38.4206 5.02742 38.3781 5.10697 38.3157 5.1694C38.2533 5.23183 38.1737 5.27435 38.0871 5.29158C38.0005 5.3088 37.9107 5.29996 37.8292 5.26617C37.7476 5.23239 37.6779 5.17517 37.6288 5.10175C37.5798 5.02834 37.5536 4.94202 37.5536 4.85373C37.5537 4.73535 37.6007 4.62185 37.6844 4.53814C37.7681 4.45444 37.8816 4.40738 38 4.4073ZM49.3095 16.896C49.1918 16.896 49.0767 16.9309 48.9788 16.9963C48.881 17.0617 48.8047 17.1547 48.7596 17.2634C48.7146 17.3722 48.7028 17.4919 48.7257 17.6074C48.7487 17.7228 48.8054 17.8289 48.8886 17.9121C48.9719 17.9954 49.0779 18.0521 49.1934 18.075C49.3089 18.098 49.4286 18.0862 49.5373 18.0412C49.6461 17.9961 49.7391 17.9198 49.8045 17.8219C49.8699 17.724 49.9048 17.609 49.9048 17.4912C49.9046 17.3334 49.8419 17.1821 49.7303 17.0705C49.6187 16.9589 49.4674 16.8961 49.3095 16.896ZM49.3095 17.7888C49.2507 17.7888 49.1931 17.7714 49.1442 17.7387C49.0952 17.706 49.0571 17.6595 49.0346 17.6051C49.012 17.5507 49.0061 17.4909 49.0176 17.4332C49.0291 17.3754 49.0575 17.3224 49.0991 17.2808C49.1407 17.2392 49.1937 17.2108 49.2515 17.1993C49.3092 17.1878 49.369 17.1937 49.4234 17.2163C49.4778 17.2388 49.5243 17.2769 49.557 17.3259C49.5897 17.3748 49.6072 17.4324 49.6072 17.4912C49.6071 17.5701 49.5757 17.6458 49.5199 17.7016C49.4641 17.7574 49.3884 17.7888 49.3095 17.7888ZM4.45983 1.0448C4.3421 1.0448 4.22702 1.07971 4.12914 1.14512C4.03125 1.21052 3.95496 1.30348 3.9099 1.41225C3.86485 1.52102 3.85306 1.6407 3.87603 1.75616C3.899 1.87163 3.95569 1.97769 4.03893 2.06093C4.12218 2.14418 4.22824 2.20087 4.34371 2.22384C4.45917 2.24681 4.57885 2.23502 4.68762 2.18997C4.79639 2.14491 4.88935 2.06862 4.95475 1.97073C5.02016 1.87285 5.05507 1.75776 5.05507 1.64004C5.05491 1.48222 4.99215 1.33091 4.88055 1.21932C4.76896 1.10772 4.61765 1.04496 4.45983 1.0448ZM4.45983 1.93766C4.40097 1.93766 4.34343 1.9202 4.29448 1.8875C4.24554 1.8548 4.20739 1.80831 4.18487 1.75393C4.16234 1.69955 4.15645 1.63971 4.16793 1.58198C4.17942 1.52424 4.20776 1.47121 4.24938 1.42959C4.29101 1.38797 4.34404 1.35962 4.40177 1.34814C4.4595 1.33665 4.51934 1.34255 4.57373 1.36507C4.62811 1.3876 4.67459 1.42575 4.70729 1.47469C4.74 1.52363 4.75745 1.58117 4.75745 1.64004C4.75737 1.71895 4.72599 1.7946 4.67019 1.8504C4.6144 1.9062 4.53874 1.93758 4.45983 1.93766ZM47.6146 2.6817C47.4969 2.6817 47.3818 2.71661 47.2839 2.78202C47.186 2.84743 47.1097 2.94039 47.0647 3.04915C47.0196 3.15792 47.0078 3.2776 47.0308 3.39307C47.0538 3.50853 47.1105 3.61459 47.1937 3.69784C47.2769 3.78108 47.383 3.83778 47.4985 3.86074C47.6139 3.88371 47.7336 3.87192 47.8424 3.82687C47.9511 3.78182 48.0441 3.70553 48.1095 3.60764C48.1749 3.50975 48.2098 3.39467 48.2098 3.27694C48.2097 3.11912 48.1469 2.96781 48.0353 2.85622C47.9237 2.74462 47.7724 2.68186 47.6146 2.6817ZM47.6146 3.57456C47.5557 3.57456 47.4982 3.55711 47.4492 3.5244C47.4003 3.4917 47.3622 3.44522 47.3396 3.39084C47.3171 3.33645 47.3112 3.27661 47.3227 3.21888C47.3342 3.16115 47.3625 3.10812 47.4041 3.06649C47.4458 3.02487 47.4988 2.99653 47.5565 2.98504C47.6143 2.97356 47.6741 2.97945 47.7285 3.00198C47.7829 3.0245 47.8294 3.06265 47.8621 3.11159C47.8948 3.16054 47.9122 3.21808 47.9122 3.27694C47.9121 3.35585 47.8808 3.43151 47.825 3.4873C47.7692 3.5431 47.6935 3.57448 47.6146 3.57456ZM15.2441 5.59778C15.2441 5.48005 15.2091 5.36497 15.1437 5.26708C15.0783 5.16919 14.9854 5.0929 14.8766 5.04785C14.7678 5.00279 14.6482 4.99101 14.5327 5.01397C14.4172 5.03694 14.3112 5.09363 14.2279 5.17688C14.1447 5.26012 14.088 5.36619 14.065 5.48165C14.0421 5.59712 14.0538 5.7168 14.0989 5.82556C14.1439 5.93433 14.2202 6.02729 14.3181 6.0927C14.416 6.1581 14.5311 6.19301 14.6488 6.19301C14.8066 6.19286 14.9579 6.13009 15.0695 6.0185C15.1811 5.9069 15.2439 5.75559 15.2441 5.59778ZM14.3512 5.59778C14.3512 5.53891 14.3687 5.48137 14.4014 5.43243C14.4341 5.38348 14.4805 5.34534 14.5349 5.32281C14.5893 5.30028 14.6491 5.29439 14.7069 5.30587C14.7646 5.31736 14.8176 5.3457 14.8593 5.38733C14.9009 5.42895 14.9292 5.48198 14.9407 5.53971C14.9522 5.59745 14.9463 5.65729 14.9238 5.71167C14.9013 5.76605 14.8631 5.81253 14.8142 5.84524C14.7652 5.87794 14.7077 5.89539 14.6488 5.89539C14.5699 5.89532 14.4943 5.86393 14.4385 5.80814C14.3827 5.75234 14.3513 5.67668 14.3512 5.59778Z" fill="#6C63FF"/>
<path id="Vector_10" d="M2.91398 11.2699L3.35624 10.6877L3.07678 10.5294L2.79285 11.1812H2.78333L2.49493 10.5341L2.21041 10.6969L2.64851 11.2651V11.2746L1.96368 11.1859V11.5026L2.65297 11.4142V11.4234L2.21041 11.9916L2.47589 12.1594L2.77886 11.5026H2.78809L3.06755 12.1547L3.36101 11.9868L2.91398 11.4282V11.4187L3.61696 11.5026V11.1859L2.91398 11.2791V11.2699ZM24.5786 7.81182L24.3238 8.1389L24.4768 8.23533L24.6512 7.85735H24.6565L24.8173 8.23265L24.9863 8.13622L24.7289 7.8142V7.80914L25.1336 7.85735V7.67491L24.7289 7.72848V7.72313L24.9836 7.38801L24.8229 7.29694L24.6592 7.67223H24.6539L24.4878 7.29962L24.3238 7.39336L24.5762 7.72045V7.72581L24.1818 7.67491V7.85735L24.5786 7.80646V7.81182ZM46.7217 13.9062V13.5954L46.0321 13.6868V13.6776L46.4661 13.1068L46.192 12.9517L45.9134 13.591H45.9042L45.6211 12.9562L45.3423 13.116L45.7717 13.6731V13.6824L45.1 13.5954V13.9062L45.7762 13.8196V13.8285L45.3423 14.3856L45.6027 14.5502L45.8997 13.9062H45.9086L46.1827 14.5454L46.4705 14.3812L46.0321 13.8329V13.824L46.7217 13.9062ZM28.2592 1.577L28.6336 1.08473L28.3973 0.950806L28.1571 1.50229H28.1491L27.9048 0.954675L27.6643 1.09247L28.0348 1.57313V1.58116L27.4554 1.50616V1.77402L28.0387 1.69932V1.70706L27.6643 2.18771L27.8887 2.32967L28.1452 1.77402H28.153L28.3893 2.32581L28.6375 2.18384L28.2592 1.71092V1.70319L28.8542 1.77402V1.50616L28.2592 1.58503V1.577Z" fill="#6C63FF"/>
</g>
<defs>
<clipPath id="clip0_1_13754">
<rect width="50" height="50" fill="white" transform="translate(0.5 0.0305176)"/>
</clipPath>
</defs>
</svg>
