<svg width="24" height="24" viewBox="0 0 24 24" fill="none" xmlns="http://www.w3.org/2000/svg">
<g id="Hand">
<path id="Vector" d="M11.7857 1.71429C11.375 1.71429 11.0223 1.86161 10.7277 2.15625C10.433 2.45089 10.2857 2.80357 10.2857 3.21429V12H9.85714V4.92857C9.85714 4.51786 9.70982 4.16518 9.41518 3.87054C9.12054 3.57589 8.76786 3.42857 8.35714 3.42857C7.94643 3.42857 7.59375 3.57589 7.29911 3.87054C7.00446 4.16518 6.85714 4.51786 6.85714 4.92857V15.4286L4.79464 12.683C4.45536 12.2277 4 12 3.42857 12C2.95536 12 2.55134 12.1674 2.21652 12.5022C1.8817 12.8371 1.71429 13.2411 1.71429 13.7143C1.71429 14.0982 1.83036 14.442 2.0625 14.7455L7.20536 21.6027C7.54464 22.058 8 22.2857 8.57143 22.2857H17.7857C18.0893 22.2857 18.3616 22.1875 18.6027 21.9911C18.8438 21.7946 18.9955 21.5446 19.058 21.2411L20.0759 15.817C20.1205 15.5312 20.1429 15.2679 20.1429 15.0268V8.35714C20.1429 7.94643 19.9955 7.59375 19.7009 7.29911C19.4062 7.00446 19.0536 6.85714 18.6429 6.85714C18.2321 6.85714 17.8795 7.00446 17.5848 7.29911C17.2902 7.59375 17.1429 7.94643 17.1429 8.35714V12H16.7143V4.92857C16.7143 4.51786 16.567 4.16518 16.2723 3.87054C15.9777 3.57589 15.625 3.42857 15.2143 3.42857C14.8036 3.42857 14.4509 3.57589 14.1562 3.87054C13.8616 4.16518 13.7143 4.51786 13.7143 4.92857V12H13.2857V3.21429C13.2857 2.80357 13.1384 2.45089 12.8438 2.15625C12.5491 1.86161 12.1964 1.71429 11.7857 1.71429ZM11.7857 0C12.3929 0 12.9531 0.158482 13.4665 0.475446C13.9799 0.792411 14.375 1.22321 14.6518 1.76786C14.8214 1.73214 15.0089 1.71429 15.2143 1.71429C16.0982 1.71429 16.8549 2.02902 17.4844 2.65848C18.1138 3.28795 18.4286 4.04464 18.4286 4.92857V5.15625C19.3661 5.10268 20.1719 5.38839 20.846 6.01339C21.5201 6.63839 21.8571 7.41964 21.8571 8.35714V15.0268C21.8571 15.3839 21.8214 15.7545 21.75 16.1384L20.7321 21.5491C20.6071 22.2545 20.2656 22.8393 19.7076 23.3036C19.1496 23.7679 18.5089 24 17.7857 24H8.57143C8.03571 24 7.52455 23.8772 7.03795 23.6317C6.55134 23.3862 6.14732 23.0536 5.82589 22.6339L0.683036 15.7768C0.227679 15.1696 0 14.4821 0 13.7143C0 12.7679 0.334821 11.9598 1.00446 11.2902C1.67411 10.6205 2.48214 10.2857 3.42857 10.2857C4.125 10.2857 4.69643 10.4375 5.14286 10.7411V4.92857C5.14286 4.04464 5.45759 3.28795 6.08705 2.65848C6.71652 2.02902 7.47321 1.71429 8.35714 1.71429C8.5625 1.71429 8.75 1.73214 8.91964 1.76786C9.19643 1.22321 9.59152 0.792411 10.1049 0.475446C10.6183 0.158482 11.1786 0 11.7857 0Z" fill="black"/>
</g>
</svg>
