<svg width="700" height="581" viewBox="0 0 700 581" fill="none" xmlns="http://www.w3.org/2000/svg">
<rect width="700" height="581" fill="#1E1E1E"/>
<g clip-path="url(#clip0_0_1)">
<rect width="1440" height="2450.03" transform="translate(-660 -73)" fill="white"/>
<path fill-rule="evenodd" clip-rule="evenodd" d="M281.754 7.94361C367.897 9.98791 454.932 7.65934 525.512 57.0891C610.597 116.677 698.777 196.979 699.987 300.848C701.202 405.213 619.361 494.393 531.258 550.352C458.123 596.803 367.34 579.951 281.754 566.487C213.244 555.709 147.209 533.399 100.083 482.518C54.7003 433.519 46.8552 366.7 35.7204 300.848C20.9429 213.452 -30.8651 113.108 26.1443 45.2383C83.7169 -23.3022 192.267 5.81995 281.754 7.94361Z" fill="#6C63FF"/>
<g clip-path="url(#clip1_0_1)">
<path d="M603.588 283.743H117.054C110.533 283.743 105.227 278.437 105.227 271.915V105.827C105.227 99.3056 110.533 94 117.054 94H603.588C610.11 94 615.415 99.3056 615.415 105.827V271.915C615.415 278.437 610.11 283.743 603.588 283.743ZM117.054 95.41C111.311 95.41 106.637 100.083 106.637 105.827V271.915C106.637 277.659 111.311 282.332 117.054 282.332H603.588C609.332 282.332 614.005 277.659 614.005 271.915V105.827C614.005 100.083 609.332 95.41 603.588 95.41H117.054Z" fill="#3F3D56"/>
<path d="M650 482.156H50V483.343H650V482.156Z" fill="#E6E6E6"/>
<path d="M650 421.524H50V422.711H650V421.524Z" fill="#E6E6E6"/>
<path d="M323.437 289.851C323.868 295.265 327.011 299.432 330.457 299.157C333.902 298.882 336.345 294.271 335.914 288.854C335.771 286.688 335.112 284.588 333.991 282.729L331.875 259.81L321.142 261.032L324.366 283.496C323.554 285.51 323.235 287.689 323.437 289.851Z" fill="#FFB6B6"/>
<path d="M310.614 182.927C310.614 182.927 320.648 177.615 325.736 185.553C330.824 193.49 334.335 279.336 334.335 279.336L320.233 280.842L317.56 220.349L310.614 182.927Z" fill="#E6E6E6"/>
<path d="M289.789 417.045L297.958 417.045L301.844 385.534L289.787 385.535L289.789 417.045Z" fill="#FFB6B6"/>
<path d="M317.778 416.86C318.032 417.288 318.167 418.671 318.167 419.169C318.167 420.701 316.925 421.942 315.394 421.942H290.094C289.05 421.942 288.203 421.095 288.203 420.05V418.997C288.203 418.997 286.951 415.831 289.528 411.93C289.528 411.93 292.73 414.985 297.516 410.199L298.927 407.643L309.142 415.114L314.804 415.811C316.042 415.963 317.141 415.787 317.778 416.86Z" fill="#2F2E41"/>
<path d="M337.064 415.693L344.979 413.67L340.945 382.178L329.263 385.163L337.064 415.693Z" fill="#FFB6B6"/>
<path d="M364.136 408.586C364.489 408.938 364.961 410.244 365.084 410.727C365.463 412.211 364.568 413.721 363.084 414.1L338.572 420.362C337.56 420.62 336.529 420.009 336.271 418.997L336.01 417.977C336.01 417.977 334.014 415.219 335.545 410.801C335.545 410.801 339.404 412.968 342.856 407.147L343.591 404.321L355.337 409.031L360.995 408.305C362.233 408.146 363.253 407.704 364.136 408.586Z" fill="#2F2E41"/>
<path d="M283.03 176.153L282.643 173.342L287.246 162.099L299.896 160.693L302.627 176.79L283.03 176.153Z" fill="#FFB6B6"/>
<path opacity="0.1" d="M283.03 176.153L282.643 173.342L287.246 162.099L299.896 160.693L302.627 176.79L283.03 176.153Z" fill="black"/>
<path d="M268.273 255.562L262.651 271.022L266.867 279.455L287.949 401.73H301.965L299.193 293.509L331.518 401.73H345.391L334.235 328.646L325.897 261.184L320.839 258.059L296.382 244.318L268.273 255.562Z" fill="#2F2E41"/>
<path d="M304.112 266.103L295.679 267.508L284.435 240.805H309.734L304.112 266.103Z" fill="#E6E6E6"/>
<path d="M320.977 259.076L304.112 266.103L298.49 253.454L295.679 267.508L266.164 258.007L270.381 240.804L266.164 184.586L281.048 174.663L283.03 173.342L301.301 174.748L302.903 175.619L313.95 181.775L316.761 228.155L320.977 259.076Z" fill="#2F2E41"/>
<path d="M302.903 175.619L294.976 209.182L281.048 174.663L283.03 173.342L301.301 174.748L302.903 175.619Z" fill="#E6E6E6"/>
<path d="M289.355 173.342L286.544 178.183L289.355 179.797L287.949 209.269L293.571 216.912L299.193 205.616L294.976 179.797L296.382 173.342H289.355Z" fill="#2F2E41"/>
<path d="M293.571 170.531C300.945 170.531 306.923 164.553 306.923 157.179C306.923 149.805 300.945 143.827 293.571 143.827C286.197 143.827 280.219 149.805 280.219 157.179C280.219 164.553 286.197 170.531 293.571 170.531Z" fill="#FFB6B6"/>
<path d="M285.038 158.351L287.923 159.61L289.182 152.055C289.182 152.055 294.218 149.537 297.996 150.796C301.773 152.055 308.068 150.796 308.068 150.796C308.068 150.796 308.068 138.206 299.255 138.206C290.441 138.206 281.628 139.465 281.628 143.242C281.628 147.019 277.851 150.796 277.851 150.796C277.851 150.796 272.814 158.351 277.851 163.387C282.887 168.423 285.405 168.423 285.405 168.423L285.038 158.351Z" fill="#2F2E41"/>
<path d="M259.131 289.455C258.984 294.885 261.667 299.362 265.123 299.455C268.578 299.547 271.497 295.221 271.643 289.789C271.731 287.62 271.298 285.462 270.381 283.495L270.711 260.481L259.908 260.556L260.729 283.236C259.707 285.152 259.159 287.284 259.131 289.455Z" fill="#FFB6B6"/>
<path d="M272.496 181.749C272.496 181.749 263.36 178.938 259.144 187.37C254.928 195.803 260.549 281.537 260.549 281.537H274.731L270.967 221.102L272.496 181.749Z" fill="#E6E6E6"/>
<path d="M622.943 341.469L588.875 331.04C588.122 330.81 587.331 330.726 586.546 330.792L413.884 345.487C411.422 345.697 410.804 349.017 413.025 350.099L418.555 352.794H418.408V481.779H423.619V355.261L440.953 363.705C442.279 364.351 443.759 364.615 445.227 364.467L447.071 364.281V481.779H452.283V363.754L585.828 350.265V481.779H591.04V349.738L613.189 347.501V481.779H618.401V346.975L622.441 346.566C625.278 346.28 625.67 342.304 622.943 341.469Z" fill="#3F3D56"/>
<path d="M464.009 344.976C467.266 344.976 515.473 339.113 515.473 339.113L522.639 348.885L472.478 358.657L464.009 344.976Z" fill="white"/>
<path d="M516.916 476.77L508.541 476.754L504.612 444.443L516.973 444.465L516.916 476.77Z" fill="#A0616A"/>
<path d="M488.222 476.53C487.96 476.969 487.82 478.386 487.819 478.897C487.817 480.467 489.087 481.742 490.657 481.745L516.594 481.789C517.665 481.791 518.535 480.924 518.537 479.853L518.539 478.773C518.539 478.773 519.827 475.53 517.193 471.525C517.193 471.525 513.904 474.652 509.007 469.738L507.564 467.114L497.079 474.755L491.273 475.46C490.003 475.614 488.877 475.431 488.222 476.53Z" fill="#2F2E41"/>
<path d="M561.867 461.744L555.259 466.728L532.889 443.613L542.642 436.256L561.867 461.744Z" fill="#A0616A"/>
<path d="M539.116 478.672C539.171 479.174 539.907 480.374 540.21 480.777C541.145 482.016 542.906 482.262 544.145 481.328L564.608 465.891C565.453 465.254 565.621 464.052 564.984 463.207L564.341 462.355C564.341 462.355 563.422 459.031 558.957 457.447C558.957 457.447 558.231 461.872 551.44 460.922L548.739 459.715L545.035 471.99L540.881 476.008C539.972 476.888 538.976 477.415 539.116 478.672Z" fill="#2F2E41"/>
<path d="M544.363 294.749C544.363 302.472 538.102 308.733 530.379 308.733C522.656 308.733 516.394 302.472 516.394 294.749C516.394 287.025 522.656 280.764 530.379 280.764C538.102 280.764 544.363 287.025 544.363 294.749Z" fill="#A0616A"/>
<path d="M543.046 375.38C543.046 375.38 491.557 372.466 488.642 378.295C485.728 384.124 504.398 464.19 504.398 464.19L521.056 460.699L512.93 404.525C512.93 404.525 555.896 415.904 561.725 402.303C567.554 388.702 565.876 383.638 565.876 383.638L543.046 375.38Z" fill="#2F2E41"/>
<path d="M556.238 365.596C556.238 365.596 505.812 376.406 504.543 382.798C503.275 389.19 542.46 461.466 542.46 461.466L557.601 453.693L534.904 401.669C534.904 401.669 579.35 401.277 581.374 386.618C583.397 371.96 580.439 367.52 580.439 367.52L556.238 365.596Z" fill="#2F2E41"/>
<path d="M561.99 310.776H537.764L521.187 337.977C521.187 337.977 517.301 355.556 521.187 357.453C525.073 359.35 525.073 379.752 525.073 379.752L565.876 383.638C565.876 383.638 571.705 322.434 569.762 316.605C567.819 310.776 561.99 310.776 561.99 310.776Z" fill="white"/>
<path d="M523.616 328.748L521.187 357.453L493.869 345.859L487.349 342.58C486.072 340.915 484.415 339.58 482.516 338.687C477.795 336.385 472.782 336.955 471.318 339.959C469.854 342.963 472.493 347.263 477.214 349.563C479.088 350.508 481.161 350.991 483.26 350.97L502.337 361.805L502.359 361.763L502.444 361.914L532.359 374.409L539.243 336.726L523.616 328.748Z" fill="#A0616A"/>
<path d="M520.701 296.689C520.701 296.689 506.129 298.632 511.958 286.002C511.958 286.002 511.069 279.156 515.4 278.693C519.73 278.23 525.559 270.459 525.559 270.459C525.559 270.459 538.923 263.658 545.842 270.459C552.761 277.259 573.162 317.09 573.162 317.09L559.561 331.663C559.561 331.663 551.385 310.167 541.872 312.657C532.359 315.147 523.616 322.571 523.616 322.571C523.616 322.571 513.962 317.74 518.303 313.529C522.644 309.318 520.701 296.689 520.701 296.689Z" fill="#2F2E41"/>
<path d="M540.131 318.062C540.131 318.062 533.331 309.318 528.473 316.119C523.616 322.919 519.73 331.663 519.73 331.663L539.16 338.463L540.131 318.062Z" fill="white"/>
<path d="M613.904 479.845L591.33 408.095L591.333 408.094H591.385L591.294 407.977L591.292 407.975L589.684 402.864L589.685 402.863C592.134 400.753 593.802 397.737 594.134 394.264L583.815 337.511C584.526 330.058 578.812 323.544 571.327 323.277L548.045 323.218C541.426 322.984 535.693 327.765 534.729 334.319L534.215 337.797L527.081 386.323C526.821 388.069 526.925 389.789 527.335 391.398L522.202 392.069L520.645 392.277L514.489 393.079L514.47 393.085L513.701 393.183H512.867V414.029H512.919V480.659C512.919 481.088 513.271 481.44 513.701 481.44C514.137 481.44 514.489 481.088 514.489 480.659V414.029H523.622L532.736 480.58C532.795 480.971 533.127 481.258 533.518 481.258C533.55 481.258 533.589 481.258 533.622 481.251C534.052 481.193 534.351 480.795 534.293 480.365L525.212 414.029H569.034C573.385 414.029 577.417 412.648 580.701 410.284L598.076 480.458C598.166 480.813 598.485 481.049 598.836 481.049C598.899 481.049 598.965 481.042 599.03 481.025C599.449 480.918 599.703 480.491 599.597 480.071L582.054 409.218C582.287 409.024 582.52 408.816 582.741 408.603L589.715 408.192L612.407 480.316C612.512 480.651 612.822 480.866 613.155 480.866C613.233 480.866 613.313 480.854 613.391 480.829C613.804 480.699 614.034 480.259 613.904 479.845ZM588.193 403.977C588.252 403.945 588.304 403.906 588.356 403.873L588.524 404.406L588.193 403.977Z" fill="#E6E6E6"/>
<path d="M170.958 358.225L186.15 348.564L192.327 352.29L170.958 376.844V358.225Z" fill="#FFB6B6"/>
<path d="M150.182 320.829C150.182 320.829 140.091 323.204 144.84 336.856C149.589 350.509 165.022 379.001 169.771 377.22C174.519 375.44 175.113 357.632 175.113 357.632C175.113 357.632 174.519 358.225 172.145 355.851C169.771 353.477 169.771 354.561 169.771 351.941C169.771 349.322 167.829 347.38 167.829 347.38L165.615 342.792C165.615 342.792 165.615 321.423 156.712 320.236C147.808 319.049 150.182 320.829 150.182 320.829Z" fill="#E6E6E6"/>
<path d="M197.328 351.651C201.268 347.71 202.49 342.543 200.056 340.109C197.622 337.675 192.454 338.896 188.513 342.837C184.573 346.778 183.351 351.945 185.785 354.379C188.219 356.813 193.387 355.592 197.328 351.651Z" fill="#FFB6B6"/>
<path d="M110.878 399.48L121.244 416.639L181.657 413.064L165.571 392.331L110.878 399.48Z" fill="#E6E6E6"/>
<path d="M128.929 479.733C128.577 479.733 128.271 479.473 128.222 479.115L110.169 347.271C110.116 346.879 110.389 346.519 110.78 346.465C111.171 346.409 111.532 346.685 111.586 347.076L129.638 478.921C129.692 479.312 129.418 479.673 129.027 479.726C128.994 479.731 128.961 479.733 128.929 479.733Z" fill="#E6E6E6"/>
<path d="M110.878 479.901C110.483 479.901 110.163 479.58 110.163 479.186V347.199C110.163 346.804 110.483 346.484 110.878 346.484C111.272 346.484 111.592 346.804 111.592 347.199V479.186C111.592 479.58 111.272 479.901 110.878 479.901Z" fill="#E6E6E6"/>
<path d="M201.497 479.376C201.193 479.376 200.911 479.18 200.815 478.875L158.097 343.098C157.979 342.722 158.188 342.32 158.564 342.202C158.941 342.084 159.343 342.293 159.461 342.669L202.179 478.446C202.298 478.823 202.088 479.224 201.712 479.343C201.64 479.365 201.568 479.376 201.497 479.376Z" fill="#E6E6E6"/>
<path d="M188.449 479.543C188.13 479.543 187.839 479.328 187.756 479.004L158.086 359.172C157.989 358.789 158.22 358.4 158.603 358.303C158.987 358.206 159.375 358.437 159.472 358.819L189.142 478.652C189.239 479.034 189.008 479.424 188.626 479.521C188.566 479.536 188.507 479.543 188.449 479.543Z" fill="#E6E6E6"/>
<path d="M110.878 349.302L160.388 348.54L169.503 400.553H111.592L110.878 349.302Z" fill="#E6E6E6"/>
<path d="M186.962 425.782L174.485 447.75L188.972 450.939L195.012 435.315L186.962 425.782Z" fill="#FFB6B6"/>
<path d="M178.966 443.602C178.966 443.602 178.482 440.02 175.631 441.157C172.781 442.294 164.554 446.519 164.554 446.519C164.554 446.519 186.011 481.383 190.083 479.759C194.155 478.134 189.28 468.279 189.28 468.279L190.356 450.859L178.966 443.602Z" fill="#2F2E41"/>
<path d="M131.781 383.156C131.781 383.156 127.329 403.635 140.982 410.758C154.634 417.881 201.231 400.37 201.231 400.37L179.862 432.389L194.701 438.36C194.701 438.36 228.536 393.841 226.161 386.718C223.787 379.595 207.76 379.001 207.76 379.001L171.551 380.782L162.054 377.814L131.781 383.156Z" fill="#2F2E41"/>
<path d="M168.503 435.532L148.887 451.453L161.221 459.695L172.532 447.34L168.503 435.532Z" fill="#FFB6B6"/>
<path d="M154.571 449.221C154.571 449.221 155.423 445.707 152.354 445.729C149.286 445.751 140.086 446.693 140.086 446.693C140.086 446.693 147.385 486.974 151.769 486.943C156.152 486.912 155.198 475.959 155.198 475.959L162.539 460.124L154.571 449.221Z" fill="#2F2E41"/>
<path d="M132.616 375.748C132.616 375.748 121.017 393.203 131.142 404.806C141.266 416.409 191.04 417.054 191.04 417.054L159.485 439.102L171.135 450.063C171.135 450.063 218.849 420.908 219.23 413.409C219.61 405.911 204.898 399.526 204.898 399.526L170.523 388.009L162.757 381.788L132.616 375.748Z" fill="#2F2E41"/>
<path d="M162.411 335.319C162.411 335.319 151.133 331.164 145.791 331.164C145.281 331.164 144.776 331.223 144.271 331.33C140.852 332.054 137.706 334.993 136.199 336.595C135.611 337.224 135.273 337.646 135.273 337.646C135.273 337.646 135.308 337.236 135.379 336.518C135.73 332.743 137.024 320.355 139.345 312.424C140.176 309.593 141.131 307.331 142.229 306.233C144.788 303.669 145.969 300.594 146.515 298.303C146.978 296.338 146.978 294.955 146.978 294.955L142.651 293.091L141.85 287.856C141.707 288.473 141.048 289.678 138.834 291.987C138.644 292.183 138.436 292.349 138.217 292.492C135.023 294.498 128.512 291.008 125.004 288.811C126.464 283.736 129.111 279.094 133.919 278.334C145.197 276.554 145.197 270.024 152.32 277.147C152.908 277.735 153.502 278.299 154.095 278.845C156.375 283.202 157.206 289.043 157.502 293.103C157.716 295.946 157.663 297.923 157.663 297.923C157.663 297.923 160.631 315.731 165.379 319.292C170.128 322.854 162.411 335.319 162.411 335.319Z" fill="#2F2E41"/>
<path d="M140.449 306.827L132.428 318.591L150.54 323.447V306.827H140.449Z" fill="#FFB6B6"/>
<path opacity="0.1" d="M140.449 306.827L132.428 318.591L150.54 323.447V306.827H140.449Z" fill="black"/>
<path d="M151.666 318.158L134.452 311.035C134.452 311.035 111.302 321.126 113.083 340.715C114.864 360.303 131.484 394.138 131.484 394.138L164.725 379.891L161.164 341.902L151.666 318.158Z" fill="#E6E6E6"/>
<path d="M144.285 312.079C152.673 312.079 159.472 305.28 159.472 296.892C159.472 288.505 152.673 281.705 144.285 281.705C135.898 281.705 129.098 288.505 129.098 296.892C129.098 305.28 135.898 312.079 144.285 312.079Z" fill="#FFB6B6"/>
<path d="M164.786 291.393C161.818 294.361 159.444 297.329 159.444 297.329L158.256 292.581C158.256 292.581 157.983 292.782 157.502 293.103C155.621 294.385 150.569 297.608 146.515 298.303C144.711 298.611 143.108 298.416 142.063 297.329C139.849 295.02 139.19 293.815 139.048 293.198L138.246 298.433L133.919 300.297C133.919 300.297 133.919 306.815 138.668 311.575C138.899 311.807 139.125 312.092 139.345 312.424C141.612 315.843 143.239 324.213 144.271 331.33C145.186 337.658 145.625 342.988 145.625 342.988C145.625 342.988 141.131 337.361 136.199 336.595C135.926 336.554 135.652 336.524 135.379 336.518C135.29 336.506 135.195 336.506 135.106 336.506C129.764 336.506 118.486 340.661 118.486 340.661C118.486 340.661 110.769 328.196 115.518 324.634C120.267 321.073 123.235 303.265 123.235 303.265C123.235 303.265 123.039 295.643 125.004 288.811C126.464 283.736 129.111 279.094 133.919 278.334C145.197 276.554 145.197 270.024 152.32 277.147C152.908 277.735 153.502 278.299 154.095 278.845C160.732 284.947 167.51 288.669 164.786 291.393Z" fill="#2F2E41"/>
<path d="M98.1771 371.075H92.5369V482.469H98.1771V371.075Z" fill="#3F3D56"/>
<path d="M234.952 371.075H229.312V482.469H234.952V371.075Z" fill="#3F3D56"/>
<path d="M198.996 323.838H161.629V361.204H198.996V323.838Z" fill="white"/>
<path d="M140.091 363.568L155.284 353.906L161.46 357.632L140.091 382.186V363.568Z" fill="#FFB6B6"/>
<path d="M119.316 326.172C119.316 326.172 109.225 328.546 113.973 342.199C118.722 355.851 134.155 384.343 138.904 382.563C143.653 380.782 144.246 362.974 144.246 362.974C144.246 362.974 143.653 363.568 141.278 361.193C138.904 358.819 138.904 359.903 138.904 357.284C138.904 354.664 136.962 352.722 136.962 352.722L134.749 348.134C134.749 348.134 134.749 326.765 125.845 325.578C116.941 324.391 119.316 326.172 119.316 326.172Z" fill="#E6E6E6"/>
<path d="M166.461 356.994C170.402 353.053 171.623 347.885 169.189 345.451C166.755 343.017 161.588 344.238 157.647 348.179C153.706 352.12 152.485 357.288 154.919 359.722C157.353 362.156 162.52 360.934 166.461 356.994Z" fill="#FFB6B6"/>
<path d="M246.232 366.845H75.6163V379.535H246.232V366.845Z" fill="#3F3D56"/>
<path d="M419.577 265.321H394.379C392.382 265.321 390.762 266.94 390.762 268.938V279.33C390.762 281.327 392.382 282.947 394.379 282.947H419.577C421.574 282.947 423.193 281.327 423.193 279.33V268.938C423.193 266.94 421.574 265.321 419.577 265.321Z" fill="#3F3D56"/>
<path d="M472.454 275.713H447.256C445.258 275.713 443.639 277.332 443.639 279.33V279.33C443.639 281.327 445.258 282.947 447.256 282.947H472.454C474.451 282.947 476.07 281.327 476.07 279.33C476.07 277.332 474.451 275.713 472.454 275.713Z" fill="white"/>
</g>
</g>
<defs>
<clipPath id="clip0_0_1">
<rect width="1440" height="2450.03" fill="white" transform="translate(-660 -73)"/>
</clipPath>
<clipPath id="clip1_0_1">
<rect width="600" height="392.943" fill="white" transform="translate(50 94)"/>
</clipPath>
</defs>
</svg>
