<svg width="16" height="19" viewBox="0 0 16 19" fill="none" xmlns="http://www.w3.org/2000/svg">
<g id="instagram logo" clip-path="url(#clip0_1_13814)">
<path id="Vector" d="M8.00368 5.4876C5.73225 5.4876 3.90011 7.29111 3.90011 9.52705C3.90011 11.763 5.73225 13.5665 8.00368 13.5665C10.2751 13.5665 12.1073 11.763 12.1073 9.52705C12.1073 7.29111 10.2751 5.4876 8.00368 5.4876ZM8.00368 12.1532C6.53583 12.1532 5.33583 10.9755 5.33583 9.52705C5.33583 8.07861 6.53225 6.90088 8.00368 6.90088C9.47511 6.90088 10.6715 8.07861 10.6715 9.52705C10.6715 10.9755 9.47154 12.1532 8.00368 12.1532ZM13.2322 5.32236C13.2322 5.84619 12.8037 6.26455 12.2751 6.26455C11.743 6.26455 11.318 5.84267 11.318 5.32236C11.318 4.80205 11.7465 4.38017 12.2751 4.38017C12.8037 4.38017 13.2322 4.80205 13.2322 5.32236ZM15.9501 6.27861C15.8894 5.0165 15.5965 3.89853 14.6572 2.97744C13.7215 2.05635 12.5858 1.76807 11.3037 1.70479C9.98225 1.63096 6.02154 1.63096 4.70011 1.70479C3.42154 1.76455 2.28583 2.05283 1.34654 2.97392C0.407258 3.89502 0.117972 5.01299 0.0536865 6.27509C-0.0213135 7.57588 -0.0213135 11.4747 0.0536865 12.7755C0.114401 14.0376 0.407258 15.1556 1.34654 16.0767C2.28583 16.9977 3.41797 17.286 4.70011 17.3493C6.02154 17.4231 9.98225 17.4231 11.3037 17.3493C12.5858 17.2895 13.7215 17.0013 14.6572 16.0767C15.593 15.1556 15.8858 14.0376 15.9501 12.7755C16.0251 11.4747 16.0251 7.57939 15.9501 6.27861ZM14.243 14.1712C13.9644 14.8602 13.4251 15.3911 12.7215 15.6688C11.668 16.0802 9.16797 15.9852 8.00368 15.9852C6.8394 15.9852 4.33583 16.0767 3.28583 15.6688C2.58583 15.3946 2.04654 14.8638 1.7644 14.1712C1.34654 13.1341 1.44297 10.6731 1.44297 9.52705C1.44297 8.38095 1.35011 5.9165 1.7644 4.88291C2.04297 4.19385 2.58226 3.66299 3.28583 3.38525C4.3394 2.97392 6.8394 3.06885 8.00368 3.06885C9.16797 3.06885 11.6715 2.97744 12.7215 3.38525C13.4215 3.65947 13.9608 4.19033 14.243 4.88291C14.6608 5.92002 14.5644 8.38095 14.5644 9.52705C14.5644 10.6731 14.6608 13.1376 14.243 14.1712Z" fill="white"/>
</g>
<defs>
<clipPath id="clip0_1_13814">
<rect width="16" height="18" fill="white" transform="translate(0.00012207 0.530518)"/>
</clipPath>
</defs>
</svg>
