<svg width="554" height="124" viewBox="0 0 554 124" fill="none" xmlns="http://www.w3.org/2000/svg">
<rect width="554" height="124" fill="#1E1E1E"/>
<rect width="1440" height="1822" transform="translate(-744 -1045)" fill="white"/>
<g filter="url(#filter0_ddd_0_1)">
<rect x="-614" y="-301" width="578" height="265" rx="16" fill="white"/>
</g>
<g filter="url(#filter1_dddd_0_1)">
<rect x="-12" y="-301" width="578" height="265" rx="16" fill="white"/>
</g>
<g filter="url(#filter2_ddd_0_1)">
<rect x="-614" y="-12" width="578" height="265" rx="16" fill="white"/>
</g>
<g filter="url(#filter3_dddd_0_1)">
<rect x="-12" y="-12" width="578" height="265" rx="16" fill="white"/>
<rect width="554" height="124" rx="8" fill="#C7D7FE"/>
<g clip-path="url(#clip0_0_1)">
<path d="M263.89 79.1235C263.845 78.8772 263.739 78.6463 263.579 78.4532L255.576 61.1546C255.458 60.9009 255.271 60.6861 255.035 60.5355C254.799 60.3849 254.526 60.305 254.246 60.305C253.967 60.305 253.693 60.3849 253.457 60.5355C253.222 60.6861 253.034 60.9009 252.917 61.1546L244.913 78.4532C244.754 78.6463 244.647 78.8772 244.603 79.1235L241.632 85.545C241.471 85.8972 241.457 86.2984 241.592 86.6612C241.726 87.024 241.999 87.3188 242.35 87.4812C242.701 87.6437 243.102 87.6607 243.466 87.5284C243.829 87.3962 244.126 87.1254 244.291 86.7753L247.032 80.8501H261.46L264.202 86.7753C264.367 87.1254 264.663 87.3962 265.027 87.5284C265.39 87.6607 265.791 87.6437 266.143 87.4812C266.494 87.3188 266.766 87.024 266.901 86.6612C267.035 86.2984 267.021 85.8972 266.861 85.545L263.89 79.1235ZM248.388 77.9204L254.246 65.2583L260.105 77.9204H248.388ZM289.333 29.4958H292.331C292.72 29.4958 293.092 29.3415 293.367 29.0668C293.642 28.792 293.796 28.4195 293.796 28.031C293.796 27.6425 293.642 27.2699 293.367 26.9952C293.092 26.7204 292.72 26.5661 292.331 26.5661H283.406C283.018 26.5661 282.645 26.7204 282.37 26.9952C282.096 27.2699 281.941 27.6425 281.941 28.031C281.941 28.4195 282.096 28.792 282.37 29.0668C282.645 29.3415 283.018 29.4958 283.406 29.4958H286.404V36.0999H278.971C279.562 35.1571 279.889 34.0733 279.919 32.9611C279.949 31.8489 279.681 30.749 279.142 29.7758C278.602 28.8025 277.812 27.9915 276.854 27.427C275.895 26.8626 274.802 26.5653 273.69 26.5661H267.381C266.993 26.5661 266.62 26.7204 266.346 26.9952C266.071 27.2699 265.917 27.6425 265.917 28.031C265.917 28.4195 266.071 28.792 266.346 29.0668C266.62 29.3415 266.993 29.4958 267.381 29.4958H273.69C274.566 29.4958 275.405 29.8437 276.025 30.4629C276.644 31.0822 276.992 31.9221 276.992 32.7979C276.992 33.6736 276.644 34.5135 276.025 35.1328C275.405 35.752 274.566 36.0999 273.69 36.0999H267.381C266.993 36.0999 266.62 36.2542 266.346 36.5289C266.071 36.8037 265.917 37.1762 265.917 37.5647C265.917 37.9532 266.071 38.3258 266.346 38.6005C266.62 38.8753 266.993 39.0296 267.381 39.0296H273.584C275.423 39.0296 276.956 40.4757 277.002 42.2532C277.014 42.6954 276.937 43.1355 276.776 43.5474C276.615 43.9594 276.373 44.3349 276.064 44.6518C275.755 44.9687 275.387 45.2206 274.979 45.3926C274.572 45.5646 274.134 45.6532 273.691 45.6532C273.646 45.6532 273.6 45.6554 273.555 45.6597C271.95 45.8102 270.332 45.5978 268.821 45.038C267.309 44.4783 265.944 43.5856 264.824 42.4261C264.691 42.2856 264.531 42.1728 264.354 42.0943C264.178 42.0159 263.987 41.9733 263.793 41.969C263.6 41.9647 263.407 41.9988 263.227 42.0693C263.047 42.1398 262.882 42.2453 262.743 42.3798C262.604 42.5143 262.493 42.675 262.416 42.8527C262.339 43.0304 262.298 43.2215 262.296 43.4151C262.294 43.6086 262.329 43.8007 262.402 43.9803C262.474 44.1598 262.581 44.3233 262.717 44.4612C263.993 45.7837 265.524 46.8351 267.216 47.5522C268.909 48.2694 270.728 48.6377 272.567 48.6351C272.966 48.6351 273.365 48.6177 273.762 48.5825C274.589 48.5731 275.407 48.3993 276.166 48.0712C276.926 47.743 277.613 47.2671 278.187 46.6711C278.761 46.075 279.211 45.3708 279.51 44.5994C279.809 43.8279 279.952 43.0046 279.931 42.1774C279.901 41.0582 279.562 39.9689 278.953 39.0296H286.404V47.0983C286.404 47.4868 286.558 47.8594 286.833 48.1341C287.108 48.4089 287.48 48.5632 287.869 48.5632C288.257 48.5632 288.63 48.4089 288.904 48.1341C289.179 47.8594 289.334 47.4868 289.334 47.0983L289.333 29.4958ZM305.604 62.5134C301.345 62.51 297.182 63.7807 293.651 66.162V63.7446C297.547 61.1792 300.743 57.6835 302.95 53.5733C305.157 49.4631 306.305 44.8678 306.291 40.2026C306.291 24.6298 293.623 11.9604 278.051 11.9604C262.479 11.9604 249.811 24.6298 249.811 40.2026C249.806 43.2081 250.283 46.1948 251.225 49.0491C237.618 50.5573 227 62.1245 227 76.1267C226.987 80.6227 228.092 85.0514 230.217 89.0137C232.342 92.976 235.419 96.3473 239.171 98.8239V110.44C239.171 110.699 239.24 110.953 239.37 111.177C239.5 111.401 239.687 111.586 239.912 111.714C240.138 111.842 240.392 111.908 240.651 111.905C240.91 111.902 241.164 111.831 241.386 111.698L255.395 103.348C259.319 103.182 263.16 102.17 266.656 100.381C270.151 98.5919 273.219 96.0686 275.649 92.9838C278.079 89.8989 279.813 86.3254 280.733 82.5079C281.654 78.6904 281.738 74.7191 280.981 70.8659L286.542 74.1798C284.915 77.3678 284.114 80.913 284.212 84.4908C284.309 88.0687 285.303 91.5649 287.101 94.6595C288.899 97.7541 291.445 100.348 294.505 102.205C297.565 104.061 301.042 105.12 304.617 105.286L315.375 111.699C315.597 111.832 315.851 111.903 316.11 111.906C316.369 111.908 316.624 111.842 316.849 111.715C317.074 111.587 317.261 111.401 317.391 111.178C317.521 110.954 317.59 110.7 317.59 110.441V101.637C321.384 99.0708 324.255 95.3551 325.78 91.0361C327.305 86.7171 327.404 82.0228 326.062 77.6434C324.72 73.264 322.009 69.4306 318.326 66.7071C314.643 63.9836 310.184 62.5137 305.604 62.5134ZM271.663 93.095C267.26 97.6358 261.252 100.27 254.928 100.433C254.678 100.44 254.434 100.511 254.219 100.639L242.101 107.862V98.0245C242.101 97.7757 242.038 97.5309 241.917 97.3134C241.796 97.0958 241.622 96.9127 241.41 96.7812C237.135 94.1244 233.789 90.2062 231.834 85.5672C229.88 80.9282 229.413 75.7969 230.499 70.8815C231.584 65.966 234.169 61.5085 237.895 58.1241C241.622 54.7397 246.306 52.5951 251.303 51.9863C256.3 51.3774 261.363 52.3343 265.793 54.7249C270.223 57.1155 273.802 60.822 276.036 65.333C278.271 69.844 279.05 74.9371 278.266 79.9097C277.483 84.8823 275.176 89.4893 271.663 93.095ZM279.839 66.7747C277.917 61.5357 274.436 57.0117 269.864 53.8122C265.292 50.6128 259.849 48.8916 254.268 48.8808C253.253 46.1003 252.735 43.1626 252.74 40.2024C252.74 26.245 264.095 14.8899 278.051 14.8899C292.007 14.8899 303.361 26.245 303.361 40.2024C303.374 44.5087 302.282 48.7462 300.19 52.5101C298.097 56.274 295.075 59.4385 291.411 61.7013C291.2 61.8328 291.026 62.016 290.905 62.2335C290.784 62.4511 290.721 62.6958 290.721 62.9446V73.2591L289.27 72.3946L289.268 72.3927L289.264 72.3907L279.839 66.7747ZM315.351 99.5978C315.14 99.7293 314.965 99.9125 314.845 100.13C314.724 100.348 314.66 100.592 314.66 100.841V107.862L305.795 102.577C305.58 102.449 305.336 102.378 305.085 102.371C301.986 102.284 298.958 101.418 296.281 99.8522C293.604 98.2868 291.364 96.0726 289.769 93.4138C288.173 90.7551 287.272 87.7373 287.149 84.6388C287.027 81.5402 287.686 78.4607 289.067 75.6841L291.436 77.0958C291.658 77.2283 291.912 77.2995 292.171 77.3022C292.429 77.3048 292.684 77.2389 292.909 77.111C293.134 76.9831 293.322 76.7979 293.452 76.5742C293.582 76.3505 293.651 76.0962 293.651 75.8374V69.8366C295.587 68.1924 297.841 66.9653 300.273 66.232C302.705 65.4988 305.262 65.2751 307.785 65.5751C310.307 65.8751 312.741 66.6922 314.933 67.9754C317.125 69.2586 319.029 70.9802 320.525 73.0327C322.022 75.0852 323.079 77.4243 323.63 79.9039C324.182 82.3835 324.216 84.9502 323.73 87.4434C323.245 89.9367 322.25 92.303 320.808 94.3943C319.366 96.4857 317.508 98.2571 315.351 99.5978ZM314.663 75.9056H311.618C311.505 75.8922 311.39 75.8922 311.277 75.9056H307.068V73.4442C307.068 73.0557 306.914 72.6832 306.639 72.4084C306.364 72.1337 305.992 71.9794 305.603 71.9794C305.215 71.9794 304.842 72.1337 304.567 72.4084C304.293 72.6832 304.138 73.0557 304.138 73.4442V75.9056H297.517C297.129 75.9056 296.756 76.0599 296.481 76.3346C296.207 76.6093 296.052 76.9819 296.052 77.3704C296.052 77.7589 296.207 78.1315 296.481 78.4062C296.756 78.6809 297.129 78.8353 297.517 78.8353H309.209C307.955 81.3987 306.229 83.7021 304.12 85.6243C303.156 84.6392 302.308 83.5475 301.591 82.3704C301.388 82.041 301.063 81.8055 300.687 81.7151C300.31 81.6247 299.914 81.6869 299.583 81.888C299.252 82.0891 299.015 82.4129 298.922 82.7887C298.829 83.1644 298.889 83.5615 299.088 83.8933C299.866 85.1728 300.778 86.366 301.809 87.4524C300.445 88.3845 298.982 89.1614 297.446 89.7688C297.266 89.8387 297.101 89.9436 296.962 90.0774C296.822 90.2112 296.711 90.3712 296.633 90.5483C296.556 90.7254 296.515 90.916 296.511 91.1092C296.508 91.3024 296.543 91.4944 296.614 91.6741C296.685 91.8537 296.791 92.0175 296.926 92.156C297.061 92.2945 297.222 92.405 297.399 92.4811C297.577 92.5571 297.768 92.5973 297.961 92.5993C298.154 92.6012 298.346 92.5649 298.525 92.4925C300.477 91.7198 302.323 90.7051 304.022 89.4724C306.193 91.1916 308.683 92.4643 311.348 93.2173C311.721 93.3212 312.12 93.2732 312.458 93.0838C312.795 92.8945 313.044 92.5791 313.15 92.2068C313.256 91.8344 313.21 91.4352 313.023 91.0965C312.835 90.7578 312.521 90.5072 312.149 90.3993C310.06 89.8093 308.094 88.8481 306.346 87.5618C308.959 85.1071 311.032 82.1352 312.434 78.8353H314.663C315.052 78.8353 315.424 78.6809 315.699 78.4062C315.974 78.1315 316.128 77.7589 316.128 77.3704C316.128 76.9819 315.974 76.6093 315.699 76.3346C315.424 76.0599 315.052 75.9056 314.663 75.9056Z" fill="#2D31A6"/>
</g>
</g>
<defs>
<filter id="filter0_ddd_0_1" x="-692" y="-301" width="734" height="538" filterUnits="userSpaceOnUse" color-interpolation-filters="sRGB">
<feFlood flood-opacity="0" result="BackgroundImageFix"/>
<feColorMatrix in="SourceAlpha" type="matrix" values="0 0 0 0 0 0 0 0 0 0 0 0 0 0 0 0 0 0 127 0" result="hardAlpha"/>
<feOffset dy="49"/>
<feGaussianBlur stdDeviation="24.5"/>
<feColorMatrix type="matrix" values="0 0 0 0 0.8 0 0 0 0 0.8 0 0 0 0 0.8 0 0 0 0.09 0"/>
<feBlend mode="normal" in2="BackgroundImageFix" result="effect1_dropShadow_0_1"/>
<feColorMatrix in="SourceAlpha" type="matrix" values="0 0 0 0 0 0 0 0 0 0 0 0 0 0 0 0 0 0 127 0" result="hardAlpha"/>
<feOffset dy="110"/>
<feGaussianBlur stdDeviation="33"/>
<feColorMatrix type="matrix" values="0 0 0 0 0.8 0 0 0 0 0.8 0 0 0 0 0.8 0 0 0 0.05 0"/>
<feBlend mode="normal" in2="effect1_dropShadow_0_1" result="effect2_dropShadow_0_1"/>
<feColorMatrix in="SourceAlpha" type="matrix" values="0 0 0 0 0 0 0 0 0 0 0 0 0 0 0 0 0 0 127 0" result="hardAlpha"/>
<feOffset dy="195"/>
<feGaussianBlur stdDeviation="39"/>
<feColorMatrix type="matrix" values="0 0 0 0 0.8 0 0 0 0 0.8 0 0 0 0 0.8 0 0 0 0.01 0"/>
<feBlend mode="normal" in2="effect2_dropShadow_0_1" result="effect3_dropShadow_0_1"/>
<feBlend mode="normal" in="SourceGraphic" in2="effect3_dropShadow_0_1" result="shape"/>
</filter>
<filter id="filter1_dddd_0_1" x="-90" y="-316" width="734" height="553" filterUnits="userSpaceOnUse" color-interpolation-filters="sRGB">
<feFlood flood-opacity="0" result="BackgroundImageFix"/>
<feColorMatrix in="SourceAlpha" type="matrix" values="0 0 0 0 0 0 0 0 0 0 0 0 0 0 0 0 0 0 127 0" result="hardAlpha"/>
<feOffset dy="12"/>
<feGaussianBlur stdDeviation="13.5"/>
<feColorMatrix type="matrix" values="0 0 0 0 0.8 0 0 0 0 0.8 0 0 0 0 0.8 0 0 0 0.1 0"/>
<feBlend mode="normal" in2="BackgroundImageFix" result="effect1_dropShadow_0_1"/>
<feColorMatrix in="SourceAlpha" type="matrix" values="0 0 0 0 0 0 0 0 0 0 0 0 0 0 0 0 0 0 127 0" result="hardAlpha"/>
<feOffset dy="49"/>
<feGaussianBlur stdDeviation="24.5"/>
<feColorMatrix type="matrix" values="0 0 0 0 0.8 0 0 0 0 0.8 0 0 0 0 0.8 0 0 0 0.09 0"/>
<feBlend mode="normal" in2="effect1_dropShadow_0_1" result="effect2_dropShadow_0_1"/>
<feColorMatrix in="SourceAlpha" type="matrix" values="0 0 0 0 0 0 0 0 0 0 0 0 0 0 0 0 0 0 127 0" result="hardAlpha"/>
<feOffset dy="110"/>
<feGaussianBlur stdDeviation="33"/>
<feColorMatrix type="matrix" values="0 0 0 0 0.8 0 0 0 0 0.8 0 0 0 0 0.8 0 0 0 0.05 0"/>
<feBlend mode="normal" in2="effect2_dropShadow_0_1" result="effect3_dropShadow_0_1"/>
<feColorMatrix in="SourceAlpha" type="matrix" values="0 0 0 0 0 0 0 0 0 0 0 0 0 0 0 0 0 0 127 0" result="hardAlpha"/>
<feOffset dy="195"/>
<feGaussianBlur stdDeviation="39"/>
<feColorMatrix type="matrix" values="0 0 0 0 0.8 0 0 0 0 0.8 0 0 0 0 0.8 0 0 0 0.01 0"/>
<feBlend mode="normal" in2="effect3_dropShadow_0_1" result="effect4_dropShadow_0_1"/>
<feBlend mode="normal" in="SourceGraphic" in2="effect4_dropShadow_0_1" result="shape"/>
</filter>
<filter id="filter2_ddd_0_1" x="-692" y="-12" width="734" height="538" filterUnits="userSpaceOnUse" color-interpolation-filters="sRGB">
<feFlood flood-opacity="0" result="BackgroundImageFix"/>
<feColorMatrix in="SourceAlpha" type="matrix" values="0 0 0 0 0 0 0 0 0 0 0 0 0 0 0 0 0 0 127 0" result="hardAlpha"/>
<feOffset dy="49"/>
<feGaussianBlur stdDeviation="24.5"/>
<feColorMatrix type="matrix" values="0 0 0 0 0.8 0 0 0 0 0.8 0 0 0 0 0.8 0 0 0 0.09 0"/>
<feBlend mode="normal" in2="BackgroundImageFix" result="effect1_dropShadow_0_1"/>
<feColorMatrix in="SourceAlpha" type="matrix" values="0 0 0 0 0 0 0 0 0 0 0 0 0 0 0 0 0 0 127 0" result="hardAlpha"/>
<feOffset dy="110"/>
<feGaussianBlur stdDeviation="33"/>
<feColorMatrix type="matrix" values="0 0 0 0 0.8 0 0 0 0 0.8 0 0 0 0 0.8 0 0 0 0.05 0"/>
<feBlend mode="normal" in2="effect1_dropShadow_0_1" result="effect2_dropShadow_0_1"/>
<feColorMatrix in="SourceAlpha" type="matrix" values="0 0 0 0 0 0 0 0 0 0 0 0 0 0 0 0 0 0 127 0" result="hardAlpha"/>
<feOffset dy="195"/>
<feGaussianBlur stdDeviation="39"/>
<feColorMatrix type="matrix" values="0 0 0 0 0.8 0 0 0 0 0.8 0 0 0 0 0.8 0 0 0 0.01 0"/>
<feBlend mode="normal" in2="effect2_dropShadow_0_1" result="effect3_dropShadow_0_1"/>
<feBlend mode="normal" in="SourceGraphic" in2="effect3_dropShadow_0_1" result="shape"/>
</filter>
<filter id="filter3_dddd_0_1" x="-90" y="-27" width="734" height="553" filterUnits="userSpaceOnUse" color-interpolation-filters="sRGB">
<feFlood flood-opacity="0" result="BackgroundImageFix"/>
<feColorMatrix in="SourceAlpha" type="matrix" values="0 0 0 0 0 0 0 0 0 0 0 0 0 0 0 0 0 0 127 0" result="hardAlpha"/>
<feOffset dy="12"/>
<feGaussianBlur stdDeviation="13.5"/>
<feColorMatrix type="matrix" values="0 0 0 0 0.8 0 0 0 0 0.8 0 0 0 0 0.8 0 0 0 0.1 0"/>
<feBlend mode="normal" in2="BackgroundImageFix" result="effect1_dropShadow_0_1"/>
<feColorMatrix in="SourceAlpha" type="matrix" values="0 0 0 0 0 0 0 0 0 0 0 0 0 0 0 0 0 0 127 0" result="hardAlpha"/>
<feOffset dy="49"/>
<feGaussianBlur stdDeviation="24.5"/>
<feColorMatrix type="matrix" values="0 0 0 0 0.8 0 0 0 0 0.8 0 0 0 0 0.8 0 0 0 0.09 0"/>
<feBlend mode="normal" in2="effect1_dropShadow_0_1" result="effect2_dropShadow_0_1"/>
<feColorMatrix in="SourceAlpha" type="matrix" values="0 0 0 0 0 0 0 0 0 0 0 0 0 0 0 0 0 0 127 0" result="hardAlpha"/>
<feOffset dy="110"/>
<feGaussianBlur stdDeviation="33"/>
<feColorMatrix type="matrix" values="0 0 0 0 0.8 0 0 0 0 0.8 0 0 0 0 0.8 0 0 0 0.05 0"/>
<feBlend mode="normal" in2="effect2_dropShadow_0_1" result="effect3_dropShadow_0_1"/>
<feColorMatrix in="SourceAlpha" type="matrix" values="0 0 0 0 0 0 0 0 0 0 0 0 0 0 0 0 0 0 127 0" result="hardAlpha"/>
<feOffset dy="195"/>
<feGaussianBlur stdDeviation="39"/>
<feColorMatrix type="matrix" values="0 0 0 0 0.8 0 0 0 0 0.8 0 0 0 0 0.8 0 0 0 0.01 0"/>
<feBlend mode="normal" in2="effect3_dropShadow_0_1" result="effect4_dropShadow_0_1"/>
<feBlend mode="normal" in="SourceGraphic" in2="effect4_dropShadow_0_1" result="shape"/>
</filter>
<clipPath id="clip0_0_1">
<rect width="100" height="100" fill="white" transform="translate(227 12)"/>
</clipPath>
</defs>
</svg>
