<svg width="51" height="51" viewBox="0 0 51 51" fill="none" xmlns="http://www.w3.org/2000/svg">
<g id="Library">
<path id="Vector" d="M43.2412 3.74146H36.6221C35.8637 3.74149 35.1158 3.91834 34.4377 4.25798C33.7596 4.59762 33.17 5.09067 32.7158 5.698C32.2616 5.09067 31.6721 4.59762 30.994 4.25798C30.3159 3.91834 29.568 3.74149 28.8096 3.74146H22.1904C21.432 3.74149 20.6841 3.91834 20.006 4.25798C19.3279 4.59762 18.7384 5.09067 18.2842 5.698C17.83 5.09067 17.2404 4.59762 16.5623 4.25798C15.8842 3.91834 15.1363 3.74149 14.3779 3.74146H7.75879C6.46424 3.74293 5.22313 4.25784 4.30775 5.17322C3.39236 6.08861 2.87745 7.32972 2.87598 8.62427V41.4368C2.87745 42.7313 3.39236 43.9724 4.30775 44.8878C5.22313 45.8032 6.46424 46.3181 7.75879 46.3196H16.0762C16.6036 46.318 17.1225 46.1865 17.587 45.9368C18.0515 45.687 18.4473 45.3267 18.7395 44.8876C19.1921 45.3418 19.7299 45.7021 20.3221 45.9479C20.9143 46.1936 21.5493 46.3199 22.1904 46.3196H28.8095C29.5679 46.3195 30.3158 46.1427 30.9939 45.8031C31.672 45.4634 32.2615 44.9704 32.7157 44.363C33.1699 44.9703 33.7595 45.4634 34.4376 45.803C35.1157 46.1427 35.8636 46.3195 36.622 46.3196H43.2411C44.5357 46.3181 45.7768 45.8032 46.6922 44.8878C47.6075 43.9724 48.1225 42.7313 48.1239 41.4368V8.62427C48.1225 7.32972 47.6076 6.0886 46.6922 5.1732C45.7769 4.25781 44.5358 3.7429 43.2412 3.74146ZM36.6221 5.69458H43.2412C44.0179 5.69546 44.7626 6.0044 45.3118 6.55364C45.8611 7.10287 46.17 7.84754 46.1709 8.62427V11.4184H33.6924V8.62427C33.6933 7.84754 34.0022 7.10287 34.5514 6.55364C35.1007 6.0044 35.8453 5.69546 36.6221 5.69458ZM19.2607 17.0337V13.3716H31.7393V17.0337H19.2607ZM31.7393 18.9869V31.0742H19.2607V18.9869H31.7393ZM17.3076 17.0337H4.8292V13.3716H17.3077L17.3076 17.0337ZM17.3076 18.9869V31.0742H4.8292V18.9869H17.3076ZM17.3076 33.0273V37.2049H4.8292V33.0273H17.3076ZM19.2607 33.0273H31.7393V37.2049H19.2607V33.0273ZM33.6924 33.0273H46.1709V37.2049H33.6924V33.0273ZM33.6924 31.0742V18.9869H46.1709V31.0742H33.6924ZM33.6924 17.0337V13.3716H46.1709V17.0337H33.6924ZM22.1904 5.69458H28.8095C29.5862 5.69546 30.3309 6.0044 30.8801 6.55364C31.4293 7.10287 31.7383 7.84754 31.7392 8.62427V11.4184H19.2607V8.62427C19.2616 7.84754 19.5706 7.10287 20.1198 6.55364C20.669 6.0044 21.4137 5.69546 22.1904 5.69458ZM7.75889 5.69458H14.378C15.1548 5.69546 15.8994 6.0044 16.4487 6.55364C16.9979 7.10287 17.3068 7.84754 17.3077 8.62427V11.4184H4.8292V8.62427C4.83008 7.84754 5.13902 7.10287 5.68826 6.55364C6.23749 6.0044 6.98215 5.69546 7.75889 5.69458ZM17.3085 43.1157C17.3144 43.2747 17.2878 43.4333 17.2303 43.5818C17.1728 43.7302 17.0856 43.8654 16.9741 43.979C16.8581 44.1004 16.7188 44.1974 16.5645 44.2639C16.4103 44.3305 16.2442 44.3654 16.0762 44.3665H7.75889C6.98215 44.3656 6.23749 44.0566 5.68826 43.5074C5.13902 42.9582 4.83008 42.2135 4.8292 41.4368V39.158H17.3077V43.0751C17.3076 43.0887 17.3079 43.1022 17.3085 43.1157ZM28.8096 44.3665H22.1904C21.4137 44.3656 20.669 44.0566 20.1198 43.5074C19.5706 42.9582 19.2616 42.2135 19.2607 41.4368V39.1581H31.7393V41.4368C31.7384 42.2135 31.4294 42.9582 30.8802 43.5074C30.331 44.0566 29.5863 44.3656 28.8096 44.3665ZM43.2412 44.3665H36.6221C35.8453 44.3656 35.1007 44.0566 34.5514 43.5074C34.0022 42.9582 33.6933 42.2135 33.6924 41.4368V39.1581H46.1709V41.4368C46.17 42.2135 45.8611 42.9582 45.3118 43.5074C44.7626 44.0566 44.0179 44.3656 43.2412 44.3665Z" fill="#6C63FF"/>
</g>
</svg>
