<svg width="24" height="24" viewBox="0 0 24 24" fill="none" xmlns="http://www.w3.org/2000/svg">
<g id="Library">
<path id="Vector" fill-rule="evenodd" clip-rule="evenodd" d="M8.69956 1.25001C8.71324 1.25001 8.72711 1.25001 8.74119 1.25001H15.259C15.2731 1.25001 15.2869 1.25001 15.3006 1.25001C15.5205 1.24995 15.689 1.2499 15.8364 1.26571C17.1906 1.41104 18.227 2.52307 18.2899 3.87013C19.6473 4.27545 20.5598 5.65039 20.3007 7.12946L18.8232 6.87057C18.9714 6.02479 18.3206 5.25001 17.4619 5.25001H6.53808C5.67941 5.25001 5.02859 6.02479 5.17679 6.87057L3.6993 7.12946C3.44012 5.65032 4.35282 4.27532 5.71026 3.87007C5.77316 2.52304 6.80964 1.41104 8.1638 1.26571C8.31115 1.2499 8.47971 1.24995 8.69956 1.25001ZM7.23231 3.75001H16.7679C16.6613 3.22633 16.2265 2.8162 15.6763 2.75715C15.62 2.75111 15.5398 2.75001 15.259 2.75001H8.74119C8.46034 2.75001 8.38014 2.75111 8.32385 2.75715C7.77365 2.8162 7.33883 3.22633 7.23231 3.75001Z" fill="#AAAAAA"/>
<path id="Vector_2" fill-rule="evenodd" clip-rule="evenodd" d="M8.25 18C8.25 17.5858 8.58579 17.25 9 17.25H15C15.4142 17.25 15.75 17.5858 15.75 18C15.75 18.4142 15.4142 18.75 15 18.75H9C8.58579 18.75 8.25 18.4142 8.25 18Z" fill="#111111"/>
<path id="Vector_3" fill-rule="evenodd" clip-rule="evenodd" d="M8.61594 6.25H15.384C17.0236 6.24998 18.33 6.24997 19.3416 6.38453C20.3809 6.52276 21.2431 6.81766 21.888 7.51431C22.54 8.21856 22.7421 9.08647 22.7498 10.1003C22.7572 11.075 22.5835 12.3067 22.3678 13.8363L21.9288 16.9499C21.7602 18.146 21.6232 19.1176 21.4101 19.879C21.1871 20.6756 20.8585 21.331 20.25 21.8348C19.6463 22.3347 18.9301 22.5502 18.0835 22.6518C17.265 22.75 16.2352 22.75 14.9531 22.75H9.04687C7.76476 22.75 6.73502 22.75 5.91647 22.6518C5.06992 22.5502 4.35372 22.3347 3.75003 21.8348C3.14152 21.331 2.81286 20.6756 2.58989 19.879C2.37676 19.1176 2.23979 18.146 2.07118 16.9499L1.63219 13.8363C1.41651 12.3067 1.24283 11.075 1.25023 10.1003C1.25792 9.08647 1.45997 8.21856 2.11196 7.51431C2.75691 6.81766 3.61905 6.52276 4.65835 6.38453C5.67 6.24997 6.97643 6.24998 8.61594 6.25ZM4.85612 7.87143C3.97106 7.98915 3.51557 8.20616 3.21267 8.53334C2.91681 8.85292 2.75644 9.28781 2.75018 10.1117C2.74373 10.9618 2.89981 12.0828 3.12616 13.6883L3.54913 16.6883C3.7269 17.9491 3.8514 18.821 4.03437 19.4747C4.21058 20.1042 4.41795 20.4404 4.70664 20.6795C5.00014 20.9225 5.39417 21.0784 6.09519 21.1625C6.81393 21.2487 7.75347 21.25 9.09536 21.25H14.9046C16.2465 21.25 17.1861 21.2487 17.9048 21.1625C18.6058 21.0784 18.9999 20.9225 19.2934 20.6795C19.582 20.4404 19.7894 20.1042 19.9656 19.4747C20.1486 18.821 20.2731 17.9491 20.4509 16.6883L20.8738 13.6883C21.1002 12.0828 21.2563 10.9618 21.2498 10.1117C21.2436 9.28781 21.0832 8.85292 20.7873 8.53334C20.4844 8.20616 20.0289 7.98915 19.1439 7.87143C18.2427 7.75157 17.0364 7.75 15.3276 7.75H8.67239C6.96357 7.75 5.75726 7.75157 4.85612 7.87143Z" fill="#111111"/>
</g>
</svg>
