<svg width="16" height="16" viewBox="0 0 16 16" fill="none" xmlns="http://www.w3.org/2000/svg">
<g id="linkedin logo" clip-path="url(#clip0_1_13818)">
<path id="Vector" d="M3.63281 15.5305V5.41005H0.202508V15.5305H3.63281ZM1.9181 4.02744C3.11431 4.02744 3.85889 3.2503 3.85889 2.27914C3.8366 1.28608 3.11436 0.530518 1.9408 0.530518C0.767434 0.530518 0.00012207 1.2861 0.00012207 2.27914C0.00012207 3.25035 0.74452 4.02744 1.89571 4.02744H1.918H1.9181ZM5.53147 15.5305H8.96177V9.87876C8.96177 9.57628 8.98406 9.27412 9.07465 9.0579C9.32263 8.45356 9.88705 7.82764 10.8346 7.82764C12.0759 7.82764 12.5725 8.75572 12.5725 10.1162V15.5305H16.0026V9.72747C16.0026 6.61885 14.3103 5.17245 12.0533 5.17245C10.2028 5.17245 9.39033 6.18678 8.93895 6.87763H8.96185V5.40984H5.53155C5.57657 6.35949 5.53155 15.5303 5.53155 15.5303L5.53147 15.5305Z" fill="white"/>
</g>
<defs>
<clipPath id="clip0_1_13818">
<rect width="16" height="15" fill="white" transform="translate(0.00012207 0.530518)"/>
</clipPath>
</defs>
</svg>
