<svg width="151" height="175" viewBox="0 0 151 175" fill="none" xmlns="http://www.w3.org/2000/svg">
<g clip-path="url(#clip0_1_13552)">
<path d="M145.652 64.4846H5.21964C3.96836 64.4831 2.76874 63.9854 1.88394 63.1006C0.999153 62.2158 0.501445 61.0162 0.5 59.7649V4.71961C0.501445 3.46833 0.999153 2.2687 1.88394 1.38391C2.76874 0.499122 3.96836 0.00141431 5.21964 -3.05176e-05H145.652C146.903 0.00141431 148.103 0.499122 148.988 1.38391C149.872 2.2687 150.37 3.46833 150.372 4.71961V59.7649C150.37 61.0162 149.872 62.2158 148.988 63.1006C148.103 63.9854 146.903 64.4831 145.652 64.4846Z" fill="#F2F2F2"/>
<path d="M112.9 61.4745H27.511C21.1479 61.4673 15.0475 58.9364 10.5482 54.4371C6.04881 49.9377 3.51792 43.8373 3.51074 37.4743V27.013C3.51791 20.6499 6.0488 14.5495 10.5482 10.0501C15.0475 5.55069 21.1479 3.01976 27.511 3.01254H123.361C129.724 3.01976 135.825 5.55069 140.324 10.0501C144.823 14.5495 147.354 20.6499 147.361 27.013C147.351 36.1496 143.717 44.909 137.256 51.3695C130.796 57.8301 122.036 61.4642 112.9 61.4745Z" fill="white"/>
<path d="M90.8731 18.7702H34.4301C34.1073 18.7702 33.7977 18.642 33.5694 18.4137C33.3411 18.1854 33.2129 17.8758 33.2129 17.553C33.2129 17.2302 33.3411 16.9206 33.5694 16.6923C33.7977 16.4641 34.1073 16.3358 34.4301 16.3358H90.8731C91.1959 16.3358 91.5056 16.4641 91.7338 16.6923C91.9621 16.9206 92.0903 17.2302 92.0903 17.553C92.0903 17.8758 91.9621 18.1854 91.7338 18.4137C91.5056 18.642 91.1959 18.7702 90.8731 18.7702Z" fill="#E6E6E6"/>
<path d="M119.446 31.7569H34.4301C34.1073 31.7569 33.7977 31.6287 33.5694 31.4004C33.3411 31.1721 33.2129 30.8625 33.2129 30.5397C33.2129 30.2169 33.3411 29.9073 33.5694 29.679C33.7977 29.4507 34.1073 29.3225 34.4301 29.3225H119.446C119.768 29.3225 120.078 29.4507 120.306 29.679C120.535 29.9073 120.663 30.2169 120.663 30.5397C120.663 30.8625 120.535 31.1721 120.306 31.4004C120.078 31.6287 119.768 31.7569 119.446 31.7569Z" fill="#E6E6E6"/>
<path d="M119.446 44.7436H34.4301C34.1073 44.7436 33.7977 44.6154 33.5694 44.3871C33.3411 44.1588 33.2129 43.8492 33.2129 43.5264C33.2129 43.2036 33.3411 42.894 33.5694 42.6657C33.7977 42.4374 34.1073 42.3092 34.4301 42.3092H119.446C119.768 42.3092 120.078 42.4374 120.306 42.6657C120.535 42.894 120.663 43.2036 120.663 43.5264C120.663 43.8492 120.535 44.1588 120.306 44.3871C120.078 44.6154 119.768 44.7436 119.446 44.7436Z" fill="#E6E6E6"/>
<path d="M119.446 44.7436H34.4301C34.1073 44.7436 33.7977 44.6154 33.5694 44.3871C33.3411 44.1588 33.2129 43.8492 33.2129 43.5264C33.2129 43.2036 33.3411 42.894 33.5694 42.6657C33.7977 42.4374 34.1073 42.3092 34.4301 42.3092H119.446C119.768 42.3092 120.078 42.4374 120.306 42.6657C120.535 42.894 120.663 43.2036 120.663 43.5264C120.663 43.8492 120.535 44.1588 120.306 44.3871C120.078 44.6154 119.768 44.7436 119.446 44.7436Z" fill="#E6E6E6"/>
<path d="M84.9164 33.2475C84.9299 33.6141 85.0237 33.9733 85.1911 34.2998C85.3584 34.6263 85.5954 34.9121 85.8852 35.1371C86.1749 35.3621 86.5105 35.5209 86.8683 35.6022C87.2261 35.6835 87.5973 35.6853 87.9559 35.6076L92.5978 43.2227L94.5734 39.0304L89.8625 32.4417C89.692 31.848 89.3097 31.3374 88.7879 31.0068C88.2661 30.6762 87.6412 30.5484 87.0316 30.6477C86.4219 30.747 85.8699 31.0665 85.48 31.5457C85.0902 32.0248 84.8896 32.6303 84.9164 33.2475Z" fill="#FFB6B6"/>
<path d="M119.751 55.0718L103.755 46.3948L98.7087 41.6608C98.7087 41.6608 96.5152 41.0735 97.3226 40.3603C98.1299 39.647 95.8292 38.9592 95.8292 38.9592L93.1205 36.4178L89.2715 39.1413L90.3854 40.868C90.3854 40.868 90.3088 43.7266 91.8747 43.1766C93.4407 42.6267 93.0494 44.9975 93.0494 44.9975L102.396 59.4865L119.751 55.0718Z" fill="#3F3D56"/>
<path d="M72.5304 46.8967C81.16 46.8967 88.1556 39.9011 88.1556 31.2715C88.1556 22.642 81.16 15.6464 72.5304 15.6464C63.9009 15.6464 56.9053 22.642 56.9053 31.2715C56.9053 39.9011 63.9009 46.8967 72.5304 46.8967Z" fill="#6C63FF"/>
<path d="M119.801 168.882H116.552L115.006 156.351H119.801V168.882Z" fill="#FFB6B6"/>
<path d="M121.516 174.511H119.186L118.77 172.312L117.705 174.511H111.526C111.23 174.511 110.941 174.417 110.703 174.241C110.464 174.066 110.288 173.818 110.2 173.536C110.112 173.253 110.116 172.949 110.213 172.669C110.309 172.389 110.493 172.148 110.737 171.979L115.671 168.571V166.347L120.862 166.657L121.516 174.511Z" fill="#2F2E41"/>
<path d="M93.8165 168.882H90.5675L89.0215 156.351H93.8165V168.882Z" fill="#FFB6B6"/>
<path d="M95.5309 174.511H93.201L92.7851 172.312L91.72 174.511H85.5405C85.2443 174.511 84.9559 174.417 84.7173 174.241C84.4787 174.066 84.3025 173.818 84.2143 173.536C84.1262 173.253 84.1307 172.949 84.2273 172.669C84.3239 172.389 84.5075 172.148 84.7512 171.979L89.686 168.571V166.347L94.8764 166.657L95.5309 174.511Z" fill="#2F2E41"/>
<path d="M116.354 74.1085H99.9561V92.777H116.354V74.1085Z" fill="#FFB6B6"/>
<path d="M100.334 83.3167L97.5591 86.5963L92.7659 96.6873L80.6881 125.424L78.1338 131.502L80.1966 142.245C80.1966 142.245 80.5304 149.814 80.5304 151.053C80.5304 153.576 82.6404 154.974 82.6404 154.974L84.1884 163.036L99.1989 162.406C99.1989 162.406 98.6752 153.518 95.5313 151.277C92.3874 149.035 90.9423 137.352 90.9423 137.352L89.234 132.168L105.884 112.431L105.992 119.33L106.044 122.669C106.044 122.669 103.605 144.389 106.448 148.604C109.29 152.819 106.506 152.323 106.506 152.323L106.641 161.018L124.427 161.144L120.503 136.111C120.503 136.111 118.511 134.538 119.577 132.957C120.643 131.375 118.543 129.439 118.543 129.439L119.485 109.896C119.485 109.896 118.442 106.521 119.669 106.082C120.895 105.643 119.83 102.74 119.83 102.74L120.012 98.9578L116.354 87.227L100.334 83.3167Z" fill="#2F2E41"/>
<path d="M116.606 74.1085L118.372 68.8107L119.633 67.0447L120.138 61.9992C120.138 48.3762 117.099 50.6447 117.099 50.6447L115.345 45.8534L107.272 45.6011L102.1 50.5205L97.8113 52.0342L96.1318 60.7606L99.1988 70.072L99.9556 75.1176C98.5119 77.7828 98.634 76.5222 99.8295 78.5233L114.083 82.4336C119.129 84.1996 119.129 79.6586 118.117 78.5233C117.105 77.3881 116.606 74.1085 116.606 74.1085Z" fill="#3F3D56"/>
<path d="M110.265 43.9077C114.398 43.9077 117.749 40.5571 117.749 36.4238C117.749 32.2906 114.398 28.94 110.265 28.94C106.132 28.94 102.781 32.2906 102.781 36.4238C102.781 40.5571 106.132 43.9077 110.265 43.9077Z" fill="#FFB6B6"/>
<path d="M120.257 46.4135C120.327 46.5324 120.37 46.6658 120.382 46.8036C120.394 46.9414 120.374 47.0801 120.325 47.2093C120.276 47.3385 120.198 47.455 120.098 47.55C119.997 47.6451 119.876 47.7162 119.745 47.7581C118.741 48.0911 118.123 49.0624 117.401 49.8394C116.682 50.6139 115.524 51.2572 114.606 50.7299C113.69 50.2052 113.627 48.8656 112.86 48.1391C112.113 47.4327 110.872 47.5185 109.994 48.0558L109.968 48.0719C109.816 48.1707 109.639 48.223 109.458 48.2221C109.277 48.2213 109.101 48.1675 108.95 48.0673C108.799 47.9671 108.681 47.825 108.611 47.6585C108.54 47.492 108.52 47.3084 108.552 47.1305C108.86 45.4945 109.167 43.8587 109.474 42.2231C108.667 44.1683 107.495 45.9409 106.021 47.4453C105.615 47.9138 105.1 48.2759 104.522 48.4998C103.998 48.6663 103.488 48.1239 102.978 48.2223C104.245 47.1148 108.503 40.0157 107.741 35.2704C106.846 35.3713 105.95 35.4722 105.055 35.5731C104.958 35.1493 104.75 34.7585 104.454 34.4404C104.49 34.8529 104.438 35.2683 104.3 35.6589C103.927 35.7018 103.551 35.7421 103.178 35.785C102.658 35.8431 102.093 35.8935 101.646 35.6211C100.902 35.167 100.879 34.0922 101.091 33.2446C101.712 30.7798 103.594 28.7187 105.897 27.639C108.2 26.5618 108.882 28.9609 111.308 28.194C116.102 26.6803 119.775 29.2687 121.069 34.0721C122.156 38.1009 121.367 42.377 120.257 46.4135Z" fill="#2F2E41"/>
<path d="M140.975 174.674H131.811L131.772 174.603C131.655 174.39 131.541 174.165 131.436 173.934C130.492 171.913 130.093 169.602 129.741 167.562L129.476 166.025C129.444 165.839 129.468 165.648 129.545 165.475C129.623 165.303 129.75 165.158 129.91 165.058C130.07 164.958 130.257 164.909 130.446 164.916C130.635 164.923 130.817 164.986 130.97 165.097C132.362 166.11 133.755 167.123 135.149 168.134C135.677 168.518 136.28 168.963 136.857 169.443C136.913 169.172 136.971 168.901 137.029 168.634C137.069 168.449 137.164 168.28 137.3 168.15C137.437 168.019 137.609 167.932 137.795 167.9C137.981 167.867 138.173 167.891 138.346 167.969C138.518 168.046 138.663 168.173 138.763 168.334L139.836 170.056C140.618 171.314 141.308 172.554 141.167 173.891C141.168 173.907 141.167 173.923 141.163 173.939C141.135 174.159 141.083 174.375 141.008 174.583L140.975 174.674Z" fill="#F0F0F0"/>
<path d="M150.173 174.872L63.0928 174.957C63.0058 174.957 62.9226 174.922 62.8613 174.86C62.8 174.799 62.7656 174.715 62.7656 174.628C62.7656 174.542 62.8 174.458 62.8613 174.397C62.9226 174.335 63.0058 174.3 63.0928 174.3L150.173 174.215C150.26 174.215 150.343 174.25 150.404 174.312C150.466 174.373 150.5 174.457 150.5 174.544C150.5 174.631 150.466 174.714 150.404 174.776C150.343 174.837 150.26 174.872 150.173 174.872Z" fill="#CACACA"/>
<path d="M71.1097 52.3019L61.5313 44.213C61.2039 43.9359 60.9998 43.5402 60.9637 43.1128C60.9277 42.6854 61.0627 42.2611 61.3391 41.9331L63.102 39.8455C63.3791 39.5181 63.7748 39.314 64.2022 39.2779C64.6296 39.2419 65.0539 39.3769 65.3819 39.6533L74.9604 47.7422C75.2878 48.0193 75.4919 48.415 75.5279 48.8424C75.5639 49.2698 75.4289 49.6941 75.1526 50.0221L73.3896 52.1097C73.1125 52.4371 72.7168 52.6412 72.2894 52.6773C71.862 52.7133 71.4377 52.5783 71.1097 52.3019Z" fill="#3F3D56"/>
<path d="M62.0344 42.1014C61.8855 42.2781 61.8128 42.5068 61.8322 42.7371C61.8516 42.9674 61.9616 43.1806 62.138 43.33L71.7165 51.4189C71.8932 51.5678 72.1219 51.6406 72.3522 51.6212C72.5825 51.6017 72.7957 51.4918 72.9451 51.3153L74.708 49.2278C74.8569 49.051 74.9297 48.8224 74.9102 48.592C74.8908 48.3617 74.7808 48.1485 74.6044 47.9992L65.026 39.9102C64.8492 39.7613 64.6206 39.6886 64.3903 39.708C64.1599 39.7274 63.9467 39.8374 63.7974 40.0138L62.0344 42.1014Z" fill="white"/>
<path d="M67.6572 45.2459C67.624 45.2924 67.5804 45.3305 67.5298 45.3572C67.4793 45.384 67.4232 45.3986 67.3661 45.3999L65.8611 45.4344C65.8127 45.4355 65.7647 45.4271 65.7196 45.4096C65.6745 45.3922 65.6333 45.366 65.5983 45.3326C65.5633 45.2992 65.5353 45.2592 65.5157 45.215C65.4962 45.1707 65.4856 45.1231 65.4845 45.0747C65.4834 45.0264 65.4918 44.9783 65.5093 44.9332C65.5267 44.8881 65.5529 44.8469 65.5863 44.8119C65.6197 44.7769 65.6597 44.7489 65.704 44.7293C65.7482 44.7098 65.7958 44.6992 65.8442 44.6981L66.8288 44.6754L65.8591 42.117C65.8248 42.0257 65.8281 41.9245 65.8682 41.8357C65.9084 41.7468 65.9821 41.6775 66.0733 41.6429C66.1645 41.6084 66.2657 41.6114 66.3547 41.6513C66.4436 41.6912 66.5131 41.7648 66.5479 41.8559L67.702 44.9012C67.7229 44.9563 67.7302 45.0156 67.7235 45.0741C67.7167 45.1326 67.696 45.1886 67.6631 45.2375L67.6572 45.2459Z" fill="#6C63FF"/>
<path d="M67.8504 45.8888C68.2134 45.9421 68.5603 46.0744 68.8666 46.2763C69.173 46.4782 69.4313 46.7448 69.6235 47.0573C69.8157 47.3698 69.937 47.7207 69.9789 48.0852C70.0208 48.4497 69.9823 48.8189 69.866 49.1669L76.9312 54.6093L72.549 56.1174L66.5116 50.718C65.94 50.4839 65.474 50.0484 65.202 49.4937C64.9301 48.9391 64.871 48.304 65.036 47.7088C65.2011 47.1135 65.5787 46.5995 66.0974 46.264C66.6161 45.9286 67.2398 45.7951 67.8504 45.8888Z" fill="#FFB6B6"/>
<path d="M104.633 48.5798L86.5442 59.7018C86.5442 59.7018 79.2509 57.0033 80.6762 55.754C82.1016 54.5047 77.564 53.6602 77.564 53.6602L72.5513 50.2878L69.6426 53.6683C69.6426 53.6683 70.1726 59.1592 71.0744 58.2084C71.9762 57.2577 73.3241 59.8549 73.3241 59.8549C73.3241 59.8549 73.7224 62.755 76.2895 62.0252C78.8566 61.2954 85.7449 68.9452 85.7449 68.9452L108.007 60.6421L104.633 48.5798Z" fill="#3F3D56"/>
<path d="M71.9811 37.5394C71.7714 37.5394 71.5645 37.4906 71.377 37.3968C71.1894 37.303 71.0263 37.1668 70.9005 36.999L67.5875 32.5816C67.4811 32.4397 67.4037 32.2782 67.3596 32.1063C67.3156 31.9345 67.3059 31.7557 67.331 31.5801C67.3561 31.4045 67.4155 31.2355 67.5059 31.0829C67.5963 30.9302 67.7158 30.7969 67.8577 30.6905C68.1443 30.4755 68.5046 30.3832 68.8592 30.4339C69.0349 30.459 69.2038 30.5184 69.3564 30.6088C69.5091 30.6992 69.6424 30.8188 69.7488 30.9607L71.9163 33.8504L77.4832 25.5002C77.6819 25.2021 77.991 24.9952 78.3423 24.9249C78.6936 24.8547 79.0584 24.9268 79.3565 25.1256C79.6546 25.3243 79.8615 25.6333 79.9318 25.9846C80.0021 26.3359 79.9299 26.7008 79.7312 26.9989L73.1052 36.9379C72.9853 37.1176 72.8241 37.266 72.6351 37.3706C72.446 37.4752 72.2346 37.533 72.0187 37.539C72.0061 37.5392 71.9936 37.5394 71.9811 37.5394Z" fill="white"/>
</g>
<defs>
<clipPath id="clip0_1_13552">
<rect width="150" height="174.957" fill="white" transform="translate(0.5)"/>
</clipPath>
</defs>
</svg>
