<svg width="554" height="124" viewBox="0 0 554 124" fill="none" xmlns="http://www.w3.org/2000/svg">
<rect width="554" height="124" fill="#1E1E1E"/>
<rect width="1440" height="1822" transform="translate(-142 -467)" fill="white"/>
<g filter="url(#filter0_dddd_0_1)">
<rect x="-12" y="-12" width="578" height="265" rx="16" fill="white"/>
<rect width="554" height="124" rx="8" fill="#FF6600" fill-opacity="0.2"/>
<path d="M277.002 12.0002C273.412 12.0002 270.059 13.6349 267.201 16.3118C264.344 18.9893 261.897 22.7182 259.858 27.2349C259.431 28.1811 259.022 29.1645 258.632 30.1789C257.58 30.0118 256.523 29.8746 255.463 29.7673C254.23 29.6444 253.027 29.5681 251.858 29.5408C248.35 29.4575 245.143 29.8132 242.332 30.6652C238.585 31.8014 235.493 33.8883 233.698 36.9968C231.903 40.106 231.642 43.8271 232.532 47.6406C233.422 51.4539 235.428 55.4368 238.32 59.4614C238.927 60.3055 239.575 61.1521 240.259 61.9985C239.59 62.8248 238.944 63.67 238.323 64.5328C235.43 68.5572 233.424 72.5402 232.534 76.3536C231.645 80.1671 231.905 83.8883 233.7 86.9968C235.495 90.106 238.588 92.1926 242.335 93.3284C246.082 94.4648 250.535 94.7188 255.466 94.2263C256.5 94.1229 257.556 93.9848 258.63 93.8156C259.012 94.8101 259.421 95.7936 259.858 96.7649C261.897 101.282 264.343 105.01 267.201 107.688C270.059 110.365 273.412 112 277.002 112C280.591 112 283.944 110.365 286.802 107.688C289.659 105.01 292.106 101.282 294.145 96.7649C294.582 95.7937 294.991 94.8104 295.373 93.816C296.446 93.9848 297.501 94.1231 298.534 94.2263C303.466 94.7186 307.918 94.4645 311.665 93.3284C315.413 92.1924 318.505 90.1055 320.3 86.9968C322.095 83.8876 322.356 80.1669 321.466 76.3536C320.576 72.5404 318.57 68.5574 315.678 64.5328C315.056 63.6701 314.41 62.825 313.741 61.9985C314.411 61.1714 315.058 60.3255 315.68 59.4616C318.572 55.437 320.578 51.4541 321.468 47.6408C322.358 43.8273 322.097 40.1062 320.302 36.997C318.507 33.8885 315.415 31.8016 311.668 30.6654C308.857 29.8135 305.65 29.4577 302.142 29.5408C300.972 29.5681 299.769 29.6444 298.536 29.7673C297.502 29.8707 296.445 30.0094 295.37 30.1787C294.989 29.1861 294.58 28.2045 294.144 27.2349C292.105 22.7175 289.659 18.9887 286.801 16.3116C283.943 13.6345 280.59 12 277.001 12L277.002 12.0002ZM277.002 15.9934C279.396 15.9934 281.744 17.0454 284.072 19.2265C286.399 21.4072 288.623 24.7082 290.505 28.8781C290.811 29.5585 291.102 30.2455 291.378 30.9387C286.802 31.9563 281.955 33.5175 277 35.6035C272.047 33.518 267.201 31.9572 262.625 30.9396C262.907 30.2323 263.198 29.5429 263.498 28.8779C265.381 24.7078 267.604 21.4068 269.932 19.2256C272.26 17.045 274.607 15.993 277.002 15.993L277.002 15.9934ZM250.592 33.528C250.977 33.5242 251.369 33.5267 251.767 33.5357C252.827 33.5592 253.929 33.6276 255.067 33.7415C255.795 33.8141 256.538 33.9071 257.294 34.0167C255.887 38.4886 254.815 43.4664 254.144 48.7996C249.86 52.0477 246.084 55.4654 242.915 58.9205C242.451 58.3339 242 57.737 241.563 57.1303C238.893 53.4151 237.146 49.8392 236.421 46.7326C235.696 43.626 235.959 41.0671 237.156 38.9935C238.353 36.9199 240.438 35.4127 243.491 34.4872C245.494 33.8797 247.893 33.5524 250.592 33.5278L250.592 33.528ZM303.409 33.528C306.108 33.5526 308.506 33.8799 310.51 34.4875C313.562 35.4127 315.647 36.9199 316.844 38.9935C318.041 41.0671 318.304 43.6263 317.58 46.7326C316.855 49.839 315.107 53.4151 312.438 57.1303C312 57.737 311.55 58.3341 311.086 58.921C307.917 55.4663 304.142 52.0494 299.86 48.8018C299.189 43.4677 298.116 38.4892 296.709 34.0167C297.463 33.9071 298.206 33.8137 298.934 33.7415C300.031 33.6303 301.132 33.5616 302.234 33.5355C302.625 33.5266 303.017 33.5239 303.409 33.5276V33.528ZM292.741 34.7332C293.803 38.0321 294.683 41.6721 295.339 45.5672C293.219 44.1351 291.049 42.7784 288.833 41.4996C286.619 40.2206 284.36 39.0201 282.061 37.9005C285.762 36.5211 289.354 35.4629 292.741 34.7336V34.7332ZM261.262 34.7338C264.648 35.4634 268.239 36.5216 271.94 37.9007C269.641 39.0203 267.382 40.2207 265.168 41.4996C262.953 42.7779 260.784 44.1338 258.664 45.5648C259.32 41.6708 260.199 38.0319 261.262 34.7338ZM277 39.9606C280.25 41.3941 283.548 43.06 286.836 44.9584C290.126 46.8576 293.219 48.8817 296.086 50.9801C296.47 54.5117 296.676 58.2023 296.676 62C296.676 65.7955 296.47 69.4846 296.087 73.0148C293.22 75.1127 290.127 77.1364 286.839 79.0352C283.55 80.9338 280.251 82.6004 277 84.0338C273.75 82.6004 270.451 80.9338 267.162 79.0352C263.874 77.137 260.782 75.114 257.917 73.0169C257.533 69.4861 257.327 65.7964 257.327 61.9998C257.327 58.2015 257.533 54.5105 257.917 50.9784C260.783 48.8806 263.876 46.8568 267.164 44.9584C270.452 43.0602 273.751 41.3941 277 39.9611V39.9606ZM277.27 45.9687L265.838 53.024L277.27 60.08L288.703 53.024L277.27 45.9685V45.9687ZM253.602 54.3312C253.423 56.8833 253.333 59.4409 253.334 61.9994C253.334 64.6059 253.426 67.1646 253.603 69.6631C250.557 67.148 247.845 64.5666 245.519 61.9974C247.845 59.4285 250.557 56.8467 253.602 54.3312ZM300.401 54.3333C303.445 56.8484 306.156 59.4291 308.481 61.9976C306.156 64.5662 303.445 67.1469 300.401 69.6614C300.581 67.1114 300.67 64.5559 300.669 61.9996C300.669 59.3917 300.578 56.8326 300.401 54.3333H300.401ZM263.262 56.127V70.059L275.269 77.4691V63.5377L263.262 56.127ZM291.268 56.1343L279.263 63.5428V77.4676L291.268 70.059V56.1343H291.268ZM242.914 65.075C246.084 68.5303 249.86 71.9472 254.143 75.1952C254.814 80.5278 255.886 85.5052 257.293 89.9771C256.539 90.0861 255.796 90.1795 255.069 90.2521C250.517 90.7066 246.546 90.4316 243.493 89.5063C240.441 88.5811 238.356 87.0733 237.159 84.9997C235.962 82.9258 235.698 80.3669 236.423 77.2605C237.148 74.1541 238.895 70.5781 241.565 66.8629C242.002 66.257 242.451 65.6609 242.914 65.075ZM311.086 65.0756C311.557 65.6739 312.009 66.2701 312.435 66.8629C315.105 70.5779 316.852 74.1539 317.577 77.2603C318.301 80.3667 318.039 82.9256 316.842 84.9995C315.644 87.0731 313.559 88.5809 310.507 89.5061C307.454 90.4314 303.484 90.7064 298.932 90.2519C298.189 90.1766 297.449 90.085 296.71 89.9773C298.117 85.5044 299.189 80.5259 299.86 75.1922C304.142 71.945 307.917 68.529 311.086 65.0752L311.086 65.0756ZM295.34 78.4275C294.684 82.3222 293.805 85.9621 292.743 89.2608C289.355 88.5315 285.763 87.4727 282.062 86.0935C284.361 84.9734 286.621 83.7726 288.836 82.4933C291.051 81.2149 293.221 79.8588 295.34 78.4275H295.34ZM258.664 78.4296C260.782 79.8603 262.951 81.2157 265.165 82.4933C267.38 83.7725 269.639 84.9733 271.939 86.0935C268.238 87.4725 264.648 88.5311 261.26 89.2604C260.198 85.9623 259.32 82.3232 258.664 78.4296ZM277.12 78.6112L277.265 78.701L277.41 78.6112H277.12H277.12ZM277 88.3911C281.955 90.4767 286.803 92.0377 291.38 93.0551C291.104 93.7502 290.812 94.4392 290.505 95.1214C288.623 99.2911 286.399 102.592 284.071 104.773C281.744 106.954 279.396 108.006 277.002 108.006C274.607 108.006 272.259 106.954 269.931 104.773C267.604 102.592 265.381 99.2911 263.498 95.1212C263.191 94.4389 262.899 93.75 262.623 93.0548C267.199 92.0373 272.046 90.4765 277 88.3911H277Z" fill="#FF6600"/>
</g>
<g filter="url(#filter1_ddd_0_1)">
<rect x="590" y="-12" width="578" height="265" rx="16" fill="white"/>
</g>
<defs>
<filter id="filter0_dddd_0_1" x="-90" y="-27" width="734" height="553" filterUnits="userSpaceOnUse" color-interpolation-filters="sRGB">
<feFlood flood-opacity="0" result="BackgroundImageFix"/>
<feColorMatrix in="SourceAlpha" type="matrix" values="0 0 0 0 0 0 0 0 0 0 0 0 0 0 0 0 0 0 127 0" result="hardAlpha"/>
<feOffset dy="12"/>
<feGaussianBlur stdDeviation="13.5"/>
<feColorMatrix type="matrix" values="0 0 0 0 0.8 0 0 0 0 0.8 0 0 0 0 0.8 0 0 0 0.1 0"/>
<feBlend mode="normal" in2="BackgroundImageFix" result="effect1_dropShadow_0_1"/>
<feColorMatrix in="SourceAlpha" type="matrix" values="0 0 0 0 0 0 0 0 0 0 0 0 0 0 0 0 0 0 127 0" result="hardAlpha"/>
<feOffset dy="49"/>
<feGaussianBlur stdDeviation="24.5"/>
<feColorMatrix type="matrix" values="0 0 0 0 0.8 0 0 0 0 0.8 0 0 0 0 0.8 0 0 0 0.09 0"/>
<feBlend mode="normal" in2="effect1_dropShadow_0_1" result="effect2_dropShadow_0_1"/>
<feColorMatrix in="SourceAlpha" type="matrix" values="0 0 0 0 0 0 0 0 0 0 0 0 0 0 0 0 0 0 127 0" result="hardAlpha"/>
<feOffset dy="110"/>
<feGaussianBlur stdDeviation="33"/>
<feColorMatrix type="matrix" values="0 0 0 0 0.8 0 0 0 0 0.8 0 0 0 0 0.8 0 0 0 0.05 0"/>
<feBlend mode="normal" in2="effect2_dropShadow_0_1" result="effect3_dropShadow_0_1"/>
<feColorMatrix in="SourceAlpha" type="matrix" values="0 0 0 0 0 0 0 0 0 0 0 0 0 0 0 0 0 0 127 0" result="hardAlpha"/>
<feOffset dy="195"/>
<feGaussianBlur stdDeviation="39"/>
<feColorMatrix type="matrix" values="0 0 0 0 0.8 0 0 0 0 0.8 0 0 0 0 0.8 0 0 0 0.01 0"/>
<feBlend mode="normal" in2="effect3_dropShadow_0_1" result="effect4_dropShadow_0_1"/>
<feBlend mode="normal" in="SourceGraphic" in2="effect4_dropShadow_0_1" result="shape"/>
</filter>
<filter id="filter1_ddd_0_1" x="512" y="-12" width="734" height="538" filterUnits="userSpaceOnUse" color-interpolation-filters="sRGB">
<feFlood flood-opacity="0" result="BackgroundImageFix"/>
<feColorMatrix in="SourceAlpha" type="matrix" values="0 0 0 0 0 0 0 0 0 0 0 0 0 0 0 0 0 0 127 0" result="hardAlpha"/>
<feOffset dy="49"/>
<feGaussianBlur stdDeviation="24.5"/>
<feColorMatrix type="matrix" values="0 0 0 0 0.8 0 0 0 0 0.8 0 0 0 0 0.8 0 0 0 0.09 0"/>
<feBlend mode="normal" in2="BackgroundImageFix" result="effect1_dropShadow_0_1"/>
<feColorMatrix in="SourceAlpha" type="matrix" values="0 0 0 0 0 0 0 0 0 0 0 0 0 0 0 0 0 0 127 0" result="hardAlpha"/>
<feOffset dy="110"/>
<feGaussianBlur stdDeviation="33"/>
<feColorMatrix type="matrix" values="0 0 0 0 0.8 0 0 0 0 0.8 0 0 0 0 0.8 0 0 0 0.05 0"/>
<feBlend mode="normal" in2="effect1_dropShadow_0_1" result="effect2_dropShadow_0_1"/>
<feColorMatrix in="SourceAlpha" type="matrix" values="0 0 0 0 0 0 0 0 0 0 0 0 0 0 0 0 0 0 127 0" result="hardAlpha"/>
<feOffset dy="195"/>
<feGaussianBlur stdDeviation="39"/>
<feColorMatrix type="matrix" values="0 0 0 0 0.8 0 0 0 0 0.8 0 0 0 0 0.8 0 0 0 0.01 0"/>
<feBlend mode="normal" in2="effect2_dropShadow_0_1" result="effect3_dropShadow_0_1"/>
<feBlend mode="normal" in="SourceGraphic" in2="effect3_dropShadow_0_1" result="shape"/>
</filter>
</defs>
</svg>
