<svg width="48" height="48" viewBox="0 0 48 48" fill="none" xmlns="http://www.w3.org/2000/svg">
<g id="Play">
<path id="Vector" d="M12 39C11.451 39 10.905 38.85 10.422 38.553C9.98753 38.2833 9.62895 37.9074 9.38014 37.4607C9.13133 37.014 9.00049 36.5113 9 36V12C9 10.959 9.54 9.99295 10.422 9.44695C10.8574 9.17923 11.3538 9.02666 11.8644 9.00357C12.3751 8.98047 12.8832 9.08763 13.341 9.31495L37.341 21.315C37.8393 21.5646 38.2583 21.9479 38.5512 22.4221C38.844 22.8963 38.9991 23.4426 38.9991 24C38.9991 24.5573 38.844 25.1036 38.5512 25.5778C38.2583 26.052 37.8393 26.4353 37.341 26.6849L13.341 38.685C12.921 38.895 12.456 39 12 39Z" fill="#6C63FF"/>
</g>
</svg>
