<svg width="24" height="24" viewBox="0 0 24 24" fill="none" xmlns="http://www.w3.org/2000/svg">
<g id="Publish">
<path id="Vector" d="M11.9604 9.8318L6 15.6002H9.6V22.8002H14.4V15.6002H18L11.9604 9.8318ZM21.6 1.2002H2.4C1.08 1.2002 0 2.2802 0 3.6002V18.0002C0 19.3202 1.08 20.4002 2.4 20.4002H7.2V18.0002H2.4V7.2002H21.6V18.0002H16.8V20.4002H21.6C22.92 20.4002 24 19.3202 24 18.0002V3.6002C24 2.2802 22.92 1.2002 21.6 1.2002ZM3 5.1002C2.88181 5.1002 2.76478 5.07692 2.65559 5.03169C2.54639 4.98646 2.44718 4.92016 2.3636 4.83659C2.28003 4.75302 2.21374 4.6538 2.16851 4.54461C2.12328 4.43542 2.1 4.31839 2.1 4.2002C2.1 4.08201 2.12328 3.96497 2.16851 3.85578C2.21374 3.74659 2.28003 3.64737 2.3636 3.5638C2.44718 3.48023 2.54639 3.41393 2.65559 3.3687C2.76478 3.32347 2.88181 3.3002 3 3.3002C3.23869 3.3002 3.46761 3.39502 3.6364 3.5638C3.80518 3.73258 3.9 3.9615 3.9 4.2002C3.9 4.43889 3.80518 4.66781 3.6364 4.83659C3.46761 5.00537 3.23869 5.1002 3 5.1002ZM5.4 5.1002C5.28181 5.1002 5.16478 5.07692 5.05558 5.03169C4.94639 4.98646 4.84718 4.92016 4.7636 4.83659C4.68003 4.75302 4.61374 4.6538 4.56851 4.54461C4.52328 4.43542 4.5 4.31839 4.5 4.2002C4.5 4.08201 4.52328 3.96497 4.56851 3.85578C4.61374 3.74659 4.68003 3.64737 4.7636 3.5638C4.84718 3.48023 4.94639 3.41393 5.05558 3.3687C5.16478 3.32347 5.28181 3.3002 5.4 3.3002C5.6387 3.3002 5.86761 3.39502 6.0364 3.5638C6.20518 3.73258 6.3 3.9615 6.3 4.2002C6.3 4.43889 6.20518 4.66781 6.0364 4.83659C5.86761 5.00537 5.6387 5.1002 5.4 5.1002ZM21.6 4.8002H7.2V3.6002H21.6228L21.6 4.8002Z" fill="white"/>
</g>
</svg>
