<svg width="32" height="32" viewBox="0 0 32 32" fill="none" xmlns="http://www.w3.org/2000/svg">
<g id="question mark">
<path id="Vector" d="M20.4432 12.6667C20.4432 11.6394 20.1042 10.6408 19.4788 9.82577C18.8534 9.01077 17.9766 8.42489 16.9843 8.15901C15.992 7.89313 14.9397 7.9621 13.9905 8.35523C13.0414 8.74836 12.2486 9.44368 11.7349 10.3333C11.5583 10.6396 11.5106 11.0035 11.6022 11.345C11.6938 11.6865 11.9173 11.9776 12.2235 12.1544C12.5297 12.3311 12.8936 12.379 13.2351 12.2876C13.5767 12.1961 13.8679 11.9728 14.0448 11.6667C14.2206 11.3629 14.4731 11.1107 14.777 10.9352C15.0809 10.7597 15.4256 10.6671 15.7766 10.6667C16.307 10.6667 16.8157 10.8774 17.1908 11.2525C17.5659 11.6275 17.7766 12.1362 17.7766 12.6667C17.7766 13.1971 17.5659 13.7058 17.1908 14.0809C16.8157 14.456 16.307 14.6667 15.7766 14.6667H15.7733C15.6877 14.6753 15.6031 14.6925 15.521 14.7183C15.4311 14.7276 15.3424 14.7458 15.2561 14.7725C15.1827 14.8124 15.1133 14.8592 15.0488 14.9123C14.9722 14.9539 14.8999 15.0029 14.8328 15.0586C14.7728 15.1302 14.7205 15.2078 14.6767 15.2902C14.6281 15.3503 14.585 15.4147 14.5478 15.4824C14.5188 15.5743 14.4997 15.669 14.4907 15.765C14.4674 15.8416 14.4516 15.9203 14.4432 16V17.3333L14.4463 17.3485L14.4478 18.0033C14.4487 18.3563 14.5896 18.6946 14.8395 18.9439C15.0895 19.1932 15.4281 19.3333 15.7811 19.3333H15.7844C16.138 19.3325 16.4768 19.1912 16.7262 18.9405C16.9757 18.6898 17.1153 18.3504 17.1145 17.9968L17.1124 17.1149C18.0718 16.8297 18.9139 16.2431 19.5138 15.4419C20.1137 14.6407 20.4396 13.6676 20.4432 12.6667ZM14.8397 21.72C14.6525 21.9057 14.5246 22.1427 14.472 22.4011C14.4195 22.6595 14.4448 22.9276 14.5446 23.1716C14.6445 23.4157 14.8144 23.6246 15.033 23.7721C15.2516 23.9195 15.509 23.9988 15.7727 24C16.1263 23.9971 16.4653 23.8587 16.7199 23.6133C16.9674 23.3604 17.106 23.0206 17.106 22.6667C17.106 22.3129 16.9674 21.9731 16.7199 21.7201C16.4647 21.4822 16.1288 21.35 15.7798 21.3499C15.4309 21.3499 15.095 21.4822 14.8397 21.72Z" fill="#6C63FF"/>
</g>
</svg>
