<svg width="25" height="25" viewBox="0 0 25 25" fill="none" xmlns="http://www.w3.org/2000/svg">
<g id="Review" clip-path="url(#clip0_469_4887)">
<path id="Vector" d="M6.80264 7.01465H3.20264V7.74905H6.80264V7.01465Z" fill="#6C63FF"/>
<path id="Vector_2" d="M9.63704 9.46289H3.20264V10.1973H9.63704V9.46289Z" fill="#6C63FF"/>
<path id="Vector_3" d="M11.5952 7.79433H10.8608V9.82953C10.8612 9.89212 10.8775 9.95358 10.9082 10.0081C10.9388 10.0627 10.9828 10.1086 11.036 10.1415C11.0892 10.1749 11.1502 10.1938 11.2129 10.1963C11.2757 10.1988 11.338 10.1849 11.3936 10.1559L16.2344 7.70793L15.9032 7.05273L11.5832 9.23193L11.5952 7.79433Z" fill="#6C63FF"/>
<path id="Vector_4" d="M6.80264 13.0127H3.20264V13.7471H6.80264V13.0127Z" fill="#6C63FF"/>
<path id="Vector_5" d="M9.63704 15.46H3.20264V16.1944H9.63704V15.46Z" fill="#6C63FF"/>
<path id="Vector_6" d="M11.5952 15.2304V13.7904H10.8608V15.8256C10.8612 15.8882 10.8775 15.9497 10.9082 16.0042C10.9388 16.0588 10.9828 16.1047 11.036 16.1376C11.0892 16.171 11.1502 16.1899 11.2129 16.1924C11.2757 16.1949 11.338 16.181 11.3936 16.152L16.2344 13.704L15.9032 13.0488L11.5952 15.2304Z" fill="#6C63FF"/>
<path id="Vector_7" d="M6.80264 19.0098H3.20264V19.7442H6.80264V19.0098Z" fill="#6C63FF"/>
<path id="Vector_8" d="M9.63704 21.458H3.20264V22.1924H9.63704V21.458Z" fill="#6C63FF"/>
<path id="Vector_9" d="M11.5952 21.2275V19.7875H10.8608V21.8227C10.8612 21.8853 10.8775 21.9467 10.9082 22.0013C10.9388 22.0559 10.9828 22.1018 11.036 22.1347C11.0892 22.1681 11.1502 22.187 11.2129 22.1895C11.2757 22.192 11.338 22.1781 11.3936 22.1491L16.2344 19.7011L15.9032 19.0459L11.5952 21.2275Z" fill="#6C63FF"/>
<path id="Vector_10" d="M17.6818 1.80177H1.58741C1.49044 1.80176 1.3974 1.84012 1.32861 1.90847C1.25982 1.97681 1.22085 2.06959 1.22021 2.16657V23.7666C1.22021 23.864 1.2589 23.9574 1.32777 24.0262C1.39663 24.0951 1.49003 24.1338 1.58741 24.1338H17.6818C17.7301 24.1341 17.778 24.1248 17.8227 24.1065C17.8674 24.0881 17.908 24.0611 17.9422 24.0269C17.9763 23.9928 18.0034 23.9522 18.0217 23.9075C18.0401 23.8628 18.0493 23.8149 18.049 23.7666V2.16657C18.049 2.11846 18.0395 2.07082 18.021 2.02641C18.0025 1.98199 17.9755 1.94167 17.9413 1.90776C17.9072 1.87385 17.8667 1.84703 17.8222 1.82884C17.7776 1.81065 17.7299 1.80145 17.6818 1.80177ZM5.68182 2.53617H13.6018V4.84257H5.68182V2.53617ZM17.3146 23.397H1.95461V2.53617H4.94502V5.20977C4.94564 5.30696 4.98453 5.39999 5.05326 5.46872C5.12199 5.53745 5.21502 5.57634 5.31221 5.57697H13.9522C14.0004 5.57697 14.0482 5.56747 14.0927 5.54901C14.1373 5.53056 14.1778 5.50351 14.2119 5.46942C14.246 5.43532 14.273 5.39484 14.2915 5.35029C14.3099 5.30574 14.3194 5.25799 14.3194 5.20977V2.53617H17.3146V23.397ZM23.7802 18.0762V17.901H22.3402V5.55297C22.341 5.50781 22.3329 5.46294 22.3162 5.42097L21.085 2.11857C21.0597 2.04986 21.0144 1.99029 20.9549 1.94753C20.8955 1.90476 20.8246 1.88074 20.7514 1.87857C20.6791 1.87734 20.608 1.89709 20.5466 1.93542C20.4853 1.97375 20.4364 2.02903 20.4058 2.09457L18.9154 5.39937C18.8933 5.44754 18.8818 5.49994 18.8818 5.55297V23.685C18.8815 23.7333 18.8908 23.7812 18.9091 23.8259C18.9275 23.8706 18.9545 23.9112 18.9887 23.9453C19.0228 23.9795 19.0634 24.0065 19.1081 24.0249C19.1528 24.0432 19.2007 24.0525 19.249 24.0522H21.9826C22.0783 24.0497 22.1693 24.0099 22.2361 23.9413C22.3029 23.8727 22.3402 23.7807 22.3402 23.685V22.965H23.4034C23.4536 22.9667 23.5035 22.958 23.5502 22.9395C23.5968 22.921 23.6391 22.8931 23.6745 22.8575C23.7098 22.8219 23.7375 22.7794 23.7557 22.7327C23.7739 22.6859 23.7822 22.6359 23.7802 22.5858V18.0762ZM20.7106 3.20817L21.4522 5.18577H19.8202L20.7106 3.20817ZM21.6202 23.3178H19.6186V21.6066H21.6202V23.3178ZM21.6202 20.8698H19.6186V5.92017H21.6202V20.8698ZM22.3402 22.2186V18.6354H23.0362V22.2186H22.3402Z" fill="#6C63FF"/>
</g>
<defs>
<clipPath id="clip0_469_4887">
<rect width="24" height="24" fill="white" transform="translate(0.5 0.966797)"/>
</clipPath>
</defs>
</svg>
