<svg width="48" height="48" viewBox="0 0 48 48" fill="none" xmlns="http://www.w3.org/2000/svg">
<g id="Score">
<path id="Vector" d="M37.962 10.5H31.5V4.038C31.8135 4.2495 32.1105 4.488 32.379 4.758L37.242 9.621C37.512 9.8895 37.749 10.1865 37.962 10.5ZM18 33C18 24.729 24.729 18 33 18C35.133 18 37.161 18.4545 39 19.2615V13.863C39 13.74 38.9715 13.6215 38.964 13.5H30C29.1705 13.5 28.5 12.8295 28.5 12V3.036C28.3785 3.0285 28.2585 3 28.137 3H13.5C11.019 3 9 5.019 9 7.5V37.5C9 39.981 11.019 42 13.5 42H21.0285C19.1355 39.489 18 36.378 18 33ZM32.508 33H33.7515L33.1305 31.446L32.508 33ZM45 33C45 39.6165 39.6165 45 33 45C26.3835 45 21 39.6165 21 33C21 26.3835 26.3835 21 33 21C39.6165 21 45 26.3835 45 33ZM38.337 36.3855L34.5225 26.8515C34.2945 26.2815 33.7425 25.908 33.129 25.908C32.5155 25.908 31.965 26.2815 31.7355 26.8515L27.921 36.387C27.6135 37.1565 27.9885 38.0295 28.758 38.337C28.9395 38.4105 29.1285 38.4435 29.3145 38.4435C29.9085 38.4435 30.4725 38.088 30.708 37.5L31.308 36H34.9515L35.5515 37.4985C35.859 38.2695 36.7395 38.643 37.5015 38.3355C38.271 38.028 38.6445 37.155 38.337 36.3855Z" fill="white"/>
</g>
</svg>
