<svg width="51" height="51" viewBox="0 0 51 51" fill="none" xmlns="http://www.w3.org/2000/svg">
<g id="Secure">
<path id="Vector" d="M23.1562 33.7578L19.5734 30.1758L17.3641 32.3852L23.1562 38.1781L33.6359 27.6977L31.4266 25.4883L23.1562 33.7578Z" fill="#6C63FF"/>
<path id="Vector_2" d="M38 19.4915V14.093C38 7.18911 32.4039 1.59302 25.5 1.59302C18.5961 1.59302 13 7.18911 13 14.093V19.4922C10.0961 22.5704 8.3125 26.7165 8.3125 31.2805C8.3125 40.7704 16.0102 48.468 25.5 48.468C34.993 48.468 42.6875 40.7704 42.6875 31.2805C42.6875 26.7157 40.9039 22.5696 38 19.4915ZM16.125 14.093C16.125 8.92349 20.3305 4.71802 25.5 4.71802C30.6695 4.71802 34.875 8.92349 34.875 14.093V16.8782C32.0878 15.0568 28.8295 14.0888 25.5 14.093C22.1704 14.0892 18.9121 15.0574 16.125 16.879V14.093ZM25.5 46.9055C16.8711 46.9055 9.875 39.9094 9.875 31.2805C9.875 22.6516 16.8711 15.6555 25.5 15.6555C34.1289 15.6555 41.125 22.6516 41.125 31.2805C41.125 39.9094 34.1289 46.9055 25.5 46.9055Z" fill="#6C63FF"/>
</g>
</svg>
