<svg width="51" height="51" viewBox="0 0 51 51" fill="none" xmlns="http://www.w3.org/2000/svg">
<g id="Settings" clip-path="url(#clip0_1_13787)">
<path id="Vector" d="M25.5 0.0305176C11.699 0.0305176 0.5 11.2295 0.5 25.0305C0.5 38.8316 11.699 50.0305 25.5 50.0305C39.301 50.0305 50.5 38.8316 50.5 25.0305C50.5 11.2295 39.301 0.0305176 25.5 0.0305176ZM25.5 1.07218C38.7375 1.07218 49.4583 11.792 49.4583 25.0305C49.4583 38.2691 38.7375 48.9888 25.5 48.9888C12.2625 48.9888 1.54167 38.2691 1.54167 25.0305C1.54167 11.792 12.2625 1.07218 25.5 1.07218ZM25.5833 13.3118C25.4452 13.3118 25.3127 13.3666 25.215 13.4643C25.1174 13.562 25.0625 13.6945 25.0625 13.8326V14.3659C24.9126 14.4178 24.7658 14.4783 24.6229 14.5472L24.2469 14.1722C24.1492 14.0745 24.0168 14.0197 23.8786 14.0197C23.7405 14.0197 23.6081 14.0745 23.5104 14.1722L22.4062 15.2764C22.3577 15.3247 22.3193 15.3822 22.293 15.4455C22.2668 15.5088 22.2532 15.5766 22.2532 15.6451C22.2532 15.7136 22.2668 15.7814 22.293 15.8447C22.3193 15.908 22.3577 15.9655 22.4062 16.0139L22.7812 16.3899C22.7126 16.5321 22.6525 16.6781 22.601 16.8274H22.0677C21.9296 16.8274 21.7971 16.8823 21.6994 16.9799C21.6017 17.0776 21.5469 17.2101 21.5469 17.3482V18.9107C21.5469 19.0489 21.6017 19.1813 21.6994 19.279C21.7971 19.3767 21.9296 19.4316 22.0677 19.4316H22.601C22.6531 19.5826 22.7125 19.7274 22.7823 19.8711L22.4052 20.2472C22.3076 20.3449 22.2527 20.4773 22.2527 20.6154C22.2527 20.7535 22.3076 20.886 22.4052 20.9836L23.5094 22.0878C23.5578 22.1363 23.6152 22.1748 23.6785 22.201C23.7418 22.2273 23.8096 22.2408 23.8781 22.2408C23.9466 22.2408 24.0145 22.2273 24.0777 22.201C24.141 22.1748 24.1985 22.1363 24.2469 22.0878L24.6229 21.7128C24.7667 21.7816 24.9125 21.843 25.0625 21.8951V22.4263C25.0625 22.5645 25.1174 22.697 25.215 22.7946C25.3127 22.8923 25.4452 22.9472 25.5833 22.9472H27.1458C27.284 22.9472 27.4164 22.8923 27.5141 22.7946C27.6118 22.697 27.6667 22.5645 27.6667 22.4263V21.893C27.8167 21.8409 27.9635 21.7836 28.1062 21.7139L28.4823 22.0889C28.58 22.1865 28.7124 22.2413 28.8505 22.2413C28.9886 22.2413 29.1211 22.1865 29.2187 22.0889L30.3229 20.9847C30.3714 20.9363 30.4099 20.8788 30.4362 20.8156C30.4624 20.7523 30.4759 20.6844 30.4759 20.6159C30.4759 20.5474 30.4624 20.4796 30.4362 20.4163C30.4099 20.353 30.3714 20.2956 30.3229 20.2472L29.9479 19.8711C30.0167 19.7274 30.0781 19.5826 30.1302 19.4316H30.6615C30.7996 19.4316 30.9321 19.3767 31.0297 19.279C31.1274 19.1813 31.1823 19.0489 31.1823 18.9107V17.3482C31.1823 17.2101 31.1274 17.0776 31.0297 16.9799C30.9321 16.8823 30.7996 16.8274 30.6615 16.8274H30.1281C30.0771 16.6775 30.0173 16.5307 29.949 16.3878L30.324 16.0128C30.4213 15.9152 30.4759 15.783 30.4759 15.6451C30.4759 15.5072 30.4213 15.375 30.324 15.2774L29.2198 14.1732C29.1714 14.1247 29.1139 14.0862 29.0507 14.06C28.9874 14.0337 28.9195 14.0202 28.851 14.0202C28.7825 14.0202 28.7147 14.0337 28.6514 14.06C28.5881 14.0862 28.5307 14.1247 28.4823 14.1732L28.1062 14.5482C27.9635 14.4787 27.8167 14.4179 27.6667 14.3659V13.8326C27.6667 13.6945 27.6118 13.562 27.5141 13.4643C27.4164 13.3666 27.284 13.3118 27.1458 13.3118H25.5833ZM26.1042 14.3534H26.625V14.7055C26.6249 14.8236 26.6649 14.9383 26.7386 15.0307C26.8122 15.123 26.915 15.1876 27.0302 15.2139C27.3583 15.2889 27.6729 15.4201 27.9573 15.5993C28.0574 15.662 28.1758 15.6889 28.2932 15.6754C28.4105 15.662 28.5198 15.609 28.6031 15.5253L28.851 15.2774L29.2187 15.6451L28.9729 15.892C28.8898 15.975 28.8371 16.0836 28.8235 16.2003C28.8099 16.3169 28.8361 16.4348 28.8979 16.5347C29.075 16.8201 29.2062 17.1357 29.2802 17.4639C29.3064 17.5787 29.3706 17.6813 29.4626 17.7548C29.5545 17.8284 29.6687 17.8687 29.7865 17.8691H30.1406V18.3899H29.7885C29.6703 18.3898 29.5555 18.43 29.4631 18.5039C29.3707 18.5777 29.3062 18.6808 29.2802 18.7961C29.2059 19.1245 29.0767 19.4379 28.8979 19.7232C28.8356 19.823 28.8089 19.9409 28.8221 20.0578C28.8353 20.1747 28.8878 20.2837 28.9708 20.367L29.2187 20.6159L28.851 20.9836L28.6042 20.7378C28.5208 20.6545 28.4116 20.6019 28.2945 20.5887C28.1774 20.5754 28.0592 20.6023 27.9594 20.6649C27.6739 20.8428 27.3605 20.9713 27.0323 21.0451C26.9169 21.0711 26.8138 21.1356 26.74 21.228C26.6662 21.3204 26.626 21.4352 26.626 21.5534V21.9055H26.1052V21.5534C26.1048 21.4355 26.0644 21.3212 25.9906 21.2293C25.9168 21.1373 25.814 21.0731 25.699 21.0472C25.3705 20.9715 25.0571 20.8413 24.7719 20.6618C24.6718 20.599 24.5534 20.5722 24.436 20.5856C24.3186 20.5991 24.2094 20.652 24.126 20.7357L23.8781 20.9836L23.5104 20.6159L23.7583 20.3691C23.8417 20.2857 23.8942 20.1765 23.9075 20.0594C23.9207 19.9423 23.8938 19.8241 23.8312 19.7243C23.6533 19.4388 23.5248 19.1254 23.451 18.7972C23.4252 18.6816 23.3608 18.5783 23.2684 18.5043C23.176 18.4302 23.0611 18.3899 22.9427 18.3899H22.5885V17.8691H22.9406C23.0587 17.8692 23.1734 17.8291 23.2658 17.7555C23.3581 17.6819 23.4227 17.579 23.449 17.4639C23.524 17.1357 23.6531 16.8232 23.8312 16.5389C23.8941 16.4389 23.9211 16.3205 23.9079 16.2032C23.8946 16.0858 23.8419 15.9765 23.7583 15.893L23.5104 15.6451L23.8781 15.2774L24.1271 15.5232C24.2103 15.606 24.3191 15.6583 24.4357 15.6715C24.5524 15.6848 24.6701 15.6582 24.7698 15.5961C25.0552 15.4191 25.3687 15.2899 25.6969 15.2159C25.8124 15.1901 25.9158 15.1257 25.9898 15.0333C26.0638 14.9409 26.1042 14.826 26.1042 14.7076V14.3534ZM26.3646 16.4159C25.424 16.4159 24.65 17.1889 24.65 18.1295C24.65 19.0701 25.424 19.8441 26.3646 19.8441C27.3052 19.8441 28.0802 19.0701 28.0802 18.1295C28.0802 17.1889 27.3052 16.4159 26.3646 16.4159ZM26.3646 17.4576C26.5429 17.4576 26.7139 17.5284 26.84 17.6545C26.9661 17.7806 27.037 17.9517 27.037 18.13C27.037 18.3083 26.9661 18.4794 26.84 18.6055C26.7139 18.7316 26.5429 18.8024 26.3646 18.8024C26.1863 18.8024 26.0152 18.7316 25.8891 18.6055C25.763 18.4794 25.6922 18.3083 25.6922 18.13C25.6922 17.9517 25.763 17.7806 25.8891 17.6545C26.0152 17.5284 26.1863 17.4576 26.3646 17.4576ZM17.0365 20.1191C16.8983 20.1191 16.7658 20.1739 16.6682 20.2716C16.5705 20.3693 16.5156 20.5018 16.5156 20.6399V21.1732C16.3656 21.224 16.2188 21.2838 16.076 21.3524L15.701 20.9774C15.6034 20.8801 15.4712 20.8254 15.3333 20.8254C15.1955 20.8254 15.0633 20.8801 14.9656 20.9774L13.8615 22.0816C13.813 22.1299 13.7745 22.1874 13.7482 22.2507C13.722 22.314 13.7084 22.3818 13.7084 22.4503C13.7084 22.5188 13.722 22.5867 13.7482 22.6499C13.7745 22.7132 13.813 22.7707 13.8615 22.8191L14.2365 23.1951C14.167 23.3379 14.1062 23.4847 14.0542 23.6347H13.5208C13.3827 23.6347 13.2502 23.6896 13.1525 23.7872C13.0549 23.8849 13 24.0174 13 24.1555V25.718C13 25.8561 13.0549 25.9886 13.1525 26.0863C13.2502 26.184 13.3827 26.2388 13.5208 26.2388H14.0542C14.1062 26.3888 14.1656 26.5357 14.2354 26.6784L13.8604 27.0534C13.8119 27.1018 13.7734 27.1593 13.7472 27.2226C13.7209 27.2858 13.7074 27.3537 13.7074 27.4222C13.7074 27.4907 13.7209 27.5585 13.7472 27.6218C13.7734 27.6851 13.8119 27.7426 13.8604 27.7909L14.9646 28.8951C15.013 28.9436 15.0704 28.9821 15.1337 29.0083C15.197 29.0346 15.2648 29.0481 15.3333 29.0481C15.4018 29.0481 15.4697 29.0346 15.533 29.0083C15.5962 28.9821 15.6537 28.9436 15.7021 28.8951L16.0781 28.5201C16.2208 28.5889 16.3656 28.6493 16.5156 28.7003V29.2336C16.5156 29.3718 16.5705 29.5043 16.6682 29.6019C16.7658 29.6996 16.8983 29.7545 17.0365 29.7545H18.599C18.7371 29.7545 18.8696 29.6996 18.9672 29.6019C19.0649 29.5043 19.1198 29.3718 19.1198 29.2336V28.7003C19.2697 28.6488 19.4164 28.5886 19.5594 28.5201L19.9354 28.8951C20.0331 28.9927 20.1655 29.0476 20.3036 29.0476C20.4418 29.0476 20.5742 28.9927 20.6719 28.8951L21.776 27.7909C21.8247 27.7425 21.8633 27.685 21.8897 27.6216C21.916 27.5583 21.9296 27.4903 21.9296 27.4217C21.9296 27.353 21.916 27.2851 21.8897 27.2217C21.8633 27.1583 21.8247 27.1008 21.776 27.0524L21.4021 26.6784C21.4719 26.5357 21.5312 26.3888 21.5833 26.2388H22.1146C22.2527 26.2388 22.3852 26.184 22.4829 26.0863C22.5805 25.9886 22.6354 25.8561 22.6354 25.718V24.1555C22.6354 24.0174 22.5805 23.8849 22.4829 23.7872C22.3852 23.6896 22.2527 23.6347 22.1146 23.6347H21.5812C21.5296 23.4847 21.469 23.3379 21.4 23.1951L21.7771 22.8191C21.8747 22.7214 21.9296 22.5889 21.9296 22.4508C21.9296 22.3127 21.8747 22.1803 21.7771 22.0826L20.6729 20.9784C20.6245 20.9299 20.5671 20.8914 20.5038 20.8652C20.4405 20.8389 20.3727 20.8254 20.3042 20.8254C20.2357 20.8254 20.1678 20.8389 20.1045 20.8652C20.0413 20.8914 19.9838 20.9299 19.9354 20.9784L19.5594 21.3534C19.4166 21.2839 19.2698 21.2231 19.1198 21.1711V20.6399C19.1198 20.5018 19.0649 20.3693 18.9672 20.2716C18.8696 20.1739 18.7371 20.1191 18.599 20.1191H17.0365ZM17.5573 21.1607H18.0781V21.5128C18.0785 21.6306 18.1187 21.7447 18.1923 21.8367C18.2659 21.9286 18.3685 21.9929 18.4833 22.0191C18.8115 22.0941 19.126 22.2253 19.4104 22.4045C19.5104 22.4673 19.6288 22.4944 19.7461 22.4811C19.8635 22.4679 19.9728 22.4151 20.0562 22.3316L20.3042 22.0816L20.6719 22.4503L20.426 22.6972C20.3427 22.7806 20.2901 22.8897 20.2769 23.0068C20.2637 23.124 20.2905 23.2421 20.3531 23.342C20.5302 23.6274 20.6594 23.9409 20.7333 24.2691C20.7591 24.3846 20.8236 24.4879 20.916 24.562C21.0084 24.636 21.1233 24.6764 21.2417 24.6763H21.5938V25.1972H21.2417C21.1239 25.1975 21.0097 25.2378 20.9178 25.3114C20.8258 25.385 20.7616 25.4876 20.7354 25.6024C20.66 25.9306 20.5297 26.2436 20.35 26.5284C20.2873 26.6285 20.2604 26.747 20.2739 26.8643C20.2873 26.9817 20.3402 27.091 20.424 27.1743L20.6719 27.4211L20.3042 27.7889L20.0573 27.543C19.9739 27.4597 19.8648 27.4071 19.7476 27.3939C19.6305 27.3806 19.5124 27.4075 19.4125 27.4701C19.127 27.648 18.8136 27.7765 18.4854 27.8503C18.3699 27.8761 18.2665 27.9405 18.1925 28.0329C18.1185 28.1254 18.0781 28.2402 18.0781 28.3586V28.7128H17.5573V28.3607C17.5574 28.2426 17.5174 28.1279 17.4437 28.0356C17.3701 27.9432 17.2673 27.8786 17.1521 27.8524C16.8245 27.7778 16.5117 27.6486 16.2271 27.4701C16.1273 27.407 16.0091 27.3796 15.8918 27.3925C15.7744 27.4053 15.6649 27.4577 15.5812 27.5409L15.3333 27.7889L14.9656 27.4191L15.2115 27.1732C15.2945 27.0899 15.347 26.981 15.3602 26.8641C15.3734 26.7472 15.3467 26.6292 15.2844 26.5295C15.1064 26.244 14.9779 25.9306 14.9042 25.6024C14.8781 25.487 14.8136 25.3839 14.7213 25.3101C14.6289 25.2363 14.5141 25.1961 14.3958 25.1961H14.0417V24.6753H14.3938C14.512 24.6754 14.6268 24.6352 14.7192 24.5613C14.8116 24.4875 14.8761 24.3844 14.9021 24.2691C14.9771 23.9409 15.1062 23.6274 15.2844 23.342C15.3475 23.2422 15.3749 23.124 15.362 23.0067C15.3491 22.8893 15.2968 22.7798 15.2135 22.6961L14.9656 22.4482L15.3333 22.0805L15.5802 22.3263C15.6634 22.4092 15.7722 22.4614 15.8889 22.4747C16.0055 22.4879 16.1233 22.4613 16.2229 22.3993C16.5083 22.2222 16.8219 22.093 17.15 22.0191C17.2656 21.9932 17.3689 21.9288 17.4429 21.8364C17.517 21.744 17.5573 21.6291 17.5573 21.5107V21.1607ZM29.2635 22.9472C29.1254 22.9472 28.9929 23.0021 28.8953 23.0997C28.7976 23.1974 28.7427 23.3299 28.7427 23.468V24.4003C28.4198 24.5003 28.1094 24.6263 27.8094 24.7826L27.1531 24.1295C27.0555 24.0322 26.9233 23.9775 26.7854 23.9775C26.6476 23.9775 26.5153 24.0322 26.4177 24.1295L24.8104 25.7336C24.7619 25.782 24.7234 25.8395 24.6972 25.9028C24.6709 25.966 24.6574 26.0339 24.6574 26.1024C24.6574 26.1709 24.6709 26.2387 24.6972 26.302C24.7234 26.3653 24.7619 26.4228 24.8104 26.4711L25.4667 27.1274C25.3104 27.4284 25.1792 27.7388 25.0792 28.0618H24.1521C24.0139 28.0618 23.8815 28.1166 23.7838 28.2143C23.6861 28.312 23.6312 28.4445 23.6312 28.5826V30.8555C23.6312 30.9936 23.6861 31.1261 23.7838 31.2238C23.8815 31.3215 24.0139 31.3763 24.1521 31.3763H25.0812C25.1812 31.6993 25.3094 32.0118 25.4656 32.3118L24.8094 32.968C24.7121 33.0656 24.6574 33.1979 24.6574 33.3357C24.6574 33.4736 24.7121 33.6058 24.8094 33.7034L26.4177 35.3086C26.5154 35.4063 26.6478 35.4611 26.7859 35.4611C26.924 35.4611 27.0565 35.4063 27.1542 35.3086L27.8104 34.6534C28.1104 34.8097 28.4208 34.9378 28.7427 35.0389V35.968C28.7427 36.1062 28.7976 36.2386 28.8953 36.3363C28.9929 36.434 29.1254 36.4888 29.2635 36.4888H31.5385C31.6767 36.4888 31.8091 36.434 31.9068 36.3363C32.0045 36.2386 32.0594 36.1062 32.0594 35.968V35.0378C32.3823 34.9378 32.6927 34.8118 32.9927 34.6555L33.649 35.3086C33.7466 35.406 33.8788 35.4606 34.0167 35.4606C34.1545 35.4606 34.2867 35.406 34.3844 35.3086L35.9917 33.7045C36.0402 33.6561 36.0787 33.5986 36.1049 33.5353C36.1312 33.4721 36.1447 33.4042 36.1447 33.3357C36.1447 33.2672 36.1312 33.1994 36.1049 33.1361C36.0787 33.0728 36.0402 33.0154 35.9917 32.967L35.3354 32.3107C35.4917 32.0097 35.6229 31.6993 35.7229 31.3763H36.651C36.7892 31.3763 36.9216 31.3215 37.0193 31.2238C37.117 31.1261 37.1719 30.9936 37.1719 30.8555V28.5826C37.1719 28.4445 37.117 28.312 37.0193 28.2143C36.9216 28.1166 36.7892 28.0618 36.651 28.0618H35.7219C35.6218 27.739 35.4928 27.4259 35.3365 27.1263L35.9927 26.4701C36.09 26.3725 36.1447 26.2402 36.1447 26.1024C36.1447 25.9645 36.09 25.8323 35.9927 25.7347L34.3844 24.1295C34.2867 24.0318 34.1543 23.977 34.0161 23.977C33.878 23.977 33.7456 24.0318 33.6479 24.1295L32.9917 24.7847C32.6931 24.6284 32.3811 24.4994 32.0594 24.3993V23.468C32.0594 23.3299 32.0045 23.1974 31.9068 23.0997C31.8091 23.0021 31.6767 22.9472 31.5385 22.9472H29.2635ZM17.8177 23.2222C16.8771 23.2222 16.1042 23.9961 16.1042 24.9368C16.1042 25.8774 16.8771 26.6524 17.8177 26.6524C18.7583 26.6524 19.5323 25.8774 19.5323 24.9368C19.5323 23.9961 18.7583 23.2222 17.8177 23.2222ZM29.7844 23.9888H31.0177V24.7378C31.0176 24.8559 31.0576 24.9706 31.1313 25.063C31.2049 25.1553 31.3077 25.2199 31.4229 25.2461C31.926 25.3607 32.4052 25.5597 32.8427 25.8336C32.9426 25.8962 33.0607 25.9231 33.1778 25.9099C33.295 25.8966 33.4041 25.844 33.4875 25.7607L34.0167 25.2336L34.8875 26.1024L34.3604 26.6295C34.2768 26.7129 34.2241 26.8223 34.2109 26.9396C34.1976 27.057 34.2246 27.1753 34.2875 27.2753C34.5604 27.7128 34.7573 28.192 34.8708 28.6972C34.8969 28.8126 34.9614 28.9156 35.0537 28.9895C35.1461 29.0633 35.2609 29.1035 35.3792 29.1034H36.1302V30.3347H35.3812C35.2633 30.3345 35.1487 30.3744 35.0564 30.4478C34.964 30.5213 34.8993 30.6239 34.8729 30.7388C34.7583 31.243 34.5604 31.7243 34.2854 32.1618C34.2228 32.2616 34.1959 32.3798 34.2092 32.4969C34.2224 32.614 34.275 32.7232 34.3583 32.8066L34.8875 33.3357L34.0167 34.2045L33.4896 33.6795C33.4064 33.5967 33.2976 33.5444 33.1809 33.5312C33.0643 33.5179 32.9465 33.5445 32.8469 33.6066C32.4094 33.8795 31.926 34.0763 31.4229 34.1899C31.3079 34.2158 31.2051 34.28 31.1313 34.372C31.0575 34.464 31.0171 34.5782 31.0167 34.6961V35.4472H29.7844V34.6982C29.7841 34.5806 29.744 34.4665 29.6706 34.3746C29.5972 34.2827 29.4948 34.2183 29.3802 34.192C28.8768 34.0772 28.3965 33.8782 27.9594 33.6034C27.8595 33.5408 27.7414 33.514 27.6242 33.5272C27.5071 33.5405 27.398 33.593 27.3146 33.6763L26.7854 34.2045L25.9146 33.3357L26.4417 32.8086C26.5252 32.7252 26.578 32.6158 26.5912 32.4985C26.6045 32.3811 26.5774 32.2628 26.5146 32.1628C26.2415 31.725 26.0443 31.2443 25.9312 30.7409C25.9052 30.6256 25.8407 30.5225 25.7483 30.4487C25.6559 30.3748 25.5412 30.3346 25.4229 30.3347H24.6729V29.1034H25.4208C25.539 29.1035 25.6536 29.0635 25.746 28.9899C25.8383 28.9162 25.9029 28.8134 25.9292 28.6982C26.0437 28.1951 26.2427 27.7139 26.5177 27.2764C26.5803 27.1765 26.6072 27.0583 26.5939 26.9412C26.5807 26.8241 26.5281 26.7149 26.4448 26.6316L25.9146 26.1024L26.7854 25.2336L27.3125 25.7586C27.3957 25.8415 27.5045 25.8937 27.6212 25.907C27.7378 25.9202 27.8555 25.8936 27.9552 25.8316C28.3937 25.5586 28.876 25.3597 29.3802 25.2461C29.4945 25.2199 29.5966 25.1558 29.6699 25.0643C29.7433 24.9728 29.7836 24.8592 29.7844 24.742V23.9888ZM17.8177 24.2638C17.9917 24.2707 18.1563 24.3446 18.2771 24.4702C18.3978 24.5957 18.4652 24.7631 18.4652 24.9373C18.4652 25.1114 18.3978 25.2788 18.2771 25.4044C18.1563 25.5299 17.9917 25.6039 17.8177 25.6107C17.6391 25.6107 17.4678 25.5398 17.3415 25.4135C17.2152 25.2872 17.1443 25.1159 17.1443 24.9373C17.1443 24.7587 17.2152 24.5874 17.3415 24.4611C17.4678 24.3348 17.6391 24.2638 17.8177 24.2638ZM30.401 27.1138C29.7113 27.1169 29.0507 27.3922 28.5629 27.8799C28.0752 28.3676 27.7999 29.0283 27.7969 29.718C27.7996 30.4078 28.0749 31.0686 28.5626 31.5564C29.0504 32.0442 29.7112 32.3194 30.401 32.3222C31.0909 32.3194 31.7517 32.0442 32.2394 31.5564C32.7272 31.0686 33.0025 30.4078 33.0052 29.718C33.0052 28.2889 31.8302 27.1138 30.401 27.1138ZM30.401 28.1555C31.2615 28.1555 31.9635 28.8576 31.9635 29.718C31.9635 30.5784 31.2615 31.2805 30.401 31.2805C29.5406 31.2805 28.8385 30.5784 28.8385 29.718C28.8385 28.8576 29.5406 28.1555 30.401 28.1555Z" fill="#6C63FF"/>
</g>
<defs>
<clipPath id="clip0_1_13787">
<rect width="50" height="50" fill="white" transform="translate(0.5 0.0305176)"/>
</clipPath>
</defs>
</svg>
