<svg width="50" height="51" viewBox="0 0 50 51" fill="none" xmlns="http://www.w3.org/2000/svg">
<g id="Solutions">
<path id="Vector" d="M17.3063 23.4001H14.0625V27.3767H17.3063C17.4906 28.0953 17.7758 28.7841 18.1531 29.4228L15.8594 31.7166L18.6719 34.5291L20.9656 32.2361C21.6045 32.6131 22.2933 32.8982 23.0117 33.083V36.3259H26.9883V33.0822C27.7067 32.8975 28.3955 32.6124 29.0344 32.2353L31.3281 34.5291L34.1406 31.7166L31.8477 29.4228C32.225 28.7841 32.5101 28.0953 32.6945 27.3767H35.9375V23.4001H32.6938C32.5094 22.6816 32.2242 21.9927 31.8469 21.3541L34.1406 19.0603L31.3281 16.2478L29.0344 18.5408C28.3957 18.1634 27.7068 17.8783 26.9883 17.6939V14.4509H23.0117V17.6947C22.2932 17.8791 21.6043 18.1642 20.9656 18.5416L18.6719 16.2478L15.8594 19.0603L18.1523 21.3541C17.7752 21.9928 17.4904 22.6816 17.3063 23.4001ZM25 20.7009C25.9271 20.7009 26.8334 20.9758 27.6042 21.4909C28.3751 22.006 28.9759 22.7381 29.3307 23.5946C29.6855 24.4511 29.7783 25.3936 29.5974 26.3029C29.4166 27.2122 28.9701 28.0474 28.3146 28.703C27.659 29.3586 26.8238 29.805 25.9145 29.9859C25.0052 30.1667 24.0627 30.0739 23.2062 29.7191C22.3496 29.3643 21.6176 28.7635 21.1025 27.9927C20.5874 27.2218 20.3125 26.3155 20.3125 25.3884C20.3137 24.1456 20.808 22.954 21.6868 22.0752C22.5656 21.1964 23.7572 20.7022 25 20.7009Z" fill="#6C63FF"/>
<path id="Vector_2" d="M25 28.5134C26.7259 28.5134 28.125 27.1143 28.125 25.3884C28.125 23.6625 26.7259 22.2634 25 22.2634C23.2741 22.2634 21.875 23.6625 21.875 25.3884C21.875 27.1143 23.2741 28.5134 25 28.5134Z" fill="#6C63FF"/>
<path id="Vector_3" d="M38.1984 14.0236L41.4062 9.89858L40.4898 8.98218L36.3648 12.19L34.532 10.3572L34.3484 16.04L40.0312 15.8564L38.1984 14.0236Z" fill="#6C63FF"/>
<path id="Vector_4" d="M9.51016 41.7947L13.6352 38.5869L15.468 40.4197L15.6516 34.7369L9.96875 34.9205L11.8016 36.7533L8.59375 40.8783L9.51016 41.7947Z" fill="#6C63FF"/>
<path id="Vector_5" d="M34.3484 34.7369L34.532 40.4197L36.3648 38.5869L40.4898 41.7947L41.4062 40.8783L38.1984 36.7533L40.0312 34.9205L34.3484 34.7369Z" fill="#6C63FF"/>
<path id="Vector_6" d="M9.96875 15.8564L15.6516 16.04L15.468 10.3572L13.6352 12.19L9.51016 8.98218L8.59375 9.89858L11.8016 14.0236L9.96875 15.8564Z" fill="#6C63FF"/>
<path id="Vector_7" d="M24.3492 11.3259H25.6508L26.3023 6.11733H28.9062L25 1.95093L21.0938 6.11733H23.6977L24.3492 11.3259Z" fill="#6C63FF"/>
<path id="Vector_8" d="M25.6508 39.4509H24.3492L23.6977 44.6595H21.0938L25 48.8259L28.9062 44.6595H26.3023L25.6508 39.4509Z" fill="#6C63FF"/>
<path id="Vector_9" d="M39.0625 26.0392L44.2711 26.6908V29.2947L48.4375 25.3884L44.2711 21.4822V24.0861L39.0625 24.7376V26.0392Z" fill="#6C63FF"/>
<path id="Vector_10" d="M5.72891 26.6908L10.9375 26.0392V24.7376L5.72891 24.0861V21.4822L1.5625 25.3884L5.72891 29.2947V26.6908Z" fill="#6C63FF"/>
</g>
</svg>
