<svg width="40" height="40" viewBox="0 0 40 40" fill="none" xmlns="http://www.w3.org/2000/svg">
<g id="square-poll-horizontal">
<path id="Icon" d="M13.3332 13.3332H21.6665M13.3332 19.9998H26.6665M13.3332 26.6665H18.3332M11.9998 6.6665H27.9998C29.8667 6.6665 30.8001 6.6665 31.5131 7.02982C32.1403 7.34939 32.6503 7.85933 32.9699 8.48654C33.3332 9.19957 33.3332 10.133 33.3332 11.9998V27.9998C33.3332 29.8667 33.3332 30.8001 32.9699 31.5131C32.6503 32.1403 32.1403 32.6503 31.5131 32.9699C30.8001 33.3332 29.8667 33.3332 27.9998 33.3332H11.9998C10.133 33.3332 9.19957 33.3332 8.48654 32.9699C7.85933 32.6503 7.34939 32.1403 7.02982 31.5131C6.6665 30.8001 6.6665 29.8667 6.6665 27.9998V11.9998C6.6665 10.133 6.6665 9.19957 7.02982 8.48654C7.34939 7.85933 7.85933 7.34939 8.48654 7.02982C9.19957 6.6665 10.133 6.6665 11.9998 6.6665Z" stroke="#131A29" stroke-width="3" stroke-linecap="round" stroke-linejoin="round"/>
</g>
</svg>
