<svg width="34" height="35" viewBox="0 0 34 35" fill="none" xmlns="http://www.w3.org/2000/svg">
<g id="Stars" clip-path="url(#clip0_1_13610)">
<path id="Vector" d="M11.7153 19.4564L11.625 19.5342L10.6441 18.4015L15.7911 18.0935L18.4531 13.6813L20.3362 18.4785L25.3547 19.6481L24.5307 20.3257L24.4461 20.2257L19.6583 19.129L18.2875 15.486L16.1067 19.0787L11.7153 19.4564Z" fill="#3538CD"/>
<path id="Vector_2" d="M18.2875 15.486L19.6583 19.1289L24.4461 20.2257L24.5307 20.3257L21.3757 22.9214L21.8133 28.0571L17.4701 25.283L12.7231 27.2873L14.0204 22.2981L11.625 19.5341L11.7153 19.4564L16.1067 19.0787L18.2875 15.486Z" fill="#6C63FF"/>
<path id="Vector_3" d="M25.193 12.5839C25.7625 11.8151 25.5295 10.6771 24.6725 10.0422C23.8154 9.40728 22.6589 9.51586 22.0893 10.2847C21.5198 11.0535 21.7528 12.1915 22.6099 12.8264C23.4669 13.4613 24.6234 13.3528 25.193 12.5839Z" fill="white"/>
<path id="Vector_4" d="M15.3098 6.70444L15.469 9.14179L17.5697 10.3947L15.2995 11.2983L14.7593 13.6843L13.1979 11.8042L10.7625 12.0301L12.0658 9.96215L11.1015 7.71706L13.4721 8.31582L15.3098 6.70444Z" fill="#6C63FF"/>
<path id="Vector_5" d="M7.05602 19.6729C6.80485 20.0553 6.71566 20.5218 6.80802 20.97C6.90037 21.4181 7.16673 21.8113 7.54865 22.0633C7.19496 21.7715 6.73996 21.632 6.2835 21.6753C5.82705 21.7186 5.40643 21.9413 5.11397 22.2944C5.36563 21.9111 5.45501 21.4437 5.36251 20.9946C5.27002 20.5455 5.0032 20.1514 4.62056 19.8988C4.97395 20.1906 5.42853 20.3307 5.8849 20.2884C6.34128 20.2461 6.76234 20.0248 7.05602 19.6729Z" fill="white"/>
<path id="Vector_6" d="M18.1314 13.4854L15.5702 17.7302L10.6227 18.0272C10.5528 18.0314 10.4856 18.0551 10.4285 18.0955C10.3715 18.136 10.3269 18.1916 10.2997 18.256C10.2726 18.3205 10.264 18.3913 10.275 18.4604C10.286 18.5294 10.3161 18.5941 10.3619 18.6469L13.6063 22.394L12.3595 27.1929C12.3419 27.2606 12.3436 27.3319 12.3644 27.3987C12.3852 27.4655 12.4242 27.5251 12.4771 27.5709C12.53 27.6166 12.5947 27.6466 12.6638 27.6576C12.7329 27.6685 12.8036 27.6599 12.8681 27.6327L17.434 25.7034L21.6118 28.3727C21.6707 28.4103 21.739 28.4307 21.809 28.4316C21.879 28.4325 21.9478 28.4137 22.0076 28.3775C22.0675 28.3413 22.1161 28.2891 22.1478 28.2268C22.1795 28.1645 22.1932 28.0945 22.1873 28.0248L21.7647 23.0849L25.5944 19.9363C25.6484 19.8918 25.689 19.8331 25.7114 19.7668C25.7338 19.7005 25.7373 19.6293 25.7213 19.5612C25.7054 19.493 25.6707 19.4307 25.6212 19.3812C25.5716 19.3318 25.5093 19.2972 25.4411 19.2813L20.6139 18.1578L18.8048 13.5442C18.7793 13.4789 18.736 13.4221 18.6798 13.3802C18.6237 13.3383 18.5569 13.3129 18.4871 13.307C18.4173 13.3011 18.3472 13.3149 18.2849 13.3468C18.2225 13.3787 18.1703 13.4274 18.1342 13.4875L18.1314 13.4854ZM19.9877 18.6156C20.0099 18.6722 20.0456 18.7225 20.0916 18.7623C20.1375 18.8021 20.1925 18.83 20.2517 18.8438L24.5313 19.8399L21.1374 22.6319C21.0908 22.6705 21.0542 22.7198 21.0308 22.7756C21.0074 22.8313 20.9978 22.892 21.0028 22.9522L21.3767 27.3324L17.673 24.9662C17.6218 24.9335 17.5634 24.9137 17.5028 24.9085C17.4422 24.9034 17.3813 24.9131 17.3252 24.9368L13.2764 26.6462L14.3825 22.3927C14.3976 22.3339 14.3982 22.2723 14.3843 22.2132C14.3703 22.1541 14.3423 22.0993 14.3025 22.0534L11.4256 18.7312L15.8126 18.4684C15.8734 18.465 15.9324 18.4468 15.9845 18.4154C16.0366 18.3839 16.0802 18.3402 16.1114 18.2879L18.3819 14.5251L19.9877 18.6156ZM15.6823 6.67981C15.6777 6.61 15.6537 6.54287 15.6129 6.48599C15.5722 6.42911 15.5164 6.38477 15.4518 6.35797C15.3871 6.33116 15.3163 6.32297 15.2473 6.33432C15.1782 6.34567 15.1137 6.3761 15.0611 6.42218L13.3713 7.90376L11.1944 7.35231C11.1265 7.33513 11.0553 7.33726 10.9886 7.35846C10.9219 7.37966 10.8625 7.4191 10.8171 7.4723C10.7717 7.5255 10.742 7.59035 10.7315 7.65951C10.721 7.72868 10.7301 7.79941 10.7576 7.8637L11.6432 9.92775L10.4453 11.8283C10.408 11.8875 10.388 11.9559 10.3875 12.0259C10.3871 12.0958 10.4062 12.1645 10.4428 12.2242C10.4793 12.2838 10.5318 12.3321 10.5943 12.3634C10.6569 12.3948 10.7269 12.4081 10.7966 12.4017L13.0343 12.1964L14.4721 13.9233C14.5169 13.977 14.5758 14.0172 14.6422 14.0391C14.7086 14.0611 14.7799 14.0641 14.8479 14.0477C14.9159 14.0314 14.9779 13.9963 15.0271 13.9465C15.0762 13.8967 15.1104 13.8341 15.1258 13.7659L15.6219 11.575L17.7089 10.7409C17.7739 10.715 17.8304 10.6714 17.872 10.615C17.9135 10.5586 17.9385 10.4917 17.9439 10.4219C17.9494 10.3521 17.9352 10.2821 17.903 10.22C17.8708 10.1578 17.8218 10.1059 17.7615 10.0701L15.8314 8.92027L15.6823 6.67981ZM15.0953 9.1674C15.0993 9.22809 15.1179 9.28691 15.1496 9.33879C15.1813 9.39067 15.2252 9.43405 15.2775 9.4652L16.725 10.3266L15.1607 10.9514C15.1042 10.974 15.054 11.01 15.0145 11.0563C14.9751 11.1026 14.9474 11.1577 14.934 11.2171L14.5633 12.8578L13.4861 11.5664C13.4472 11.5199 13.3977 11.4835 13.3417 11.4604C13.2858 11.4372 13.225 11.4279 13.1647 11.4333L11.4873 11.5871L12.3815 10.1596C12.4139 10.1082 12.4334 10.0497 12.4382 9.98915C12.443 9.92856 12.433 9.86772 12.4091 9.81185L11.7455 8.26512L13.377 8.68036C13.436 8.69549 13.4978 8.69602 13.557 8.68193C13.6162 8.66783 13.6711 8.63953 13.717 8.59946L14.9835 7.48893L15.0953 9.1674ZM24.3709 9.81928C24.1186 10.1124 23.7608 10.2942 23.3753 10.3251C22.9897 10.3561 22.6075 10.2337 22.3117 9.98459C22.2318 9.92539 22.1316 9.90036 22.0332 9.915C21.9348 9.92965 21.8463 9.98278 21.7871 10.0627C21.7279 10.1426 21.7029 10.2428 21.7175 10.3411C21.7322 10.4395 21.7853 10.528 21.8652 10.5872C22.1895 10.7973 22.4179 11.1267 22.5009 11.504C22.584 11.8813 22.5149 12.2762 22.3088 12.6029C22.2496 12.6828 22.2245 12.783 22.2392 12.8814C22.2538 12.9797 22.3069 13.0683 22.3869 13.1275C22.4668 13.1867 22.5669 13.2117 22.6653 13.197C22.7637 13.1824 22.8522 13.1293 22.9114 13.0494C23.1639 12.7564 23.5216 12.5747 23.9071 12.5437C24.2926 12.5127 24.6748 12.6349 24.9709 12.8837C25.0508 12.9429 25.1509 12.968 25.2493 12.9533C25.3477 12.9387 25.4362 12.8856 25.4954 12.8056C25.5546 12.7257 25.5796 12.6256 25.565 12.5272C25.5503 12.4288 25.4972 12.3403 25.4173 12.2811C25.093 12.0712 24.8644 11.7418 24.7813 11.3645C24.6982 10.9872 24.7672 10.5923 24.9732 10.2655C25.0324 10.1856 25.0575 10.0854 25.0428 9.98706C25.0282 9.88869 24.9751 9.80016 24.8951 9.74096C24.8152 9.68175 24.7151 9.65672 24.6167 9.67137C24.5183 9.68602 24.4298 9.73914 24.3706 9.81905L24.3709 9.81928ZM24.1392 11.8014C23.8537 11.78 23.5668 11.8139 23.294 11.901C23.2972 11.6156 23.2457 11.3323 23.1424 11.0662C23.4278 11.0879 23.7147 11.0541 23.9874 10.967C23.984 11.2523 24.0356 11.5356 24.1392 11.8014ZM7.32415 22.3651C7.40407 22.4243 7.50423 22.4493 7.6026 22.4347C7.70097 22.42 7.7895 22.3669 7.8487 22.287C7.9079 22.2071 7.93293 22.1069 7.91829 22.0085C7.90364 21.9102 7.85051 21.8216 7.7706 21.7624C7.46974 21.5681 7.25759 21.263 7.18013 20.9133C7.10267 20.5637 7.16615 20.1975 7.35681 19.8943C7.41601 19.8144 7.44104 19.7143 7.4264 19.6159C7.41175 19.5175 7.35863 19.429 7.27871 19.3698C7.19879 19.3106 7.09863 19.2856 7.00026 19.3002C6.90189 19.3149 6.81336 19.368 6.75416 19.4479C6.51981 19.7193 6.18788 19.8874 5.83039 19.9157C5.47289 19.944 5.11867 19.8302 4.84455 19.599C4.76463 19.5398 4.66447 19.5147 4.5661 19.5294C4.46772 19.544 4.3792 19.5972 4.32 19.6771C4.26079 19.757 4.23576 19.8571 4.25041 19.9555C4.26506 20.0539 4.31818 20.1424 4.3981 20.2016C4.69897 20.3961 4.91108 20.7013 4.98846 21.0511C5.06583 21.4009 5.00223 21.7671 4.81144 22.0703C4.75224 22.1502 4.72721 22.2504 4.74185 22.3488C4.7565 22.4471 4.80962 22.5357 4.88954 22.5949C4.96946 22.6541 5.06962 22.6791 5.16799 22.6644C5.26636 22.6498 5.35488 22.5967 5.41409 22.5168C5.64842 22.2452 5.98038 22.0769 6.33796 22.0486C6.69554 22.0202 7.04989 22.1339 7.32415 22.3651ZM5.64725 20.6598C5.89825 20.6743 6.14981 20.644 6.39021 20.5704C6.39086 20.8205 6.43577 21.0685 6.52286 21.3029C6.27215 21.2881 6.0208 21.3179 5.78049 21.3909C5.77939 21.1412 5.73448 20.8939 5.64725 20.6598Z" fill="#3538CD"/>
</g>
<defs>
<clipPath id="clip0_1_13610">
<rect width="24" height="24" fill="white" transform="translate(0 19.9433) rotate(-53.4685)"/>
</clipPath>
</defs>
</svg>
