<svg width="24" height="24" viewBox="0 0 24 24" fill="none" xmlns="http://www.w3.org/2000/svg">
<g id="Stars">
<path id="Vector" d="M7.36527 9.12352L7.24902 9.09727L7.57527 7.63477L10.8865 11.5873L16.0165 11.0998L13.2828 15.4685L15.3303 20.1973L14.2953 19.9385L14.3253 19.811L12.3565 15.311L14.4678 12.041L10.2828 12.4273L7.36527 9.12352Z" fill="#101828"/>
<path id="Vector_2" d="M14.4679 12.0414L12.3566 15.3114L14.3254 19.8114L14.2954 19.9389L10.3316 18.9489L6.46535 22.3577L6.1091 17.2164L1.67285 14.5952L6.4541 12.6677L7.2491 9.09766L7.36535 9.12391L10.2829 12.4277L14.4679 12.0414Z" fill="#101828"/>
<path id="Vector_3" d="M20.9102 15.8625C21.8671 15.8625 22.6427 14.9979 22.6427 13.9313C22.6427 12.8647 21.8671 12 20.9102 12C19.9534 12 19.1777 12.8647 19.1777 13.9313C19.1777 14.9979 19.9534 15.8625 20.9102 15.8625Z" fill="white"/>
<path id="Vector_4" d="M19.7509 4.42133L17.8871 6.00008L18.1309 8.43383L16.0534 7.14758L13.8146 8.13383L14.3959 5.76008L12.7646 3.93758L15.2021 3.75383L16.4321 1.64258L17.3621 3.90383L19.7509 4.42133Z" fill="#101828"/>
<path id="Vector_5" d="M4.41777 5.50854C3.96095 5.53438 3.53303 5.74038 3.22792 6.08135C2.9228 6.42232 2.76541 6.87041 2.79027 7.32729C2.81419 6.8694 2.65546 6.42074 2.34893 6.07976C2.0424 5.73878 1.61311 5.53334 1.15527 5.50854C1.61306 5.48259 2.04187 5.27616 2.34766 4.93451C2.65346 4.59286 2.81129 4.14388 2.78652 3.68604C2.76236 4.14373 2.9204 4.59238 3.22607 4.9339C3.53175 5.27541 3.96021 5.48201 4.41777 5.50854Z" fill="white"/>
<path id="Vector_6" d="M15.9824 10.7252L11.047 11.1939L7.86327 7.3952C7.81831 7.34162 7.75926 7.30168 7.69279 7.2799C7.62632 7.25812 7.55509 7.25536 7.48714 7.27194C7.41918 7.28852 7.35722 7.32377 7.30825 7.37372C7.25928 7.42366 7.22526 7.4863 7.21002 7.55457L6.1304 12.3921L1.53215 14.2468C1.46728 14.273 1.41103 14.3168 1.36975 14.3732C1.32847 14.4297 1.3038 14.4966 1.29854 14.5663C1.29327 14.6361 1.30762 14.7059 1.33995 14.7679C1.37229 14.83 1.42133 14.8817 1.48152 14.9173L5.74977 17.4377L6.09177 22.3836C6.09661 22.4534 6.12088 22.5204 6.16183 22.5771C6.20279 22.6339 6.25879 22.678 6.32352 22.7046C6.38824 22.7311 6.45909 22.7391 6.52808 22.7275C6.59706 22.7159 6.66143 22.6852 6.7139 22.6389L10.4316 19.3588L15.2414 20.5618C15.3093 20.5788 15.3806 20.5764 15.4472 20.555C15.5138 20.5336 15.5731 20.4939 15.6184 20.4405C15.6636 20.3872 15.6931 20.3222 15.7033 20.253C15.7136 20.1837 15.7042 20.113 15.6764 20.0488L13.7058 15.5012L16.336 11.3012C16.3733 11.2419 16.3931 11.1733 16.3934 11.1032C16.3937 11.0331 16.3743 10.9644 16.3375 10.9048C16.3007 10.8452 16.2479 10.7971 16.1851 10.7659C16.1224 10.7348 16.0521 10.7218 15.9824 10.7286V10.7252ZM12.9651 15.2706C12.9329 15.3221 12.9136 15.3807 12.9091 15.4413C12.9045 15.502 12.9147 15.5628 12.9389 15.6186L14.686 19.6502L10.4223 18.5852C10.3635 18.5707 10.3022 18.5706 10.2434 18.585C10.1846 18.5994 10.1302 18.6277 10.0848 18.6677L6.78777 21.5754L6.4844 17.1909C6.4802 17.1303 6.46132 17.0715 6.42937 17.0198C6.39743 16.9681 6.35338 16.9249 6.30102 16.8939L2.51727 14.6582L6.59352 13.0149C6.64978 12.9921 6.69965 12.9559 6.73884 12.9096C6.77803 12.8632 6.80538 12.808 6.81852 12.7487L7.77552 8.45944L10.5981 11.8281C10.637 11.8749 10.6868 11.9115 10.743 11.9347C10.7993 11.9578 10.8605 11.9668 10.921 11.9608L15.2961 11.5453L12.9651 15.2706ZM19.993 4.70607C20.0464 4.66084 20.086 4.60157 20.1075 4.53498C20.1289 4.46839 20.1313 4.39713 20.1144 4.32925C20.0975 4.26136 20.0619 4.19957 20.0117 4.15086C19.9615 4.10214 19.8986 4.06844 19.8303 4.05357L17.6339 3.5777L16.7811 1.5002C16.7546 1.43547 16.7104 1.37947 16.6537 1.33853C16.597 1.29758 16.53 1.27331 16.4602 1.26848C16.3904 1.26364 16.3206 1.27842 16.2588 1.31115C16.197 1.34388 16.1455 1.39326 16.1103 1.4537L14.9789 3.39395L12.7386 3.5627C12.6689 3.56795 12.602 3.59261 12.5455 3.6339C12.489 3.67518 12.4452 3.73144 12.4191 3.79632C12.3929 3.8612 12.3854 3.9321 12.3974 4.00102C12.4094 4.06994 12.4404 4.13412 12.487 4.18632L13.984 5.8622L13.4523 8.04545C13.4358 8.11342 13.4386 8.18466 13.4605 8.2511C13.4823 8.31755 13.5223 8.37656 13.576 8.42146C13.6296 8.46636 13.6947 8.49536 13.764 8.50519C13.8333 8.51501 13.9039 8.50528 13.9679 8.47707L16.0236 7.57145L17.9361 8.75194C17.9957 8.7888 18.0644 8.80823 18.1344 8.80805C18.2045 8.80787 18.2731 8.78808 18.3324 8.75093C18.3918 8.71377 18.4396 8.66073 18.4703 8.59781C18.5011 8.53489 18.5136 8.46462 18.5065 8.39495L18.2815 6.15957L19.993 4.70607ZM17.6448 5.71519C17.5984 5.75448 17.5622 5.80447 17.5394 5.86085C17.5166 5.91723 17.5078 5.97831 17.5139 6.03882L17.6834 7.71469L16.2501 6.82969C16.1984 6.79774 16.1396 6.77885 16.0789 6.77467C16.0182 6.77049 15.9574 6.78114 15.9018 6.8057L14.3628 7.48445L14.7591 5.85019C14.7734 5.79131 14.7732 5.72985 14.7585 5.67107C14.7438 5.61229 14.7151 5.55795 14.6748 5.51269L13.5528 4.25645L15.232 4.1252C15.2926 4.12066 15.3512 4.10147 15.4028 4.06926C15.4543 4.03706 15.4973 3.99281 15.5279 3.94032L16.3758 2.48645L17.0133 4.04457C17.0362 4.10096 17.0726 4.15092 17.1192 4.19012C17.1657 4.22932 17.2212 4.25659 17.2806 4.26957L18.9269 4.6262L17.6448 5.71519ZM22.6424 13.5564C22.2567 13.5282 21.8976 13.3489 21.6433 13.0575C21.3889 12.7662 21.2597 12.3862 21.2838 12.0002C21.2838 11.9007 21.2443 11.8054 21.1739 11.735C21.1036 11.6647 21.0082 11.6252 20.9088 11.6252C20.8093 11.6252 20.7139 11.6647 20.6436 11.735C20.5733 11.8054 20.5338 11.9007 20.5338 12.0002C20.558 12.3858 20.4293 12.7654 20.1756 13.0567C19.9218 13.3481 19.5634 13.5276 19.1781 13.5564C19.0787 13.5564 18.9833 13.596 18.913 13.6663C18.8427 13.7366 18.8031 13.832 18.8031 13.9314C18.8031 14.0309 18.8427 14.1263 18.913 14.1966C18.9833 14.2669 19.0787 14.3064 19.1781 14.3064C19.5638 14.3349 19.9228 14.5142 20.1772 14.8055C20.4316 15.0969 20.5609 15.4767 20.5371 15.8627C20.5371 15.9622 20.5767 16.0575 20.647 16.1279C20.7173 16.1982 20.8127 16.2377 20.9121 16.2377C21.0116 16.2377 21.107 16.1982 21.1773 16.1279C21.2476 16.0575 21.2871 15.9622 21.2871 15.8627C21.2628 15.4771 21.3914 15.0974 21.6451 14.806C21.8988 14.5146 22.2571 14.335 22.6424 14.3061C22.7419 14.3061 22.8372 14.2666 22.9076 14.1962C22.9779 14.1259 23.0174 14.0305 23.0174 13.9311C23.0174 13.8316 22.9779 13.7362 22.9076 13.6659C22.8372 13.5956 22.7419 13.5561 22.6424 13.5561V13.5564ZM20.9118 14.5502C20.759 14.308 20.561 14.0976 20.3286 13.9303C20.5598 13.763 20.7569 13.553 20.9091 13.3116C21.0617 13.5538 21.2596 13.7643 21.4919 13.9314C21.2606 14.0986 21.0637 14.3087 20.9118 14.5502ZM2.41415 7.32695C2.41415 7.4264 2.45366 7.52178 2.52398 7.59211C2.59431 7.66244 2.68969 7.70195 2.78915 7.70195C2.8886 7.70195 2.98399 7.66244 3.05431 7.59211C3.12464 7.52178 3.16415 7.4264 3.16415 7.32695C3.1412 6.96952 3.26005 6.61745 3.49492 6.34706C3.7298 6.07666 4.06178 5.90973 4.4189 5.88244C4.51835 5.88244 4.61374 5.84294 4.68406 5.77261C4.75439 5.70228 4.7939 5.6069 4.7939 5.50744C4.7939 5.40799 4.75439 5.31261 4.68406 5.24228C4.61374 5.17195 4.51835 5.13244 4.4189 5.13244C4.06128 5.10572 3.72863 4.93907 3.4931 4.66865C3.25757 4.39822 3.13816 4.04584 3.16077 3.68795C3.16077 3.58849 3.12126 3.49311 3.05094 3.42278C2.98061 3.35245 2.88523 3.31295 2.78577 3.31295C2.68632 3.31295 2.59093 3.35245 2.52061 3.42278C2.45028 3.49311 2.41077 3.58849 2.41077 3.68795C2.43361 4.04547 2.31463 4.39759 2.07961 4.66798C1.8446 4.93837 1.51249 5.10525 1.15527 5.13244C1.05582 5.13245 0.960435 5.17195 0.890108 5.24228C0.819782 5.31261 0.780273 5.40799 0.780273 5.50744C0.780273 5.6069 0.819782 5.70228 0.890108 5.77261C0.960435 5.84294 1.05582 5.88244 1.15527 5.88244C1.51298 5.90908 1.84577 6.07568 2.08144 6.3461C2.31711 6.61652 2.43666 6.96895 2.41415 7.32695ZM2.78615 4.96445C2.92397 5.17471 3.09805 5.35882 3.30027 5.50819C3.09971 5.65758 2.92717 5.84129 2.79065 6.05082C2.65329 5.84056 2.47972 5.65634 2.27802 5.50669C2.47803 5.35715 2.65005 5.17383 2.78615 4.96445Z" fill="#101828"/>
</g>
</svg>
