<svg width="51" height="51" viewBox="0 0 51 51" fill="none" xmlns="http://www.w3.org/2000/svg">
<g id="Teacher" clip-path="url(#clip0_1_13769)">
<path id="Vector" d="M4.40625 4.71802H13.7812C13.9885 4.71802 14.1872 4.63571 14.3337 4.48919C14.4802 4.34268 14.5625 4.14397 14.5625 3.93677C14.5625 3.72957 14.4802 3.53085 14.3337 3.38434C14.1872 3.23783 13.9885 3.15552 13.7812 3.15552H4.40625C4.19905 3.15552 4.00034 3.23783 3.85382 3.38434C3.70731 3.53085 3.625 3.72957 3.625 3.93677C3.625 4.14397 3.70731 4.34268 3.85382 4.48919C4.00034 4.63571 4.19905 4.71802 4.40625 4.71802ZM4.40625 7.84302H28.625C28.8322 7.84302 29.0309 7.76071 29.1774 7.61419C29.3239 7.46768 29.4062 7.26897 29.4062 7.06177C29.4062 6.85457 29.3239 6.65585 29.1774 6.50934C29.0309 6.36283 28.8322 6.28052 28.625 6.28052H4.40625C4.19905 6.28052 4.00034 6.36283 3.85382 6.50934C3.70731 6.65585 3.625 6.85457 3.625 7.06177C3.625 7.26897 3.70731 7.46768 3.85382 7.61419C4.00034 7.76071 4.19905 7.84302 4.40625 7.84302ZM32.5527 25.0305L32.5508 25.8192V26.593H34.5145C34.4962 26.4636 34.4862 26.3331 34.4844 26.2024V25.0305H32.5527Z" fill="#6C63FF"/>
<path id="Vector_2" d="M48.1562 0.0305176H2.84375C2.22237 0.0312413 1.62665 0.278404 1.18727 0.717785C0.747886 1.15717 0.500724 1.75289 0.5 2.37427L0.5 24.2493C0.500724 24.8706 0.747886 25.4664 1.18727 25.9057C1.62665 26.3451 2.22237 26.5923 2.84375 26.593H11.4375V25.0305H2.84375C2.63664 25.0302 2.43811 24.9478 2.29167 24.8014C2.14522 24.6549 2.06281 24.4564 2.0625 24.2493V2.37427C2.06281 2.16716 2.14522 1.96863 2.29167 1.82218C2.43811 1.67574 2.63664 1.59333 2.84375 1.59302H48.1562C48.3634 1.59333 48.5619 1.67574 48.7083 1.82218C48.8548 1.96863 48.9372 2.16716 48.9375 2.37427V24.2493C48.9372 24.4564 48.8548 24.6549 48.7083 24.8014C48.5619 24.9478 48.3634 25.0302 48.1562 25.0305H48.0898C48.6135 25.3185 49.044 25.75 49.3309 26.2743C49.686 26.0687 49.9809 25.7734 50.1861 25.418C50.3913 25.0627 50.4995 24.6596 50.5 24.2493V2.37427C50.4993 1.75289 50.2521 1.15717 49.8127 0.717785C49.3733 0.278404 48.7776 0.0312413 48.1562 0.0305176Z" fill="#6C63FF"/>
<path id="Vector_3" d="M16.125 24.6399V27.7649H17.6875V24.6399C17.6875 24.4327 17.6052 24.234 17.4587 24.0875C17.3122 23.941 17.1135 23.8586 16.9062 23.8586C16.699 23.8586 16.5003 23.941 16.3538 24.0875C16.2073 24.234 16.125 24.4327 16.125 24.6399ZM4.40625 10.968H17.752C18.0929 10.3813 18.5267 9.85361 19.0363 9.40552H4.40625C4.19905 9.40552 4.00034 9.48783 3.85382 9.63434C3.70731 9.78085 3.625 9.97957 3.625 10.1868C3.625 10.394 3.70731 10.5927 3.85382 10.7392C4.00034 10.8857 4.19905 10.968 4.40625 10.968ZM28.5605 10.968H32.2176L33.0285 9.97544C33.2125 9.7639 33.4188 9.57283 33.6437 9.40552H27.2766C27.7861 9.85364 28.2197 10.3813 28.5605 10.968ZM38.3086 12.511C38.308 12.1741 38.2335 11.8415 38.0904 11.5365C37.9472 11.2316 37.7389 10.9618 37.4801 10.7461C37.0101 10.351 36.4038 10.1563 35.7916 10.204C35.1795 10.2516 34.6106 10.5378 34.2074 11.0008L29.1293 17.218H28.5605C28.2196 17.8048 27.7858 18.3324 27.2762 18.7805H29.5C29.6158 18.7806 29.7302 18.7549 29.8348 18.7053C29.9395 18.6557 30.0318 18.5834 30.1051 18.4938L35.402 12.0079C35.5366 11.8589 35.7242 11.7685 35.9246 11.7561C36.125 11.7437 36.3223 11.8102 36.4742 11.9415C36.559 12.0102 36.6274 12.097 36.6745 12.1955C36.7215 12.294 36.746 12.4018 36.7461 12.511C36.7464 12.6753 36.6873 12.8341 36.5797 12.9583C36.57 12.9691 36.5608 12.9803 36.552 12.9918L29.5871 21.9293C29.4801 22.0665 29.4219 22.2355 29.4219 22.4094V22.42C29.4297 23.2809 29.4297 24.4926 29.4258 25.8118C29.4258 26.4493 29.425 27.1098 29.4242 27.7649H30.9867C30.9875 27.1106 30.9883 26.4508 30.9883 25.8141C30.9918 24.6211 30.9922 23.5137 30.9863 22.6754L37.7723 13.9676C38.1189 13.5615 38.3091 13.0449 38.3086 12.511Z" fill="#6C63FF"/>
<path id="Vector_4" d="M14.5625 21.9055C14.5635 21.077 14.8931 20.2828 15.4789 19.697C16.0648 19.1111 16.859 18.7816 17.6875 18.7805H19.0363C18.5267 18.3324 18.0929 17.8048 17.752 17.218H17.6875C16.4447 17.2194 15.2532 17.7137 14.3744 18.5924C13.4956 19.4712 13.0013 20.6627 13 21.9055V27.7649H14.5625V21.9055ZM23.1562 9.40552C22.2291 9.40552 21.3229 9.68044 20.552 10.1955C19.7812 10.7106 19.1803 11.4427 18.8256 12.2992C18.4708 13.1557 18.378 14.0982 18.5588 15.0075C18.7397 15.9168 19.1861 16.752 19.8417 17.4076C20.4972 18.0631 21.3325 18.5096 22.2418 18.6904C23.1511 18.8713 24.0935 18.7785 24.9501 18.4237C25.8066 18.0689 26.5387 17.4681 27.0538 16.6973C27.5688 15.9264 27.8438 15.0201 27.8438 14.093C27.8424 12.8502 27.3481 11.6587 26.4693 10.7799C25.5905 9.90115 24.399 9.40686 23.1562 9.40552ZM23.1562 17.218C22.5382 17.218 21.934 17.0347 21.4201 16.6914C20.9062 16.348 20.5057 15.8599 20.2691 15.2889C20.0326 14.7179 19.9707 14.0896 20.0913 13.4834C20.2119 12.8772 20.5095 12.3203 20.9465 11.8833C21.3836 11.4463 21.9404 11.1486 22.5466 11.0281C23.1528 10.9075 23.7811 10.9694 24.3521 11.2059C24.9232 11.4424 25.4112 11.843 25.7546 12.3569C26.098 12.8708 26.2812 13.475 26.2812 14.093C26.2802 14.9215 25.9506 15.7158 25.3648 16.3016C24.779 16.8874 23.9847 17.217 23.1562 17.218Z" fill="#6C63FF"/>
<path id="Vector_5" d="M48.9375 29.3274H48.1562V27.7649C48.1562 27.3505 47.9916 26.9531 47.6986 26.66C47.4056 26.367 47.0082 26.2024 46.5938 26.2024H46.2031V24.6399C46.2031 24.2255 46.0385 23.8281 45.7455 23.535C45.4525 23.242 45.055 23.0774 44.6406 23.0774H37.6094C37.195 23.0774 36.7975 23.242 36.5045 23.535C36.2115 23.8281 36.0469 24.2255 36.0469 24.6399V26.2024C36.0469 26.6168 36.2115 27.0142 36.5045 27.3072C36.7975 27.6003 37.195 27.7649 37.6094 27.7649H38V29.3274H2.0625C1.6481 29.3274 1.25067 29.492 0.957646 29.785C0.66462 30.0781 0.5 30.4755 0.5 30.8899L0.5 32.4524C0.5 32.8668 0.66462 33.2642 0.957646 33.5572C1.25067 33.8503 1.6481 34.0149 2.0625 34.0149H2.84375V49.2493C2.84375 49.4565 2.92606 49.6552 3.07257 49.8017C3.21909 49.9482 3.4178 50.0305 3.625 50.0305C3.8322 50.0305 4.03091 49.9482 4.17743 49.8017C4.32394 49.6552 4.40625 49.4565 4.40625 49.2493V34.0149H46.5938V49.2493C46.5938 49.4565 46.6761 49.6552 46.8226 49.8017C46.9691 49.9482 47.1678 50.0305 47.375 50.0305C47.5822 50.0305 47.7809 49.9482 47.9274 49.8017C48.0739 49.6552 48.1562 49.4565 48.1562 49.2493V34.0149H48.9375C49.3519 34.0149 49.7493 33.8503 50.0424 33.5572C50.3354 33.2642 50.5 32.8668 50.5 32.4524V30.8899C50.5 30.4755 50.3354 30.0781 50.0424 29.785C49.7493 29.492 49.3519 29.3274 48.9375 29.3274ZM46.5938 27.7649V29.3274H39.5625V27.7649H46.5938ZM37.6094 26.2024V24.6399H44.6406V26.2024H37.6094ZM48.9375 32.4524H2.0625V30.8899H48.9375V32.4524Z" fill="#6C63FF"/>
</g>
<defs>
<clipPath id="clip0_1_13769">
<rect width="50" height="50" fill="white" transform="translate(0.5 0.0305176)"/>
</clipPath>
</defs>
</svg>
