<svg width="32" height="32" viewBox="0 0 32 32" fill="none" xmlns="http://www.w3.org/2000/svg">
<g id="Time">
<path id="Vector" fill-rule="evenodd" clip-rule="evenodd" d="M15.9998 29.3332C23.3638 29.3332 29.3332 23.3638 29.3332 15.9998C29.3332 8.63584 23.3638 2.6665 15.9998 2.6665C8.63584 2.6665 2.6665 8.63584 2.6665 15.9998C2.6665 23.3638 8.63584 29.3332 15.9998 29.3332ZM17.3332 9.33317C17.3332 8.97955 17.1927 8.64041 16.9426 8.39036C16.6926 8.14031 16.3535 7.99984 15.9998 7.99984C15.6462 7.99984 15.3071 8.14031 15.057 8.39036C14.807 8.64041 14.6665 8.97955 14.6665 9.33317V15.4478C14.6667 16.155 14.9477 16.8332 15.4478 17.3332L19.0572 20.9425C19.3086 21.1854 19.6454 21.3198 19.995 21.3167C20.3446 21.3137 20.6791 21.1735 20.9263 20.9263C21.1735 20.6791 21.3137 20.3446 21.3167 19.995C21.3198 19.6454 21.1854 19.3086 20.9425 19.0572L17.3332 15.4478V9.33317Z" fill="#6C63FF"/>
</g>
</svg>
