<svg width="18" height="15" viewBox="0 0 18 15" fill="none" xmlns="http://www.w3.org/2000/svg">
<g id="Twitter logo" clip-path="url(#clip0_1_13822)">
<path id="Vector" d="M17.9998 2.23542C17.3258 2.51989 16.6108 2.70661 15.8788 2.78939C16.6413 2.35398 17.2268 1.6645 17.5025 0.842985C16.7776 1.25279 15.9845 1.54153 15.1575 1.69672C14.4838 1.01299 13.5241 0.585693 12.4619 0.585693C10.4224 0.585693 8.76891 2.16093 8.76891 4.10378C8.76891 4.37956 8.80161 4.64804 8.86454 4.9056C5.79539 4.75883 3.0743 3.35823 1.25286 1.22969C0.935043 1.7493 0.752934 2.35371 0.752934 2.99838C0.752934 4.21899 1.40494 5.29579 2.39579 5.92672C1.80934 5.90923 1.2358 5.75833 0.723051 5.48663C0.72284 5.50137 0.72284 5.5161 0.72284 5.53091C0.72284 7.23549 1.99578 8.65746 3.68511 8.98067C3.1413 9.12156 2.57088 9.14218 2.01743 9.04095C2.48733 10.4387 3.85118 11.4558 5.46711 11.4843C4.20324 12.4278 2.61087 12.9903 0.880762 12.9903C0.582637 12.9903 0.288731 12.9736 -0.000183105 12.9411C1.63409 13.9393 3.57521 14.5218 5.66068 14.5218C12.4534 14.5218 16.1678 9.16086 16.1678 4.51179C16.1678 4.35919 16.1642 4.20747 16.1571 4.05662C16.88 3.55871 17.5041 2.94199 17.9998 2.23542Z" fill="white"/>
</g>
<defs>
<clipPath id="clip0_1_13822">
<rect width="18" height="14" fill="white" transform="translate(-0.000183105 0.530518)"/>
</clipPath>
</defs>
</svg>
