<svg width="150" height="117" viewBox="0 0 150 117" fill="none" xmlns="http://www.w3.org/2000/svg">
<g id="undraw_creative_experiment_-8-dk3">
<g clip-path="url(#clip0_1_12612)">
<rect y="0.102539" width="150" height="116.604" fill="white"/>
<path id="Vector" d="M78.8502 4.26074H40.6572V46.1499H78.8502V4.26074Z" fill="#F2F2F2"/>
<path id="Vector_2" d="M82.6999 0.256348H44.5068V42.1455H82.6999V0.256348Z" stroke="#3F3D56" stroke-width="2" stroke-miterlimit="10"/>
<path id="Vector_3" d="M48.568 37.4199H46.5088V39.4792H48.568V37.4199Z" fill="#6C63FF"/>
<path id="Vector_4" d="M51.5427 37.4199H49.4834V39.4792H51.5427V37.4199Z" fill="#3F3D56"/>
<path id="Vector_5" d="M54.5173 37.4199H52.458V39.4792H54.5173V37.4199Z" fill="#575A89"/>
<path id="Vector_6" d="M77.6176 38.3145H69.6094V38.6391H77.6176V38.3145Z" fill="#3F3D56"/>
<path id="Vector_7" d="M77.6176 39.2881H69.6094V39.6127H77.6176V39.2881Z" fill="#3F3D56"/>
<path id="Vector_8" d="M77.6176 40.2622H69.6094V40.5869H77.6176V40.2622Z" fill="#3F3D56"/>
<path id="Vector_9" d="M63.6035 7.64893V11.037C65.6138 11.037 67.579 11.6331 69.2505 12.75C70.922 13.8669 72.2248 15.4543 72.9941 17.3116C73.7634 19.1689 73.9647 21.2126 73.5725 23.1842C73.1803 25.1559 72.2122 26.967 70.7907 28.3885L73.1865 30.7843C75.0818 28.8889 76.3726 26.4741 76.8955 23.8452C77.4184 21.2163 77.15 18.4914 76.1243 16.015C75.0985 13.5387 73.3615 11.4221 71.1328 9.93291C68.9041 8.44376 66.2839 7.64893 63.6035 7.64893Z" fill="#3F3D56"/>
<path id="Vector_10" d="M73.1865 30.7839L70.7908 28.3882C69.053 30.1263 66.7442 31.1757 64.292 31.3419C61.8398 31.5082 59.4105 30.7801 57.454 29.2924L55.4033 31.9907C58.0124 33.9737 61.2516 34.9441 64.5212 34.7222C67.7908 34.5003 70.8693 33.1012 73.1865 30.7839Z" fill="#575A89"/>
<path id="Vector_11" d="M53.4399 21.2013C53.4399 18.5056 54.5107 15.9202 56.4169 14.0141C58.3231 12.1079 60.9084 11.037 63.6041 11.037V7.64893C60.7671 7.6489 58.0016 8.53921 55.6974 10.1944C53.3933 11.8495 51.6666 14.1861 50.7609 16.8747C49.8552 19.5632 49.8161 22.4683 50.6491 25.1803C51.4821 27.8922 53.1452 30.2744 55.4039 31.991L57.4546 29.2928C56.206 28.3457 55.1937 27.1223 54.4972 25.7184C53.8006 24.3146 53.4387 22.7684 53.4399 21.2013Z" fill="#6C63FF"/>
<path id="Vector_12" d="M89.0334 88.9473C88.0198 88.9473 87.016 88.7477 86.0795 88.3597C85.143 87.9718 84.2921 87.4033 83.5753 86.6865C82.8585 85.9697 82.2899 85.1188 81.902 84.1823C81.5141 83.2457 81.3145 82.242 81.3145 81.2283V72.2379C81.3145 54.2489 95.8974 39.666 113.886 39.666C131.875 39.666 146.458 54.2489 146.458 72.2379V79.3057C146.458 80.5719 146.209 81.8256 145.724 82.9954C145.24 84.1652 144.53 85.2281 143.634 86.1234C142.739 87.0187 141.676 87.7289 140.506 88.2134C139.336 88.6979 138.083 88.9473 136.817 88.9473" fill="#F2F2F2"/>
<path id="Vector_13" d="M140.051 98.6497V98.3417C142.566 98.3388 144.978 97.3383 146.756 95.5597C148.535 93.781 149.535 91.3694 149.538 88.854V70.3899C149.538 52.5146 134.996 37.9721 117.12 37.9721C99.2451 37.9721 84.7025 52.5146 84.7025 70.3899V90.7767C84.7048 92.7824 85.5026 94.7052 86.9208 96.1234C88.339 97.5417 90.2619 98.3394 92.2675 98.3417V98.6497C90.1802 98.6473 88.1791 97.8171 86.7031 96.3411C85.2271 94.8652 84.3969 92.864 84.3945 90.7767V70.3899C84.3945 52.3448 99.0753 37.6641 117.12 37.6641C135.166 37.6641 149.846 52.3448 149.846 70.3899V88.854C149.843 91.4511 148.81 93.9409 146.974 95.7773C145.138 97.6137 142.648 98.6467 140.051 98.6497Z" fill="#3F3D56"/>
<path id="Vector_14" d="M150 86.7915H84.2402V113.896H150V86.7915Z" fill="#3F3D56"/>
<path id="Vector_15" d="M127.169 58.9314L120.894 63.3931L125.355 69.669L131.631 65.2073L127.169 58.9314Z" fill="#6C63FF"/>
<path id="Vector_16" d="M127.674 57.2498L121.398 61.7114L125.86 67.9873L132.136 63.5257L127.674 57.2498Z" stroke="#3F3D56" stroke-width="2" stroke-miterlimit="10"/>
<path id="Vector_17" d="M115.503 55.9906C117.289 55.9906 118.737 54.5427 118.737 52.7565C118.737 50.9704 117.289 49.5225 115.503 49.5225C113.717 49.5225 112.269 50.9704 112.269 52.7565C112.269 54.5427 113.717 55.9906 115.503 55.9906Z" fill="#6C63FF"/>
<path id="Vector_18" d="M114.579 55.5287C116.365 55.5287 117.813 54.0808 117.813 52.2946C117.813 50.5085 116.365 49.0605 114.579 49.0605C112.793 49.0605 111.345 50.5085 111.345 52.2946C111.345 54.0808 112.793 55.5287 114.579 55.5287Z" stroke="#3F3D56" stroke-width="2" stroke-miterlimit="10"/>
<path id="Vector_19" d="M105.944 65.6807L109.815 67.9086L113.686 70.1366L109.821 72.3748L105.956 74.6129L105.95 70.1468L105.944 65.6807Z" fill="#6C63FF"/>
<path id="Vector_20" d="M105.322 67.3721L109.193 69.6002L113.064 71.8282L109.199 74.0663L105.334 76.3043L105.328 71.8382L105.322 67.3721Z" stroke="#3F3D56" stroke-width="2" stroke-miterlimit="10"/>
<path id="Vector_21" d="M90.1598 58.4273C90.7467 56.3306 91.831 54.4066 93.3206 52.8186C94.8102 51.2307 96.661 50.0257 98.716 49.3061C99.275 49.1139 99.0348 48.221 98.4703 48.4151C96.2627 49.1805 94.273 50.4684 92.6708 52.169C91.0686 53.8696 89.9014 55.9325 89.2688 58.1817C89.1103 58.7557 90.0015 59.0007 90.1598 58.4273Z" fill="#E0E0E0"/>
<path id="Vector_22" d="M88.4072 63.4738C89.0018 63.4738 89.0028 62.5498 88.4072 62.5498C87.8127 62.5498 87.8117 63.4738 88.4072 63.4738Z" fill="#E0E0E0"/>
<path id="Vector_23" d="M50.0281 53.9319L35.6426 49.3672L30.0532 66.9822L44.4387 71.5468L50.0281 53.9319Z" fill="#F2F2F2"/>
<path id="Vector_24" d="M43.4004 55.2044L37.752 53.4121L37.6528 53.7246L43.3013 55.5169L43.4004 55.2044Z" fill="#3F3D56"/>
<path id="Vector_25" d="M45.7897 56.5976L37.5693 53.9893L37.4702 54.3017L45.6905 56.9101L45.7897 56.5976Z" fill="#3F3D56"/>
<path id="Vector_26" d="M42.7754 57.1756L37.127 55.3833L37.0278 55.6958L42.6763 57.4881L42.7754 57.1756Z" fill="#3F3D56"/>
<path id="Vector_27" d="M42.043 59.4832L36.3945 57.6909L36.2954 58.0034L41.9438 59.7957L42.043 59.4832Z" fill="#3F3D56"/>
<path id="Vector_28" d="M45.1647 58.5683L36.9443 55.96L36.8452 56.2724L45.0655 58.8808L45.1647 58.5683Z" fill="#3F3D56"/>
<path id="Vector_29" d="M44.9811 59.1455L36.7607 56.5371L36.6616 56.8496L44.8819 59.458L44.9811 59.1455Z" fill="#3F3D56"/>
<path id="Vector_30" d="M44.7984 59.7222L36.5781 57.1138L36.479 57.4262L44.6993 60.0346L44.7984 59.7222Z" fill="#3F3D56"/>
<path id="Vector_31" d="M38.9086 60.0231L35.9521 59.085L35.6928 59.9022L38.6493 60.8403L38.9086 60.0231Z" fill="#6C63FF"/>
<path id="Vector_32" d="M20.1745 116.707C31.3166 116.707 40.3491 115.535 40.3491 114.089C40.3491 112.643 31.3166 111.471 20.1745 111.471C9.03245 111.471 0 112.643 0 114.089C0 115.535 9.03245 116.707 20.1745 116.707Z" fill="#3F3D56"/>
<path id="Vector_33" d="M10.6448 41.6108L9.97461 43.2025L10.7285 53.506C10.7285 53.506 10.3097 54.0924 10.7285 54.5113C11.1474 54.9301 11.0636 55.0977 11.0636 55.0977C11.0636 55.0977 10.3935 55.0977 10.7285 55.6003C11.0636 56.1029 11.0636 56.3542 11.0636 56.3542L10.8961 56.8568C10.8961 56.8568 11.2311 57.2757 11.2311 57.6107C11.2311 57.9458 13.4091 68.2494 13.4091 68.2494L15.5034 64.1447L14.3306 47.8097L10.6448 41.6108Z" fill="#6C63FF"/>
<path id="Vector_34" d="M32.1496 67.8121C32.1496 67.8121 36.7234 67.6273 38.1816 69.2407C39.6399 70.8542 32.4524 69.687 32.0459 69.2324C31.6394 68.7778 32.1496 67.8121 32.1496 67.8121Z" fill="#FFB9B9"/>
<path id="Vector_35" d="M9.55619 108.458L8.63473 111.474C8.63473 111.474 7.29443 114.406 9.13734 114.825C10.9803 115.244 12.7394 113.652 12.7394 113.652V111.642L13.4096 108.458H9.55619Z" fill="#2F2E41"/>
<path id="Vector_36" d="M24.635 108.458C24.635 108.458 24.2162 114.155 25.1376 114.49C26.0591 114.825 29.3261 114.909 29.4099 114.49C29.4936 114.071 30.4989 113.652 29.7449 113.066C28.991 112.479 28.4884 109.045 28.4884 109.045L24.635 108.458Z" fill="#2F2E41"/>
<path id="Vector_37" d="M16.1739 54.5113V57.0244C16.1739 57.0244 13.4095 62.8045 12.4043 71.9353C11.3991 81.0661 7.96456 108.877 8.80225 109.38C9.63994 109.883 18.687 110.218 18.9383 109.548C19.1896 108.877 19.4409 89.2755 19.4409 89.2755L22.5404 75.4536C22.5404 75.4536 23.1268 80.396 23.6294 81.2337C24.132 82.0714 22.7917 109.296 23.6294 109.715C24.4671 110.134 35.7759 110.888 35.6083 109.548C35.4408 108.207 31.6712 71.8515 31.6712 71.8515C31.6712 71.8515 29.7445 54.6789 29.1581 54.5113C28.5718 54.3438 23.2105 54.1763 22.3728 54.3438C21.5351 54.5113 16.1739 54.5113 16.1739 54.5113Z" fill="#2F2E41"/>
<path id="Vector_38" d="M22.5405 33.7362C25.1775 33.7362 27.3153 31.5984 27.3153 28.9614C27.3153 26.3243 25.1775 24.1865 22.5405 24.1865C19.9034 24.1865 17.7656 26.3243 17.7656 28.9614C17.7656 31.5984 19.9034 33.7362 22.5405 33.7362Z" fill="#FFB9B9"/>
<path id="Vector_39" d="M23.5457 32.9826C23.5457 32.9826 21.1164 36.7522 21.7028 37.7574C22.2892 38.7626 15.5039 36.7522 15.5039 36.7522C15.5039 36.7522 19.6086 31.726 19.5248 31.1397C19.441 30.5533 23.5457 32.9826 23.5457 32.9826Z" fill="#FFB9B9"/>
<path id="Vector_40" d="M28.5723 38.5951C28.5723 38.5951 24.1325 37.1711 23.5462 36.5847C23.17 36.2004 22.8332 35.7795 22.5409 35.3281C22.5409 35.3281 17.1797 34.5742 17.0122 34.5742C16.8447 34.5742 15.5881 36.0821 15.253 36.4171C14.918 36.7522 10.6457 39.014 10.6457 39.6004C10.6457 40.1867 9.97559 43.2024 9.97559 43.2024C9.97559 43.2024 11.4834 46.3019 12.4049 46.972C13.3263 47.6422 13.5777 47.4746 13.6614 48.5636C13.7452 49.6526 14.918 51.4118 14.918 51.4118C14.918 51.4118 15.6719 53.3385 15.5043 53.9249C15.3368 54.5113 14.5829 55.0139 16.342 54.8463C18.1012 54.6788 26.8132 55.1814 26.8132 54.2599C26.8132 53.3385 25.1378 44.5427 25.1378 44.5427L28.5723 38.5951Z" fill="#6C63FF"/>
<path id="Vector_41" d="M26.9803 38.7628L28.5719 38.5952C28.5719 38.5952 29.1583 38.9303 29.2421 42.1973C29.3258 45.4643 29.3258 53.3386 29.9122 54.0087C30.4986 54.6789 32.9279 65.0662 32.9279 65.0662C32.9279 65.0662 33.5981 65.2338 33.5981 65.8202C33.5981 66.4065 34.352 66.9092 34.0169 67.5793C33.6818 68.2495 34.352 68.0819 33.9331 68.5008C33.5143 68.9196 31.5038 69.7573 31.4201 69.2547C31.3363 68.7521 31.6714 68.6683 31.3363 68.5008C31.0012 68.3332 31.0012 68.2495 30.9174 67.6631C30.8337 67.0767 30.0798 66.4903 30.1635 66.239C30.2473 65.9877 26.4777 58.6998 26.4777 58.4485C26.4777 58.1972 26.2264 57.2757 25.8913 57.1082C25.5562 56.9406 25.0536 56.7731 25.3049 56.3542C25.5562 55.9354 24.6348 43.37 24.6348 43.37L26.9803 38.7628Z" fill="#6C63FF"/>
<path id="Vector_42" d="M26.5778 25.9334C25.1136 24.344 22.8142 23.5004 20.7055 23.9731C18.5968 24.4459 16.8212 26.3181 16.6563 28.4728C16.6225 28.9136 16.6506 29.3638 16.5366 29.7909C16.3448 30.5092 15.774 31.0785 15.5727 31.7943C15.4379 32.2737 15.4779 32.7899 15.335 33.2669C15.0711 34.1484 14.2541 34.7232 13.6314 35.4007C13.3793 35.649 13.192 35.9554 13.0861 36.2931C13.0313 36.5925 13.0174 36.898 13.0448 37.2012C13.0711 38.8354 12.4635 40.4162 11.3496 41.6122C12.0046 41.1256 12.7122 40.7142 13.4591 40.3858C13.0889 41.5648 13.4274 42.9597 14.3589 43.7717C15.2905 44.5836 16.7825 44.7098 17.7897 43.9939C18.388 43.5685 18.7767 42.9158 19.1479 42.2824L20.5533 39.8844C20.8075 39.4507 21.0729 39.0043 21.4791 38.7081C21.8019 38.4726 22.1941 38.3474 22.519 38.1149C23.3386 37.5284 23.5587 36.3806 23.4061 35.3844C23.2535 34.3881 22.8055 33.4632 22.5485 32.4886C22.3453 31.7179 22.2816 30.8345 22.7387 30.1815C23.3456 29.3148 24.5928 29.2042 25.4174 28.5412C25.7278 28.2915 25.8665 27.9878 26.0889 27.6754C26.2942 27.3869 26.3465 27.4903 26.6645 27.4771C27.5379 27.4409 26.9014 26.2847 26.5778 25.9334Z" fill="#2F2E41"/>
<path id="Vector_43" d="M22.4075 31.5424C22.6201 31.5424 22.7925 31.1287 22.7925 30.6184C22.7925 30.108 22.6201 29.6943 22.4075 29.6943C22.1948 29.6943 22.0225 30.108 22.0225 30.6184C22.0225 31.1287 22.1948 31.5424 22.4075 31.5424Z" fill="#FFB9B9"/>
<path id="Vector_44" d="M64.8354 97.264C67.5571 97.264 69.7635 95.0576 69.7635 92.3358C69.7635 89.6141 67.5571 87.4077 64.8354 87.4077C62.1136 87.4077 59.9072 89.6141 59.9072 92.3358C59.9072 95.0576 62.1136 97.264 64.8354 97.264Z" fill="#F2F2F2"/>
<path id="Vector_45" d="M15.5541 12.5613C18.2758 12.5613 20.4822 10.3549 20.4822 7.63321C20.4822 4.91148 18.2758 2.70508 15.5541 2.70508C12.8324 2.70508 10.626 4.91148 10.626 7.63321C10.626 10.3549 12.8324 12.5613 15.5541 12.5613Z" fill="#F2F2F2"/>
<path id="Vector_46" d="M118.737 24.1116C121.458 24.1116 123.665 21.9052 123.665 19.1835C123.665 16.4618 121.458 14.2554 118.737 14.2554C116.015 14.2554 113.809 16.4618 113.809 19.1835C113.809 21.9052 116.015 24.1116 118.737 24.1116Z" fill="#F2F2F2"/>
</g>
<rect x="0.5" y="0.602539" width="149" height="115.604" stroke="#D0D5DD"/>
</g>
<defs>
<clipPath id="clip0_1_12612">
<rect y="0.102539" width="150" height="116.604" fill="white"/>
</clipPath>
</defs>
</svg>
