<svg width="101" height="64" viewBox="0 0 101 64" fill="none" xmlns="http://www.w3.org/2000/svg">
<g id="undraw_site_stats_re_ejgy" clip-path="url(#clip0_469_3598)">
<path id="Vector" d="M96.4041 61.404C95.958 62.0051 95.4051 62.5189 94.773 62.9198C94.6386 63.005 94.5006 63.0854 94.3602 63.1598H91.056C91.0956 63.0806 91.134 63.0002 91.1713 62.9198C92.1957 60.758 92.517 58.3295 92.0899 55.9756C91.6627 53.6218 90.5087 51.4609 88.79 49.7969C90.7872 50.4138 92.6331 51.6164 93.8405 53.3218C94.4271 54.1524 94.8444 55.0904 95.0683 56.0823C95.2678 54.0986 94.9507 52.097 94.1477 50.2721C95.7692 51.5912 97.0318 53.3975 97.5131 55.4306C97.9943 57.4649 97.6451 59.7225 96.4041 61.404Z" fill="#F0F0F0"/>
<path id="Rectangle 62" d="M70.54 1.93359H0.530273V35.1544H70.54V1.93359Z" fill="#E6E6E6"/>
<path id="Rectangle 75" d="M68.5382 4.7832H2.53223V32.5004H68.5382V4.7832Z" fill="#6C63FF"/>
<path id="Rectangle 80" d="M70.5098 0.0146484H0.5V2.98887H70.5098V0.0146484Z" fill="#2F2E41"/>
<path id="Ellipse 90" d="M2.71044 1.94139C3.01489 1.94139 3.2617 1.69458 3.2617 1.39013C3.2617 1.08568 3.01489 0.838867 2.71044 0.838867C2.40599 0.838867 2.15918 1.08568 2.15918 1.39013C2.15918 1.69458 2.40599 1.94139 2.71044 1.94139Z" fill="#6C63FF"/>
<path id="Ellipse 91" d="M4.80224 1.94139C5.10669 1.94139 5.3535 1.69458 5.3535 1.39013C5.3535 1.08568 5.10669 0.838867 4.80224 0.838867C4.49778 0.838867 4.25098 1.08568 4.25098 1.39013C4.25098 1.69458 4.49778 1.94139 4.80224 1.94139Z" fill="#6C63FF"/>
<path id="Ellipse 92" d="M6.89501 1.94139C7.19946 1.94139 7.44627 1.69458 7.44627 1.39013C7.44627 1.08568 7.19946 0.838867 6.89501 0.838867C6.59056 0.838867 6.34375 1.08568 6.34375 1.39013C6.34375 1.69458 6.59056 1.94139 6.89501 1.94139Z" fill="#6C63FF"/>
<path id="Vector_2" d="M52.4116 10.5713H18.7131C18.4673 10.5713 18.2315 10.669 18.0576 10.8428C17.8838 11.0166 17.7861 11.2524 17.7861 11.4983C17.7861 11.7441 17.8838 11.9799 18.0576 12.1537C18.2315 12.3276 18.4673 12.4253 18.7131 12.4253H52.4116C52.6575 12.4253 52.8933 12.3276 53.0671 12.1537C53.2409 11.9799 53.3386 11.7441 53.3386 11.4983C53.3386 11.2524 53.2409 11.0166 53.0671 10.8428C52.8933 10.669 52.6575 10.5713 52.4116 10.5713Z" fill="#E4E4E4"/>
<path id="Vector_3" d="M52.4116 17.7148H18.7131C18.4673 17.7148 18.2315 17.8125 18.0576 17.9863C17.8838 18.1602 17.7861 18.396 17.7861 18.6418C17.7861 18.8877 17.8838 19.1235 18.0576 19.2973C18.2315 19.4711 18.4673 19.5688 18.7131 19.5688H52.4116C52.6573 19.5685 52.8928 19.4707 53.0664 19.2969C53.24 19.1231 53.3376 18.8875 53.3376 18.6418C53.3376 18.3962 53.24 18.1605 53.0664 17.9867C52.8928 17.8129 52.6573 17.7151 52.4116 17.7148Z" fill="#E4E4E4"/>
<path id="Vector_4" d="M52.4116 24.8574H18.7131C18.4673 24.8574 18.2315 24.9551 18.0576 25.1289C17.8838 25.3028 17.7861 25.5385 17.7861 25.7844C17.7861 26.0303 17.8838 26.266 18.0576 26.4399C18.2315 26.6137 18.4673 26.7114 18.7131 26.7114H52.4116C52.6575 26.7114 52.8933 26.6137 53.0671 26.4399C53.2409 26.266 53.3386 26.0303 53.3386 25.7844C53.3386 25.5385 53.2409 25.3028 53.0671 25.1289C52.8933 24.9551 52.6575 24.8574 52.4116 24.8574Z" fill="#E4E4E4"/>
<path id="Vector_5" d="M36.2168 12.4796H18.7455C18.4924 12.4833 18.2473 12.3909 18.0596 12.2211C17.8719 12.0513 17.7555 11.8166 17.7339 11.5644C17.7244 11.4301 17.7428 11.2953 17.788 11.1685C17.8333 11.0417 17.9043 10.9256 17.9967 10.8277C18.0886 10.7297 18.1996 10.6516 18.3228 10.5981C18.446 10.5446 18.5789 10.5169 18.7132 10.5166H34.3083C34.8143 10.5172 35.2994 10.7184 35.6572 11.0762C36.015 11.434 36.2162 11.9191 36.2168 12.4251V12.4796Z" fill="#2F2E41"/>
<path id="Vector_6" d="M45.2685 19.6232H18.7455C18.4924 19.6268 18.2473 19.5345 18.0596 19.3646C17.8719 19.1948 17.7555 18.9602 17.7339 18.708C17.7244 18.5737 17.7428 18.4389 17.788 18.3121C17.8333 18.1852 17.9043 18.0692 17.9967 17.9712C18.0886 17.8733 18.1996 17.7951 18.3228 17.7416C18.446 17.6881 18.5789 17.6604 18.7132 17.6602H43.36C43.866 17.6607 44.3511 17.862 44.7089 18.2198C45.0667 18.5776 45.2679 19.0627 45.2685 19.5687V19.6232Z" fill="#2F2E41"/>
<path id="Vector_7" d="M41.5606 26.7658H18.7455C18.4924 26.7694 18.2473 26.677 18.0596 26.5072C17.8719 26.3374 17.7555 26.1027 17.7339 25.8505C17.7244 25.7162 17.7428 25.5814 17.788 25.4546C17.8333 25.3278 17.9043 25.2118 17.9967 25.1138C18.0886 25.0159 18.1996 24.9377 18.3228 24.8842C18.446 24.8307 18.5789 24.803 18.7132 24.8027H39.6521C40.1581 24.8033 40.6432 25.0046 41.001 25.3624C41.3588 25.7201 41.56 26.2052 41.5606 26.7112V26.7658Z" fill="#2F2E41"/>
<path id="Vector_8" d="M69.8539 27.0449C69.9285 27.1873 70.0333 27.3116 70.161 27.409C70.2888 27.5065 70.4364 27.5748 70.5934 27.6091C70.7504 27.6434 70.913 27.6428 71.0697 27.6074C71.2265 27.5721 71.3736 27.5028 71.5007 27.4044L74.7722 29.5388L74.7622 27.509L71.6571 25.7933C71.4777 25.5907 71.2302 25.4611 70.9616 25.4288C70.693 25.3965 70.4218 25.4639 70.1996 25.6182C69.9773 25.7725 69.8194 26.0029 69.7557 26.2659C69.692 26.5288 69.7269 26.806 69.8539 27.0449Z" fill="#FFB6B6"/>
<path id="Vector_9" d="M86.2705 61.7487H84.867L84.1992 56.335L86.2708 56.3351L86.2705 61.7487Z" fill="#FFB6B6"/>
<path id="Vector_10" d="M86.6282 63.1089L82.1025 63.1087V63.0515C82.1026 62.5843 82.2882 62.1363 82.6185 61.806C82.9488 61.4757 83.3969 61.2901 83.864 61.29L86.6282 61.2901L86.6282 63.1089Z" fill="#2F2E41"/>
<path id="Vector_11" d="M79.327 61.7487H77.9235L77.2559 56.335L79.3273 56.3351L79.327 61.7487Z" fill="#FFB6B6"/>
<path id="Vector_12" d="M79.6848 63.1089L75.1592 63.1087V63.0515C75.1592 62.5843 75.3448 62.1363 75.6751 61.806C76.0055 61.4757 76.4535 61.2901 76.9207 61.29L79.6849 61.2901L79.6848 63.1089Z" fill="#2F2E41"/>
<path id="Vector_13" d="M77.7072 34.123L76.3086 48.0787L77.0079 60.1247H79.7116L80.2581 48.7936L82.3844 42.5975L83.6221 52.1459V59.9203L86.698 60.0626L87.7188 41.0275C87.7188 41.0275 88.0656 35.7034 87.3736 35.0511C86.6817 34.3987 77.7072 34.123 77.7072 34.123Z" fill="#2F2E41"/>
<path id="Vector_14" d="M89.6312 21.5298L86.8046 20.4657L86.3071 19.457L82.7536 19.5086L81.9485 20.3175L79.1813 21.2239L77.4219 34.7034C77.4219 34.7034 82.8376 38.574 87.6448 35.8997L89.6312 21.5298Z" fill="#3F3D56"/>
<path id="Vector_15" d="M72.3311 28.3483L76.9822 31.0828L80.8577 25.8988V22.6471C80.858 22.3466 80.7691 22.0527 80.6024 21.8027C80.4486 21.5717 80.2347 21.387 79.9837 21.2686C79.7327 21.1503 79.4541 21.1027 79.178 21.131C78.9019 21.1594 78.6388 21.2625 78.4171 21.4294C78.1953 21.5963 78.0234 21.8206 77.9198 22.0781L75.9071 27.0789L73.0523 26.2354L72.3311 28.3483Z" fill="#3F3D56"/>
<path id="Vector_16" d="M85.8467 35.6405C85.875 35.4823 85.9376 35.3323 86.0302 35.2009C86.1228 35.0696 86.243 34.9601 86.3824 34.8802C86.5219 34.8004 86.6772 34.7521 86.8373 34.7387C86.9974 34.7253 87.1586 34.7472 87.3093 34.8029L89.7884 31.7842L90.3888 33.7233L87.9425 36.2926C87.8323 36.5396 87.6352 36.7377 87.3887 36.8492C87.1422 36.9606 86.8633 36.9778 86.605 36.8974C86.3466 36.8171 86.1268 36.6447 85.987 36.4131C85.8472 36.1814 85.7973 35.9065 85.8467 35.6405Z" fill="#FFB6B6"/>
<path id="Vector_17" d="M89.5443 35.1648L87.9777 33.5981L90.5649 28.9622L86.8125 24.7563L87.0292 23.0595C87.079 22.6689 87.2355 22.2995 87.4814 21.9919C87.6952 21.7245 87.97 21.5121 88.2827 21.3726C88.5954 21.2331 88.937 21.1705 89.2789 21.19C89.6208 21.2096 89.953 21.3107 90.2478 21.4849C90.5426 21.6591 90.7913 21.9014 90.9733 22.1915L93.9072 28.7152L93.8926 28.7369L89.5443 35.1648Z" fill="#3F3D56"/>
<path id="Vector_18" d="M87.133 15.9553C87.0245 16.7465 86.6064 17.4624 85.9705 17.9455C85.3346 18.4286 84.5328 18.6395 83.7415 18.5318C82.9502 18.4241 82.2339 18.0066 81.7503 17.3711C81.2666 16.7356 81.055 15.9341 81.1619 15.1426L81.1677 15.0999C81.2926 14.3191 81.7193 13.6187 82.3559 13.1497C82.9926 12.6807 83.788 12.4808 84.5707 12.593C85.3534 12.7053 86.0606 13.1207 86.5398 13.7497C87.019 14.3786 87.2317 15.1708 87.132 15.9552L87.133 15.9553Z" fill="#FFB6B6"/>
<path id="Vector_19" d="M86.3659 17.5072C86.5206 17.1929 86.6796 16.8554 86.6361 16.5078C86.5926 16.1602 86.2517 15.8279 85.917 15.9312C85.7168 15.993 85.5655 16.1907 85.3562 16.2008C85.0683 16.2147 84.9032 15.8852 84.8136 15.6112L84.4487 14.4955C84.0982 14.7686 83.6917 14.961 83.2583 15.059C82.8249 15.1569 82.3752 15.158 81.9413 15.0621C81.6024 14.9846 81.2601 14.8335 81.0613 14.5484C80.8625 14.2632 80.8637 13.8208 81.1364 13.6052C81.2701 13.4994 81.448 13.4593 81.5758 13.3465C81.655 13.2765 81.7096 13.1828 81.7315 13.0794C81.7534 12.9759 81.7414 12.8682 81.6973 12.7721C81.6532 12.676 81.5794 12.5966 81.4867 12.5458C81.394 12.4949 81.2874 12.4753 81.1826 12.4897L82.1016 12.3748L81.8278 11.8796C81.9319 11.9505 82.0496 11.9988 82.1734 12.0215C82.2973 12.0442 82.4245 12.0408 82.5469 12.0115C82.7941 11.967 83.027 11.8652 83.2689 11.7973C83.8552 11.6476 84.4743 11.6934 85.0322 11.9276C85.5901 12.1619 86.0563 12.5719 86.3599 13.0953C86.5861 13.0198 86.8298 13.0148 87.0589 13.0809C87.2879 13.1471 87.4915 13.2812 87.6426 13.4657C87.8886 13.7779 87.9555 14.1946 87.965 14.592C87.9829 15.3755 87.812 16.1519 87.4669 16.8556C87.3679 17.0791 87.2257 17.2808 87.0484 17.4491C86.9592 17.5326 86.8528 17.5955 86.7366 17.6335C86.6205 17.6715 86.4975 17.6836 86.3761 17.669" fill="#2F2E41"/>
<path id="Vector_20" d="M100.317 63.3958H24.0511C24.0097 63.3967 23.969 63.3838 23.9356 63.3592C23.9022 63.3346 23.8779 63.2996 23.8664 63.2597C23.8593 63.2326 23.8584 63.2042 23.864 63.1766C23.8695 63.1491 23.8813 63.1232 23.8985 63.101C23.9156 63.0787 23.9376 63.0607 23.9628 63.0483C23.9879 63.0359 24.0156 63.0294 24.0437 63.0294H100.302C100.346 63.0279 100.389 63.0412 100.424 63.0672C100.459 63.0932 100.485 63.1304 100.496 63.1727C100.502 63.1995 100.502 63.2273 100.496 63.254C100.49 63.2807 100.477 63.3057 100.46 63.3271C100.443 63.3485 100.421 63.3658 100.397 63.3777C100.372 63.3896 100.345 63.3958 100.317 63.3958Z" fill="#CCCCCC"/>
</g>
<defs>
<clipPath id="clip0_469_3598">
<rect width="100" height="63.3812" fill="white" transform="translate(0.5 0.0146484)"/>
</clipPath>
</defs>
</svg>
