<svg width="100" height="85" viewBox="0 0 100 85" fill="none" xmlns="http://www.w3.org/2000/svg">
<g id="undraw_online_articles_re_yrkj" clip-path="url(#clip0_469_3520)">
<path id="Vector" d="M82.9167 68.4468L49.7402 53.3011L66.8233 15.8809L99.9998 31.0266L82.9167 68.4468Z" fill="#6C63FF"/>
<path id="Vector_2" d="M87.9704 46.7074L62.8549 35.2416C62.8076 35.22 62.7708 35.1805 62.7526 35.1318C62.7344 35.0831 62.7363 35.0291 62.7579 34.9818C62.7795 34.9345 62.819 34.8977 62.8678 34.8796C62.9165 34.8614 62.9704 34.8633 63.0177 34.8849L88.1333 46.3506C88.1806 46.3722 88.2174 46.4117 88.2355 46.4604C88.2537 46.5092 88.2518 46.5631 88.2302 46.6104C88.2086 46.6577 88.1691 46.6945 88.1204 46.7127C88.0717 46.7309 88.0177 46.7289 87.9704 46.7074Z" fill="white"/>
<path id="Vector_3" d="M89.3679 43.6488L64.2523 32.183C64.2289 32.1723 64.2078 32.1571 64.1903 32.1383C64.1727 32.1195 64.1591 32.0973 64.1501 32.0732C64.1411 32.0491 64.1369 32.0234 64.1378 31.9977C64.1387 31.972 64.1447 31.9467 64.1554 31.9232C64.1661 31.8998 64.1813 31.8787 64.2001 31.8612C64.219 31.8436 64.2411 31.83 64.2652 31.821C64.2894 31.812 64.315 31.8078 64.3407 31.8087C64.3665 31.8096 64.3918 31.8156 64.4152 31.8263L89.5307 43.292C89.5542 43.3027 89.5752 43.3179 89.5928 43.3368C89.6103 43.3556 89.624 43.3777 89.633 43.4018C89.642 43.426 89.6462 43.4516 89.6453 43.4774C89.6443 43.5031 89.6384 43.5284 89.6277 43.5518C89.617 43.5752 89.6018 43.5963 89.5829 43.6139C89.5641 43.6314 89.542 43.6451 89.5178 43.6541C89.4937 43.6631 89.4681 43.6673 89.4423 43.6663C89.4166 43.6654 89.3913 43.6594 89.3679 43.6488Z" fill="white"/>
<path id="Vector_4" d="M90.7644 40.5892L65.6488 29.1235C65.6254 29.1128 65.6043 29.0976 65.5868 29.0787C65.5692 29.0599 65.5556 29.0378 65.5466 29.0136C65.5375 28.9895 65.5334 28.9639 65.5343 28.9381C65.5352 28.9124 65.5412 28.8871 65.5519 28.8637C65.5626 28.8402 65.5778 28.8192 65.5966 28.8016C65.6155 28.7841 65.6376 28.7704 65.6617 28.7614C65.6858 28.7524 65.7115 28.7482 65.7372 28.7491C65.763 28.7501 65.7883 28.756 65.8117 28.7667L90.9272 40.2324C90.9744 40.2541 91.0111 40.2936 91.0292 40.3423C91.0473 40.391 91.0454 40.4448 91.0238 40.4921C91.0022 40.5393 90.9628 40.5761 90.9142 40.5943C90.8655 40.6125 90.8116 40.6107 90.7644 40.5892Z" fill="white"/>
<path id="Vector_5" d="M92.1608 37.5296L67.0453 26.0639C67.0219 26.0532 67.0008 26.038 66.9833 26.0192C66.9657 26.0003 66.952 25.9782 66.943 25.9541C66.934 25.93 66.9299 25.9043 66.9308 25.8786C66.9317 25.8528 66.9377 25.8275 66.9484 25.8041C66.9591 25.7807 66.9743 25.7596 66.9931 25.742C67.012 25.7245 67.0341 25.7108 67.0582 25.7018C67.0823 25.6928 67.108 25.6887 67.1337 25.6896C67.1594 25.6905 67.1847 25.6965 67.2082 25.7072L92.3237 37.1729C92.3471 37.1836 92.3682 37.1988 92.3858 37.2176C92.4033 37.2365 92.417 37.2586 92.426 37.2827C92.435 37.3068 92.4391 37.3325 92.4382 37.3582C92.4373 37.384 92.4313 37.4093 92.4206 37.4327C92.4099 37.4561 92.3947 37.4772 92.3759 37.4947C92.3571 37.5123 92.3349 37.526 92.3108 37.535C92.2867 37.544 92.261 37.5481 92.2353 37.5472C92.2096 37.5463 92.1843 37.5403 92.1608 37.5296Z" fill="white"/>
<path id="Vector_6" d="M86.7087 49.472L61.5932 38.0063C61.5697 37.9956 61.5487 37.9804 61.5311 37.9615C61.5136 37.9427 61.4999 37.9206 61.4909 37.8965C61.4819 37.8723 61.4777 37.8467 61.4786 37.8209C61.4796 37.7952 61.4855 37.7699 61.4962 37.7465C61.5069 37.7231 61.5221 37.702 61.541 37.6844C61.5598 37.6669 61.5819 37.6532 61.606 37.6442C61.6302 37.6352 61.6558 37.631 61.6816 37.632C61.7073 37.6329 61.7326 37.6389 61.756 37.6495L86.8715 49.1153C86.9189 49.1369 86.9556 49.1764 86.9738 49.2251C86.992 49.2738 86.9901 49.3278 86.9685 49.3751C86.9469 49.4224 86.9074 49.4592 86.8587 49.4773C86.8099 49.4955 86.756 49.4936 86.7087 49.472Z" fill="white"/>
<path id="Vector_7" d="M90.903 33.0419L71.2846 24.0857C71.1742 24.0382 71.0851 23.9517 71.0343 23.8428C70.9834 23.7339 70.9744 23.61 71.0089 23.4949C71.03 23.4323 71.064 23.3748 71.1087 23.3262C71.1534 23.2776 71.2078 23.2389 71.2684 23.2127C71.329 23.1864 71.3945 23.1732 71.4605 23.1739C71.5266 23.1745 71.5917 23.189 71.6518 23.2164L91.2643 32.1699C91.3767 32.2177 91.4674 32.3054 91.519 32.4161C91.5707 32.5268 91.5795 32.6527 91.5438 32.7695C91.522 32.8313 91.4876 32.8879 91.4428 32.9356C91.398 32.9834 91.3437 33.0213 91.2834 33.0469C91.2231 33.0725 91.1582 33.0853 91.0927 33.0845C91.0272 33.0836 90.9626 33.0691 90.903 33.0419Z" fill="white"/>
<path id="Vector_8" d="M15.416 31.0266L48.5925 15.8809L65.6756 53.3011L32.4991 68.4468L15.416 31.0266Z" fill="#6C63FF"/>
<path id="Vector_9" d="M27.4455 46.7074L52.561 35.2416C52.5844 35.2309 52.6055 35.2157 52.6231 35.1969C52.6406 35.1781 52.6543 35.1559 52.6633 35.1318C52.6723 35.1077 52.6764 35.082 52.6755 35.0563C52.6746 35.0306 52.6686 35.0053 52.6579 34.9818C52.6472 34.9584 52.632 34.9373 52.6132 34.9198C52.5944 34.9022 52.5722 34.8886 52.5481 34.8796C52.524 34.8706 52.4983 34.8664 52.4726 34.8673C52.4469 34.8682 52.4216 34.8742 52.3981 34.8849L27.2826 46.3506C27.2592 46.3613 27.2381 46.3765 27.2206 46.3954C27.203 46.4142 27.1893 46.4363 27.1803 46.4604C27.1713 46.4846 27.1672 46.5102 27.1681 46.536C27.169 46.5617 27.175 46.587 27.1857 46.6104C27.1964 46.6338 27.2116 46.6549 27.2304 46.6725C27.2493 46.69 27.2714 46.7037 27.2955 46.7127C27.3196 46.7217 27.3453 46.7258 27.371 46.7249C27.3967 46.724 27.422 46.718 27.4455 46.7074Z" fill="white"/>
<path id="Vector_10" d="M26.049 43.6488L51.1645 32.183C51.2118 32.1614 51.2486 32.1219 51.2668 32.0732C51.285 32.0245 51.2831 31.9705 51.2615 31.9232C51.2399 31.8759 51.2004 31.8391 51.1516 31.821C51.1029 31.8028 51.049 31.8047 51.0017 31.8263L25.8861 43.292C25.8627 43.3027 25.8416 43.3179 25.8241 43.3368C25.8065 43.3556 25.7929 43.3777 25.7839 43.4018C25.7749 43.426 25.7707 43.4516 25.7716 43.4774C25.7725 43.5031 25.7785 43.5284 25.7892 43.5518C25.7999 43.5752 25.8151 43.5963 25.8339 43.6139C25.8528 43.6314 25.8749 43.6451 25.899 43.6541C25.9231 43.6631 25.9488 43.6673 25.9745 43.6663C26.0003 43.6654 26.0256 43.6594 26.049 43.6488Z" fill="white"/>
<path id="Vector_11" d="M24.6523 40.5892L49.7678 29.1235C49.8151 29.1019 49.8519 29.0624 49.8701 29.0136C49.8883 28.9649 49.8864 28.911 49.8648 28.8637C49.8432 28.8164 49.8037 28.7796 49.755 28.7614C49.7062 28.7432 49.6523 28.7451 49.605 28.7667L24.4895 40.2325C24.4422 40.2541 24.4055 40.2936 24.3873 40.3423C24.3692 40.391 24.3711 40.4449 24.3927 40.4922C24.4143 40.5394 24.4538 40.5762 24.5024 40.5944C24.5511 40.6126 24.605 40.6107 24.6523 40.5892Z" fill="white"/>
<path id="Vector_12" d="M23.255 37.5296L48.3706 26.0639C48.394 26.0532 48.4151 26.038 48.4326 26.0192C48.4502 26.0003 48.4639 25.9782 48.4729 25.9541C48.4819 25.93 48.486 25.9043 48.4851 25.8786C48.4842 25.8528 48.4782 25.8275 48.4675 25.8041C48.4568 25.7807 48.4416 25.7596 48.4228 25.742C48.4039 25.7245 48.3818 25.7108 48.3577 25.7018C48.3336 25.6928 48.3079 25.6887 48.2822 25.6896C48.2564 25.6905 48.2311 25.6965 48.2077 25.7072L23.0922 37.1729C23.0449 37.1945 23.0081 37.234 22.9899 37.2827C22.9717 37.3314 22.9737 37.3854 22.9952 37.4327C23.0168 37.48 23.0563 37.5168 23.1051 37.535C23.1538 37.5531 23.2077 37.5512 23.255 37.5296Z" fill="white"/>
<path id="Vector_13" d="M28.7072 49.472L53.8227 38.0063C53.87 37.9847 53.9068 37.9452 53.925 37.8965C53.9432 37.8477 53.9413 37.7938 53.9197 37.7465C53.8981 37.6992 53.8586 37.6624 53.8098 37.6442C53.7611 37.626 53.7072 37.6279 53.6599 37.6495L28.5443 49.1153C28.5209 49.1259 28.4998 49.1412 28.4823 49.16C28.4647 49.1788 28.4511 49.201 28.4421 49.2251C28.4331 49.2492 28.4289 49.2749 28.4298 49.3006C28.4307 49.3263 28.4367 49.3516 28.4474 49.3751C28.4581 49.3985 28.4733 49.4196 28.4921 49.4371C28.511 49.4547 28.5331 49.4683 28.5572 49.4773C28.5813 49.4863 28.607 49.4905 28.6327 49.4896C28.6585 49.4887 28.6838 49.4827 28.7072 49.472Z" fill="white"/>
<path id="Vector_14" d="M24.513 33.0419L44.1314 24.0857C44.2418 24.0382 44.3309 23.9517 44.3817 23.8428C44.4325 23.7339 44.4415 23.61 44.4071 23.4949C44.386 23.4323 44.352 23.3748 44.3073 23.3262C44.2625 23.2776 44.2081 23.2389 44.1475 23.2127C44.0869 23.1864 44.0215 23.1732 43.9554 23.1739C43.8894 23.1745 43.8242 23.189 43.7641 23.2164L24.1517 32.1699C24.0393 32.2177 23.9485 32.3054 23.8969 32.4161C23.8453 32.5268 23.8365 32.6527 23.8721 32.7695C23.8939 32.8313 23.9283 32.8879 23.9731 32.9356C24.018 32.9834 24.0723 33.0213 24.1325 33.0469C24.1928 33.0725 24.2578 33.0853 24.3233 33.0845C24.3888 33.0836 24.4534 33.0691 24.513 33.0419Z" fill="white"/>
<path id="Vector_15" d="M3.31683 75.2114C3.5263 71.9667 5.33416 68.6748 8.34376 67.4443C7.32902 70.8314 7.54505 74.4683 8.95363 77.7114C9.50139 78.9602 10.2407 80.2921 9.87301 81.6053C9.64427 82.4223 9.00481 83.075 8.27213 83.5029C7.5394 83.9307 6.71184 84.163 5.89455 84.3911L5.7396 84.5355C4.24925 81.6457 3.10737 78.4561 3.31683 75.2114Z" fill="#F0F0F0"/>
<path id="Vector_16" d="M8.37768 67.5033C6.70774 69.6138 5.74524 72.1968 5.6269 74.8854C5.59115 75.4638 5.64679 76.0442 5.79176 76.6052C5.95065 77.1472 6.25176 77.6367 6.66381 78.0229C7.04078 78.3907 7.46897 78.7233 7.74996 79.1764C7.89035 79.4104 7.97967 79.6715 8.01208 79.9425C8.04449 80.2135 8.01926 80.4883 7.93802 80.7488C7.7525 81.4033 7.34287 81.9521 6.92364 82.4749C6.45817 83.0553 5.96549 83.6508 5.79706 84.3936C5.77666 84.4836 5.63819 84.4467 5.65856 84.3568C5.9516 83.0644 7.14219 82.2695 7.6625 81.0902C7.90529 80.5399 7.98372 79.9131 7.69296 79.3647C7.43871 78.8851 6.99745 78.5418 6.61254 78.1726C6.20505 77.8017 5.89457 77.3367 5.70822 76.8182C5.53514 76.2664 5.45724 75.6891 5.47785 75.1111C5.50347 73.8092 5.73365 72.5194 6.15995 71.2889C6.63868 69.8819 7.35458 68.5672 8.27666 67.4016C8.33376 67.3295 8.43441 67.4316 8.37768 67.5033Z" fill="white"/>
<path id="Vector_17" d="M5.61435 74.0175C5.16594 73.9364 4.76096 73.6986 4.47174 73.3465C4.18251 72.9943 4.02786 72.5509 4.03542 72.0953C4.0359 72.0767 4.04357 72.059 4.05682 72.046C4.07006 72.0329 4.08786 72.0256 4.10644 72.0254C4.12502 72.0252 4.14295 72.0323 4.15644 72.0451C4.16993 72.0578 4.17793 72.0754 4.17875 72.0939C4.17093 72.5182 4.31503 72.9312 4.58503 73.2586C4.85503 73.5859 5.23314 73.806 5.65114 73.879C5.74195 73.895 5.70464 74.0334 5.61435 74.0175Z" fill="white"/>
<path id="Vector_18" d="M6.44754 77.8624C7.21763 77.3384 7.7619 76.5433 7.97182 75.6358C7.99254 75.5458 8.13102 75.5827 8.11032 75.6725C7.89011 76.6165 7.32203 77.4428 6.51945 77.9864C6.44293 78.0381 6.37142 77.9139 6.44754 77.8624Z" fill="white"/>
<path id="Vector_19" d="M6.77901 70.0098C6.94597 70.0773 7.12709 70.1023 7.3061 70.0826C7.48511 70.0628 7.65641 69.9989 7.80461 69.8965C7.88045 69.8438 7.95187 69.9681 7.87652 70.0205C7.71226 70.1328 7.52299 70.2032 7.32526 70.2254C7.12753 70.2477 6.92735 70.2212 6.74222 70.1483C6.72419 70.1429 6.7089 70.1308 6.69946 70.1145C6.69001 70.0983 6.68712 70.079 6.69136 70.0606C6.69633 70.0423 6.70832 70.0267 6.72473 70.0172C6.74114 70.0077 6.76065 70.005 6.77901 70.0098Z" fill="white"/>
<path id="Vector_20" d="M18.0481 72.6418C18.0016 72.6761 17.9552 72.7104 17.9088 72.7458C17.2871 73.2096 16.7042 73.7231 16.1656 74.2813C16.1233 74.3238 16.0811 74.3675 16.0401 74.4111C14.757 75.7698 13.7373 77.3548 13.0328 79.0857C12.7531 79.7747 12.5263 80.484 12.3542 81.2074C12.1166 82.2065 11.9385 83.3087 11.4006 84.1463C11.3454 84.2344 11.2849 84.3189 11.2193 84.3994L5.9276 84.7134C5.91521 84.708 5.90284 84.7039 5.8904 84.6986L5.67969 84.7208C5.68596 84.6829 5.69327 84.6437 5.69954 84.6057C5.70309 84.5837 5.70781 84.5616 5.71136 84.5396C5.71409 84.5249 5.71689 84.5102 5.71852 84.4968C5.71941 84.4919 5.72036 84.487 5.72132 84.4833C5.72295 84.4699 5.7259 84.4576 5.72759 84.4454C5.76789 84.2261 5.80979 84.0067 5.85331 83.7873C5.85324 83.7861 5.85324 83.7861 5.85434 83.7848C6.19018 82.1135 6.6685 80.4555 7.38326 78.9229C7.40478 78.8768 7.42617 78.8295 7.45011 78.7833C7.77612 78.0942 8.1579 77.4329 8.59165 76.8061C8.83026 76.4636 9.08605 76.1334 9.35804 75.8168C10.0624 75.0001 10.8909 74.2992 11.813 73.7399C13.6515 72.6252 15.826 72.1109 17.8907 72.6027C17.9435 72.6153 17.9952 72.628 18.0481 72.6418Z" fill="#F0F0F0"/>
<path id="Vector_21" d="M18.0402 72.71C15.4362 73.3897 13.1125 74.8726 11.3993 76.9481C11.0225 77.3883 10.7175 77.8852 10.4955 78.4205C10.296 78.9488 10.2417 79.521 10.3382 80.0774C10.4177 80.5981 10.5594 81.1215 10.511 81.6524C10.4821 81.9238 10.3963 82.186 10.259 82.4219C10.1217 82.6578 9.93612 82.862 9.71439 83.0211C9.17221 83.432 8.51474 83.6235 7.86528 83.7885C7.14417 83.9717 6.39227 84.1505 5.81053 84.6423C5.74005 84.7019 5.65172 84.589 5.7221 84.5295C6.73422 83.674 8.16342 83.7561 9.28888 83.1278C9.81404 82.8346 10.254 82.3814 10.3521 81.7684C10.4378 81.2324 10.2922 80.6926 10.2071 80.1661C10.1051 79.6247 10.1371 79.0664 10.3005 78.5402C10.4946 77.9954 10.7799 77.4876 11.1444 77.0385C11.9487 76.0144 12.909 75.1232 13.9902 74.3974C15.2196 73.5622 16.5827 72.9435 18.0207 72.568C18.1097 72.5448 18.1286 72.6869 18.0402 72.71Z" fill="white"/>
<path id="Vector_22" d="M11.9113 76.2474C11.6021 75.9127 11.422 75.479 11.403 75.0237C11.3841 74.5684 11.5276 74.1212 11.808 73.762C11.8649 73.6895 11.9803 73.7746 11.9232 73.8472C11.6615 74.1812 11.5279 74.5978 11.5464 75.0217C11.5649 75.4456 11.7343 75.849 12.0241 76.159C12.087 76.2264 11.9738 76.3144 11.9113 76.2474Z" fill="white"/>
<path id="Vector_23" d="M10.2628 79.8183C11.1932 79.8635 12.1065 79.5564 12.8205 78.9582C12.8912 78.8988 12.9795 79.0117 12.9089 79.0709C12.1647 79.6921 11.2137 80.0097 10.2456 79.9606C10.1533 79.9558 10.171 79.8136 10.2628 79.8183Z" fill="white"/>
<path id="Vector_24" d="M15.255 73.749C15.3477 73.9034 15.4773 74.0324 15.6321 74.1244C15.7869 74.2164 15.9622 74.2685 16.1421 74.276C16.2344 74.2796 16.2166 74.4219 16.1249 74.4183C15.9261 74.4091 15.7327 74.3513 15.5614 74.25C15.3901 74.1488 15.2462 74.0071 15.1423 73.8374C15.1311 73.8222 15.1262 73.8034 15.1285 73.7847C15.1307 73.766 15.14 73.7489 15.1544 73.7368C15.1694 73.7252 15.1884 73.7199 15.2072 73.7222C15.2261 73.7245 15.2433 73.7341 15.255 73.749Z" fill="white"/>
<path id="Vector_25" d="M82.392 68.7611H32.7832V12.8066H82.392V68.7611Z" fill="#6C63FF"/>
<path id="Vector_26" d="M82.392 68.7611H32.7832V12.8066H82.392V68.7611ZM33.0499 68.4944H82.1253V13.0734H33.0499L33.0499 68.4944Z" fill="#CACACA"/>
<path id="Vector_27" d="M76.3649 39.0061H38.8097C38.7747 39.0061 38.74 38.9992 38.7076 38.9858C38.6753 38.9724 38.6459 38.9527 38.6211 38.928C38.5963 38.9032 38.5767 38.8738 38.5633 38.8414C38.5499 38.8091 38.543 38.7744 38.543 38.7394C38.543 38.7043 38.5499 38.6697 38.5633 38.6373C38.5767 38.6049 38.5963 38.5755 38.6211 38.5508C38.6459 38.526 38.6753 38.5064 38.7076 38.493C38.74 38.4796 38.7747 38.4727 38.8097 38.4727H76.3649C76.4356 38.4727 76.5035 38.5008 76.5535 38.5508C76.6035 38.6008 76.6316 38.6686 76.6316 38.7394C76.6316 38.8101 76.6035 38.8779 76.5535 38.928C76.5035 38.978 76.4356 39.0061 76.3649 39.0061Z" fill="#E4E4E4"/>
<path id="Vector_28" d="M76.3649 34.4319H38.8097C38.7389 34.4319 38.6711 34.4038 38.6211 34.3537C38.5711 34.3037 38.543 34.2359 38.543 34.1652C38.543 34.0944 38.5711 34.0266 38.6211 33.9766C38.6711 33.9265 38.7389 33.8984 38.8097 33.8984H76.3649C76.4356 33.8984 76.5035 33.9265 76.5535 33.9766C76.6035 34.0266 76.6316 34.0944 76.6316 34.1652C76.6316 34.2359 76.6035 34.3037 76.5535 34.3537C76.5035 34.4038 76.4356 34.4319 76.3649 34.4319Z" fill="#E4E4E4"/>
<path id="Vector_29" d="M76.3649 29.8576H38.8097C38.7747 29.8576 38.74 29.8508 38.7076 29.8373C38.6753 29.8239 38.6459 29.8043 38.6211 29.7795C38.5963 29.7548 38.5767 29.7254 38.5633 29.693C38.5499 29.6606 38.543 29.626 38.543 29.5909C38.543 29.5559 38.5499 29.5212 38.5633 29.4889C38.5767 29.4565 38.5963 29.4271 38.6211 29.4023C38.6459 29.3776 38.6753 29.3579 38.7076 29.3445C38.74 29.3311 38.7747 29.3242 38.8097 29.3242H76.3649C76.4356 29.3242 76.5035 29.3523 76.5535 29.4023C76.6035 29.4524 76.6316 29.5202 76.6316 29.5909C76.6316 29.6617 76.6035 29.7295 76.5535 29.7795C76.5035 29.8295 76.4356 29.8576 76.3649 29.8576Z" fill="#E4E4E4"/>
<path id="Vector_30" d="M76.3649 25.2825H38.8097C38.7389 25.2825 38.6711 25.2544 38.6211 25.2043C38.5711 25.1543 38.543 25.0865 38.543 25.0157C38.543 24.945 38.5711 24.8772 38.6211 24.8271C38.6711 24.7771 38.7389 24.749 38.8097 24.749H76.3649C76.4356 24.749 76.5035 24.7771 76.5535 24.8271C76.6035 24.8772 76.6316 24.945 76.6316 25.0157C76.6316 25.0865 76.6035 25.1543 76.5535 25.2043C76.5035 25.2544 76.4356 25.2825 76.3649 25.2825Z" fill="#E4E4E4"/>
<path id="Vector_31" d="M76.3649 43.1399H38.8097C38.7389 43.1399 38.6711 43.1118 38.6211 43.0618C38.5711 43.0117 38.543 42.9439 38.543 42.8732C38.543 42.8024 38.5711 42.7346 38.6211 42.6846C38.6711 42.6345 38.7389 42.6064 38.8097 42.6064H76.3649C76.4356 42.6064 76.5035 42.6345 76.5535 42.6846C76.6035 42.7346 76.6316 42.8024 76.6316 42.8732C76.6316 42.9439 76.6035 43.0117 76.5535 43.0618C76.5035 43.1118 76.4356 43.1399 76.3649 43.1399Z" fill="#E4E4E4"/>
<path id="Vector_32" d="M76.3649 63.6633H38.8097C38.7389 63.6633 38.6711 63.6352 38.6211 63.5852C38.5711 63.5352 38.543 63.4673 38.543 63.3966C38.543 63.3259 38.5711 63.258 38.6211 63.208C38.6711 63.158 38.7389 63.1299 38.8097 63.1299H76.3649C76.4356 63.1299 76.5035 63.158 76.5535 63.208C76.6035 63.258 76.6316 63.3259 76.6316 63.3966C76.6316 63.4673 76.6035 63.5352 76.5535 63.5852C76.5035 63.6352 76.4356 63.6633 76.3649 63.6633Z" fill="#E4E4E4"/>
<path id="Vector_33" d="M67.3684 59.3815H47.8057C47.6749 59.3814 47.5496 59.3294 47.4571 59.2369C47.3646 59.1444 47.3126 59.0191 47.3125 58.8883V47.3809C47.3126 47.2501 47.3646 47.1248 47.4571 47.0323C47.5496 46.9398 47.6749 46.8878 47.8057 46.8877H67.3684C67.4991 46.8878 67.6245 46.9398 67.7169 47.0323C67.8094 47.1248 67.8614 47.2501 67.8615 47.3809V58.8883C67.8614 59.0191 67.8094 59.1444 67.7169 59.2369C67.6245 59.3294 67.4991 59.3814 67.3684 59.3815Z" fill="white"/>
<path id="Vector_34" d="M60.8355 52.8083C60.736 52.7017 60.616 52.6162 60.4827 52.5569C60.3494 52.4976 60.2056 52.4657 60.0597 52.4631C59.9139 52.4605 59.769 52.4872 59.6337 52.5417C59.4984 52.5962 59.3754 52.6774 59.2721 52.7804L53.7667 58.2858C53.6212 58.431 53.4242 58.5126 53.2188 58.5129C53.0133 58.5132 52.8161 58.4322 52.6702 58.2875L51.8548 57.4737C51.754 57.3729 51.6343 57.2929 51.5026 57.2383C51.3708 57.1837 51.2296 57.1556 51.0871 57.1556C50.9445 57.1556 50.8033 57.1837 50.6715 57.2383C50.5398 57.2929 50.4201 57.3729 50.3193 57.4737L48.7412 59.0536H66.4331V58.8283L60.8355 52.8083Z" fill="#2F2E41"/>
<path id="Vector_35" d="M67.3684 59.3815H47.8057C47.6749 59.3814 47.5496 59.3294 47.4571 59.2369C47.3646 59.1444 47.3126 59.0191 47.3125 58.8883V47.3809C47.3126 47.2501 47.3646 47.1248 47.4571 47.0323C47.5496 46.9398 47.6749 46.8878 47.8057 46.8877H67.3684C67.4991 46.8878 67.6245 46.9398 67.7169 47.0323C67.8094 47.1248 67.8614 47.2501 67.8615 47.3809V58.8883C67.8614 59.0191 67.8094 59.1444 67.7169 59.2369C67.6245 59.3294 67.4991 59.3814 67.3684 59.3815ZM47.8057 47.2165C47.7621 47.2165 47.7203 47.2339 47.6895 47.2647C47.6587 47.2955 47.6413 47.3373 47.6413 47.3809V58.8883C47.6413 58.9319 47.6587 58.9737 47.6895 59.0045C47.7203 59.0353 47.7621 59.0527 47.8057 59.0527H67.3684C67.412 59.0527 67.4537 59.0353 67.4846 59.0045C67.5154 58.9737 67.5327 58.9319 67.5328 58.8883V47.3809C67.5327 47.3373 67.5154 47.2955 67.4846 47.2647C67.4537 47.2339 67.412 47.2165 67.3684 47.2165L47.8057 47.2165Z" fill="#3F3D56"/>
<path id="Vector_36" d="M20.2063 57.4587C20.2559 57.2839 20.2666 57.1003 20.2375 56.9209C20.2085 56.7415 20.1405 56.5706 20.0383 56.4203C19.936 56.27 19.8021 56.144 19.6459 56.051C19.4897 55.9581 19.315 55.9006 19.1342 55.8824L18.1092 51.585L16.5381 53.2591L17.7523 57.0834C17.742 57.3892 17.8443 57.6882 18.0397 57.9237C18.2351 58.1591 18.5101 58.3148 18.8126 58.361C19.1151 58.4073 19.424 58.341 19.6809 58.1747C19.9378 58.0084 20.1247 57.7537 20.2063 57.4587Z" fill="#FFB6B6"/>
<path id="Vector_37" d="M17.4661 55.9001C17.392 55.8754 17.3239 55.8354 17.2662 55.7826C17.2085 55.7299 17.1626 55.6656 17.1314 55.5939L14.958 50.278C14.4038 49.0035 14.3314 47.5711 14.7543 46.2472L16.1469 41.8851C16.168 41.6505 16.2352 41.4223 16.3446 41.2137C16.4541 41.0051 16.6035 40.8201 16.7844 40.6693C16.9654 40.5185 17.1743 40.4049 17.3992 40.3349C17.6241 40.2649 17.8606 40.2399 18.0952 40.2614C18.3298 40.2828 18.5578 40.3503 18.7663 40.46C18.9747 40.5696 19.1595 40.7193 19.3101 40.9005C19.4607 41.0816 19.5741 41.2906 19.6438 41.5156C19.7135 41.7406 19.7382 41.9772 19.7165 42.2117L17.8696 49.236L19.1066 54.7528C19.1259 54.8655 19.1102 54.9814 19.0616 55.0849C19.0129 55.1883 18.9337 55.2743 18.8345 55.3313L17.9177 55.8552C17.8193 55.9113 17.7062 55.9362 17.5933 55.9264C17.5501 55.9227 17.5074 55.9138 17.4661 55.9001Z" fill="#E4E4E4"/>
<path id="Vector_38" d="M25.1967 83.1374H26.7123L27.4334 77.291H25.1963L25.1967 83.1374Z" fill="#FFB6B6"/>
<path id="Vector_39" d="M24.8096 82.6427L27.7946 82.6426H27.7947C28.2992 82.6426 28.783 82.843 29.1398 83.1998C29.4965 83.5565 29.697 84.0403 29.697 84.5448V84.6067L24.8097 84.6068L24.8096 82.6427Z" fill="#2F2E41"/>
<path id="Vector_40" d="M16.6654 83.1374H18.181L18.9022 77.291H16.665L16.6654 83.1374Z" fill="#FFB6B6"/>
<path id="Vector_41" d="M16.2793 82.6427L19.2643 82.6426H19.2644C19.7689 82.6426 20.2528 82.843 20.6095 83.1998C20.9663 83.5565 21.1667 84.0403 21.1667 84.5448V84.6067L16.2794 84.6068L16.2793 82.6427Z" fill="#2F2E41"/>
<path id="Vector_42" d="M26.1089 53.6483L17.22 52.8662C17.22 52.8662 16.3418 58.47 16.4654 60.6954C16.5891 62.9208 16.7127 66.3826 16.7127 66.3826L15.7236 81.4659L19.5563 80.9713L20.0508 68.4843L21.6581 61.6845L23.5126 70.3388L24.7489 81.4659L28.087 81.095L26.9743 67.6189C26.9743 67.6189 27.9634 55.5028 26.1089 53.6483Z" fill="#2F2E41"/>
<path id="Vector_43" d="M22.5235 37.2051C23.8891 37.2051 24.9961 36.0981 24.9961 34.7324C24.9961 33.3668 23.8891 32.2598 22.5235 32.2598C21.1578 32.2598 20.0508 33.3668 20.0508 34.7324C20.0508 36.0981 21.1578 37.2051 22.5235 37.2051Z" fill="#FFB8B8"/>
<path id="Vector_44" d="M25.2318 40.254L23.4657 38.8482C23.4657 38.8482 21.5532 37.3724 20.4314 38.4635L19.9277 39.1836C19.9277 39.1836 17.072 40.254 17.072 41.614L17.2077 49.0743C17.2077 49.0743 16.2187 52.907 17.7023 53.1542L26.3445 53.8537L26.233 46.7253L25.2318 40.254Z" fill="#E4E4E4"/>
<path id="Vector_45" d="M20.607 36.8958C20.607 36.8958 18.0107 35.0413 19.3707 32.8159C20.3141 31.2721 22.2691 31.3943 23.3781 31.6139C23.6769 31.6691 23.9578 31.796 24.1965 31.9839C24.4353 32.1718 24.6248 32.4149 24.7487 32.6923C24.9342 33.125 24.9342 33.5577 24.1924 33.5577C22.7088 33.5577 23.4506 34.6704 23.4506 34.6704C23.4506 34.6704 22.4615 34.9177 22.7088 35.7831C22.956 36.6486 20.607 36.8958 20.607 36.8958Z" fill="#2F2E41"/>
<path id="Vector_46" d="M34.1529 53.2825C34.1069 53.1067 34.0228 52.9431 33.9067 52.8033C33.7906 52.6635 33.6453 52.5508 33.4809 52.4732C33.3165 52.3957 33.1371 52.3551 32.9554 52.3543C32.7736 52.3536 32.5939 52.3927 32.4289 52.4689L29.3638 49.2871L28.8604 51.5271L31.8483 54.2052C31.9947 54.4739 32.2346 54.6795 32.5225 54.7832C32.8104 54.8868 33.1263 54.8812 33.4104 54.7675C33.6945 54.6538 33.927 54.4398 34.0638 54.1661C34.2007 53.8924 34.2324 53.578 34.1529 53.2825Z" fill="#FFB6B6"/>
<path id="Vector_47" d="M31.0002 53.3311C30.9238 53.3475 30.8448 53.3476 30.7683 53.3315C30.6918 53.3153 30.6196 53.2832 30.5564 53.2374L25.9848 49.7612C24.8602 48.9447 24.0705 47.7474 23.7626 46.3922L22.7474 41.9271C22.6463 41.7142 22.5882 41.4835 22.5765 41.2481C22.5647 41.0128 22.5994 40.7774 22.6787 40.5555C22.758 40.3336 22.8802 40.1295 23.0385 39.9549C23.1967 39.7803 23.3879 39.6386 23.6009 39.5379C23.814 39.4373 24.0448 39.3796 24.2802 39.3683C24.5156 39.3569 24.7509 39.3921 24.9726 39.4718C25.1944 39.5515 25.3983 39.6742 25.5726 39.8327C25.7469 39.9913 25.8882 40.1827 25.9884 40.396L27.9641 47.3852L31.8309 51.5098C31.9048 51.597 31.9501 51.7049 31.9607 51.8187C31.9714 51.9325 31.9468 52.0469 31.8903 52.1463L31.3664 53.0632C31.3102 53.1615 31.2253 53.2403 31.1231 53.2892C31.084 53.308 31.0427 53.322 31.0002 53.3311Z" fill="#E4E4E4"/>
<path id="Vector_48" d="M93.7958 4.14673H22.3904C22.363 4.14663 22.3367 4.13567 22.3173 4.11624C22.298 4.09682 22.2871 4.07051 22.2871 4.04309C22.2871 4.01567 22.298 3.98936 22.3173 3.96993C22.3367 3.95051 22.363 3.93955 22.3904 3.93945H93.7958C93.8232 3.93955 93.8495 3.95051 93.8688 3.96993C93.8882 3.98936 93.899 4.01567 93.899 4.04309C93.899 4.07051 93.8882 4.09682 93.8688 4.11624C93.8495 4.13567 93.8232 4.14663 93.7958 4.14673Z" fill="#CACACA"/>
<path id="Vector_49" d="M24.723 2.69601C25.3526 2.69601 25.863 2.18562 25.863 1.55601C25.863 0.92641 25.3526 0.416016 24.723 0.416016C24.0934 0.416016 23.583 0.92641 23.583 1.55601C23.583 2.18562 24.0934 2.69601 24.723 2.69601Z" fill="#3F3D56"/>
<path id="Vector_50" d="M28.6605 2.69601C29.2901 2.69601 29.8005 2.18562 29.8005 1.55601C29.8005 0.92641 29.2901 0.416016 28.6605 0.416016C28.0309 0.416016 27.5205 0.92641 27.5205 1.55601C27.5205 2.18562 28.0309 2.69601 28.6605 2.69601Z" fill="#3F3D56"/>
<path id="Vector_51" d="M32.599 2.69601C33.2286 2.69601 33.739 2.18562 33.739 1.55601C33.739 0.92641 33.2286 0.416016 32.599 0.416016C31.9694 0.416016 31.459 0.92641 31.459 1.55601C31.459 2.18562 31.9694 2.69601 32.599 2.69601Z" fill="#3F3D56"/>
<path id="Vector_52" d="M91.4364 1.11376H88.6382C88.5834 1.11357 88.5308 1.09165 88.4921 1.0528C88.4534 1.01395 88.4316 0.961339 88.4316 0.906491C88.4316 0.851642 88.4534 0.799031 88.4921 0.76018C88.5308 0.72133 88.5834 0.699408 88.6382 0.699219H91.4364C91.4912 0.699408 91.5438 0.72133 91.5825 0.76018C91.6212 0.799031 91.6429 0.851642 91.6429 0.906491C91.6429 0.961339 91.6212 1.01395 91.5825 1.0528C91.5438 1.09165 91.4912 1.11357 91.4364 1.11376Z" fill="#3F3D56"/>
<path id="Vector_53" d="M91.4364 1.89013H88.6382C88.5834 1.88994 88.5308 1.86802 88.4921 1.82917C88.4534 1.79032 88.4316 1.73771 88.4316 1.68286C88.4316 1.62801 88.4534 1.5754 88.4921 1.53655C88.5308 1.4977 88.5834 1.47578 88.6382 1.47559H91.4364C91.4912 1.47578 91.5438 1.4977 91.5825 1.53655C91.6212 1.5754 91.6429 1.62801 91.6429 1.68286C91.6429 1.73771 91.6212 1.79032 91.5825 1.82917C91.5438 1.86802 91.4912 1.88994 91.4364 1.89013Z" fill="#3F3D56"/>
<path id="Vector_54" d="M91.4364 2.66747H88.6382C88.5834 2.66728 88.5308 2.64536 88.4921 2.60651C88.4534 2.56766 88.4316 2.51505 88.4316 2.4602C88.4316 2.40535 88.4534 2.35274 88.4921 2.31389C88.5308 2.27504 88.5834 2.25312 88.6382 2.25293H91.4364C91.4912 2.25312 91.5438 2.27504 91.5825 2.31389C91.6212 2.35274 91.6429 2.40535 91.6429 2.4602C91.6429 2.51505 91.6212 2.56766 91.5825 2.60651C91.5438 2.64536 91.4912 2.66728 91.4364 2.66747Z" fill="#3F3D56"/>
<path id="Vector_55" d="M47.2281 84.6379H0.123634C0.090844 84.6379 0.0593972 84.6249 0.0362114 84.6017C0.0130256 84.5785 0 84.547 0 84.5143C0 84.4815 0.0130256 84.45 0.0362114 84.4268C0.0593972 84.4037 0.090844 84.3906 0.123634 84.3906H47.2281C47.2609 84.3906 47.2923 84.4037 47.3155 84.4268C47.3387 84.45 47.3517 84.4815 47.3517 84.5143C47.3517 84.547 47.3387 84.5785 47.3155 84.6017C47.2923 84.6249 47.2609 84.6379 47.2281 84.6379Z" fill="#CACACA"/>
<path id="Vector_56" d="M72.2735 20.4406H42.9381C42.7746 20.4442 42.6155 20.3875 42.4911 20.2814C42.3667 20.1753 42.2856 20.0272 42.2632 19.8653C42.2539 19.7759 42.2635 19.6856 42.2914 19.6002C42.3193 19.5148 42.3648 19.4362 42.4249 19.3694C42.4851 19.3027 42.5586 19.2494 42.6407 19.2129C42.7228 19.1763 42.8116 19.1575 42.9014 19.1575H72.2279C72.394 19.1531 72.5558 19.2103 72.6822 19.3182C72.8086 19.426 72.8907 19.5768 72.9125 19.7415C72.9205 19.8303 72.9099 19.9197 72.8814 20.0041C72.8529 20.0886 72.8071 20.1661 72.747 20.2319C72.6869 20.2977 72.6137 20.3502 72.5322 20.3861C72.4507 20.4221 72.3626 20.4406 72.2735 20.4406Z" fill="#2F2E41"/>
</g>
<defs>
<clipPath id="clip0_469_3520">
<rect width="100" height="84.3051" fill="white" transform="translate(0 0.416016)"/>
</clipPath>
</defs>
</svg>
