<svg width="101" height="81" viewBox="0 0 101 81" fill="none" xmlns="http://www.w3.org/2000/svg">
<g id="undraw_learning_sketching_nd4f" clip-path="url(#clip0_469_4397)">
<path id="Vector" d="M67.3168 18.3148C67.3022 18.3173 67.2803 18.321 67.2537 18.3254C66.7333 18.4115 63.5872 18.8969 60.4152 17.6886C59.0714 17.1768 59.5298 17.0492 56.5371 15.2696C53.0284 13.1832 52.128 13.1978 51.8667 12.2249C51.345 10.2823 54.1309 7.22844 55.9748 7.42951C56.4603 7.48245 56.9802 7.77187 57.7888 7.57562C57.9665 7.53251 58.7442 7.34376 59.1234 6.69999C59.4616 6.12571 59.1751 5.71143 59.3112 5.24043C59.6682 4.00413 62.6445 3.38714 65.2538 3.82307C66.7546 4.07381 67.922 4.75832 70.1954 6.11712C74.1523 8.48215 76.1307 9.66466 76.5753 11.4764C76.9968 13.1936 75.9852 13.9335 76.7209 15.7717C77.4059 17.4833 78.4939 17.369 78.8683 18.7536C79.4708 20.9817 77.2347 23.4271 76.3031 24.4458C75.2819 25.5626 74.3051 26.1756 73.0084 26.9893C71.3809 28.0107 70.5671 28.5214 69.5887 28.4694C67.8149 28.3752 62.5438 28.6959 62.4751 27.228C62.4493 26.6779 56.0564 27.1283 59.2043 21.2056C59.5904 20.4791 67.1542 21.2551 67.2541 20.8377" fill="#2F2E41"/>
<path id="Vector_2" d="M70.3779 22.1045L75.8148 30.2144L60.208 33.3706L61.2021 23.2173L70.3779 22.1045Z" fill="#FFB6B6"/>
<path id="Vector_3" opacity="0.1" d="M70.3779 22.1045L75.8148 30.2144L60.208 33.3706L61.2021 23.2173L70.3779 22.1045Z" fill="black"/>
<path id="Vector_4" d="M59.0393 28.1105L75.8721 27.4092L83.3534 31.5005L83.0027 57.8018L90.8347 72.6475L51.3242 65.1662L54.3635 53.9443L52.9607 30.3315L59.0393 28.1105Z" fill="#6C63FF"/>
<path id="Vector_5" d="M0.953327 79.2056C0.415926 78.3585 0.352461 77.3119 0.78359 76.4059L7.19023 62.9448C7.66838 61.9401 8.69626 61.291 9.80887 61.291H90.7298C91.8114 61.291 92.7955 61.886 93.2979 62.8439L100.165 75.9341C100.64 76.8389 100.608 77.9016 100.081 78.7771C99.5545 79.6524 98.6299 80.1774 97.6082 80.1814L3.41362 80.5522H3.40183C2.40327 80.5522 1.48855 80.0494 0.953327 79.2056Z" fill="#E0E0E0"/>
<path id="Vector_6" d="M0.953327 79.2056C0.415926 78.3585 0.352461 77.3119 0.78359 76.4059L7.19023 62.9448C7.66838 61.9401 8.69626 61.291 9.80887 61.291H90.7298C91.8114 61.291 92.7955 61.886 93.2979 62.8439L100.165 75.9341C100.64 76.8389 100.608 77.9016 100.081 78.7771C99.5545 79.6524 98.6299 80.1774 97.6082 80.1814L3.41362 80.5522H3.40183C2.40327 80.5522 1.48855 80.0494 0.953327 79.2056ZM9.80887 61.5954C8.81304 61.5954 7.89306 62.1765 7.4651 63.0756L1.05846 76.5367C0.672563 77.3475 0.72934 78.2843 1.21036 79.0426C1.68945 79.7979 2.50806 80.2478 3.40188 80.2478H3.41243L97.607 79.877C98.5215 79.8735 99.349 79.4035 99.8206 78.62C100.292 77.8365 100.32 76.8853 99.8954 76.0755L93.0284 62.9852C92.5786 62.128 91.6979 61.5954 90.7298 61.5954H9.80887Z" fill="#3F3D56"/>
<path id="Vector_7" d="M83.1955 75.4057L49.8017 73.1098C49.3086 73.0759 48.9154 72.7435 48.8 72.263C48.6844 71.7825 48.8836 71.3078 49.3074 71.0536L56.6917 66.6229C56.8792 66.5103 57.0943 66.4556 57.3123 66.4661L86.1977 67.7791C86.5796 67.7964 86.9207 68.0049 87.1102 68.337C87.2997 68.669 87.3057 69.0687 87.1263 69.4063L84.2504 74.8199C84.0574 75.1832 83.679 75.4083 83.2715 75.4083C83.2463 75.4083 83.2209 75.4074 83.1955 75.4057Z" fill="#3F3D56"/>
<path id="Vector_8" d="M49.5127 71.771L82.7693 74.0504L85.3994 68.381L56.8833 67.2627L49.5127 71.771Z" fill="#E0E0E0"/>
<path id="Vector_9" d="M65.8774 24.8368C71.3967 24.8368 75.8709 20.3625 75.8709 14.8432C75.8709 9.32388 71.3967 4.84961 65.8774 4.84961C60.3581 4.84961 55.8838 9.32388 55.8838 14.8432C55.8838 20.3625 60.3581 24.8368 65.8774 24.8368Z" fill="#FFB6B6"/>
<path id="Vector_10" d="M69.0961 15.4896C69.0815 15.4921 69.0596 15.4958 69.033 15.5002C68.5126 15.5863 65.3664 16.0717 62.1945 14.8634C60.8507 14.3516 61.3091 14.224 58.3164 12.4444C54.8077 10.358 53.9073 10.3726 53.646 9.39971C53.1243 7.45709 55.9102 4.40325 57.7541 4.60431C58.2396 4.65725 58.7595 4.94668 59.5681 4.75043C59.7458 4.70731 60.5235 4.51857 60.9027 3.8748C61.2409 3.30051 60.9544 2.88624 61.0905 2.41524C61.4475 1.17893 64.4238 0.561947 67.0331 0.997879C68.5339 1.24861 69.7013 1.93313 71.9746 3.29193C75.9315 5.65695 77.91 6.83947 78.3546 8.65121C78.7761 10.3684 77.7645 11.1083 78.5002 12.9465C79.1852 14.6581 80.2732 14.5438 80.6476 15.9284C81.2501 18.1565 79.0139 20.6019 78.0824 21.6206C77.0611 22.7374 76.0844 23.3504 74.7877 24.1641C73.1602 25.1855 72.3464 25.6962 71.368 25.6442C69.5942 25.55 67.8298 23.9425 67.7611 22.4746C67.7353 21.9244 67.9648 21.7595 68.5328 19.8682C68.7694 19.0803 68.9335 18.4299 69.0334 18.0125" fill="#2F2E41"/>
<path id="Vector_11" d="M75.9465 69.0328C76.5894 69.0582 77.0787 69.6343 77.1142 70.2584C77.151 70.9062 76.7005 71.5029 76.1594 71.8113C75.5255 72.1727 74.7343 72.2306 74.0205 72.1685C73.3785 72.1125 72.68 71.9128 72.2668 71.3827C71.9192 70.9366 71.7913 70.2626 72.087 69.7563C72.3801 69.2542 73.0035 69.1156 73.525 69.3171C74.0768 69.5303 74.4238 70.0322 74.4273 70.6253C74.4312 71.2828 74.0515 71.8902 73.5186 72.2537C72.944 72.6458 72.2207 72.7719 71.5366 72.7703C70.7913 72.7686 70.0492 72.6122 69.3635 72.3217C68.7211 72.0496 68.0793 71.6571 67.62 71.1238C67.1893 70.6239 66.9315 69.9302 67.1706 69.2818C67.3666 68.75 67.8619 68.4239 68.4292 68.469C68.9485 68.5102 69.4738 68.8116 69.7043 69.2914C69.9644 69.8328 69.8476 70.4824 69.5166 70.9664C69.1345 71.5253 68.5304 71.8394 67.8596 71.8848C67.1457 71.9331 66.4386 71.6794 65.8513 71.2872C65.3075 70.9241 64.8296 70.4592 64.2457 70.1571C63.9648 70.0117 63.659 69.9193 63.3409 69.9197C62.9358 69.9202 62.5463 70.0532 62.1524 70.1304C61.8185 70.1958 61.4744 70.234 61.1449 70.1272C60.8629 70.0359 60.5991 69.8686 60.4215 69.6286C60.2534 69.4016 60.1945 69.1172 60.2896 68.8476C60.3643 68.6363 60.7032 68.7273 60.6278 68.9409C60.4538 69.4337 61.0508 69.7959 61.4687 69.8411C61.7857 69.8754 62.1128 69.7838 62.4187 69.7123C62.7374 69.6377 63.0634 69.5614 63.393 69.5695C64.5607 69.5982 65.3326 70.5964 66.274 71.1379C67.2639 71.7073 68.7134 71.7469 69.3195 70.6156C69.5396 70.2047 69.5851 69.6584 69.2827 69.2745C69.0307 68.9547 68.5831 68.7633 68.1775 68.8253C67.668 68.9032 67.4143 69.3884 67.4328 69.8708C67.4554 70.4612 67.8669 70.9408 68.3058 71.2944C69.2826 72.0815 70.578 72.4824 71.8275 72.412C72.4137 72.379 73.0367 72.2264 73.4921 71.8361C73.8856 71.4989 74.1542 70.9504 74.0596 70.4251C73.9778 69.9705 73.5965 69.6256 73.1358 69.5799C72.6645 69.5331 72.2962 69.8677 72.2752 70.3384C72.2515 70.8679 72.5661 71.3099 73.022 71.551C73.5384 71.8242 74.1643 71.8581 74.7365 71.8283C75.3441 71.7967 75.9773 71.6366 76.4025 71.1739C76.7652 70.7792 76.9027 70.1937 76.5685 69.737C76.421 69.5355 76.1991 69.3935 75.9465 69.3835C75.7215 69.3746 75.7204 69.0239 75.9465 69.0328Z" fill="#6C63FF"/>
<path id="Vector_12" d="M59.9631 68.657L60.1418 67.5515L70.0632 48.5889C70.2275 48.2748 70.6168 48.153 70.9309 48.3173C71.245 48.4816 71.3668 48.8709 71.2025 49.185L61.2855 68.1392L60.4748 68.9248C60.3789 69.0172 60.2406 69.0371 60.1225 68.9753C60.0044 68.9136 59.9419 68.7886 59.9631 68.657Z" fill="#3F3D56"/>
<path id="Vector_13" d="M66.7265 56.5928C67.8458 56.8035 68.8984 57.2792 69.7962 57.9801L69.8467 57.991L69.8569 57.9407L80.6699 59.6343L79.8865 45.2521L88.0814 40.7637L86.1445 65.0746C85.725 66.6272 84.1137 67.534 82.5689 67.0868L68.8044 63.1276L68.8388 62.9582L68.7907 62.9453C67.6906 63.242 66.5355 63.2708 65.422 63.0295C62.6286 62.4642 60.656 60.5646 61.016 58.7869C61.3761 57.0092 63.9322 56.0269 66.7265 56.5928Z" fill="#FFB6B6"/>
<path id="Vector_14" d="M74.1191 34.0717L83.3538 31.5C83.3538 31.5 88.205 35.0653 88.7894 38.9228C88.859 39.3816 89.0518 60.7524 88.8479 61.3082C87.3374 65.4251 79.0287 58.8534 79.0287 58.8534L74.1191 34.0717Z" fill="#6C63FF"/>
<path id="Vector_15" d="M34.0627 72.4826L33.1053 71.6621C32.9628 71.5398 32.7894 71.4589 32.6041 71.428L11.2728 67.8727C10.7859 67.7916 10.4263 67.44 10.3342 66.955C10.2421 66.4701 10.4478 66.0111 10.8711 65.7571L18.4811 61.1911C18.7355 61.0385 19.0348 60.9904 19.3243 61.0558L46.3707 67.1663C46.8965 67.2851 47.2474 67.7099 47.2646 68.2488C47.2819 68.7876 46.9588 69.234 46.4416 69.3862L35.1331 72.7122C35.0258 72.7438 34.9164 72.7592 34.8079 72.7592C34.5379 72.7592 34.2738 72.6637 34.0627 72.4826Z" fill="#3F3D56"/>
<path id="Vector_16" d="M23.7906 45.9664C24.848 46.3899 25.7885 47.0604 26.5336 47.9218L26.5811 47.9423L26.6008 47.8949L36.8814 51.6499L47.8581 33.877L53.9264 37.6379L41.1991 58.0471C40.487 59.4891 38.7307 60.0668 37.3016 59.329L24.5641 52.78L24.6306 52.6204L24.5859 52.5984C23.4492 52.6765 22.3103 52.4812 21.2647 52.0288C18.6335 50.9334 17.066 48.6879 17.7634 47.0136C18.4608 45.3392 21.1587 44.8703 23.7906 45.9664Z" fill="#FFB6B6"/>
<path id="Vector_17" d="M59.6332 37.0855L54.7781 29.8252C54.7781 29.8252 49.0006 30.9687 46.6207 34.0604C46.3232 34.4468 36.1044 49.2671 36.0386 49.9139C35.5778 54.4413 47.3224 56.5627 47.3224 56.5627L59.6332 37.0855Z" fill="#6C63FF"/>
<path id="Vector_18" d="M33.5348 72.701L9.08259 69.3213C8.26422 69.2083 7.58876 68.6219 7.36171 67.8274L1.74568 48.1713C1.55538 47.5051 1.69745 46.8153 2.13546 46.2785C2.57347 45.7418 3.22062 45.4644 3.91166 45.5171L28.5473 47.4045C29.4386 47.4728 30.1867 48.1004 30.4092 48.9662L35.8417 70.1145C36.0151 70.7894 35.8417 71.5028 35.3779 72.0228C34.9786 72.4706 34.4122 72.7207 33.8219 72.7207C33.7267 72.7207 33.6307 72.7142 33.5348 72.701Z" fill="#3F3D56"/>
<path id="Vector_19" d="M28.084 32.4392C28.227 32.5964 28.7456 32.4362 29.7772 32.1095C30.5613 31.8611 30.682 31.7707 30.7566 31.7059C31.0188 31.4781 31.0875 31.2385 31.3473 30.1802C31.8134 28.2806 31.8278 28.092 32.0672 27.6889C32.1496 27.55 32.3579 27.2189 32.3071 27.1779C32.2549 27.1357 32.0296 27.4807 31.6131 27.611C31.2072 27.738 31.0245 27.5345 30.678 27.5864C30.23 27.6534 29.9637 28.0789 29.5459 28.7676C29.176 29.3775 29.1294 29.6229 28.6107 30.8347C28.4638 31.178 28.3454 31.4437 28.2546 31.6537C27.2362 32.6042 26.2262 33.5672 25.2254 34.5386C25.2447 34.5091 25.2628 34.4812 25.2786 34.4571C25.7219 33.7764 25.7821 33.4115 25.7757 33.138C25.7653 32.695 25.5537 32.3576 25.131 31.7008C24.7167 31.0572 24.3243 30.6326 23.8514 30.1258C23.2315 29.4616 22.9215 29.1294 22.7981 29.1513C21.9165 29.3073 21.6808 35.3102 22.79 36.3837C22.6343 36.4949 22.5054 36.6114 22.4121 36.726C21.4626 35.6718 19.836 34.494 18.0342 34.349C16.9233 34.2596 16.3102 34.6082 16.1196 34.7279C15.2385 35.2813 14.7146 36.389 14.9777 36.7015C15.223 36.993 15.9317 36.3304 17.3205 36.3669C18.2895 36.3924 19.0465 36.7439 19.4959 36.9527C20.4386 37.3905 20.7834 37.8209 21.4785 38.1158C21.1527 38.3843 20.8945 38.7194 20.7324 39.032C20.6762 39.0898 20.6203 39.148 20.5642 39.206C19.847 38.8018 19.0394 38.5053 18.1928 38.4372C17.082 38.3478 16.4689 38.6964 16.2782 38.8161C15.6844 39.1891 15.2541 39.8132 15.1163 40.2766C15.0263 40.2947 14.943 40.3154 14.8668 40.3376C14.5976 39.7293 13.7964 39.0877 13.0516 38.7644C11.7693 38.2078 10.1038 38.3553 9.92553 38.8846C9.91985 38.9015 9.91842 38.9181 9.91591 38.9348C10.0565 37.8007 10.2473 36.6746 10.4857 35.5566C10.4938 35.5885 10.504 35.6208 10.5175 35.6548C10.834 36.4498 11.6893 37.2128 12.8552 37.6087C13.7702 37.9194 14.1535 37.7584 14.2509 37.7134C14.3439 37.6704 14.7456 37.498 14.844 37.1551C15.0265 36.5195 13.909 34.6409 13.2041 35.271C10.9394 37.2955 10.6286 35.6562 10.5246 35.3802C10.7171 34.4964 10.9387 33.6176 11.1873 32.7438C11.1916 32.7492 11.1953 32.7544 11.1998 32.7598C11.6946 33.3599 12.6468 33.7827 13.7658 33.8014C14.644 33.816 14.931 33.5702 15.0028 33.5042C15.0713 33.4411 15.3711 33.1803 15.361 32.8562C15.3423 32.2554 14.2735 31.7661 13.4183 31.6812C12.6302 31.603 11.7816 31.8443 11.3607 32.1498C11.5564 31.4955 11.7669 30.844 11.9915 30.1954C12.5666 30.4303 13.3813 30.3987 14.1817 30.0409C14.8417 29.7459 14.97 29.4626 15.0005 29.3884C15.0297 29.3175 15.1623 29.0186 15.0419 28.7805C14.8187 28.3389 13.8512 28.3464 13.1839 28.5811C12.9091 28.6777 12.6479 28.8264 12.4241 28.9945C12.822 27.9313 13.2559 26.8757 13.7224 25.8278L13.2548 25.7109C12.6588 27.0495 12.1392 28.4055 11.6926 29.7765C11.6371 29.3744 11.4979 28.946 11.3147 28.598C10.776 27.5748 9.62522 26.8071 9.23606 27.0562C9.15821 27.106 9.12544 27.1871 9.09582 27.2837C8.85727 28.0611 9.03692 29.1354 9.66517 30.1224C10.1582 30.8971 10.538 31.0059 10.6369 31.0305C10.7204 31.0512 11.0429 31.1403 11.3079 31.0256C11.1297 31.6364 10.9649 32.2498 10.8146 32.866C10.6337 32.417 10.2774 31.9385 9.90044 31.6077C9.0313 30.8449 7.68207 30.5396 7.40775 30.9114C7.3529 30.9858 7.35133 31.0733 7.35821 31.1741C7.41352 31.9853 7.96557 32.9243 8.9053 33.6213C9.64288 34.1683 10.0364 34.1341 10.1376 34.1216C10.1971 34.1143 10.3771 34.0964 10.5506 34.018C10.3895 34.7666 10.2488 35.5189 10.1271 36.2744C9.88369 35.4293 9.05695 34.3749 8.2767 34.7104C6.89214 35.3056 5.26461 34.3913 5.08547 34.7911C5.03886 34.8951 5.07745 35.0024 5.12205 35.1188C5.48076 36.0554 6.47145 36.9629 7.83175 37.4448C8.89939 37.823 9.35107 37.6402 9.46586 37.589C9.54194 37.555 9.79299 37.4501 9.98001 37.2555C9.84556 38.2262 9.74251 39.2019 9.66994 40.1819C9.38127 39.5516 8.56817 38.8875 7.80698 38.5452C6.47177 37.9446 4.72542 38.0762 4.53147 38.628C4.49269 38.7384 4.52328 38.8449 4.56903 38.9644C4.93724 39.9257 5.95405 40.8572 7.35028 41.3518C8.44611 41.74 8.90969 41.5524 9.02753 41.4998C9.1136 41.4614 9.41762 41.3344 9.61149 41.0932C9.58666 41.5462 9.56748 41.9999 9.55535 42.4546C9.5519 42.5841 9.54987 42.7136 9.54736 42.843C9.53164 42.8685 9.51791 42.8945 9.50878 42.9217C9.47136 43.0328 9.49682 43.1397 9.54074 43.2564C9.53977 43.3386 9.53926 43.4209 9.53872 43.5031C9.29442 43.2816 9.00302 42.9487 8.6525 42.4742C8.33623 42.0461 8.03589 42.3602 7.84297 42.7247C7.54052 42.6574 7.25202 42.6991 7.02514 42.911C5.50365 44.3323 3.79714 43.5783 3.773 44.002C3.76604 44.1243 3.83153 44.2216 3.9141 44.327C4.57842 45.1757 5.88258 45.7948 7.43196 45.8601C8.64796 45.9113 9.0541 45.5808 9.15581 45.4919C9.19154 45.4607 9.27162 45.3933 9.35835 45.2985C9.42799 45.3541 9.49577 45.4046 9.56375 45.4506C9.59049 46.2642 9.63834 47.0769 9.70929 47.888C9.65162 47.8932 9.59645 47.9027 9.55536 47.9069C8.96634 47.9669 8.76789 47.1722 7.8781 46.8819C7.58261 46.7855 7.01335 46.6802 6.71335 46.8819C6.67014 46.9109 6.52274 47.0201 6.29403 47.1148C6.15884 47.1708 6.05556 47.1968 6.01449 47.208C5.64942 47.3079 5.3113 47.5819 5.0827 47.7671C4.65297 48.1153 4.43813 48.2894 4.33724 48.6057C4.30551 48.7053 4.21621 48.9853 4.33724 49.258C4.39443 49.3868 4.52717 49.5785 5.0361 49.7705C5.33858 49.8846 6.22083 50.2173 7.27242 49.8637C7.51189 49.7831 7.3291 49.812 8.25082 49.3512C8.97599 48.9886 9.4001 48.8153 9.46218 48.4659C9.48401 48.3431 9.46201 48.1933 9.55536 48.1398C9.60724 48.1101 9.66997 48.1245 9.73258 48.1471C9.7936 48.7992 9.86979 49.4503 9.96215 50.1001H9.13235C8.03053 50.1001 7.04206 50.7133 6.55279 51.7005L3.44896 57.9623C3.25301 58.3575 3.14941 58.7997 3.14941 59.2409V75.3423C3.14941 76.9299 4.44098 78.2214 6.02853 78.2214H13.2733C14.8609 78.2214 16.1524 76.9299 16.1524 75.3423V60.516C16.1524 60.1546 16.0855 59.8007 15.9534 59.4642L12.9953 51.9273C12.6365 51.0133 11.8595 50.3667 10.9306 50.1665C11.2285 49.8133 11.5269 49.4604 11.8277 49.1086C12.2063 49.2913 12.6229 49.4413 13.0707 49.5466C14.2555 49.8251 14.7165 49.5767 14.8331 49.5085C14.9444 49.4434 15.4271 49.1785 15.509 48.7367C15.5177 48.6894 15.5211 48.6415 15.5205 48.5933C16.7341 49.5799 17.3672 50.0661 17.8298 49.904C18.2274 49.7646 18.4545 49.3078 18.5844 48.8979C18.7202 48.9167 18.8642 48.936 19.0176 48.9565C20.6798 49.1784 21.5174 49.2814 21.8378 48.8877C22.2813 48.3428 21.8604 47.2922 21.7444 47.0026C21.4922 46.3733 21.1044 45.9903 20.8634 45.7574C20.5505 45.4549 19.6588 44.5927 18.2549 44.4776C17.9497 44.4526 17.6755 44.4718 17.3962 44.5303C17.2989 44.4413 17.1962 44.354 17.0831 44.2712C16.8676 44.1133 16.6548 43.9964 16.4257 43.905C16.7771 43.5201 17.1294 43.1363 17.4834 42.7541C17.5395 42.7796 17.5927 42.8042 17.6416 42.827C18.8013 43.3656 19.0561 43.893 20.1713 44.1707C20.6773 44.2966 21.2501 44.4393 21.3919 44.2249C21.6439 43.844 20.5745 42.2767 18.9221 41.2163C19.0335 41.0983 19.1452 40.9807 19.2568 40.8631C19.408 40.9264 19.5411 40.9882 19.6545 41.0409C20.8142 41.5795 21.069 42.1069 22.1843 42.3846C22.6903 42.5106 23.2631 42.6532 23.4049 42.4388C23.6297 42.0989 22.8026 40.8142 21.448 39.788C21.8201 39.6698 22.3135 39.5388 22.9524 39.5556C23.9215 39.5811 24.6784 39.9327 25.1278 40.1414C26.2875 40.68 26.5423 41.2075 27.6576 41.4851C28.1635 41.6111 28.7364 41.7537 28.8782 41.5393C29.2527 40.973 26.709 37.7826 23.6661 37.5377C23.4299 37.5187 23.2176 37.5203 23.0257 37.5345C22.9991 37.4906 22.9703 37.4455 22.94 37.3996C23.9695 37.4327 25.9802 37.1383 27.6915 38.3398C28.185 38.6863 29.1436 39.5012 30.7479 40.1708C31.2607 40.3848 31.5185 40.49 31.5895 40.4022C31.8437 40.0876 29.7301 37.4988 26.7564 36.2234C25.5774 35.7178 24.849 35.6699 24.3309 35.7465C24.4107 35.6555 24.4885 35.5615 24.5635 35.4672C25.7214 34.3315 26.8939 33.2078 28.0769 32.0991C28.0197 32.2762 28.0216 32.3705 28.084 32.4392ZM13.2247 46.5736C11.9168 46.1502 10.3331 46.3777 9.92019 46.8594C9.86197 46.4324 9.81137 46.0049 9.76968 45.5765C10.3655 45.9092 10.9872 45.9984 12.1666 46.1558C12.6689 46.2229 13.0947 46.2787 13.4549 46.3136C13.5033 46.4448 13.5549 46.5628 13.6148 46.6757C13.6217 46.6888 13.6291 46.7012 13.6362 46.7142L13.6258 46.7261C13.4915 46.6678 13.3569 46.6164 13.2247 46.5736ZM9.74987 40.8376C9.78717 40.7139 9.78794 40.5821 9.75946 40.4462C9.80016 39.954 9.85096 39.4634 9.91106 38.9742C9.90952 39.049 9.93326 39.124 9.96562 39.2052C10.3292 40.1184 11.3116 40.9948 12.6508 41.4495C12.9006 41.5343 13.1149 41.5878 13.2995 41.6205C13.2182 41.762 13.156 41.8999 13.1148 42.0275C12.6583 41.6607 12.0706 41.394 11.4038 41.677C11.2224 41.754 11.1147 42.0356 11.0211 42.3725C10.4051 42.3831 9.8904 42.5116 9.64525 42.7291C9.64656 42.6384 9.6461 42.5479 9.64853 42.457C9.66234 41.9393 9.68786 41.4233 9.72382 40.9088C9.73363 40.8858 9.74248 40.8621 9.74987 40.8376ZM9.64699 43.5005C9.67353 43.5548 9.70261 43.6089 9.7328 43.6629C9.70541 43.6427 9.67735 43.621 9.64856 43.5975C9.64779 43.5652 9.64759 43.5328 9.64699 43.5005ZM10.6987 50.1267C10.627 50.1173 10.5546 50.1104 10.4815 50.1063C10.3129 49.2692 10.1572 48.4327 10.0269 47.5946C10.3696 48.1384 10.9289 48.6364 11.6414 49.014C11.3253 49.384 11.0117 49.7552 10.6987 50.1267ZM16.2187 43.8309C15.7727 43.6877 15.2493 43.6191 14.525 43.535C14.3414 43.2799 14.1522 43.0919 14.0123 42.9567C13.9366 42.8834 13.8203 42.7381 13.6696 42.5682C14.06 42.4428 14.6427 42.2196 15.4661 42.2412C16.2145 42.2609 16.8355 42.4749 17.2869 42.6675C16.9294 43.0538 16.5736 43.4418 16.2187 43.8309ZM18.7464 41.1066C18.3081 40.8418 17.8328 40.615 17.3324 40.4557C17.3811 40.4552 17.4287 40.4538 17.4791 40.4551C18.0996 40.4714 18.6326 40.6215 19.0541 40.7821C18.9515 40.8902 18.8488 40.9982 18.7464 41.1066Z" fill="#CCCCCC"/>
</g>
<defs>
<clipPath id="clip0_469_4397">
<rect width="100" height="79.6937" fill="white" transform="translate(0.5 0.858398)"/>
</clipPath>
</defs>
</svg>
