<svg width="150" height="91" viewBox="0 0 150 91" fill="none" xmlns="http://www.w3.org/2000/svg">
<g id="undraw_finance_re_gnv2">
<g clip-path="url(#clip0_1_12412)">
<rect width="150" height="90.0326" fill="white"/>
<path id="Vector" d="M9.43574 18.8715C7.56952 18.8715 5.74522 18.3181 4.19352 17.2813C2.64183 16.2444 1.43242 14.7708 0.718256 13.0466C0.00408837 11.3225 -0.182771 9.42527 0.181309 7.59491C0.545389 5.76456 1.44406 4.08328 2.76367 2.76367C4.08328 1.44405 5.76457 0.545389 7.59492 0.181309C9.42527 -0.182771 11.3225 0.00408837 13.0466 0.718256C14.7708 1.43242 16.2444 2.64183 17.2813 4.19352C18.3181 5.74522 18.8715 7.56952 18.8715 9.43574C18.8686 11.9374 17.8736 14.3358 16.1047 16.1047C14.3358 17.8736 11.9374 18.8686 9.43574 18.8715ZM9.43574 0.393161C7.64728 0.393161 5.89899 0.923498 4.41195 1.91711C2.92491 2.91072 1.7659 4.32298 1.08149 5.97529C0.397074 7.62761 0.218002 9.44577 0.566912 11.1999C0.915822 12.9539 1.77704 14.5652 3.04167 15.8298C4.3063 17.0944 5.91753 17.9557 7.67162 18.3046C9.42571 18.6535 11.2439 18.4744 12.8962 17.79C14.5485 17.1056 15.9608 15.9466 16.9544 14.4595C17.948 12.9725 18.4783 11.2242 18.4783 9.43574C18.4756 7.03833 17.522 4.73989 15.8268 3.04467C14.1316 1.34945 11.8331 0.395878 9.43574 0.393161Z" fill="#F2F2F2"/>
<path id="Vector_2" d="M73.5196 13.3674C72.5865 13.3674 71.6744 13.0907 70.8985 12.5723C70.1227 12.0539 69.518 11.317 69.1609 10.455C68.8038 9.59288 68.7104 8.64428 68.8924 7.7291C69.0745 6.81392 69.5238 5.97328 70.1836 5.31347C70.8434 4.65367 71.684 4.20434 72.5992 4.0223C73.5144 3.84026 74.463 3.93368 75.3251 4.29077C76.1872 4.64785 76.924 5.25256 77.4424 6.0284C77.9608 6.80425 78.2375 7.7164 78.2375 8.64951C78.2361 9.90033 77.7385 11.0995 76.8541 11.984C75.9696 12.8684 74.7705 13.366 73.5196 13.3674ZM73.5196 4.3248C72.6643 4.3248 71.8281 4.57844 71.1169 5.05364C70.4057 5.52885 69.8514 6.20428 69.5241 6.99451C69.1968 7.78475 69.1111 8.65431 69.278 9.49322C69.4449 10.3321 69.8568 11.1027 70.4616 11.7075C71.0664 12.3124 71.837 12.7242 72.6759 12.8911C73.5148 13.058 74.3844 12.9723 75.1746 12.645C75.9649 12.3177 76.6403 11.7634 77.1155 11.0522C77.5907 10.341 77.8443 9.50486 77.8443 8.64951C77.843 7.50292 77.387 6.40367 76.5762 5.59291C75.7655 4.78215 74.6662 4.32609 73.5196 4.3248Z" fill="#F2F2F2"/>
<path id="Vector_3" d="M106.742 36.3667C105.692 36.3667 104.666 36.0554 103.793 35.4722C102.921 34.889 102.24 34.06 101.839 33.0902C101.437 32.1204 101.332 31.0532 101.537 30.0236C101.741 28.994 102.247 28.0483 102.989 27.306C103.731 26.5637 104.677 26.0582 105.707 25.8535C106.736 25.6487 107.803 25.7538 108.773 26.1555C109.743 26.5572 110.572 27.2375 111.155 28.1103C111.738 28.9832 112.05 30.0093 112.05 31.0591C112.048 32.4662 111.488 33.8153 110.493 34.8103C109.498 35.8054 108.149 36.3651 106.742 36.3667ZM106.742 26.1446C105.77 26.1446 104.82 26.4328 104.012 26.9729C103.204 27.5129 102.574 28.2804 102.202 29.1784C101.83 30.0764 101.733 31.0645 101.922 32.0178C102.112 32.9711 102.58 33.8468 103.267 34.5341C103.954 35.2214 104.83 35.6895 105.783 35.8791C106.737 36.0687 107.725 35.9714 108.623 35.5994C109.521 35.2275 110.288 34.5976 110.828 33.7894C111.368 32.9812 111.657 32.0311 111.657 31.0591C111.655 29.7561 111.137 28.507 110.216 27.5856C109.294 26.6643 108.045 26.1461 106.742 26.1446Z" fill="#F2F2F2"/>
<path id="Vector_4" d="M149.804 90.0328H105.574C105.521 90.0328 105.471 90.0121 105.435 89.9752C105.398 89.9384 105.377 89.8884 105.377 89.8362C105.377 89.7841 105.398 89.7341 105.435 89.6972C105.471 89.6604 105.521 89.6396 105.574 89.6396H149.804C149.856 89.6396 149.906 89.6604 149.943 89.6972C149.979 89.7341 150 89.7841 150 89.8362C150 89.8884 149.979 89.9384 149.943 89.9752C149.906 90.0121 149.856 90.0328 149.804 90.0328Z" fill="#CCCCCC"/>
<path id="Vector_5" d="M125.99 30.1251C128.657 30.1251 130.818 27.9634 130.818 25.2969C130.818 22.6304 128.657 20.4688 125.99 20.4688C123.324 20.4688 121.162 22.6304 121.162 25.2969C121.162 27.9634 123.324 30.1251 125.99 30.1251Z" fill="#FFB8B8"/>
<path id="Vector_6" d="M126.491 82.6301L124.209 83.405L120.134 74.972L123.502 73.8281L126.491 82.6301Z" fill="#FFB8B8"/>
<path id="Vector_7" d="M122.358 83.3069L126.759 81.8121L127.7 84.583L120.528 87.019C120.404 86.6551 120.354 86.2704 120.379 85.887C120.404 85.5035 120.504 85.1287 120.674 84.784C120.844 84.4393 121.08 84.1314 121.369 83.878C121.658 83.6245 121.994 83.4305 122.358 83.3069Z" fill="#2F2E41"/>
<path id="Vector_8" d="M131.647 87.3935L129.24 87.5144L127.628 78.2881L131.18 78.1094L131.647 87.3935Z" fill="#FFB8B8"/>
<path id="Vector_9" d="M127.486 86.9132L132.128 86.6799L132.275 89.6026L124.71 89.9828C124.691 89.599 124.748 89.2151 124.877 88.8531C125.006 88.4911 125.205 88.1581 125.463 87.8731C125.72 87.588 126.032 87.3566 126.379 87.1919C126.726 87.0272 127.102 86.9325 127.486 86.9132Z" fill="#2F2E41"/>
<path id="Vector_10" d="M117.324 56.7383C117.539 56.5461 117.71 56.309 117.825 56.0435C117.939 55.7781 117.994 55.4908 117.985 55.202C117.976 54.9131 117.904 54.6297 117.774 54.3717C117.644 54.1137 117.459 53.8873 117.232 53.7086L119.526 47.0693L115.99 47.9732L114.353 54.1393C114.078 54.5407 113.96 55.0291 114.021 55.5118C114.082 55.9945 114.318 56.438 114.684 56.7584C115.05 57.0787 115.521 57.2536 116.007 57.2499C116.494 57.2462 116.962 57.0642 117.324 56.7383Z" fill="#FFB8B8"/>
<path id="Vector_11" d="M131.422 84.6117C131.391 84.6117 131.36 84.61 131.329 84.6067L128.061 84.2608C127.861 84.2405 127.673 84.1518 127.53 84.0096C127.387 83.8674 127.297 83.6803 127.276 83.4797L124.751 60.9696L122.923 67.1294L126.33 79.2352C126.365 79.3585 126.372 79.4878 126.352 79.6143C126.332 79.7408 126.284 79.8614 126.213 79.9677C126.142 80.074 126.048 80.1636 125.939 80.2303C125.829 80.2969 125.707 80.339 125.579 80.3536L122.268 80.7343C122.057 80.7576 121.844 80.7047 121.669 80.5852C121.494 80.4657 121.367 80.2874 121.311 80.0826L117.693 66.4592C117.663 66.3472 117.656 66.2304 117.671 66.1156L119.297 53.8887L131.429 54.8615L132.306 83.7C132.31 83.8184 132.29 83.9363 132.247 84.0468C132.204 84.1572 132.139 84.2579 132.057 84.343C131.974 84.428 131.876 84.4956 131.767 84.5418C131.658 84.5879 131.54 84.6117 131.422 84.6117Z" fill="#2F2E41"/>
<path id="Vector_12" d="M127.228 56.952C123.164 56.952 118.562 55.3816 118.284 55.2851L118.203 55.2572L122.788 31.73L122.873 31.7334C124.69 31.8072 129.648 31.845 129.698 31.8454L129.787 31.846L131.699 52.6083L132.04 55.6452L131.998 55.6791C130.829 56.6243 129.085 56.952 127.228 56.952Z" fill="#6C63FF"/>
<path id="Vector_13" d="M119.886 54.9192L117.018 53.764L118.479 36.083C118.515 35.6471 118.647 35.2247 118.867 34.8469C119.088 34.4692 119.39 34.1457 119.752 33.9003L121.261 32.8733C121.218 32.7281 121.211 32.5748 121.239 32.4261C121.267 32.2773 121.33 32.1374 121.422 32.0177C121.515 31.8979 121.635 31.8019 121.772 31.7374C121.909 31.6729 122.059 31.6419 122.21 31.6467L122.642 31.6606C122.724 31.6052 122.821 31.576 122.921 31.5767C123.02 31.5774 123.116 31.608 123.198 31.6646C123.279 31.7211 123.341 31.801 123.376 31.8936C123.412 31.9862 123.418 32.0873 123.395 32.1836L123.3 34.0569L119.886 54.9192Z" fill="#2F2E41"/>
<path id="Vector_14" d="M118.439 51.7491L114.694 51.5914L115.907 43.7888L116.913 36.4469C116.932 36.1833 117.011 35.9275 117.144 35.6987C117.276 35.47 117.459 35.2741 117.678 35.1258C117.897 34.9775 118.146 34.8805 118.408 34.8422C118.669 34.8039 118.936 34.8253 119.188 34.9046C119.581 35.0279 119.918 35.2854 120.14 35.6322C120.362 35.9789 120.455 36.3927 120.402 36.801L119.384 44.756L118.439 51.7491Z" fill="#2F2E41"/>
<path id="Vector_15" d="M124.368 55.1896L124.342 55.1108C124.325 55.0569 122.637 49.6437 125.461 43.1841L126.877 36.1416L128.087 31.7195C128.11 31.6405 128.15 31.5679 128.206 31.5074C128.262 31.4469 128.331 31.4002 128.408 31.371C128.498 31.3398 128.596 31.3358 128.688 31.3596C128.781 31.3833 128.864 31.4339 128.928 31.5048C129.772 31.2572 130.679 31.3479 131.456 31.7576L133.156 32.6528C133.533 32.8518 133.835 33.1706 134.012 33.5592C134.189 33.9478 134.232 34.3842 134.135 34.8L131.812 44.712L132.941 53.9702L124.368 55.1896Z" fill="#2F2E41"/>
<path id="Vector_16" d="M126.84 51.3731C127.128 51.4043 127.418 51.3721 127.692 51.2788C127.965 51.1855 128.215 51.0334 128.423 50.8332C128.632 50.633 128.794 50.3895 128.898 50.1199C129.002 49.8503 129.046 49.5611 129.026 49.2728L134.286 45.3765L132.447 44.5049L126.775 47.4264C126.293 47.4917 125.852 47.7316 125.535 48.1006C125.218 48.4696 125.047 48.9421 125.055 49.4286C125.063 49.9151 125.249 50.3817 125.578 50.7401C125.907 51.0985 126.356 51.3237 126.84 51.3731Z" fill="#FFB8B8"/>
<path id="Vector_17" d="M130.138 49.629L128.361 46.3129L132.742 43.4295L130.605 35.761C130.519 35.454 130.497 35.1326 130.542 34.8169C130.586 34.5013 130.695 34.1981 130.861 33.9263C131.028 33.6546 131.248 33.4201 131.51 33.2375C131.771 33.0549 132.067 32.9282 132.38 32.8652C132.932 32.7551 133.505 32.8492 133.993 33.1299C134.481 33.4106 134.851 33.8588 135.033 34.3914L137.918 42.8709C137.978 43.0456 137.981 43.2345 137.928 43.4112C137.874 43.5879 137.767 43.7435 137.621 43.8562L130.138 49.629Z" fill="#2F2E41"/>
<path id="Vector_18" d="M126.332 26.3209C125.753 26.3962 125.317 25.8041 125.114 25.2567C124.912 24.7093 124.757 24.072 124.254 23.7763C123.567 23.3723 122.687 23.8582 121.901 23.7249C121.013 23.5744 120.436 22.6334 120.391 21.7341C120.345 20.8347 120.703 19.9697 121.054 19.1405L121.177 20.171C121.161 19.8218 121.234 19.4741 121.39 19.1614C121.547 18.8486 121.781 18.5812 122.07 18.3848L121.912 19.8969C121.946 19.6883 122.02 19.4883 122.131 19.3086C122.242 19.1288 122.388 18.9728 122.559 18.8494C122.731 18.726 122.925 18.6377 123.131 18.5896C123.337 18.5414 123.55 18.5344 123.758 18.5689L123.734 19.4699C124.759 19.3479 125.793 19.2258 126.822 19.3187C127.85 19.4116 128.886 19.737 129.666 20.4144C130.832 21.4276 131.257 23.0959 131.114 24.634C130.971 26.1721 130.337 27.617 129.675 29.0128C129.508 29.364 129.278 29.7603 128.892 29.805C128.545 29.8452 128.228 29.5552 128.12 29.2231C128.037 28.8823 128.04 28.5261 128.129 28.1869C128.227 27.6685 128.35 27.1386 128.258 26.6191C128.166 26.0996 127.793 25.5862 127.269 25.5226C126.745 25.4589 126.209 26.0575 126.461 26.521L126.332 26.3209Z" fill="#2F2E41"/>
<path id="Vector_19" d="M63.1628 79.3341L61.2834 78.5427L59.9941 69.1211H42.825L41.4275 78.5042L39.7461 79.3449C39.6656 79.3851 39.6011 79.4514 39.563 79.5328C39.5249 79.6143 39.5154 79.7062 39.5361 79.7938C39.5567 79.8813 39.6064 79.9593 39.6769 80.0151C39.7474 80.071 39.8347 80.1013 39.9247 80.1013H63.0079C63.1001 80.1013 63.1894 80.0694 63.2608 80.0111C63.3321 79.9527 63.3811 79.8714 63.3993 79.7811C63.4175 79.6907 63.404 79.5968 63.3609 79.5153C63.3178 79.4339 63.2478 79.3698 63.1628 79.3341Z" fill="#E6E6E6"/>
<path id="Vector_20" d="M93.6735 70.3749H9.33417C8.89166 70.3739 8.46762 70.1974 8.15507 69.8842C7.84252 69.5709 7.667 69.1465 7.66699 68.704V56.811H95.3407V68.704C95.3407 69.1465 95.1651 69.5709 94.8526 69.8842C94.54 70.1974 94.116 70.3739 93.6735 70.3749Z" fill="#CCCCCC"/>
<path id="Vector_21" d="M95.4286 62.4319H7.58984V11.5445C7.59046 11.0105 7.80289 10.4985 8.18052 10.1209C8.55815 9.74327 9.07014 9.53087 9.60418 9.53027H93.4143C93.9483 9.53087 94.4604 9.74328 94.838 10.1209C95.2156 10.4985 95.428 11.0105 95.4286 11.5445V62.4319Z" fill="#3F3D56"/>
<path id="Vector_22" d="M90.1824 58.7386H12.8361C12.4244 58.7381 12.0297 58.5744 11.7386 58.2833C11.4474 57.9921 11.2837 57.5974 11.2832 57.1857V14.7766C11.2837 14.3649 11.4474 13.9701 11.7385 13.679C12.0297 13.3879 12.4244 13.2241 12.8361 13.2236H90.1824C90.5941 13.2241 90.9888 13.3879 91.2799 13.679C91.5711 13.9701 91.7348 14.3649 91.7353 14.7766V57.1857C91.7348 57.5974 91.5711 57.9921 91.2799 58.2833C90.9888 58.5744 90.5941 58.7381 90.1824 58.7386Z" fill="#E0E0E0"/>
<path id="Vector_23" d="M89.454 80.1998H14.5579C14.5058 80.1998 14.4558 80.1791 14.4189 80.1422C14.382 80.1054 14.3613 80.0554 14.3613 80.0032C14.3613 79.9511 14.382 79.9011 14.4189 79.8642C14.4558 79.8274 14.5058 79.8066 14.5579 79.8066H89.454C89.5061 79.8066 89.5562 79.8274 89.593 79.8642C89.6299 79.9011 89.6506 79.9511 89.6506 80.0032C89.6506 80.0554 89.6299 80.1054 89.593 80.1422C89.5562 80.1791 89.5061 80.1998 89.454 80.1998Z" fill="#CCCCCC"/>
<path id="Vector_24" d="M82.9154 53.4689H20.1019C20.0497 53.4689 19.9997 53.4482 19.9628 53.4113C19.926 53.3745 19.9053 53.3245 19.9053 53.2723V23.1658C19.9053 23.1137 19.926 23.0637 19.9628 23.0268C19.9997 22.99 20.0497 22.9692 20.1019 22.9692C20.154 22.9692 20.204 22.99 20.2408 23.0268C20.2777 23.0637 20.2984 23.1137 20.2984 23.1658V53.0758H82.9154C82.9675 53.0758 83.0175 53.0965 83.0544 53.1333C83.0913 53.1702 83.112 53.2202 83.112 53.2723C83.112 53.3245 83.0913 53.3745 83.0544 53.4113C83.0175 53.4482 82.9675 53.4689 82.9154 53.4689Z" fill="#3F3D56"/>
<path id="Vector_25" d="M33.5223 51.3067H27.8091C27.6544 51.3066 27.5061 51.245 27.3967 51.1356C27.2873 51.0263 27.2258 50.8779 27.2256 50.7232V42.8477C27.2258 42.693 27.2873 42.5446 27.3967 42.4352C27.5061 42.3259 27.6544 42.2643 27.8091 42.2642H33.5223C33.677 42.2643 33.8253 42.3259 33.9347 42.4352C34.0441 42.5446 34.1056 42.693 34.1058 42.8477V50.7232C34.1056 50.8779 34.0441 51.0263 33.9347 51.1356C33.8253 51.245 33.677 51.3066 33.5223 51.3067Z" fill="#6C63FF"/>
<path id="Vector_26" d="M43.9412 51.307H38.2281C38.0734 51.3068 37.9251 51.2453 37.8157 51.1359C37.7063 51.0265 37.6447 50.8782 37.6445 50.7235V35.3779C37.6447 35.2232 37.7063 35.0749 37.8157 34.9655C37.9251 34.8561 38.0734 34.7946 38.2281 34.7944H43.9412C44.0959 34.7946 44.2442 34.8561 44.3536 34.9655C44.463 35.0749 44.5246 35.2232 44.5248 35.3779V50.7235C44.5246 50.8782 44.463 51.0265 44.3536 51.1359C44.2442 51.2453 44.0959 51.3068 43.9412 51.307Z" fill="#6C63FF"/>
<path id="Vector_27" d="M54.3602 51.3067H48.647C48.4923 51.3066 48.344 51.245 48.2346 51.1356C48.1252 51.0263 48.0637 50.8779 48.0635 50.7232V42.8477C48.0637 42.693 48.1252 42.5446 48.2346 42.4352C48.344 42.3259 48.4923 42.2643 48.647 42.2642H54.3602C54.5149 42.2643 54.6632 42.3259 54.7726 42.4352C54.882 42.5446 54.9435 42.693 54.9437 42.8477V50.7232C54.9435 50.8779 54.882 51.0263 54.7726 51.1356C54.6632 51.245 54.5149 51.3066 54.3602 51.3067Z" fill="#6C63FF"/>
<path id="Vector_28" d="M64.7781 51.307H59.065C58.9138 51.3103 58.7675 51.2535 58.6581 51.1491C58.5487 51.0447 58.4852 50.9011 58.4814 50.75V32.4029C58.4852 32.2517 58.5487 32.1082 58.6581 32.0038C58.7675 31.8994 58.9138 31.8426 59.065 31.8458H64.7781C64.9293 31.8426 65.0756 31.8994 65.185 32.0038C65.2944 32.1082 65.3579 32.2517 65.3617 32.4029V50.75C65.3579 50.9011 65.2944 51.0447 65.185 51.1491C65.0756 51.2535 64.9293 51.3103 64.7781 51.307Z" fill="#6C63FF"/>
<path id="Vector_29" d="M75.1971 51.3069H69.4839C69.3292 51.3067 69.1809 51.2452 69.0715 51.1358C68.9621 51.0264 68.9006 50.8781 68.9004 50.7234V27.1216C68.9006 26.9669 68.9621 26.8186 69.0715 26.7092C69.1809 26.5998 69.3292 26.5383 69.4839 26.5381H75.1971C75.3518 26.5383 75.5001 26.5998 75.6095 26.7092C75.7189 26.8186 75.7804 26.9669 75.7806 27.1216V50.7234C75.7804 50.8781 75.7189 51.0264 75.6095 51.1358C75.5001 51.2452 75.3518 51.3067 75.1971 51.3069Z" fill="#6C63FF"/>
<path id="Vector_30" d="M30.6658 39.9053C31.3172 39.9053 31.8453 39.3773 31.8453 38.7259C31.8453 38.0745 31.3172 37.5464 30.6658 37.5464C30.0144 37.5464 29.4863 38.0745 29.4863 38.7259C29.4863 39.3773 30.0144 39.9053 30.6658 39.9053Z" fill="#3F3D56"/>
<path id="Vector_31" d="M41.0847 32.2388C41.7361 32.2388 42.2642 31.7108 42.2642 31.0593C42.2642 30.4079 41.7361 29.8799 41.0847 29.8799C40.4333 29.8799 39.9053 30.4079 39.9053 31.0593C39.9053 31.7108 40.4333 32.2388 41.0847 32.2388Z" fill="#3F3D56"/>
<path id="Vector_32" d="M51.5037 39.9053C52.1551 39.9053 52.6832 39.3773 52.6832 38.7259C52.6832 38.0745 52.1551 37.5464 51.5037 37.5464C50.8523 37.5464 50.3242 38.0745 50.3242 38.7259C50.3242 39.3773 50.8523 39.9053 51.5037 39.9053Z" fill="#3F3D56"/>
<path id="Vector_33" d="M61.9217 28.504C62.5731 28.504 63.1011 27.9759 63.1011 27.3245C63.1011 26.6731 62.5731 26.145 61.9217 26.145C61.2703 26.145 60.7422 26.6731 60.7422 27.3245C60.7422 27.9759 61.2703 28.504 61.9217 28.504Z" fill="#3F3D56"/>
<path id="Vector_34" d="M72.3406 24.1792C72.992 24.1792 73.5201 23.6512 73.5201 22.9998C73.5201 22.3484 72.992 21.8203 72.3406 21.8203C71.6892 21.8203 71.1611 22.3484 71.1611 22.9998C71.1611 23.6512 71.6892 24.1792 72.3406 24.1792Z" fill="#3F3D56"/>
<path id="Vector_35" d="M51.5278 38.9902L41.0844 31.168L30.7837 38.8833L30.5479 38.5687L41.0844 30.6767L51.4783 38.4618L61.8067 27.159L61.8481 27.1421L72.2668 22.9443L72.4138 23.309L62.0367 27.49L51.5278 38.9902Z" fill="#3F3D56"/>
</g>
<rect x="0.5" y="0.5" width="149" height="89.0326" stroke="#D0D5DD"/>
</g>
<defs>
<clipPath id="clip0_1_12412">
<rect width="150" height="90.0326" fill="white"/>
</clipPath>
</defs>
</svg>
