<svg width="150" height="82" viewBox="0 0 150 82" fill="none" xmlns="http://www.w3.org/2000/svg">
<g id="undraw_payments_re_77x0">
<g clip-path="url(#clip0_1_12577)">
<rect y="0.109375" width="150" height="81.22" fill="white"/>
<path id="Vector" d="M81.3973 43.0742V43.2506C81.3971 44.8704 80.7533 46.4239 79.6077 47.5691C78.4621 48.7143 76.9085 49.3576 75.2886 49.3573H6.33913C4.71957 49.3572 3.1664 48.7137 2.0212 47.5685C0.876007 46.4233 0.232576 44.8701 0.232422 43.2506V43.0742H81.3973Z" fill="#F2F2F2"/>
<path id="Vector_2" d="M14.6537 14.0037C9.67097 15.2344 5.19799 11.4009 4.41699 7.84464L4.7639 7.78263C8.96362 6.85431 13.6517 9.85632 14.6537 14.0037Z" fill="#6C63FF"/>
<path id="Vector_3" d="M135.095 79.8644C133.654 79.2422 133.326 76.9752 134.532 75.9707C135.738 74.9662 137.909 75.6983 138.26 77.2282L136.916 67.612C136.607 65.4012 136.359 62.9298 137.695 61.1415C138.947 59.4669 141.391 58.9303 143.353 59.6512C145.315 60.3721 146.765 62.1704 147.381 64.1682C147.996 66.166 147.851 68.337 147.313 70.3572C146.776 72.3773 145.863 74.2749 144.94 76.1504C143.994 78.0723 142.847 80.1549 140.825 80.8624C138.894 81.5382 135.095 79.8644 135.095 79.8644Z" fill="#F2F2F2"/>
<path id="Vector_4" d="M141.41 59.4687C142.293 62.2257 142.714 65.1101 142.654 68.0046C142.599 70.8862 142.081 73.7403 141.121 76.4579C140.575 77.9996 139.882 79.4857 139.053 80.8959C139.018 80.9622 139.009 81.0399 139.029 81.1126C139.05 81.1852 139.098 81.2471 139.163 81.2852C139.228 81.3232 139.305 81.3345 139.378 81.3166C139.452 81.2987 139.515 81.2531 139.555 81.1893C141.044 78.6463 142.101 75.8746 142.685 72.9866C143.278 70.085 143.396 67.1065 143.036 64.1669C142.834 62.5195 142.477 60.8948 141.97 59.3141C141.856 58.9594 141.295 59.1111 141.41 59.4687Z" fill="#E0E0E0"/>
<path id="Vector_5" d="M134.24 76.3243L138.842 81.16C139.1 81.4317 139.511 81.0201 139.253 80.7489L134.651 75.9132C134.393 75.6416 133.982 76.0532 134.24 76.3243Z" fill="#E0E0E0"/>
<path id="Vector_6" d="M130.331 58.0657C130.167 58.066 130.009 58.0071 129.885 57.8998C127.044 56.0497 124.514 53.7595 122.392 51.1151C122.262 50.9919 122.186 50.8228 122.179 50.6439C122.172 50.4651 122.236 50.2906 122.356 50.158L123.751 48.6177L124.038 48.8779L122.643 50.4182C122.59 50.4767 122.563 50.5539 122.567 50.6327C122.571 50.7116 122.606 50.7857 122.664 50.8387L122.685 50.8601C124.786 53.4809 127.291 55.7499 130.107 57.5817L130.132 57.6011C130.191 57.654 130.268 57.6816 130.347 57.6777C130.426 57.6738 130.5 57.6387 130.553 57.5802L133.274 54.5748C133.325 54.5189 133.352 54.4459 133.351 54.3705C133.35 54.2951 133.32 54.2229 133.268 54.1686C132.637 53.825 132.022 53.4504 131.439 53.0549L131.656 52.7341C132.236 53.1273 132.848 53.4995 133.476 53.8404L133.513 53.8671C133.58 53.9275 133.634 54.0005 133.673 54.0818C133.711 54.1631 133.733 54.2512 133.738 54.3411C133.742 54.431 133.729 54.5209 133.699 54.6056C133.668 54.6904 133.622 54.7683 133.561 54.835L130.84 57.8405C130.78 57.9074 130.707 57.9616 130.625 58.0002C130.544 58.0387 130.456 58.0607 130.366 58.0648C130.354 58.0654 130.343 58.0657 130.331 58.0657Z" fill="#3F3D56"/>
<path id="Vector_7" d="M127.331 53.0063C128.186 53.7796 129.063 54.204 129.292 53.952C129.322 53.9093 129.341 53.8599 129.347 53.8082C129.353 53.7564 129.346 53.704 129.327 53.6555C129.234 53.3702 129.086 53.1061 128.891 52.8784C128.131 52.3377 127.393 51.7543 126.676 51.1283C126.451 51.0547 126.278 51.0566 126.195 51.1496C126.183 51.1629 126.174 51.178 126.166 51.1942C126.023 51.4869 126.521 52.2718 127.331 53.0063Z" fill="#6C63FF"/>
<path id="Vector_8" d="M122.18 46.7756C122.187 46.952 122.263 47.1185 122.393 47.2387C123.541 48.6576 124.803 49.9805 126.166 51.1943C127.164 52.0842 128.22 52.9065 129.327 53.6556C129.511 53.7816 129.697 53.9037 129.885 54.0238C130.009 54.1318 130.167 54.1911 130.331 54.1905C130.343 54.1905 130.354 54.1885 130.366 54.1885C130.456 54.1844 130.544 54.1624 130.626 54.1238C130.707 54.0852 130.78 54.0308 130.841 53.9637L133.562 50.9598C133.684 50.8248 133.747 50.6469 133.738 50.4652C133.729 50.2835 133.648 50.1129 133.513 49.9908L133.476 49.9636C130.506 48.359 127.967 46.0606 126.075 43.2638L126.046 43.229C125.911 43.107 125.733 43.0435 125.551 43.0526C125.37 43.0617 125.199 43.1426 125.077 43.2774L122.356 46.2814C122.295 46.348 122.249 46.426 122.218 46.5109C122.188 46.5957 122.175 46.6856 122.18 46.7756ZM122.567 46.7562C122.565 46.7174 122.571 46.6786 122.584 46.6421C122.597 46.6055 122.617 46.5718 122.643 46.543L125.364 43.5371C125.39 43.5079 125.422 43.4844 125.458 43.4677C125.493 43.4511 125.532 43.4417 125.571 43.4402C125.642 43.4359 125.713 43.458 125.769 43.5022C127.688 46.3337 130.26 48.6627 133.267 50.2931C133.319 50.3471 133.349 50.4189 133.351 50.4941C133.352 50.5693 133.325 50.6422 133.275 50.6981L130.552 53.704C130.526 53.7333 130.495 53.757 130.459 53.7737C130.424 53.7903 130.386 53.7996 130.346 53.8009C130.268 53.8048 130.19 53.7777 130.131 53.7254L130.106 53.706C129.695 53.4424 129.29 53.1666 128.891 52.8784C128.131 52.3377 127.393 51.7544 126.676 51.1284C125.228 49.8653 123.892 48.4789 122.684 46.9849L122.664 46.9636C122.606 46.9097 122.571 46.8353 122.567 46.7562Z" fill="#3F3D56"/>
<path id="Vector_9" d="M129.292 50.0766C129.52 49.8251 129.011 48.9936 128.156 48.2193C127.301 47.445 126.423 47.0212 126.196 47.2727C125.968 47.5242 126.476 48.3557 127.331 49.13C128.187 49.9043 129.064 50.3281 129.292 50.0766Z" fill="#6C63FF"/>
<path id="Vector_10" d="M112.194 78.9001L109.818 78.8999L108.688 69.7354L112.194 69.7355L112.194 78.9001Z" fill="#FFB8B8"/>
<path id="Vector_11" d="M112.8 81.2036L105.139 81.2033V81.1064C105.139 80.7148 105.216 80.3271 105.366 79.9653C105.515 79.6035 105.735 79.2748 106.012 78.9979C106.289 78.721 106.618 78.5013 106.979 78.3515C107.341 78.2016 107.729 78.1245 108.121 78.1245H108.121L112.8 78.1247L112.8 81.2036Z" fill="#2F2E41"/>
<path id="Vector_12" d="M119.17 78.9001L116.795 78.8999L115.664 69.7354L119.171 69.7355L119.17 78.9001Z" fill="#FFB8B8"/>
<path id="Vector_13" d="M119.776 81.2036L112.115 81.2033V81.1064C112.115 80.7148 112.192 80.3271 112.342 79.9653C112.492 79.6035 112.712 79.2748 112.989 78.9979C113.266 78.721 113.594 78.5013 113.956 78.3515C114.318 78.2016 114.706 78.1245 115.097 78.1245H115.097L119.777 78.1247L119.776 81.2036Z" fill="#2F2E41"/>
<path id="Vector_14" d="M120.765 41.863L120.198 75.5255C120.196 75.6321 120.172 75.7372 120.128 75.8342C120.084 75.9312 120.02 76.0181 119.941 76.0893C119.861 76.1605 119.768 76.2146 119.667 76.2482C119.566 76.2818 119.459 76.2941 119.353 76.2845L116.572 76.0317C116.39 76.0152 116.219 75.9346 116.091 75.8042C115.962 75.6739 115.884 75.5022 115.87 75.3196L114.242 54.3219C114.238 54.2726 114.216 54.2266 114.179 54.1934C114.142 54.1601 114.094 54.1421 114.045 54.1431C113.995 54.1441 113.948 54.164 113.913 54.1986C113.878 54.2333 113.857 54.2801 113.855 54.3296L113.041 75.808C113.034 76.0084 112.949 76.198 112.804 76.3371C112.66 76.4762 112.467 76.5539 112.267 76.5539H109.285C109.088 76.5539 108.898 76.4785 108.754 76.3433C108.61 76.208 108.523 76.023 108.511 75.8259L106.424 41.6692L118.827 38.5684L120.765 41.863Z" fill="#2F2E41"/>
<path id="Vector_15" d="M111.769 10.2539C114.398 10.2539 116.529 8.12279 116.529 5.4939C116.529 2.86502 114.398 0.733887 111.769 0.733887C109.14 0.733887 107.009 2.86502 107.009 5.4939C107.009 8.12279 109.14 10.2539 111.769 10.2539Z" fill="#FFB8B8"/>
<path id="Vector_16" d="M105.999 42.8643C105.917 42.7846 105.851 42.6894 105.806 42.5841C105.76 42.4788 105.736 42.3655 105.735 42.2509L105.414 19.2963C105.395 18.1286 105.746 16.9849 106.417 16.0293C107.089 15.0738 108.046 14.3557 109.151 13.9781C109.597 11.9549 111.97 11.7014 113.354 11.7317C113.699 11.7392 114.038 11.8298 114.341 11.9958C114.643 12.1619 114.902 12.3986 115.094 12.6858L116.086 14.1736L118.272 15.4551C119.283 16.0456 120.082 16.9422 120.551 18.0156C121.02 19.089 121.136 20.2837 120.882 21.4274L120.546 22.9583C119.361 28.377 119.473 33.999 120.875 39.3658L121.552 41.9481C121.587 42.0825 121.59 42.2235 121.56 42.3592C121.529 42.4949 121.467 42.6214 121.378 42.7282C121.289 42.8349 121.176 42.9188 121.047 42.9728C120.919 43.0268 120.78 43.0495 120.642 43.0388L119.855 42.9782C119.651 42.9627 119.459 42.8758 119.312 42.7327C119.166 42.5896 119.074 42.3994 119.054 42.1956L118.924 40.8939C118.922 40.87 118.91 40.8478 118.893 40.8317C118.875 40.8155 118.852 40.8066 118.828 40.8066C118.803 40.8066 118.78 40.8155 118.762 40.8317C118.745 40.8478 118.733 40.87 118.731 40.8939L118.605 42.1542C118.584 42.3671 118.485 42.5647 118.327 42.7095C118.17 42.8543 117.965 42.9361 117.751 42.9394L106.62 43.1107C106.616 43.1107 106.611 43.1109 106.607 43.1109C106.38 43.1113 106.162 43.0228 105.999 42.8643Z" fill="#3F3D56"/>
<path id="Vector_17" d="M112.141 8.23792C112.161 8.9108 112.628 9.30009 113.201 9.65254C113.775 10.005 114.445 10.1578 115.102 10.3052C115.19 10.3521 115.289 10.3754 115.389 10.3729C115.489 10.3705 115.586 10.3424 115.672 10.2912C115.758 10.2401 115.829 10.1677 115.879 10.0811C115.929 9.99444 115.955 9.89645 115.956 9.79657L116.558 7.50518C116.771 6.77322 116.926 6.0256 117.022 5.26927C117.167 3.81397 116.822 2.24844 115.806 1.19623C114.791 0.144012 113.029 -0.22977 111.812 0.580944C110.367 -1.26402 103.764 2.8122 105.393 4.09515C105.683 4.32338 106.126 4.03458 106.494 4.00659C106.862 3.9786 107.274 4.04329 107.507 4.32873C107.813 4.70165 107.68 5.25715 107.805 5.72235C107.857 5.88603 107.941 6.0378 108.052 6.16889C108.163 6.29998 108.299 6.40781 108.452 6.48615C108.605 6.56449 108.772 6.6118 108.943 6.62534C109.114 6.63889 109.286 6.61841 109.45 6.56508C109.754 6.41523 110.04 6.23132 110.302 6.01688C110.584 5.82897 110.941 5.69013 111.258 5.80864C111.677 5.96486 111.826 6.47734 111.864 6.92254C111.927 7.36656 112.02 7.80595 112.141 8.23792Z" fill="#2F2E41"/>
<path id="Vector_18" opacity="0.2" d="M111.03 20.9951L110.254 30.4915L106.185 40.3755L112.192 30.6853L111.03 20.9951Z" fill="black"/>
<path id="Vector_19" d="M105.232 44.0565C105.454 43.8782 105.635 43.6532 105.76 43.3976C105.886 43.142 105.955 42.8619 105.96 42.5771C105.966 42.2922 105.91 42.0095 105.794 41.749C105.679 41.4884 105.508 41.2562 105.294 41.0689L107.887 34.647L104.359 35.3593L102.438 41.3485C102.147 41.7299 102.006 42.2047 102.042 42.6831C102.077 43.1614 102.288 43.61 102.632 43.9438C102.976 44.2776 103.431 44.4734 103.911 44.4942C104.39 44.515 104.86 44.3593 105.232 44.0565Z" fill="#FFB8B8"/>
<path id="Vector_20" d="M105.044 41.224L103.047 40.5043C102.841 40.4291 102.671 40.2795 102.57 40.0851C102.469 39.8907 102.445 39.6656 102.502 39.454L105.796 27.3956L106.298 16.4976C106.313 16.1686 106.393 15.846 106.534 15.5484C106.675 15.2508 106.874 14.9842 107.119 14.7641C107.364 14.5439 107.65 14.3747 107.961 14.2662C108.272 14.1577 108.601 14.1121 108.93 14.132C109.259 14.1519 109.58 14.237 109.876 14.3823C110.171 14.5275 110.435 14.7301 110.651 14.9782C110.868 15.2263 111.033 15.515 111.137 15.8274C111.241 16.1399 111.282 16.4699 111.257 16.7982L110.36 28.7314L106.163 40.6926C106.099 40.8733 105.978 41.0281 105.817 41.1331C105.657 41.2382 105.467 41.2876 105.276 41.2739C105.197 41.2678 105.119 41.251 105.044 41.224Z" fill="#3F3D56"/>
<path id="Vector_21" d="M125.623 44.6863C125.759 44.4361 125.839 44.159 125.856 43.8747C125.874 43.5903 125.829 43.3055 125.725 43.0404C125.62 42.7753 125.459 42.5363 125.252 42.3402C125.046 42.1441 124.799 41.9957 124.528 41.9055L124.447 34.9805L121.466 36.997L122 43.264C121.879 43.728 121.932 44.2205 122.149 44.6481C122.367 45.0757 122.733 45.4087 123.18 45.584C123.626 45.7594 124.121 45.7648 124.572 45.5993C125.022 45.4339 125.396 45.109 125.623 44.6863Z" fill="#FFB8B8"/>
<path id="Vector_22" d="M124.358 42.1454L122.238 42.2506C122.019 42.2604 121.804 42.188 121.636 42.0475C121.468 41.907 121.359 41.7087 121.33 41.4916L119.723 29.095L115.988 18.8448C115.875 18.5354 115.825 18.2067 115.841 17.8778C115.856 17.5489 115.937 17.2263 116.078 16.9288C116.219 16.6313 116.418 16.3649 116.663 16.145C116.908 15.9251 117.195 15.7561 117.506 15.6478C117.817 15.5396 118.146 15.4942 118.475 15.5144C118.803 15.5346 119.125 15.62 119.42 15.7655C119.715 15.911 119.979 16.1138 120.195 16.362C120.412 16.6103 120.576 16.8991 120.68 17.2116L124.45 28.5691L125.185 41.224C125.196 41.4153 125.144 41.6049 125.036 41.7635C124.929 41.9222 124.772 42.0412 124.591 42.1021C124.515 42.127 124.437 42.1416 124.358 42.1454Z" fill="#3F3D56"/>
<path id="Vector_23" d="M149.806 81.3017H75.9672C75.9158 81.3017 75.8665 81.2812 75.8302 81.2449C75.7938 81.2086 75.7734 81.1593 75.7734 81.1079C75.7734 81.0565 75.7938 81.0072 75.8302 80.9708C75.8665 80.9345 75.9158 80.9141 75.9672 80.9141H149.806C149.858 80.9141 149.907 80.9345 149.943 80.9708C149.98 81.0072 150 81.0565 150 81.1079C150 81.1593 149.98 81.2086 149.943 81.2449C149.907 81.2812 149.858 81.3017 149.806 81.3017Z" fill="#3F3D56"/>
<path id="Vector_24" d="M62.641 39.46C61.5279 39.46 60.6427 39.129 60.0098 38.476C58.5792 37.0002 58.6688 34.1555 58.7408 31.8697C58.7617 31.2047 58.7815 30.5765 58.7615 30.0504L58.7614 30.0424C58.7664 29.0144 59.1769 28.0299 59.9037 27.3028C60.6304 26.5757 61.6147 26.1648 62.6427 26.1592H71.8708C72.9824 26.1592 73.8667 26.4897 74.4993 27.1418C75.9298 28.6165 75.8412 31.4605 75.77 33.7457C75.7492 34.4121 75.7296 35.0416 75.75 35.5687C75.7464 36.5982 75.3364 37.5847 74.6092 38.3134C73.882 39.0422 72.8964 39.4542 71.8669 39.46H62.641ZM59.149 30.0397C59.1692 30.5784 59.1493 31.2116 59.1282 31.8819C59.0585 34.0945 58.9718 36.8483 60.2881 38.2062C60.8531 38.7891 61.6227 39.0724 62.641 39.0724H71.8663C72.7922 39.0675 73.6787 38.6975 74.3333 38.0427C74.9879 37.388 75.3578 36.5014 75.3625 35.5756C75.3418 35.043 75.3616 34.407 75.3826 33.7336C75.4515 31.5215 75.5373 28.7684 74.2211 27.4117C73.6565 26.8297 72.8876 26.5468 71.8708 26.5468H62.6432C61.7183 26.5519 60.8328 26.9216 60.1786 27.5755C59.5245 28.2294 59.1545 29.1148 59.149 30.0397Z" fill="#3F3D56"/>
<path id="Vector_25" d="M12.615 14.3602C10.9969 14.3504 9.41396 13.8868 8.04626 13.022C6.04257 11.777 4.52966 9.78292 4.09796 7.81829L4.05469 7.62137L4.59616 7.52447C8.85852 6.58374 13.6795 9.61524 14.7123 13.8883L14.7576 14.0757L14.5704 14.1219C13.9307 14.2803 13.274 14.3603 12.615 14.3602ZM4.52342 7.93129C4.9885 9.73353 6.40002 11.5427 8.25084 12.6928C10.0403 13.8381 12.2089 14.2323 14.287 13.7903C13.2065 9.80923 8.68174 7.01564 4.67607 7.90386L4.52342 7.93129Z" fill="#3F3D56"/>
<path id="Vector_26" d="M7.23768 36.3847C5.96969 36.3847 4.93955 35.8173 4.33476 34.7823C3.99578 34.1801 3.8176 33.5007 3.81738 32.8097C3.81717 32.1187 3.99493 31.4392 4.33353 30.8368C4.94799 29.7841 6.0027 29.213 7.30527 29.2329H19.6009C20.8991 29.2164 21.9545 29.7849 22.5694 30.8389C22.908 31.4412 23.0859 32.1205 23.0858 32.8114C23.0857 33.5023 22.9078 34.1816 22.569 34.7838C21.9544 35.8353 20.8992 36.3969 19.598 36.3843H7.30212C7.28057 36.3846 7.25909 36.3847 7.23768 36.3847ZM7.24487 29.6201C6.11408 29.6201 5.20065 30.1201 4.66829 31.0322C4.36324 31.5749 4.20311 32.187 4.20331 32.8096C4.20352 33.4322 4.36405 34.0442 4.66945 34.5867C5.21079 35.5133 6.14292 36.0148 7.29921 35.9967H19.6009C20.7584 36.0151 21.6934 35.5138 22.2344 34.5882C22.5395 34.0456 22.6998 33.4337 22.6999 32.8112C22.6999 32.1888 22.5397 31.5768 22.2346 31.0342C21.6933 30.1063 20.7581 29.6066 19.6036 29.6205H7.3012C7.28241 29.6203 7.26354 29.6201 7.24487 29.6201Z" fill="#3F3D56"/>
<path id="Vector_27" d="M65.7963 30.7676H61.9202C61.6632 30.7676 61.4167 30.6655 61.235 30.4838C61.0533 30.3021 60.9512 30.0556 60.9512 29.7986C60.9512 29.5416 61.0533 29.2951 61.235 29.1134C61.4167 28.9317 61.6632 28.8296 61.9202 28.8296H65.7963C66.0533 28.8296 66.2997 28.9317 66.4815 29.1134C66.6632 29.2951 66.7653 29.5416 66.7653 29.7986C66.7653 30.0556 66.6632 30.3021 66.4815 30.4838C66.2997 30.6655 66.0533 30.7676 65.7963 30.7676Z" fill="#6C63FF"/>
<path id="Vector_28" d="M65.7963 33.8687H61.9202C61.6632 33.8687 61.4167 33.7666 61.235 33.5849C61.0533 33.4032 60.9512 33.1567 60.9512 32.8997C60.9512 32.6427 61.0533 32.3962 61.235 32.2145C61.4167 32.0328 61.6632 31.9307 61.9202 31.9307H65.7963C66.0533 31.9307 66.2997 32.0328 66.4815 32.2145C66.6632 32.3962 66.7653 32.6427 66.7653 32.8997C66.7653 33.1567 66.6632 33.4032 66.4815 33.5849C66.2997 33.7666 66.0533 33.8687 65.7963 33.8687Z" fill="#6C63FF"/>
<path id="Vector_29" d="M65.7963 36.9693H61.9202C61.6632 36.9693 61.4167 36.8672 61.235 36.6855C61.0533 36.5037 60.9512 36.2573 60.9512 36.0003C60.9512 35.7433 61.0533 35.4968 61.235 35.3151C61.4167 35.1333 61.6632 35.0312 61.9202 35.0312H65.7963C66.0533 35.0312 66.2997 35.1333 66.4815 35.3151C66.6632 35.4968 66.7653 35.7433 66.7653 36.0003C66.7653 36.2573 66.6632 36.5037 66.4815 36.6855C66.2997 36.8672 66.0533 36.9693 65.7963 36.9693Z" fill="#6C63FF"/>
<path id="Vector_30" d="M72.5795 30.7676H68.7034C68.4464 30.7676 68.1999 30.6655 68.0182 30.4838C67.8365 30.3021 67.7344 30.0556 67.7344 29.7986C67.7344 29.5416 67.8365 29.2951 68.0182 29.1134C68.1999 28.9317 68.4464 28.8296 68.7034 28.8296H72.5795C72.8365 28.8296 73.0829 28.9317 73.2647 29.1134C73.4464 29.2951 73.5485 29.5416 73.5485 29.7986C73.5485 30.0556 73.4464 30.3021 73.2647 30.4838C73.0829 30.6655 72.8365 30.7676 72.5795 30.7676Z" fill="#6C63FF"/>
<path id="Vector_31" d="M72.5795 33.8687H68.7034C68.4464 33.8687 68.1999 33.7666 68.0182 33.5849C67.8365 33.4032 67.7344 33.1567 67.7344 32.8997C67.7344 32.6427 67.8365 32.3962 68.0182 32.2145C68.1999 32.0328 68.4464 31.9307 68.7034 31.9307H72.5795C72.8365 31.9307 73.0829 32.0328 73.2647 32.2145C73.4464 32.3962 73.5485 32.6427 73.5485 32.8997C73.5485 33.1567 73.4464 33.4032 73.2647 33.5849C73.0829 33.7666 72.8365 33.8687 72.5795 33.8687Z" fill="#6C63FF"/>
<path id="Vector_32" d="M72.5795 36.9693H68.7034C68.4464 36.9693 68.1999 36.8672 68.0182 36.6855C67.8365 36.5037 67.7344 36.2573 67.7344 36.0003C67.7344 35.7433 67.8365 35.4968 68.0182 35.3151C68.1999 35.1333 68.4464 35.0312 68.7034 35.0312H72.5795C72.8365 35.0312 73.0829 35.1333 73.2647 35.3151C73.4464 35.4968 73.5485 35.7433 73.5485 36.0003C73.5485 36.2573 73.4464 36.5037 73.2647 36.6855C73.0829 36.8672 72.8365 36.9693 72.5795 36.9693Z" fill="#6C63FF"/>
<path id="Vector_33" d="M81.3973 16.9961H0.232422V17.3837H81.3973V16.9961Z" fill="#3F3D56"/>
<path id="Vector_34" d="M75.002 49.47H6.39552C4.69991 49.4681 3.0743 48.7936 1.87532 47.5947C0.676342 46.3957 0.00191536 44.7701 0 43.0745V9.74025C0.00191536 8.04464 0.676342 6.41902 1.87532 5.22005C3.0743 4.02107 4.69991 3.34664 6.39552 3.34473H75.002C76.6976 3.34664 78.3232 4.02107 79.5222 5.22005C80.7212 6.41902 81.3956 8.04464 81.3975 9.74025V43.0745C81.3956 44.7701 80.7212 46.3957 79.5222 47.5947C78.3232 48.7936 76.6976 49.4681 75.002 49.47ZM6.39552 3.73233C4.80268 3.73414 3.27559 4.3677 2.14928 5.49401C1.02297 6.62032 0.389417 8.1474 0.387607 9.74025V43.0745C0.389417 44.6673 1.02297 46.1944 2.14928 47.3207C3.27559 48.447 4.80268 49.0806 6.39552 49.0824H75.002C76.5948 49.0806 78.1219 48.447 79.2482 47.3207C80.3745 46.1944 81.0081 44.6673 81.0099 43.0745V9.74025C81.0081 8.1474 80.3745 6.62032 79.2482 5.49401C78.1219 4.3677 76.5948 3.73414 75.002 3.73233H6.39552Z" fill="#3F3D56"/>
</g>
<rect x="0.5" y="0.609375" width="149" height="80.22" stroke="#D0D5DD"/>
</g>
<defs>
<clipPath id="clip0_1_12577">
<rect y="0.109375" width="150" height="81.22" fill="white"/>
</clipPath>
</defs>
</svg>
