<svg width="101" height="79" viewBox="0 0 101 79" fill="none" xmlns="http://www.w3.org/2000/svg">
<g id="undraw_check_boxes_re_v40f" clip-path="url(#clip0_469_2105)">
<path id="Vector" d="M61.9097 70.1221L59.2409 72.5791L61.3619 69.0202C59.6909 65.99 56.958 63.3711 56.958 63.3711C56.958 63.3711 51.2881 68.8033 51.2881 73.0733C51.2881 77.3434 53.8266 78.8343 56.958 78.8343C60.0893 78.8343 62.6278 77.3434 62.6278 73.0733C62.6278 72.1229 62.3465 71.115 61.9097 70.1221Z" fill="#6C63FF"/>
<path id="Vector_2" d="M58.5553 72.7115V72.922C58.5428 75.3686 58.1302 77.2774 57.3206 78.6216C57.3092 78.6414 57.2967 78.6601 57.2852 78.6799L57.1945 78.6247L57.1081 78.5705C58.0062 77.1191 58.324 75.0674 58.3355 72.9335C58.3365 72.8647 58.3376 72.7949 58.3365 72.7251C58.3334 71.8217 58.2782 70.9079 58.1896 70.0201C58.1834 69.9514 58.1761 69.8816 58.1688 69.8118C58.0458 68.6406 57.8687 67.5215 57.6874 66.5493C57.6749 66.4806 57.6613 66.4118 57.6478 66.3441C57.3342 64.6999 57.0143 63.5089 56.9413 63.2453C56.933 63.213 56.9278 63.1953 56.9268 63.1911L57.0257 63.163L57.0268 63.1619L57.1268 63.1338C57.1279 63.138 57.1456 63.1973 57.1747 63.3078C57.2862 63.7204 57.5759 64.8405 57.8604 66.318C57.8729 66.3847 57.8864 66.4535 57.8989 66.5223C58.0469 67.311 58.1917 68.1925 58.3063 69.1178C58.3355 69.3502 58.3615 69.5794 58.3845 69.8055C58.3928 69.8753 58.4001 69.9451 58.4064 70.0139C58.5022 70.9735 58.5519 71.8728 58.5553 72.7115Z" fill="white"/>
<path id="Vector_3" d="M57.8597 66.3178C57.7899 66.3272 57.719 66.3366 57.6471 66.3439C57.4519 66.364 57.2557 66.3741 57.0595 66.3741C56.223 66.3752 55.3969 66.1886 54.6421 65.8281C54.5983 65.8833 54.5546 65.9386 54.5098 65.9948C55.3038 66.3824 56.1759 66.5834 57.0595 66.5825C57.269 66.5825 57.4784 66.5713 57.6867 66.5492C57.7576 66.5419 57.8284 66.5325 57.8982 66.5221C58.4745 66.4394 59.0349 66.2697 59.5602 66.0188C59.5154 65.9615 59.4716 65.9052 59.4289 65.85C58.9317 66.0824 58.4029 66.24 57.8597 66.3178Z" fill="white"/>
<path id="Vector_4" d="M58.3845 69.8051C58.3126 69.8093 58.2407 69.8114 58.1688 69.8114C58.1469 69.8124 58.124 69.8124 58.1021 69.8124C57.1957 69.8124 56.3028 69.5933 55.4994 69.1736C54.696 68.754 54.006 68.1463 53.4882 67.4023C53.4466 67.4638 53.4049 67.5253 53.3643 67.5878C53.9039 68.3405 54.6152 68.9539 55.4391 69.377C56.263 69.8001 57.1759 70.0208 58.1021 70.0208C58.1313 70.0208 58.1604 70.0208 58.1896 70.0198C58.2626 70.0187 58.3344 70.0166 58.4063 70.0135C59.5189 69.9565 60.5914 69.5803 61.4958 68.9299C61.4624 68.8684 61.4291 68.8069 61.3947 68.7454C60.5158 69.3841 59.4696 69.7523 58.3845 69.8051Z" fill="white"/>
<path id="Vector_5" d="M58.555 72.7114C58.4821 72.7176 58.4092 72.7218 58.3362 72.7249C58.2581 72.7281 58.1799 72.7301 58.1018 72.7301C56.8839 72.7287 55.6992 72.3329 54.725 71.6018C53.7509 70.8708 53.0398 69.8438 52.6982 68.6748C52.6513 68.7592 52.6044 68.8426 52.5596 68.927C52.9445 70.0933 53.6872 71.1086 54.6821 71.8288C55.677 72.5489 56.8736 72.9372 58.1018 72.9385C58.1799 72.9385 58.2581 72.9375 58.3352 72.9333C58.4092 72.9312 58.4821 72.9271 58.555 72.9219C60.0283 72.8066 61.4027 72.1358 62.3999 71.0453C62.378 70.9682 62.353 70.8921 62.328 70.815C61.3648 71.9137 60.0115 72.5939 58.555 72.7114Z" fill="white"/>
<path id="Vector_6" d="M14.1778 27.9884C21.7319 27.9884 27.8556 21.8647 27.8556 14.3106C27.8556 6.75658 21.7319 0.632812 14.1778 0.632812C6.62376 0.632812 0.5 6.75658 0.5 14.3106C0.5 21.8647 6.62376 27.9884 14.1778 27.9884Z" fill="#E4E4E4"/>
<path id="Vector_7" d="M14.1775 25.7085C20.4725 25.7085 25.5756 20.6053 25.5756 14.3103C25.5756 8.01525 20.4725 2.91211 14.1775 2.91211C7.88243 2.91211 2.7793 8.01525 2.7793 14.3103C2.7793 20.6053 7.88243 25.7085 14.1775 25.7085Z" fill="#6C63FF"/>
<path id="Vector_8" d="M50.5001 27.9884C58.0541 27.9884 64.1779 21.8647 64.1779 14.3106C64.1779 6.75658 58.0541 0.632812 50.5001 0.632812C42.946 0.632812 36.8223 6.75658 36.8223 14.3106C36.8223 21.8647 42.946 27.9884 50.5001 27.9884Z" fill="#E4E4E4"/>
<path id="Vector_9" d="M50.4997 25.7085C56.7948 25.7085 61.8979 20.6053 61.8979 14.3103C61.8979 8.01525 56.7948 2.91211 50.4997 2.91211C44.2047 2.91211 39.1016 8.01525 39.1016 14.3103C39.1016 20.6053 44.2047 25.7085 50.4997 25.7085Z" fill="#F2F2F2"/>
<path id="Vector_10" d="M86.8223 27.9884C94.3764 27.9884 100.5 21.8647 100.5 14.3106C100.5 6.75658 94.3764 0.632812 86.8223 0.632812C79.2683 0.632812 73.1445 6.75658 73.1445 14.3106C73.1445 21.8647 79.2683 27.9884 86.8223 27.9884Z" fill="#E4E4E4"/>
<path id="Vector_11" d="M86.822 25.7085C93.117 25.7085 98.2202 20.6053 98.2202 14.3103C98.2202 8.01525 93.117 2.91211 86.822 2.91211C80.527 2.91211 75.4238 8.01525 75.4238 14.3103C75.4238 20.6053 80.527 25.7085 86.822 25.7085Z" fill="#F2F2F2"/>
<path id="Vector_12" d="M13.2097 18.4326C13.1894 18.4326 13.169 18.4321 13.1485 18.4312C12.9683 18.4225 12.792 18.3749 12.6319 18.2917C12.4717 18.2085 12.3315 18.0916 12.2207 17.9491L10.4723 15.7011C10.2687 15.4387 10.1775 15.1063 10.2187 14.7768C10.2598 14.4473 10.43 14.1476 10.6919 13.9434L10.7548 13.8944C11.0172 13.6908 11.3496 13.5996 11.6792 13.6408C12.0087 13.682 12.3085 13.8522 12.5127 14.1141C12.6112 14.2408 12.736 14.3447 12.8784 14.4187C13.0209 14.4927 13.1776 14.5351 13.3379 14.5429C13.4982 14.5507 13.6584 14.5238 13.8073 14.464C13.9563 14.4042 14.0905 14.3129 14.2009 14.1964L17.7511 10.4488C17.8643 10.3293 17.9998 10.2334 18.15 10.1663C18.3003 10.0993 18.4622 10.0625 18.6267 10.0581C18.7911 10.0536 18.9548 10.0816 19.1084 10.1405C19.2621 10.1993 19.4026 10.2878 19.522 10.401L19.58 10.4559C19.8211 10.6843 19.9616 10.9993 19.9706 11.3313C19.9795 11.6634 19.8562 11.9854 19.6278 12.2266L14.1188 18.0415C14.0018 18.1651 13.8609 18.2635 13.7046 18.3308C13.5483 18.398 13.3799 18.4327 13.2097 18.4326Z" fill="white"/>
<path id="Vector_13" d="M44.4969 11.5413H35.4941V3.71174C35.5034 3.22695 35.7045 2.76561 36.0534 2.42885C36.4022 2.0921 36.8704 1.90742 37.3552 1.91528H40.3478C42.6356 1.91528 44.4969 3.71194 44.4969 5.92032V11.5413Z" fill="#2F2E41"/>
<path id="Vector_14" d="M47.8298 77.059L46.1208 77.0589L45.3076 70.4668L47.8301 70.4669L47.8298 77.059Z" fill="#FFB6B6"/>
<path id="Vector_15" d="M48.2657 78.7148L42.7549 78.7146V78.6449C42.7549 78.0761 42.9809 77.5305 43.3832 77.1283C43.7854 76.726 44.331 76.5 44.8998 76.5L48.2658 76.5001L48.2657 78.7148Z" fill="#2F2E41"/>
<path id="Vector_16" d="M32.0768 77.059L30.3677 77.0589L29.5547 70.4668L32.0771 70.4669L32.0768 77.059Z" fill="#FFB6B6"/>
<path id="Vector_17" d="M32.5128 78.7148L27.002 78.7146V78.6449C27.002 78.0761 27.228 77.5305 27.6302 77.1283C28.0325 76.726 28.578 76.5 29.1469 76.5L32.5129 76.5001L32.5128 78.7148Z" fill="#2F2E41"/>
<path id="Vector_18" d="M34.1406 24.0986L33.0254 31.2083L43.6201 31.3477L42.2261 24.5169L34.1406 24.0986Z" fill="#FFB6B6"/>
<path id="Vector_19" d="M33.3327 29.4727L29.9583 38.4577L29.54 75.6932H32.3978L39.2287 45.7765L45.5019 74.9122H48.29L46.3384 42.1519C46.3384 42.1519 46.9139 35.5766 43.9685 31.6965L43.2515 29.6252L33.3327 29.4727Z" fill="#2F2E41"/>
<path id="Vector_20" d="M47.8071 36.4762C47.5122 36.3958 47.2384 36.2517 47.0051 36.0541C46.7718 35.8564 46.5847 35.61 46.457 35.3323C46.3292 35.0545 46.2639 34.7521 46.2657 34.4463C46.2674 34.1406 46.3362 33.8389 46.4672 33.5626L41.96 18.8681L45.2752 18.2109L49.3974 32.6146C49.847 32.8654 50.189 33.2724 50.3585 33.7584C50.5281 34.2444 50.5135 34.7758 50.3175 35.2518C50.1215 35.7278 49.7576 36.1153 49.295 36.341C48.8323 36.5667 48.3029 36.6148 47.8071 36.4762Z" fill="#FFB6B6"/>
<path id="Vector_21" d="M41.8425 28.0247L34.5393 27.8838C34.3305 27.8793 34.129 27.8066 33.9655 27.6767C33.8021 27.5468 33.6857 27.3669 33.6343 27.1645C33.2427 25.6144 32.3814 21.5746 32.8383 17.5509C32.9284 16.7714 33.174 16.018 33.5605 15.3351C33.947 14.6522 34.4665 14.0538 35.0883 13.5752C35.7102 13.0966 36.4217 12.7476 37.1807 12.5488C37.9398 12.35 38.731 12.3055 39.5076 12.4179C40.3268 12.5352 41.112 12.8244 41.8116 13.2664C42.5112 13.7085 43.1094 14.2935 43.567 14.983C44.0246 15.6726 44.3312 16.4511 44.4668 17.2674C44.6023 18.0838 44.5638 18.9196 44.3536 19.7201C43.4343 23.2112 42.915 25.7088 42.8102 27.1437C42.7947 27.3511 42.7117 27.5478 42.5739 27.7037C42.4361 27.8595 42.2511 27.966 42.0471 28.0068C41.9864 28.0188 41.9247 28.0249 41.8628 28.025C41.8561 28.025 41.8493 28.0249 41.8425 28.0247Z" fill="#2F2E41"/>
<path id="Vector_22" d="M19.6584 15.1179C19.7023 15.2163 19.7383 15.318 19.7662 15.4221L28.9078 18.5285L30.6742 16.9853L33.3516 19.3468L30.49 22.3825C30.2588 22.6278 29.9543 22.7914 29.6222 22.8489C29.2901 22.9064 28.9483 22.8545 28.6482 22.7012L18.8661 17.7046C18.5123 17.9215 18.1009 18.0257 17.6865 18.0032C17.2721 17.9806 16.8744 17.8324 16.5463 17.5784C16.2182 17.3243 15.9752 16.9763 15.8497 16.5808C15.7241 16.1852 15.722 15.7608 15.8435 15.364C15.9651 14.9672 16.2046 14.6168 16.5301 14.3594C16.8556 14.1021 17.2518 13.9499 17.666 13.9232C18.0801 13.8965 18.4926 13.9965 18.8485 14.2099C19.2044 14.4233 19.4869 14.74 19.6584 15.1179Z" fill="#FFB6B6"/>
<path id="Vector_23" d="M28.9268 18.0325C28.9275 17.9066 28.9553 17.7824 29.0085 17.6682C29.0616 17.5541 29.1387 17.4527 29.2345 17.3711L32.5818 14.5199C33.0054 14.0345 33.6042 13.7369 34.2469 13.6923C34.8896 13.6478 35.5237 13.86 36.0102 14.2824C36.4966 14.7048 36.7957 15.3029 36.8418 15.9454C36.8879 16.588 36.6773 17.2227 36.2561 17.7102L33.8725 21.422C33.8044 21.5279 33.7144 21.6179 33.6084 21.6859C33.5024 21.7539 33.3831 21.7982 33.2584 21.8159C33.1338 21.8336 33.0068 21.8242 32.8861 21.7884C32.7654 21.7526 32.6538 21.6912 32.559 21.6084L29.2265 18.6977C29.1316 18.6149 29.0557 18.5126 29.004 18.3978C28.9523 18.283 28.9259 18.1584 28.9268 18.0325Z" fill="#2F2E41"/>
<path id="Vector_24" d="M41.7581 22.5906C41.6466 22.532 41.5492 22.45 41.4723 22.3503C41.3954 22.2506 41.341 22.1355 41.3127 22.0128L40.323 17.7286C40.0873 17.1291 40.099 16.4606 40.3554 15.8697C40.6119 15.2788 41.0922 14.8137 41.6911 14.5764C42.2899 14.3391 42.9585 14.349 43.55 14.6038C44.1416 14.8587 44.608 15.3378 44.8469 15.9361L47.0442 19.7612C47.1069 19.8703 47.1453 19.9917 47.1569 20.1171C47.1684 20.2425 47.1528 20.3688 47.1111 20.4876C47.0694 20.6064 47.0026 20.7148 46.9153 20.8055C46.8279 20.8961 46.722 20.9669 46.6048 21.0129L42.4865 22.6308C42.3694 22.6769 42.2436 22.6972 42.1179 22.6902C41.9922 22.6833 41.8695 22.6493 41.7581 22.5906Z" fill="#2F2E41"/>
<path id="Vector_25" d="M45.3008 2.67985C45.6389 1.88823 45.0574 0.880991 44.0019 0.43012C42.9464 -0.0207519 41.8166 0.255478 41.4785 1.0471C41.1403 1.83873 41.7219 2.84597 42.7774 3.29684C43.8329 3.74772 44.9626 3.47148 45.3008 2.67985Z" fill="#2F2E41"/>
<path id="Vector_26" d="M42.0266 8.56476C43.1558 6.49918 42.3966 3.90933 40.331 2.78018C38.2655 1.65103 35.6756 2.41016 34.5465 4.47575C33.4173 6.54133 34.1764 9.13118 36.242 10.2603C38.3076 11.3895 40.8975 10.6303 42.0266 8.56476Z" fill="#FFB6B6"/>
<path id="Vector_27" d="M40.6244 1.63781H35.749C35.3915 1.63319 35.0456 1.76387 34.7804 2.00364C34.5153 2.24341 34.3507 2.57455 34.3195 2.93065C34.3069 3.11989 34.3332 3.3097 34.397 3.48832C34.4607 3.66694 34.5605 3.83057 34.6901 3.96906C34.8196 4.10756 34.9763 4.21797 35.1502 4.29345C35.3242 4.36894 35.5119 4.40789 35.7015 4.4079C36.0689 4.4079 36.4211 4.55382 36.6809 4.81357C36.9406 5.07331 37.0866 5.4256 37.0866 5.79294V11.4716H44.7043V5.71768C44.7043 5.18191 44.5988 4.65138 44.3937 4.15638C44.1887 3.66139 43.8882 3.21163 43.5093 2.83278C43.1305 2.45393 42.6807 2.15341 42.1857 1.94837C41.6907 1.74334 41.1602 1.63781 40.6244 1.63781Z" fill="#2F2E41"/>
<path id="Vector_28" d="M64.6586 78.9235H11.8885C11.8518 78.9235 11.8165 78.9089 11.7906 78.8829C11.7646 78.8569 11.75 78.8217 11.75 78.785C11.75 78.7483 11.7646 78.713 11.7906 78.6871C11.8165 78.6611 11.8518 78.6465 11.8885 78.6465H64.6586C64.6953 78.6465 64.7306 78.6611 64.7565 78.6871C64.7825 78.713 64.7971 78.7483 64.7971 78.785C64.7971 78.8217 64.7825 78.8569 64.7565 78.8829C64.7306 78.9089 64.6953 78.9235 64.6586 78.9235Z" fill="#CACACA"/>
</g>
<defs>
<clipPath id="clip0_469_2105">
<rect width="100" height="78.7094" fill="white" transform="translate(0.5 0.213867)"/>
</clipPath>
</defs>
</svg>
