<svg width="150" height="111" viewBox="0 0 150 111" fill="none" xmlns="http://www.w3.org/2000/svg">
<g id="undraw_investing_re_bov7">
<g clip-path="url(#clip0_1_12413)">
<rect width="150" height="110.109" fill="white"/>
<path id="Vector" d="M141.778 110.109L141.949 109.793C139.658 108.555 136.808 107.013 135.319 104.483C133.851 101.989 133.818 98.6028 135.233 95.6451C136.437 93.128 138.648 90.8729 141.628 89.1235C142.216 88.7784 142.833 88.4514 143.43 88.1351C144.872 87.3707 146.364 86.5802 147.594 85.4587C149.288 83.914 150.569 81.3218 149.614 79.0128C149.3 78.2758 148.785 77.6417 148.129 77.1824C147.472 76.7231 146.7 76.4571 145.9 76.4146L145.88 76.7732C146.613 76.8121 147.32 77.0556 147.922 77.4762C148.523 77.8967 148.995 78.4775 149.283 79.1525C150.171 81.2982 148.953 83.733 147.352 85.1933C146.155 86.2841 144.684 87.0638 143.262 87.8178C142.662 88.1358 142.041 88.4648 141.446 88.8138C138.404 90.5996 136.144 92.9082 134.909 95.4901C133.443 98.5541 133.482 102.07 135.009 104.665C136.549 107.281 139.448 108.849 141.778 110.109Z" fill="#F1F1F1"/>
<path id="Vector_2" d="M143.624 78.308C145.36 78.308 146.767 77.6245 146.767 76.7814C146.767 75.9383 145.36 75.2549 143.624 75.2549C141.889 75.2549 140.481 75.9383 140.481 76.7814C140.481 77.6245 141.889 78.308 143.624 78.308Z" fill="#F1F1F1"/>
<path id="Vector_3" d="M141.11 88.3651C142.845 88.3651 144.253 87.6817 144.253 86.8386C144.253 85.9955 142.845 85.312 141.11 85.312C139.374 85.312 137.967 85.9955 137.967 86.8386C137.967 87.6817 139.374 88.3651 141.11 88.3651Z" fill="#F1F1F1"/>
<path id="Vector_4" d="M146.857 89.9813C148.593 89.9813 150 89.2979 150 88.4548C150 87.6117 148.593 86.9282 146.857 86.9282C145.121 86.9282 143.714 87.6117 143.714 88.4548C143.714 89.2979 145.121 89.9813 146.857 89.9813Z" fill="#F1F1F1"/>
<path id="Vector_5" d="M137.877 98.4223C139.613 98.4223 141.02 97.7388 141.02 96.8957C141.02 96.0526 139.613 95.3691 137.877 95.3691C136.142 95.3691 134.734 96.0526 134.734 96.8957C134.734 97.7388 136.142 98.4223 137.877 98.4223Z" fill="#F1F1F1"/>
<path id="Vector_6" d="M131.591 98.4223C133.327 98.4223 134.734 97.7388 134.734 96.8957C134.734 96.0526 133.327 95.3691 131.591 95.3691C129.855 95.3691 128.448 96.0526 128.448 96.8957C128.448 97.7388 129.855 98.4223 131.591 98.4223Z" fill="#F1F1F1"/>
<path id="Vector_7" d="M24.6562 78.9289H13.5043C13.2023 78.9286 12.9128 78.8085 12.6993 78.595C12.4857 78.3814 12.3656 78.0919 12.3652 77.7899V41.0452C12.3656 40.7432 12.4857 40.4537 12.6993 40.2402C12.9128 40.0267 13.2023 39.9066 13.5043 39.9062H24.6562C24.9582 39.9066 25.2477 40.0267 25.4612 40.2402C25.6748 40.4537 25.7949 40.7432 25.7953 41.0452V77.7899C25.7949 78.0919 25.6748 78.3814 25.4612 78.595C25.2477 78.8085 24.9582 78.9286 24.6562 78.9289Z" fill="#6C63FF"/>
<path id="Vector_8" d="M44.9931 78.929H33.8412C33.5392 78.9287 33.2497 78.8086 33.0362 78.5951C32.8226 78.3815 32.7025 78.092 32.7021 77.7901V26.4642C32.7025 26.1622 32.8226 25.8727 33.0362 25.6592C33.2497 25.4456 33.5392 25.3255 33.8412 25.3252H44.9931C45.2951 25.3255 45.5846 25.4456 45.7981 25.6592C46.0117 25.8727 46.1318 26.1622 46.1322 26.4642V77.7901C46.1318 78.092 46.0117 78.3815 45.7981 78.5951C45.5846 78.8086 45.2951 78.9287 44.9931 78.929Z" fill="#6C63FF"/>
<path id="Vector_9" d="M65.33 78.9289H54.1781C53.8761 78.9286 53.5866 78.8085 53.3731 78.595C53.1596 78.3814 53.0394 78.0919 53.0391 77.7899V41.0452C53.0394 40.7432 53.1596 40.4537 53.3731 40.2402C53.5866 40.0267 53.8761 39.9066 54.1781 39.9062H65.33C65.632 39.9066 65.9215 40.0267 66.1351 40.2402C66.3486 40.4537 66.4687 40.7432 66.4691 41.0452V77.7899C66.4687 78.0919 66.3486 78.3814 66.1351 78.595C65.9215 78.8085 65.632 78.9286 65.33 78.9289Z" fill="#6C63FF"/>
<path id="Vector_10" d="M85.6669 78.9291H74.515C74.2199 78.9355 73.9343 78.8246 73.7208 78.6208C73.5073 78.417 73.3833 78.1369 73.376 77.8418V20.657C73.3833 20.3619 73.5073 20.0818 73.7208 19.8779C73.9343 19.6741 74.2199 19.5632 74.515 19.5696H85.6669C85.962 19.5632 86.2476 19.6741 86.4611 19.8779C86.6746 20.0818 86.7986 20.3619 86.806 20.657V77.8418C86.7986 78.1369 86.6746 78.417 86.4611 78.6208C86.2476 78.8246 85.962 78.9355 85.6669 78.9291Z" fill="#6C63FF"/>
<path id="Vector_11" d="M106.004 78.9288H94.8519C94.55 78.9285 94.2605 78.8084 94.0469 78.5949C93.8334 78.3814 93.7133 78.0919 93.7129 77.7899V10.348C93.7133 10.046 93.8334 9.75647 94.0469 9.54295C94.2605 9.32942 94.55 9.20932 94.8519 9.20898H106.004C106.306 9.20932 106.595 9.32942 106.809 9.54295C107.022 9.75647 107.143 10.046 107.143 10.348V77.7899C107.143 78.0919 107.022 78.3814 106.809 78.5949C106.595 78.8084 106.306 78.9285 106.004 78.9288Z" fill="#6C63FF"/>
<path id="Vector_12" d="M19.0796 35.3018C20.3512 35.3018 21.3819 34.2711 21.3819 32.9996C21.3819 31.728 20.3512 30.6973 19.0796 30.6973C17.8081 30.6973 16.7773 31.728 16.7773 32.9996C16.7773 34.2711 17.8081 35.3018 19.0796 35.3018Z" fill="#3F3D56"/>
<path id="Vector_13" d="M39.4165 20.337C40.6881 20.337 41.7188 19.3062 41.7188 18.0347C41.7188 16.7632 40.6881 15.7324 39.4165 15.7324C38.145 15.7324 37.1143 16.7632 37.1143 18.0347C37.1143 19.3062 38.145 20.337 39.4165 20.337Z" fill="#3F3D56"/>
<path id="Vector_14" d="M59.7535 35.3018C61.025 35.3018 62.0558 34.2711 62.0558 32.9996C62.0558 31.728 61.025 30.6973 59.7535 30.6973C58.4819 30.6973 57.4512 31.728 57.4512 32.9996C57.4512 34.2711 58.4819 35.3018 59.7535 35.3018Z" fill="#3F3D56"/>
<path id="Vector_15" d="M80.0904 13.0465C81.3619 13.0465 82.3927 12.0157 82.3927 10.7442C82.3927 9.47266 81.3619 8.44189 80.0904 8.44189C78.8189 8.44189 77.7881 9.47266 77.7881 10.7442C77.7881 12.0157 78.8189 13.0465 80.0904 13.0465Z" fill="#3F3D56"/>
<path id="Vector_16" d="M100.427 4.60458C101.699 4.60458 102.73 3.57381 102.73 2.30229C102.73 1.03077 101.699 0 100.427 0C99.1558 0 98.125 1.03077 98.125 2.30229C98.125 3.57381 99.1558 4.60458 100.427 4.60458Z" fill="#3F3D56"/>
<path id="Vector_17" d="M119.071 79.3567H0.179595C0.131963 79.3567 0.0862826 79.3378 0.052602 79.3041C0.0189214 79.2705 0 79.2248 0 79.1772C0 79.1295 0.0189214 79.0838 0.052602 79.0502C0.0862826 79.0165 0.131963 78.9976 0.179595 78.9976H119.071C119.119 78.9976 119.165 79.0165 119.198 79.0502C119.232 79.0838 119.251 79.1295 119.251 79.1772C119.251 79.2248 119.232 79.2705 119.198 79.3041C119.165 79.3378 119.119 79.3567 119.071 79.3567Z" fill="#CBCBCB"/>
<path id="Vector_18" d="M148.704 110.067H90.5155C90.4679 110.067 90.4222 110.048 90.3885 110.015C90.3549 109.981 90.3359 109.935 90.3359 109.888C90.3359 109.84 90.3549 109.794 90.3885 109.761C90.4222 109.727 90.4679 109.708 90.5155 109.708H148.704C148.752 109.708 148.798 109.727 148.831 109.761C148.865 109.794 148.884 109.84 148.884 109.888C148.884 109.935 148.865 109.981 148.831 110.015C148.798 110.048 148.752 110.067 148.704 110.067Z" fill="#CBCBCB"/>
<path id="Vector_19" d="M111.337 76.4374C111.485 76.2906 111.599 76.1133 111.671 75.9178C111.742 75.7223 111.77 75.5135 111.753 75.3061C111.735 75.0986 111.672 74.8976 111.568 74.7171C111.464 74.5366 111.322 74.3811 111.152 74.2615L111.858 71.0846L110.032 70.1846L109.098 74.6851C108.916 74.9847 108.85 75.3406 108.913 75.6855C108.976 76.0303 109.163 76.3401 109.439 76.5561C109.715 76.7721 110.061 76.8793 110.411 76.8574C110.761 76.8355 111.09 76.6861 111.337 76.4374Z" fill="#FFB7B7"/>
<path id="Vector_20" d="M131.305 76.5071C131.441 76.3493 131.541 76.1637 131.597 75.9633C131.653 75.7629 131.665 75.5525 131.631 75.347C131.598 75.1416 131.519 74.946 131.402 74.7741C131.284 74.6022 131.131 74.4582 130.951 74.3521L131.41 71.13L129.52 70.374L128.936 74.9333C128.778 75.2461 128.74 75.6061 128.83 75.945C128.919 76.2839 129.13 76.5783 129.422 76.7723C129.714 76.9663 130.067 77.0464 130.414 76.9975C130.761 76.9487 131.078 76.7742 131.305 76.5071Z" fill="#FFB7B7"/>
<path id="Vector_21" d="M117.071 108.13L115.209 108.13L114.323 100.948L117.071 100.948L117.071 108.13Z" fill="#FFB7B7"/>
<path id="Vector_22" d="M117.546 109.935L111.542 109.935V109.859C111.542 109.239 111.788 108.645 112.227 108.206C112.665 107.768 113.259 107.522 113.879 107.522L117.546 107.522L117.546 109.935Z" fill="#2F2E41"/>
<path id="Vector_23" d="M123.299 108.13L121.437 108.13L120.551 100.948L123.299 100.948L123.299 108.13Z" fill="#FFB7B7"/>
<path id="Vector_24" d="M123.773 109.935L117.77 109.935V109.859C117.77 109.239 118.016 108.645 118.454 108.206C118.892 107.768 119.487 107.522 120.106 107.522L123.774 107.522L123.773 109.935Z" fill="#2F2E41"/>
<path id="Vector_25" d="M127.047 47.706L129.055 46.9814C129.055 46.9814 129.907 47.1624 129.907 49.4735C129.907 51.7846 132.17 73.3385 132.17 73.3385L128.209 74.3814L125.971 53.9321L127.047 47.706Z" fill="#2F2E41"/>
<path id="Vector_26" d="M113.63 47.706L111.622 46.9814C111.622 46.9814 110.77 47.1624 110.77 49.4735C110.77 51.7846 108.507 73.3385 108.507 73.3385L112.468 74.3814L114.706 53.9321L113.63 47.706Z" fill="#2F2E41"/>
<path id="Vector_27" d="M113.656 72.2882L113.107 88.4789L114.322 106.389L117.453 106.461L117.909 89.7544L120.491 81.401L120.23 106.022L123.775 105.98L125.971 89.0406C125.971 89.0406 128.871 75.022 127.263 72.2882L119.858 69.8257L113.656 72.2882Z" fill="#2F2E41"/>
<path id="Vector_28" d="M113.717 70.3374L113.538 74.2323C113.538 74.2323 116.037 75.4756 120.428 74.7182C124.82 73.9608 127.739 74.4601 127.739 74.4601L127.402 69.4951L113.717 70.3374Z" fill="#E5E5E5"/>
<path id="Vector_29" d="M111.543 47.0389L117.318 44.5084L117.662 43.1831L123.28 43.3458L123.522 44.6998L129.055 46.9813L126.618 55.4577L126.868 61.4206L129.908 72.2883C129.908 72.2883 127.343 74.4658 121.183 73.5289L120.12 71.3872L119.47 73.6521C119.47 73.6521 114.069 75.6393 112.571 73.0525L113.656 54.3664L111.543 47.0389Z" fill="#2F2E41"/>
<path id="Vector_30" d="M120.42 41.9382C122.48 41.9382 124.15 40.2681 124.15 38.2079C124.15 36.1477 122.48 34.4775 120.42 34.4775C118.36 34.4775 116.689 36.1477 116.689 38.2079C116.689 40.2681 118.36 41.9382 120.42 41.9382Z" fill="#FFB7B7"/>
<path id="Vector_31" d="M124.851 36.7623C124.785 36.4587 124.656 36.172 124.475 35.92C124.402 35.2231 124.169 34.5523 123.795 33.96C123.649 33.6825 123.44 33.4422 123.187 33.2575C122.896 33.0901 122.564 33.0074 122.229 33.0188C122.168 33.0178 122.059 33.0362 121.96 33.0407C121.897 33.0212 121.834 33.0038 121.77 32.9874C121.733 32.9047 121.659 32.6635 121.639 32.6798L121.361 32.9006C121.243 32.8802 121.125 32.8643 121.007 32.8517C120.963 32.7286 120.92 32.6055 120.877 32.4824C120.807 32.5925 120.746 32.7079 120.694 32.8275C120.576 32.8217 120.457 32.8197 120.339 32.8214L120.103 32.5945C120.089 32.6578 120.057 32.7156 120.011 32.7609C119.965 32.8063 119.906 32.8371 119.843 32.8497C119.734 32.8609 119.626 32.8754 119.518 32.8928C119.509 32.8927 119.5 32.8928 119.492 32.8926C118.91 32.8781 118.284 32.852 117.798 33.1713C117.57 33.3276 117.385 33.5378 117.259 33.7833C117.199 33.8237 117.139 33.8639 117.081 33.9068C116.886 34.0399 116.717 34.2075 116.583 34.4014C116.485 34.5687 116.41 34.7487 116.362 34.9363C116.176 35.5011 116.09 36.0938 116.108 36.688C116.128 37.2863 116.353 37.8594 116.747 38.3105C116.996 38.5785 117.313 38.7764 117.563 39.0441C118.077 39.5953 118.174 40.3641 118.614 40.9473C119.079 41.5642 119.928 41.9701 120.674 42.0864C121.122 42.154 121.58 42.1323 122.02 42.0226C122.46 41.9128 122.874 41.7172 123.238 41.447C123.413 41.3253 123.561 41.1697 123.674 40.9894C123.933 40.5416 123.823 39.9789 123.92 39.4707C124.1 38.5182 125.009 37.7188 124.851 36.7623Z" fill="#2F2E41"/>
<path id="Vector_32" d="M18.9576 33.1434L18.7432 32.8553L39.4174 17.4635L59.6885 32.5836L80.237 10.2736L80.2738 10.2585L100.216 2.02783L100.353 2.3599L80.4475 10.5753L59.7332 33.0651L39.4172 17.9114L18.9576 33.1434Z" fill="#3F3D56"/>
</g>
<rect x="0.5" y="0.5" width="149" height="109.109" stroke="#D0D5DD"/>
</g>
<defs>
<clipPath id="clip0_1_12413">
<rect width="150" height="110.109" fill="white"/>
</clipPath>
</defs>
</svg>
