<svg width="100" height="176" viewBox="0 0 100 176" fill="none" xmlns="http://www.w3.org/2000/svg">
<g id="undraw_quiz_re_aol4 (1)" clip-path="url(#clip0_469_4031)">
<path id="Vector" d="M20.1878 18.7456L17.1848 5.41973L16.2053 1.07855C16.1241 0.720421 15.9039 0.409242 15.5932 0.213458C15.2825 0.0176732 14.9068 -0.0466814 14.5486 0.0345526L13.0693 0.369117L1.20663 3.04559C1.02953 3.08549 0.862032 3.1599 0.713705 3.26456C0.565378 3.36923 0.439128 3.50209 0.342173 3.65557C0.245219 3.80905 0.179463 3.98013 0.148656 4.15903C0.117849 4.33793 0.122599 4.52115 0.162634 4.69822C-0.474218 10.6276 0.783395 16.0974 3.51226 21.2165C3.7138 21.5995 3.92745 21.9824 4.14913 22.3653C4.2078 22.6301 4.34391 22.8714 4.54015 23.0586C4.70532 23.2164 4.9069 23.331 5.12699 23.3922C5.34708 23.4533 5.57886 23.4592 5.80177 23.4093L7.35769 23.0586L8.31703 22.841L19.1438 20.3983C19.5014 20.3175 19.8122 20.098 20.008 19.7881C20.2037 19.4782 20.2684 19.1032 20.1878 18.7456Z" fill="#E6E6E6"/>
<path id="Vector_2" d="M18.9466 18.0041L16.0848 5.32715L15.3995 2.28388C15.324 1.94882 15.1186 1.65745 14.8283 1.47379C14.5381 1.29012 14.1868 1.2292 13.8517 1.30439L12.9407 1.50997L2.38398 3.89217C2.04892 3.9677 1.75755 4.17315 1.57389 4.46338C1.39022 4.75362 1.32929 5.10489 1.40449 5.44002C1.49719 10.0553 1.98089 14.2433 3.96809 16.7989C4.19426 17.7929 4.67967 18.7093 5.37494 19.4548C6.0702 20.2003 6.95052 20.7484 7.92636 21.0433C7.95054 21.0514 7.97069 21.0595 7.99488 21.0675C8.01101 21.0715 8.03117 21.0796 8.04728 21.0836C8.96578 21.3421 9.93427 21.367 10.8649 21.1562L17.9672 19.5519C18.3022 19.4764 18.5936 19.2709 18.7772 18.9807C18.9609 18.6905 19.0218 18.3392 18.9466 18.0041Z" fill="white"/>
<path id="Vector_3" d="M8.42933 8.11902C8.66291 7.84949 8.97744 7.66278 9.32591 7.5868C9.67438 7.51081 10.0381 7.54963 10.3627 7.69746C11.0671 8.04932 11.3405 8.79795 11.2279 9.54234C11.1022 10.3739 10.6678 11.1309 10.6284 11.9824C10.5938 12.7275 10.8716 13.5104 11.5319 13.9116C12.0054 14.1992 12.4927 13.4871 12.017 13.1981C11.2341 12.7224 11.4972 11.6772 11.7243 10.9643C12.0078 10.0741 12.3033 9.16655 11.9525 8.24929C11.7972 7.86524 11.5481 7.52626 11.228 7.26335C10.9079 7.00044 10.5269 6.822 10.12 6.74435C9.7131 6.6667 9.29321 6.69233 8.89877 6.81887C8.50432 6.94542 8.14789 7.16886 7.8621 7.46874C7.48853 7.87156 8.05105 8.52692 8.42933 8.11902Z" fill="#6C63FF"/>
<path id="Vector_4" d="M12.229 16.3982C12.7055 16.3982 13.0918 16.0119 13.0918 15.5354C13.0918 15.0589 12.7055 14.6726 12.229 14.6726C11.7525 14.6726 11.3662 15.0589 11.3662 15.5354C11.3662 16.0119 11.7525 16.3982 12.229 16.3982Z" fill="#6C63FF"/>
<path id="Vector_5" d="M66.5304 166.771L52.8715 166.69L48.4215 166.664C47.6568 166.66 47.0299 166.95 47.0215 167.313L47.0036 168.032L46.8537 173.8C46.8423 174.161 47.4542 174.46 48.2189 174.464C53.7904 175.375 59.4653 175.467 65.0635 174.737C65.4828 174.686 65.9045 174.63 66.3288 174.57C66.5876 174.573 66.8455 174.538 67.0939 174.466C67.4716 174.349 67.7212 174.149 67.7278 173.922L67.7479 173.166L67.7588 172.699L67.8957 167.435C67.9041 167.072 67.2912 166.775 66.5304 166.771Z" fill="#E6E6E6"/>
<path id="Vector_6" d="M65.521 167.262L52.526 167.187L49.4068 167.168C48.692 167.164 48.1037 167.436 48.0948 167.775L48.0833 168.218L47.9503 173.35C47.9414 173.689 48.5138 173.969 49.2285 173.973C53.7393 174.438 57.9252 174.676 60.8722 174.04C63.0175 174.051 64.9096 173.503 65.9195 172.681C65.9329 172.671 65.9455 172.663 65.9589 172.653C65.9666 172.646 65.9791 172.637 65.9868 172.63C66.1924 172.479 66.3633 172.285 66.4882 172.062C66.6131 171.839 66.6892 171.593 66.7113 171.338L66.7992 167.885C66.8082 167.546 66.2358 167.267 65.521 167.262Z" fill="white"/>
<path id="Vector_7" d="M53.4649 171.027C53.0666 170.744 53.0249 170.359 53.5036 170.088C54.0094 169.802 54.801 169.758 55.4989 169.892C56.2786 170.042 56.9141 170.325 57.7332 170.437C58.4499 170.535 59.2759 170.493 59.8194 170.233C60.2091 170.046 59.6295 169.743 59.238 169.931C58.5936 170.239 57.638 170.003 56.9973 169.82C56.1972 169.591 55.383 169.355 54.4094 169.415C52.6379 169.526 51.7138 170.516 52.7008 171.217C53.0059 171.433 53.7739 171.246 53.4649 171.027Z" fill="#E6E6E6"/>
<path id="Vector_8" d="M61.561 170.499C62.0375 170.499 62.4238 170.316 62.4238 170.09C62.4238 169.864 62.0375 169.681 61.561 169.681C61.0845 169.681 60.6982 169.864 60.6982 170.09C60.6982 170.316 61.0845 170.499 61.561 170.499Z" fill="#E6E6E6"/>
<path id="Vector_9" d="M0.773714 66.771C-0.413088 61.7864 -0.215166 56.8769 1.81707 52.0669C1.83853 51.7693 1.97714 51.4923 2.20252 51.2968C2.42789 51.1013 2.72162 51.0032 3.01926 51.024L14.1241 51.8119C14.4217 51.8334 14.6986 51.972 14.8941 52.1974C15.0897 52.4228 15.1878 52.7165 15.167 53.0141L14.1236 67.7182C14.1022 68.0158 13.9636 68.2928 13.7382 68.4883C13.5128 68.6838 13.2191 68.7819 12.9215 68.7611L1.8166 67.9732C1.51901 67.9517 1.24208 67.8131 1.04657 67.5877C0.851062 67.3623 0.752933 67.0686 0.773714 66.771Z" fill="#F2F2F2"/>
<path id="Vector_10" d="M1.94023 62.3902C0.990441 59.9339 1.59772 56.5557 2.61099 52.937C2.63108 52.6583 2.76089 52.399 2.97197 52.2159C3.18304 52.0328 3.45812 51.9409 3.73687 51.9603L13.2806 52.6375C13.5593 52.6576 13.8186 52.7874 14.0017 52.9985C14.1849 53.2096 14.2768 53.4847 14.2573 53.7634L13.3289 66.8481C13.3088 67.1268 13.1789 67.3861 12.9679 67.5692C12.7568 67.7523 12.4817 67.8442 12.2029 67.8247L6.29081 67.4052C5.04938 67.3158 3.89413 66.7375 3.07852 65.7973C2.26291 64.8571 1.85354 63.6318 1.94023 62.3902Z" fill="white"/>
<path id="Vector_11" d="M8.54793 63.0312C8.25642 62.9811 7.96491 62.931 7.6734 62.8809C7.8077 62.5639 7.88521 62.2258 7.9024 61.882C8.04036 60.0417 8.05428 58.1838 8.12788 56.3397C8.12596 56.2723 8.10458 56.2069 8.0663 56.1513C8.02802 56.0957 7.9745 56.0524 7.91217 56.0266C7.84983 56.0008 7.78137 55.9936 7.71502 56.0058C7.64866 56.018 7.58726 56.0492 7.53822 56.0955C6.8061 56.7019 6.07398 57.3083 5.34186 57.9147C4.99917 58.1985 5.49025 58.6849 5.83036 58.4032C6.35583 57.9679 6.88132 57.5327 7.4068 57.0974C7.35856 58.3057 7.31033 59.514 7.26211 60.7223C7.23897 61.3022 7.30946 62.0065 7.07204 62.5516C7.03958 62.6252 6.9972 62.6939 6.94609 62.756C6.62335 62.7005 6.30059 62.6451 5.97784 62.5896C5.74572 62.5497 5.45077 62.7435 5.55293 63.0145C5.77508 63.6038 6.42995 63.79 6.99148 63.5629C7.04097 63.5406 7.08886 63.515 7.13479 63.4861L8.36429 63.6974C8.79913 63.7721 8.98592 63.1065 8.54793 63.0312Z" fill="#F2F2F2"/>
<path id="Vector_12" d="M41.0725 68.1526C39.8857 63.168 40.0837 58.2585 42.1159 53.4484C42.1373 53.1509 42.276 52.8739 42.5014 52.6784C42.7267 52.4829 43.0204 52.3848 43.3181 52.4056L54.423 53.1935C54.7205 53.215 54.9975 53.3536 55.193 53.579C55.3885 53.8044 55.4866 54.0981 55.4658 54.3957L54.4225 69.0998C54.401 69.3974 54.2624 69.6743 54.037 69.8699C53.8117 70.0654 53.5179 70.1635 53.2203 70.1427L42.1154 69.3547C41.8178 69.3333 41.5409 69.1947 41.3454 68.9693C41.1499 68.7439 41.0518 68.4502 41.0725 68.1526Z" fill="#F2F2F2"/>
<path id="Vector_13" d="M42.2391 63.7718C41.2893 61.3155 41.8965 57.9372 42.9098 54.3186C42.9299 54.0399 43.0597 53.7806 43.2708 53.5975C43.4819 53.4144 43.757 53.3225 44.0357 53.3419L53.5794 54.0191C53.8581 54.0392 54.1175 54.169 54.3006 54.3801C54.4837 54.5912 54.5756 54.8662 54.5561 55.145L53.6277 68.2297C53.6076 68.5084 53.4778 68.7677 53.2667 68.9508C53.0556 69.1339 52.7805 69.2258 52.5018 69.2063L46.5896 68.7868C45.3482 68.6973 44.193 68.1191 43.3773 67.1789C42.5617 66.2387 42.1524 65.0134 42.2391 63.7718Z" fill="white"/>
<path id="Vector_14" d="M48.4692 61.277C48.5961 61.2177 48.7162 61.1449 48.8274 61.0599C49.1233 60.8158 49.342 60.4912 49.4571 60.1253C49.5721 59.7594 49.5785 59.368 49.4755 58.9985C49.0278 57.3534 47.0599 57.3433 45.7013 57.5413C45.263 57.6052 45.4494 58.2709 45.885 58.2075C46.8006 58.0741 48.238 57.9662 48.73 58.9663C48.8423 59.2012 48.8822 59.4642 48.8448 59.7218C48.8073 59.9795 48.6941 60.2202 48.5196 60.4135C48.311 60.6228 48.0362 60.7535 47.7421 60.7831C47.4572 60.6592 47.148 60.6015 46.8376 60.6144C46.5175 60.6295 46.3391 61.095 46.6632 61.2581C46.9501 61.4009 47.2661 61.4755 47.5866 61.4758C47.8523 61.604 48.0743 61.8078 48.2245 62.0618C48.3747 62.3157 48.4465 62.6084 48.4309 62.903C48.4004 63.1047 48.3302 63.2984 48.2245 63.4729C48.1188 63.6474 47.9796 63.7993 47.815 63.9199C47.6504 64.0404 47.4636 64.1272 47.2654 64.1753C47.0671 64.2234 46.8613 64.2319 46.6597 64.2001C46.2256 64.1128 46.0399 64.7786 46.4761 64.8663C46.7738 64.9224 47.0798 64.9177 47.3757 64.8524C47.6715 64.7871 47.9511 64.6625 48.1976 64.4863C48.4441 64.3101 48.6523 64.0858 48.8098 63.827C48.9673 63.5682 49.0708 63.2801 49.114 62.9802C49.1414 62.6661 49.0977 62.3499 48.9861 62.055C48.8744 61.7602 48.6978 61.4942 48.4692 61.277Z" fill="#F2F2F2"/>
<path id="Vector_15" d="M62.6602 162.448L58.7531 162.448L56.8945 147.378L62.6609 147.378L62.6602 162.448Z" fill="#FFB6B6"/>
<path id="Vector_16" d="M62.797 166.525L50.7822 166.524V166.372C50.7823 165.132 51.275 163.942 52.152 163.065C53.029 162.188 54.2185 161.696 55.4587 161.696H55.459L57.6536 160.031L61.7484 161.696L62.7972 161.696L62.797 166.525Z" fill="#2F2E41"/>
<path id="Vector_17" d="M80.6212 170.739L76.714 170.738L74.8555 155.668L80.6219 155.668L80.6212 170.739Z" fill="#FFB6B6"/>
<path id="Vector_18" d="M80.7589 174.815L68.7441 174.814V174.662C68.7442 173.422 69.237 172.232 70.1139 171.356C70.9909 170.479 72.1804 169.986 73.4206 169.986H73.4209L75.6156 168.321L79.7103 169.986L80.7591 169.986L80.7589 174.815Z" fill="#2F2E41"/>
<path id="Vector_19" d="M32.5507 50.2198C32.819 50.5198 33.1494 50.7578 33.5188 50.9176C33.8883 51.0773 34.288 51.1549 34.6903 51.1449C35.0927 51.135 35.4881 51.0378 35.8492 50.86C36.2103 50.6822 36.5285 50.4281 36.7817 50.1152L50.1036 53.9073L52.0585 50.4804L36.2029 46.0921C35.6446 45.7051 34.9637 45.5363 34.2892 45.6177C33.6148 45.6991 32.9936 46.025 32.5434 46.5338C32.0932 47.0426 31.8454 47.6988 31.8467 48.3782C31.848 49.0575 32.0985 49.7128 32.5507 50.2198Z" fill="#FFB6B6"/>
<path id="Vector_20" d="M67.1939 81.9373L53.1764 113.988L51.5645 119.054L56.438 154.612L64.3043 154.229L64.2867 149.668C64.2867 149.668 62.4146 148.653 64.2806 148.102C66.1466 147.55 66.068 146.151 64.265 144.087C62.4621 142.024 64.1805 122.278 64.1805 122.278C64.1805 122.278 71.6041 115.169 70.7954 113.312C69.9867 111.455 71.488 111.455 71.488 111.455C71.488 111.455 73.0885 111.168 73.1495 110.39C73.2106 109.612 74.3968 108.048 74.3968 108.048L73.9812 162.814H80.7685C80.7685 162.814 83.8716 157.657 83.2618 156.547C82.652 155.438 81.7991 155.329 83.2618 154.002C84.7245 152.674 86.8713 153.76 85.913 151.26C84.9548 148.76 85.201 121.777 85.201 121.777C85.201 121.777 88.9767 106.118 86.644 105.055C84.3112 103.992 85.471 104.142 86.8485 102.685C88.2259 101.229 85.8897 101.362 87.0578 100.259C88.226 99.156 88.2731 86.1769 88.2731 86.1769L67.1939 81.9373Z" fill="#2F2E41"/>
<path id="Vector_21" d="M89.3305 90.9597C79.5045 90.9367 71.074 93.1451 61.248 93.122C61.8882 88.6916 64.1255 81.7471 64.7653 77.3156C65.6652 71.0826 64.9674 67.3623 65.8651 61.1295C65.9549 60.5193 66.0424 59.9113 66.1299 59.3011C66.4846 56.8371 65.6348 54.3731 67.1593 51.771C67.8087 50.6611 68.8887 49.5281 70.6779 48.3583C74.3946 48.7359 74.3301 47.0595 78.0468 47.4372L79.2765 49.8873C79.4331 50.8176 79.9973 51.4233 80.7618 51.8815C82.3346 52.8326 84.7571 53.1642 86.2125 54.4514C88.0409 56.068 87.9189 58.654 87.3754 61.1779C87.182 62.0759 86.9356 62.9648 86.703 63.8007C84.831 70.5356 87.2238 75.6737 89.1748 81.9211C89.3598 82.5135 87.6076 84.8045 87.7931 85.3753C88.108 86.3426 89.2352 87.5458 89.0557 88.1995C88.8335 89.0087 88.6121 89.7701 89.3305 90.9597Z" fill="#6C63FF"/>
<path id="Vector_22" d="M87.3754 61.1779L65.8652 61.1295L65.1743 61.1272L39.665 51.7547L42.9295 51.8654L44.4447 48.3721L45.1747 46.6934L60.2095 51.718L67.1593 51.771L80.2622 51.8677C80.4303 51.87 80.5961 51.8746 80.7619 51.8815C82.3347 52.8326 84.7572 53.1642 86.2125 54.4514C88.0409 56.068 87.9189 58.654 87.3754 61.1779Z" fill="#6C63FF"/>
<path id="Vector_23" d="M72.6796 46.7689C76.5402 46.7689 79.6697 43.6393 79.6697 39.7787C79.6697 35.9182 76.5402 32.7886 72.6796 32.7886C68.8191 32.7886 65.6895 35.9182 65.6895 39.7787C65.6895 43.6393 68.8191 46.7689 72.6796 46.7689Z" fill="#FFB6B6"/>
<path id="Vector_24" d="M71.6855 45.787L72.2549 47.6077C73.5175 46.9844 77.0997 46.1196 78.151 45.1829C79.2023 44.2463 80.0154 42.9538 80.0652 41.5466C80.0909 40.8199 79.9149 40.0868 80.0357 39.3697C80.1721 38.5595 80.6722 37.857 80.9012 37.0679C81.1153 36.2413 81.0347 35.3659 80.6732 34.5924C80.3116 33.8188 79.6918 33.1955 78.9204 32.8295C77.7617 32.3203 76.4367 32.4632 75.177 32.3402C73.9174 32.2171 72.5122 31.6473 72.1576 30.4323C72.0251 29.978 72.0403 29.4424 71.6345 29.145C71.4305 29.0087 71.1834 28.9527 70.9406 28.9878C70.6978 29.0229 70.4767 29.1466 70.3197 29.3351C70.301 29.3563 70.283 29.3777 70.2658 29.3993C69.1995 30.737 67.1899 30.8363 66.1382 29.4871C66.0695 29.3989 66.0034 29.3087 65.94 29.2165C65.719 29.4234 65.5412 29.6721 65.4169 29.9482C65.2926 30.2243 65.2243 30.5222 65.2159 30.8249C65.2074 31.1275 65.2591 31.4288 65.3678 31.7114C65.4765 31.9939 65.6402 32.2521 65.8493 32.471C65.4521 32.4712 65.0664 32.3375 64.7545 32.0915C64.4426 31.8456 64.2227 31.5017 64.1303 31.1154C63.6479 31.7817 63.1528 32.4765 62.9977 33.2844C62.8426 34.0922 63.1305 35.0476 63.8713 35.4051C64.2495 35.5545 64.6553 35.621 65.0613 35.6C63.1502 37.8606 64.2968 37.7955 68.1672 35.659C70.0872 35.6955 69.3289 37.4796 69.3538 39.3998C70.2574 39.313 71.188 39.2281 72.0425 39.6086C72.4405 39.7762 72.7759 40.0644 73.0015 40.4327C73.5662 41.4027 73.006 42.4108 72.5094 43.2931C72.085 44.0472 71.6826 44.9555 72.0348 45.7459" fill="#2F2E41"/>
<path id="Vector_25" d="M58.9642 104.387C59.3164 104.192 59.6222 103.923 59.8603 103.599C60.0985 103.274 60.2632 102.902 60.3433 102.507C60.4234 102.113 60.4168 101.706 60.3241 101.314C60.2313 100.923 60.0546 100.556 59.8061 100.239L66.4746 88.0988L63.5701 85.4287L55.7553 99.9058C55.2534 100.364 54.9369 100.99 54.8658 101.665C54.7947 102.341 54.9739 103.019 55.3695 103.572C55.765 104.124 56.3494 104.512 57.0119 104.662C57.6744 104.812 58.3691 104.714 58.9642 104.387Z" fill="#FFB6B6"/>
<path id="Vector_26" d="M75.2277 47.6145L73.6734 75.4597L66.1847 92.9586L61.3106 99.4223L61.8647 96.4933L58.5049 94.8123L58.1895 94.6557L62.6615 83.3283L64.0109 79.911L64.6395 69.6245L65.2337 59.8975C65.3361 58.2236 65.7848 56.5892 66.5514 55.0977C67.318 53.6061 68.3858 52.2899 69.6872 51.2322L73.4177 48.2017L75.2277 47.6145Z" fill="#6C63FF"/>
<path id="Vector_27" d="M22.8802 47.6577C21.6934 42.6731 21.8913 37.7636 23.9235 32.9536C23.945 32.656 24.0836 32.3791 24.309 32.1836C24.5343 31.988 24.8281 31.8899 25.1257 31.9107L36.2306 32.6987C36.5282 32.7201 36.8051 32.8587 37.0006 33.0841C37.1961 33.3095 37.2942 33.6032 37.2734 33.9008L36.2301 48.605C36.2086 48.9025 36.07 49.1795 35.8446 49.375C35.6193 49.5705 35.3255 49.6686 35.0279 49.6478L23.923 48.8599C23.6255 48.8384 23.3485 48.6998 23.153 48.4744C22.9575 48.2491 22.8594 47.9553 22.8802 47.6577Z" fill="#F2F2F2"/>
<path id="Vector_28" d="M24.0476 43.2769C23.0979 40.8206 23.7051 37.4424 24.7184 33.8237C24.7385 33.545 24.8683 33.2857 25.0794 33.1026C25.2905 32.9195 25.5655 32.8276 25.8443 32.847L35.388 33.5242C35.6667 33.5443 35.9261 33.6741 36.1092 33.8852C36.2923 34.0963 36.3842 34.3714 36.3647 34.6501L35.4363 47.7348C35.4162 48.0135 35.2864 48.2728 35.0753 48.4559C34.8642 48.639 34.5891 48.7309 34.3104 48.7115L28.3982 48.292C27.1568 48.2025 26.0016 47.6242 25.1859 46.684C24.3703 45.7438 23.961 44.5185 24.0476 43.2769Z" fill="white"/>
<path id="Vector_29" d="M29.9167 36.6924C28.9383 36.3529 27.8505 37.1266 27.7394 38.1297C27.6136 39.2667 28.8366 40.1642 29.8953 39.8552C30.3213 39.7309 30.14 39.0641 29.7117 39.1891C28.9356 39.4156 28.1078 38.5776 28.554 37.8284C28.6553 37.6476 28.8094 37.5019 28.9956 37.4108C29.1818 37.3197 29.3914 37.2874 29.5963 37.3184C29.7704 37.3666 29.9307 37.4549 30.0644 37.5763C30.1982 37.6976 30.3016 37.8486 30.3664 38.0172C30.7472 38.8753 30.2947 39.7465 29.6949 40.3702C29.3528 40.7259 28.9514 41.0023 28.5827 41.3265C28.4035 41.462 28.2546 41.6334 28.1457 41.8299C28.0368 42.0264 27.9703 42.2436 27.9504 42.4673C27.9601 42.719 28.0385 42.9632 28.1769 43.1735C28.3154 43.3839 28.5088 43.5523 28.7361 43.6607C29.3251 43.9636 29.9951 43.8673 30.6216 43.7665C31.0594 43.6961 30.8736 43.0302 30.438 43.1003C29.89 43.1885 29.0695 43.3221 28.7223 42.7507C28.4249 42.2614 29.0376 41.8317 29.3714 41.5714C30.2104 40.9172 31.0588 40.0724 31.1847 38.9601C31.2879 38.0488 30.8248 37.0076 29.9167 36.6924Z" fill="#6C63FF"/>
<path id="Vector_30" d="M87.5056 171.293C87.6126 171.298 87.7186 171.27 87.8091 171.213C87.8996 171.155 87.9704 171.071 88.0117 170.973C88.053 170.874 88.063 170.765 88.0402 170.66C88.0174 170.555 87.963 170.46 87.8843 170.387L87.8485 170.245C87.8532 170.233 87.858 170.222 87.8627 170.211C87.9706 169.956 88.1512 169.739 88.3821 169.587C88.613 169.434 88.8837 169.353 89.1603 169.355C89.4368 169.356 89.7069 169.438 89.9367 169.592C90.1664 169.746 90.3454 169.965 90.4514 170.22C90.8748 171.24 91.4138 172.261 91.5465 173.34C91.605 173.816 91.5803 174.299 91.4737 174.767C92.4681 172.598 92.9844 170.241 92.9878 167.854C92.988 167.256 92.9547 166.657 92.8881 166.062C92.8331 165.574 92.7567 165.09 92.6591 164.609C92.1261 162 90.9817 159.554 89.32 157.473C88.5157 157.034 87.8653 156.359 87.4564 155.539C87.3082 155.245 87.2035 154.93 87.1455 154.605C87.2362 154.617 87.4876 153.235 87.4192 153.151C87.5456 152.959 87.7719 152.863 87.91 152.676C88.5968 151.745 89.5429 151.908 90.0369 153.173C91.0921 153.705 91.1023 154.589 90.4548 155.438C90.0429 155.979 89.9863 156.71 89.6249 157.288C89.6621 157.336 89.7008 157.382 89.7379 157.43C90.4177 158.304 91.0101 159.242 91.5067 160.232C91.3859 159.123 91.5301 158.002 91.9273 156.96C92.3299 155.988 93.0844 155.171 93.7489 154.331C93.9246 154.105 94.1633 153.937 94.4347 153.847C94.7061 153.757 94.9981 153.75 95.2737 153.826C95.5494 153.902 95.7963 154.058 95.9833 154.274C96.1703 154.49 96.289 154.757 96.3243 155.041C96.3257 155.053 96.327 155.066 96.3283 155.078C96.2296 155.134 96.133 155.193 96.0385 155.255C95.9197 155.335 95.8277 155.448 95.7745 155.581C95.7213 155.713 95.7093 155.859 95.7402 155.998C95.7711 156.138 95.8434 156.264 95.9476 156.362C96.0518 156.46 96.1831 156.524 96.3243 156.545L96.3387 156.548C96.3036 156.903 96.2414 157.256 96.1528 157.602C97.0052 160.899 95.1649 162.099 92.5371 162.153C92.4791 162.183 92.4226 162.213 92.3645 162.241C92.8635 163.655 93.1765 165.128 93.2956 166.623C93.3631 167.505 93.3591 168.391 93.2837 169.272L93.2882 169.241C93.4786 168.261 94.0013 167.376 94.7681 166.737C95.907 165.802 97.516 165.457 98.7446 164.705C98.8752 164.622 99.027 164.577 99.1822 164.576C99.3373 164.576 99.4894 164.62 99.6204 164.703C99.7514 164.786 99.8558 164.905 99.9214 165.046C99.987 165.187 100.011 165.343 99.9907 165.497L99.9857 165.53C99.8025 165.604 99.6242 165.69 99.4517 165.787C99.353 165.843 99.2564 165.902 99.1619 165.964C99.0431 166.044 98.9511 166.157 98.8979 166.289C98.8447 166.422 98.8327 166.568 98.8636 166.707C98.8945 166.846 98.9668 166.973 99.071 167.071C99.1752 167.169 99.3065 167.232 99.4477 167.254L99.4621 167.256C99.4725 167.258 99.4815 167.259 99.4919 167.261C99.1789 168.008 98.7397 168.696 98.1934 169.294C97.6604 172.172 95.3711 172.445 92.9223 171.607H92.9208C92.6521 172.774 92.2628 173.911 91.7592 174.998H87.6096C87.5947 174.952 87.5813 174.904 87.5679 174.858C87.952 174.882 88.3376 174.859 88.7161 174.79C88.4083 174.412 88.1004 174.031 87.7925 173.653C87.7856 173.646 87.7792 173.639 87.7732 173.631C87.617 173.438 87.4593 173.246 87.3031 173.053L87.3031 173.052C87.2947 172.46 87.3629 171.868 87.5056 171.293Z" fill="#F2F2F2"/>
<path id="Vector_31" d="M41.0928 175.01C41.0927 175.046 41.0997 175.082 41.1134 175.115C41.1272 175.149 41.1473 175.179 41.1728 175.204C41.1983 175.23 41.2285 175.25 41.2618 175.264C41.2951 175.277 41.3308 175.285 41.3668 175.284H99.694C99.7666 175.284 99.8363 175.256 99.8877 175.204C99.9391 175.153 99.968 175.083 99.968 175.01C99.968 174.938 99.9391 174.868 99.8877 174.817C99.8363 174.765 99.7666 174.736 99.694 174.736H41.3668C41.3308 174.736 41.2951 174.743 41.2618 174.757C41.2285 174.771 41.1983 174.791 41.1728 174.816C41.1473 174.842 41.1272 174.872 41.1134 174.905C41.0997 174.939 41.0927 174.974 41.0928 175.01Z" fill="#CCCCCC"/>
<path id="Vector_32" d="M11.7297 23.611C11.4415 27.8696 11.58 32.7028 14.8857 35.8621C15.6603 36.6091 16.5853 37.1824 17.599 37.5437C18.0191 37.6918 18.1998 37.0246 17.7827 36.8775C16.0845 36.2789 14.7484 34.9633 13.8583 33.4253C12.8148 31.6222 12.4166 29.5421 12.3294 27.4804C12.289 26.1899 12.3194 24.8981 12.4206 23.611C12.4506 23.1672 11.7596 23.169 11.7297 23.611Z" fill="#3F3D56"/>
<path id="Vector_33" d="M16.8786 33.3562C17.698 33.7369 18.5568 34.1242 19.205 34.7715C19.7963 35.3619 20.2092 36.2232 19.9696 37.0648C19.5766 38.4455 17.8261 38.9661 16.6056 39.2954C16.5201 39.3222 16.4483 39.3811 16.4055 39.4598C16.3626 39.5385 16.3519 39.6308 16.3757 39.7172C16.3995 39.8036 16.456 39.8773 16.5331 39.9229C16.6103 39.9685 16.7021 39.9824 16.7893 39.9616C18.017 39.6303 19.3936 39.1679 20.1956 38.1168C21.1445 36.8731 20.694 35.2338 19.628 34.2193C18.9413 33.5658 18.0774 33.1547 17.2272 32.7597C16.8266 32.5736 16.4753 33.1689 16.8786 33.3562Z" fill="#3F3D56"/>
</g>
<defs>
<clipPath id="clip0_469_4031">
<rect width="100" height="175.284" fill="white"/>
</clipPath>
</defs>
</svg>
