<svg width="100" height="104" viewBox="0 0 100 104" fill="none" xmlns="http://www.w3.org/2000/svg">
<g id="undraw_blank_canvas_re_2hwy" clip-path="url(#clip0_469_4287)">
<path id="Vector" d="M70.2001 103.137H42.8309C42.5127 103.136 42.2077 103.01 41.9827 102.785C41.7578 102.56 41.6312 102.255 41.6309 101.937V82.8016C41.6312 82.4834 41.7578 82.1784 41.9827 81.9534C42.2077 81.7285 42.5127 81.6019 42.8309 81.6016H70.2001C70.5183 81.6019 70.8233 81.7285 71.0483 81.9534C71.2732 82.1784 71.3998 82.4834 71.4001 82.8016V101.937C71.3997 102.255 71.2732 102.56 71.0482 102.785C70.8233 103.01 70.5183 103.136 70.2001 103.137Z" fill="#2F2E41"/>
<path id="Vector_2" d="M25.4742 53.2555C25.6577 53.0207 25.7875 52.7485 25.8544 52.458C25.9213 52.1676 25.9238 51.8661 25.8615 51.5746C25.7993 51.2832 25.6739 51.0089 25.4942 50.7712C25.3145 50.5334 25.0849 50.338 24.8214 50.1986L24.649 31.8926L21.2275 33.4627L21.9801 51.1672C21.7752 51.6253 21.7455 52.1425 21.8966 52.621C22.0476 53.0995 22.3689 53.506 22.7996 53.7634C23.2303 54.0208 23.7405 54.1113 24.2334 54.0177C24.7264 53.9241 25.1679 53.6529 25.4742 53.2555Z" fill="#9E616A"/>
<path id="Vector_3" d="M25.3814 27.2586C25.3814 27.2586 22.0531 25.6441 21.5928 28.6901C21.1326 31.7361 19.2393 39.6638 19.2393 39.6638L24.9844 39.2575L25.3814 27.2586Z" fill="#9E616A"/>
<path id="Vector_4" d="M25.4742 53.2555C25.6577 53.0207 25.7875 52.7485 25.8544 52.458C25.9213 52.1676 25.9238 51.8661 25.8615 51.5746C25.7993 51.2832 25.6739 51.0089 25.4942 50.7712C25.3145 50.5334 25.0849 50.338 24.8214 50.1986L24.649 31.8926L21.2275 33.4627L21.9801 51.1672C21.7752 51.6253 21.7455 52.1425 21.8966 52.621C22.0476 53.0995 22.3689 53.506 22.7996 53.7634C23.2303 54.0208 23.7405 54.1113 24.2334 54.0177C24.7264 53.9241 25.1679 53.6529 25.4742 53.2555Z" fill="#9E616A"/>
<path id="Vector_5" d="M25.3814 27.2586C25.3814 27.2586 22.0531 25.6441 21.5928 28.6901C21.1326 31.7361 19.2393 39.6638 19.2393 39.6638L24.9844 39.2575L25.3814 27.2586Z" fill="#6C63FF"/>
<path id="Vector_6" d="M15.7446 97.7755C15.6102 97.7817 15.4772 97.7464 15.3635 97.6744C15.2499 97.6025 15.1611 97.4973 15.1092 97.3732C15.0573 97.2491 15.0448 97.112 15.0734 96.9806C15.102 96.8491 15.1703 96.7296 15.2691 96.6383C15.2856 96.5725 15.2975 96.5253 15.3141 96.4596C15.3081 96.4453 15.3022 96.431 15.2962 96.4167C15.1608 96.0969 14.934 95.8243 14.6441 95.633C14.3543 95.4417 14.0144 95.3404 13.6671 95.3417C13.3199 95.343 12.9808 95.4468 12.6924 95.6402C12.4039 95.8336 12.1791 96.108 12.0461 96.4287C11.5146 97.709 10.8378 98.9914 10.6711 100.345C10.5977 100.943 10.6287 101.55 10.7626 102.138C9.51414 99.4143 8.86582 96.4542 8.86165 93.4583C8.86139 92.7064 8.90316 91.9552 8.98676 91.2081C9.05586 90.5956 9.15172 89.9874 9.27435 89.3836C9.94352 86.1076 11.3803 83.037 13.4666 80.424C14.4763 79.8731 15.293 79.0258 15.8064 77.9964C15.9924 77.6264 16.1238 77.2314 16.1967 76.8237C16.0828 76.8387 15.967 76.848 15.8531 76.8555C15.8176 76.8573 15.7802 76.8592 15.7448 76.8611L15.7314 76.8617C15.6062 76.8673 15.482 76.8366 15.3739 76.7733C15.2657 76.71 15.1782 76.6168 15.1218 76.5049C15.0654 76.393 15.0425 76.2672 15.0559 76.1426C15.0694 76.018 15.1185 75.8999 15.1975 75.8026C15.2467 75.7421 15.2959 75.6816 15.3451 75.6212C15.4198 75.5278 15.4964 75.4363 15.5711 75.3429C15.5797 75.3341 15.5878 75.3247 15.5954 75.3149C15.6813 75.2085 15.7672 75.1039 15.8531 74.9974C15.6963 74.7541 15.4854 74.5502 15.2368 74.4018C14.376 73.8976 13.1883 74.2468 12.5665 75.0255C11.9428 75.8041 11.8252 76.8966 12.0418 77.8695C12.2548 78.6973 12.6071 79.4829 13.0838 80.1925C13.0371 80.2522 12.9885 80.3101 12.9418 80.3699C12.0884 81.4672 11.3447 82.6456 10.7211 83.888C10.8728 82.4961 10.6918 81.0881 10.1931 79.7798C9.68764 78.5605 8.74029 77.5336 7.90603 76.4795C6.90395 75.2134 4.84909 75.766 4.67254 77.371C4.67084 77.3865 4.66917 77.402 4.66754 77.4176C4.79146 77.4875 4.91275 77.5617 5.03143 77.6402C5.18053 77.7398 5.29605 77.8821 5.36288 78.0485C5.4297 78.2149 5.4447 78.3976 5.40591 78.5727C5.36713 78.7477 5.27636 78.907 5.14552 79.0296C5.01467 79.1522 4.84984 79.2324 4.67262 79.2597L4.65447 79.2625C4.69862 79.7091 4.77665 80.1517 4.88789 80.5865C5.21023 81.8002 5.77984 82.9343 6.56101 83.9176C7.34217 84.9009 8.31805 85.7122 9.42746 86.3006C9.50029 86.338 9.57126 86.3753 9.64409 86.4108C9.01763 88.1861 8.62467 90.0354 8.47511 91.9121C8.39044 93.0192 8.39544 94.1315 8.49006 95.2378L8.48445 95.1986C8.24541 93.9683 7.58912 92.8583 6.62641 92.0558C5.19656 90.8813 3.17643 90.4487 1.63387 89.5046C1.46993 89.3993 1.27931 89.3432 1.08449 89.3427C0.889676 89.3422 0.698784 89.3975 0.534335 89.5019C0.369886 89.6064 0.23874 89.7557 0.15636 89.9322C0.0739813 90.1088 0.0438079 90.3052 0.0693977 90.4983C0.0714666 90.5121 0.0735673 90.5258 0.075704 90.5395C0.305654 90.6332 0.529546 90.7411 0.746081 90.8626C0.869996 90.9325 0.991293 91.0067 1.10997 91.0852C1.25907 91.1848 1.3746 91.3271 1.44142 91.4935C1.50824 91.6599 1.52324 91.8426 1.48446 92.0177C1.44567 92.1927 1.35491 92.352 1.22406 92.4746C1.09321 92.5972 0.928385 92.6774 0.751168 92.7047L0.733008 92.7075C0.719934 92.7094 0.708733 92.7113 0.695681 92.7132C1.08858 93.6513 1.64003 94.5148 2.32588 95.2658C3.17313 96.175 4.19714 96.9015 5.33513 97.4008C6.47313 97.9001 7.70112 98.1617 8.94382 98.1696H8.94569C9.28303 99.6355 9.77179 101.062 10.4041 102.427H15.6141C15.6327 102.369 15.6495 102.31 15.6663 102.252C15.1841 102.282 14.7 102.253 14.2247 102.166C14.6113 101.691 14.9978 101.213 15.3844 100.739C15.393 100.73 15.4011 100.721 15.4086 100.711C15.6047 100.468 15.8027 100.227 15.9987 99.9847L15.9988 99.9844C16.0093 99.2403 15.9239 98.4979 15.7448 97.7756L15.7446 97.7755Z" fill="#2F2E41"/>
<path id="Vector_7" d="M92.5542 97.7755C92.4198 97.7817 92.2868 97.7464 92.1731 97.6744C92.0594 97.6025 91.9706 97.4973 91.9187 97.3732C91.8668 97.2491 91.8543 97.112 91.8829 96.9806C91.9116 96.8491 91.9799 96.7296 92.0787 96.6383C92.0952 96.5725 92.1071 96.5253 92.1236 96.4596C92.1177 96.4453 92.1117 96.431 92.1058 96.4167C91.9704 96.0969 91.7435 95.8243 91.4537 95.633C91.1638 95.4417 90.824 95.3404 90.4767 95.3417C90.1295 95.343 89.7903 95.4468 89.5019 95.6402C89.2135 95.8336 88.9887 96.108 88.8557 96.4287C88.3241 97.709 87.6473 98.9914 87.4807 100.345C87.4073 100.943 87.4383 101.55 87.5722 102.138C86.3237 99.4143 85.6754 96.4542 85.6712 93.4583C85.671 92.7064 85.7127 91.9552 85.7963 91.2081C85.8654 90.5956 85.9613 89.9874 86.0839 89.3836C86.7531 86.1076 88.1898 83.037 90.2761 80.424C91.2859 79.8731 92.1025 79.0258 92.6159 77.9964C92.8019 77.6264 92.9334 77.2314 93.0062 76.8237C92.8923 76.8387 92.7766 76.848 92.6626 76.8555C92.6272 76.8573 92.5898 76.8592 92.5543 76.8611L92.5409 76.8617C92.4158 76.8673 92.2916 76.8366 92.1835 76.7733C92.0753 76.71 91.9877 76.6168 91.9313 76.5049C91.8749 76.393 91.8521 76.2672 91.8655 76.1426C91.8789 76.018 91.9281 75.8999 92.0071 75.8026C92.0563 75.7421 92.1055 75.6816 92.1547 75.6212C92.2294 75.5278 92.306 75.4363 92.3807 75.3429C92.3893 75.3341 92.3974 75.3247 92.4049 75.3149C92.4908 75.2085 92.5767 75.1039 92.6626 74.9974C92.5058 74.7541 92.2949 74.5502 92.0464 74.4018C91.1855 73.8976 89.9979 74.2468 89.3761 75.0255C88.7524 75.8041 88.6347 76.8966 88.8513 77.8695C89.0643 78.6973 89.4167 79.4829 89.8933 80.1925C89.8466 80.2522 89.7981 80.3101 89.7514 80.3699C88.898 81.4672 88.1542 82.6456 87.5307 83.888C87.6823 82.4961 87.5013 81.0881 87.0026 79.7798C86.4972 78.5605 85.5499 77.5336 84.7156 76.4795C83.7135 75.2134 81.6587 75.766 81.4821 77.371C81.4804 77.3865 81.4787 77.402 81.4771 77.4176C81.601 77.4875 81.7223 77.5617 81.841 77.6402C81.9901 77.7398 82.1056 77.8821 82.1724 78.0485C82.2393 78.2149 82.2543 78.3976 82.2155 78.5727C82.1767 78.7477 82.0859 78.907 81.9551 79.0296C81.8242 79.1522 81.6594 79.2324 81.4822 79.2597L81.464 79.2625C81.5082 79.7091 81.5862 80.1517 81.6975 80.5865C82.0198 81.8002 82.5894 82.9343 83.3706 83.9176C84.1517 84.9009 85.1276 85.7122 86.237 86.3006C86.3099 86.338 86.3808 86.3753 86.4537 86.4108C85.8272 88.1861 85.4342 90.0354 85.2847 91.9121C85.2 93.0192 85.205 94.1315 85.2996 95.2378L85.294 95.1986C85.055 93.9683 84.3987 92.8583 83.436 92.0558C82.0061 90.8813 79.986 90.4487 78.4434 89.5046C78.2795 89.3993 78.0889 89.3432 77.8941 89.3427C77.6992 89.3422 77.5084 89.3975 77.3439 89.5019C77.1795 89.6064 77.0483 89.7557 76.9659 89.9322C76.8835 90.1088 76.8534 90.3052 76.879 90.4983C76.881 90.5121 76.8831 90.5258 76.8853 90.5395C77.1152 90.6332 77.3391 90.7411 77.5557 90.8626C77.6796 90.9325 77.8009 91.0067 77.9196 91.0852C78.0686 91.1848 78.1842 91.3271 78.251 91.4935C78.3178 91.6599 78.3328 91.8426 78.294 92.0177C78.2552 92.1927 78.1645 92.352 78.0336 92.4746C77.9028 92.5972 77.738 92.6774 77.5607 92.7047L77.5426 92.7075C77.5295 92.7094 77.5183 92.7113 77.5052 92.7132C77.8981 93.6513 78.4496 94.5148 79.1355 95.2658C79.9827 96.175 81.0067 96.9015 82.1447 97.4008C83.2827 97.9001 84.5107 98.1617 85.7534 98.1696H85.7553C86.0926 99.6355 86.5814 101.062 87.2137 102.427H92.4236C92.4423 102.369 92.4591 102.31 92.4759 102.252C91.9937 102.282 91.5095 102.253 91.0343 102.166C91.4208 101.691 91.8074 101.213 92.1939 100.739C92.2026 100.73 92.2107 100.721 92.2182 100.711C92.4143 100.468 92.6122 100.227 92.8083 99.9847L92.8084 99.9844C92.8189 99.2403 92.7335 98.4979 92.5543 97.7756L92.5542 97.7755Z" fill="#2F2E41"/>
<path id="Vector_8" d="M72.4922 102.393C72.4773 102.393 72.4623 102.393 72.4473 102.392C72.066 102.371 71.7079 102.203 71.4474 101.923C71.1869 101.644 71.0441 101.275 71.0487 100.893C71.0487 98.57 69.3891 97.2147 67.7444 96.9023C66.0997 96.59 64.0586 97.242 63.2067 99.4038L62.4323 101.348C61.7626 102.016 60.8553 102.391 59.9095 102.391C58.9636 102.391 58.0563 102.016 57.3867 101.348L57.3408 101.302L57.3693 101.244L71.0487 73.2558V72.5699C71.0298 72.3584 71.0299 72.1457 71.0491 71.9343L71.0487 1.44298C71.0487 1.24975 71.0875 1.0585 71.1628 0.880554C71.2381 0.70261 71.3484 0.541603 71.4871 0.407086C71.6258 0.272569 71.7901 0.167283 71.9703 0.0974718C72.1505 0.0276603 72.3428 -0.00525575 72.536 0.000681295C72.9172 0.0224724 73.2754 0.190453 73.5359 0.469658C73.7964 0.748863 73.9393 1.11778 73.9346 1.49963V71.9425C73.9536 72.1539 73.9535 72.3666 73.9343 72.578L73.9346 73.2556L87.6425 101.302L87.5967 101.348C86.927 102.016 86.0198 102.391 85.0739 102.391C84.128 102.391 83.2207 102.016 82.5511 101.348L82.5308 101.317L81.7766 99.4038C80.9247 97.2422 78.8839 96.5905 77.239 96.9023C75.5942 97.2147 73.9346 98.57 73.9346 100.893V100.95C73.9346 101.333 73.7827 101.7 73.5122 101.97C73.2417 102.241 72.8748 102.393 72.4922 102.393Z" fill="#2F2E41"/>
<path id="Vector_9" d="M97.5321 51.0222H47.4507C46.8686 51.0216 46.3104 50.79 45.8988 50.3784C45.4871 49.9667 45.2556 49.4086 45.2549 48.8264V13.812C45.2555 13.2299 45.4871 12.6717 45.8987 12.2601C46.3104 11.8484 46.8685 11.6169 47.4507 11.6162H97.5321C98.1142 11.6169 98.6723 11.8484 99.084 12.2601C99.4956 12.6718 99.7272 13.2299 99.7278 13.812V48.8264C99.7271 49.4086 99.4956 49.9667 99.084 50.3783C98.6723 50.79 98.1142 51.0215 97.5321 51.0222Z" fill="#6C63FF"/>
<path id="Vector_10" d="M97.532 51.2945H47.4506C46.7963 51.2937 46.1689 51.0335 45.7062 50.5708C45.2435 50.1081 44.9832 49.4808 44.9824 48.8264V13.8119C44.9832 13.1575 45.2435 12.5302 45.7062 12.0675C46.1689 11.6047 46.7963 11.3445 47.4506 11.3438H97.532C98.1864 11.3445 98.8137 11.6048 99.2764 12.0675C99.7391 12.5302 99.9994 13.1575 100 13.8119V48.8264C99.9994 49.4808 99.7391 50.1081 99.2764 50.5708C98.8137 51.0334 98.1864 51.2937 97.532 51.2945ZM47.4506 11.8885C46.9407 11.8891 46.4518 12.0919 46.0912 12.4525C45.7306 12.813 45.5278 13.3019 45.5272 13.8119V48.8264C45.5278 49.3363 45.7306 49.8252 46.0912 50.1858C46.4518 50.5463 46.9407 50.7491 47.4506 50.7497H97.532C98.0419 50.7491 98.5308 50.5463 98.8914 50.1858C99.252 49.8252 99.4548 49.3363 99.4554 48.8264V13.8119C99.4548 13.3019 99.252 12.8131 98.8914 12.4525C98.5308 12.0919 98.042 11.8891 97.532 11.8885H47.4506Z" fill="#2F2E41"/>
<path id="Vector_11" d="M79.8958 13.806H65.0863C64.1474 13.8049 63.2473 13.4315 62.5833 12.7676C61.9194 12.1036 61.546 11.2035 61.5449 10.2646V10.2002H83.4371V10.2646C83.4361 11.2035 83.0626 12.1036 82.3987 12.7676C81.7348 13.4315 80.8347 13.8049 79.8958 13.806Z" fill="#2F2E41"/>
<path id="Vector_12" d="M79.9602 53.2112H65.1508C64.2119 53.2102 63.3117 52.8367 62.6478 52.1728C61.9839 51.5089 61.6104 50.6088 61.6094 49.6699V49.6055H83.5016V49.6699C83.5005 50.6088 83.1271 51.5089 82.4632 52.1728C81.7993 52.8367 80.8991 53.2102 79.9602 53.2112Z" fill="#2F2E41"/>
<path id="Vector_13" d="M99.8111 102.574C99.8112 102.602 99.8056 102.63 99.7948 102.656C99.784 102.683 99.7681 102.706 99.748 102.726C99.7279 102.747 99.704 102.762 99.6778 102.773C99.6515 102.784 99.6234 102.79 99.595 102.79H0.216085C0.158776 102.79 0.103819 102.767 0.0632949 102.726C0.0227712 102.686 0 102.631 0 102.574C0 102.516 0.0227712 102.461 0.0632949 102.421C0.103819 102.38 0.158776 102.357 0.216085 102.357H99.595C99.6234 102.357 99.6515 102.363 99.6778 102.374C99.704 102.385 99.7279 102.4 99.748 102.421C99.7681 102.441 99.784 102.464 99.7948 102.491C99.8056 102.517 99.8112 102.545 99.8111 102.574Z" fill="#CCCCCC"/>
<path id="Vector_14" d="M33.4673 97.5434H36.0851L37.3304 87.4463L33.4668 87.4465L33.4673 97.5434Z" fill="#9E616A"/>
<path id="Vector_15" d="M32.5804 96.2519L36.7185 96.0049V97.7778L40.6527 100.495C40.8471 100.629 40.9934 100.822 41.0704 101.045C41.1474 101.268 41.1511 101.51 41.0808 101.736C41.0105 101.961 40.87 102.158 40.6798 102.298C40.4896 102.438 40.2596 102.514 40.0234 102.514H35.0968L34.2477 100.76L33.9161 102.514H32.0586L32.5804 96.2519Z" fill="#2F2E41"/>
<path id="Vector_16" d="M24.5643 41.3816L24.3079 42.6037L24.0898 47.1115L32.8502 45.9254L33.5229 40.7056L32.593 39.1777L24.5643 41.3816Z" fill="#9E616A"/>
<path id="Vector_17" d="M20.2183 97.5434H22.836L24.0813 87.4463L20.2178 87.4465L20.2183 97.5434Z" fill="#9E616A"/>
<path id="Vector_18" d="M18.799 79.7041L18.799 79.6771L19.7788 75.1026L20.3831 72.8254L18.7035 59.4918C18.3081 49.8046 23.9281 45.1479 23.9723 45.1022L24.0942 44.9755L33.1073 44.7549C37.9567 47.6604 37.4077 63.5523 38.2957 74.3601C38.359 75.1308 39.1548 76.2683 38.9592 77.0014C37.4074 82.8169 37.862 89.106 36.6798 89.2919L33.0552 89.2415L31.1831 80.7454L32.9112 74.2654C32.1448 74.1242 31.6152 70.3773 31.6152 70.3773C31.2812 69.9808 30.1283 66.6084 30.1283 66.6084L28.5911 57.2732L26.1214 73.3296L26.7162 77.0965L26.224 78.3917L24.1161 89.0843L24.0937 89.2566L20.1197 88.8599L18.799 79.7041Z" fill="#2F2E41"/>
<path id="Vector_19" d="M19.3323 96.2519L23.4704 96.0049V97.7778L27.4047 100.495C27.599 100.629 27.7454 100.822 27.8224 101.045C27.8994 101.268 27.903 101.51 27.8327 101.736C27.7625 101.961 27.6219 102.158 27.4317 102.298C27.2415 102.438 27.0115 102.514 26.7754 102.514H21.8488L20.9996 100.76L20.6681 102.514H18.8105L19.3323 96.2519Z" fill="#2F2E41"/>
<path id="Vector_20" d="M31.7913 23.7526L34.0008 26.2076L36.6547 31.2098L35.3511 37.3779L35.9211 40.2723L36.7627 43.454C33.5197 45.2479 29.6675 42.7704 26.1285 41.6701L22.6465 43.2085L22.8306 38.9736L22.925 28.3037C22.9287 27.8939 23.0165 27.4892 23.183 27.1147C23.3496 26.7403 23.5913 26.4041 23.8933 26.1269C24.1952 25.8498 24.5509 25.6377 24.9382 25.5038C25.3255 25.3698 25.7362 25.317 26.1449 25.3484L28.4771 23.6299L31.7913 23.7526Z" fill="#6C63FF"/>
<path id="Vector_21" d="M31.1726 22.4673C33.7457 22.4673 35.8316 20.3814 35.8316 17.8084C35.8316 15.2353 33.7457 13.1494 31.1726 13.1494C28.5996 13.1494 26.5137 15.2353 26.5137 17.8084C26.5137 20.3814 28.5996 22.4673 31.1726 22.4673Z" fill="#9E616A"/>
<path id="Vector_22" d="M36.6544 16.1271C36.5723 16.5835 34.611 16.8039 34.6701 15.9917C34.2885 16.7563 33.7182 17.866 34.4446 19.1371C34.1601 19.447 33.9809 19.8389 33.9325 20.2568C33.8842 20.6746 33.9693 21.0971 34.1755 21.4637C34.3822 21.7997 34.5554 22.1552 34.6925 22.525C34.7202 22.6148 34.7399 22.7068 34.7516 22.8001C34.7632 22.8937 34.7495 22.9889 34.7118 23.0754C34.6741 23.162 34.6138 23.2368 34.5372 23.292C34.4606 23.3472 34.3706 23.3808 34.2766 23.3893C34.1825 23.3977 34.088 23.3807 34.0028 23.3401C32.0271 22.3724 28.5817 22.5364 26.4202 23.1268C26.4346 22.7063 26.4289 22.2868 26.403 21.8682C26.3241 22.3917 26.1129 22.8863 25.7895 23.3054C25.4194 23.4148 25.0565 23.5286 24.7052 23.6409C24.6516 23.6583 24.5943 23.6608 24.5394 23.6481C24.4845 23.6355 24.4341 23.6083 24.3935 23.5693C24.3528 23.5303 24.3235 23.481 24.3087 23.4266C24.2939 23.3723 24.294 23.315 24.3092 23.2607C24.3777 23.0122 24.3905 22.7516 24.3466 22.4975C24.2573 21.9705 23.9924 21.4938 23.8052 20.9942C23.618 20.4945 23.5114 19.9199 23.7404 19.4375C24.0961 18.6887 25.0983 18.4597 25.5404 17.7584C26.0372 16.9708 25.6513 15.944 25.729 15.0152C25.8385 13.7019 26.9142 12.6349 28.1267 12.1194C30.2262 11.2265 32.8528 11.9496 34.4267 13.5998C34.6475 13.4508 34.9052 13.3658 35.1714 13.3544C35.4375 13.3429 35.7016 13.4055 35.9344 13.535C36.3995 13.7842 36.7336 13.9138 36.9424 14.399C37.1253 14.8253 36.7379 15.6691 36.6544 16.1271Z" fill="#2F2E41"/>
<path id="Vector_23" d="M34.6541 70.9146L23.6929 59.9534C23.5656 59.8258 23.4941 59.653 23.4941 59.4728C23.4941 59.2926 23.5656 59.1197 23.6929 58.9922L31.3564 51.3286C31.484 51.2014 31.6568 51.1299 31.837 51.1299C32.0172 51.1299 32.1901 51.2014 32.3176 51.3286L43.2788 62.2899C43.4061 62.4174 43.4776 62.5903 43.4776 62.7704C43.4776 62.9506 43.4061 63.1235 43.2788 63.251L35.6153 70.9146C35.4877 71.0418 35.3149 71.1133 35.1347 71.1133C34.9545 71.1133 34.7817 71.0418 34.6541 70.9146Z" fill="#6C63FF"/>
<path id="Vector_24" d="M35.1347 71.2946C35.0216 71.295 34.9095 71.273 34.805 71.2297C34.7005 71.1865 34.6055 71.123 34.5257 71.0428L23.5645 60.0817C23.4031 59.9201 23.3125 59.7011 23.3125 59.4727C23.3125 59.2444 23.4031 59.0254 23.5645 58.8638L31.2281 51.2002C31.3896 51.0389 31.6087 50.9482 31.837 50.9482C32.0654 50.9482 32.2844 51.0389 32.446 51.2002L43.4072 62.1614C43.5685 62.323 43.6592 62.542 43.6592 62.7703C43.6592 62.9987 43.5685 63.2177 43.4072 63.3793L35.7436 71.0428C35.6638 71.123 35.5689 71.1865 35.4644 71.2297C35.3598 71.273 35.2478 71.295 35.1347 71.2946ZM31.837 51.3114C31.7716 51.3111 31.7068 51.3239 31.6463 51.3489C31.5859 51.3739 31.531 51.4106 31.4849 51.457L23.8212 59.1206C23.728 59.2141 23.6757 59.3407 23.6757 59.4727C23.6757 59.6048 23.728 59.7314 23.8212 59.8249L34.7825 70.7861C34.8775 70.8764 35.0036 70.9268 35.1347 70.9268C35.2658 70.9268 35.3918 70.8764 35.4868 70.7861L43.1504 63.1225C43.2436 63.029 43.296 62.9024 43.296 62.7703C43.296 62.6383 43.2436 62.5116 43.1504 62.4182L32.1892 51.457C32.143 51.4106 32.0881 51.3739 32.0277 51.3489C31.9672 51.3239 31.9024 51.3112 31.837 51.3114Z" fill="#2F2E41"/>
<path id="Vector_25" d="M30.524 52.3483C30.3405 52.1134 30.2108 51.8412 30.1438 51.5508C30.0769 51.2604 30.0745 50.9589 30.1367 50.6674C30.199 50.376 30.3244 50.1017 30.5041 49.8639C30.6838 49.6262 30.9134 49.4307 31.1768 49.2913L31.3493 30.9854L34.7707 32.5555L34.0182 50.26C34.223 50.7181 34.2528 51.2353 34.1017 51.7138C33.9507 52.1923 33.6294 52.5987 33.1986 52.8562C32.7679 53.1136 32.2578 53.204 31.7648 53.1104C31.2719 53.0168 30.8304 52.7456 30.524 52.3483Z" fill="#9E616A"/>
<path id="Vector_26" d="M30.6162 26.3503C30.6162 26.3503 33.9445 24.7359 34.4048 27.7819C34.8651 30.8279 36.7584 38.7556 36.7584 38.7556L31.0132 38.3493L30.6162 26.3503Z" fill="#9E616A"/>
<path id="Vector_27" d="M30.524 52.3483C30.3405 52.1134 30.2108 51.8412 30.1438 51.5508C30.0769 51.2604 30.0745 50.9589 30.1367 50.6674C30.199 50.376 30.3244 50.1017 30.5041 49.8639C30.6838 49.6262 30.9134 49.4307 31.1768 49.2913L31.3493 30.9854L34.7707 32.5555L34.0182 50.26C34.223 50.7181 34.2528 51.2353 34.1017 51.7138C33.9507 52.1923 33.6294 52.5987 33.1986 52.8562C32.7679 53.1136 32.2578 53.204 31.7648 53.1104C31.2719 53.0168 30.8304 52.7456 30.524 52.3483Z" fill="#9E616A"/>
<path id="Vector_28" d="M30.6162 26.3503C30.6162 26.3503 33.9445 24.7359 34.4048 27.7819C34.8651 30.8279 36.7584 38.7556 36.7584 38.7556L31.0132 38.3493L30.6162 26.3503Z" fill="#6C63FF"/>
</g>
<defs>
<clipPath id="clip0_469_4287">
<rect width="100" height="103.137" fill="white"/>
</clipPath>
</defs>
</svg>
