<svg width="150" height="92" viewBox="0 0 150 92" fill="none" xmlns="http://www.w3.org/2000/svg">
<g id="undraw_investment_data_re_sh9x">
<g clip-path="url(#clip0_1_12446)">
<rect width="150" height="91.9522" fill="white"/>
<path id="Vector" d="M90.5094 81.4112L85.0988 82.8627L90.5486 79.5114C90.4314 74.1688 88.5666 68.6289 88.5666 68.6289C88.5666 68.6289 76.9197 72.003 73.8629 77.8458C70.8062 83.6886 73.2123 87.5459 77.4971 89.7876C81.7817 92.0292 86.3225 91.8063 89.3793 85.9635C90.0596 84.663 90.3963 83.0824 90.5094 81.4112Z" fill="#F2F2F2"/>
<path id="Vector_2" d="M84.0642 82.5532L83.9136 82.8412C82.1451 86.1799 80.214 88.4965 78.1439 89.7562C78.1141 89.7751 78.0836 89.7918 78.0537 89.8107L77.9692 89.6702L77.8896 89.5342C80.1577 88.1911 82.0612 85.6113 83.6045 82.6996C83.6552 82.6062 83.7066 82.5114 83.7551 82.4151C84.3975 81.1768 84.9761 79.8869 85.4905 78.6087C85.5311 78.5101 85.5711 78.4094 85.6111 78.3087C86.2813 76.6181 86.84 74.96 87.2879 73.5C87.32 73.397 87.3507 73.2932 87.3806 73.1908C88.1285 70.7165 88.5434 68.8579 88.6323 68.4449C88.644 68.3948 88.6496 68.3668 88.6511 68.3604L88.8067 68.3927L88.8089 68.392L88.9659 68.4251C88.9643 68.4316 88.946 68.5256 88.9069 68.6976C88.7641 69.342 88.3586 71.082 87.6901 73.3073C87.6595 73.4075 87.6288 73.5113 87.5967 73.6144C87.2345 74.7996 86.8016 76.1095 86.2961 77.4576C86.1697 77.7964 86.0412 78.1287 85.9107 78.4545C85.8722 78.556 85.8322 78.6567 85.7915 78.7553C85.2357 80.1371 84.6599 81.403 84.0642 82.5532Z" fill="#E0E0E0"/>
<path id="Vector_3" d="M87.6904 73.3074C87.5882 73.2703 87.4845 73.2324 87.3809 73.1909C87.0994 73.0786 86.8238 72.952 86.5552 72.8116C85.4098 72.2143 84.413 71.3676 83.6383 70.334C83.5389 70.3782 83.4395 70.4225 83.3379 70.4674C84.1469 71.5661 85.1963 72.4655 86.406 73.0967C86.6927 73.2466 86.9872 73.3813 87.2882 73.5001C87.3903 73.5409 87.494 73.5788 87.597 73.6145C88.4447 73.9139 89.3329 74.0829 90.2313 74.1156C90.211 74.0051 90.1914 73.8968 90.1725 73.7906C89.3259 73.7527 88.4895 73.5898 87.6904 73.3074Z" fill="#E0E0E0"/>
<path id="Vector_4" d="M85.9109 78.4544C85.8095 78.4086 85.7096 78.36 85.6113 78.3085C85.5806 78.2943 85.5492 78.2779 85.5193 78.2622C84.279 77.6134 83.2141 76.6743 82.4152 75.525C81.6164 74.3757 81.1073 73.0502 80.9313 71.6616C80.8303 71.7159 80.7293 71.7702 80.6289 71.8266C80.8285 73.2429 81.3627 74.5913 82.1872 75.7601C83.0117 76.9288 84.1028 77.8843 85.3701 78.5474C85.41 78.5683 85.4499 78.5892 85.4906 78.6086C85.5911 78.6594 85.691 78.708 85.7916 78.7552C87.3547 79.4736 89.0916 79.7267 90.7947 79.484C90.7931 79.3761 90.7915 79.2681 90.7884 79.1593C89.1286 79.404 87.4335 79.159 85.9109 78.4544Z" fill="#E0E0E0"/>
<path id="Vector_5" d="M84.0647 82.553C83.9605 82.5093 83.8577 82.4628 83.7556 82.4149C83.6465 82.3632 83.538 82.3101 83.4311 82.2542C81.7656 81.3804 80.4279 79.9906 79.6183 78.293C78.8088 76.5953 78.5709 74.6811 78.9403 72.8369C78.8157 72.9188 78.6918 72.9993 78.5701 73.0827C78.2619 74.9542 78.5513 76.8752 79.3972 78.5728C80.243 80.2704 81.6023 81.6583 83.2819 82.5393C83.3889 82.5953 83.4965 82.6498 83.605 82.6993C83.7077 82.7494 83.8105 82.7959 83.9141 82.841C86.0124 83.7379 88.3733 83.8039 90.5185 83.0256C90.5437 82.9044 90.5639 82.7825 90.5849 82.659C88.4804 83.4729 86.1417 83.4348 84.0647 82.553Z" fill="#E0E0E0"/>
<path id="Vector_6" d="M19.4571 81.9181L24.8678 83.3695L19.418 80.0182C19.5352 74.6756 21.4 69.1357 21.4 69.1357C21.4 69.1357 33.0469 72.5099 36.1036 78.3527C39.1604 84.1955 36.7543 88.0528 32.4695 90.2944C28.1848 92.536 23.6441 92.3131 20.5873 86.4703C19.9069 85.1698 19.5703 83.5893 19.4571 81.9181Z" fill="#F2F2F2"/>
<path id="Vector_7" d="M25.9017 83.0601L26.0523 83.3481C27.8208 86.6868 29.7519 89.0034 31.8219 90.263C31.8518 90.2819 31.8823 90.2986 31.9122 90.3175L31.9967 90.177L32.0762 90.041C29.8082 88.6979 27.9047 86.1181 26.3614 83.2064C26.3107 83.113 26.2593 83.0182 26.2108 82.922C25.5683 81.6836 24.9898 80.3937 24.4754 79.1156C24.4347 79.017 24.3948 78.9162 24.3548 78.8155C23.6846 77.1249 23.1259 75.4669 22.678 74.0069C22.6459 73.9038 22.6152 73.8 22.5853 73.6977C21.8374 71.2233 21.4225 69.3647 21.3336 68.9518C21.3219 68.9016 21.3163 68.8736 21.3148 68.8672L21.1592 68.8996L21.157 68.8989L21 68.932C21.0016 68.9384 21.0198 69.0324 21.059 69.2044C21.2018 69.8488 21.6073 71.5888 22.2758 73.8142C22.3064 73.9144 22.3371 74.0182 22.3692 74.1212C22.7314 75.3064 23.1643 76.6163 23.6698 77.9644C23.7962 78.3032 23.9247 78.6355 24.0552 78.9613C24.0937 79.0628 24.1337 79.1636 24.1744 79.2622C24.7302 80.6439 25.306 81.9099 25.9017 83.0601Z" fill="#E0E0E0"/>
<path id="Vector_8" d="M19.7932 74.2974C19.7743 74.4036 19.7547 74.5119 19.7344 74.6224C20.6328 74.5897 21.521 74.4207 22.3687 74.1213C22.4717 74.0856 22.5754 74.0477 22.6775 74.007C22.9785 73.8881 23.273 73.7535 23.5597 73.6036C24.7694 72.9723 25.8188 72.073 26.6278 70.9742C26.5262 70.9293 26.4268 70.8851 26.3274 70.8408C25.5527 71.8745 24.5559 72.7211 23.4105 73.3184C23.1419 73.4589 22.8663 73.5855 22.5848 73.6978C22.4812 73.7392 22.3775 73.7771 22.2753 73.8143C21.4762 74.0967 20.6398 74.2595 19.7932 74.2974Z" fill="#E0E0E0"/>
<path id="Vector_9" d="M19.1772 79.6662C19.1741 79.7749 19.1725 79.8829 19.1709 79.9909C20.874 80.2335 22.6109 79.9805 24.174 79.262C24.2746 79.2148 24.3745 79.1662 24.475 79.1155C24.5157 79.096 24.5556 79.0751 24.5955 79.0542C25.8628 78.3911 26.9539 77.4357 27.7784 76.2669C28.6029 75.0982 29.1371 73.7498 29.3367 72.3335C29.2363 72.277 29.1353 72.2227 29.0343 72.1685C28.8583 73.557 28.3492 74.8825 27.5504 76.0318C26.7515 77.1812 25.6866 78.1203 24.4463 78.7691C24.4164 78.7847 24.385 78.8011 24.3543 78.8154C24.256 78.8668 24.1561 78.9155 24.0547 78.9612C22.5321 79.6658 20.837 79.9108 19.1772 79.6662Z" fill="#E0E0E0"/>
<path id="Vector_10" d="M19.3818 83.1659C19.4028 83.2893 19.423 83.4113 19.4483 83.5324C21.5935 84.3107 23.9543 84.2448 26.0527 83.3478C26.1562 83.3027 26.259 83.2562 26.3617 83.2061C26.4702 83.1566 26.5779 83.1021 26.6848 83.0462C28.3644 82.1652 29.7237 80.7773 30.5696 79.0796C31.4154 77.382 31.7048 75.461 31.3966 73.5896C31.2749 73.5062 31.1511 73.4257 31.0265 73.3438C31.3959 75.1879 31.158 77.1021 30.3484 78.7998C29.5388 80.4975 28.2012 81.8872 26.5356 82.761C26.4287 82.817 26.3203 82.8701 26.2111 82.9217C26.1091 82.9697 26.0063 83.0162 25.902 83.0598C23.8251 83.9417 21.4863 83.9797 19.3818 83.1659Z" fill="#E0E0E0"/>
<path id="Vector_11" d="M44.8241 86.0091L48.0452 86.8731L44.8008 84.878C44.8706 81.6975 45.9807 78.3994 45.9807 78.3994C45.9807 78.3994 52.9144 80.4081 54.7342 83.8865C56.554 87.3649 55.1215 89.6612 52.5707 90.9957C50.0199 92.3302 47.3167 92.1975 45.4969 88.7191C45.0919 87.9449 44.8915 87.004 44.8241 86.0091Z" fill="#F2F2F2"/>
<path id="Vector_12" d="M48.6603 86.6891L48.75 86.8606C49.8028 88.8482 50.9524 90.2273 52.1848 90.9772C52.2025 90.9885 52.2207 90.9984 52.2385 91.0097L52.2888 90.9261L52.3362 90.8451C50.9859 90.0455 49.8527 88.5097 48.934 86.7762C48.9038 86.7207 48.8732 86.6643 48.8443 86.6069C48.4618 85.8697 48.1174 85.1018 47.8112 84.3409C47.787 84.2822 47.7632 84.2222 47.7394 84.1622C47.3404 83.1558 47.0078 82.1687 46.7412 81.2995C46.722 81.2382 46.7038 81.1764 46.6859 81.1155C46.2407 79.6424 45.9937 78.5359 45.9408 78.2901C45.9338 78.2602 45.9305 78.2436 45.9296 78.2397L45.837 78.259L45.8357 78.2586L45.7422 78.2783C45.7431 78.2822 45.754 78.3381 45.7773 78.4405C45.8623 78.8241 46.1037 79.86 46.5017 81.1848C46.5199 81.2445 46.5382 81.3063 46.5573 81.3676C46.7729 82.0732 47.0306 82.853 47.3316 83.6556C47.4068 83.8573 47.4833 84.0551 47.561 84.2491C47.584 84.3095 47.6078 84.3695 47.632 84.4281C47.9629 85.2507 48.3056 86.0044 48.6603 86.6891Z" fill="#E0E0E0"/>
<path id="Vector_13" d="M45.0243 81.4724C45.013 81.5356 45.0013 81.6001 44.9893 81.6658C45.5241 81.6464 46.0529 81.5458 46.5576 81.3675C46.6189 81.3463 46.6806 81.3237 46.7414 81.2994C46.9206 81.2287 47.0959 81.1485 47.2666 81.0593C47.9867 80.6835 48.6115 80.1481 49.0931 79.494C49.0326 79.4672 48.9734 79.4409 48.9143 79.4146C48.453 80.0299 47.8596 80.5339 47.1778 80.8895C47.0179 80.9731 46.8538 81.0485 46.6862 81.1154C46.6245 81.1401 46.5628 81.1626 46.5019 81.1847C46.0262 81.3528 45.5283 81.4498 45.0243 81.4724Z" fill="#E0E0E0"/>
<path id="Vector_14" d="M44.6571 84.6687C44.6552 84.7334 44.6543 84.7977 44.6533 84.862C45.6672 85.0064 46.7012 84.8558 47.6318 84.4281C47.6917 84.4 47.7511 84.371 47.811 84.3408C47.8352 84.3292 47.859 84.3168 47.8827 84.3044C48.6372 83.9096 49.2868 83.3408 49.7776 82.645C50.2685 81.9492 50.5865 81.1465 50.7053 80.3033C50.6455 80.2697 50.5854 80.2374 50.5252 80.2051C50.4205 81.0317 50.1174 81.8208 49.6418 82.505C49.1663 83.1893 48.5323 83.7483 47.7939 84.1346C47.7761 84.1439 47.7574 84.1537 47.7392 84.1622C47.6806 84.1928 47.6211 84.2218 47.5608 84.249C46.6543 84.6685 45.6452 84.8143 44.6571 84.6687Z" fill="#E0E0E0"/>
<path id="Vector_15" d="M44.7793 86.7522C44.7918 86.8256 44.8038 86.8982 44.8189 86.9704C46.096 87.4337 47.5014 87.3944 48.7506 86.8605C48.8123 86.8336 48.8734 86.8059 48.9346 86.7761C48.9992 86.7467 49.0633 86.7142 49.1269 86.6809C50.1269 86.1564 50.9361 85.3302 51.4397 84.3195C51.9432 83.3089 52.1155 82.1653 51.932 81.0511C51.8595 81.0015 51.7858 80.9536 51.7117 80.9048C51.9316 82.0027 51.7899 83.1423 51.308 84.1529C50.826 85.1636 50.0297 85.9909 49.0381 86.5111C48.9745 86.5444 48.9099 86.576 48.8449 86.6068C48.7842 86.6353 48.723 86.663 48.6609 86.689C47.4245 87.214 46.0322 87.2367 44.7793 86.7522Z" fill="#E0E0E0"/>
<path id="Vector_16" d="M109.161 56.7661L109.147 56.765C106.585 56.3419 103.739 56.3421 100.447 56.7655H100.445C100.363 56.7664 100.282 56.7511 100.205 56.7205C100.129 56.6898 100.06 56.6443 100.001 56.5867C99.9428 56.5291 99.8962 56.4605 99.8643 56.3848C99.8324 56.3091 99.8158 56.2278 99.8154 56.1456V53.1637C99.8156 52.9991 99.8811 52.8414 99.9974 52.7251C100.114 52.6088 100.271 52.5434 100.436 52.5432C103.336 52.1651 106.272 52.1653 109.172 52.5438H109.173C109.335 52.5462 109.49 52.6126 109.604 52.7287C109.718 52.8447 109.782 53.001 109.782 53.1637V56.1456C109.781 56.3101 109.716 56.4679 109.6 56.5842C109.483 56.7005 109.326 56.7659 109.161 56.7661Z" fill="#E0E0E0"/>
<path id="Vector_17" d="M109.161 56.7661L109.147 56.765C106.585 56.3419 103.739 56.3421 100.447 56.7655H100.445C100.363 56.7664 100.282 56.7511 100.205 56.7205C100.129 56.6898 100.06 56.6443 100.001 56.5867C99.9428 56.5291 99.8962 56.4605 99.8643 56.3848C99.8324 56.3091 99.8158 56.2278 99.8154 56.1456V53.1637C99.8156 52.9991 99.8811 52.8414 99.9974 52.7251C100.114 52.6088 100.271 52.5434 100.436 52.5432C103.336 52.1651 106.272 52.1653 109.172 52.5438H109.173C109.335 52.5462 109.49 52.6126 109.604 52.7287C109.718 52.8447 109.782 53.001 109.782 53.1637V56.1456C109.781 56.3101 109.716 56.4679 109.6 56.5842C109.483 56.7005 109.326 56.7659 109.161 56.7661ZM104.688 52.4291C103.27 52.4265 101.853 52.5208 100.447 52.7112C100.387 52.7103 100.327 52.7213 100.272 52.7435C100.216 52.7658 100.165 52.7989 100.122 52.841C100.079 52.883 100.044 52.9332 100.021 52.9886C99.9972 53.044 99.9848 53.1035 99.9843 53.1637V56.1456C99.9845 56.2654 100.032 56.3801 100.117 56.4648C100.201 56.5495 100.316 56.5971 100.436 56.5972C103.731 56.1728 106.591 56.1727 109.168 56.5971C109.286 56.5953 109.399 56.5469 109.483 56.4624C109.566 56.378 109.613 56.2642 109.613 56.1456V53.1637C109.613 53.0439 109.565 52.9291 109.48 52.8445C109.396 52.7598 109.281 52.7122 109.161 52.7121C107.677 52.526 106.183 52.4314 104.688 52.4291Z" fill="#6C63FF"/>
<path id="Vector_18" d="M104.799 55.6949C105.452 55.6949 105.981 55.1655 105.981 54.5125C105.981 53.8595 105.452 53.3301 104.799 53.3301C104.146 53.3301 103.616 53.8595 103.616 54.5125C103.616 55.1655 104.146 55.6949 104.799 55.6949Z" fill="#6C63FF"/>
<path id="Vector_19" d="M101.758 53.8949H100.745C100.677 53.8948 100.613 53.8681 100.566 53.8206C100.518 53.7731 100.491 53.7087 100.491 53.6415V53.3037C100.491 53.2365 100.518 53.1721 100.566 53.1246C100.613 53.0771 100.677 53.0504 100.745 53.0503H101.758C101.825 53.0504 101.89 53.0771 101.937 53.1246C101.985 53.1721 102.011 53.2365 102.011 53.3037V53.6415C102.011 53.7087 101.985 53.7731 101.937 53.8206C101.89 53.8681 101.825 53.8948 101.758 53.8949Z" fill="#6C63FF"/>
<path id="Vector_20" d="M108.853 56.2596H107.839C107.772 56.2596 107.708 56.2328 107.66 56.1853C107.613 56.1378 107.586 56.0734 107.586 56.0063V55.6684C107.586 55.6012 107.613 55.5368 107.66 55.4893C107.708 55.4418 107.772 55.4151 107.839 55.415H108.853C108.92 55.4151 108.984 55.4418 109.032 55.4893C109.079 55.5368 109.106 55.6012 109.106 55.6684V56.0063C109.106 56.0734 109.079 56.1378 109.032 56.1853C108.984 56.2328 108.92 56.2596 108.853 56.2596Z" fill="#6C63FF"/>
<path id="Vector_21" d="M107.719 55.533L107.707 55.5266C105.511 54.1405 102.889 53.0339 99.6912 52.1434L99.69 52.1429C99.6139 52.1119 99.5448 52.0661 99.4865 52.0082C99.4282 51.9503 99.382 51.8814 99.3504 51.8056C99.3189 51.7297 99.3027 51.6484 99.3027 51.5662C99.3028 51.4841 99.3191 51.4027 99.3507 51.3269L100.51 48.5797C100.575 48.4282 100.696 48.3083 100.849 48.2464C101.001 48.1845 101.172 48.1855 101.323 48.2493C104.142 49.0286 106.847 50.1708 109.371 51.6471L109.372 51.6475C109.521 51.713 109.638 51.8345 109.698 51.9858C109.758 52.137 109.756 52.3057 109.692 52.4554L108.532 55.2027C108.468 55.3541 108.347 55.474 108.194 55.5359C108.042 55.5979 107.871 55.5968 107.719 55.533Z" fill="#E0E0E0"/>
<path id="Vector_22" d="M107.719 55.533L107.707 55.5266C105.511 54.1405 102.889 53.0339 99.6912 52.1434L99.69 52.1429C99.6139 52.1119 99.5448 52.0661 99.4865 52.0082C99.4282 51.9503 99.382 51.8814 99.3504 51.8056C99.3189 51.7297 99.3027 51.6484 99.3027 51.5662C99.3028 51.4841 99.3191 51.4027 99.3507 51.3269L100.51 48.5797C100.575 48.4282 100.696 48.3083 100.849 48.2464C101.001 48.1845 101.172 48.1855 101.323 48.2493C104.142 49.0286 106.847 50.1708 109.371 51.6471L109.372 51.6475C109.521 51.713 109.638 51.8345 109.698 51.9858C109.758 52.137 109.756 52.3057 109.692 52.4554L108.532 55.2027C108.468 55.3541 108.347 55.474 108.194 55.5359C108.042 55.5979 107.871 55.5968 107.719 55.533ZM105.285 49.7977C103.979 49.2438 102.637 48.7797 101.269 48.4086C101.213 48.3843 101.154 48.3712 101.094 48.37C101.034 48.3687 100.974 48.3794 100.918 48.4015C100.862 48.4235 100.811 48.4563 100.768 48.4982C100.724 48.5401 100.69 48.5901 100.666 48.6453L99.5063 51.3926C99.4599 51.5029 99.4591 51.6272 99.5042 51.7381C99.5493 51.849 99.6365 51.9375 99.7467 51.9842C102.948 52.8748 105.583 53.9869 107.791 55.3799C107.901 55.4243 108.024 55.4237 108.134 55.3782C108.243 55.3328 108.331 55.2461 108.377 55.137L109.536 52.3897C109.583 52.2794 109.584 52.1551 109.539 52.0442C109.494 51.9332 109.406 51.8447 109.296 51.7981C108.001 51.0495 106.662 50.3815 105.285 49.7977Z" fill="#6C63FF"/>
<path id="Vector_23" d="M104.577 52.9425C105.23 52.9425 105.759 52.4131 105.759 51.7601C105.759 51.107 105.23 50.5776 104.577 50.5776C103.924 50.5776 103.395 51.107 103.395 51.7601C103.395 52.4131 103.924 52.9425 104.577 52.9425Z" fill="#6C63FF"/>
<path id="Vector_24" d="M102.016 50.0085L101.082 49.6144C101.021 49.5882 100.972 49.5385 100.946 49.4763C100.921 49.4141 100.922 49.3443 100.948 49.2824L101.079 48.9712C101.105 48.9093 101.155 48.8604 101.217 48.8351C101.279 48.8098 101.349 48.8102 101.411 48.8363L102.345 49.2304C102.407 49.2566 102.455 49.3063 102.481 49.3685C102.506 49.4307 102.506 49.5005 102.48 49.5624L102.348 49.8736C102.322 49.9355 102.272 49.9844 102.21 50.0097C102.148 50.035 102.078 50.0346 102.016 50.0085Z" fill="#6C63FF"/>
<path id="Vector_25" d="M107.632 54.946L106.699 54.5519C106.637 54.5257 106.588 54.476 106.563 54.4138C106.537 54.3516 106.538 54.2818 106.564 54.2199L106.695 53.9087C106.721 53.8468 106.771 53.7979 106.833 53.7726C106.896 53.7473 106.965 53.7477 107.027 53.7738L107.961 54.1679C108.023 54.1941 108.072 54.2438 108.097 54.306C108.122 54.3682 108.122 54.438 108.096 54.4999L107.964 54.8111C107.938 54.873 107.889 54.9219 107.826 54.9472C107.764 54.9725 107.694 54.9721 107.632 54.946Z" fill="#6C63FF"/>
<path id="Vector_26" d="M110.046 53.9007C110.259 53.7726 110.441 53.5995 110.58 53.3935C110.718 53.1874 110.81 52.9535 110.848 52.7082C110.887 52.4628 110.871 52.212 110.802 51.9735C110.733 51.7349 110.613 51.5144 110.449 51.3274L113.44 46.0845L110.31 46.2867L107.95 51.2345C107.654 51.5299 107.476 51.9235 107.451 52.3409C107.426 52.7582 107.555 53.1702 107.814 53.4989C108.072 53.8275 108.442 54.0499 108.854 54.124C109.265 54.198 109.689 54.1186 110.046 53.9007Z" fill="#FFB6B6"/>
<path id="Vector_27" d="M133.074 89.6426H131.003L130.018 81.6548L133.074 81.655L133.074 89.6426Z" fill="#FFB6B6"/>
<path id="Vector_28" d="M133.601 91.65L126.924 91.6498V91.5653C126.924 90.876 127.198 90.215 127.685 89.7276C128.173 89.2402 128.834 88.9663 129.523 88.9663H129.523L133.601 88.9665L133.601 91.65Z" fill="#2F2E41"/>
<path id="Vector_29" d="M118.884 89.6426H116.813L115.828 81.6548L118.885 81.655L118.884 89.6426Z" fill="#FFB6B6"/>
<path id="Vector_30" d="M119.413 91.65L112.735 91.6498V91.5653C112.735 90.876 113.009 90.215 113.497 89.7276C113.984 89.2402 114.645 88.9663 115.334 88.9663H115.335L119.413 88.9665L119.413 91.65Z" fill="#2F2E41"/>
<path id="Vector_31" d="M113.56 46.3096C113.56 46.3096 112.99 54.4213 114.112 58.5066C115.234 62.5919 115.434 87.2972 115.434 87.2972H119.195L122.454 53.668L129.968 87.4158L133.549 87.1695L131.585 47.4022L113.56 46.3096Z" fill="#2F2E41"/>
<path id="Vector_32" d="M130.031 18.9655L127.156 16.8677L122.339 17.9166L121.035 21.0149L118.788 22.129C118.049 22.4952 117.41 23.0354 116.926 23.7031C116.443 24.3708 116.128 25.146 116.01 25.9621L112.8 48.1285L131.585 47.4023L133.859 21.2971C133.882 21.0244 133.851 20.7497 133.767 20.4893C133.683 20.2289 133.547 19.988 133.368 19.781C133.189 19.5739 132.97 19.4048 132.725 19.2838C132.479 19.1628 132.212 19.0923 131.939 19.0764L130.031 18.9655Z" fill="#E4E4E4"/>
<path id="Vector_33" d="M117.599 23.8604L115.864 26.1992L108.308 49.2473L111.85 50.6656L117.522 39.9256L117.599 23.8604Z" fill="#E4E4E4"/>
<path id="Vector_34" d="M123.811 15.5122C126.986 15.5122 129.561 12.9381 129.561 9.76271C129.561 6.58734 126.986 4.01318 123.811 4.01318C120.636 4.01318 118.062 6.58734 118.062 9.76271C118.062 12.9381 120.636 15.5122 123.811 15.5122Z" fill="#2F2E41"/>
<path id="Vector_35" d="M123.889 15.7726C126.206 15.7726 128.085 13.8941 128.085 11.5769C128.085 9.25978 126.206 7.38135 123.889 7.38135C121.572 7.38135 119.693 9.25978 119.693 11.5769C119.693 13.8941 121.572 15.7726 123.889 15.7726Z" fill="#FFB9B9"/>
<path id="Vector_36" d="M127.074 11.0331C124.403 10.0695 123.499 9.47754 120.548 11.0331L119.46 6.68213H128.162L127.074 11.0331Z" fill="#2F2E41"/>
<path id="Vector_37" d="M123.344 7.30335C125.147 7.30335 126.608 5.84234 126.608 4.0401C126.608 2.23786 125.147 0.776855 123.344 0.776855C121.542 0.776855 120.081 2.23786 120.081 4.0401C120.081 5.84234 121.542 7.30335 123.344 7.30335Z" fill="#2F2E41"/>
<path id="Vector_38" d="M119.46 3.26325C119.461 2.4252 119.784 1.61949 120.362 1.01332C120.941 0.407153 121.731 0.0470847 122.568 0.00784333C122.516 0.005394 122.465 0 122.413 0C121.547 0 120.717 0.343806 120.105 0.955783C119.493 1.56776 119.149 2.39778 119.149 3.26324C119.149 4.12871 119.493 4.95873 120.105 5.57071C120.717 6.18269 121.547 6.52649 122.413 6.52649C122.465 6.52649 122.516 6.5211 122.568 6.51865C121.731 6.47941 120.941 6.11934 120.362 5.51317C119.784 4.90701 119.461 4.10129 119.46 3.26325Z" fill="#2F2E41"/>
<path id="Vector_39" opacity="0.1" d="M131.434 25.1875L130.263 36.8573L126.129 45.0051L131.434 25.1875Z" fill="black"/>
<path id="Vector_40" d="M7.68539 61.104H6.67188V61.9486H7.68539V61.104Z" fill="#F0F0F0"/>
<path id="Vector_41" d="M103.552 61.9486H101.555V61.104H103.552V61.9486ZM99.5575 61.9486H97.5601V61.104H99.5575V61.9486ZM95.563 61.9486H93.5658V61.104H95.563V61.9486ZM91.5686 61.9486H89.5713V61.104H91.5686V61.9486ZM87.5741 61.9486H85.577V61.104H87.5741V61.9486ZM83.5796 61.9486H81.5825V61.104H83.5796L83.5796 61.9486ZM79.5853 61.9486H77.5881V61.104H79.5853V61.9486ZM75.5908 61.9486H73.5936V61.104H75.5908V61.9486ZM71.5964 61.9486H69.5992V61.104H71.5964V61.9486ZM67.6019 61.9486H65.6047V61.104H67.6019L67.6019 61.9486ZM63.6075 61.9486H61.6103V61.104H63.6075L63.6075 61.9486ZM59.6131 61.9486H57.6158V61.104H59.6131L59.6131 61.9486ZM55.6187 61.9486H53.6214V61.104H55.6187L55.6187 61.9486ZM51.6241 61.9486H49.627V61.104H51.6242L51.6241 61.9486ZM47.6297 61.9486H45.6326V61.104H47.6298L47.6297 61.9486ZM43.6353 61.9486H41.6381V61.104H43.6353L43.6353 61.9486ZM39.6409 61.9486H37.6437V61.104H39.6409L39.6409 61.9486ZM35.6464 61.9486H33.6492V61.104H35.6465L35.6464 61.9486ZM31.6519 61.9486H29.6548V61.104H31.652L31.6519 61.9486ZM27.6575 61.9486H25.6604V61.104H27.6576L27.6575 61.9486ZM23.6631 61.9486H21.666V61.104H23.6631L23.6631 61.9486ZM19.6687 61.9486H17.6715V61.104H19.6687L19.6687 61.9486ZM15.6742 61.9486H13.677V61.104H15.6743L15.6742 61.9486ZM11.6798 61.9486H9.68262V61.104H11.6799L11.6798 61.9486Z" fill="#F0F0F0"/>
<path id="Vector_42" d="M7.68539 39.6514H6.67188V40.496H7.68539V39.6514Z" fill="#F0F0F0"/>
<path id="Vector_43" d="M103.552 40.496H101.555V39.6514H103.552V40.496ZM99.5575 40.496H97.5601V39.6514H99.5575V40.496ZM95.563 40.496H93.5658V39.6514H95.563V40.496ZM91.5686 40.496H89.5713V39.6514H91.5686V40.496ZM87.5741 40.496H85.577V39.6514H87.5741V40.496ZM83.5796 40.496H81.5825V39.6514H83.5796L83.5796 40.496ZM79.5853 40.496H77.5881V39.6514H79.5853V40.496ZM75.5908 40.496H73.5936V39.6514H75.5908V40.496ZM71.5964 40.496H69.5992V39.6514H71.5964V40.496ZM67.6019 40.496H65.6047V39.6514H67.6019L67.6019 40.496ZM63.6075 40.496H61.6103V39.6514H63.6075L63.6075 40.496ZM59.6131 40.496H57.6158V39.6514H59.6131L59.6131 40.496ZM55.6187 40.496H53.6214V39.6514H55.6187L55.6187 40.496ZM51.6241 40.496H49.627V39.6514H51.6242L51.6241 40.496ZM47.6297 40.496H45.6326V39.6514H47.6298L47.6297 40.496ZM43.6353 40.496H41.6381V39.6514H43.6353L43.6353 40.496ZM39.6409 40.496H37.6437V39.6514H39.6409L39.6409 40.496ZM35.6464 40.496H33.6492V39.6514H35.6465L35.6464 40.496ZM31.6519 40.496H29.6548V39.6514H31.652L31.6519 40.496ZM27.6575 40.496H25.6604V39.6514H27.6576L27.6575 40.496ZM23.6631 40.496H21.666V39.6514H23.6631L23.6631 40.496ZM19.6687 40.496H17.6715V39.6514H19.6687L19.6687 40.496ZM15.6742 40.496H13.677V39.6514H15.6743L15.6742 40.496ZM11.6798 40.496H9.68262V39.6514H11.6799L11.6798 40.496Z" fill="#F0F0F0"/>
<path id="Vector_44" d="M7.68539 18.1987H6.67188V19.0433H7.68539V18.1987Z" fill="#F0F0F0"/>
<path id="Vector_45" d="M103.552 19.0433H101.555V18.1987H103.552V19.0433ZM99.5575 19.0433H97.5601V18.1987H99.5575V19.0433ZM95.563 19.0433H93.5658V18.1987H95.563V19.0433ZM91.5686 19.0433H89.5713V18.1987H91.5686V19.0433ZM87.5741 19.0433H85.577V18.1987H87.5741V19.0433ZM83.5796 19.0433H81.5825V18.1987H83.5796L83.5796 19.0433ZM79.5853 19.0433H77.5881V18.1987H79.5853V19.0433ZM75.5908 19.0433H73.5936V18.1987H75.5908V19.0433ZM71.5964 19.0433H69.5992V18.1987H71.5964V19.0433ZM67.6019 19.0433H65.6047V18.1987H67.6019L67.6019 19.0433ZM63.6075 19.0433H61.6103V18.1987H63.6075L63.6075 19.0433ZM59.6131 19.0433H57.6158V18.1987H59.6131L59.6131 19.0433ZM55.6187 19.0433H53.6214V18.1987H55.6187L55.6187 19.0433ZM51.6241 19.0433H49.627V18.1987H51.6242L51.6241 19.0433ZM47.6297 19.0433H45.6326V18.1987H47.6298L47.6297 19.0433ZM43.6353 19.0433H41.6381V18.1987H43.6353L43.6353 19.0433ZM39.6409 19.0433H37.6437V18.1987H39.6409L39.6409 19.0433ZM35.6464 19.0433H33.6492V18.1987H35.6465L35.6464 19.0433ZM31.6519 19.0433H29.6548V18.1987H31.652L31.6519 19.0433ZM27.6575 19.0433H25.6604V18.1987H27.6576L27.6575 19.0433ZM23.6631 19.0433H21.666V18.1987H23.6631L23.6631 19.0433ZM19.6687 19.0433H17.6715V18.1987H19.6687L19.6687 19.0433ZM15.6742 19.0433H13.677V18.1987H15.6743L15.6742 19.0433ZM11.6798 19.0433H9.68262V18.1987H11.6799L11.6798 19.0433Z" fill="#F0F0F0"/>
<path id="Vector_46" d="M39.696 61.3574H31.4189V91.7628H39.696V61.3574Z" fill="#3F3D56"/>
<path id="Vector_47" d="M41.2165 61.3574H32.9395V91.7628H41.2165V61.3574Z" fill="#6C63FF"/>
<path id="Vector_48" d="M59.2907 39.9048H51.0137V91.7629H59.2907V39.9048Z" fill="#3F3D56"/>
<path id="Vector_49" d="M60.8112 39.9048H52.5342V91.7629H60.8112V39.9048Z" fill="#6C63FF"/>
<path id="Vector_50" d="M78.8854 18.4521H70.6084V91.763H78.8854V18.4521Z" fill="#3F3D56"/>
<path id="Vector_51" d="M80.405 18.4521H72.1279V91.763H80.405V18.4521Z" fill="#6C63FF"/>
<path id="Vector_52" d="M6.75652 20.6483C7.87602 20.6483 8.78355 19.7408 8.78355 18.6213C8.78355 17.5018 7.87602 16.5942 6.75652 16.5942C5.63702 16.5942 4.72949 17.5018 4.72949 18.6213C4.72949 19.7408 5.63702 20.6483 6.75652 20.6483Z" fill="#F0F0F0"/>
<path id="Vector_53" d="M6.75652 42.1009C7.87602 42.1009 8.78355 41.1934 8.78355 40.0739C8.78355 38.9544 7.87602 38.0469 6.75652 38.0469C5.63702 38.0469 4.72949 38.9544 4.72949 40.0739C4.72949 41.1934 5.63702 42.1009 6.75652 42.1009Z" fill="#F0F0F0"/>
<path id="Vector_54" d="M6.75652 63.5536C7.87602 63.5536 8.78355 62.646 8.78355 61.5265C8.78355 60.407 7.87602 59.4995 6.75652 59.4995C5.63702 59.4995 4.72949 60.407 4.72949 61.5265C4.72949 62.646 5.63702 63.5536 6.75652 63.5536Z" fill="#F0F0F0"/>
<path id="Vector_55" d="M150 91.5737H0V91.9522H150V91.5737Z" fill="#3F3D56"/>
<path id="Vector_56" d="M126.561 53.0503L126.547 53.0492C123.985 52.6261 121.139 52.6263 117.846 53.0496H117.845C117.763 53.0506 117.681 53.0353 117.605 53.0046C117.529 52.974 117.459 52.9285 117.401 52.8709C117.342 52.8133 117.296 52.7446 117.264 52.6689C117.232 52.5932 117.215 52.512 117.215 52.4298V49.4478C117.215 49.2833 117.28 49.1256 117.397 49.0093C117.513 48.893 117.671 48.8275 117.835 48.8273C120.735 48.4493 123.671 48.4495 126.571 48.828H126.572C126.735 48.8304 126.89 48.8968 127.004 49.0129C127.118 49.1289 127.182 49.2852 127.181 49.4478V52.4298C127.181 52.5943 127.115 52.752 126.999 52.8684C126.883 52.9847 126.725 53.0501 126.561 53.0503Z" fill="#E0E0E0"/>
<path id="Vector_57" d="M126.561 53.0503L126.547 53.0492C123.985 52.6261 121.139 52.6263 117.846 53.0496H117.845C117.763 53.0506 117.681 53.0353 117.605 53.0046C117.529 52.974 117.459 52.9285 117.401 52.8709C117.342 52.8133 117.296 52.7446 117.264 52.6689C117.232 52.5932 117.215 52.512 117.215 52.4298V49.4478C117.215 49.2833 117.28 49.1256 117.397 49.0093C117.513 48.893 117.671 48.8275 117.835 48.8273C120.735 48.4493 123.671 48.4495 126.571 48.828H126.572C126.735 48.8304 126.89 48.8968 127.004 49.0129C127.118 49.1289 127.182 49.2852 127.181 49.4478V52.4298C127.181 52.5943 127.115 52.752 126.999 52.8684C126.883 52.9847 126.725 53.0501 126.561 53.0503ZM122.087 48.7133C120.669 48.7107 119.252 48.805 117.847 48.9954C117.787 48.9945 117.727 49.0055 117.671 49.0277C117.615 49.05 117.564 49.0831 117.521 49.1252C117.478 49.1672 117.444 49.2174 117.42 49.2728C117.397 49.3281 117.384 49.3877 117.384 49.4478V52.4298C117.384 52.5495 117.432 52.6643 117.516 52.749C117.601 52.8336 117.716 52.8813 117.835 52.8814C121.131 52.457 123.991 52.4569 126.567 52.8813C126.686 52.8794 126.799 52.8311 126.882 52.7466C126.965 52.6622 127.012 52.5484 127.012 52.4298V49.4478C127.012 49.3281 126.964 49.2133 126.88 49.1287C126.795 49.044 126.68 48.9964 126.561 48.9963C125.077 48.8101 123.583 48.7156 122.087 48.7133Z" fill="#6C63FF"/>
<path id="Vector_58" d="M122.197 51.9786C122.85 51.9786 123.38 51.4492 123.38 50.7962C123.38 50.1432 122.85 49.6138 122.197 49.6138C121.544 49.6138 121.015 50.1432 121.015 50.7962C121.015 51.4492 121.544 51.9786 122.197 51.9786Z" fill="#6C63FF"/>
<path id="Vector_59" d="M119.157 50.1786H118.143C118.076 50.1785 118.011 50.1518 117.964 50.1043C117.916 50.0568 117.89 49.9924 117.89 49.9252V49.5874C117.89 49.5202 117.916 49.4558 117.964 49.4083C118.011 49.3608 118.076 49.3341 118.143 49.334H119.157C119.224 49.3341 119.288 49.3608 119.336 49.4083C119.383 49.4558 119.41 49.5202 119.41 49.5874V49.9252C119.41 49.9924 119.383 50.0568 119.336 50.1043C119.288 50.1518 119.224 50.1785 119.157 50.1786Z" fill="#6C63FF"/>
<path id="Vector_60" d="M126.251 52.5433H125.238C125.171 52.5433 125.106 52.5165 125.059 52.469C125.011 52.4215 124.984 52.3571 124.984 52.2899V51.9521C124.984 51.8849 125.011 51.8205 125.059 51.773C125.106 51.7255 125.171 51.6988 125.238 51.6987H126.251C126.318 51.6988 126.383 51.7255 126.43 51.773C126.478 51.8205 126.505 51.8849 126.505 51.9521V52.2899C126.505 52.3571 126.478 52.4215 126.43 52.469C126.383 52.5165 126.318 52.5433 126.251 52.5433Z" fill="#6C63FF"/>
<path id="Vector_61" d="M124.661 49.1414C124.644 48.8937 124.681 48.6451 124.77 48.4133C124.859 48.1815 124.998 47.9721 125.177 47.7997C125.356 47.6274 125.57 47.4963 125.805 47.4157C126.04 47.3352 126.29 47.3071 126.536 47.3335L129.11 41.8735L130.743 44.5521L128.048 49.3264C127.976 49.7383 127.756 50.1095 127.429 50.3697C127.101 50.6299 126.69 50.761 126.273 50.7382C125.855 50.7154 125.461 50.5402 125.164 50.2459C124.867 49.9516 124.688 49.5586 124.661 49.1414Z" fill="#FFB6B6"/>
<path id="Vector_62" d="M131.659 20.5808L132.719 19.1984C132.719 19.1984 135.302 18.6724 135.741 22.2199L135.465 37.9911L129.805 46.8993L126.129 45.9608L130.935 35.3784L131.659 20.5808Z" fill="#E4E4E4"/>
</g>
<rect x="0.5" y="0.5" width="149" height="90.9522" stroke="#D0D5DD"/>
</g>
<defs>
<clipPath id="clip0_1_12446">
<rect width="150" height="91.9522" fill="white"/>
</clipPath>
</defs>
</svg>
