<svg width="150" height="96" viewBox="0 0 150 96" fill="none" xmlns="http://www.w3.org/2000/svg">
<g id="undraw_credit_card_payments_re_qboh">
<g clip-path="url(#clip0_1_12509)">
<rect y="0.109375" width="150" height="94.9932" fill="white"/>
<path id="Vector" d="M124.195 94.9671L124.601 94.9592C124.444 90.4455 123.962 85.949 123.16 81.5045C121.405 71.9887 118.486 65.7393 114.484 62.9297L114.251 63.2619C123.598 69.825 124.19 94.7164 124.195 94.9671Z" fill="#2F2E41"/>
<path id="Vector_2" d="M119.12 94.8699L119.526 94.862C119.517 94.4124 119.264 83.8172 115.092 80.8887L114.859 81.2209C118.862 84.0312 119.118 94.7619 119.12 94.8699Z" fill="#2F2E41"/>
<path id="Vector_3" d="M111.942 63.2988C113.063 63.2988 113.972 62.39 113.972 61.269C113.972 60.148 113.063 59.2393 111.942 59.2393C110.821 59.2393 109.912 60.148 109.912 61.269C109.912 62.39 110.821 63.2988 111.942 63.2988Z" fill="#6C63FF"/>
<path id="Vector_4" d="M112.947 80.7549C114.068 80.7549 114.977 79.8461 114.977 78.7251C114.977 77.6041 114.068 76.6953 112.947 76.6953C111.826 76.6953 110.917 77.6041 110.917 78.7251C110.917 79.8461 111.826 80.7549 112.947 80.7549Z" fill="#6C63FF"/>
<path id="Vector_5" d="M120.067 64.5153C119.685 66.9518 120.679 69.1311 120.679 69.1311C120.679 69.1311 122.292 67.36 122.674 64.9234C123.055 62.4869 122.061 60.3076 122.061 60.3076C122.061 60.3076 120.448 62.0788 120.067 64.5153Z" fill="#2F2E41"/>
<path id="Vector_6" d="M113.432 70.4328C115.764 71.233 118.084 70.6337 118.084 70.6337C118.084 70.6337 116.621 68.7371 114.288 67.9369C111.955 67.1367 109.636 67.736 109.636 67.736C109.636 67.736 111.099 69.6327 113.432 70.4328Z" fill="#2F2E41"/>
<path id="Vector_7" d="M113.357 85.8921C114.413 86.2237 115.537 86.2723 116.618 86.0329C115.931 85.1594 115.008 84.503 113.957 84.1426C112.906 83.7823 111.774 83.7334 110.696 84.0018C111.402 84.854 112.32 85.5058 113.357 85.8921Z" fill="#2F2E41"/>
<path id="Vector_8" d="M65.9872 31.611L52.9007 24.8061C52.9007 24.8061 48.5061 19.9665 45.7462 17.7805C42.9863 15.5945 42.1367 17.2004 42.1367 17.2004L40.9766 19.134L43.7803 23.0336L51.3538 29.4468L64.8862 34.7473C65.0979 35.0938 65.4035 35.3732 65.7676 35.553C66.1317 35.7327 66.5394 35.8055 66.9432 35.7628C67.347 35.7201 67.7304 35.5637 68.0489 35.3118C68.3673 35.0598 68.6078 34.7227 68.7423 34.3396C68.8768 33.9564 68.8998 33.543 68.8087 33.1473C68.7176 32.7516 68.5161 32.3898 68.2275 32.1041C67.939 31.8184 67.5753 31.6204 67.1788 31.5331C66.7822 31.4458 66.369 31.4728 65.9872 31.611Z" fill="#9F616A"/>
<path id="Vector_9" d="M31.9484 25.7254L31.1737 20.9854L28.986 20.4385C28.986 20.4385 27.2498 19.9037 26.8439 23.401C26.4381 26.8983 26.7527 33.4278 26.7527 33.4278L22.311 47.4932C21.9416 47.6651 21.6285 47.9383 21.4084 48.2812C21.1882 48.6241 21.07 49.0225 21.0674 49.4299C21.0649 49.8374 21.1782 50.2372 21.3941 50.5828C21.61 50.9284 21.9196 51.2055 22.2869 51.382C22.6542 51.5584 23.0641 51.6268 23.4688 51.5793C23.8735 51.5318 24.2564 51.3703 24.5729 51.1137C24.8893 50.857 25.1264 50.5157 25.2564 50.1295C25.3864 49.7433 25.404 49.3282 25.3072 48.9323L31.1281 35.6155L31.9484 25.7254Z" fill="#9F616A"/>
<path id="Vector_10" d="M50.0426 92.2436L52.9052 92.2434L54.2672 81.2017L50.042 81.2019L50.0426 92.2436Z" fill="#9F616A"/>
<path id="Vector_11" d="M49.3125 91.3088L54.9502 91.3086H54.9504C55.9033 91.3086 56.8171 91.6872 57.4908 92.3609C58.1646 93.0347 58.5431 93.9485 58.5432 94.9013V95.0181L49.3127 95.0184L49.3125 91.3088Z" fill="#2F2E41"/>
<path id="Vector_12" d="M18.8188 92.2436L21.6816 92.2434L23.0433 81.2017L18.8184 81.2019L18.8188 92.2436Z" fill="#9F616A"/>
<path id="Vector_13" d="M18.0889 91.3088L23.7266 91.3086H23.7268C24.6796 91.3086 25.5934 91.6872 26.2672 92.3609C26.941 93.0347 27.3195 93.9485 27.3196 94.9013V95.0181L18.089 95.0184L18.0889 91.3088Z" fill="#2F2E41"/>
<path id="Vector_14" d="M32.9521 16.2569L28.2039 20.3102L32.1007 32.6416L32.9799 35.3952C32.9799 35.3952 27.6111 40.3452 24.2893 54.173C20.9674 68.0008 15.5332 86.3746 15.5332 86.3746L27.0039 89.6582L36.336 58.3782L47.3128 82.9183L48.5801 90.1766L58.3485 87.2963L56.0443 69.0929L44.5231 37.5826L45.7199 29.2297C45.7199 29.2297 47.5171 25.0605 44.395 20.6465L43.4157 16.4988L39.9076 15.6348L32.9521 16.2569Z" fill="#2F2E41"/>
<path id="Vector_15" d="M40.8402 14.0534H28.0028C27.7388 14.0531 27.4856 13.9481 27.2989 13.7614C27.1122 13.5747 27.0071 13.3215 27.0068 13.0574V7.52407C27.0068 5.55757 27.788 3.67161 29.1785 2.28109C30.5691 0.890564 32.455 0.109375 34.4215 0.109375C36.388 0.109375 38.274 0.890564 39.6645 2.28109C41.055 3.67161 41.8362 5.55757 41.8362 7.52407V13.0574C41.8359 13.3215 41.7309 13.5747 41.5442 13.7614C41.3574 13.9481 41.1043 14.0531 40.8402 14.0534Z" fill="#2F2E41"/>
<path id="Vector_16" d="M40.7149 11.0959C42.155 8.46151 41.1868 5.15848 38.5524 3.71838C35.918 2.27829 32.615 3.24646 31.1749 5.88087C29.7348 8.51527 30.703 11.8183 33.3374 13.2584C35.9718 14.6985 39.2748 13.7303 40.7149 11.0959Z" fill="#9F616A"/>
<path id="Vector_17" d="M43.5903 8.07758H35.7406L35.6601 6.95059L35.2576 8.07758H34.0489L33.8894 5.84393L33.0917 8.07758H30.7529V7.96691C30.7547 6.41187 31.3732 4.92102 32.4728 3.82143C33.5723 2.72184 35.0632 2.10332 36.6182 2.10156H37.7249C39.28 2.10332 40.7709 2.72183 41.8704 3.82142C42.97 4.92101 43.5886 6.41186 43.5903 7.96691V8.07758Z" fill="#2F2E41"/>
<path id="Vector_18" d="M35.6762 15.0865C35.6171 15.0864 35.5581 15.0812 35.4999 15.0709L29.752 14.0568V4.55713H36.0793L35.9227 4.73978C33.7432 7.28166 35.3852 11.4034 36.5579 13.634C36.6444 13.7974 36.6829 13.9818 36.6691 14.1661C36.6553 14.3505 36.5897 14.5271 36.48 14.6758C36.388 14.803 36.2672 14.9065 36.1275 14.9779C35.9877 15.0493 35.8331 15.0865 35.6762 15.0865Z" fill="#2F2E41"/>
<path id="Vector_19" d="M83.2113 64.8886L32.8363 82.6992C31.5908 83.138 30.2221 83.0648 29.0304 82.4957C27.8388 81.9266 26.9216 80.908 26.48 79.6635L17.8263 55.1875C17.3875 53.942 17.4607 52.5733 18.0298 51.3816C18.5989 50.19 19.6174 49.2728 20.862 48.8312L71.237 31.0206C72.4825 30.5818 73.8512 30.655 75.0429 31.2241C76.2345 31.7932 77.1517 32.8118 77.5933 34.0563L86.247 58.5323C86.6858 59.7778 86.6126 61.1465 86.0435 62.3382C85.4744 63.5298 84.4559 64.447 83.2113 64.8886Z" fill="#E0E0E0"/>
<path id="Vector_20" d="M86.2466 58.5322L86.2924 58.6617C86.7127 59.8512 86.6433 61.1589 86.0995 62.2972C85.5556 63.4355 84.5818 64.3112 83.3924 64.7315L32.7654 82.6311C31.5762 83.0515 30.2687 82.9822 29.1306 82.4386C27.9924 81.8951 27.1167 80.9217 26.6962 79.7325L26.6504 79.603L86.2466 58.5322Z" fill="#F2F2F2"/>
<path id="Vector_21" d="M29.6925 54.5142C26.3534 56.7114 22.0738 55.0579 20.5771 52.6494L20.8158 52.5138C23.6585 50.7419 27.8801 51.7291 29.6925 54.5142Z" fill="#6C63FF"/>
<path id="Vector_22" d="M71.5366 60.7478C70.7193 61.0368 69.9834 61.0235 69.3491 60.7084C67.9156 59.9961 67.2429 57.8841 66.7023 56.1871C66.5451 55.6934 66.3965 55.227 66.2453 54.8459L66.2431 54.8401C65.9799 54.0839 66.0258 53.2545 66.3706 52.5319C66.7155 51.8094 67.3315 51.2521 68.0848 50.9811L74.8607 48.5855C75.6769 48.2969 76.412 48.31 77.0458 48.6246C78.479 49.336 79.1523 51.4473 79.6933 53.1437C79.851 53.6384 80 54.1057 80.1518 54.4874C80.4164 55.2443 80.3715 56.075 80.0267 56.7989C79.6819 57.5228 79.0652 58.0812 78.3108 58.3527L71.5366 60.7478ZM66.527 54.7374C66.6817 55.1277 66.8315 55.5978 66.9899 56.0955C67.5132 57.7382 68.1644 59.7827 69.4834 60.4381C70.0496 60.7193 70.6883 60.7276 71.4359 60.4632L78.2097 58.0683C78.8883 57.8243 79.4432 57.3225 79.7539 56.6718C80.0645 56.0211 80.106 55.2741 79.8691 54.5931C79.7156 54.2074 79.565 53.7353 79.4056 53.2354C78.882 51.5933 78.2302 49.5495 76.9116 48.895C76.346 48.6142 75.7079 48.6061 74.9613 48.8701L68.1859 51.2656C67.5081 51.5095 66.9538 52.0108 66.6433 52.6607C66.3327 53.3107 66.2909 54.0569 66.527 54.7374Z" fill="#3F3D56"/>
<path id="Vector_23" d="M28.2879 55.3049C27.0972 55.7178 25.8146 55.7883 24.5858 55.5084C22.7914 55.1144 21.1628 54.043 20.3358 52.7125L20.2529 52.5792L20.6254 52.3675C23.5108 50.5702 27.8377 51.5445 29.7053 54.414L29.7872 54.5398L29.6618 54.6223C29.2332 54.9047 28.7718 55.1339 28.2879 55.3049ZM20.6776 52.6851C21.4869 53.8876 22.993 54.8496 24.6506 55.2136C26.2618 55.5899 27.9565 55.3165 29.3676 54.4524C27.5407 51.8098 23.4932 50.9332 20.7825 52.6253L20.6776 52.6851Z" fill="#3F3D56"/>
<path id="Vector_24" d="M30.0575 72.8725C29.6345 73.0399 29.1739 73.089 28.7251 73.0145C28.2762 72.94 27.8562 72.7446 27.51 72.4495C27.1048 72.0953 26.7976 71.6428 26.618 71.1354C26.4385 70.6281 26.3926 70.083 26.4848 69.5528C26.5705 69.0966 26.7808 68.673 27.0925 68.329C27.4041 67.9849 27.8049 67.7339 28.2505 67.6037L37.2787 64.4117C37.7072 64.2341 38.1763 64.1782 38.6345 64.2503C39.0927 64.3224 39.522 64.5196 39.8753 64.8202C40.2803 65.1745 40.5872 65.6271 40.7665 66.1345C40.9458 66.6418 40.9915 67.1868 40.8991 67.7169C40.7208 68.6485 40.0918 69.3349 39.1331 69.6634L30.1047 72.8554C30.089 72.8612 30.0732 72.8669 30.0575 72.8725ZM28.3067 67.9036C27.9214 68.0225 27.5759 68.2442 27.3071 68.5447C27.0384 68.8452 26.8566 69.2133 26.7814 69.6094C26.6983 70.0871 26.7396 70.5781 26.9014 71.0352C27.0631 71.4922 27.3399 71.8999 27.705 72.219C28.0179 72.4841 28.3982 72.6574 28.8037 72.7197C29.2091 72.7819 29.6239 72.7307 30.0019 72.5716L39.0346 69.378C39.429 69.2642 39.7843 69.0435 40.061 68.7403C40.3378 68.4371 40.5252 68.0633 40.6026 67.6601C40.6859 67.1826 40.6447 66.6916 40.4832 66.2345C40.3216 65.7775 40.045 65.3697 39.6801 65.0506C39.3667 64.7856 38.9863 64.6123 38.5807 64.5497C38.1751 64.487 37.7601 64.5375 37.3813 64.6955L28.3481 67.8893C28.3343 67.894 28.3204 67.8987 28.3067 67.9036Z" fill="#3F3D56"/>
<path id="Vector_25" d="M71.5964 53.5463L68.7504 54.5525C68.5617 54.6192 68.3542 54.6083 68.1736 54.522C67.993 54.4357 67.854 54.2813 67.7873 54.0926C67.7206 53.9039 67.7316 53.6964 67.8178 53.5158C67.9041 53.3352 68.0585 53.1962 68.2472 53.1295L71.0933 52.1232C71.282 52.0565 71.4895 52.0675 71.6701 52.1538C71.8507 52.24 71.9897 52.3945 72.0564 52.5832C72.1231 52.7719 72.1121 52.9794 72.0259 53.16C71.9396 53.3406 71.7851 53.4795 71.5964 53.5463Z" fill="#6C63FF"/>
<path id="Vector_26" d="M72.4021 55.8231L69.556 56.8294C69.3673 56.8961 69.1599 56.8851 68.9792 56.7988C68.7986 56.7126 68.6597 56.5581 68.593 56.3694C68.5262 56.1807 68.5372 55.9732 68.6235 55.7926C68.7097 55.612 68.8642 55.4731 69.0529 55.4063L71.899 54.4001C72.0877 54.3334 72.2951 54.3444 72.4758 54.4306C72.6564 54.5169 72.7953 54.6713 72.862 54.86C72.9288 55.0488 72.9178 55.2562 72.8315 55.4368C72.7453 55.6175 72.5908 55.7564 72.4021 55.8231Z" fill="#6C63FF"/>
<path id="Vector_27" d="M73.2068 58.1L70.3607 59.1062C70.2673 59.1393 70.1683 59.1536 70.0693 59.1483C69.9703 59.1431 69.8734 59.1184 69.7839 59.0757C69.6945 59.033 69.6144 58.9731 69.5481 58.8994C69.4818 58.8257 69.4307 58.7397 69.3977 58.6463C69.3646 58.5528 69.3503 58.4538 69.3555 58.3548C69.3608 58.2559 69.3855 58.1589 69.4282 58.0695C69.4709 57.98 69.5308 57.8999 69.6045 57.8336C69.6782 57.7673 69.7642 57.7162 69.8576 57.6832L72.7037 56.6769C72.7971 56.6439 72.8961 56.6296 72.9951 56.6348C73.094 56.6401 73.191 56.6648 73.2805 56.7075C73.3699 56.7502 73.45 56.8101 73.5163 56.8838C73.5826 56.9574 73.6337 57.0435 73.6667 57.1369C73.6998 57.2303 73.7141 57.3294 73.7088 57.4283C73.7036 57.5273 73.6789 57.6243 73.6362 57.7137C73.5935 57.8031 73.5336 57.8833 73.4599 57.9495C73.3862 58.0158 73.3002 58.0669 73.2068 58.1Z" fill="#6C63FF"/>
<path id="Vector_28" d="M76.5769 51.7855L73.7308 52.7918C73.6374 52.8248 73.5384 52.8391 73.4394 52.8339C73.3404 52.8286 73.2435 52.804 73.1541 52.7613C73.0646 52.7185 72.9845 52.6586 72.9182 52.585C72.8519 52.5113 72.8008 52.4253 72.7678 52.3318C72.7347 52.2384 72.7204 52.1393 72.7257 52.0404C72.7309 51.9414 72.7556 51.8445 72.7983 51.755C72.841 51.6656 72.9009 51.5855 72.9746 51.5192C73.0483 51.4529 73.1343 51.4018 73.2277 51.3687L76.0738 50.3625C76.2625 50.2958 76.47 50.3068 76.6506 50.393C76.8312 50.4793 76.9701 50.6337 77.0368 50.8224C77.1036 51.0112 77.0926 51.2186 77.0063 51.3992C76.9201 51.5799 76.7656 51.7188 76.5769 51.7855Z" fill="#6C63FF"/>
<path id="Vector_29" d="M77.3826 54.0624L74.5365 55.0686C74.4431 55.1017 74.344 55.116 74.2451 55.1107C74.1461 55.1055 74.0491 55.0808 73.9597 55.0381C73.8703 54.9954 73.7901 54.9355 73.7239 54.8618C73.6576 54.7881 73.6065 54.7021 73.5734 54.6087C73.5404 54.5152 73.5261 54.4162 73.5313 54.3172C73.5366 54.2183 73.5612 54.1213 73.604 54.0319C73.6467 53.9424 73.7066 53.8623 73.7803 53.796C73.8539 53.7298 73.9399 53.6786 74.0334 53.6456L76.8794 52.6393C76.9729 52.6063 77.0719 52.592 77.1709 52.5972C77.2698 52.6025 77.3668 52.6272 77.4562 52.6699C77.5457 52.7126 77.6258 52.7725 77.6921 52.8462C77.7583 52.9198 77.8095 53.0059 77.8425 53.0993C77.8755 53.1927 77.8899 53.2918 77.8846 53.3907C77.8794 53.4897 77.8547 53.5867 77.812 53.6761C77.7693 53.7655 77.7094 53.8457 77.6357 53.9119C77.562 53.9782 77.476 54.0293 77.3826 54.0624Z" fill="#6C63FF"/>
<path id="Vector_30" d="M78.1872 56.3392L75.3412 57.3455C75.1525 57.4122 74.945 57.4012 74.7644 57.315C74.5838 57.2287 74.4448 57.0742 74.3781 56.8855C74.3114 56.6968 74.3224 56.4893 74.4086 56.3087C74.4949 56.1281 74.6494 55.9892 74.8381 55.9225L77.6841 54.9162C77.7776 54.8832 77.8766 54.8689 77.9756 54.8741C78.0745 54.8793 78.1715 54.904 78.2609 54.9467C78.3503 54.9894 78.4305 55.0493 78.4968 55.123C78.563 55.1967 78.6142 55.2827 78.6472 55.3762C78.6802 55.4696 78.6945 55.5686 78.6893 55.6676C78.6841 55.7666 78.6594 55.8635 78.6167 55.953C78.574 56.0424 78.5141 56.1225 78.4404 56.1888C78.3667 56.2551 78.2807 56.3062 78.1872 56.3392Z" fill="#6C63FF"/>
<path id="Vector_31" d="M79.4773 39.3842L19.8809 60.4551L19.9815 60.7397L79.5779 39.6688L79.4773 39.3842Z" fill="#3F3D56"/>
<path id="Vector_32" d="M83.2113 64.8886L32.8363 82.6992C31.5908 83.138 30.2221 83.0648 29.0304 82.4957C27.8388 81.9266 26.9216 80.908 26.48 79.6635L17.8263 55.1875C17.3875 53.942 17.4607 52.5733 18.0298 51.3816C18.5989 50.19 19.6174 49.2728 20.862 48.8312L71.237 31.0206C72.4825 30.5818 73.8512 30.655 75.0429 31.2241C76.2345 31.7932 77.1517 32.8118 77.5933 34.0563L86.247 58.5323C86.6858 59.7778 86.6126 61.1465 86.0435 62.3382C85.4744 63.5298 84.4559 64.447 83.2113 64.8886ZM20.9626 49.1158C19.7935 49.5306 18.8367 50.3923 18.3021 51.5117C17.7675 52.6311 17.6987 53.9168 18.1109 55.0868L26.7646 79.5629C27.1795 80.732 28.0411 81.6888 29.1605 82.2234C30.2799 82.758 31.5656 82.8267 32.7357 82.4146L83.1107 64.604C84.2798 64.1892 85.2366 63.3275 85.7712 62.2081C86.3058 61.0887 86.3746 59.803 85.9624 58.6329L77.3087 34.1569C76.8939 32.9878 76.0322 32.031 74.9128 31.4964C73.7934 30.9618 72.5077 30.893 71.3376 31.3052L20.9626 49.1158Z" fill="#3F3D56"/>
<path id="Vector_33" d="M149.797 95.1027H0.202977C0.149144 95.1027 0.097516 95.0813 0.0594504 95.0433C0.0213849 95.0052 0 94.9536 0 94.8998C0 94.8459 0.0213849 94.7943 0.0594504 94.7562C0.097516 94.7182 0.149144 94.6968 0.202977 94.6968H149.797C149.851 94.6968 149.902 94.7182 149.941 94.7562C149.979 94.7943 150 94.8459 150 94.8998C150 94.9536 149.979 95.0052 149.941 95.0433C149.902 95.0813 149.851 95.1027 149.797 95.1027Z" fill="#CBCBCB"/>
</g>
<rect x="0.5" y="0.609375" width="149" height="93.9932" stroke="#D0D5DD"/>
</g>
<defs>
<clipPath id="clip0_1_12509">
<rect y="0.109375" width="150" height="94.9932" fill="white"/>
</clipPath>
</defs>
</svg>
