<svg width="150" height="85" viewBox="0 0 150 85" fill="none" xmlns="http://www.w3.org/2000/svg">
<g id="undraw_invest_re_8jl5">
<g clip-path="url(#clip0_1_12543)">
<rect y="0.109375" width="150" height="84.8265" fill="white"/>
<path id="Vector" d="M28.1652 82.568H25.9382L25.6055 73.9785L28.1655 73.9787L28.1652 82.568Z" fill="#FFB8B8"/>
<path id="Vector_2" d="M28.7331 84.7267L21.5527 84.7264V84.6356C21.5527 84.2686 21.625 83.9052 21.7655 83.5661C21.9059 83.227 22.1118 82.9189 22.3713 82.6594C22.6308 82.3999 22.9389 82.194 23.278 82.0535C23.6171 81.9131 23.9805 81.8408 24.3476 81.8408H24.3477L28.7332 81.841L28.7331 84.7267Z" fill="#2F2E41"/>
<path id="Vector_3" d="M40.7086 82.568H42.9353L43.2682 73.9785L40.708 73.9787L40.7086 82.568Z" fill="#FFB8B8"/>
<path id="Vector_4" d="M40.1406 81.841L44.5261 81.8408H44.5263C44.8933 81.8408 45.2568 81.9131 45.5958 82.0535C45.9349 82.194 46.243 82.3998 46.5026 82.6594C46.7621 82.9189 46.9679 83.227 47.1084 83.5661C47.2488 83.9052 47.3211 84.2686 47.3211 84.6356V84.7264L40.1408 84.7267L40.1406 81.841Z" fill="#2F2E41"/>
<path id="Vector_5" d="M40.7667 81.4675C40.5809 81.4669 40.4008 81.4033 40.2558 81.2871C40.1108 81.1708 40.0096 81.0089 39.9686 80.8277L34.4491 56.7531C34.437 56.6919 34.4037 56.637 34.355 56.598C34.3064 56.559 34.2455 56.5384 34.1832 56.5399H34.1818C34.1192 56.5387 34.0582 56.5597 34.0097 56.5993C33.9611 56.6388 33.9281 56.6942 33.9166 56.7557L28.848 80.668C28.8084 80.8509 28.7076 81.0149 28.5622 81.1327C28.4168 81.2505 28.2355 81.3151 28.0483 81.3158H25.6338C25.5224 81.3158 25.4122 81.293 25.3099 81.2489C25.2076 81.2047 25.1154 81.1401 25.039 81.0591C24.9626 80.978 24.9036 80.8822 24.8655 80.7775C24.8275 80.6728 24.8113 80.5614 24.8178 80.4502L26.6162 50.1423L27.3399 49.9282L27.3535 49.9284L41.5684 50.0527L44.5959 80.3272C44.6065 80.4352 44.5954 80.5442 44.5634 80.6479C44.5314 80.7516 44.4791 80.8478 44.4095 80.931C44.3399 81.0143 44.2544 81.0828 44.158 81.1326C44.0617 81.1824 43.9563 81.2126 43.8482 81.2213L40.8322 81.4648C40.8103 81.4666 40.7884 81.4675 40.7667 81.4675Z" fill="#2F2E41"/>
<path id="Vector_6" d="M34.8968 22.1858C37.3608 22.1858 39.3581 20.1884 39.3581 17.7245C39.3581 15.2606 37.3608 13.2632 34.8968 13.2632C32.4329 13.2632 30.4355 15.2606 30.4355 17.7245C30.4355 20.1884 32.4329 22.1858 34.8968 22.1858Z" fill="#A0616A"/>
<path id="Vector_7" d="M32.1634 53.4651C31.3807 53.4748 30.6011 53.3651 29.8515 53.1398C29.1848 52.9387 28.5663 52.6033 28.0341 52.1543C27.5018 51.7052 27.0671 51.152 26.7567 50.5287C26.6583 50.3411 26.6365 50.1227 26.6958 49.9194C27.1879 48.2401 29.5655 39.5112 28.0485 32.5721C27.8344 31.6081 27.8166 30.6109 27.9962 29.6399C28.1758 28.6689 28.5491 27.744 29.0939 26.9204C29.626 26.1033 30.3172 25.4017 31.1263 24.8575C31.9354 24.3133 32.8458 23.9376 33.8033 23.7529L33.8033 23.7527C34.0549 23.7036 34.3079 23.6633 34.5552 23.6328C35.6135 23.5025 36.6876 23.6078 37.7006 23.9411C38.7135 24.2743 39.6403 24.8274 40.4145 25.5606C41.2118 26.3083 41.8339 27.2229 42.2363 28.2391C42.6388 29.2552 42.8116 30.3478 42.7424 31.4386L41.5764 50.1484C41.5684 50.2886 41.524 50.4244 41.4476 50.5423C41.3713 50.6602 41.2656 50.7563 41.1409 50.821C39.7981 51.5247 35.7644 53.4651 32.1634 53.4651Z" fill="#CCCCCC"/>
<path id="Vector_8" d="M27.7379 50.393C27.9933 50.2659 28.2177 50.0844 28.3954 49.8612C28.573 49.638 28.6996 49.3785 28.7661 49.1011C28.8326 48.8237 28.8375 48.5351 28.7804 48.2556C28.7234 47.9761 28.6057 47.7125 28.4357 47.4834L29.8948 33.2173H26.7415L25.5819 47.1474C25.216 47.4585 24.9768 47.893 24.9098 48.3685C24.8428 48.8441 24.9526 49.3278 25.2183 49.7278C25.4841 50.1279 25.8874 50.4166 26.3517 50.5392C26.8161 50.6618 27.3093 50.6098 27.7379 50.393Z" fill="#A0616A"/>
<path id="Vector_9" d="M30.118 26.4633C30.7338 26.587 31.2834 26.9307 31.6642 27.4302C32.045 27.9297 32.2308 28.5507 32.1871 29.1773L31.7525 35.3972C31.7449 35.5063 31.7127 35.6122 31.6585 35.7072C31.6042 35.8021 31.5292 35.8835 31.4391 35.9454C31.349 36.0073 31.2461 36.0481 31.138 36.0647C31.03 36.0813 30.9195 36.0733 30.815 36.0413L25.5793 34.4386C25.484 34.4094 25.3957 34.3609 25.3199 34.2961C25.2441 34.2313 25.1824 34.1516 25.1388 34.062C25.0951 33.9724 25.0704 33.8747 25.0661 33.7751C25.0618 33.6755 25.0781 33.576 25.1139 33.483L27.1966 28.0692C27.4157 27.4997 27.8291 27.0262 28.3638 26.7322C28.8984 26.4383 29.5198 26.3431 30.118 26.4633Z" fill="#CCCCCC"/>
<path id="Vector_10" d="M39.9361 14.4407C39.4727 13.276 38.6238 12.3055 37.5312 11.6912C36.4386 11.0769 35.1683 10.8559 33.9324 11.0651L35.339 12.2018C33.5914 12.2607 31.7517 12.1355 30.5039 13.3606C30.9011 13.3495 31.4218 14.1993 31.819 14.1882C31.0763 14.2029 30.4028 14.7248 30.0748 15.3913C29.7709 16.076 29.6999 16.8415 29.8724 17.5705C30.0191 18.2987 31.1381 20.0048 31.4393 20.6838C31.3875 18.9091 34.8813 14.6761 36.5874 15.1179C35.7206 15.4395 34.9684 16.0106 34.4258 16.7591C35.5864 16.1733 36.8991 15.9585 38.1859 16.1438C38.4797 16.2112 38.7828 16.2282 39.0823 16.194C39.2659 16.1577 39.437 16.0749 39.5795 15.9536C39.722 15.8323 39.8309 15.6765 39.896 15.5011C39.9611 15.3256 39.9801 15.1365 39.9512 14.9516C39.9224 14.7667 39.8466 14.5923 39.7311 14.4451L39.9361 14.4407Z" fill="#2F2E41"/>
<path id="Vector_11" d="M69.387 84.936H0.181641C0.133467 84.936 0.0872657 84.9169 0.0532014 84.8828C0.019137 84.8488 0 84.8026 0 84.7544C0 84.7062 0.019137 84.66 0.0532014 84.626C0.0872657 84.5919 0.133467 84.5728 0.181641 84.5728H69.387C69.4352 84.5728 69.4814 84.5919 69.5154 84.626C69.5495 84.66 69.5686 84.7062 69.5686 84.7544C69.5686 84.8026 69.5495 84.8488 69.5154 84.8828C69.4814 84.9169 69.4352 84.936 69.387 84.936Z" fill="#3F3D56"/>
<path id="Vector_12" d="M148.729 5.37695H147.639V5.55859H148.729V5.37695Z" fill="#E6E6E6"/>
<path id="Vector_13" d="M145.437 5.55859H143.235V5.37695H145.437V5.55859ZM141.033 5.55859H138.832V5.37695H141.033L141.033 5.55859ZM136.63 5.55859H134.428V5.37695H136.63V5.55859ZM132.226 5.55859H130.025V5.37695H132.226V5.55859ZM127.823 5.55859H125.621V5.37695H127.823V5.55859ZM123.42 5.55859H121.218V5.37695H123.42V5.55859ZM119.016 5.55859H116.814V5.37695H119.016V5.55859ZM114.613 5.55859H112.411V5.37695H114.613V5.55859ZM110.209 5.55859H108.008V5.37695H110.209V5.55859ZM105.806 5.55859H103.604V5.37695H105.806V5.55859ZM101.402 5.55859H99.2008V5.37695H101.402V5.55859ZM96.999 5.55859H94.7973V5.37695H96.999V5.55859ZM92.5956 5.55859H90.3939V5.37695H92.5956V5.55859ZM88.1922 5.55859H85.9904V5.37695H88.1922V5.55859ZM83.7888 5.55859H81.5871V5.37695H83.7888V5.55859ZM79.3853 5.55859H77.1836V5.37695H79.3853V5.55859Z" fill="#E6E6E6"/>
<path id="Vector_14" d="M74.9824 5.37695H73.8926V5.55859H74.9824V5.37695Z" fill="#E6E6E6"/>
<path id="Vector_15" d="M112.945 22.2695H111.855V22.4512H112.945V22.2695Z" fill="#E6E6E6"/>
<path id="Vector_16" d="M109.687 22.4512H107.518V22.2695H109.687V22.4512ZM105.349 22.4512H103.18V22.2695H105.349V22.4512ZM101.011 22.4512H98.8415V22.2695H101.011V22.4512ZM96.6725 22.4512H94.5035V22.2695H96.6725V22.4512ZM92.3345 22.4512H90.1654V22.2695H92.3345V22.4512ZM87.9964 22.4512H85.8274V22.2695H87.9964V22.4512ZM83.6584 22.4512H81.4894V22.2695H83.6584L83.6584 22.4512ZM79.3204 22.4512H77.1514V22.2695H79.3204V22.4512Z" fill="#E6E6E6"/>
<path id="Vector_17" d="M74.9824 22.2695H73.8926V22.4512H74.9824V22.2695Z" fill="#E6E6E6"/>
<path id="Vector_18" d="M91.6934 30.2617H90.6035V30.4434H91.6934V30.2617Z" fill="#E6E6E6"/>
<path id="Vector_19" d="M88.3718 30.4434H86.1402V30.2617H88.3718V30.4434ZM83.9086 30.4434H81.677V30.2617H83.9086V30.4434ZM79.4454 30.4434H77.2139V30.2617H79.4454V30.4434Z" fill="#E6E6E6"/>
<path id="Vector_20" d="M74.9824 30.2617H73.8926V30.4434H74.9824V30.2617Z" fill="#E6E6E6"/>
<path id="Vector_21" d="M148.76 7.37695V38.4848C148.758 40.05 148.135 41.5504 147.029 42.6571C145.922 43.7638 144.421 44.3864 142.856 44.3882H79.6451C78.8165 44.3888 77.9971 44.2143 77.2405 43.8763C76.4839 43.5382 75.8073 43.0441 75.2549 42.4265V42.1486C75.7867 42.7883 76.452 43.304 77.2041 43.6595C77.9562 44.015 78.777 44.2017 79.6089 44.2065L90.5418 33.2736C90.6852 33.1302 90.8554 33.0164 91.0427 32.9388C91.23 32.8612 91.4308 32.8213 91.6335 32.8213C91.8363 32.8213 92.037 32.8612 92.2243 32.9388C92.4116 33.0164 92.5818 33.1302 92.7252 33.2736L98.5358 39.0824L112.157 25.463C112.301 25.3196 112.471 25.2058 112.658 25.1282C112.845 25.0506 113.046 25.0107 113.249 25.0107C113.452 25.0107 113.652 25.0506 113.84 25.1282C114.027 25.2058 114.197 25.3196 114.34 25.463L122.331 33.4516L148.398 7.38603L148.578 7.38058L148.662 7.37877L148.76 7.37695Z" fill="#6C63FF"/>
<path id="Vector_22" d="M142.916 44.4299H79.7051C78.14 44.4281 76.6395 43.8056 75.5328 42.6989C74.4261 41.5921 73.8035 40.0916 73.8018 38.5265V6.01272C73.8035 4.4476 74.4261 2.94709 75.5328 1.84038C76.6395 0.733673 78.14 0.111147 79.7051 0.109375H142.916C144.481 0.111146 145.982 0.733673 147.089 1.84038C148.195 2.94709 148.818 4.4476 148.82 6.01272V38.5265C148.818 40.0916 148.195 41.5922 147.089 42.6989C145.982 43.8056 144.481 44.4281 142.916 44.4299ZM79.7051 0.291016C78.1881 0.292733 76.7338 0.896104 75.6611 1.96876C74.5885 3.04142 73.9851 4.49576 73.9834 6.01272V38.5265C73.9851 40.0435 74.5885 41.4978 75.6611 42.5705C76.7338 43.6431 78.1881 44.2465 79.7051 44.2482H142.916C144.433 44.2465 145.888 43.6431 146.96 42.5705C148.033 41.4978 148.636 40.0435 148.638 38.5265V6.01272C148.636 4.49576 148.033 3.04142 146.96 1.96876C145.888 0.896104 144.433 0.292732 142.916 0.291016H79.7051Z" fill="#3F3D56"/>
<path id="Vector_23" d="M79.769 44.4035L79.6406 44.275L90.6015 33.3142C90.8912 33.0251 91.2838 32.8627 91.6932 32.8627C92.1025 32.8627 92.4951 33.0251 92.7849 33.3142L98.5955 39.1249L112.217 25.5036C112.507 25.2145 112.899 25.0521 113.308 25.0521C113.718 25.0521 114.11 25.2145 114.4 25.5036L122.391 33.494L148.664 7.22021L148.793 7.34864L122.391 33.7508L114.272 25.6321C114.145 25.5056 113.995 25.4052 113.83 25.3367C113.665 25.2683 113.487 25.233 113.308 25.233C113.13 25.233 112.952 25.2683 112.787 25.3367C112.622 25.4052 112.472 25.5056 112.345 25.6321L98.5955 39.3817L92.6564 33.4426C92.4007 33.1876 92.0543 33.0443 91.6932 33.0443C91.332 33.0443 90.9856 33.1876 90.7299 33.4426L79.769 44.4035Z" fill="#3F3D56"/>
<path id="Vector_24" d="M91.6934 31.624C92.3956 31.624 92.9649 31.0548 92.9649 30.3525C92.9649 29.6503 92.3956 29.0811 91.6934 29.0811C90.9911 29.0811 90.4219 29.6503 90.4219 30.3525C90.4219 31.0548 90.9911 31.624 91.6934 31.624Z" fill="#3F3D56"/>
<path id="Vector_25" d="M112.945 23.6318C113.648 23.6318 114.217 23.0626 114.217 22.3604C114.217 21.6581 113.648 21.0889 112.945 21.0889C112.243 21.0889 111.674 21.6581 111.674 22.3604C111.674 23.0626 112.243 23.6318 112.945 23.6318Z" fill="#3F3D56"/>
<path id="Vector_26" d="M148.729 6.73927C149.431 6.73927 150 6.17 150 5.46778C150 4.76555 149.431 4.19629 148.729 4.19629C148.026 4.19629 147.457 4.76555 147.457 5.46778C147.457 6.17 148.026 6.73927 148.729 6.73927Z" fill="#3F3D56"/>
<path id="Vector_27" d="M31.1454 53.1688C33.7827 53.1688 35.9207 50.126 35.9207 46.3725C35.9207 42.619 33.7827 39.5762 31.1454 39.5762C28.5081 39.5762 26.3701 42.619 26.3701 46.3725C26.3701 50.126 28.5081 53.1688 31.1454 53.1688Z" fill="#3F3D56"/>
<path id="Vector_28" opacity="0.1" d="M31.1454 53.1688C33.7827 53.1688 35.9207 50.126 35.9207 46.3725C35.9207 42.619 33.7827 39.5762 31.1454 39.5762C28.5081 39.5762 26.3701 42.619 26.3701 46.3725C26.3701 50.126 28.5081 53.1688 31.1454 53.1688Z" fill="black"/>
<path id="Vector_29" d="M31.7899 53.1688C34.4273 53.1688 36.5652 50.126 36.5652 46.3725C36.5652 42.619 34.4273 39.5762 31.7899 39.5762C29.1526 39.5762 27.0146 42.619 27.0146 46.3725C27.0146 50.126 29.1526 53.1688 31.7899 53.1688Z" fill="#3F3D56"/>
<path id="Vector_30" opacity="0.1" d="M31.79 52.2015C34.052 52.2015 35.8857 49.5918 35.8857 46.3725C35.8857 43.1532 34.052 40.5435 31.79 40.5435C29.528 40.5435 27.6943 43.1532 27.6943 46.3725C27.6943 49.5918 29.528 52.2015 31.79 52.2015Z" fill="black"/>
<path id="Vector_31" d="M31.7542 49.1802V48.496C31.4266 48.4931 31.1079 48.3889 30.8418 48.1979L30.9849 47.744C31.2329 47.9299 31.5337 48.0319 31.8437 48.0353C31.9348 48.0425 32.0265 48.0306 32.1128 48.0005C32.1991 47.9703 32.2782 47.9224 32.345 47.8599C32.4118 47.7974 32.4648 47.7217 32.5007 47.6376C32.5365 47.5535 32.5545 47.4628 32.5533 47.3714C32.5533 46.9987 32.3207 46.7684 31.8794 46.5652C31.2712 46.2942 30.8955 45.9825 30.8955 45.3932C30.8861 45.1326 30.9726 44.8778 31.1385 44.6767C31.3045 44.4757 31.5384 44.3425 31.796 44.3024V43.6182H32.1657V44.2753C32.4414 44.2791 32.7103 44.3613 32.941 44.5124L32.7919 44.9596C32.5707 44.8082 32.3085 44.7278 32.0405 44.7292C31.9596 44.7207 31.8778 44.7296 31.8006 44.7552C31.7234 44.7808 31.6525 44.8225 31.5927 44.8776C31.5329 44.9328 31.4855 45 31.4537 45.0749C31.4219 45.1497 31.4064 45.2305 31.4083 45.3119C31.4083 45.6641 31.629 45.8403 32.1478 46.0842C32.762 46.3687 33.0722 46.721 33.0722 47.324C33.0804 47.5973 32.9896 47.8644 32.8164 48.076C32.6433 48.2876 32.3995 48.4296 32.1299 48.4756V49.1803L31.7542 49.1802Z" fill="#6C63FF"/>
<path id="Vector_32" d="M34.3462 42.4791C34.446 42.4906 34.5448 42.51 34.6416 42.537L41.4797 36.6729L41.08 34.5213L44.2483 33.4937L45.3261 37.2339C45.4131 37.536 45.3998 37.8583 45.2882 38.1522C45.1765 38.4462 44.9725 38.696 44.7068 38.8642L36.0466 44.3444C36.0527 44.7315 35.9408 45.1113 35.7258 45.4334C35.5108 45.7554 35.2029 46.0043 34.843 46.147C34.483 46.2898 34.0882 46.3195 33.7109 46.2324C33.3337 46.1452 32.9919 45.9453 32.731 45.6591C32.4702 45.373 32.3026 45.0142 32.2507 44.6305C32.1987 44.2468 32.2648 43.8564 32.4401 43.5112C32.6154 43.1659 32.8917 42.8823 33.2322 42.6979C33.5727 42.5135 33.9612 42.4372 34.3462 42.4791Z" fill="#A0616A"/>
<path id="Vector_33" d="M40.2049 26.6871C40.8198 26.559 41.4602 26.6592 42.0066 26.969C42.553 27.2787 42.9679 27.7768 43.1738 28.3702L45.2175 34.2609C45.2533 34.3642 45.2654 34.4742 45.2528 34.5828C45.2402 34.6914 45.2032 34.7958 45.1447 34.8881C45.0861 34.9804 45.0075 35.0584 44.9146 35.1161C44.8218 35.1738 44.7171 35.2098 44.6084 35.2215L39.164 35.8043C39.0648 35.8149 38.9646 35.805 38.8694 35.7752C38.7743 35.7454 38.6863 35.6963 38.6109 35.631C38.5356 35.5657 38.4745 35.4856 38.4314 35.3957C38.3883 35.3058 38.3642 35.2079 38.3606 35.1083L38.1492 29.3115C38.1269 28.7018 38.3211 28.1039 38.6974 27.6236C39.0736 27.1433 39.6076 26.8116 40.2049 26.6871Z" fill="#CCCCCC"/>
</g>
<rect x="0.5" y="0.609375" width="149" height="83.8265" stroke="#D0D5DD"/>
</g>
<defs>
<clipPath id="clip0_1_12543">
<rect y="0.109375" width="150" height="84.8265" fill="white"/>
</clipPath>
</defs>
</svg>
