<svg width="101" height="74" viewBox="0 0 101 74" fill="none" xmlns="http://www.w3.org/2000/svg">
<g id="undraw_drag_re_shc0" clip-path="url(#clip0_469_4429)">
<g id="Group">
<path id="Vector" d="M83.2021 59.0816H4.3043C2.20662 59.0816 0.5 57.3751 0.5 55.2773V3.79453C0.5 1.69685 2.20662 -0.00976562 4.3043 -0.00976562H83.2021C85.2998 -0.00976562 87.0064 1.69685 87.0064 3.79453V55.2773C87.0064 57.3751 85.2998 59.0816 83.2021 59.0816Z" fill="#2F2E41"/>
<path id="Vector_2" d="M83.2021 59.0816H4.3043C2.20662 59.0816 0.5 57.3751 0.5 55.2773V3.79453C0.5 1.69685 2.20662 -0.00976562 4.3043 -0.00976562H83.2021C85.2998 -0.00976562 87.0064 1.69685 87.0064 3.79453V55.2773C87.0064 57.3751 85.2998 59.0816 83.2021 59.0816ZM4.3043 0.321043C2.38594 0.321043 0.830808 1.87618 0.830808 3.79453V55.2773C0.830808 57.1957 2.38594 58.7508 4.3043 58.7508H83.2021C85.1204 58.7508 86.6756 57.1957 86.6756 55.2773V22.4444C86.6756 10.226 76.7706 0.321043 64.5522 0.321043H4.3043Z" fill="#F2F2F2"/>
</g>
<g id="Group_2">
<path id="Vector_3" d="M25.243 7.98319H19.5336C19.1376 7.98319 18.8154 7.661 18.8154 7.26503C18.8154 6.86906 19.1376 6.54688 19.5336 6.54688H25.243C25.639 6.54688 25.9611 6.86906 25.9611 7.26503C25.9611 7.661 25.639 7.98319 25.243 7.98319Z" fill="#E6E6E6"/>
<path id="Vector_4" d="M55.6613 6.61914H49.952C49.595 6.61914 49.3057 6.90852 49.3057 7.26548C49.3057 7.62244 49.595 7.91182 49.952 7.91182H55.6613C56.0183 7.91182 56.3077 7.62244 56.3077 7.26548C56.3077 6.90852 56.0183 6.61914 55.6613 6.61914Z" fill="#6C63FF"/>
<path id="Vector_5" d="M47.4744 7.98319H41.765C41.3691 7.98319 41.0469 7.661 41.0469 7.26503C41.0469 6.86906 41.3691 6.54688 41.765 6.54688H47.4744C47.8703 6.54688 48.1925 6.86906 48.1925 7.26503C48.1925 7.661 47.8703 7.98319 47.4744 7.98319Z" fill="#E6E6E6"/>
</g>
<path id="Vector_6" d="M61.3686 52.1932H10.9098C8.81209 52.1932 7.10547 50.4867 7.10547 48.3889V18.4508C7.10547 16.3531 8.81209 14.6465 10.9098 14.6465H61.3686C63.4663 14.6465 65.1729 16.3531 65.1729 18.4508V48.3889C65.1729 50.4867 63.4663 52.1932 61.3686 52.1932Z" fill="#F2F2F2"/>
<g id="Group_3">
<g id="Group_4">
<path id="Vector_7" d="M78.0127 31.2818L75.9606 28.9658L73.2359 31.9064L67.3525 29.3235C67.2466 28.7687 66.7841 28.3286 66.1937 28.2782C65.4823 28.2175 64.8565 28.7449 64.7958 29.4563C64.7351 30.1676 65.2625 30.7935 65.9738 30.8542C66.1556 30.8697 66.3317 30.8463 66.4943 30.7918L73.7719 34.8557L78.0127 31.2818Z" fill="#FFB6B6"/>
<path id="Vector_8" d="M79.7681 28.1289C79.6088 27.9041 79.5544 27.5845 79.5008 27.3206C79.4543 27.0921 79.2924 26.8987 79.0596 26.8426C78.9623 26.8191 78.8996 26.7585 78.8039 26.7308C78.7034 26.7017 78.6011 26.6773 78.5 26.6502C78.2499 26.583 77.9737 26.5116 77.7164 26.5842C77.3853 26.6776 77.1274 26.9216 76.8806 27.1435C76.7899 27.2251 76.7432 27.338 76.66 27.423C76.6225 27.4614 76.5788 27.4791 76.5454 27.5237C76.4956 27.5901 76.4851 27.6757 76.4343 27.7399C76.3912 27.7945 76.3311 27.8241 76.2958 27.8857C76.2594 27.9494 76.2333 28.0056 76.1865 28.0647C76.0958 28.1793 75.9823 28.256 75.8809 28.358C75.7759 28.4636 75.6745 28.5782 75.5714 28.6861C75.4537 28.8093 75.3829 28.9649 75.2693 29.0867C75.1006 29.2676 74.9563 29.4795 74.7922 29.6688C74.6868 29.7905 74.5915 29.8989 74.4594 29.9923C74.3959 30.0373 74.3594 30.1101 74.2963 30.1501C74.2311 30.1914 74.1221 30.2279 74.0487 30.2614C73.9658 30.2994 73.8082 30.3015 73.7623 30.3931C73.7193 30.4788 73.7854 30.5492 73.8447 30.5976C73.8854 30.6308 73.9947 30.6757 73.9567 30.742C73.9336 30.7823 73.7571 30.8056 73.7116 30.8216C73.5423 30.8813 73.4263 31.038 73.2882 31.1508C73.1344 31.2765 73.2062 31.3075 73.3208 31.4244C73.3615 31.4659 73.37 31.5026 73.425 31.5296C73.4759 31.5546 73.5504 31.5602 73.6058 31.575C73.7278 31.6075 73.8497 31.6405 73.9717 31.6733L74.7732 31.8885L75.5899 32.1078C75.7757 32.1578 75.9617 32.2072 76.1475 32.2575C76.2401 32.2826 76.3323 32.3143 76.4272 32.329C76.5095 32.3418 76.6451 32.3752 76.7272 32.3638C76.8495 32.3468 77.0501 32.1987 77.1303 32.1132C77.2191 32.0183 77.2814 31.9137 77.3767 31.822C77.5805 31.6258 77.7196 31.3865 77.8469 31.134C77.922 30.9851 78.0208 30.8515 78.0984 30.7046C78.1646 30.5793 78.2102 30.4443 78.278 30.3198C78.3997 30.0964 78.5096 29.8684 78.6252 29.6417C78.6915 29.5115 78.7601 29.3829 78.828 29.2538C78.9031 29.111 79.0005 28.9883 79.0883 28.8532C79.1619 28.7398 79.2469 28.611 79.346 28.5215C79.4721 28.4076 79.6081 28.286 79.7182 28.1577" fill="#6C63FF"/>
</g>
<g id="Group_5">
<path id="Vector_9" d="M77.4849 70.8418L76.2607 71.2145L74.2402 66.6703L76.0469 66.1201L77.4849 70.8418Z" fill="#FFB6B6"/>
<path id="Vector_10" d="M77.917 72.1052L74.1526 73.2517L74.1381 73.2041C73.8917 72.3949 74.3479 71.5391 75.157 71.2926L75.6858 70.5615L77.1276 70.6925L77.4562 70.5924L77.917 72.1052Z" fill="#2F2E41"/>
</g>
<g id="Group_6">
<path id="Vector_11" d="M82.9333 71.9164L81.6536 71.9162L81.0449 66.9805L82.9335 66.9806L82.9333 71.9164Z" fill="#FFB6B6"/>
<path id="Vector_12" d="M82.978 73.2508L79.043 73.2507V73.2009C79.043 72.3551 79.7287 71.6694 80.5746 71.6693L81.2935 71.124L82.6346 71.6694L82.9781 71.6694L82.978 73.2508Z" fill="#2F2E41"/>
</g>
<path id="Vector_13" d="M85.9878 41.8414L85.7435 42.0857C84.4455 42.0857 83.0679 42.222 81.7835 42.0581C81.1115 41.9724 80.4372 41.8373 79.762 41.8414C79.254 41.8445 78.7458 41.8414 78.2378 41.8414C77.9103 41.8414 77.5818 41.8338 77.2544 41.8404C76.6574 41.8525 76.3207 42.3074 76.101 42.8118C75.8608 43.3633 75.4032 43.7724 75.1447 44.3145C74.8867 44.8555 74.6258 45.3621 74.3232 45.884C73.3565 47.5511 72.5551 49.2779 71.7888 51.0328C71.5753 51.5217 71.33 51.9904 71.0903 52.4646C70.9445 52.753 70.8464 52.8997 70.8401 53.2251C70.8329 53.6029 70.8542 53.9265 70.9631 54.2905C71.0885 54.7101 71.2766 55.111 71.3951 55.5273C71.4739 55.8043 71.4663 56.0539 71.575 56.3209C71.6457 56.4947 71.7486 56.6802 71.7921 56.8626C71.8848 57.252 71.9466 57.6819 71.9414 58.0864C71.9356 58.5336 72.0957 58.8748 72.2192 59.302C72.3674 59.8149 72.2762 60.2838 72.5214 60.7768C72.6232 60.9814 72.6524 61.1252 72.7019 61.348C72.774 61.6733 72.943 61.9546 73.0453 62.2649C73.4083 63.3669 73.3754 64.5496 73.4043 65.6904C73.4165 66.1736 73.5288 66.6335 73.5293 67.1278C73.5296 67.5265 73.4726 67.9603 73.5846 68.3433C73.7004 68.7396 73.8473 69.3632 74.3178 69.3289C74.8998 69.2865 75.5177 69.1546 76.0975 69.0521C76.315 69.0137 76.7395 68.9406 76.9264 68.8198C77.2778 68.5927 77.0902 68.3984 77.1242 68.0717C77.1356 67.9622 77.28 67.762 77.2711 67.644C77.2594 67.4873 77.1239 67.3904 77.0918 67.2476C77.0437 67.033 77.0733 67.0276 77.1014 66.8472C77.156 66.4959 77.2235 66.6209 76.9792 66.3035C76.7213 65.9683 76.8271 65.4431 76.8271 65.0277V63.5933C76.8271 63.2402 76.8274 62.8871 76.8271 62.534C76.8267 62.0085 76.6993 61.5143 76.7054 60.9946C76.7122 60.4155 76.7301 59.8265 76.7107 59.2482C76.6992 58.9022 76.5168 58.6571 76.4544 58.3279C76.4006 58.0446 76.3524 57.7673 76.2773 57.4791C76.1984 57.1766 76.123 56.9115 76.0028 56.627C75.8497 56.2648 75.8756 55.8838 75.7282 55.5219C75.5984 55.203 75.6131 54.9355 75.6071 54.6008C75.6023 54.3377 75.4729 54.0964 75.472 53.8379C75.4698 53.2402 76.2908 52.402 76.69 51.9897C77.2128 51.4497 77.7879 50.9523 78.2924 50.3953C78.513 50.1518 78.7364 49.9515 78.9692 49.723C79.1854 49.5107 79.3252 49.2373 79.5414 49.0207C79.8333 48.7283 80.0854 48.3952 80.3421 48.0707C80.5434 47.8161 80.6743 47.4628 80.9 47.2352C80.9764 47.4692 80.8681 47.7365 80.8572 47.9781C80.8396 48.3666 80.8045 48.721 80.7369 49.1055C80.6256 49.7387 80.5151 50.3648 80.4303 51.0007C80.2941 52.0224 80.1259 53.0384 80.125 54.0625C80.1233 55.8309 80.125 57.5993 80.125 59.3677C80.125 60.9039 80.0929 62.4442 80.1221 63.9799C80.1307 64.4285 80.2651 64.8427 80.2519 65.3016C80.2911 65.4324 80.2735 65.5527 80.1991 65.6623C80.1428 65.6988 80.0866 65.7352 80.0304 65.7716C79.8777 66.0069 79.8379 66.1519 79.9 66.4256C79.9684 66.7274 80.2982 67.0417 80.2563 67.3693C80.2345 67.5391 80.1276 67.6303 80.1325 67.8027C80.1393 68.0445 80.2256 68.2266 80.1915 68.486C80.4402 68.7184 80.7462 68.5488 81.013 68.4953C81.2281 68.4522 81.4396 68.4937 81.6532 68.4584C81.9029 68.417 82.0664 68.3419 82.3247 68.3452C82.528 68.3478 82.7314 68.3482 82.9347 68.346C83.5245 68.3396 83.7071 68.0575 83.7888 67.4819C83.8336 67.1668 84.0529 67.0617 84.1377 66.7677C84.2311 66.4433 84.1622 65.9856 84.0946 65.6687C84.004 65.2442 84.0856 64.8379 84.0399 64.4107C83.9878 63.9241 83.7973 63.4643 83.7864 62.9721C83.7681 62.1406 83.6808 61.1936 83.783 60.3708C83.8055 60.1892 83.8953 60.0357 83.9162 59.8563C83.9338 59.7053 83.899 59.5793 83.9386 59.4296C84.0778 58.9033 84.1238 58.3319 84.2626 57.7905C84.3841 57.3166 84.4019 56.8621 84.4921 56.3823C84.5588 56.0278 84.6287 55.6256 84.6506 55.2652C84.6647 55.033 84.6174 54.8084 84.6686 54.5778C84.7249 54.3242 84.863 54.1066 84.8944 53.8449C84.9223 53.6125 84.8713 53.3692 84.884 53.1351C84.8967 52.9002 84.9979 52.7052 85.0141 52.4734C85.0406 52.0913 85.0716 51.7434 85.1635 51.3651C85.4747 50.0833 85.7355 48.7786 86.1114 47.5153C86.4137 46.4992 86.5985 45.4674 86.5985 44.4064C86.5985 43.9187 86.832 41.6599 85.9878 41.8414Z" fill="#6C63FF"/>
<g id="Group_7">
<path id="Vector_14" d="M71.3454 22.8799H20.8864C18.7893 22.8799 17.083 24.5862 17.083 26.6832V56.6217C17.083 58.7201 18.7893 60.4265 20.8864 60.4265H71.3454C73.4438 60.4265 75.1502 58.7201 75.1502 56.6217V26.6832C75.1502 24.5862 73.4438 22.8799 71.3454 22.8799Z" fill="white"/>
<path id="Vector_15" d="M71.3452 60.4266H20.8863C18.7886 60.4266 17.082 58.7201 17.082 56.6223V26.6842C17.082 24.5865 18.7886 22.8799 20.8863 22.8799H71.3452C73.4428 22.8799 75.1495 24.5865 75.1495 26.6842V56.6223C75.1495 58.7201 73.4428 60.4266 71.3452 60.4266ZM20.8863 23.2107C18.968 23.2107 17.4128 24.7658 17.4128 26.6842V56.6223C17.4128 58.5407 18.968 60.0958 20.8863 60.0958H71.3452C73.2635 60.0958 74.8186 58.5407 74.8186 56.6223V45.334C74.8186 33.1156 64.9137 23.2107 52.6953 23.2107H20.8863Z" fill="#3F3D56"/>
</g>
<path id="Vector_16" d="M83.4926 24.0086C83.1477 24.0086 82.7104 24.0696 82.3707 23.9905C82.0488 23.9156 81.7131 23.8429 81.3754 23.8458C81.125 23.8479 80.7579 23.7746 80.5235 23.8453C80.2471 23.9287 80.1107 24.322 80.0095 24.5621C79.9016 24.8182 79.7456 25.0036 79.5821 25.2304C79.3032 25.617 79.2423 26.3177 78.6902 26.4411C78.3295 26.5217 79.2949 26.4515 78.9213 26.4515C78.5812 26.4515 78.1426 26.3962 77.8388 26.5881C77.4683 26.8222 77.4489 27.3946 77.3421 27.768C77.275 28.0025 77.1366 28.2586 77.0326 28.483C76.9017 28.7657 76.8292 29.0391 76.6616 29.3015C76.5043 29.5478 76.4327 29.8513 76.2974 30.1158C76.2427 30.2228 76.1774 30.3328 76.1285 30.4434C76.0456 30.631 76.0661 30.8258 75.9962 31.0157C75.9617 31.1094 75.9207 31.1346 75.8881 31.2109C75.821 31.3678 75.8007 31.4959 75.7852 31.6696C75.7619 31.9305 75.8792 32.0673 75.9517 32.3128C76.0371 32.6016 76.1843 32.8498 76.2809 33.1329C76.3887 33.4484 76.3352 33.7521 76.4157 34.0659C76.5297 34.5101 76.8438 34.9461 76.8717 35.4089C76.888 35.6811 76.9545 35.9498 76.9508 36.2229C76.9463 36.5491 76.9491 36.8754 76.9489 37.2017C76.9487 37.4216 76.9708 37.6256 76.8898 37.8334C76.797 38.0714 76.7951 38.2246 76.7879 38.4825C76.7776 38.8481 76.5776 39.1762 76.5375 39.5434C76.5225 39.6814 76.5514 39.828 76.5436 39.967C76.5311 40.1913 76.4553 40.3897 76.4584 40.6201C76.4661 41.179 76.4458 41.4813 76.9511 41.8037C77.2645 42.0037 77.6003 42.0702 77.9444 42.1895C78.3666 42.3359 78.8869 42.2486 79.3329 42.2486C79.898 42.2486 80.4654 42.2322 81.0301 42.2426C81.9572 42.2595 82.8594 42.4926 83.7886 42.4929C83.9298 42.493 84.0711 42.4916 84.2123 42.4926C84.4229 42.4942 84.5695 42.4442 84.7679 42.4073C84.915 42.3799 85.1043 42.4116 85.2546 42.4115C85.4765 42.4113 85.613 42.3782 85.8207 42.3278C86.0132 42.281 86.2446 42.3288 86.3982 42.1588C86.5896 41.947 86.5867 41.6628 86.6344 41.412C86.6853 41.1445 86.8087 40.982 86.8033 40.6954C86.7997 40.5016 86.7678 40.2609 86.7975 40.0682C86.8224 39.9068 86.6374 39.7629 86.6702 39.6053C86.7049 39.4388 86.6773 39.245 86.6773 39.0732C86.6774 38.753 86.7407 38.3391 86.6608 38.0299C86.6038 37.809 86.7656 32.1495 86.8375 31.9886C86.9131 31.8196 86.9165 31.6371 86.9539 31.4594C87.0663 30.9261 86.8664 30.3021 87.0754 29.792C87.2342 29.4045 87.1569 28.9073 87.1569 28.4872C87.1569 28.1759 87.2074 27.8214 87.1627 27.5146C87.1089 27.1454 86.8269 27.1515 86.5193 27.0399C86.2847 26.9547 86.117 26.9358 85.8718 26.9398C85.618 26.9439 85.3894 26.8589 85.1332 26.8568C84.9686 26.8554 84.7745 26.8917 84.6142 26.846C84.353 26.7716 84.0977 26.4223 83.9753 26.1891C83.8439 25.9385 83.8594 25.6735 83.8005 25.4113C83.7604 25.2333 83.7599 25.092 83.7408 24.9104C83.7138 24.6542 83.5726 24.2075 83.4111 24.0086" fill="#6C63FF"/>
<g id="Group_8">
<path id="Vector_17" d="M85.4263 32.4064L83.4494 30.0258L80.6318 32.8777L74.8343 30.1075C74.7462 29.5496 74.2981 29.0949 73.7096 29.0256C73.0005 28.9421 72.3581 29.4492 72.2746 30.1583C72.1911 30.8673 72.6982 31.5097 73.4073 31.5932C73.5885 31.6146 73.7652 31.5968 73.9295 31.5475L81.0731 35.8426L85.4263 32.4064Z" fill="#FFB6B6"/>
<path id="Vector_18" d="M85.8397 26.8779C86.097 26.9766 86.4201 26.9503 86.6891 26.937C86.922 26.9255 87.1494 27.0345 87.2614 27.2462C87.3082 27.3347 87.3824 27.3804 87.4329 27.4663C87.486 27.5565 87.5349 27.6496 87.5862 27.7408C87.7132 27.9665 87.8507 28.2165 87.844 28.4837C87.8353 28.8277 87.6628 29.1379 87.5087 29.4319C87.4521 29.54 87.3543 29.6131 87.2925 29.7148C87.2646 29.7606 87.2582 29.8073 87.2233 29.8508C87.1713 29.9154 87.091 29.9468 87.0413 30.0119C86.9991 30.0672 86.9852 30.1328 86.9343 30.1821C86.8816 30.2332 86.8336 30.2724 86.7879 30.3323C86.6993 30.4486 86.653 30.5775 86.5793 30.701C86.503 30.8288 86.417 30.9554 86.3379 31.0821C86.2477 31.2266 86.1144 31.3336 86.0245 31.4738C85.891 31.682 85.7214 31.8743 85.5785 32.0801C85.4867 32.2124 85.4785 32.3989 85.4206 32.55C85.3928 32.6226 85.258 32.6086 85.2349 32.6796C85.211 32.753 85.2026 32.8677 85.1882 32.9471C85.172 33.0368 85.2089 33.19 85.1315 33.2572C85.0591 33.32 84.9745 33.2734 84.9129 33.2279C84.8707 33.1967 84.8001 33.1019 84.7454 33.155C84.712 33.1874 84.7331 33.3642 84.7288 33.4122C84.7128 33.591 84.5898 33.7422 84.5146 33.9039C84.4309 34.0841 84.383 34.0221 84.2415 33.94C84.1912 33.9108 84.1535 33.9116 84.1137 33.8651C84.0769 33.822 84.053 33.7511 84.025 33.7011C83.9633 33.5909 83.9012 33.481 83.8393 33.3709L83.4325 32.6475L83.018 31.9105C82.9236 31.7428 82.8297 31.5748 82.735 31.4073C82.6878 31.3237 82.6343 31.2422 82.5966 31.1539C82.5638 31.0773 82.4979 30.9542 82.4887 30.8718C82.4749 30.7491 82.5687 30.5181 82.6318 30.4193C82.7017 30.3098 82.7877 30.2235 82.853 30.1085C82.9926 29.8625 83.1901 29.6685 83.4033 29.4827C83.529 29.3731 83.634 29.2444 83.7572 29.1328C83.8622 29.0377 83.9816 28.9602 84.0856 28.8636C84.2718 28.6904 84.4656 28.5275 84.6567 28.3595C84.7665 28.263 84.8741 28.1648 84.9824 28.0671C85.1021 27.959 85.1969 27.8342 85.3061 27.7158C85.3978 27.6164 85.5016 27.5021 85.5638 27.384C85.6429 27.2336 85.7271 27.0718 85.8242 26.9334" fill="#6C63FF"/>
</g>
<path id="Vector_19" d="M82.2682 23.4818C83.9039 23.4818 85.2298 22.1558 85.2298 20.5202C85.2298 18.8845 83.9039 17.5586 82.2682 17.5586C80.6326 17.5586 79.3066 18.8845 79.3066 20.5202C79.3066 22.1558 80.6326 23.4818 82.2682 23.4818Z" fill="#FFB6B6"/>
<path id="Vector_20" d="M85.216 22.5438C84.893 22.9478 84.6172 23.1847 84.1722 23.3539C84.165 23.2924 84.1609 23.2298 84.1619 23.1673C84.1004 23.2514 84.0399 23.3354 83.9774 23.4195C83.7005 23.5046 83.3621 23.5713 82.9243 23.639L82.7089 22.9817C82.6751 22.6843 82.872 22.4105 83.0914 22.2065C83.3108 22.0034 83.5672 21.8291 83.7179 21.5707C83.8687 21.3123 83.8666 20.9268 83.6154 20.7648C83.3683 20.6038 83.0289 20.736 82.7499 20.6407C82.428 20.531 82.2772 20.1372 82.3306 19.8009C82.3839 19.4645 82.5879 19.1744 82.7858 18.8985C82.3244 19.0995 81.6261 19.1251 80.9463 19.0052C80.9709 18.7929 80.9196 18.5704 80.7914 18.3991C80.7791 18.595 80.6879 18.7837 80.5443 18.916C79.8911 18.7406 79.3066 18.4289 79.04 18.0085C79.158 17.9777 79.2759 17.9459 79.3938 17.9152C79.36 17.6732 79.3261 17.4322 79.2923 17.1912C79.4358 17.262 79.5804 17.3338 79.725 17.4045C79.7527 17.3225 79.7947 17.2507 79.8481 17.1871C79.9701 17.1482 80.0962 17.1246 80.2244 17.1153C80.2654 17.1133 80.3074 17.1112 80.3495 17.1112C80.411 17.1112 80.4746 17.1133 80.5361 17.1205C80.4592 17.0507 80.3813 16.982 80.3044 16.9113C80.2951 16.9031 80.2869 16.8949 80.2777 16.8867C80.4182 16.8262 80.5699 16.78 80.7135 16.74C81.341 16.5657 81.9912 16.3904 82.6351 16.4898C83.0465 16.5535 83.4557 16.7615 83.7227 17.0718C83.961 17.3488 84.2975 17.5129 84.6556 17.5854C84.8277 17.6202 84.9944 17.6972 85.133 17.8044C85.0458 17.8608 84.9535 17.91 84.8571 17.949C85.0397 17.9931 85.2212 18.0372 85.4037 18.0823C85.5739 18.3069 85.6898 18.5745 85.778 18.8431C86.1861 20.0808 86.0302 21.5266 85.216 22.5438Z" fill="#2F2E41"/>
</g>
<path id="Vector_21" d="M90.2402 70.7352C90.5369 70.7538 90.7009 70.3851 90.4764 70.1703L90.4541 70.0815C90.457 70.0744 90.46 70.0672 90.463 70.0602C90.7631 69.3446 91.7801 69.3495 92.0776 70.0662C92.3417 70.7022 92.6779 71.3393 92.7607 72.0118C92.7978 72.3086 92.7811 72.611 92.7152 72.9023C93.334 71.5507 93.6596 70.0747 93.6596 68.5904C93.6596 68.2175 93.6392 67.8446 93.5975 67.4726C93.5631 67.1683 93.5158 66.8658 93.4546 66.5662C93.1234 64.9464 92.4063 63.4037 91.3719 62.1151C90.8747 61.8433 90.46 61.4184 90.2095 60.9091C90.1195 60.7254 90.049 60.5278 90.0156 60.3265C90.0722 60.334 90.229 59.4721 90.1863 59.4192C90.2652 59.2996 90.4063 59.2401 90.4925 59.1233C90.9208 58.5426 91.511 58.644 91.8191 59.4332C92.4772 59.7653 92.4836 60.3162 92.0798 60.846C91.8228 61.1831 91.7875 61.6392 91.5621 62.0001C91.5853 62.0298 91.6094 62.0585 91.6326 62.0882C92.0579 62.6337 92.4257 63.22 92.7358 63.836C92.6482 63.1514 92.7776 62.3267 92.9982 61.7951C93.2493 61.1893 93.7199 60.6792 94.1343 60.1555C94.6322 59.5265 95.653 59.801 95.7407 60.5984C95.7416 60.6061 95.7424 60.6138 95.7432 60.6215C95.6816 60.6563 95.6213 60.6932 95.5624 60.7321C95.2264 60.9544 95.3425 61.4753 95.7407 61.5367L95.7497 61.5381C95.7274 61.7598 95.6894 61.9797 95.6337 62.1958C96.1654 64.252 95.0175 65.0009 93.3785 65.0346C93.3423 65.0531 93.3071 65.0717 93.2709 65.0893C93.437 65.5569 93.5696 66.0365 93.668 66.5226C93.7561 66.9521 93.8173 67.3863 93.8516 67.8223C93.8943 68.3724 93.8906 68.9253 93.8442 69.4745L93.847 69.455C93.9648 68.8502 94.2932 68.2852 94.7701 67.8937C95.4804 67.3102 96.484 67.0953 97.2503 66.6263C97.6192 66.4005 98.0919 66.6923 98.0275 67.12L98.0244 67.1404C97.9103 67.1868 97.799 67.2406 97.6914 67.3009C97.6298 67.3357 97.5695 67.3726 97.5106 67.4115C97.1746 67.6338 97.2907 68.1546 97.6888 68.2161L97.6979 68.2175C97.7044 68.2184 97.7099 68.2194 97.7164 68.2203C97.5207 68.685 97.2479 69.1164 96.9065 69.4884C96.5741 71.2834 95.1462 71.4537 93.6188 70.931H93.6179C93.4509 71.6583 93.2069 72.3689 92.8933 73.0461H90.3051C90.2958 73.0174 90.2874 72.9877 90.2791 72.9589C90.5184 72.9738 90.7596 72.9599 90.9953 72.9163C90.8032 72.6806 90.6112 72.4431 90.4192 72.2075C90.4145 72.2029 90.4108 72.1982 90.4071 72.1936C90.3097 72.073 90.2114 71.9533 90.114 71.8327L90.1139 71.8326C90.1078 71.4624 90.1523 71.0933 90.2402 70.7352Z" fill="#F2F2F2"/>
<path id="Vector_22" d="M22.9863 73.2481C22.9863 73.3429 23.0625 73.419 23.1573 73.419H100.329C100.424 73.419 100.5 73.3429 100.5 73.2481C100.5 73.1533 100.424 73.0771 100.329 73.0771H23.1573C23.0625 73.0771 22.9863 73.1533 22.9863 73.2481Z" fill="#CCCCCC"/>
<path id="Vector_23" d="M49.4355 49.9219C49.3163 49.9219 49.22 50.0027 49.22 50.1028V52.4036C48.7604 53.0467 48.7518 53.6849 49.22 54.3159H49.2444V56.3078H49.22V58.7365C49.22 58.8366 49.3163 58.9175 49.4355 58.9175C49.5547 58.9175 49.6509 58.8366 49.6509 58.7365V50.1029C49.6509 50.0027 49.5547 49.9219 49.4355 49.9219Z" fill="#F2F2F2"/>
<path id="Vector_24" d="M40.0995 49.9219C39.9803 49.9219 39.8841 50.0027 39.8841 50.1028V52.4036C39.4245 53.0467 39.4158 53.6849 39.8841 54.3159H39.9085V56.3078H39.8841V58.7365C39.8841 58.8366 39.9803 58.9175 40.0995 58.9175C40.2187 58.9175 40.315 58.8366 40.315 58.7365V50.1029C40.315 50.0027 40.2187 49.9219 40.0995 49.9219Z" fill="#F2F2F2"/>
<path id="Vector_25" d="M57.4313 53.3295V55.0243C49.6024 58.1686 38.5398 57.7158 32.4395 55.0243V53.3252C32.5479 53.3309 35.9582 55.4897 36.0667 55.4955H36.0683C36.4179 55.5113 36.7659 55.5271 37.1139 55.5414C37.3534 55.5515 37.5913 55.563 37.8276 55.5716C38.119 55.5845 38.4103 55.596 38.7 55.6075H38.7016C38.8311 55.6132 38.9574 55.6175 39.0868 55.6233C40.3137 55.6707 41.5227 55.7109 42.7124 55.7425C43.732 55.7712 44.7355 55.7928 45.7228 55.8057C46.2585 55.8143 46.791 55.8186 47.3171 55.8229C47.814 55.8244 48.3068 55.7958 48.7932 55.8244C53.1365 56.0797 57.3952 53.6715 57.4313 53.3295Z" fill="#F2F2F2"/>
<g id="Group_9">
<path id="Vector_26" d="M45.7162 50.1518C45.6462 50.2187 45.578 50.3016 45.5099 50.407V58.9716H43.54L43.5484 58.9196L43.8196 57.264L43.9462 56.4914L44.1262 55.3943L44.2483 54.6475L44.9006 50.6666C44.8254 50.3382 44.7547 50.0824 44.6879 49.8857L45.7162 50.1518Z" fill="#F2F2F2"/>
<path id="Vector_27" d="M50.1354 45.6352C50.0473 45.726 49.9316 45.8149 49.7928 45.9022L49.7907 45.9034C49.7998 45.805 49.8006 45.7052 49.7928 45.605C49.7009 44.3903 48.4213 43.121 47.1532 43.6358C46.4475 43.7572 45.7823 44.632 45.5561 43.8408C45.0374 42.7482 44.4931 43.8826 43.7475 43.8665C42.1562 44.058 41.0649 44.3646 40.3855 44.8036C39.9273 45.0992 39.6561 45.4559 39.5455 45.8788C39.3739 46.5427 39.5957 47.3686 40.1092 48.3796C40.1972 48.3134 40.3129 48.2484 40.4511 48.1855C40.5246 48.1519 40.6054 48.119 40.6915 48.0866C40.4953 48.4921 40.424 48.9623 40.4511 49.4393C40.543 51.1044 41.8233 52.8435 43.0907 52.1378C43.7964 51.9713 44.4616 50.7732 44.6878 51.8577C44.7058 51.9088 44.7231 51.9572 44.7418 52.0013C44.7418 52.0022 44.7424 52.0022 44.7424 52.003C45.0072 52.6594 45.2804 52.5678 45.585 52.3361C45.585 52.3361 45.5857 52.3361 45.5857 52.3352C45.8588 52.129 46.1564 51.8127 46.4964 51.8224C48.0877 51.5599 49.179 51.1397 49.8583 50.538C50.3166 50.1318 50.5878 49.6429 50.6984 49.0632C50.87 48.154 50.6482 47.021 50.1354 45.6352Z" fill="#F2F2F2"/>
</g>
<g id="Group_10">
<path id="Vector_28" d="M37.5938 39.1962C37.4373 39.3456 37.285 39.5309 37.1328 39.7664V58.9067H32.7305L32.7491 58.7903L33.3553 55.0904L33.6382 53.364L34.0404 50.9122L34.3133 49.2432L35.7711 40.3467C35.6031 39.6127 35.4451 39.0411 35.2957 38.6016L37.5938 39.1962Z" fill="#3F3D56"/>
<path id="Vector_29" d="M47.4702 28.6006C47.1887 28.0448 46.8669 27.4645 46.5107 26.8584C48.1007 27.3956 48.253 28.0161 47.4702 28.6006Z" fill="#6C63FF"/>
<path id="Vector_30" d="M25.0634 35.2363C25.3435 35.7922 25.6652 36.3724 26.0214 36.9786C24.4314 36.4414 24.2791 35.8209 25.0634 35.2363Z" fill="#6C63FF"/>
<path id="Vector_31" d="M47.4698 29.1032C47.273 29.306 47.0145 29.5049 46.7043 29.6998L46.6995 29.7026C46.7198 29.4826 46.7217 29.2597 46.7043 29.0357C46.4989 26.3211 43.6392 23.4844 40.8053 24.6349C39.2283 24.9063 37.7417 26.8611 37.2361 25.093C36.077 22.6513 34.8604 25.1864 33.1943 25.1505C29.638 25.5785 27.1992 26.2636 25.681 27.2446C24.6569 27.9053 24.0508 28.7025 23.8037 29.6476C23.4202 31.1313 23.9158 32.9769 25.0634 35.2363C25.2601 35.0883 25.5187 34.9432 25.8275 34.8025C25.9918 34.7275 26.1724 34.6539 26.3646 34.5816C25.9264 35.4878 25.7669 36.5386 25.8275 37.6047C26.0329 41.3258 28.894 45.2123 31.7264 43.6352C33.3035 43.2631 34.7901 40.5855 35.2956 43.0092C35.3359 43.1234 35.3746 43.2316 35.4163 43.3301C35.4163 43.3321 35.4177 43.332 35.4177 43.334C36.0095 44.8008 36.6199 44.596 37.3007 44.0782C37.3007 44.0782 37.3022 44.0782 37.3022 44.0763C37.9126 43.6156 38.5776 42.9087 39.3374 42.9304C42.8937 42.3437 45.3326 41.4045 46.8508 40.0598C47.8749 39.1522 48.481 38.0595 48.728 36.764C49.1115 34.7321 48.616 32.2002 47.4698 29.1032Z" fill="#6C63FF"/>
<path id="Vector_32" d="M50.2049 57.7566C50.3993 57.6568 50.572 57.253 50.3238 57.4722C50.3111 57.4834 50.3167 57.4439 50.3126 57.4275L50.317 57.4167C50.4681 57.0565 50.9802 57.0589 51.13 57.4197C51.2629 57.74 51.4322 58.0608 51.4739 58.3994C51.4926 58.5488 51.4842 58.7011 51.451 58.8477C51.7626 58.1672 51.9265 57.4241 51.9265 56.6767C51.9265 56.489 51.9162 56.3012 51.8952 56.1139C51.8779 55.9607 51.8541 55.8084 51.8233 55.6575C51.6565 54.842 51.2955 54.0653 50.7747 53.4165C50.5243 53.2796 50.3155 53.0657 50.1894 52.8093C50.1441 52.7168 50.1086 52.6173 50.0918 52.5159C50.1203 52.5197 50.1992 52.0857 50.1777 52.0591C50.2174 51.9989 50.2885 51.9689 50.3319 51.9101C50.5476 51.6177 50.8447 51.6688 50.9998 52.0661C51.3312 52.2334 51.3344 52.5107 51.1311 52.7775C51.0017 52.9472 50.9839 53.1769 50.8704 53.3585C50.8821 53.3735 50.8943 53.388 50.9059 53.4029C51.1201 53.6776 51.3053 53.9728 51.4614 54.2829C51.4173 53.9382 51.4824 53.523 51.5935 53.2553C51.7199 52.9503 51.9569 52.6935 52.1655 52.4298C52.4162 52.1131 52.9302 52.2513 52.9743 52.6528L52.9756 52.6645C52.9446 52.6819 52.9142 52.7005 52.8846 52.7201C52.7154 52.832 52.7738 53.0943 52.9743 53.1252L52.9789 53.1259C52.9676 53.2376 52.9485 53.3483 52.9205 53.4571C53.1882 54.4924 52.6102 54.8695 51.785 54.8864C51.7668 54.8957 51.749 54.9051 51.7308 54.9139C51.8144 55.1494 51.8812 55.3908 51.9307 55.6356C51.9751 55.8519 52.0059 56.0705 52.0232 56.29C52.0447 56.567 52.0428 56.8453 52.0195 57.1219L52.0209 57.1121C52.0802 56.8075 52.2455 56.5231 52.4856 56.3259C52.8433 56.0322 53.3486 55.924 53.7344 55.6878C53.9201 55.5741 54.1581 55.721 54.1257 55.9364L54.1241 55.9467C54.0667 55.97 54.0106 55.9971 53.9565 56.0275C53.9255 56.045 53.8951 56.0635 53.8654 56.0832C53.6963 56.1951 53.7547 56.4573 53.9552 56.4883L53.9597 56.489L53.9691 56.4904C53.8705 56.7244 53.7332 56.9416 53.5613 57.1289C53.3939 58.0326 52.675 58.1184 51.906 57.8552H51.9055C51.8214 58.2214 51.6986 58.5792 51.5407 58.9201H50.2375C50.2329 58.9057 50.2287 58.8907 50.2244 58.8762C50.345 58.8837 50.4664 58.8767 50.585 58.8548C50.4884 58.7361 50.3917 58.6165 50.295 58.4979C50.2926 58.4956 50.2908 58.4932 50.2889 58.4909C50.2399 58.4302 50.1904 58.3699 50.1413 58.3092C50.1382 58.1228 50.1606 57.9369 50.2049 57.7566Z" fill="#3F3D56"/>
<path id="Vector_33" d="M57.0339 53.4431C56.8199 53.4302 56.6059 53.4159 56.3919 53.4044C56.0687 53.3843 55.747 53.3656 55.4267 53.3469C55.1739 53.3326 54.9225 53.3196 54.6726 53.3053V48.2897C54.6726 48.1705 54.5764 48.0742 54.4572 48.0742C54.338 48.0742 54.2417 48.1705 54.2417 48.2897V51.0287C53.7821 51.7943 53.7735 52.5541 54.2417 53.3053C52.0585 53.5638 49.5953 53.6916 46.9295 53.7275H46.9108C46.5273 53.7318 46.1381 53.7347 45.746 53.7362C45.3136 53.7376 44.877 53.7362 44.436 53.7347C43.9692 53.7304 43.4967 53.7261 43.0213 53.7175C42.1451 53.7046 41.2546 53.683 40.3497 53.6543C39.294 53.6227 38.2211 53.5825 37.1324 53.5351C37.0175 53.5293 36.9055 53.525 36.7906 53.5193H36.7891C36.532 53.5078 36.2735 53.4963 36.015 53.4834C35.8052 53.4748 35.5941 53.4633 35.3815 53.4532C35.0727 53.4388 34.7639 53.423 34.4537 53.4072H34.4522C34.1808 53.3929 33.9108 53.3785 33.6393 53.3642H33.6379C33.286 53.3455 32.9326 53.3254 32.5779 53.3053C32.8364 52.6302 32.789 51.856 32.5779 51.0287V48.2897C32.5779 48.1705 32.4831 48.0742 32.3624 48.0742C32.2446 48.0742 32.147 48.1705 32.147 48.2897V49.2879C31.7908 49.4057 31.5322 49.7403 31.5322 50.1368C31.5322 50.5332 31.7908 50.8678 32.147 50.9842V53.3498C31.7908 53.4676 31.5322 53.8022 31.5322 54.1986C31.5322 54.5951 31.7908 54.9297 32.147 55.0461V58.5679C32.147 58.6871 32.2446 58.7834 32.3624 58.7834C32.4831 58.7834 32.5779 58.6871 32.5779 58.5679V55.0906H54.2417V58.5679C54.2417 58.6871 54.338 58.7834 54.4572 58.7834C54.5764 58.7834 54.6726 58.6871 54.6726 58.5679V55.0906H57.3758V53.4647C57.2609 53.4575 57.1474 53.4503 57.0339 53.4431Z" fill="#E6E6E6"/>
<path id="Vector_34" d="M57.3753 58.79V58.9365H29.79C29.7494 58.9365 29.7168 58.9039 29.7168 58.8633C29.7168 58.8227 29.7494 58.79 29.79 58.79H57.3753Z" fill="#CCCCCC"/>
</g>
</g>
<defs>
<clipPath id="clip0_469_4429">
<rect width="100" height="73.429" fill="white" transform="translate(0.5 -0.00976562)"/>
</clipPath>
</defs>
</svg>
