<svg width="150" height="122" viewBox="0 0 150 122" fill="none" xmlns="http://www.w3.org/2000/svg">
<g id="undraw_savings_re_eq4w">
<g clip-path="url(#clip0_1_12659)">
<rect y="0.102539" width="150" height="120.939" fill="white"/>
<path id="Vector" d="M85.4519 107.094C84.4147 105.642 83.0106 104.579 81.2454 104.182C79.7062 103.835 78.1234 103.894 76.5587 103.906L56.7743 104.058C55.0799 104.071 53.4553 105.539 53.534 107.299C53.6121 109.043 54.9581 110.553 56.7743 110.539C62.5698 110.494 68.3652 110.45 74.1607 110.405C75.527 110.394 76.8941 110.37 78.2605 110.374C78.5673 110.375 78.8729 110.391 79.1794 110.395C79.2537 110.396 79.3073 110.395 79.3451 110.393C79.3546 110.396 79.3626 110.399 79.375 110.402C79.5349 110.446 79.6989 110.477 79.8598 110.518C79.8035 110.52 79.9641 110.62 80.0448 110.654C80.0559 110.676 80.0796 110.715 80.119 110.775C80.1741 110.878 80.3371 111.192 80.3439 111.182C80.5889 111.801 80.791 112.437 80.9488 113.084C81.3253 114.511 81.4081 114.809 81.4623 116.148C81.5308 117.84 82.9036 119.469 84.7026 119.389C86.3994 119.313 88.0163 117.963 87.9428 116.148C87.819 113.092 87.2825 109.658 85.4519 107.094Z" fill="#E6E6E6"/>
<path id="Vector_2" d="M57.9374 114.406C57.5658 112.154 57.2013 109.901 56.8224 107.65C56.4381 105.367 55.653 103.276 53.8762 101.778C53.4015 101.377 52.9092 101.003 52.4149 100.631C52.2411 100.5 52.0675 100.369 51.8958 100.235C51.8855 100.227 51.8789 100.222 51.87 100.215C51.8512 100.199 51.8285 100.179 51.798 100.153C51.0575 99.5267 50.3419 98.8721 49.6603 98.1763C49.0551 97.5583 48.4762 96.9139 47.9238 96.2432C47.7858 96.0757 47.6495 95.9067 47.515 95.7362C47.4919 95.7069 47.3673 95.5458 47.2852 95.4408C47.2089 95.3356 47.0693 95.1457 47.0459 95.1125C46.8888 94.8903 46.7344 94.6661 46.5829 94.4398C45.5509 92.8935 44.6572 91.2592 43.9123 89.556C43.8384 89.387 43.7663 89.2171 43.696 89.0462C43.6771 88.9941 43.6526 88.9271 43.6202 88.8379C43.4701 88.4251 43.3203 88.0128 43.183 87.5951C42.8914 86.7079 42.6407 85.8076 42.4309 84.8943C42.3272 84.4433 42.2338 83.99 42.1508 83.5344C42.1079 83.3001 42.0679 83.0653 42.0306 82.8301C42.0245 82.791 41.9881 82.5372 41.9666 82.3938C41.9508 82.2497 41.9214 81.9945 41.9174 81.9551C41.8937 81.7179 41.8726 81.4806 41.8542 81.243C41.8128 80.7083 41.7848 80.1727 41.7702 79.6363C41.7453 78.6829 41.7623 77.7296 41.8214 76.7764C41.855 76.2408 41.9029 75.7066 41.9618 75.1734C41.9654 75.1406 41.9681 75.1146 41.9707 75.0911C41.9743 75.0673 41.9784 75.0402 41.9834 75.0066C42.027 74.7119 42.0729 74.4177 42.1242 74.1243C42.3185 73.0106 42.5713 71.9078 42.8814 70.8206C43.0283 70.3064 43.1878 69.7963 43.36 69.2905C43.4367 69.0659 43.5159 68.8422 43.5975 68.6194C43.5921 68.6337 43.8369 68.0086 43.8401 67.9876C44.8112 65.6933 46.3995 63.6017 46.4017 60.9954C46.4032 59.2308 44.9103 57.5404 43.1614 57.622C42.2894 57.6548 41.4643 58.0248 40.8598 58.6541C40.2554 59.2834 39.9188 60.1228 39.9211 60.9954C39.9211 61.035 39.9209 61.0688 39.9208 61.1016C39.9045 61.1566 39.8908 61.2024 39.8786 61.2429C39.6892 61.6545 39.4572 62.0455 39.2494 62.4468C38.6802 63.5451 38.1944 64.6795 37.7329 65.8305C36.9774 67.705 36.399 69.646 36.0055 71.6283C35.1502 75.9715 35.0838 80.4333 35.8095 84.8001C37.0659 92.4578 41.209 99.7882 46.9689 104.716C47.4687 105.143 47.9808 105.556 48.4977 105.961C48.7115 106.129 48.9272 106.293 49.144 106.457C49.2464 106.534 49.6708 106.868 49.4841 106.706C49.8856 107.049 50.0546 107.221 50.1577 107.474C50.1727 107.532 50.193 107.611 50.2206 107.719C50.2933 108.004 50.3623 108.288 50.4197 108.576C50.921 111.098 51.2695 113.662 51.6883 116.2C51.9762 117.943 54.123 119.078 55.6743 118.556C57.4799 117.947 58.2458 116.275 57.9374 114.406Z" fill="#E6E6E6"/>
<path id="Vector_3" d="M85.7804 120.947C84.4195 120.95 83.1129 120.414 82.147 119.455C81.1811 118.497 80.635 117.194 80.6283 115.833V112.137C76.7584 112.57 63.5068 112.47 59.7083 111.859V115.685C59.6981 117.045 59.1508 118.346 58.1857 119.304C57.2206 120.261 55.9159 120.799 54.5562 120.799C53.1964 120.799 51.8918 120.261 50.9267 119.304C49.9616 118.346 49.4143 117.045 49.4041 115.685V108.174C44.2593 105.315 39.9703 101.136 36.9799 96.0671C33.9895 90.9981 32.4059 85.2228 32.3926 79.3374C32.3926 69.246 36.966 59.832 44.9403 53.5096C50.1251 49.3848 56.4246 46.9042 63.0297 46.3864C63.9263 46.3161 64.8283 46.2805 65.7108 46.2805C68.8199 46.2805 82.8476 46.7607 86.3672 47.7733L94.3926 39.81C94.5106 39.6913 94.6612 39.6105 94.8253 39.5778C94.9894 39.5451 95.1596 39.562 95.314 39.6263C95.4696 39.6883 95.6029 39.7958 95.6963 39.9348C95.7897 40.0738 95.8389 40.2379 95.8374 40.4054V41.6715L97.4001 40.1238C97.5179 40.0051 97.6684 39.9241 97.8324 39.8913C97.9964 39.8586 98.1665 39.8755 98.3208 39.9399C98.4766 40.0018 98.61 40.1093 98.7035 40.2484C98.797 40.3875 98.8463 40.5516 98.8448 40.7192V54.8681C102.872 58.4985 105.941 63.0662 107.781 68.1665C109.62 73.2668 110.173 78.7421 109.391 84.1072C108.608 89.4723 106.514 94.5615 103.294 98.9238C100.075 103.286 95.8286 106.787 90.9324 109.116V115.833C90.9257 117.194 90.3796 118.497 89.4137 119.455C88.4479 120.414 87.1412 120.95 85.7804 120.947ZM81.0333 111.678V115.833C81.0436 117.085 81.5482 118.283 82.4373 119.165C83.3264 120.047 84.528 120.542 85.7803 120.542C87.0327 120.542 88.2343 120.047 89.1234 119.165C90.0125 118.283 90.5171 117.085 90.5274 115.833V108.86L90.643 108.805C96.1368 106.198 100.801 102.12 104.117 97.0223C108.342 90.5177 110.099 82.7153 109.071 75.0273C108.042 67.3393 104.294 60.2736 98.5071 55.1092L98.4398 55.0487V40.7192C98.4412 40.6322 98.416 40.5467 98.3674 40.4745C98.3188 40.4022 98.2492 40.3466 98.1681 40.3151C98.0874 40.2806 97.9982 40.2713 97.9121 40.2884C97.826 40.3055 97.7471 40.3482 97.6858 40.4109L95.4324 42.6427V40.4054C95.4338 40.3183 95.4085 40.2329 95.36 40.1606C95.3114 40.0884 95.2418 40.0327 95.1606 40.0012C95.0798 39.9668 94.9904 39.9575 94.9042 39.9748C94.818 39.992 94.739 40.0348 94.6776 40.0977L86.4804 48.2316L86.3639 48.1951C83.092 47.171 68.8435 46.6855 65.7108 46.6855C64.8388 46.6855 63.9474 46.7207 63.0615 46.7902C56.5367 47.3017 50.3137 49.7522 45.192 53.8269C37.3152 60.0721 32.7976 69.3704 32.7976 79.3374C32.811 85.1708 34.3862 90.8941 37.3593 95.9129C40.3324 100.932 44.5952 105.063 49.7046 107.877L49.8091 107.935V115.685C49.8196 116.938 50.3243 118.135 51.2134 119.017C52.1025 119.898 53.304 120.393 54.5562 120.393C55.8084 120.393 57.0098 119.898 57.8989 119.017C58.788 118.135 59.2928 116.938 59.3032 115.685V111.375L59.5432 111.42C62.9568 112.062 77.3307 112.163 80.8045 111.708L81.0333 111.678Z" fill="#3F3D56"/>
<path id="Vector_4" d="M58.3246 24.2261L35.8977 30.9659C35.1844 31.1811 34.5857 31.6707 34.2331 32.3271C33.8806 32.9835 33.803 33.753 34.0174 34.4665C34.2318 35.1801 34.7207 35.7793 35.3767 36.1327C36.0327 36.486 36.8021 36.5644 37.5159 36.3508L57.1418 30.4515L57.553 30.3279C57.6362 28.2093 58.211 26.139 59.2319 24.2807C59.1038 24.2231 58.9668 24.1875 58.8268 24.1754C58.6577 24.1591 58.4871 24.1763 58.3246 24.2261Z" fill="#6C63FF"/>
<path id="Vector_5" d="M37.1282 37.7874C36.8305 37.7867 36.5406 37.6924 36.2994 37.5179C36.0581 37.3435 35.8778 37.0976 35.784 36.8151L34.3816 32.5833C34.323 32.4065 34.2998 32.22 34.3133 32.0343C34.3268 31.8486 34.3768 31.6674 34.4604 31.5011C34.5439 31.3347 34.6594 31.1864 34.8003 31.0647C34.9412 30.943 35.1047 30.8502 35.2814 30.7916L53.5346 24.7424C53.7113 24.6838 53.8978 24.6606 54.0835 24.6741C54.2691 24.6877 54.4503 24.7376 54.6167 24.8211C54.7831 24.9047 54.9313 25.0201 55.0531 25.161C55.1748 25.3018 55.2676 25.4653 55.3262 25.642L56.7286 29.8738C56.8453 30.2219 56.8219 30.6017 56.6634 30.9328C56.5049 31.2639 56.2237 31.5203 55.8794 31.6477C55.8625 31.654 55.8455 31.66 55.8283 31.6656L37.5756 37.7146C37.4313 37.7627 37.2803 37.7873 37.1282 37.7874Z" fill="#2F2E41"/>
<path id="Vector_6" d="M71.312 16.7104C67.628 16.7119 64.0891 18.1467 61.4443 20.7114C58.7996 23.276 57.2565 26.7691 57.1418 30.4513C57.1377 30.5951 57.1357 30.7409 57.1357 30.8867C57.1357 33.6905 57.9672 36.4313 59.5249 38.7626C61.0826 41.0939 63.2966 42.9109 65.887 43.9838C68.4773 45.0568 71.3277 45.3376 74.0776 44.7906C76.8276 44.2436 79.3535 42.8934 81.3361 40.9108C83.3187 38.9282 84.6689 36.4023 85.2158 33.6523C85.7628 30.9024 85.4821 28.0521 84.4091 25.4617C83.3362 22.8713 81.5192 20.6573 79.1879 19.0996C76.8566 17.5419 74.1158 16.7104 71.312 16.7104ZM71.312 44.6579C67.6608 44.6541 64.1603 43.202 61.5785 40.6202C58.9967 38.0384 57.5446 34.5379 57.5408 30.8867C57.5408 30.6984 57.5448 30.512 57.5529 30.3278C57.6626 27.6302 58.5628 25.0243 60.1416 22.8343C61.7204 20.6442 63.9081 18.9665 66.4327 18.0098C68.9573 17.0532 71.7075 16.8597 74.3412 17.4535C76.9748 18.0473 79.3759 19.4022 81.2457 21.3496C83.1156 23.2971 84.3717 25.7512 84.858 28.4069C85.3443 31.0625 85.0392 33.8025 83.9807 36.2862C82.9221 38.7698 81.1569 40.8876 78.9045 42.376C76.6521 43.8645 74.0118 44.658 71.312 44.6579Z" fill="#3F3D56"/>
<path id="Vector_7" d="M83.2604 30.887C83.2604 34.0559 82.0015 37.0951 79.7607 39.3359C77.52 41.5767 74.4808 42.8355 71.3118 42.8355C68.1429 42.8355 65.1037 41.5767 62.8629 39.3359C60.6221 37.0951 59.3633 34.0559 59.3633 30.887C59.3633 30.5083 59.3815 30.1356 59.4159 29.7671C59.7038 26.7087 61.1586 23.8787 63.4782 21.8647C65.7978 19.8508 68.8039 18.8075 71.8724 18.9516C74.9409 19.0958 77.8361 20.4162 79.9566 22.6387C82.0772 24.8612 83.2604 27.8151 83.2604 30.887Z" fill="#E6E6E6"/>
<path id="Vector_8" d="M74.8708 31.6808C74.5811 31.3 74.2001 30.9984 73.763 30.8039C73.2239 30.5767 72.6671 30.3938 72.0983 30.2571V27.0047C72.9727 27.1365 73.7928 27.5104 74.4657 28.0841L75.126 26.6766C74.7462 26.3383 74.3103 26.069 73.8379 25.8807C73.3143 25.6687 72.7646 25.5277 72.2036 25.4615V23.813H70.6746V25.4777C70.0842 25.544 69.5147 25.7352 69.0039 26.0387C68.5424 26.3118 68.154 26.6926 67.8717 27.1485C67.6024 27.5934 67.4628 28.1048 67.4688 28.6248C67.4425 29.1884 67.6057 29.7445 67.9325 30.2045C68.2333 30.6026 68.6306 30.9177 69.0868 31.1198C69.6345 31.3537 70.2009 31.5414 70.7799 31.6808V34.7976C69.7481 34.7197 68.7649 34.3274 67.9629 33.6736L67.3027 35.0831C67.7512 35.4539 68.2611 35.7431 68.8095 35.9377C69.4103 36.1527 70.038 36.2836 70.6746 36.3266V37.9609H72.2036V36.2962C73.0529 36.2034 73.8493 35.8382 74.4738 35.2552C74.7489 34.9915 74.9661 34.6735 75.1118 34.3214C75.2576 33.9693 75.3286 33.5908 75.3204 33.2098C75.3458 32.6642 75.1875 32.1258 74.8708 31.6808ZM70.78 29.9128C70.4075 29.7999 70.0612 29.614 69.7612 29.366C69.6424 29.2603 69.5484 29.1295 69.4861 28.9832C69.4238 28.8368 69.3947 28.6785 69.4008 28.5195C69.3897 28.1588 69.5223 27.8085 69.7693 27.5454C70.0432 27.2694 70.3966 27.086 70.78 27.0209V29.9128ZM73.0583 34.2224C72.7999 34.4874 72.4635 34.6627 72.0983 34.7226V32.0413C72.4474 32.1349 72.7739 32.2982 73.0583 32.5213C73.1661 32.6133 73.2517 32.7285 73.3089 32.8582C73.366 32.988 73.3932 33.1289 73.3884 33.2706C73.4024 33.6181 73.2845 33.9582 73.0583 34.2224Z" fill="#6C63FF"/>
<path id="Vector_9" d="M37.779 54.9387C37.4659 54.9382 37.1617 54.8344 36.9137 54.6434C36.6656 54.4524 36.4875 54.185 36.4069 53.8824L35.6434 50.9925C35.5478 50.6293 35.6002 50.2429 35.7891 49.9183C35.978 49.5936 36.2879 49.3572 36.6509 49.2607L60.7385 42.8956C61.102 42.8008 61.4883 42.8538 61.8128 43.043C62.1373 43.2322 62.3737 43.5422 62.4703 43.9053L63.1171 46.3537L62.9959 46.3631C56.8182 46.8434 50.9073 49.0832 45.9626 52.8175L45.9275 52.8345L38.1386 54.8921C38.0212 54.923 37.9003 54.9387 37.779 54.9387Z" fill="#2F2E41"/>
<path id="Vector_10" d="M33.7897 69.2132C30.9641 68.7957 28.2617 67.774 25.8668 66.2175C24.6803 65.447 23.5818 64.5486 22.5913 63.5386C21.6135 62.5413 20.6782 61.4078 20.1939 60.0797C19.7279 58.851 19.752 57.4901 20.261 56.2786C20.763 55.0745 21.7221 54.1185 22.9279 53.6204C24.1409 53.1367 25.6064 53.085 26.7869 53.6147C27.3495 53.8613 27.8363 54.2531 28.1973 54.75C28.3652 54.9791 28.4895 55.2371 28.564 55.5111C28.6331 55.7594 28.6394 56.021 28.5823 56.2724C28.513 56.5233 28.391 56.7566 28.2242 56.9565C28.0575 57.1564 27.8499 57.3183 27.6155 57.4314C27.0995 57.6961 26.5404 57.8666 25.9645 57.9349C25.3853 58.0139 24.5532 58.0858 24.0876 57.6208C23.9917 57.5288 23.9163 57.4177 23.8663 57.2946C23.8313 57.2004 23.8193 57.0991 23.8314 56.9993C23.8246 57.0433 23.8595 56.9036 23.8575 56.9092C23.8501 56.9299 23.8182 56.9802 23.8636 56.9029C23.8777 56.8774 23.8935 56.8528 23.9108 56.8294C23.8954 56.8493 23.8616 56.8825 23.922 56.8255C23.9718 56.7709 24.036 56.7313 24.1071 56.7112C24.1351 56.703 24.1636 56.6965 24.1917 56.6888C24.2631 56.6693 24.1205 56.6899 24.1936 56.6876C24.2218 56.6867 24.2503 56.6874 24.2784 56.6861C24.3501 56.6829 24.2077 56.6665 24.2764 56.6838C24.3031 56.6905 24.3295 56.6971 24.3558 56.7053C24.4129 56.7233 24.3153 56.6634 24.354 56.7083C24.3994 56.7608 24.3064 56.6572 24.358 56.708C24.3836 56.7332 24.4078 56.7599 24.4304 56.7879C24.5198 56.8762 24.6404 56.9257 24.7661 56.9257C24.8917 56.9257 25.0123 56.8762 25.1018 56.7879C25.1881 56.6975 25.2363 56.5773 25.2363 56.4522C25.2363 56.3272 25.1881 56.2069 25.1018 56.1165C24.6337 55.5363 23.709 55.6796 23.2355 56.1701C22.6316 56.7955 22.8707 57.7868 23.4582 58.3326C24.1232 58.9504 25.065 58.9933 25.9205 58.8897C26.6434 58.8205 27.3479 58.6214 28.0001 58.302C28.6482 57.9836 29.1551 57.436 29.4226 56.7653C29.5434 56.4073 29.5868 56.0278 29.5499 55.6518C29.513 55.2759 29.3967 54.912 29.2087 54.5844C28.4534 53.1645 26.8896 52.4365 25.3438 52.3104C24.5479 52.2481 23.7476 52.3442 22.9891 52.5932C22.2307 52.8422 21.5291 53.2391 20.9251 53.761C19.7608 54.8092 19.0439 56.2647 18.9225 57.8266C18.7876 59.4459 19.4159 61.0185 20.3319 62.3254C21.2909 63.6532 22.4352 64.8367 23.73 65.8397C26.2614 67.8607 29.2307 69.261 32.4002 69.9287C32.7772 70.0066 33.1563 70.0732 33.5373 70.1287C33.6586 70.1581 33.7865 70.1402 33.8949 70.0786C34.0034 70.017 34.0844 69.9163 34.1213 69.7971C34.1538 69.6758 34.1373 69.5465 34.0752 69.4372C34.0132 69.3279 33.9106 69.2475 33.7897 69.2132Z" fill="#3F3D56"/>
<path id="Vector_11" d="M79.0296 48.5816C74.8898 48.5231 70.7629 48.6282 66.6491 48.8968C65.243 48.9886 64.0264 49.4856 64.0264 50.3209C64.0264 51.0193 65.2333 51.8375 66.6491 51.745C70.7608 51.4765 74.8877 51.3714 79.0296 51.4298C82.4064 51.4775 82.4044 48.6292 79.0296 48.5816Z" fill="#CCCCCC"/>
<path id="Vector_12" d="M72.9105 51.2889C72.4631 51.2889 61.9531 51.2721 61.9531 49.8204C61.9531 48.3688 72.4631 48.3521 72.9105 48.3521C73.3579 48.3521 83.8679 48.3688 83.8679 49.8204C83.8679 51.2721 73.3579 51.2889 72.9105 51.2889ZM62.3641 49.8204C62.6517 50.2605 66.515 50.8838 72.9105 50.8838C79.306 50.8838 83.1692 50.2605 83.4569 49.8204C83.1693 49.3804 79.306 48.7571 72.9105 48.7571C66.515 48.7571 62.6517 49.3804 62.3641 49.8204Z" fill="#3F3D56"/>
<path id="Vector_13" d="M106.256 89.4534C108.583 89.3888 111.478 89.308 113.709 87.6785C114.373 87.1734 114.919 86.5291 115.308 85.7908C115.697 85.0526 115.92 84.2382 115.961 83.4047C116.006 82.1178 115.542 80.9944 114.652 80.2426C113.487 79.258 111.785 79.0271 109.952 79.5659L111.851 65.6837L110.457 65.4927L108.224 81.813L109.388 81.2786C110.738 80.6594 112.592 80.3443 113.743 81.3174C114.026 81.5719 114.246 81.8881 114.387 82.2415C114.528 82.5949 114.585 82.976 114.554 83.3552C114.52 83.9755 114.353 84.5812 114.064 85.1311C113.775 85.681 113.37 86.1621 112.879 86.5417C111.143 87.8098 108.835 87.9733 106.217 88.0465L106.256 89.4534Z" fill="#3F3D56"/>
<path id="Vector_14" d="M102.4 66.8809H94.8193V68.2884H102.4V66.8809Z" fill="#3F3D56"/>
<path id="Vector_15" d="M41.2098 61.4124C40.8724 61.4113 40.5464 61.2901 40.2902 61.0705C40.034 60.8509 39.8643 60.5472 39.8116 60.214L39.3489 57.2609C39.2911 56.8895 39.383 56.5104 39.6044 56.2067C39.8259 55.9029 40.1588 55.6995 40.53 55.6409L65.1423 51.7845C65.5137 51.7267 65.8928 51.8186 66.1965 52.04C66.5002 52.2614 66.7037 52.5943 66.7623 52.9655L67.225 55.9187C67.2828 56.29 67.1909 56.6692 66.9695 56.9729C66.748 57.2766 66.4152 57.4801 66.0439 57.5387L41.4316 61.395C41.3582 61.4065 41.2841 61.4123 41.2098 61.4124Z" fill="#2F2E41"/>
<path id="Vector_16" d="M31.0237 26.8053C36.7279 26.8053 41.3521 22.1811 41.3521 16.4768C41.3521 10.7726 36.7279 6.14844 31.0237 6.14844C25.3195 6.14844 20.6953 10.7726 20.6953 16.4768C20.6953 22.1811 25.3195 26.8053 31.0237 26.8053Z" fill="#6C63FF"/>
<path id="Vector_17" d="M36.8711 19.1496C37.2012 19.0341 37.5028 18.8493 37.7555 18.6076C37.9227 18.4353 38.0502 18.2285 38.1291 18.0017C38.208 17.7749 38.2363 17.5336 38.2121 17.2947C38.1981 17.1244 38.1449 16.9597 38.0566 16.8134C37.9684 16.6671 37.8475 16.5432 37.7034 16.4514C37.3296 16.2215 36.8357 16.2302 36.337 16.4614L36.2795 12.4297L35.8745 12.4355L35.9421 17.1751L36.2504 16.9729C36.6079 16.7389 37.1216 16.5691 37.4912 16.7964C37.5826 16.8566 37.6589 16.9371 37.7141 17.0315C37.7694 17.126 37.8021 17.2319 37.8097 17.3411C37.8268 17.5191 37.8053 17.6986 37.7467 17.8676C37.6881 18.0365 37.5938 18.1908 37.4703 18.32C37.0312 18.7556 36.3813 18.9016 35.6396 19.0351L35.7114 19.4337C36.1057 19.3738 36.4938 19.2788 36.8711 19.1496Z" fill="#2F2E41"/>
<path id="Vector_18" d="M40.4498 12.1465L38.293 12.4731L38.3536 12.8736L40.5105 12.5469L40.4498 12.1465Z" fill="#2F2E41"/>
<path id="Vector_19" d="M33.6422 13.1773L31.4854 13.5039L31.546 13.9043L33.7029 13.5777L33.6422 13.1773Z" fill="#2F2E41"/>
<path id="Vector_20" d="M37.8487 61.2318C37.4773 61.231 37.1149 61.1171 36.8097 60.9053C36.5046 60.6934 36.2712 60.3937 36.1406 60.046L29.0194 40.9751C28.149 38.6362 28.242 36.0475 29.2779 33.777C30.3138 31.5065 32.208 29.7397 34.545 28.8641L40.3353 26.702C40.5592 26.6178 40.7975 26.5787 41.0366 26.587C41.2756 26.5953 41.5107 26.6508 41.7282 26.7503C41.9452 26.8473 42.1407 26.9865 42.3033 27.1599C42.4659 27.3332 42.5923 27.5373 42.6751 27.76L55.8664 52.6665C55.952 52.8911 55.9924 53.1304 55.9852 53.3706C55.978 53.6109 55.9234 53.8473 55.8244 54.0664C55.7255 54.2855 55.5842 54.4828 55.4087 54.647C55.2332 54.8113 55.027 54.9392 54.8018 55.0234L38.4857 61.116C38.282 61.1924 38.0663 61.2316 37.8487 61.2318Z" fill="#2F2E41"/>
<path id="Vector_21" d="M38.5791 27.358L51.6676 44.8607L42.8112 27.5417C42.7381 27.3396 42.6258 27.1539 42.4809 26.9952C42.336 26.8365 42.1612 26.7079 41.9666 26.6168C41.7719 26.5257 41.5613 26.4738 41.3466 26.4641C41.1319 26.4544 40.9174 26.4871 40.7153 26.5603L38.5791 27.358Z" fill="#E6E6E6"/>
<path id="Vector_22" d="M59.3025 40.65L35.9329 39.1447C35.5645 39.1209 35.2045 39.0249 34.8732 38.862C34.542 38.6991 34.2461 38.4726 34.0024 38.1953C33.7587 37.9181 33.572 37.5956 33.4529 37.2462C33.3339 36.8968 33.2848 36.5273 33.3085 36.159C33.3323 35.7906 33.4283 35.4305 33.5912 35.0993C33.7541 34.768 33.9806 34.4721 34.2579 34.2284C34.5351 33.9847 34.8577 33.798 35.2071 33.679C35.5565 33.56 35.9259 33.5109 36.2942 33.5346L59.6638 35.0399C59.8364 35.0509 60.005 35.0959 60.1601 35.1722C60.3153 35.2485 60.4538 35.3546 60.568 35.4844C60.6821 35.6142 60.7695 35.7653 60.8253 35.9289C60.881 36.0925 60.904 36.2655 60.8929 36.4381L60.7008 39.421C60.6783 39.7694 60.5184 40.0946 60.2562 40.3251C59.9939 40.5555 59.6509 40.6724 59.3025 40.65Z" fill="#6C63FF"/>
<path id="Vector_23" d="M53.0584 41.6154C53.0275 41.6154 52.9966 41.6144 52.9656 41.6124L33.7757 40.3764C33.59 40.3644 33.4084 40.316 33.2413 40.2339C33.0742 40.1517 32.925 40.0375 32.8021 39.8977C32.6792 39.7578 32.585 39.5952 32.525 39.4189C32.4649 39.2427 32.4402 39.0564 32.4522 38.8706L32.7803 33.7756C32.7923 33.5899 32.8407 33.4083 32.9229 33.2412C33.005 33.0741 33.1193 32.9249 33.2591 32.802C33.399 32.6791 33.5617 32.5849 33.7379 32.5249C33.9141 32.4649 34.1004 32.4402 34.2862 32.4522L53.476 33.6881C53.851 33.7127 54.201 33.885 54.4491 34.1673C54.6972 34.4496 54.8233 34.8188 54.7995 35.1939L54.4714 40.2889C54.4534 40.562 54.3569 40.8239 54.1936 41.0435C54.0302 41.263 53.807 41.4307 53.5508 41.5265C53.3933 41.5854 53.2265 41.6155 53.0584 41.6154Z" fill="#2F2E41"/>
<path id="Vector_24" d="M30.9048 9.60882C32.2635 8.44023 34.1294 9.48562 35.6876 9.30262C37.1784 9.12753 38.3555 7.79031 38.6562 6.36968C39.0071 4.71227 38.1468 3.05179 36.8788 2.01843C35.49 0.88664 33.6482 0.561731 31.9029 0.77112C29.9025 1.0111 28.073 1.94357 26.4314 3.07143C24.8469 4.12637 23.3898 5.3611 22.0891 6.75101C20.9244 8.03733 19.9376 9.5706 19.6225 11.3015C19.3361 12.8746 19.5548 14.6178 20.4847 15.9504C20.9778 16.6334 21.6387 17.1778 22.4034 17.5311C23.2008 17.9226 24.0514 18.2026 24.8239 18.6453C25.992 19.3147 27.1273 20.7026 26.7614 22.147C26.6829 22.4625 26.5281 22.7539 26.3106 22.9955C26.0492 23.2857 25.5777 22.9023 25.8398 22.6113C26.3001 22.1004 26.282 21.4189 26.0367 20.8089C25.745 20.1215 25.2285 19.5535 24.5717 19.198C23.7631 18.7357 22.8703 18.4503 22.0415 18.0292C21.2482 17.6445 20.5596 17.0738 20.0342 16.3657C19.0423 14.9872 18.7456 13.1931 18.9705 11.5334C19.214 9.73742 20.1368 8.10537 21.2935 6.73772C22.5524 5.24933 24.0988 3.98944 25.6785 2.8576C27.3736 1.64314 29.2464 0.616386 31.3187 0.245027C33.1151 -0.0768837 35.0622 0.121305 36.633 1.10025C38.0993 2.01402 39.2237 3.5859 39.3355 5.34233C39.3757 6.14149 39.2021 6.93692 38.8328 7.64676C38.4635 8.35659 37.9116 8.95519 37.2341 9.38095C36.539 9.79696 35.7307 9.98421 34.9234 9.91627C34.0604 9.86103 33.1965 9.59675 32.3279 9.67012C31.9349 9.69398 31.5603 9.84531 31.261 10.1012C30.9642 10.3565 30.6104 9.86205 30.9048 9.60882Z" fill="#2F2E41"/>
<path id="Vector_25" d="M149.759 121.041H0.241414C0.177582 121.041 0.116429 121.016 0.0713584 120.97C0.0262877 120.925 0.000976562 120.864 0.000976562 120.8C0.000976562 120.736 0.0262877 120.675 0.0713584 120.63C0.116429 120.585 0.177582 120.559 0.241414 120.559H149.759C149.823 120.559 149.884 120.584 149.93 120.63C149.975 120.675 150 120.736 150 120.8C150 120.864 149.975 120.925 149.93 120.971C149.884 121.016 149.823 121.041 149.759 121.041Z" fill="#3F3D56"/>
</g>
<rect x="0.5" y="0.602539" width="149" height="119.939" stroke="#D0D5DD"/>
</g>
<defs>
<clipPath id="clip0_1_12659">
<rect y="0.102539" width="150" height="120.939" fill="white"/>
</clipPath>
</defs>
</svg>
