<svg width="200" height="149" viewBox="0 0 200 149" fill="none" xmlns="http://www.w3.org/2000/svg">
<g id="undraw_connected_world_wuay" clip-path="url(#clip0_1_29704)">
<path id="Vector" d="M184.253 36.1126C161.553 4.52516 113.602 -8.28809 66.4425 5.51209C41.5109 12.8078 17.4723 27.4259 5.55929 55.7313C-15.7364 106.33 28.9766 122.49 58.2141 127.641C72.3518 130.131 85.667 134.314 97.8347 140.01C119.725 150.257 158.473 159.337 187.692 116.653C208.869 85.7159 199.373 57.153 184.253 36.1126Z" fill="white"/>
<path id="Vector_2" d="M52.6483 42.3619C52.5848 41.8599 52.4564 41.3683 52.2663 40.8993C52.242 40.8107 52.1996 40.728 52.1416 40.6566C52.0837 40.5853 52.0115 40.5267 51.9297 40.4848C51.8203 40.4564 51.7057 40.4551 51.5957 40.4811L49.8811 40.7434C49.7376 40.75 49.6001 40.8034 49.4899 40.8954C49.2665 41.1303 49.4864 41.5085 49.4796 41.8325C49.4719 42.1968 49.1482 42.4926 48.7971 42.5904C48.4388 42.6628 48.0691 42.6583 47.7127 42.577L45.3151 42.2044C46.0213 41.979 46.6498 41.5596 47.1289 40.994C47.4444 40.6203 47.6123 39.9224 47.1563 39.7454C47.0208 39.7083 46.8796 39.6969 46.7399 39.712C45.6536 39.7204 44.7988 38.8135 43.7819 38.4315C43.131 38.2028 42.4245 38.1858 41.7634 38.3829C41.1023 38.58 40.5204 38.9811 40.101 39.5288L41.3782 39.5904C41.4984 39.5837 41.6175 39.6155 41.7184 39.6811C41.9983 39.9111 41.6503 40.3528 41.6898 40.7129C41.741 41.1808 42.3622 41.2807 42.8305 41.328C43.2988 41.3753 43.8929 41.7558 43.6676 42.169C41.314 42.9797 38.9189 40.5843 36.447 40.8792C35.8214 40.9538 35.2307 41.1996 34.6199 41.3541C30.8887 42.2981 27.0313 39.7793 23.2197 40.3128C22.3723 40.4572 21.5395 40.6769 20.7311 40.9691C20.2123 41.1394 19.6712 41.3235 19.2943 41.7186C18.9173 42.1136 18.7739 42.7892 19.131 43.2022C18.1467 43.2833 17.1559 43.1891 16.2046 42.9241C16.4619 43.0671 16.6759 43.2767 16.8242 43.5309C16.9725 43.7852 17.0496 44.0746 17.0475 44.3689C15.5108 44.6195 14.0147 45.0757 12.5996 45.7252C12.8637 46.1644 13.1722 46.5753 13.5202 46.9515L11.5747 48.2014C12.232 48.367 12.5718 49.2633 12.1896 49.823C12.8711 49.5198 13.2935 48.7355 14.0223 48.5765C14.4997 48.4723 14.9855 48.6676 15.4384 48.8511C15.8914 49.0346 16.3892 49.2125 16.8581 49.0748C17.3269 48.9371 17.6728 48.3291 17.3748 47.9418C19.3789 47.357 21.4501 47.0334 23.5371 46.979C23.6981 46.9588 23.8614 46.9898 24.0038 47.0676C24.2755 47.2561 24.204 47.6632 24.1893 47.9935C24.1747 48.3238 24.4322 48.7579 24.7274 48.609C24.38 48.9102 24.677 49.4773 25.0102 49.794C25.3434 50.1107 25.7451 50.5477 25.5411 50.9597C25.4878 51.0672 25.3975 51.1533 25.3463 51.2618C25.1951 51.5821 25.4352 51.9554 25.7184 52.1681C26.0016 52.3808 26.3485 52.5294 26.5452 52.824C26.7419 53.1185 26.6526 53.634 26.3008 53.6751L25.3009 52.4056C24.9593 52.7598 24.7251 53.2037 24.6255 53.6856C25.6858 54.5524 25.8453 56.3166 24.9576 57.3594C24.504 57.8924 23.8589 58.2162 23.2959 58.6319C22.7328 59.0476 22.2119 59.6395 22.2133 60.3393C22.2157 61.5484 22.1169 62.6717 22.57 63.7927C23.4055 65.8597 24.3701 67.8721 25.4581 69.8181C25.7438 70.3291 26.113 70.8891 26.6918 70.9771C25.9603 69.1964 25.3019 67.3879 24.7164 65.5518C25.0977 65.5533 25.5384 65.5836 25.7619 65.8925C25.947 66.1483 25.9073 66.4961 25.9648 66.8066C26.038 67.1074 26.16 67.3942 26.3259 67.6556L29.8189 73.8777C30.1085 74.3935 30.4406 74.9471 30.9941 75.156C31.3479 75.2896 31.7573 75.2644 32.0829 75.4567C32.3382 75.6074 32.5101 75.8749 32.7704 76.0169C33.5062 76.4183 34.5294 75.6484 35.2171 76.1277C35.4137 76.2647 35.5388 76.4824 35.7199 76.6393C36.355 77.1893 37.3968 76.8214 38.13 77.2317C38.6025 77.4961 38.8474 78.0249 39.0994 78.5041C39.7307 79.7046 40.7522 80.8806 42.1051 80.9762C42.5301 81.0062 42.9642 80.9256 43.3796 81.0202C43.795 81.1147 44.2039 81.4772 44.1373 81.898C44.0229 82.6194 44.3794 83.4093 44.2836 84.1334C44.1093 85.4524 42.2384 86.032 42.0777 87.3527C42.0425 87.6419 42.0976 87.9403 42.0287 88.2234C41.9444 88.5703 41.6838 88.8527 41.5913 89.1976C41.4158 89.851 41.884 90.5013 42.3983 90.9409C42.9126 91.3805 43.526 91.7596 43.8072 92.375C44.1044 93.0255 43.9584 93.7839 44.0551 94.4925C44.2661 96.0393 45.6022 97.1861 46.9772 97.9255C47.3961 98.1508 47.8459 98.3689 48.1171 98.7597C48.471 99.2698 48.4357 99.9423 48.5539 100.552C48.8433 102.044 50.0999 103.274 50.1356 104.794C50.161 105.875 49.5604 106.855 49.2016 107.874C48.8653 108.851 48.7436 109.889 48.8448 110.917C48.946 111.945 49.2678 112.939 49.7882 113.831C50.0566 114.285 50.3775 114.712 50.5674 115.203C50.9062 116.08 50.7963 117.076 51.1086 117.963C51.5216 119.135 52.6564 120.103 52.5478 121.341C53.063 122.411 54.2006 122.936 55.3446 123.255L57.3948 123.825C57.7874 123.935 58.1976 124.045 58.5973 123.966C58.9971 123.887 59.3786 123.555 59.3683 123.147C58.3629 122.92 57.3252 122.679 56.4964 122.067C55.6676 121.454 55.0999 120.363 55.4143 119.382C55.5602 118.926 55.8704 118.401 55.5754 118.025C55.4066 117.809 55.0978 117.753 54.9073 117.557C54.6102 117.25 54.7123 116.736 54.9259 116.366C55.1395 115.997 55.4482 115.666 55.5343 115.248C55.5778 115.015 55.5487 114.773 55.451 114.556C55.3533 114.339 55.1917 114.157 54.9877 114.035C55.3678 113.892 55.7136 113.67 56.0025 113.384C56.2693 113.079 56.3926 112.609 56.1827 112.263C56.8061 112.342 57.5421 112.381 57.9513 111.904C58.2781 111.523 58.2557 110.954 58.1265 110.469C57.9974 109.984 57.7792 109.513 57.7724 109.011C59.2105 109.079 60.6517 109.03 62.0819 108.865C61.8751 108.168 61.4051 107.58 60.7716 107.224C61.4194 107.114 62.0095 106.339 62.2141 105.715C62.4187 105.09 62.3665 104.411 62.2401 103.766C62.1915 103.6 62.1848 103.424 62.2207 103.255C62.2936 103.023 62.522 102.881 62.7332 102.76L65.9483 100.913C66.1402 100.817 66.3141 100.689 66.4624 100.534C66.7993 100.138 66.7494 99.5408 66.5769 99.0506C66.4044 98.5604 66.1282 98.0995 66.0617 97.5841C65.863 96.0428 67.5129 94.937 68.0698 93.4861C68.2883 92.9167 68.3328 92.2978 68.3751 91.6894C68.4205 91.0359 68.4239 90.2769 67.9222 89.8558C67.4412 89.4521 66.6897 89.5422 66.1865 89.1667C65.725 88.8225 65.5659 88.1539 65.0618 87.8759C64.604 87.6234 64.0301 87.784 63.521 87.6652C62.6245 87.4561 62.0604 86.423 61.1449 86.3273C60.6284 86.2733 60.0438 86.5258 59.6204 86.225C59.2474 85.96 59.2324 85.4272 59.1614 84.9751C59.037 84.2725 58.7002 83.6249 58.1965 83.1196C57.6928 82.6142 57.0463 82.2754 56.3441 82.1487C55.8115 82.0632 55.2318 82.0957 54.7787 81.803C54.3199 81.5066 54.1096 80.9518 53.7492 80.5414C53.1684 79.8799 52.2536 79.6449 51.3967 79.4434L47.9112 78.624C47.2924 78.4786 46.4949 78.4014 46.1628 78.9434C46.0646 79.1498 45.995 79.3687 45.956 79.5939C45.8316 80.0013 45.5812 80.3589 45.2409 80.615C44.9005 80.8712 44.4877 81.0129 44.0617 81.0197C43.7696 80.5215 43.2963 80.1553 42.7407 79.9976C42.3873 79.8991 42.0089 79.8881 41.6719 79.7432C41.4883 79.6536 41.3249 79.5275 41.1918 79.3726C41.0586 79.2176 40.9585 79.0372 40.8975 78.8422C40.8365 78.6472 40.816 78.4419 40.8371 78.2387C40.8582 78.0355 40.9206 77.8388 41.0204 77.6605C41.2214 77.3027 41.299 76.8887 41.2412 76.4825C41.1835 76.0762 40.9937 75.7002 40.701 75.4125C40.1083 74.8804 39.2508 74.7518 38.456 74.805C38.2479 74.3508 38.5959 73.8384 38.971 73.5083C39.3461 73.1782 39.8015 72.8537 39.8832 72.3608C40.0117 71.5854 39.0224 70.9965 38.2712 71.2277C37.5201 71.4589 37.0406 72.1885 36.7237 72.9077C36.5419 73.3203 36.3873 73.7549 36.1004 74.1028C35.8136 74.4508 35.3517 74.6999 34.9148 74.5882C34.2963 74.4301 34.0574 73.6953 33.9205 73.0718C33.7369 72.2352 33.5521 71.3869 33.5906 70.5313C33.6291 69.6756 33.9176 68.797 34.5485 68.2178C35.5767 67.2739 37.154 67.3664 38.5416 67.517C38.2138 67.1476 38.2948 66.5251 38.6455 66.1774C38.8307 66.0129 39.0532 65.8961 39.2937 65.837C39.5343 65.7779 39.7856 65.7783 40.0259 65.8383C40.4441 65.9254 40.8207 66.1506 41.0953 66.4777C41.4896 66.9585 41.6018 67.6076 41.8998 68.1533C42.1979 68.699 42.868 69.1644 43.4166 68.8716C43.8904 68.6188 43.9656 67.9618 43.8477 67.4378C43.7297 66.9139 43.4793 66.4044 43.522 65.869C43.6035 64.8475 44.6624 64.2326 45.5969 63.8119C46.5313 63.3912 47.6013 62.8254 47.7493 61.8114C47.7544 61.6129 47.7918 61.4165 47.8602 61.23C47.9638 61.0653 48.1078 60.9299 48.2786 60.8366C51.0057 59.0343 53.7782 57.21 56.8952 56.2252C57.0574 56.174 57.0764 56.2309 57.2417 56.1908C57.473 56.0571 57.3198 55.6873 57.098 55.5383C56.8762 55.3893 56.5798 55.2751 56.5236 55.0139C56.4822 54.822 56.5953 54.6335 56.6247 54.4393C56.6969 53.9622 56.1261 53.5216 55.6828 53.7124C55.4325 53.3808 55.9279 52.9955 56.3285 52.8852C57.5314 52.5541 58.7663 52.3524 60.012 52.2835C60.1558 52.2606 60.3031 52.2857 60.4312 52.3548C60.6404 52.4997 60.6137 52.8321 60.4654 53.039C60.3171 53.2459 60.0864 53.3758 59.9017 53.5508C59.6998 53.7475 59.5558 53.9958 59.4854 54.2688C59.415 54.5417 59.4209 54.8287 59.5025 55.0985C60.1529 55.4293 60.8599 55.7698 61.5802 55.6533C62.3005 55.5368 62.9398 54.7275 62.6012 54.0811C62.2859 53.4792 61.3389 53.3434 61.1761 52.6838C60.9854 51.9114 62.0787 51.2245 61.8324 50.468C61.7246 50.1367 61.3943 49.9417 61.1409 49.7024C60.8417 49.4091 60.6381 49.0322 60.557 48.6211C60.4759 48.21 60.5209 47.784 60.6863 47.3989C60.2736 47.4715 59.8495 47.4441 59.4495 47.319C59.0496 47.1938 58.6855 46.9746 58.3878 46.6796C57.838 46.1248 57.3993 45.2495 56.6186 45.2743C55.9022 45.2971 55.2851 46.1329 54.6152 45.8779C54.4503 45.8152 54.2766 45.6875 54.1169 45.7623C54.0646 45.7963 54.0206 45.8417 53.9884 45.8952C53.9562 45.9486 53.9366 46.0087 53.931 46.0709C53.7608 46.8848 54.0537 47.8122 53.61 48.5155C53.1273 49.2809 52.0107 49.387 51.4255 50.0771C51.1078 50.4518 50.9848 50.9566 50.6927 51.3516C50.4007 51.7466 49.781 51.9977 49.4306 51.6535C49.6028 51.2995 49.6498 50.8975 49.564 50.5132C49.4781 50.129 49.2645 49.7852 48.958 49.5381C48.6326 49.3258 48.2819 49.1552 47.9141 49.0303C47.503 48.8564 47.112 48.6384 46.7479 48.3804C46.5654 48.2703 46.4172 48.1117 46.3198 47.9223C46.2427 47.6851 46.253 47.4281 46.349 47.1979C46.5267 46.6884 46.8402 46.2372 47.2556 45.8929C47.671 45.5486 48.1726 45.3243 48.7062 45.2442C49.1727 45.1807 49.7158 45.2031 50.0246 44.8476C50.1879 44.6595 50.2737 44.3751 50.5108 44.2987C50.6625 44.2682 50.82 44.2876 50.9597 44.354L52.7012 44.967C52.8955 45.0547 53.1094 45.0901 53.3216 45.0696C53.4268 45.0554 53.5228 45.002 53.5903 44.92C53.6577 44.838 53.6917 44.7335 53.6853 44.6275C53.6297 44.3383 53.1847 44.1996 53.2252 43.9078C53.2478 43.8133 53.2987 43.7279 53.3709 43.6628C53.9994 42.9939 54.768 42.4722 55.6217 42.1351C56.4754 41.798 57.3931 41.6537 58.3091 41.7128C58.5289 42.0738 58.1812 42.5013 57.892 42.8095C57.6027 43.1176 57.3703 43.6683 57.7201 43.9055C57.8635 43.9787 58.0229 44.0146 58.1838 44.0099C58.6125 44.068 59.0292 44.1944 59.418 44.3843C60.0198 44.6462 60.61 44.9327 61.1887 45.2439C61.1376 44.8624 61.0888 44.4604 61.2334 44.1036C61.378 43.7469 61.7891 43.467 62.1481 43.606C62.4941 43.7399 62.6715 44.198 63.0402 44.24C63.5319 44.296 63.7259 43.5695 63.5205 43.1193C63.3151 42.669 62.9085 42.292 62.8745 41.7983C62.8516 41.4652 62.9784 41.0521 62.7123 40.8504C62.6176 40.7898 62.5102 40.7521 62.3984 40.7403L55.7549 39.5178C55.3604 39.4452 54.7904 39.5008 54.7729 39.9016C54.7632 40.1253 54.963 40.3466 54.8745 40.5522C54.78 40.7717 54.4697 40.7517 54.2437 40.8293C53.893 40.9498 53.7171 41.3662 53.7507 41.7354C53.8124 42.1024 53.9545 42.4511 54.1669 42.7566C53.7347 42.5759 53.0804 42.5427 52.6483 42.3619Z" fill="#3F3D56"/>
<path id="Vector_3" d="M47.3477 36.7227C46.9287 36.5841 46.4773 36.5776 46.0546 36.7042C45.6319 36.8308 45.2583 37.0843 44.9845 37.4304C44.8751 37.5745 44.7833 37.773 44.8748 37.929C45.0061 38.1525 45.3407 38.0642 45.5873 37.9843C45.9498 37.8547 46.3444 37.8453 46.7127 37.9574C46.9443 38.0369 47.1515 38.1775 47.3841 38.254C47.4974 38.3013 47.6213 38.317 47.7428 38.2992C47.8642 38.2815 47.9786 38.231 48.0735 38.1532C48.2332 37.9904 48.2432 37.7373 48.2435 37.5093C48.2545 37.433 48.2484 37.3551 48.2256 37.2815C48.2028 37.2079 48.1638 37.1403 48.1115 37.0836C48.0184 37.0297 47.9137 36.9987 47.8063 36.9933C47.5656 36.9488 47.348 36.8216 47.191 36.6338" fill="#3F3D56"/>
<path id="Vector_4" d="M49.743 36.0555C49.6493 36.0504 49.5558 36.0695 49.4716 36.111C49.3873 36.1524 49.3152 36.2149 49.262 36.2923C49.2089 36.3697 49.1766 36.4595 49.1682 36.553C49.1598 36.6465 49.1756 36.7406 49.2141 36.8263C49.502 36.9048 49.8028 36.9244 50.0985 36.8839C50.246 36.861 50.3834 36.795 50.4934 36.6941C50.6034 36.5933 50.6811 36.4621 50.7167 36.3172C50.3685 36.3805 50.0093 36.3119 49.709 36.1247" fill="#3F3D56"/>
<path id="Vector_5" d="M57.7801 34.9415C56.9964 35.1081 56.2352 35.3667 55.5122 35.7119C55.853 35.843 56.1428 36.08 56.3387 36.3881C56.5346 36.6962 56.6264 37.0592 56.6005 37.4234C56.5699 37.5632 56.5735 37.7083 56.6108 37.8465C56.6941 38.0484 56.9355 38.1242 57.1477 38.176C57.5289 38.2921 57.927 38.3429 58.3251 38.3263C58.5243 38.3159 58.7177 38.256 58.8879 38.152C59.0581 38.048 59.1996 37.9032 59.2997 37.7307C59.3574 37.5671 59.4251 37.407 59.5024 37.2516C60.011 36.477 61.522 37.4136 62.0681 36.665C62.2604 36.4013 62.2428 36.0043 62.4936 35.7953C62.6233 35.7042 62.7737 35.6469 62.9311 35.6283C64.0292 35.4102 65.1385 35.2522 66.2539 35.1551C66.7824 35.1091 67.4713 34.9193 67.4757 34.3889C65.485 33.9979 63.4209 34.2756 61.6044 35.1787C60.9499 35.5065 60.0842 36.1961 59.4538 35.7615C59.2177 35.5988 59.2294 35.1606 58.9045 34.9776C58.5724 34.7905 58.1327 34.8666 57.7801 34.9415Z" fill="#3F3D56"/>
<path id="Vector_6" d="M64.2905 36.1589L65.2249 36.3384C65.0529 36.3308 64.8813 36.36 64.7214 36.424C64.5616 36.4879 64.4172 36.5853 64.2979 36.7094C64.1787 36.8336 64.0873 36.9818 64.0298 37.1441C63.9724 37.3065 63.9502 37.4791 63.9648 37.6507C64.8399 37.943 65.7939 37.6586 66.7157 37.6974C67.6375 37.7363 68.71 38.3947 68.5527 39.3038C68.5051 39.5787 68.3463 39.8534 68.4289 40.1199C68.4867 40.3066 68.6515 40.4392 68.7444 40.6112C68.9382 40.9696 68.7833 41.423 68.5387 41.7488C68.2941 42.0746 67.9652 42.3346 67.7505 42.6809C67.2165 43.5421 67.5199 44.6555 67.838 45.6176C67.93 45.9812 68.0999 46.3204 68.3359 46.6118C68.8072 47.1129 69.5753 47.1565 70.2632 47.1666C70.7638 47.1739 71.3374 47.1491 71.654 46.7612C72.0674 46.2548 71.7783 45.4646 72.0505 44.8703C72.2976 44.3304 72.9273 44.0989 73.4979 43.9346C74.5431 43.6337 75.6083 43.3779 76.5965 42.9234C77.8235 42.359 78.9702 41.4794 80.3189 41.4068C80.6973 41.3864 81.085 41.4311 81.4495 41.3274C81.8139 41.2237 82.1601 40.9086 82.1325 40.5307C82.109 40.2078 81.8358 39.9707 81.6223 39.7273C81.4089 39.4839 81.2412 39.1096 81.4374 38.8521L84.9724 38.1918C84.7218 37.5089 84.5266 36.6095 85.1024 36.165C85.3102 36.0046 85.5883 35.9405 85.7652 35.7467C86.0667 35.4162 85.9151 34.847 85.5671 34.5659C85.2191 34.2849 84.7485 34.2196 84.3027 34.1826C82.7527 34.0539 81.1938 34.1389 79.6408 34.2241C76.6049 34.3905 73.5691 34.5569 70.5333 34.7233C69.9222 34.7568 69.2166 34.7056 68.656 34.9141C68.1815 35.0906 67.8441 35.4146 67.3014 35.5285C66.2996 35.7386 65.1971 35.5964 64.2905 36.1589Z" fill="#3F3D56"/>
<path id="Vector_7" d="M81.0308 43.5451C80.9356 43.5301 80.8382 43.5522 80.7588 43.6068C80.7063 43.6646 80.675 43.7386 80.6702 43.8166C80.6099 44.1606 80.6818 44.5147 80.8714 44.808C80.968 44.9518 81.1014 45.0672 81.2577 45.1421C81.4139 45.217 81.5874 45.2488 81.7601 45.234C82.1808 45.1803 82.4909 44.8214 82.8778 44.6462C83.474 44.3765 86.0059 43.956 84.2544 43.0098C83.6508 42.6837 83.2608 42.9715 82.7851 43.1863C82.2438 43.4632 81.6373 43.5873 81.0308 43.5451Z" fill="#3F3D56"/>
<path id="Vector_8" d="M96.3713 35.6247C96.1668 35.7083 95.9957 35.8572 95.8847 36.0483C95.8336 36.1453 95.8217 36.2582 95.8516 36.3637C95.8814 36.4693 95.9507 36.5593 96.045 36.6152C96.1214 36.6429 96.2024 36.6557 96.2836 36.653L97.1151 36.6778C97.4684 36.6884 97.9097 36.7636 98.0046 37.1041C98.0751 37.3569 97.9173 37.6817 98.1077 37.8623C98.1894 37.9256 98.2876 37.9639 98.3906 37.9727C98.6645 38.043 98.9506 38.0523 99.2285 37.9997C99.8335 37.8374 99.5156 37.4681 99.7061 37.1393C99.9977 36.6362 99.9472 36.9408 100.461 36.6524C100.84 36.4395 101.331 36.0532 101.014 35.5104C100.463 34.5666 97.1839 35.2193 96.3713 35.6247Z" fill="#3F3D56"/>
<path id="Vector_9" d="M112.784 35.1504L112.302 35.2149C111.213 35.3602 110.118 35.5068 109.069 35.8338C109.523 36.0133 109.999 36.1302 110.485 36.1812C110.752 36.1943 111.017 36.232 111.278 36.2939C111.741 36.4318 112.208 36.7879 112.655 36.6055C112.933 36.4924 113.023 36.2035 113.253 36.0504C113.412 35.9446 114.014 35.7735 114.081 35.6668C114.625 34.8041 113.203 35.0946 112.784 35.1504Z" fill="#3F3D56"/>
<path id="Vector_10" d="M114.905 37.3448C114.26 37.7055 113.661 38.1437 113.123 38.6498C112.896 38.8631 112.664 39.1283 112.685 39.439C112.712 39.852 113.152 40.0915 113.533 40.2528L115.077 40.9064C115.264 40.6425 115.093 40.2781 114.899 40.0187C114.706 39.7594 114.476 39.4593 114.561 39.1472C114.659 38.791 115.093 38.6696 115.457 38.6082C116.051 38.5083 117.651 38.5163 117.459 37.56C117.232 36.4333 115.5 37.0119 114.905 37.3448Z" fill="#3F3D56"/>
<path id="Vector_11" d="M114.595 101.109C114.448 101.535 114.434 102.036 114.688 102.407C114.973 102.824 115.544 102.979 116.038 102.874C116.53 102.743 116.968 102.461 117.291 102.068C117.587 101.738 117.83 101.366 118.012 100.962C118.266 100.334 118.446 99.6775 118.546 99.0071L119.026 96.4907C119.133 95.9283 119.129 94.2041 118.095 94.7658C117.813 94.9193 117.159 96.131 116.863 96.4746C116.33 97.0939 116.259 97.6947 115.978 98.445C115.626 99.3847 114.92 100.168 114.595 101.109Z" fill="#3F3D56"/>
<path id="Vector_12" d="M169.189 113.987C168.851 113.855 168.523 113.698 168.207 113.519C167.89 114.389 167.722 115.307 167.709 116.233L170.023 114.923C170.372 114.726 170.766 114.452 170.759 114.052C170.762 114.003 170.752 113.954 170.729 113.91C170.707 113.865 170.673 113.828 170.631 113.802C170.579 113.781 170.523 113.775 170.468 113.783C170.125 113.811 169.812 113.98 169.489 114.098C169.165 114.215 168.786 114.277 168.489 114.103" fill="#3F3D56"/>
<path id="Vector_13" d="M181.398 114.764C181.144 114.833 180.896 114.922 180.656 115.031C180.125 115.301 179.764 115.814 179.286 116.17C178.828 116.511 178.278 116.698 177.737 116.879C177.578 117.02 177.651 117.303 177.824 117.427C178.01 117.532 178.222 117.58 178.435 117.564C178.997 117.576 179.588 117.582 180.08 117.31C180.357 117.131 180.617 116.925 180.855 116.696C181.43 116.216 182.12 115.899 182.804 115.593C183.053 115.5 183.283 115.362 183.483 115.187C183.913 114.764 183.943 114.111 183.324 113.967C182.823 113.851 181.875 114.61 181.398 114.764Z" fill="#3F3D56"/>
<path id="Vector_14" d="M186.793 111.24C186.821 110.949 186.782 110.655 186.68 110.381C186.577 110.107 186.414 109.86 186.202 109.658C186.196 110.241 186.178 110.862 185.851 111.343C185.617 111.687 185.251 111.918 184.995 112.245C184.739 112.572 184.626 113.091 184.926 113.378C185.118 113.524 185.351 113.604 185.592 113.607C186.19 113.678 186.881 113.717 187.3 113.285C187.528 113.05 187.64 112.701 187.918 112.528C188.022 112.484 188.115 112.418 188.19 112.333C188.305 112.15 188.122 111.909 187.916 111.843C187.71 111.777 187.483 111.808 187.276 111.746C187.069 111.683 186.879 111.45 186.986 111.262" fill="#3F3D56"/>
<path id="Vector_15" d="M177.205 89.8789C176.892 89.9551 176.567 89.9743 176.247 89.9354C175.715 89.8376 175.302 89.4369 174.872 89.1083C173.852 88.3313 172.611 87.8978 171.329 87.8702C170.162 87.8482 168.985 88.1643 167.839 87.9438C167.914 88.3601 168.27 88.6724 168.651 88.858C169.031 89.0436 169.45 89.137 169.832 89.3188C170.444 89.6128 170.929 90.1176 171.199 90.7404C171.322 91.0275 171.399 91.34 171.585 91.5907C171.966 92.1032 172.688 92.2157 173.325 92.1738C174.156 92.1192 175.023 91.8803 175.796 92.1897C176.387 92.4265 176.811 92.9439 177.304 93.3463C177.798 93.7486 178.493 94.0472 179.06 93.7569C178.471 93.5663 177.959 93.1925 177.597 92.6901C177.236 92.1877 177.045 91.5829 177.052 90.9641C177.608 91.0153 179.209 90.9955 179.122 90.0509C179.049 89.2504 177.682 89.7925 177.205 89.8789Z" fill="#3F3D56"/>
<path id="Vector_16" d="M169.933 96.3917C170.032 95.8504 170.572 95.3723 170.403 94.8484C170.287 94.486 169.867 94.3071 169.486 94.2982C169.106 94.2892 168.732 94.4026 168.352 94.4132C168.104 94.4001 167.856 94.4036 167.609 94.4238C166.854 94.5479 166.388 95.3394 165.677 95.6208C165.244 95.792 164.758 95.7592 164.308 95.8775C163.286 96.1461 162.64 97.1114 161.926 97.8897C160.772 99.1416 159.269 100.018 157.611 100.406C157.03 100.541 156.406 100.627 155.944 101.004C155.333 101.503 155.182 102.36 155.046 103.137C154.67 105.285 154.096 107.394 153.331 109.435L155.756 109.745C156.217 109.804 156.695 109.862 157.14 109.725C157.463 109.603 157.768 109.44 158.05 109.24C159.13 108.57 160.339 108.133 161.599 107.959C162.234 107.872 162.9 107.856 163.496 108.092C164.092 108.328 164.604 108.864 164.654 109.503C164.911 109.423 165.186 109.414 165.448 109.478C165.711 109.542 165.951 109.675 166.143 109.865C166.523 110.252 166.771 110.749 166.854 111.285C166.918 111.616 166.982 112.014 167.29 112.153C167.541 112.267 167.829 112.145 168.104 112.123C169.037 112.048 169.81 113.135 170.727 112.948C171.71 112.747 171.952 111.275 172.911 110.98C173.461 110.811 174.234 111.017 174.498 110.504C174.73 110.053 174.267 109.532 174.314 109.026C174.373 108.403 175.108 108.139 175.674 107.873C177.626 106.957 178.552 104.33 177.606 102.392C177.046 101.244 175.943 100.34 175.74 99.0792C175.583 98.1088 175.965 96.9773 175.347 96.2135C175.032 95.8249 174.499 95.6104 174.312 95.1468C174.194 94.8549 174.241 94.5238 174.178 94.2155C174.114 93.9072 173.845 93.5848 173.541 93.6647C172.657 93.8966 172.375 96.6266 171.902 97.2899C171.183 98.2981 169.706 97.634 169.933 96.3917Z" fill="#3F3D56"/>
<path id="Vector_17" d="M153.598 90.91C153.296 90.8253 152.967 90.7419 152.677 90.8629C152.388 90.9839 152.219 91.4088 152.451 91.6196C154.268 91.5488 156.096 91.4785 157.897 91.7253C159.973 92.0095 162.027 92.7137 164.112 92.5065C162.921 92.1552 161.71 91.8743 160.486 91.6654L158.446 91.2755C157.898 91.1608 157.345 91.0754 156.789 91.0194C155.624 90.9233 154.743 91.231 153.598 90.91Z" fill="#3F3D56"/>
<path id="Vector_18" d="M155.417 84.5824C155.267 84.5699 155.08 84.559 155.002 84.6887C154.927 84.8126 155.013 84.9763 154.972 85.1152C154.918 85.305 154.669 85.3535 154.473 85.3277C154.277 85.3018 154.066 85.24 153.892 85.3344C153.804 85.3945 153.738 85.4815 153.704 85.5824C153.669 85.6833 153.668 85.7926 153.702 85.894C153.772 86.0951 153.887 86.278 154.037 86.4295C154.294 86.7528 154.586 87.0461 154.909 87.3037C155.534 87.7646 156.379 87.9868 156.773 88.6559C156.828 88.7855 156.914 88.9003 157.022 88.9909C157.21 89.1105 157.457 89.0195 157.66 88.9266L158.373 88.601C158.501 88.5548 158.615 88.4768 158.706 88.3745C158.868 88.1536 158.768 87.8395 158.632 87.6016C158.495 87.3636 158.32 87.1173 158.35 86.8445C158.402 86.3581 159.027 86.172 159.284 85.7558C159.544 85.3363 159.375 84.7958 159.405 84.3035C159.44 83.7278 159.802 82.979 159.22 82.5489C158.725 82.1833 158.252 82.5211 157.897 82.9247C157.148 83.7757 156.794 84.6974 155.417 84.5824Z" fill="#3F3D56"/>
<path id="Vector_19" d="M159.743 75.9808C159.986 76.4466 160.493 76.7246 160.759 77.1782C161.046 77.6698 161.013 78.3051 161.325 78.7817C161.645 79.2706 162.289 79.5302 162.469 80.0864C162.665 80.6935 162.22 81.4315 162.575 81.962C162.641 82.0487 162.724 82.1207 162.819 82.1736C162.915 82.2264 163.02 82.2588 163.129 82.2688C163.237 82.2787 163.347 82.266 163.45 82.2315C163.554 82.197 163.649 82.1413 163.73 82.0681C163.879 81.9054 163.959 81.6908 163.952 81.47C163.946 81.2492 163.853 81.0397 163.695 80.8861C163.485 80.6948 163.183 80.6121 163.008 80.3887C162.917 80.2597 162.856 80.1117 162.83 79.9559C162.735 79.5063 162.75 79.0402 162.875 78.5979C162.922 78.4856 162.934 78.3618 162.909 78.2426C162.83 78.0134 162.52 77.9971 162.302 77.8908C161.807 77.6492 161.819 76.9509 161.906 76.407C161.848 76.7691 160.558 76.1533 160.423 75.9482C160.155 75.5408 160.301 74.7549 160.248 74.3047C159.669 74.5838 159.445 75.4113 159.743 75.9808Z" fill="#3F3D56"/>
<path id="Vector_20" d="M146.75 83.1477C146.512 82.8812 146.153 82.6024 145.834 82.7631C145.591 82.8858 145.524 83.2226 145.619 83.478C145.736 83.726 145.915 83.9394 146.139 84.0971C146.804 84.6455 147.52 85.1406 148.1 85.7782C149.138 86.9192 149.688 88.4588 150.818 89.51C151.045 89.7537 151.345 89.9163 151.673 89.9731C152.002 90.0037 152.372 89.7931 152.409 89.4649C152.441 89.1945 152.252 88.9525 152.068 88.7521C151.629 88.275 151.149 87.8358 150.735 87.3373C150.544 87.1458 150.423 86.8948 150.394 86.6257C150.392 86.3573 150.637 86.0763 150.897 86.1428C150.581 86.062 150.346 85.535 149.882 85.4359C149.494 85.3531 149.4 85.5933 148.938 85.3953C148.058 85.0176 147.367 83.8381 146.75 83.1477Z" fill="#3F3D56"/>
<path id="Vector_21" d="M167.442 57.2007C167.19 57.1256 166.941 57.0369 166.698 56.9349C166.044 56.7386 165.179 57.2192 165.266 57.8963C165.324 58.3462 165.743 58.6495 165.974 59.0397C166.317 59.6184 166.226 60.3523 166.045 61.0004C166.001 61.2011 165.917 61.3908 165.798 61.5583C165.632 61.7351 165.433 61.8782 165.212 61.9797C164.329 62.4749 163.551 63.1364 162.919 63.9278C162.851 64.0009 162.803 64.091 162.781 64.1888C162.75 64.4174 162.979 64.5839 163.109 64.7746C163.398 65.1982 163.189 65.7681 163.218 66.2798C163.213 66.3522 163.228 66.4244 163.259 66.4898C163.29 66.5551 163.338 66.6114 163.397 66.6532C163.571 66.7415 163.777 66.5914 163.871 66.4206C164.184 65.8538 163.949 64.944 164.536 64.6707C164.647 64.619 164.781 64.5972 164.855 64.4996C164.973 64.3449 164.859 64.1158 164.919 63.9309C165.008 63.6532 165.388 63.6408 165.68 63.6531C166.182 63.6741 166.683 63.6073 167.162 63.4557C167.35 63.411 167.521 63.3121 167.653 63.1714C167.829 62.9524 167.813 62.6411 167.778 62.3627C167.603 60.9748 167.163 59.6333 166.483 58.4107C166.999 58.4766 167.56 58.5336 168.004 58.2649C168.254 58.1145 168.552 57.6645 168.429 57.3583C168.233 56.874 167.88 57.2816 167.442 57.2007Z" fill="#3F3D56"/>
<path id="Vector_22" d="M101.345 64.8341C101.407 65.165 101.468 65.5134 101.359 65.8321C101.251 66.1508 100.91 66.417 100.587 66.3194C100.337 66.2436 100.193 65.9922 100.015 65.8006C99.0282 64.7348 96.8008 65.3518 96.1909 64.0332C95.942 63.4951 96.1111 62.8503 95.9413 62.2822C95.8342 61.9539 95.6211 61.6704 95.3354 61.4764C95.0498 61.2823 94.7077 61.1886 94.363 61.21C94.0486 61.2554 93.7426 61.3468 93.4548 61.4811C91.5265 62.2534 89.5021 62.7597 87.4373 62.9862C87.0449 63.0101 86.6567 63.0807 86.281 63.1966C85.4332 63.504 84.8539 64.29 84.4416 65.0921C84.0294 65.8941 83.725 66.7625 83.1723 67.4751C82.5914 68.224 81.7774 68.7484 81.0181 69.3157C80.7256 69.5042 80.4821 69.7594 80.3075 70.0605C80.1429 70.3984 80.1522 70.7915 80.165 71.1672L80.3201 75.7301C80.3401 76.317 80.3652 76.9249 80.6278 77.4501C80.9559 78.1059 81.6038 78.5355 82.0534 79.1149C82.5121 79.7103 82.7511 80.4459 82.7298 81.1972C82.7203 81.4993 82.6903 81.8566 82.9255 82.0463C83.0686 82.1391 83.2361 82.1872 83.4066 82.1846L89.5789 82.6898C90.6646 82.7787 91.8679 82.9248 92.5768 83.752C92.9113 84.1424 93.18 84.7038 93.6925 84.7457C93.9123 84.7636 94.1262 84.6734 94.346 84.656C94.9007 84.6121 95.3879 85.0331 95.6954 85.4967C96.1608 86.2035 96.3721 87.0475 96.2945 87.8901C96.2441 88.4191 96.0801 88.9333 96.0447 89.4635C95.9102 91.4808 97.6203 93.2334 97.6535 95.2549C97.673 96.444 97.1085 97.555 96.5582 98.6092C97.4464 99.9547 96.7191 101.747 97.0727 103.32C97.4082 104.812 98.6525 105.98 98.9625 107.478C99.1045 108.164 99.1127 109.008 99.7174 109.361C99.9827 109.49 100.277 109.549 100.571 109.532C102.349 109.553 104.106 109.153 105.699 108.364C106.447 107.993 107.221 107.44 107.352 106.615C107.457 105.95 107.12 105.207 107.463 104.628C107.868 103.945 108.904 103.999 109.499 103.474C110.464 102.623 109.711 101 110.102 99.7734C110.454 98.6712 111.664 98.0857 112.264 97.0965C112.5 96.671 112.669 96.2119 112.766 95.7351C113.041 94.5956 113.212 93.4335 113.277 92.263C113.293 91.5519 113.346 90.8421 113.434 90.1364C114.081 86.1184 118.053 83.4279 119.343 79.568C119.466 79.1994 119.524 78.7084 119.196 78.4998C119.001 78.407 118.781 78.3839 118.571 78.4344L115.726 78.7931C115.373 78.8377 114.998 78.8793 114.674 78.7325C114.349 78.5857 114.116 78.1752 114.288 77.8633C114.772 76.988 113.778 75.8818 113.336 74.9848C112.147 72.5693 110.73 70.2723 109.106 68.1249C109.002 68.0144 108.937 67.8731 108.921 67.7223L109.728 67.7492C109.456 66.771 109.006 65.7007 108.056 65.3429C107.52 65.1412 106.927 65.2109 106.356 65.2422C104.719 65.3316 102.965 65.0845 101.345 64.8341Z" fill="#3F3D56"/>
<path id="Vector_23" d="M106.357 42.7917C106.785 43.2464 107.265 43.7286 107.885 43.8078C108.979 43.9478 109.766 42.8162 110.267 41.8332C110.285 42.0838 110.401 42.3173 110.589 42.484C110.777 42.6507 111.023 42.7375 111.274 42.7258C111.544 42.6804 111.802 42.5796 112.031 42.4298C114.199 41.2449 116.628 40.6171 119.098 40.6028C119.075 40.4156 119.121 40.2263 119.229 40.0713C119.336 39.9164 119.498 39.8068 119.681 39.7637C120.184 39.6641 120.636 40.0984 120.879 40.5496C121.121 41.0008 121.272 41.5237 121.657 41.8614C122.042 42.1991 122.787 42.1844 122.94 41.6954C123.086 41.2259 122.596 40.8255 122.19 40.5487C121.784 40.2719 121.355 39.7596 121.629 39.3511C123.705 38.8915 125.794 38.4302 127.918 38.3389C128.28 38.3515 128.64 38.2894 128.977 38.1565C129.301 37.9976 129.558 37.6367 129.471 37.2865C129.008 37.3955 128.522 37.3639 128.077 37.1958C127.631 37.0278 127.246 36.7308 126.97 36.3428C129.917 36.0996 133.052 35.8923 135.665 37.2792C135.978 37.9522 134.38 38.5121 134.808 39.1191C134.944 39.3126 135.217 39.3353 135.454 39.3397C137.269 39.3734 139.095 39.4065 140.89 39.1324C141.546 39.0323 142.208 38.8909 142.867 38.9721C143.964 39.1074 144.902 39.8392 145.981 40.0778C146.42 40.1749 146.913 40.1782 147.283 39.9228C147.653 39.6673 147.812 39.0857 147.509 38.7536C148.525 37.7578 150.211 38.0046 151.551 38.4813C152.892 38.958 154.161 39.7268 155.58 39.8331C156.597 39.9093 157.629 39.6357 158.634 39.8096C159.266 39.9189 159.854 40.1999 160.471 40.3726C161.639 40.6991 162.874 40.6302 164.086 40.6459C167.179 40.6875 170.239 41.2955 173.113 42.4396C173.487 42.5613 173.83 42.7637 174.117 43.0325C174.384 43.3189 174.52 43.7639 174.341 44.1121L171.371 43.6781C171.651 44.229 172.374 44.3229 172.962 44.5129C173.55 44.703 174.16 45.3522 173.807 45.8591C173.17 45.6563 172.592 46.2932 172.27 46.8792C171.949 47.4651 171.557 48.1669 170.889 48.2026C170.291 48.2346 169.568 47.7256 169.179 48.1801C169.717 48.8592 170.178 49.5961 170.553 50.3773C170.938 51.1793 171.212 52.1898 170.692 52.9114C170.61 53.0402 170.486 53.1365 170.341 53.1837C169.916 53.2913 169.64 52.7715 169.335 52.4564C168.951 52.0593 168.37 51.9469 167.85 51.7607C167.33 51.5745 166.782 51.2081 166.742 50.6573C166.716 50.3145 166.897 49.996 167.03 49.6792C167.255 49.1453 167.352 48.5669 167.317 47.989C167.288 47.524 167.157 47.0404 166.823 46.7155C166.489 46.3907 165.913 46.2876 165.555 46.5852C165.387 46.724 165.253 46.9461 165.036 46.9544C164.652 46.969 164.358 46.2999 164.049 46.5283C164.085 46.7717 164.035 47.0201 163.906 47.23C162.985 48.0314 161.569 47.6923 160.381 47.9754C159.817 48.1371 159.276 48.3732 158.773 48.6777C158.585 48.7581 158.425 48.8923 158.314 49.0635C158.165 49.3517 158.329 49.7207 158.59 49.9123C158.867 50.0823 159.179 50.1886 159.502 50.2235C160.95 50.4978 162.42 50.9224 163.563 51.8525C164.706 52.7827 165.456 54.3203 165.094 55.7491L162.238 53.0203C162.347 54.1661 162.408 55.315 162.423 56.4671C162.441 56.692 162.411 56.9183 162.332 57.13C162.129 57.5797 161.577 57.731 161.094 57.8303C160.959 57.8558 160.831 57.9096 160.719 57.9879C160.607 58.0663 160.513 58.1675 160.442 58.2849C160.372 58.4023 160.327 58.5333 160.311 58.6693C160.295 58.8052 160.308 58.943 160.349 59.0737C160.52 59.6336 160.949 60.0702 161.341 60.5052C161.733 60.9402 162.119 61.4347 162.17 62.0181C162.222 62.6016 161.782 63.2593 161.197 63.2187C160.754 63.1879 160.426 62.7914 160.237 62.3896C160.048 61.9878 159.935 61.5401 159.652 61.1987C158.792 60.1653 156.862 60.6081 156.093 59.5064C155.896 59.7289 155.76 59.998 155.697 60.2879C155.634 60.5779 155.646 60.8791 155.733 61.163C156.091 60.9388 156.581 61.1471 156.85 61.4729C157.119 61.7986 157.246 62.2162 157.457 62.5821C157.742 63.0757 158.196 63.5134 158.236 64.0821C158.225 64.2971 158.229 64.5126 158.247 64.7272C158.317 65.0718 158.609 65.3192 158.811 65.6072C159.28 66.2774 159.257 67.1981 158.954 67.9585C158.652 68.7189 158.107 69.3543 157.569 69.9703C156.627 71.0463 155.667 72.116 154.551 73.0095C154.232 73.2645 153.892 73.5152 153.694 73.8717C153.496 74.2281 153.486 74.7285 153.79 74.9996C153.572 75.0105 153.181 75.1178 152.963 75.1287C152.887 74.2539 152.87 73.3749 152.913 72.4979C152.053 72.0847 151.126 73.1913 151.237 74.1394C151.348 75.0875 152.034 75.8484 152.522 76.6687C152.879 77.2685 153.145 77.968 153.026 78.6558C152.906 79.3437 152.292 79.9782 151.597 79.9175C150.491 79.821 150.028 78.233 148.933 78.0513C148.836 78.0286 148.735 78.0386 148.644 78.0799C148.482 78.1691 148.453 78.3867 148.444 78.5719C148.4 79.4812 148.361 80.4266 148.716 81.2649C149.235 82.4913 150.576 83.5213 150.295 84.823C148.779 84.1184 147.991 82.4185 147.633 80.7856C147.275 79.1527 147.216 77.4385 146.574 75.8949C146.087 76.5192 145.063 76.0031 144.618 75.3481C144.196 74.7272 143.937 74.009 143.527 73.3797C143.118 72.7504 142.491 72.1869 141.741 72.1523C140.955 72.1161 140.273 72.6556 139.673 73.1654C139.18 73.5846 138.674 74.0203 138.386 74.5998C137.966 75.443 138.076 76.4371 138.056 77.3787C138.034 78.3967 137.818 79.4707 137.124 80.2159C136.43 80.9611 135.15 81.2207 134.385 80.5491C133.985 80.1984 133.792 79.6745 133.619 79.1717C132.789 76.7477 132.097 74.2784 131.548 71.7757C131.419 72.3469 130.917 73.0831 130.438 72.7467C130.331 72.6562 130.244 72.544 130.183 72.4174C129.289 70.9025 127.634 69.9938 125.961 69.449C124.289 68.9042 122.529 68.65 120.875 68.0513C119.949 67.7156 119.063 67.2746 118.237 66.7371C118.026 67.0465 117.903 67.4072 117.881 67.7809C117.859 68.1545 117.938 68.5273 118.11 68.8596C118.477 69.5092 119.307 69.885 120.018 69.658C120.385 69.5406 120.695 69.2857 121.06 69.1598C121.424 69.0339 121.913 69.0957 122.073 69.4468C122.225 69.7828 121.995 70.1893 122.109 70.5401C122.283 71.0745 123.089 71.1157 123.371 71.6019C123.58 71.9637 123.408 72.4442 123.109 72.7361C122.809 73.0281 122.41 73.1882 122.044 73.3914C120.858 74.0508 120.015 75.1765 118.979 76.0522C117.943 76.928 116.48 77.5674 115.245 77.0057C115.54 75.5149 113.764 74.4204 113.437 72.9364C113.33 72.448 113.385 71.9291 113.232 71.4531C113.01 70.7639 112.398 70.2901 111.897 69.7678C111.288 69.1275 110.814 68.3718 110.503 67.5453C110.191 66.7188 110.048 65.8382 110.082 64.9556C110.11 64.3423 110.222 63.719 110.083 63.1212C109.943 62.5234 109.448 61.9448 108.835 61.9719C107.434 62.0337 105.669 62.1379 104.934 60.9438C104.672 60.5176 104.558 59.8934 104.937 59.5669C105.204 59.3365 105.599 59.3582 105.951 59.3928L109.107 59.7033C109.845 59.7759 110.643 59.8358 111.276 59.4499C111.91 59.064 112.184 58.0396 111.598 57.5855C111.169 57.2538 110.401 57.2718 110.277 56.7443C110.173 56.305 110.659 55.8066 110.397 55.4394C110.208 55.1762 109.785 55.2492 109.529 55.4466C109.272 55.6439 109.086 55.9325 108.799 56.0819C108.295 56.344 107.693 56.0946 107.151 55.925C106.61 55.7555 105.883 55.7411 105.62 56.2444C105.326 56.8072 105.881 57.5447 105.589 58.1087C105.204 58.8543 103.898 58.4299 103.356 59.0713C102.735 59.8072 103.779 60.9047 103.569 61.8449C103.302 61.9775 103.004 62.0383 102.706 62.0216C102.408 62.0048 102.119 61.911 101.868 61.7494C101.621 61.5814 101.425 61.3496 101.299 61.0788C101.173 60.8079 101.123 60.508 101.154 60.2109C101.206 59.788 101.427 59.3562 101.279 58.9565C101.159 58.6334 100.835 58.441 100.533 58.2743L97.4663 56.5794C97.1815 57.1077 97.5415 57.7626 97.9918 58.1594C98.442 58.5561 99.0059 58.855 99.3017 59.3771C99.4888 59.7389 99.5308 60.1585 99.419 60.5501C99.3072 60.9418 99.0501 61.276 98.7002 61.4845C98.6564 61.5148 98.6065 61.5352 98.554 61.5443C98.5015 61.5535 98.4477 61.5512 98.3962 61.5375C98.3473 61.5088 98.3046 61.4705 98.2707 61.425C98.2369 61.3794 98.2125 61.3275 98.199 61.2724C97.6579 59.8875 96.8453 58.5221 95.5463 57.7986C94.2473 57.0752 92.3808 57.2239 91.5289 58.4426C91.3266 58.7321 91.1908 59.062 91.0146 59.368C90.0781 60.9939 88.0706 61.7639 86.195 61.7136C86.0115 61.7237 85.829 61.6808 85.6692 61.59C85.3661 61.3807 85.3797 60.9364 85.4261 60.571L85.623 59.02C85.6626 58.7086 85.7198 58.3643 85.9663 58.1699C86.3138 57.8959 86.8151 58.0688 87.2576 58.0624C87.5928 58.0468 87.9151 57.9284 88.1808 57.7233C88.4465 57.5183 88.6427 57.2365 88.7428 56.9162C88.8322 56.5927 88.8317 56.251 88.7412 55.9278C88.6507 55.6046 88.4738 55.3122 88.2294 55.0822C88.0266 54.8917 87.7544 54.6524 87.8615 54.3956C87.9043 54.3246 87.962 54.2638 88.0308 54.2175C88.0996 54.1712 88.1777 54.1405 88.2595 54.1276C89.0544 53.8968 89.8942 53.8363 90.6758 53.5639C91.4574 53.2916 92.2154 52.7344 92.4005 51.9277C92.4572 51.6804 92.483 51.381 92.7051 51.2584C92.8165 51.2113 92.9362 51.1869 93.0571 51.1865C93.4809 51.1262 93.8667 50.9095 94.1386 50.5789C94.4106 50.2484 94.5489 49.8281 94.5265 49.4007C94.9011 49.139 95.4259 49.3315 95.7882 49.6099C96.1506 49.8883 96.4705 50.2561 96.9115 50.3761C97.7332 50.5997 98.5273 49.8722 99.3789 49.8688C99.737 49.8674 100.108 49.994 100.445 49.8726C100.786 49.7495 100.99 49.4095 101.252 49.1583C101.514 48.9071 101.974 48.7539 102.216 49.0245L102.01 47.4978C102.425 47.6026 102.858 47.6175 103.279 47.5413C103.701 47.4651 104.101 47.2997 104.453 47.0561L101.789 46.156C101.696 46.1329 101.611 46.0871 101.54 46.0228C101.346 45.8143 101.539 45.4893 101.696 45.2522C102.073 44.6851 102.136 43.7509 101.517 43.4686C101.094 43.2759 100.608 43.5072 100.202 43.7335L98.258 44.8176C98.1962 45.1872 98.6482 45.3967 98.9283 45.6456C99.0977 45.7962 99.2176 45.9946 99.2723 46.2146C99.3269 46.4346 99.3138 46.666 99.2345 46.8784C99.1552 47.0908 99.0136 47.2743 98.8281 47.4047C98.6427 47.5351 98.4221 47.6064 98.1954 47.6092C98.3235 47.7757 98.4124 47.9688 98.4557 48.1743C98.499 48.3798 98.4955 48.5924 98.4455 48.7963L97.1373 48.8904C96.9905 48.92 96.8379 48.8902 96.713 48.8076C96.5731 48.6833 96.5921 48.4656 96.5596 48.2813C96.4814 47.8365 96.0458 47.5247 95.6013 47.4448C95.1568 47.3648 94.702 47.4673 94.2618 47.5685C94.0749 47.6357 93.8696 47.631 93.686 47.5552C93.5808 47.4868 93.5008 47.3858 93.4583 47.2677C93.2653 46.7997 93.4457 46.2498 93.7556 45.8496C94.0655 45.4495 94.4898 45.1569 94.8709 44.8238C95.7822 44.0243 96.4517 42.9858 96.8038 41.8258C97.524 41.524 98.2696 41.114 98.9897 40.8123C100.1 40.2502 101.345 40.0089 102.585 40.1157L105.024 40.1623C105.746 40.1761 106.488 40.1938 107.155 40.469C107.823 40.7443 108.41 41.3397 108.456 42.0605C108.47 42.1421 108.463 42.2258 108.435 42.304C108.408 42.3821 108.361 42.452 108.299 42.5071C108.205 42.5585 108.098 42.5826 107.991 42.5766C107.318 42.6002 107.03 42.768 106.357 42.7917Z" fill="#3F3D56"/>
<path id="Vector_24" d="M86.9176 50.4352C87.0128 50.345 87.0814 50.2303 87.1158 50.1037C87.1501 49.977 87.1489 49.8434 87.1122 49.7174C86.8803 49.628 86.6281 49.605 86.3839 49.6511C86.1397 49.6972 85.9132 49.8106 85.7299 49.9785C85.5854 50.1246 85.4609 50.2892 85.3596 50.468C85.0391 50.9909 84.7557 51.6154 84.9414 52.1999C84.9565 52.2636 84.9842 52.3237 85.0229 52.3766C85.0616 52.4295 85.1104 52.4741 85.1665 52.5078C85.2498 52.5413 85.3395 52.5553 85.429 52.549C85.782 52.5485 86.1347 52.5268 86.4852 52.484C86.7004 52.4576 86.9504 52.3969 87.0335 52.1966C87.1429 51.9334 86.8782 51.6356 86.9554 51.3612C87.0061 51.2385 87.083 51.1284 87.1807 51.0385C87.2292 50.9932 87.2665 50.9373 87.2895 50.8751C87.3126 50.8129 87.3209 50.7462 87.3137 50.6803C87.2825 50.5515 87.0854 50.4785 87.0144 50.5904" fill="#3F3D56"/>
<path id="Vector_25" d="M88.7481 48.0618C88.4344 47.9897 88.1111 47.9694 87.791 48.0017C87.7201 47.9996 87.65 48.0155 87.587 48.048C87.526 48.093 87.4818 48.157 87.4613 48.23C87.3937 48.447 87.4103 48.6816 87.5079 48.8869C87.6054 49.0923 87.7768 49.2533 87.9877 49.338C88.1027 49.3645 88.2129 49.4087 88.3142 49.4692C88.5849 49.6792 88.4123 50.1085 88.4636 50.4473C88.5211 50.8277 88.8893 51.147 88.8218 51.5258C88.7686 51.8242 88.4499 52.0605 88.5012 52.3592C88.555 52.6721 88.952 52.7661 89.2685 52.7911C89.4519 52.8233 89.6407 52.8016 89.812 52.7288C89.9838 52.6114 90.106 52.4344 90.155 52.2322C90.2846 51.8465 90.339 51.4396 90.3154 51.0335C90.314 50.8487 90.2676 50.6671 90.1802 50.5044C90.0849 50.3755 89.9793 50.2545 89.8643 50.1427C89.258 49.4374 89.8964 48.3854 88.7481 48.0618Z" fill="#3F3D56"/>
<path id="Vector_26" opacity="0.8" d="M168.479 103.311C168.479 103.311 122.041 76.6545 102.048 81.7052C102.048 81.7052 59.6778 86.265 54.7673 96.2963C54.7673 96.2963 41.2986 54.2067 36.3882 52.8037" stroke="#6C63FF" stroke-width="2" stroke-miterlimit="10"/>
<path id="Vector_27" opacity="0.8" d="M54.7673 96.2966C62.5539 75.5324 132.703 52.5234 132.703 52.5234C122.742 55.0488 102.048 81.7056 102.048 81.7056C102.048 81.7056 58.2748 49.8578 36.3882 52.804C36.3882 52.804 132.773 55.9608 168.479 103.312" stroke="#6C63FF" stroke-width="2" stroke-miterlimit="10"/>
<path id="Vector_28" d="M36.3883 54.8382C37.5119 54.8382 38.4227 53.9274 38.4227 52.8039C38.4227 51.6803 37.5119 50.7695 36.3883 50.7695C35.2648 50.7695 34.354 51.6803 34.354 52.8039C34.354 53.9274 35.2648 54.8382 36.3883 54.8382Z" fill="#6C63FF"/>
<path id="Vector_29" d="M54.7672 98.3309C55.8908 98.3309 56.8016 97.4201 56.8016 96.2965C56.8016 95.173 55.8908 94.2622 54.7672 94.2622C53.6437 94.2622 52.7329 95.173 52.7329 96.2965C52.7329 97.4201 53.6437 98.3309 54.7672 98.3309Z" fill="#6C63FF"/>
<path id="Vector_30" d="M132.703 54.5574C133.827 54.5574 134.738 53.6466 134.738 52.5231C134.738 51.3996 133.827 50.4888 132.703 50.4888C131.58 50.4888 130.669 51.3996 130.669 52.5231C130.669 53.6466 131.58 54.5574 132.703 54.5574Z" fill="#6C63FF"/>
<path id="Vector_31" d="M168.48 105.346C169.603 105.346 170.514 104.435 170.514 103.311C170.514 102.188 169.603 101.277 168.48 101.277C167.356 101.277 166.445 102.188 166.445 103.311C166.445 104.435 167.356 105.346 168.48 105.346Z" fill="#6C63FF"/>
<path id="Vector_32" d="M102.048 83.7396C103.172 83.7396 104.082 82.8288 104.082 81.7052C104.082 80.5817 103.172 79.6709 102.048 79.6709C100.924 79.6709 100.014 80.5817 100.014 81.7052C100.014 82.8288 100.924 83.7396 102.048 83.7396Z" fill="#6C63FF"/>
</g>
<defs>
<clipPath id="clip0_1_29704">
<rect width="200" height="148.559" fill="white"/>
</clipPath>
</defs>
</svg>
