<svg width="19" height="19" viewBox="0 0 19 19" fill="none" xmlns="http://www.w3.org/2000/svg">
<path id="Vector" fill-rule="evenodd" clip-rule="evenodd" d="M0.19043 9.36523C0.19043 8.18334 0.423221 7.01301 0.875514 5.92108C1.32781 4.82915 1.99074 3.837 2.82647 3.00127C3.6622 2.16555 4.65435 1.50261 5.74628 1.05032C6.83821 0.598026 8.00853 0.365234 9.19043 0.365234C10.3723 0.365234 11.5426 0.598026 12.6346 1.05032C13.7265 1.50261 14.7187 2.16555 15.5544 3.00127C16.3901 3.837 17.0531 4.82915 17.5053 5.92108C17.9576 7.01301 18.1904 8.18334 18.1904 9.36523C18.1904 11.7522 17.2422 14.0414 15.5544 15.7292C13.8666 17.417 11.5774 18.3652 9.19043 18.3652C6.80348 18.3652 4.5143 17.417 2.82647 15.7292C1.13864 14.0414 0.19043 11.7522 0.19043 9.36523ZM9.19043 2.36523C8.16031 2.36498 7.14282 2.59209 6.21058 3.03036C5.27834 3.46862 4.45431 4.10724 3.7973 4.90065C3.14029 5.69405 2.66649 6.62269 2.4097 7.62029C2.15291 8.6179 2.11947 9.65988 2.31176 10.6719C2.61375 10.3432 2.98529 10.086 3.3993 9.91907C3.81331 9.75216 4.25934 9.67975 4.70489 9.7071C5.15043 9.73446 5.58426 9.8609 5.97474 10.0772C6.36521 10.2935 6.7025 10.5942 6.962 10.9574C7.2215 11.3206 7.39668 11.7372 7.47477 12.1767C7.55286 12.6162 7.53188 13.0676 7.41337 13.4979C7.29486 13.9283 7.08181 14.3268 6.78974 14.6644C6.49767 15.0019 6.13395 15.2701 5.7251 15.4492C6.68733 15.997 7.76575 16.3089 8.87185 16.3591C9.97795 16.4094 11.0802 16.1966 12.0881 15.7383C13.0961 15.28 13.981 14.5893 14.6702 13.7227C15.3595 12.8561 15.8334 11.8385 16.0531 10.7532C15.5736 11.4925 14.9072 12.0919 14.1214 12.4908C13.3357 12.8896 12.4585 13.0737 11.5787 13.0244C10.6988 12.9751 6.8477 12.6942 6.11141 12.2101C5.37512 11.726 7.77984 11.0559 7.38588 10.2677C6.99191 9.47947 6.81324 8.60115 6.86798 7.72167C6.92271 6.84219 7.20889 5.99279 7.69755 5.25951C8.1862 4.52623 8.85996 3.93512 9.65059 3.54603C10.4412 3.15695 11.3206 2.98373 12.1998 3.0439C11.2599 2.59585 10.2316 2.36396 9.19043 2.36523ZM8.8571 8.0319C8.8571 7.23625 9.17317 6.47319 9.73578 5.91058C10.2984 5.34797 11.0614 5.0319 11.8571 5.0319C12.6527 5.0319 13.4158 5.34797 13.9784 5.91058C14.541 6.47319 14.8571 7.23625 14.8571 8.0319C14.8571 8.82755 14.541 9.59061 13.9784 10.1532C13.4158 10.7158 12.6527 11.0319 11.8571 11.0319C11.0614 11.0319 10.2984 10.7158 9.73578 10.1532C9.17317 9.59061 8.8571 8.82755 8.8571 8.0319ZM4.52376 11.6986C4.39244 11.6986 4.2624 11.7244 4.14108 11.7747C4.01975 11.8249 3.90951 11.8986 3.81666 11.9915C3.7238 12.0843 3.65014 12.1946 3.59988 12.3159C3.54963 12.4372 3.52376 12.5672 3.52376 12.6986C3.52376 12.8299 3.54963 12.9599 3.59988 13.0812C3.65014 13.2026 3.7238 13.3128 3.81666 13.4057C3.90951 13.4985 4.01975 13.5722 4.14108 13.6224C4.2624 13.6727 4.39244 13.6986 4.52376 13.6986C4.78898 13.6986 5.04333 13.5932 5.23087 13.4057C5.41841 13.2181 5.52376 12.9638 5.52376 12.6986C5.52376 12.4333 5.41841 12.179 5.23087 11.9915C5.04333 11.8039 4.78898 11.6986 4.52376 11.6986Z" fill="#27AE60"/>
</svg>
