<svg width="88" height="100" viewBox="0 0 88 100" fill="none" xmlns="http://www.w3.org/2000/svg">
<path id="Vector" d="M25.249 3.125C25.249 2.2962 25.5783 1.50134 26.1643 0.915292C26.7504 0.329241 27.5452 0 28.374 0H40.874C41.7028 0 42.4977 0.329241 43.0837 0.915292C43.6698 1.50134 43.999 2.2962 43.999 3.125V6.25H47.124C47.9528 6.25 48.7477 6.57924 49.3337 7.16529C49.9198 7.75134 50.249 8.5462 50.249 9.375V18.9375C50.4773 18.9102 50.7078 18.9081 50.9365 18.9312C59.3819 19.7269 67.3664 23.1462 73.77 28.7096C80.1736 34.273 84.675 41.7014 86.6429 49.9527C88.6108 58.2041 87.9464 66.8644 84.7429 74.7191C81.5394 82.5737 75.9575 89.2285 68.7803 93.75H84.624C85.4528 93.75 86.2477 94.0792 86.8337 94.6653C87.4198 95.2513 87.749 96.0462 87.749 96.875C87.749 97.7038 87.4198 98.4987 86.8337 99.0847C86.2477 99.6708 85.4528 100 84.624 100H3.37402C2.54522 100 1.75037 99.6708 1.16432 99.0847C0.578264 98.4987 0.249023 97.7038 0.249023 96.875C0.249023 96.0462 0.578264 95.2513 1.16432 94.6653C1.75037 94.0792 2.54522 93.75 3.37402 93.75H47.124C55.9794 93.7639 64.4985 90.3598 70.9059 84.2473C77.3132 78.1347 81.1145 69.7852 81.5174 60.939C81.9203 52.0928 78.8938 43.4324 73.0686 36.7627C67.2434 30.093 59.069 25.9286 50.249 25.1375V59.375C50.249 60.2038 49.9198 60.9987 49.3337 61.5847C48.7477 62.1708 47.9528 62.5 47.124 62.5H43.999V65.625C43.999 68.1114 43.0113 70.496 41.2531 72.2541C39.495 74.0123 37.1104 75 34.624 75C32.1376 75 29.753 74.0123 27.9949 72.2541C26.2367 70.496 25.249 68.1114 25.249 65.625V62.5H22.124C21.2952 62.5 20.5004 62.1708 19.9143 61.5847C19.3283 60.9987 18.999 60.2038 18.999 59.375V9.375C18.999 8.5462 19.3283 7.75134 19.9143 7.16529C20.5004 6.57924 21.2952 6.25 22.124 6.25H25.249V3.125ZM31.499 62.5V65.625C31.499 66.4538 31.8283 67.2487 32.4143 67.8347C33.0004 68.4208 33.7952 68.75 34.624 68.75C35.4528 68.75 36.2477 68.4208 36.8337 67.8347C37.4198 67.2487 37.749 66.4538 37.749 65.625V62.5H31.499ZM25.249 56.25H43.999V12.5H25.249V56.25ZM15.874 81.25C15.0452 81.25 14.2504 81.5792 13.6643 82.1653C13.0783 82.7513 12.749 83.5462 12.749 84.375C12.749 85.2038 13.0783 85.9987 13.6643 86.5847C14.2504 87.1708 15.0452 87.5 15.874 87.5H53.374C54.2028 87.5 54.9977 87.1708 55.5837 86.5847C56.1698 85.9987 56.499 85.2038 56.499 84.375C56.499 83.5462 56.1698 82.7513 55.5837 82.1653C54.9977 81.5792 54.2028 81.25 53.374 81.25H15.874Z" fill="#FF66B2"/>
</svg>
