<svg width="18" height="22" viewBox="0 0 18 22" fill="none" xmlns="http://www.w3.org/2000/svg">
<path id="Vector" d="M5.14273 1.35744C5.14273 1.18695 5.21046 1.02344 5.33101 0.902884C5.45157 0.782327 5.61508 0.7146 5.78557 0.7146H8.35693C8.52743 0.7146 8.69094 0.782327 8.81149 0.902884C8.93205 1.02344 8.99977 1.18695 8.99977 1.35744V2.00028H9.64262C9.81311 2.00028 9.97662 2.06801 10.0972 2.18857C10.2177 2.30912 10.2855 2.47263 10.2855 2.64312V4.61022C10.3324 4.6046 10.3798 4.60417 10.4269 4.60893C12.1642 4.7726 13.8067 5.47598 15.1239 6.62043C16.4412 7.76487 17.3672 9.29295 17.772 10.9903C18.1768 12.6877 18.0402 14.4692 17.3812 16.085C16.7222 17.7008 15.5739 19.0697 14.0975 19.9998H17.3567C17.5272 19.9998 17.6907 20.0676 17.8113 20.1881C17.9318 20.3087 17.9995 20.4722 17.9995 20.6427C17.9995 20.8132 17.9318 20.9767 17.8113 21.0972C17.6907 21.2178 17.5272 21.2855 17.3567 21.2855H0.642841C0.472349 21.2855 0.30884 21.2178 0.188284 21.0972C0.0677278 20.9767 0 20.8132 0 20.6427C0 20.4722 0.0677278 20.3087 0.188284 20.1881C0.30884 20.0676 0.472349 19.9998 0.642841 19.9998H9.64262C11.4642 20.0027 13.2167 19.3024 14.5348 18.045C15.8528 16.7876 16.6348 15.0701 16.7176 13.2503C16.8005 11.4306 16.1779 9.64904 14.9796 8.27703C13.7814 6.90501 12.0998 6.04836 10.2855 5.88561V12.9286C10.2855 13.0991 10.2177 13.2626 10.0972 13.3831C9.97662 13.5037 9.81311 13.5714 9.64262 13.5714H8.99977V14.2143C8.99977 14.7257 8.79659 15.2163 8.43492 15.5779C8.07326 15.9396 7.58273 16.1428 7.07125 16.1428C6.55978 16.1428 6.06925 15.9396 5.70758 15.5779C5.34591 15.2163 5.14273 14.7257 5.14273 14.2143V13.5714H4.49989C4.3294 13.5714 4.16589 13.5037 4.04533 13.3831C3.92477 13.2626 3.85705 13.0991 3.85705 12.9286V2.64312C3.85705 2.47263 3.92477 2.30912 4.04533 2.18857C4.16589 2.06801 4.3294 2.00028 4.49989 2.00028H5.14273V1.35744ZM6.42841 13.5714V14.2143C6.42841 14.3848 6.49614 14.5483 6.61669 14.6688C6.73725 14.7894 6.90076 14.8571 7.07125 14.8571C7.24174 14.8571 7.40525 14.7894 7.52581 14.6688C7.64637 14.5483 7.71409 14.3848 7.71409 14.2143V13.5714H6.42841ZM5.14273 12.2857H8.99977V3.28596H5.14273V12.2857ZM3.21421 17.4285C3.04371 17.4285 2.8802 17.4962 2.75965 17.6168C2.63909 17.7373 2.57136 17.9008 2.57136 18.0713C2.57136 18.2418 2.63909 18.4053 2.75965 18.5259C2.8802 18.6464 3.04371 18.7141 3.21421 18.7141H10.9283C11.0988 18.7141 11.2623 18.6464 11.3829 18.5259C11.5034 18.4053 11.5711 18.2418 11.5711 18.0713C11.5711 17.9008 11.5034 17.7373 11.3829 17.6168C11.2623 17.4962 11.0988 17.4285 10.9283 17.4285H3.21421Z" fill="#FF66B2"/>
</svg>
