<svg width="90" height="100" viewBox="0 0 90 100" fill="none" xmlns="http://www.w3.org/2000/svg">
<path id="Vector" d="M45.0016 0.000213978C41.4116 0.000213978 38.0588 1.63493 35.201 4.3118C32.3435 6.98931 29.8972 10.7182 27.858 15.2349C27.4306 16.1811 27.0225 17.1645 26.6323 18.1789C25.5801 18.0118 24.5233 17.8746 23.4633 17.7673C22.2303 17.6444 21.0273 17.5681 19.8584 17.5408C16.3496 17.4575 13.1428 17.8132 10.3322 18.6652C6.58495 19.8014 3.49289 21.8883 1.69791 24.9968C-0.0970681 28.106 -0.357768 31.8271 0.531815 35.6406C1.42183 39.4539 3.42772 43.4368 6.31998 47.4614C6.92686 48.3055 7.57518 49.1521 8.25941 49.9985C7.59002 50.8248 6.94414 51.67 6.32255 52.5328C3.43007 56.5572 1.42418 60.5402 0.53438 64.3536C-0.355417 68.1671 -0.0945036 71.8883 1.70048 74.9968C3.49545 78.106 6.58752 80.1926 10.3348 81.3284C14.0822 82.4648 18.5346 82.7188 23.4659 82.2263C24.4997 82.1229 25.5557 81.9848 26.6302 81.8156C27.0115 82.8101 27.421 83.7936 27.858 84.7649C29.8972 89.2823 32.3433 93.0105 35.201 95.6878C38.0586 98.3649 41.4118 100 45.0016 100C48.5911 100 51.9443 98.3649 54.8019 95.6878C57.6594 93.0103 60.1057 89.2821 62.1449 84.7649C62.5819 83.7937 62.9914 82.8104 63.3727 81.816C64.4459 81.9848 65.5011 82.1231 66.534 82.2263C71.4655 82.7186 75.9182 82.4645 79.6652 81.3284C83.4128 80.1924 86.5049 78.1055 88.2999 74.9968C90.0949 71.8876 90.3556 68.1669 89.466 64.3536C88.576 60.5404 86.5699 56.5574 83.6778 52.5328C83.056 51.6701 82.41 50.825 81.7407 49.9985C82.4111 49.1714 83.0579 48.3255 83.6802 47.4616C86.5724 43.437 88.5783 39.4541 89.4681 35.6408C90.3579 31.8273 90.097 28.1062 88.302 24.997C86.507 21.8885 83.415 19.8016 79.6677 18.6654C76.8573 17.8135 73.6503 17.4577 70.142 17.5408C68.9722 17.5681 67.7689 17.6444 66.5362 17.7673C65.5019 17.8707 64.4448 18.0094 63.37 18.1787C62.989 17.1861 62.5802 16.2045 62.144 15.2349C60.1048 10.7175 57.6587 6.98867 54.8011 4.31158C51.9434 1.6345 48.5902 0 45.0007 0L45.0016 0.000213978ZM45.0016 3.9934C47.3959 3.9934 49.7437 5.04539 52.0716 7.2265C54.3993 9.40719 56.6226 12.7082 58.5051 16.8781C58.8113 17.5585 59.1024 18.2455 59.3783 18.9387C54.8017 19.9563 49.9546 21.5175 45.0003 23.6035C40.047 21.518 35.2006 19.9572 30.6248 18.9396C30.9073 18.2323 31.1975 17.5429 31.498 16.8779C33.3806 12.7078 35.6038 9.40676 37.9317 7.22565C40.2596 5.04496 42.6072 3.99297 45.002 3.99297L45.0016 3.9934ZM18.5919 21.528C18.9774 21.5242 19.369 21.5267 19.7667 21.5357C20.8266 21.5592 21.9286 21.6276 23.0667 21.7415C23.7945 21.8141 24.5384 21.9071 25.2942 22.0167C23.8868 26.4886 22.8154 31.4664 22.144 36.7996C17.86 40.0477 14.0841 43.4654 10.9147 46.9205C10.4508 46.3339 10.0001 45.737 9.5627 45.1303C6.89267 41.4151 5.14577 37.8392 4.42072 34.7326C3.69589 31.626 3.95916 29.0671 5.15624 26.9935C6.35332 24.9199 8.43848 23.4127 11.4908 22.4872C13.4941 21.8797 15.8928 21.5524 18.5917 21.5278L18.5919 21.528ZM71.4087 21.528C74.1076 21.5526 76.5062 21.8799 78.5095 22.4875C81.5623 23.4127 83.6466 24.9199 84.8439 26.9935C86.041 29.0671 86.3045 31.6263 85.5796 34.7326C84.8552 37.839 83.1073 41.4151 80.4377 45.1303C80.0003 45.737 79.5497 46.3341 79.0861 46.921C75.9171 43.4663 72.1423 40.0494 67.8596 36.8018C67.1886 31.4677 66.1159 26.4892 64.7085 22.0167C65.4635 21.9071 66.2065 21.8137 66.9336 21.7415C68.0306 21.6303 69.1315 21.5616 70.2338 21.5355C70.6254 21.5266 71.0171 21.5239 71.4087 21.5276V21.528ZM60.7414 22.7332C61.8034 26.0321 62.6827 29.6721 63.339 33.5672C61.2189 32.1351 59.0489 30.7784 56.833 29.4996C54.6189 28.2206 52.3602 27.0201 50.0613 25.9005C53.7623 24.5211 57.3538 23.4629 60.7414 22.7336V22.7332ZM29.2615 22.7338C32.6485 23.4634 36.2395 24.5216 39.9395 25.9007C37.6406 27.0203 35.382 28.2207 33.1677 29.4996C30.9529 30.7779 28.7837 32.1338 26.6644 33.5648C27.3204 29.6708 28.1995 26.0319 29.2615 22.7338ZM45.0003 27.9606C48.2498 29.3941 51.5483 31.06 54.8363 32.9584C58.1256 34.8576 61.2192 36.8817 64.0858 38.9801C64.4696 42.5117 64.676 46.2023 64.676 50C64.676 53.7955 64.4702 57.4846 64.0867 61.0148C61.2201 63.1127 58.1269 65.1364 54.8387 67.0352C51.55 68.9338 48.2507 70.6004 45.0005 72.0338C41.7499 70.6004 38.4505 68.9338 35.1619 67.0352C31.8743 65.137 28.7824 63.114 25.9169 61.0169C25.5333 57.4861 25.3271 53.7964 25.3271 49.9998C25.3271 46.2015 25.5333 42.5105 25.9173 38.9784C28.7835 36.8806 31.876 34.8568 35.1642 32.9584C38.4524 31.0602 41.7509 29.3941 45.0003 27.9611V27.9606ZM45.2704 33.9687L33.8376 41.024L45.2704 48.08L56.7031 41.024L45.2704 33.9685V33.9687ZM21.6023 42.3312C21.4226 44.8833 21.333 47.4409 21.3337 49.9994C21.3337 52.6059 21.4256 55.1646 21.6025 57.6631C18.5575 55.148 15.8451 52.5666 13.5193 49.9974C15.8451 47.4285 18.5573 44.8467 21.6023 42.3312ZM68.401 42.3333C71.4446 44.8484 74.1563 47.4291 76.4812 49.9976C74.1563 52.5662 71.4446 55.1469 68.401 57.6614C68.5805 55.1114 68.67 52.5559 68.6694 49.9996C68.6694 47.3917 68.5775 44.8326 68.4008 42.3333H68.401ZM31.2621 44.127V58.059L43.2692 65.4691V51.5377L31.2621 44.127ZM59.2676 44.1343L47.2632 51.5428V65.4676L59.2678 58.059V44.1343H59.2676ZM10.9143 53.075C14.0841 56.5303 17.8596 59.9472 22.1431 63.1952C22.8141 68.5278 23.886 73.5052 25.2929 77.9771C24.5386 78.0861 23.7958 78.1795 23.0693 78.2521C18.5169 78.7066 14.5459 78.4316 11.4934 77.5063C8.44062 76.5811 6.35631 75.0733 5.15902 72.9997C3.96194 70.9258 3.69846 68.3669 4.42329 65.2605C5.14812 62.1541 6.89523 58.5781 9.56526 54.8629C10.0017 54.257 10.4514 53.6609 10.9143 53.075ZM79.0859 53.0756C79.5575 53.6739 80.009 54.2701 80.4349 54.8629C83.1047 58.5779 84.8518 62.1539 85.5766 65.2603C86.3015 68.3667 86.0386 70.9256 84.8415 72.9995C83.644 75.0731 81.5593 76.5809 78.5066 77.5061C75.4542 78.4314 71.4839 78.7064 66.9315 78.2519C66.1892 78.1766 65.4486 78.085 64.7102 77.9773C66.1174 73.5044 67.189 68.5259 67.86 63.1922C72.1423 59.945 75.9173 56.529 79.0861 53.0752L79.0859 53.0756ZM63.3398 66.4275C62.6838 70.3222 61.8047 73.9621 60.7427 77.2608C57.3549 76.5315 53.763 75.4727 50.0617 74.0935C52.3613 72.9734 54.6206 71.7726 56.8356 70.4933C59.0509 69.2149 61.2205 67.8588 63.3403 66.4275H63.3398ZM26.6635 66.4296C28.7821 67.8603 30.9505 69.2157 33.1647 70.4933C35.3798 71.7725 37.6391 72.9733 39.9387 74.0935C36.2384 75.4725 32.6476 76.5311 29.26 77.2604C28.198 73.9623 27.3195 70.3232 26.6635 66.4296ZM45.1197 66.6112L45.265 66.701L45.4097 66.6112H45.1199H45.1197ZM45.0001 76.3911C49.9555 78.4767 54.8028 80.0377 59.38 81.0551C59.1037 81.7502 58.812 82.4392 58.5051 83.1214C56.6226 87.2911 54.3993 90.592 52.0714 92.7731C49.7437 94.954 47.3959 96.0062 45.0016 96.0062C42.607 96.0062 40.2592 94.954 37.9315 92.7731C35.6038 90.5922 33.3806 87.2911 31.498 83.1212C31.1912 82.4389 30.8995 81.75 30.6229 81.0548C35.1993 80.0373 40.0461 78.4765 45.0005 76.3911H45.0001Z" fill="#FF6600"/>
</svg>
