<svg width="96" height="106" viewBox="0 0 96 106" fill="none" xmlns="http://www.w3.org/2000/svg">
<path id="Vector" d="M63.3846 3V49.1538L91 84.3077C92.3452 86.0099 93.1831 88.057 93.4177 90.2139C93.6524 92.3708 93.2741 94.5501 92.3264 96.5018C91.3786 98.4534 89.8999 100.098 88.0597 101.248C86.2196 102.397 84.0927 103.004 81.9231 103H14.077C11.9074 103.004 9.78045 102.397 7.94032 101.248C6.1002 100.098 4.62142 98.4534 3.6737 96.5018C2.72597 94.5501 2.34771 92.3708 2.58231 90.2139C2.81691 88.057 3.65488 86.0099 5.00004 84.3077L32.6154 49.1538V3M21.077 3H74.9231" stroke="#FF0000" stroke-width="5" stroke-linecap="round" stroke-linejoin="round"/>
</svg>
