<svg width="20" height="22" viewBox="0 0 20 22" fill="none" xmlns="http://www.w3.org/2000/svg">
<path id="Vector" d="M13.0441 1.10669V10.239L18.5082 17.1947C18.7744 17.5315 18.9402 17.9366 18.9866 18.3633C19.033 18.7901 18.9582 19.2213 18.7707 19.6075C18.5831 19.9937 18.2905 20.3191 17.9264 20.5466C17.5623 20.774 17.1415 20.8941 16.7122 20.8933H3.28779C2.8585 20.8941 2.43765 20.774 2.07356 20.5466C1.70946 20.3191 1.41686 19.9937 1.22934 19.6075C1.04181 19.2213 0.966968 18.7901 1.01339 18.3633C1.05981 17.9366 1.22561 17.5315 1.49177 17.1947L6.95591 10.239V1.10669M4.67285 1.10669H15.3272" stroke="#FF0000" stroke-linecap="round" stroke-linejoin="round"/>
</svg>
