<svg width="18" height="20" viewBox="0 0 18 20" fill="none" xmlns="http://www.w3.org/2000/svg">
<path id="Vector" d="M9.00031 -0.00801381C8.28174 -0.00801381 7.61065 0.319191 7.03862 0.854995C6.46667 1.39093 5.97702 2.1373 5.56885 3.04137C5.4833 3.23076 5.40161 3.4276 5.32351 3.63064C5.11289 3.59721 4.90137 3.56973 4.6892 3.54826C4.44241 3.52366 4.2016 3.50839 3.96764 3.50292C3.26532 3.48624 2.62344 3.55745 2.06087 3.72799C1.31082 3.9554 0.691907 4.37311 0.332623 4.99532C-0.0266616 5.61765 -0.0788434 6.36248 0.0992162 7.12579C0.277361 7.88905 0.678861 8.68628 1.25778 9.49185C1.37925 9.66079 1.50902 9.83026 1.64598 9.99968C1.51199 10.1651 1.38271 10.3342 1.25829 10.507C0.679332 11.3125 0.277832 12.1097 0.0997295 12.873C-0.0783729 13.6363 -0.0261482 14.3811 0.333136 15.0033C0.69242 15.6257 1.31133 16.0434 2.06138 16.2707C2.81147 16.4981 3.70267 16.549 4.68971 16.4504C4.89664 16.4297 5.10802 16.4021 5.32308 16.3682C5.39941 16.5673 5.48137 16.7641 5.56885 16.9585C5.97702 17.8627 6.46663 18.609 7.03862 19.1449C7.61061 19.6807 8.28179 20.008 9.00031 20.008C9.71879 20.008 10.39 19.6807 10.962 19.1449C11.5339 18.6089 12.0236 17.8627 12.4317 16.9585C12.5192 16.7642 12.6012 16.5673 12.6775 16.3683C12.8923 16.4021 13.1035 16.4298 13.3103 16.4504C14.2974 16.549 15.1886 16.4981 15.9386 16.2707C16.6887 16.0433 17.3076 15.6256 17.6669 15.0033C18.0262 14.381 18.0784 13.6363 17.9003 12.873C17.7222 12.1097 17.3207 11.3125 16.7418 10.507C16.6173 10.3343 16.488 10.1651 16.354 9.99968C16.4882 9.83413 16.6177 9.6648 16.7422 9.49189C17.3212 8.68632 17.7227 7.8891 17.9008 7.12583C18.0789 6.36252 18.0266 5.61769 17.6674 4.99536C17.3081 4.37316 16.6892 3.95545 15.9391 3.72803C15.3766 3.5575 14.7347 3.48628 14.0324 3.50292C13.7983 3.50839 13.5574 3.52366 13.3107 3.54826C13.1037 3.56896 12.8921 3.59672 12.6769 3.63059C12.6007 3.43192 12.5189 3.23544 12.4316 3.04137C12.0234 2.13717 11.5338 1.3908 10.9618 0.854953C10.3898 0.319106 9.71879 -0.00801381 9.00031 -0.00801381ZM9.00031 0.791265C9.47957 0.791265 9.94951 1.00183 10.4155 1.4384C10.8814 1.87489 11.3264 2.53563 11.7032 3.37028C11.7645 3.50646 11.8228 3.64398 11.878 3.78273C10.9619 3.98641 9.99172 4.29891 9.00006 4.71644C8.0086 4.29899 7.03853 3.98658 6.12266 3.7829C6.1792 3.64133 6.23729 3.50335 6.29742 3.37024C6.67425 2.53555 7.11924 1.87481 7.5852 1.43823C8.05116 1.00175 8.52097 0.791265 9.00031 0.791265ZM3.71413 4.301C3.79129 4.30023 3.86969 4.30074 3.94929 4.30254C4.16144 4.30725 4.38201 4.32093 4.60982 4.34373C4.7555 4.35827 4.90439 4.37688 5.05567 4.39882C4.77397 5.29391 4.55952 6.29028 4.42513 7.35778C3.56763 8.00792 2.81185 8.69201 2.17746 9.38359C2.08462 9.26616 1.99439 9.14668 1.90684 9.02525C1.37241 8.28161 1.02275 7.56587 0.877623 6.94405C0.73254 6.32223 0.785235 5.81004 1.02484 5.39498C1.26445 4.97992 1.68182 4.67825 2.29277 4.493C2.69376 4.3714 3.17392 4.30592 3.71413 4.301ZM14.286 4.301C14.8262 4.30592 15.3063 4.37145 15.7073 4.49305C16.3183 4.67825 16.7355 4.97992 16.9752 5.39498C17.2148 5.81004 17.2675 6.32227 17.1224 6.94405C16.9774 7.56582 16.6276 8.28161 16.0932 9.02525C16.0057 9.14669 15.9155 9.2662 15.8227 9.38367C15.1884 8.69218 14.4328 8.00826 13.5756 7.35821C13.4413 6.29054 13.2266 5.29404 12.9449 4.39882C13.096 4.37688 13.2447 4.35819 13.3903 4.34373C13.6098 4.32148 13.8302 4.30773 14.0508 4.3025C14.1292 4.30072 14.2076 4.30027 14.286 4.301ZM12.1508 4.54224C12.3634 5.20255 12.5394 5.93113 12.6707 6.71077C12.2464 6.42412 11.812 6.15257 11.3685 5.89661C10.9253 5.64059 10.4732 5.40031 10.0131 5.1762C10.7539 4.90011 11.4727 4.68822 12.1508 4.54224ZM5.84977 4.54236C6.52771 4.68839 7.24649 4.90019 7.98709 5.17624C7.52694 5.40035 7.07485 5.64062 6.63164 5.89661C6.18831 6.15246 5.75413 6.42386 5.32992 6.7103C5.46123 5.93087 5.6372 5.20251 5.84977 4.54236ZM9.00006 5.58856C9.65049 5.87548 10.3107 6.20893 10.9688 6.58891C11.6272 6.96907 12.2464 7.37421 12.8202 7.79423C12.897 8.50112 12.9384 9.23983 12.9384 9.99998C12.9384 10.7597 12.8972 11.4981 12.8204 12.2047C12.2466 12.6246 11.6275 13.0297 10.9693 13.4098C10.3111 13.7898 9.65066 14.1234 9.0001 14.4103C8.34945 14.1234 7.68905 13.7898 7.03079 13.4098C6.37275 13.0298 5.75388 12.6249 5.18031 12.2051C5.10353 11.4984 5.06226 10.7599 5.06226 9.99993C5.06226 9.23966 5.10353 8.50086 5.18039 7.79389C5.75409 7.37399 6.37309 6.9689 7.03126 6.58891C7.68944 6.20897 8.34967 5.87539 9.00006 5.58856ZM9.05412 6.79114L6.76574 8.20334L9.05412 9.61567L11.3425 8.20334L9.05412 6.79114ZM4.3167 8.46498C4.28074 8.97581 4.26281 9.48775 4.26294 9.99985C4.26294 10.5216 4.28133 11.0337 4.31674 11.5338C3.70724 11.0304 3.16434 10.5137 2.69881 9.99946C3.16434 9.48526 3.7072 8.96849 4.3167 8.46498ZM13.684 8.4654C14.2932 8.96883 14.8359 9.48539 15.3013 9.99951C14.8359 10.5136 14.2932 11.0302 13.684 11.5335C13.7199 11.0231 13.7378 10.5116 13.7377 9.99989C13.7377 9.4779 13.7193 8.96566 13.684 8.4654ZM6.2502 8.82443V11.6131L8.65356 13.0963V10.3078L6.2502 8.82443ZM11.8558 8.82589L9.45301 10.3088V13.096L11.8559 11.6131L11.8558 8.82589ZM2.17738 10.6155C2.81185 11.3071 3.56755 11.991 4.42496 12.6411C4.55926 13.7085 4.7738 14.7048 5.05541 15.5999C4.90443 15.6217 4.75575 15.6404 4.61033 15.6549C3.69912 15.7459 2.90428 15.6909 2.29329 15.5057C1.68225 15.3205 1.26505 15.0187 1.0254 14.6036C0.785791 14.1885 0.733054 13.6763 0.878136 13.0545C1.02322 12.4328 1.37292 11.717 1.90736 10.9733C1.99472 10.8521 2.08472 10.7327 2.17738 10.6155ZM15.8226 10.6156C15.917 10.7354 16.0074 10.8547 16.0927 10.9733C16.6271 11.7169 16.9768 12.4327 17.1218 13.0545C17.2669 13.6763 17.2143 14.1885 16.9747 14.6036C16.735 15.0186 16.3177 15.3204 15.7067 15.5056C15.0957 15.6908 14.301 15.7459 13.3898 15.6549C13.2412 15.6398 13.093 15.6215 12.9452 15.5999C13.2269 14.7046 13.4414 13.7081 13.5757 12.6405C14.4328 11.9906 15.1884 11.3069 15.8226 10.6156ZM12.6709 13.2881C12.5396 14.0677 12.3636 14.7962 12.1511 15.4565C11.473 15.3105 10.754 15.0986 10.0132 14.8226C10.4734 14.5983 10.9257 14.358 11.369 14.1019C11.8124 13.846 12.2466 13.5746 12.6709 13.2881ZM5.32975 13.2885C5.75381 13.5749 6.18785 13.8462 6.63105 14.1019C7.07441 14.358 7.52664 14.5983 7.98692 14.8226C7.24628 15.0986 6.52754 15.3105 5.84947 15.4564C5.6369 14.7963 5.46106 14.0679 5.32975 13.2885ZM9.02396 13.3249L9.05305 13.3429L9.08201 13.3249H9.02396ZM9.00001 15.2824C9.99189 15.6999 10.9621 16.0123 11.8783 16.216C11.823 16.3551 11.7646 16.493 11.7032 16.6296C11.3264 17.4642 10.8814 18.1249 10.4154 18.5615C9.94951 18.998 9.47957 19.2086 9.00031 19.2086C8.52101 19.2086 8.05107 18.998 7.58516 18.5615C7.11925 18.1249 6.67425 17.4642 6.29742 16.6295C6.23602 16.493 6.17762 16.3551 6.12227 16.2159C7.03828 16.0123 8.00835 15.6998 9.00001 15.2824Z" fill="#FF6600"/>
</svg>
