<svg width="24" height="24" viewBox="0 0 24 24" fill="none" xmlns="http://www.w3.org/2000/svg">
<path d="M7.36527 9.12376L7.24902 9.09751L7.57527 7.63501L10.8865 11.5875L16.0165 11.1L13.2828 15.4688L15.3303 20.1975L14.2953 19.9388L14.3253 19.8113L12.3565 15.3113L14.4678 12.0413L10.2828 12.4275L7.36527 9.12376Z" fill="white"/>
<path d="M14.4679 12.0412L12.3566 15.3112L14.3254 19.8112L14.2954 19.9387L10.3316 18.9487L6.46535 22.3574L6.1091 17.2162L1.67285 14.5949L6.4541 12.6674L7.2491 9.09741L7.36535 9.12366L10.2829 12.4274L14.4679 12.0412Z" fill="white"/>
<path d="M20.9102 15.8625C21.8671 15.8625 22.6427 14.9979 22.6427 13.9313C22.6427 12.8647 21.8671 12 20.9102 12C19.9534 12 19.1777 12.8647 19.1777 13.9313C19.1777 14.9979 19.9534 15.8625 20.9102 15.8625Z" fill="white"/>
<path d="M19.7509 4.42133L17.8871 6.00008L18.1309 8.43383L16.0534 7.14758L13.8146 8.13383L14.3959 5.76008L12.7646 3.93758L15.2021 3.75383L16.4321 1.64258L17.3621 3.90383L19.7509 4.42133Z" fill="white"/>
<path d="M4.41777 5.50878C3.96095 5.53462 3.53303 5.74063 3.22792 6.0816C2.9228 6.42257 2.76541 6.87065 2.79027 7.32753C2.81419 6.86965 2.65546 6.42098 2.34893 6.08C2.0424 5.73902 1.61311 5.53358 1.15527 5.50878C1.61306 5.48284 2.04187 5.27641 2.34766 4.93476C2.65346 4.59311 2.81129 4.14413 2.78652 3.68628C2.76236 4.14398 2.9204 4.59262 3.22607 4.93414C3.53175 5.27566 3.96021 5.48226 4.41777 5.50878Z" fill="white"/>
<path d="M15.9824 10.725L11.047 11.1937L7.86327 7.39495C7.81831 7.34137 7.75926 7.30144 7.69279 7.27965C7.62632 7.25787 7.55509 7.25512 7.48714 7.2717C7.41918 7.28827 7.35722 7.32353 7.30825 7.37347C7.25928 7.42342 7.22526 7.48606 7.21002 7.55433L6.1304 12.3918L1.53215 14.2466C1.46728 14.2727 1.41103 14.3165 1.36975 14.373C1.32847 14.4295 1.3038 14.4964 1.29854 14.5661C1.29327 14.6358 1.30762 14.7057 1.33995 14.7677C1.37229 14.8297 1.42133 14.8815 1.48152 14.9171L5.74977 17.4375L6.09177 22.3833C6.09661 22.4531 6.12088 22.5202 6.16183 22.5769C6.20279 22.6336 6.25879 22.6778 6.32352 22.7043C6.38824 22.7309 6.45909 22.7388 6.52808 22.7272C6.59706 22.7156 6.66143 22.685 6.7139 22.6387L10.4316 19.3586L15.2414 20.5616C15.3093 20.5786 15.3806 20.5762 15.4472 20.5548C15.5138 20.5333 15.5731 20.4937 15.6184 20.4403C15.6636 20.3869 15.6931 20.322 15.7033 20.2527C15.7136 20.1835 15.7042 20.1128 15.6764 20.0486L13.7058 15.5009L16.336 11.301C16.3733 11.2416 16.3931 11.173 16.3934 11.103C16.3937 11.0329 16.3743 10.9642 16.3375 10.9046C16.3007 10.8449 16.2479 10.7968 16.1851 10.7657C16.1224 10.7345 16.0521 10.7216 15.9824 10.7283V10.725ZM12.9651 15.2703C12.9329 15.3219 12.9136 15.3805 12.9091 15.4411C12.9045 15.5017 12.9147 15.5625 12.9389 15.6183L14.686 19.65L10.4223 18.585C10.3635 18.5705 10.3022 18.5704 10.2434 18.5848C10.1846 18.5991 10.1302 18.6275 10.0848 18.6674L6.78777 21.5752L6.4844 17.1907C6.4802 17.13 6.46132 17.0713 6.42937 17.0196C6.39743 16.9678 6.35338 16.9246 6.30102 16.8937L2.51727 14.658L6.59352 13.0147C6.64978 12.9919 6.69965 12.9557 6.73884 12.9093C6.77803 12.8629 6.80538 12.8077 6.81852 12.7485L7.77552 8.4592L10.5981 11.8278C10.637 11.8747 10.6868 11.9113 10.743 11.9344C10.7993 11.9576 10.8605 11.9666 10.921 11.9606L15.2961 11.5451L12.9651 15.2703ZM19.993 4.70583C20.0464 4.66059 20.086 4.60133 20.1075 4.53474C20.1289 4.46815 20.1313 4.39688 20.1144 4.329C20.0975 4.26112 20.0619 4.19933 20.0117 4.15061C19.9615 4.1019 19.8986 4.0682 19.8303 4.05333L17.6339 3.57745L16.7811 1.49995C16.7546 1.43523 16.7104 1.37923 16.6537 1.33828C16.597 1.29733 16.53 1.27307 16.4602 1.26823C16.3904 1.26339 16.3206 1.27818 16.2588 1.31091C16.197 1.34364 16.1455 1.39301 16.1103 1.45345L14.9789 3.3937L12.7386 3.56245C12.6689 3.56771 12.602 3.59237 12.5455 3.63365C12.489 3.67494 12.4452 3.7312 12.4191 3.79608C12.3929 3.86095 12.3854 3.93186 12.3974 4.00078C12.4094 4.06969 12.4404 4.13388 12.487 4.18608L13.984 5.86195L13.4523 8.0452C13.4358 8.11318 13.4386 8.18441 13.4605 8.25086C13.4823 8.31731 13.5223 8.37631 13.576 8.42121C13.6296 8.46611 13.6947 8.49512 13.764 8.50494C13.8333 8.51477 13.9039 8.50503 13.9679 8.47683L16.0236 7.5712L17.9361 8.7517C17.9957 8.78855 18.0644 8.80799 18.1344 8.80781C18.2045 8.80763 18.2731 8.78784 18.3324 8.75068C18.3918 8.71352 18.4396 8.66048 18.4703 8.59757C18.5011 8.53465 18.5136 8.46438 18.5065 8.3947L18.2815 6.15933L19.993 4.70583ZM17.6448 5.71495C17.5984 5.75424 17.5622 5.80423 17.5394 5.86061C17.5166 5.91699 17.5078 5.97806 17.5139 6.03858L17.6834 7.71445L16.2501 6.82945C16.1984 6.79749 16.1396 6.77861 16.0789 6.77443C16.0182 6.77025 15.9574 6.78089 15.9018 6.80545L14.3628 7.4842L14.7591 5.84995C14.7734 5.79106 14.7732 5.7296 14.7585 5.67082C14.7438 5.61205 14.7151 5.55771 14.6748 5.51245L13.5528 4.2562L15.232 4.12495C15.2926 4.12042 15.3512 4.10122 15.4028 4.06902C15.4543 4.03681 15.4973 3.99256 15.5279 3.94008L16.3758 2.4862L17.0133 4.04433C17.0362 4.10072 17.0726 4.15067 17.1192 4.18987C17.1657 4.22908 17.2212 4.25634 17.2806 4.26933L18.9269 4.62595L17.6448 5.71495ZM22.6424 13.5562C22.2567 13.5279 21.8976 13.3486 21.6433 13.0573C21.3889 12.7659 21.2597 12.386 21.2838 12C21.2838 11.9005 21.2443 11.8051 21.1739 11.7348C21.1036 11.6645 21.0082 11.625 20.9088 11.625C20.8093 11.625 20.7139 11.6645 20.6436 11.7348C20.5733 11.8051 20.5338 11.9005 20.5338 12C20.558 12.3855 20.4293 12.7652 20.1756 13.0565C19.9218 13.3478 19.5634 13.5274 19.1781 13.5562C19.0787 13.5562 18.9833 13.5957 18.913 13.666C18.8427 13.7364 18.8031 13.8317 18.8031 13.9312C18.8031 14.0307 18.8427 14.126 18.913 14.1964C18.9833 14.2667 19.0787 14.3062 19.1781 14.3062C19.5638 14.3347 19.9228 14.514 20.1772 14.8053C20.4316 15.0966 20.5609 15.4764 20.5371 15.8625C20.5371 15.9619 20.5767 16.0573 20.647 16.1276C20.7173 16.1979 20.8127 16.2375 20.9121 16.2375C21.0116 16.2375 21.107 16.1979 21.1773 16.1276C21.2476 16.0573 21.2871 15.9619 21.2871 15.8625C21.2628 15.4769 21.3914 15.0972 21.6451 14.8058C21.8988 14.5144 22.2571 14.3348 22.6424 14.3058C22.7419 14.3058 22.8372 14.2663 22.9076 14.196C22.9779 14.1257 23.0174 14.0303 23.0174 13.9308C23.0174 13.8314 22.9779 13.736 22.9076 13.6657C22.8372 13.5953 22.7419 13.5558 22.6424 13.5558V13.5562ZM20.9118 14.55C20.759 14.3078 20.561 14.0973 20.3286 13.9301C20.5598 13.7627 20.7569 13.5527 20.9091 13.3113C21.0617 13.5535 21.2596 13.764 21.4919 13.9312C21.2606 14.0984 21.0637 14.3084 20.9118 14.55ZM2.41415 7.3267C2.41415 7.42616 2.45366 7.52154 2.52398 7.59187C2.59431 7.66219 2.68969 7.7017 2.78915 7.7017C2.8886 7.7017 2.98399 7.66219 3.05431 7.59187C3.12464 7.52154 3.16415 7.42616 3.16415 7.3267C3.1412 6.96928 3.26005 6.61721 3.49492 6.34681C3.7298 6.07642 4.06178 5.90949 4.4189 5.8822C4.51835 5.8822 4.61374 5.84269 4.68406 5.77237C4.75439 5.70204 4.7939 5.60666 4.7939 5.5072C4.7939 5.40774 4.75439 5.31236 4.68406 5.24204C4.61374 5.17171 4.51835 5.1322 4.4189 5.1322C4.06128 5.10547 3.72863 4.93882 3.4931 4.6684C3.25757 4.39798 3.13816 4.0456 3.16077 3.6877C3.16077 3.58824 3.12126 3.49286 3.05094 3.42254C2.98061 3.35221 2.88523 3.3127 2.78577 3.3127C2.68632 3.3127 2.59093 3.35221 2.52061 3.42254C2.45028 3.49286 2.41077 3.58824 2.41077 3.6877C2.43361 4.04522 2.31463 4.39734 2.07961 4.66774C1.8446 4.93813 1.51249 5.10501 1.15527 5.1322C1.05582 5.1322 0.960435 5.17171 0.890108 5.24204C0.819782 5.31236 0.780273 5.40774 0.780273 5.5072C0.780273 5.60666 0.819782 5.70204 0.890108 5.77237C0.960435 5.84269 1.05582 5.8822 1.15527 5.8822C1.51298 5.90884 1.84577 6.07543 2.08144 6.34585C2.31711 6.61627 2.43666 6.96871 2.41415 7.3267ZM2.78615 4.9642C2.92397 5.17446 3.09805 5.35857 3.30027 5.50795C3.09971 5.65734 2.92717 5.84105 2.79065 6.05058C2.65329 5.84032 2.47972 5.65609 2.27802 5.50645C2.47803 5.35691 2.65005 5.17358 2.78615 4.9642Z" fill="white"/>
</svg>
