<svg width="200" height="149" viewBox="0 0 200 149" fill="none" xmlns="http://www.w3.org/2000/svg">
<g clip-path="url(#clip0_1_27242)">
<path d="M184.253 36.1126C161.553 4.52516 113.602 -8.28809 66.4425 5.51209C41.5109 12.8078 17.4723 27.4259 5.55929 55.7313C-15.7364 106.33 28.9766 122.49 58.2141 127.641C72.3518 130.131 85.667 134.314 97.8347 140.01C119.725 150.257 158.473 159.337 187.692 116.653C208.869 85.7159 199.373 57.153 184.253 36.1126Z" fill="white"/>
<path d="M52.6488 42.3622C52.5853 41.8602 52.4569 41.3685 52.2667 40.8996C52.2425 40.8109 52.2001 40.7282 52.1421 40.6569C52.0842 40.5855 52.012 40.527 51.9302 40.485C51.8208 40.4566 51.7062 40.4553 51.5962 40.4813L49.8816 40.7437C49.738 40.7502 49.6006 40.8036 49.4903 40.8957C49.267 41.1305 49.4869 41.5087 49.4801 41.8327C49.4724 42.1971 49.1487 42.4928 48.7976 42.5907C48.4393 42.6631 48.0696 42.6585 47.7132 42.5772L45.3156 42.2046C46.0217 41.9792 46.6502 41.5598 47.1294 40.9943C47.4449 40.6205 47.6128 39.9227 47.1568 39.7457C47.0213 39.7085 46.88 39.6972 46.7404 39.7122C45.6541 39.7207 44.7993 38.8137 43.7824 38.4317C43.1315 38.2031 42.425 38.186 41.7639 38.3831C41.1028 38.5802 40.5209 38.9813 40.1015 39.529L41.3787 39.5906C41.4989 39.584 41.618 39.6158 41.7189 39.6813C41.9988 39.9113 41.6508 40.353 41.6903 40.7132C41.7415 41.181 42.3627 41.2809 42.831 41.3282C43.2993 41.3755 43.8934 41.756 43.6681 42.1693C41.3145 42.98 38.9194 40.5845 36.4475 40.8794C35.8219 40.954 35.2312 41.1998 34.6204 41.3543C30.8892 42.2984 27.0318 39.7796 23.2201 40.313C22.3728 40.4575 21.54 40.6771 20.7316 40.9693C20.2128 41.1397 19.6717 41.3238 19.2948 41.7188C18.9178 42.1138 18.7744 42.7894 19.1315 43.2025C18.1472 43.2835 17.1564 43.1893 16.2051 42.9243C16.4624 43.0673 16.6764 43.2769 16.8247 43.5312C16.973 43.7854 17.0501 44.0749 17.048 44.3692C15.5112 44.6198 14.0152 45.076 12.6001 45.7254C12.8642 46.1646 13.1727 46.5756 13.5207 46.9518L11.5752 48.2017C12.2325 48.3673 12.5723 49.2635 12.1901 49.8233C12.8716 49.5201 13.294 48.7358 14.0227 48.5767C14.5002 48.4726 14.986 48.6679 15.4389 48.8514C15.8919 49.0348 16.3897 49.2127 16.8585 49.075C17.3274 48.9373 17.6733 48.3294 17.3753 47.942C19.3794 47.3573 21.4506 47.0337 23.5376 46.9793C23.6986 46.959 23.8619 46.99 24.0043 47.0678C24.2759 47.2563 24.2045 47.6634 24.1898 47.9937C24.1752 48.3241 24.4326 48.7582 24.7279 48.6093C24.3805 48.9105 24.6775 49.4775 25.0107 49.7942C25.3439 50.1109 25.7456 50.548 25.5416 50.96C25.4883 51.0675 25.398 51.1535 25.3468 51.262C25.1956 51.5823 25.4357 51.9557 25.7189 52.1684C26.0021 52.381 26.349 52.5297 26.5457 52.8242C26.7424 53.1187 26.6531 53.6342 26.3013 53.6754L25.3014 52.4058C24.9598 52.7601 24.7256 53.2039 24.626 53.6858C25.6863 54.5526 25.8458 56.3168 24.9581 57.3597C24.5045 57.8926 23.8594 58.2164 23.2964 58.6321C22.7333 59.0478 22.2124 59.6397 22.2138 60.3396C22.2162 61.5487 22.1174 62.672 22.5705 63.793C23.406 65.8599 24.3706 67.8724 25.4586 69.8183C25.7443 70.3293 26.1135 70.8894 26.6923 70.9774C25.9608 69.1966 25.3024 67.3882 24.7169 65.552C25.0982 65.5535 25.5389 65.5838 25.7624 65.8927C25.9475 66.1486 25.9078 66.4964 25.9653 66.8069C26.0384 67.1077 26.1604 67.3945 26.3264 67.6558L29.8194 73.8779C30.109 74.3937 30.4411 74.9474 30.9945 75.1563C31.3484 75.2898 31.7577 75.2646 32.0834 75.4569C32.3387 75.6076 32.5106 75.8752 32.7708 76.0171C33.5067 76.4185 34.5299 75.6487 35.2175 76.1279C35.4142 76.265 35.5392 76.4827 35.7204 76.6396C36.3555 77.1896 37.3973 76.8216 38.1305 77.2319C38.603 77.4963 38.8479 78.0252 39.0999 78.5044C39.7312 79.7048 40.7527 80.8809 42.1056 80.9764C42.5306 81.0065 42.9647 80.9259 43.3801 81.0204C43.7955 81.1149 44.2044 81.4775 44.1377 81.8983C44.0234 82.6197 44.3799 83.4096 44.2841 84.1337C44.1098 85.4526 42.2389 86.0323 42.0782 87.353C42.043 87.6421 42.0981 87.9406 42.0292 88.2236C41.9448 88.5705 41.6843 88.853 41.5917 89.1978C41.4163 89.8512 41.8845 90.5016 42.3988 90.9412C42.9131 91.3808 43.5265 91.7599 43.8077 92.3752C44.1049 93.0257 43.9589 93.7841 44.0556 94.4927C44.2666 96.0396 45.6026 97.1863 46.9777 97.9257C47.3966 98.151 47.8464 98.3691 48.1176 98.7599C48.4715 99.27 48.4362 99.9425 48.5544 100.552C48.8438 102.045 50.1004 103.275 50.1361 104.795C50.1615 105.875 49.5609 106.855 49.2021 107.875C48.8658 108.851 48.7441 109.889 48.8453 110.917C48.9465 111.945 49.2683 112.939 49.7887 113.832C50.0571 114.285 50.378 114.712 50.5679 115.203C50.9067 116.08 50.7967 117.077 51.1091 117.963C51.5221 119.135 52.6569 120.103 52.5483 121.341C53.0635 122.411 54.2011 122.936 55.3451 123.255L57.3953 123.826C57.7879 123.935 58.1981 124.045 58.5978 123.966C58.9976 123.887 59.3791 123.555 59.3687 123.147C58.3633 122.921 57.3257 122.68 56.4969 122.067C55.6681 121.454 55.1004 120.363 55.4148 119.382C55.5606 118.927 55.8708 118.401 55.5759 118.025C55.4071 117.81 55.0983 117.753 54.9078 117.557C54.6107 117.251 54.7128 116.736 54.9264 116.366C55.14 115.997 55.4487 115.667 55.5348 115.249C55.5783 115.015 55.5492 114.773 55.4515 114.556C55.3538 114.339 55.1921 114.158 54.9882 114.035C55.3683 113.892 55.7141 113.67 56.003 113.384C56.2698 113.079 56.3931 112.61 56.1832 112.263C56.8066 112.342 57.5426 112.381 57.9518 111.904C58.2786 111.523 58.2561 110.954 58.127 110.469C57.9979 109.984 57.7796 109.513 57.7729 109.011C59.2109 109.079 60.6522 109.031 62.0824 108.865C61.8756 108.169 61.4056 107.58 60.7721 107.224C61.4198 107.115 62.0099 106.339 62.2146 105.715C62.4192 105.091 62.367 104.411 62.2405 103.766C62.192 103.6 62.1853 103.425 62.2212 103.256C62.2941 103.023 62.5225 102.881 62.7337 102.76L65.9488 100.913C66.1406 100.817 66.3146 100.689 66.4629 100.534C66.7998 100.138 66.7499 99.541 66.5774 99.0508C66.4049 98.5607 66.1286 98.0998 66.0622 97.5844C65.8635 96.0431 67.5134 94.9372 68.0703 93.4863C68.2888 92.9169 68.3333 92.298 68.3756 91.6896C68.421 91.0362 68.4244 90.2771 67.9227 89.856C67.4417 89.4524 66.6902 89.5424 66.1869 89.167C65.7255 88.8227 65.5663 88.1542 65.0623 87.8761C64.6045 87.6236 64.0306 87.7842 63.5214 87.6655C62.625 87.4564 62.0609 86.4232 61.1454 86.3276C60.6289 86.2736 60.0443 86.5261 59.6209 86.2253C59.2479 85.9602 59.2329 85.4274 59.1619 84.9753C59.0375 84.2727 58.7007 83.6252 58.197 83.1198C57.6932 82.6144 57.0467 82.2756 56.3445 82.1489C55.812 82.0635 55.2323 82.0959 54.7792 81.8032C54.3204 81.5069 54.1101 80.952 53.7497 80.5416C53.1689 79.8801 52.2541 79.6451 51.3972 79.4437L47.9117 78.6243C47.2929 78.4788 46.4954 78.4017 46.1633 78.9437C46.065 79.1501 45.9955 79.3689 45.9565 79.5941C45.8321 80.0016 45.5817 80.3591 45.2413 80.6153C44.901 80.8715 44.4881 81.0132 44.0622 81.02C43.7701 80.5217 43.2968 80.1555 42.7412 79.9978C42.3877 79.8993 42.0094 79.8884 41.6723 79.7435C41.4888 79.6539 41.3254 79.5277 41.1923 79.3728C41.0591 79.2179 40.959 79.0374 40.898 78.8424C40.837 78.6475 40.8164 78.4421 40.8376 78.2389C40.8587 78.0357 40.9211 77.839 41.0209 77.6608C41.2218 77.303 41.2994 76.889 41.2417 76.4827C41.184 76.0764 40.9942 75.7004 40.7015 75.4128C40.1088 74.8806 39.2513 74.752 38.4565 74.8053C38.2484 74.3511 38.5964 73.8386 38.9715 73.5085C39.3466 73.1784 39.802 72.8539 39.8837 72.361C40.0122 71.5856 39.0229 70.9967 38.2717 71.2279C37.5205 71.4591 37.0411 72.1887 36.7242 72.9079C36.5424 73.3206 36.3878 73.7551 36.1009 74.1031C35.8141 74.451 35.3522 74.7001 34.9153 74.5885C34.2968 74.4304 34.0579 73.6956 33.921 73.072C33.7374 72.2354 33.5526 71.3872 33.5911 70.5315C33.6296 69.6759 33.9181 68.7973 34.549 68.218C35.5772 67.2741 37.1545 67.3667 38.5421 67.5172C38.2142 67.1479 38.2953 66.5254 38.646 66.1777C38.8312 66.0132 39.0537 65.8963 39.2942 65.8372C39.5348 65.7781 39.7861 65.7786 40.0264 65.8386C40.4445 65.9256 40.8212 66.1508 41.0958 66.478C41.4901 66.9587 41.6022 67.6078 41.9003 68.1535C42.1983 68.6992 42.8685 69.1646 43.4171 68.8719C43.8909 68.619 43.9661 67.962 43.8482 67.4381C43.7302 66.9141 43.4798 66.4046 43.5225 65.8693C43.604 64.8477 44.6629 64.2329 45.5973 63.8122C46.5318 63.3915 47.6017 62.8257 47.7498 61.8117C47.7548 61.6131 47.7923 61.4167 47.8607 61.2303C47.9643 61.0656 48.1083 60.9301 48.2791 60.8368C51.0062 59.0345 53.7787 57.2103 56.8957 56.2255C57.0579 56.1742 57.0769 56.2312 57.2422 56.191C57.4735 56.0573 57.3202 55.6875 57.0985 55.5386C56.8767 55.3896 56.5803 55.2753 56.524 55.0142C56.4827 54.8222 56.5958 54.6337 56.6252 54.4395C56.6974 53.9624 56.1266 53.5219 55.6833 53.7126C55.4329 53.381 55.9284 52.9957 56.329 52.8854C57.5319 52.5544 58.7668 52.3527 60.0125 52.2837C60.1563 52.2608 60.3036 52.2859 60.4317 52.355C60.6409 52.4999 60.6142 52.8324 60.4659 53.0392C60.3176 53.2461 60.0869 53.376 59.9021 53.5511C59.7003 53.7477 59.5563 53.9961 59.4859 54.269C59.4155 54.5419 59.4214 54.8289 59.503 55.0987C60.1534 55.4295 60.8604 55.7701 61.5807 55.6535C62.301 55.537 62.9403 54.7277 62.6017 54.0813C62.2864 53.4794 61.3394 53.3437 61.1765 52.684C60.9859 51.9117 62.0792 51.2247 61.8329 50.4683C61.725 50.1369 61.3948 49.9419 61.1414 49.7027C60.8422 49.4094 60.6386 49.0324 60.5575 48.6213C60.4763 48.2102 60.5214 47.7842 60.6868 47.3992C60.2741 47.4718 59.85 47.4444 59.45 47.3192C59.0501 47.1941 58.686 46.9748 58.3882 46.6799C57.8384 46.125 57.3998 45.2497 56.6191 45.2746C55.9027 45.2973 55.2856 46.1332 54.6156 45.8782C54.4508 45.8155 54.2771 45.6878 54.1174 45.7626C54.0651 45.7966 54.0211 45.842 53.9889 45.8954C53.9567 45.9489 53.9371 46.009 53.9315 46.0711C53.7613 46.885 54.0541 47.8124 53.6105 48.5157C53.1278 49.2811 52.0112 49.3872 51.426 50.0774C51.1083 50.452 50.9852 50.9569 50.6932 51.3519C50.4012 51.7468 49.7815 51.998 49.4311 51.6538C49.6033 51.2997 49.6503 50.8977 49.5645 50.5135C49.4786 50.1292 49.265 49.7854 48.9584 49.5383C48.6331 49.3261 48.2824 49.1555 47.9146 49.0306C47.5035 48.8566 47.1125 48.6387 46.7484 48.3806C46.5659 48.2706 46.4177 48.112 46.3202 47.9225C46.2431 47.6853 46.2535 47.4284 46.3495 47.1981C46.5272 46.6887 46.8407 46.2374 47.2561 45.8931C47.6715 45.5488 48.1731 45.3245 48.7067 45.2444C49.1732 45.181 49.7163 45.2033 50.025 44.8478C50.1884 44.6597 50.2741 44.3753 50.5113 44.2989C50.663 44.2685 50.8205 44.2879 50.9602 44.3542L52.7017 44.9672C52.896 45.0549 53.1099 45.0903 53.3221 45.0698C53.4273 45.0556 53.5233 45.0022 53.5908 44.9202C53.6582 44.8382 53.6922 44.7338 53.6858 44.6278C53.6302 44.3386 53.1852 44.1998 53.2257 43.9081C53.2483 43.8136 53.2992 43.7281 53.3714 43.6631C53.9999 42.9941 54.7685 42.4724 55.6222 42.1353C56.4759 41.7982 57.3936 41.654 58.3096 41.713C58.5294 42.074 58.1817 42.5015 57.8925 42.8097C57.6032 43.1179 57.3708 43.6685 57.7206 43.9058C57.8639 43.9789 58.0234 44.0148 58.1843 44.0102C58.613 44.0682 59.0297 44.1946 59.4185 44.3845C60.0203 44.6464 60.6105 44.933 61.1892 45.2442C61.1381 44.8626 61.0893 44.4606 61.2339 44.1039C61.3785 43.7471 61.7896 43.4673 62.1486 43.6062C62.4946 43.7401 62.672 44.1983 63.0406 44.2402C63.5324 44.2962 63.7264 43.5698 63.521 43.1195C63.3156 42.6693 62.909 42.2922 62.875 41.7985C62.8521 41.4654 62.9789 41.0523 62.7128 40.8506C62.6181 40.7901 62.5107 40.7524 62.3989 40.7405L55.7554 39.518C55.3609 39.4454 54.7909 39.5011 54.7734 39.9018C54.7636 40.1255 54.9635 40.3468 54.875 40.5525C54.7805 40.772 54.4702 40.7519 54.2442 40.8295C53.8935 40.95 53.7175 41.3664 53.7512 41.7357C53.8129 42.1026 53.955 42.4513 54.1673 42.7568C53.7352 42.5761 53.0809 42.5429 52.6488 42.3622Z" fill="#3F3D56"/>
<path d="M47.3472 36.7225C46.9283 36.5838 46.4768 36.5774 46.0541 36.704C45.6314 36.8306 45.2578 37.0841 44.984 37.4302C44.8746 37.5742 44.7828 37.7728 44.8744 37.9287C45.0056 38.1523 45.3402 38.064 45.5868 37.984C45.9494 37.8545 46.3439 37.8451 46.7122 37.9572C46.9438 38.0367 47.151 38.1772 47.3836 38.2537C47.4969 38.3011 47.6209 38.3167 47.7423 38.299C47.8638 38.2812 47.9781 38.2308 48.073 38.153C48.2327 37.9902 48.2427 37.737 48.243 37.509C48.254 37.4327 48.2479 37.3549 48.2251 37.2813C48.2023 37.2076 48.1633 37.14 48.111 37.0834C48.0179 37.0294 47.9133 36.9985 47.8058 36.9931C47.5651 36.9485 47.3475 36.8214 47.1905 36.6336" fill="#3F3D56"/>
<path d="M49.743 36.0555C49.6493 36.0504 49.5558 36.0695 49.4716 36.111C49.3873 36.1524 49.3152 36.2149 49.262 36.2923C49.2089 36.3697 49.1766 36.4595 49.1682 36.553C49.1598 36.6465 49.1756 36.7406 49.2141 36.8263C49.502 36.9048 49.8028 36.9244 50.0985 36.8839C50.246 36.861 50.3834 36.795 50.4934 36.6941C50.6034 36.5933 50.6811 36.4621 50.7167 36.3172C50.3685 36.3805 50.0093 36.3119 49.709 36.1247" fill="#3F3D56"/>
<path d="M57.7806 34.9418C56.9969 35.1084 56.2357 35.367 55.5127 35.7122C55.8535 35.8432 56.1433 36.0802 56.3392 36.3884C56.5351 36.6965 56.6269 37.0594 56.601 37.4236C56.5704 37.5635 56.5739 37.7086 56.6113 37.8468C56.6946 38.0487 56.936 38.1245 57.1481 38.1763C57.5294 38.2923 57.9275 38.3431 58.3256 38.3266C58.5248 38.3162 58.7182 38.2562 58.8884 38.1522C59.0585 38.0483 59.2001 37.9035 59.3002 37.731C59.3579 37.5673 59.4256 37.4073 59.5029 37.2519C60.0115 36.4773 61.5225 37.4139 62.0686 36.6652C62.2609 36.4015 62.2433 36.0045 62.4941 35.7955C62.6238 35.7045 62.7741 35.6471 62.9315 35.6286C64.0297 35.4104 65.139 35.2524 66.2544 35.1553C66.7829 35.1093 67.4718 34.9196 67.4762 34.3891C65.4855 33.9981 63.4214 34.2758 61.6048 35.179C60.9503 35.5068 60.0847 36.1963 59.4543 35.7617C59.2182 35.599 59.2299 35.1608 58.905 34.9779C58.5729 34.7908 58.1332 34.8669 57.7806 34.9418Z" fill="#3F3D56"/>
<path d="M64.29 36.1591L65.2244 36.3387C65.0524 36.3311 64.8808 36.3602 64.7209 36.4242C64.5611 36.4882 64.4167 36.5855 64.2975 36.7097C64.1782 36.8339 64.0868 36.9821 64.0293 37.1444C63.9719 37.3067 63.9497 37.4794 63.9643 37.6509C64.8394 37.9433 65.7934 37.6588 66.7152 37.6977C67.637 37.7365 68.7095 38.395 68.5522 39.3041C68.5046 39.579 68.3458 39.8537 68.4284 40.1201C68.4863 40.3069 68.651 40.4394 68.7439 40.6114C68.9377 40.9699 68.7828 41.4232 68.5382 41.7491C68.2936 42.0749 67.9648 42.3349 67.75 42.6811C67.216 43.5423 67.5194 44.6557 67.8375 45.6179C67.9295 45.9814 68.0994 46.3206 68.3354 46.6121C68.8067 47.1132 69.5748 47.1568 70.2627 47.1668C70.7634 47.1741 71.3369 47.1494 71.6535 46.7615C72.0669 46.255 71.7778 45.4649 72.05 44.8705C72.2971 44.3307 72.9269 44.0991 73.4974 43.9349C74.5426 43.6339 75.6078 43.3781 76.596 42.9236C77.823 42.3592 78.9698 41.4797 80.3184 41.407C80.6968 41.3866 81.0845 41.4313 81.449 41.3276C81.8134 41.224 82.1596 40.9089 82.132 40.531C82.1085 40.2081 81.8353 39.971 81.6218 39.7276C81.4084 39.4841 81.2407 39.1098 81.4369 38.8523L84.9719 38.192C84.7213 37.5091 84.5261 36.6098 85.1019 36.1653C85.3097 36.0049 85.5878 35.9408 85.7647 35.7469C86.0662 35.4164 85.9146 34.8472 85.5666 34.5662C85.2186 34.2851 84.748 34.2199 84.3022 34.1829C82.7522 34.0541 81.1933 34.1392 79.6403 34.2243C76.6045 34.3907 73.5686 34.5571 70.5328 34.7235C69.9217 34.757 69.2161 34.7059 68.6556 34.9144C68.181 35.0909 67.8437 35.4149 67.301 35.5287C66.2991 35.7389 65.1966 35.5967 64.29 36.1591Z" fill="#3F3D56"/>
<path d="M81.0308 43.5454C80.9356 43.5303 80.8382 43.5524 80.7588 43.6071C80.7063 43.6649 80.675 43.7389 80.6702 43.8168C80.6099 44.1608 80.6818 44.5149 80.8714 44.8082C80.968 44.9521 81.1014 45.0675 81.2577 45.1424C81.4139 45.2173 81.5874 45.249 81.7601 45.2342C82.1808 45.1806 82.4909 44.8216 82.8778 44.6465C83.474 44.3767 86.0059 43.9563 84.2544 43.01C83.6508 42.6839 83.2608 42.9718 82.7851 43.1865C82.2438 43.4634 81.6373 43.5875 81.0308 43.5454Z" fill="#3F3D56"/>
<path d="M96.3718 35.625C96.1673 35.7085 95.9962 35.8575 95.8852 36.0485C95.8341 36.1455 95.8222 36.2585 95.8521 36.364C95.8819 36.4695 95.9511 36.5595 96.0455 36.6154C96.1219 36.6431 96.2028 36.6559 96.2841 36.6532L97.1156 36.6781C97.4689 36.6886 97.9102 36.7639 98.0051 37.1043C98.0756 37.3571 97.9178 37.6819 98.1082 37.8626C98.1899 37.9258 98.2881 37.9642 98.3911 37.9729C98.665 38.0433 98.951 38.0525 99.2289 37.9999C99.834 37.8377 99.5161 37.4684 99.7066 37.1396C99.9982 36.6364 99.9477 36.941 100.461 36.6527C100.841 36.4397 101.331 36.0534 101.015 35.5107C100.464 34.5669 97.1844 35.2195 96.3718 35.625Z" fill="#3F3D56"/>
<path d="M112.785 35.1504L112.302 35.2149C111.213 35.3602 110.118 35.5068 109.069 35.8338C109.523 36.0133 110 36.1302 110.485 36.1812C110.752 36.1943 111.018 36.232 111.278 36.2939C111.741 36.4318 112.208 36.7879 112.656 36.6055C112.933 36.4924 113.024 36.2035 113.253 36.0504C113.412 35.9446 114.014 35.7735 114.081 35.6668C114.625 34.8041 113.203 35.0946 112.785 35.1504Z" fill="#3F3D56"/>
<path d="M114.905 37.3451C114.26 37.7057 113.661 38.144 113.123 38.65C112.896 38.8633 112.664 39.1286 112.685 39.4393C112.712 39.8522 113.152 40.0917 113.533 40.2531L115.077 40.9066C115.264 40.6427 115.093 40.2784 114.899 40.019C114.706 39.7596 114.476 39.4595 114.561 39.1474C114.659 38.7912 115.093 38.6698 115.457 38.6085C116.051 38.5085 117.651 38.5165 117.459 37.5603C117.232 36.4335 115.5 37.0121 114.905 37.3451Z" fill="#3F3D56"/>
<path d="M114.595 101.109C114.448 101.535 114.434 102.036 114.688 102.407C114.973 102.824 115.544 102.98 116.038 102.874C116.53 102.743 116.968 102.461 117.291 102.068C117.587 101.739 117.83 101.366 118.012 100.962C118.266 100.334 118.446 99.6778 118.546 99.0073L119.026 96.4909C119.133 95.9285 119.129 94.2043 118.095 94.7661C117.813 94.9195 117.159 96.1312 116.863 96.4748C116.33 97.0941 116.259 97.695 115.978 98.4452C115.626 99.3849 114.92 100.168 114.595 101.109Z" fill="#3F3D56"/>
<path d="M169.189 113.987C168.851 113.855 168.523 113.698 168.207 113.519C167.89 114.389 167.722 115.307 167.709 116.233L170.023 114.923C170.372 114.726 170.766 114.452 170.759 114.052C170.762 114.003 170.752 113.954 170.729 113.91C170.707 113.865 170.673 113.828 170.631 113.802C170.579 113.781 170.523 113.775 170.468 113.783C170.125 113.811 169.812 113.98 169.489 114.098C169.165 114.215 168.786 114.277 168.489 114.103" fill="#3F3D56"/>
<path d="M181.398 114.764C181.144 114.833 180.896 114.922 180.656 115.031C180.125 115.301 179.764 115.814 179.286 116.17C178.828 116.511 178.278 116.698 177.737 116.879C177.578 117.02 177.651 117.303 177.824 117.427C178.01 117.532 178.222 117.58 178.435 117.564C178.997 117.576 179.588 117.582 180.08 117.31C180.357 117.131 180.617 116.925 180.855 116.696C181.43 116.216 182.12 115.899 182.804 115.593C183.053 115.5 183.283 115.362 183.483 115.187C183.913 114.764 183.943 114.111 183.324 113.967C182.823 113.851 181.875 114.61 181.398 114.764Z" fill="#3F3D56"/>
<path d="M186.792 111.24C186.82 110.949 186.782 110.655 186.679 110.381C186.577 110.107 186.414 109.86 186.202 109.658C186.195 110.241 186.178 110.862 185.85 111.344C185.617 111.687 185.25 111.919 184.995 112.246C184.739 112.573 184.625 113.091 184.925 113.378C185.117 113.524 185.351 113.604 185.592 113.607C186.189 113.678 186.88 113.717 187.299 113.285C187.528 113.05 187.639 112.701 187.918 112.528C188.022 112.484 188.115 112.418 188.189 112.334C188.305 112.151 188.122 111.909 187.916 111.843C187.71 111.778 187.483 111.809 187.276 111.746C187.069 111.683 186.879 111.451 186.985 111.262" fill="#3F3D56"/>
<path d="M177.205 89.8787C176.891 89.9549 176.567 89.974 176.247 89.9351C175.715 89.8374 175.301 89.4367 174.872 89.108C173.851 88.331 172.611 87.8976 171.328 87.87C170.162 87.848 168.985 88.1641 167.839 87.9435C167.914 88.3599 168.27 88.6721 168.65 88.8577C169.03 89.0433 169.45 89.1367 169.832 89.3185C170.443 89.6126 170.928 90.1173 171.198 90.7402C171.321 91.0273 171.399 91.3398 171.585 91.5905C171.966 92.1029 172.688 92.2155 173.325 92.1736C174.155 92.1189 175.023 91.88 175.796 92.1895C176.387 92.4262 176.81 92.9437 177.304 93.346C177.797 93.7483 178.493 94.0469 179.059 93.7566C178.471 93.566 177.958 93.1922 177.597 92.6898C177.236 92.1874 177.044 91.5827 177.051 90.9639C177.607 91.015 179.208 90.9952 179.122 90.0506C179.049 89.2501 177.682 89.7923 177.205 89.8787Z" fill="#3F3D56"/>
<path d="M169.932 96.3917C170.031 95.8504 170.571 95.3723 170.403 94.8484C170.287 94.486 169.866 94.3071 169.486 94.2982C169.106 94.2892 168.732 94.4026 168.351 94.4132C168.104 94.4001 167.856 94.4036 167.608 94.4238C166.853 94.5479 166.388 95.3394 165.676 95.6208C165.244 95.792 164.757 95.7592 164.307 95.8775C163.286 96.1461 162.639 97.1114 161.925 97.8897C160.771 99.1416 159.268 100.018 157.611 100.406C157.03 100.541 156.405 100.627 155.944 101.004C155.332 101.503 155.182 102.36 155.046 103.137C154.67 105.285 154.096 107.394 153.33 109.435L155.756 109.745C156.217 109.804 156.695 109.862 157.139 109.725C157.462 109.603 157.768 109.44 158.049 109.24C159.13 108.57 160.339 108.133 161.598 107.959C162.233 107.872 162.899 107.856 163.496 108.092C164.092 108.328 164.603 108.864 164.653 109.503C164.911 109.423 165.186 109.414 165.448 109.478C165.71 109.542 165.95 109.675 166.142 109.865C166.522 110.252 166.771 110.749 166.854 111.285C166.917 111.616 166.981 112.014 167.289 112.153C167.541 112.267 167.829 112.145 168.104 112.123C169.036 112.048 169.81 113.135 170.727 112.948C171.71 112.747 171.951 111.275 172.91 110.98C173.461 110.811 174.234 111.017 174.497 110.504C174.73 110.053 174.266 109.532 174.314 109.026C174.373 108.403 175.107 108.139 175.673 107.873C177.626 106.957 178.552 104.33 177.606 102.392C177.045 101.244 175.943 100.34 175.739 99.0792C175.582 98.1088 175.965 96.9773 175.346 96.2135C175.031 95.8249 174.499 95.6104 174.311 95.1468C174.193 94.8549 174.241 94.5238 174.177 94.2155C174.114 93.9072 173.845 93.5848 173.541 93.6647C172.657 93.8966 172.375 96.6266 171.902 97.2899C171.182 98.2981 169.706 97.634 169.932 96.3917Z" fill="#3F3D56"/>
<path d="M153.599 90.9103C153.297 90.8256 152.967 90.7422 152.678 90.8632C152.388 90.9842 152.219 91.409 152.452 91.6198C154.269 91.549 156.097 91.4788 157.898 91.7255C159.973 92.0098 162.027 92.7139 164.112 92.5068C162.921 92.1555 161.711 91.8746 160.487 91.6656L158.446 91.2758C157.899 91.1611 157.346 91.0756 156.789 91.0197C155.625 90.9235 154.744 91.2312 153.599 90.9103Z" fill="#3F3D56"/>
<path d="M155.418 84.5824C155.267 84.5699 155.08 84.559 155.002 84.6887C154.928 84.8126 155.013 84.9763 154.973 85.1152C154.918 85.305 154.67 85.3535 154.474 85.3277C154.278 85.3018 154.066 85.24 153.892 85.3344C153.804 85.3945 153.738 85.4815 153.704 85.5824C153.67 85.6833 153.669 85.7926 153.702 85.894C153.773 86.0951 153.888 86.278 154.038 86.4295C154.295 86.7528 154.587 87.0461 154.91 87.3037C155.534 87.7646 156.38 87.9868 156.773 88.6559C156.829 88.7855 156.914 88.9003 157.022 88.9909C157.211 89.1105 157.457 89.0195 157.66 88.9266L158.373 88.601C158.501 88.5548 158.616 88.4768 158.706 88.3745C158.869 88.1536 158.769 87.8395 158.632 87.6016C158.496 87.3636 158.321 87.1173 158.35 86.8445C158.402 86.3581 159.028 86.172 159.285 85.7558C159.544 85.3363 159.375 84.7958 159.405 84.3035C159.44 83.7278 159.802 82.979 159.22 82.5489C158.725 82.1833 158.253 82.5211 157.898 82.9247C157.149 83.7757 156.795 84.6974 155.418 84.5824Z" fill="#3F3D56"/>
<path d="M159.743 75.981C159.986 76.4468 160.493 76.7248 160.759 77.1784C161.046 77.6701 161.013 78.3054 161.325 78.7819C161.645 79.2709 162.289 79.5305 162.469 80.0866C162.665 80.6938 162.22 81.4317 162.575 81.9622C162.641 82.049 162.724 82.121 162.819 82.1738C162.915 82.2266 163.02 82.259 163.129 82.269C163.237 82.279 163.347 82.2663 163.45 82.2318C163.554 82.1972 163.649 82.1416 163.73 82.0683C163.879 81.9057 163.959 81.691 163.952 81.4702C163.946 81.2495 163.853 81.0399 163.695 80.8864C163.485 80.6951 163.183 80.6124 163.008 80.3889C162.917 80.26 162.856 80.112 162.83 79.9561C162.735 79.5065 162.75 79.0405 162.875 78.5981C162.922 78.4858 162.934 78.362 162.909 78.2429C162.83 78.0136 162.52 77.9974 162.302 77.891C161.807 77.6495 161.819 76.9511 161.906 76.4073C161.848 76.7693 160.558 76.1535 160.423 75.9485C160.155 75.541 160.301 74.7551 160.248 74.3049C159.669 74.584 159.445 75.4115 159.743 75.981Z" fill="#3F3D56"/>
<path d="M146.75 83.1477C146.512 82.8812 146.153 82.6024 145.834 82.7631C145.59 82.8858 145.523 83.2226 145.619 83.478C145.735 83.726 145.914 83.9394 146.138 84.0971C146.803 84.6455 147.519 85.1406 148.1 85.7782C149.138 86.9192 149.688 88.4588 150.817 89.51C151.044 89.7537 151.345 89.9163 151.673 89.9731C152.002 90.0037 152.371 89.7931 152.409 89.4649C152.44 89.1945 152.252 88.9525 152.067 88.7521C151.629 88.275 151.149 87.8358 150.734 87.3373C150.543 87.1458 150.423 86.8948 150.394 86.6257C150.392 86.3573 150.636 86.0763 150.896 86.1428C150.58 86.062 150.346 85.535 149.881 85.4359C149.493 85.3531 149.4 85.5933 148.938 85.3953C148.057 85.0176 147.366 83.8381 146.75 83.1477Z" fill="#3F3D56"/>
<path d="M167.442 57.2007C167.189 57.1256 166.941 57.0369 166.698 56.9349C166.044 56.7386 165.179 57.2192 165.266 57.8963C165.324 58.3462 165.742 58.6495 165.974 59.0397C166.317 59.6184 166.225 60.3523 166.045 61.0004C166.001 61.2011 165.917 61.3908 165.798 61.5583C165.631 61.7351 165.432 61.8782 165.212 61.9797C164.329 62.4749 163.55 63.1364 162.919 63.9278C162.85 64.0009 162.802 64.091 162.78 64.1888C162.749 64.4174 162.979 64.5839 163.109 64.7746C163.397 65.1982 163.189 65.7681 163.217 66.2798C163.213 66.3522 163.227 66.4244 163.258 66.4898C163.29 66.5551 163.337 66.6114 163.397 66.6532C163.571 66.7415 163.777 66.5914 163.871 66.4206C164.184 65.8538 163.948 64.944 164.535 64.6707C164.646 64.619 164.781 64.5972 164.855 64.4996C164.972 64.3449 164.859 64.1158 164.918 63.9309C165.008 63.6532 165.388 63.6408 165.679 63.6531C166.181 63.6741 166.683 63.6073 167.162 63.4557C167.35 63.411 167.521 63.3121 167.653 63.1714C167.828 62.9524 167.813 62.6411 167.778 62.3627C167.602 60.9748 167.162 59.6333 166.483 58.4107C166.998 58.4766 167.559 58.5336 168.004 58.2649C168.253 58.1145 168.552 57.6645 168.428 57.3583C168.233 56.874 167.88 57.2816 167.442 57.2007Z" fill="#3F3D56"/>
<path d="M101.346 64.8341C101.407 65.165 101.468 65.5134 101.36 65.8321C101.251 66.1508 100.91 66.417 100.588 66.3194C100.338 66.2436 100.193 65.9922 100.016 65.8006C99.0287 64.7348 96.8012 65.3518 96.1914 64.0332C95.9424 63.4951 96.1116 62.8503 95.9418 62.2822C95.8347 61.9539 95.6216 61.6704 95.3359 61.4764C95.0502 61.2823 94.7082 61.1886 94.3635 61.21C94.0491 61.2554 93.7431 61.3468 93.4553 61.4811C91.527 62.2534 89.5026 62.7597 87.4378 62.9862C87.0453 63.0101 86.6572 63.0807 86.2815 63.1966C85.4337 63.504 84.8544 64.29 84.4421 65.0921C84.0299 65.8941 83.7255 66.7625 83.1728 67.4751C82.5919 68.224 81.7779 68.7484 81.0186 69.3157C80.7261 69.5042 80.4826 69.7594 80.308 70.0605C80.1434 70.3984 80.1527 70.7915 80.1654 71.1672L80.3206 75.7301C80.3406 76.317 80.3657 76.9249 80.6283 77.4501C80.9563 78.1059 81.6043 78.5355 82.0539 79.1149C82.5126 79.7103 82.7516 80.4459 82.7303 81.1972C82.7208 81.4993 82.6907 81.8566 82.926 82.0463C83.0691 82.1391 83.2366 82.1872 83.4071 82.1846L89.5794 82.6898C90.6651 82.7787 91.8684 82.9248 92.5772 83.752C92.9118 84.1424 93.1805 84.7038 93.693 84.7457C93.9128 84.7636 94.1266 84.6734 94.3465 84.656C94.9011 84.6121 95.3884 85.0331 95.6959 85.4967C96.1613 86.2035 96.3726 87.0475 96.295 87.8901C96.2446 88.4191 96.0806 88.9333 96.0452 89.4635C95.9107 91.4808 97.6208 93.2334 97.654 95.2549C97.6735 96.444 97.109 97.555 96.5587 98.6092C97.4469 99.9547 96.7196 101.747 97.0732 103.32C97.4086 104.812 98.653 105.98 98.963 107.478C99.105 108.164 99.1132 109.008 99.7178 109.361C99.9832 109.49 100.277 109.549 100.572 109.532C102.349 109.553 104.106 109.153 105.699 108.364C106.447 107.993 107.222 107.44 107.353 106.615C107.458 105.95 107.121 105.207 107.464 104.628C107.868 103.945 108.904 103.999 109.499 103.474C110.464 102.623 109.712 101 110.103 99.7734C110.454 98.6712 111.664 98.0857 112.264 97.0965C112.5 96.671 112.67 96.2119 112.767 95.7351C113.041 94.5956 113.212 93.4335 113.278 92.263C113.294 91.5519 113.346 90.8421 113.435 90.1364C114.081 86.1184 118.054 83.4279 119.343 79.568C119.466 79.1994 119.524 78.7084 119.196 78.4998C119.002 78.407 118.781 78.3839 118.572 78.4344L115.727 78.7931C115.373 78.8377 114.999 78.8793 114.674 78.7325C114.349 78.5857 114.117 78.1752 114.289 77.8633C114.772 76.988 113.778 75.8818 113.337 74.9848C112.147 72.5693 110.731 70.2723 109.107 68.1249C109.003 68.0144 108.938 67.8731 108.921 67.7223L109.729 67.7492C109.456 66.771 109.006 65.7007 108.056 65.3429C107.521 65.1412 106.928 65.2109 106.356 65.2422C104.72 65.3316 102.965 65.0845 101.346 64.8341Z" fill="#3F3D56"/>
<path d="M106.358 42.7917C106.786 43.2464 107.266 43.7286 107.885 43.8078C108.98 43.9478 109.766 42.8162 110.267 41.8332C110.286 42.0838 110.401 42.3173 110.589 42.484C110.777 42.6507 111.023 42.7375 111.274 42.7258C111.544 42.6804 111.802 42.5796 112.031 42.4298C114.2 41.2449 116.628 40.6171 119.099 40.6028C119.075 40.4156 119.122 40.2263 119.229 40.0713C119.337 39.9164 119.498 39.8068 119.682 39.7637C120.184 39.6641 120.637 40.0984 120.879 40.5496C121.121 41.0008 121.273 41.5237 121.658 41.8614C122.043 42.1991 122.788 42.1844 122.94 41.6954C123.086 41.2259 122.597 40.8255 122.191 40.5487C121.784 40.2719 121.356 39.7596 121.63 39.3511C123.706 38.8915 125.794 38.4302 127.919 38.3389C128.28 38.3515 128.641 38.2894 128.977 38.1565C129.301 37.9976 129.559 37.6367 129.472 37.2865C129.008 37.3955 128.523 37.3639 128.077 37.1958C127.632 37.0278 127.246 36.7308 126.97 36.3428C129.918 36.0996 133.053 35.8923 135.665 37.2792C135.979 37.9522 134.381 38.5121 134.808 39.1191C134.945 39.3126 135.218 39.3353 135.455 39.3397C137.27 39.3734 139.096 39.4065 140.89 39.1324C141.546 39.0323 142.209 38.8909 142.867 38.9721C143.964 39.1074 144.902 39.8392 145.981 40.0778C146.421 40.1749 146.913 40.1782 147.283 39.9228C147.653 39.6673 147.813 39.0857 147.509 38.7536C148.525 37.7578 150.211 38.0046 151.552 38.4813C152.892 38.958 154.162 39.7268 155.581 39.8331C156.598 39.9093 157.629 39.6357 158.634 39.8096C159.266 39.9189 159.854 40.1999 160.471 40.3726C161.639 40.6991 162.874 40.6302 164.087 40.6459C167.18 40.6875 170.239 41.2955 173.114 42.4396C173.487 42.5613 173.83 42.7637 174.117 43.0325C174.385 43.3189 174.521 43.7639 174.341 44.1121L171.371 43.6781C171.651 44.229 172.375 44.3229 172.963 44.5129C173.551 44.703 174.16 45.3522 173.807 45.8591C173.17 45.6563 172.593 46.2932 172.271 46.8792C171.949 47.4651 171.557 48.1669 170.889 48.2026C170.292 48.2346 169.569 47.7256 169.179 48.1801C169.717 48.8592 170.178 49.5961 170.553 50.3773C170.938 51.1793 171.213 52.1898 170.692 52.9114C170.61 53.0402 170.486 53.1365 170.341 53.1837C169.916 53.2913 169.64 52.7715 169.335 52.4564C168.951 52.0593 168.371 51.9469 167.851 51.7607C167.331 51.5745 166.783 51.2081 166.742 50.6573C166.717 50.3145 166.898 49.996 167.031 49.6792C167.255 49.1453 167.353 48.5669 167.317 47.989C167.288 47.524 167.158 47.0404 166.824 46.7155C166.49 46.3907 165.913 46.2876 165.555 46.5852C165.388 46.724 165.254 46.9461 165.036 46.9544C164.653 46.969 164.358 46.2999 164.049 46.5283C164.085 46.7717 164.035 47.0201 163.907 47.23C162.985 48.0314 161.57 47.6923 160.382 47.9754C159.817 48.1371 159.276 48.3732 158.774 48.6777C158.586 48.7581 158.426 48.8923 158.314 49.0635C158.166 49.3517 158.329 49.7207 158.591 49.9123C158.868 50.0823 159.179 50.1886 159.503 50.2235C160.951 50.4978 162.42 50.9224 163.563 51.8525C164.707 52.7827 165.456 54.3203 165.095 55.7491L162.239 53.0203C162.347 54.1661 162.409 55.315 162.423 56.4671C162.442 56.692 162.411 56.9183 162.333 57.13C162.129 57.5797 161.578 57.731 161.094 57.8303C160.96 57.8558 160.832 57.9096 160.72 57.9879C160.607 58.0663 160.513 58.1675 160.443 58.2849C160.372 58.4023 160.328 58.5333 160.311 58.6693C160.295 58.8052 160.308 58.943 160.349 59.0737C160.521 59.6336 160.949 60.0702 161.341 60.5052C161.734 60.9402 162.12 61.4347 162.171 62.0181C162.222 62.6016 161.782 63.2593 161.198 63.2187C160.755 63.1879 160.426 62.7914 160.237 62.3896C160.048 61.9878 159.936 61.5401 159.652 61.1987C158.793 60.1653 156.863 60.6081 156.093 59.5064C155.897 59.7289 155.761 59.998 155.698 60.2879C155.635 60.5779 155.647 60.8791 155.733 61.163C156.091 60.9388 156.581 61.1471 156.85 61.4729C157.119 61.7986 157.246 62.2162 157.458 62.5821C157.743 63.0757 158.197 63.5134 158.236 64.0821C158.226 64.2971 158.229 64.5126 158.247 64.7272C158.318 65.0718 158.609 65.3192 158.811 65.6072C159.281 66.2774 159.258 67.1981 158.955 67.9585C158.652 68.7189 158.108 69.3543 157.569 69.9703C156.628 71.0463 155.667 72.116 154.551 73.0095C154.233 73.2645 153.893 73.5152 153.695 73.8717C153.496 74.2281 153.486 74.7285 153.791 74.9996C153.573 75.0105 153.182 75.1178 152.964 75.1287C152.887 74.2539 152.87 73.3749 152.914 72.4979C152.053 72.0847 151.127 73.1913 151.238 74.1394C151.349 75.0875 152.035 75.8484 152.523 76.6687C152.88 77.2685 153.145 77.968 153.026 78.6558C152.907 79.3437 152.293 79.9782 151.597 79.9175C150.491 79.821 150.029 78.233 148.933 78.0513C148.837 78.0286 148.735 78.0386 148.645 78.0799C148.482 78.1691 148.454 78.3867 148.445 78.5719C148.4 79.4812 148.361 80.4266 148.716 81.2649C149.235 82.4913 150.577 83.5213 150.295 84.823C148.78 84.1184 147.991 82.4185 147.634 80.7856C147.276 79.1527 147.216 77.4385 146.575 75.8949C146.088 76.5192 145.064 76.0031 144.619 75.3481C144.197 74.7272 143.937 74.009 143.528 73.3797C143.118 72.7504 142.491 72.1869 141.741 72.1523C140.955 72.1161 140.273 72.6556 139.674 73.1654C139.181 73.5846 138.674 74.0203 138.386 74.5998C137.967 75.443 138.076 76.4371 138.056 77.3787C138.034 78.3967 137.819 79.4707 137.125 80.2159C136.431 80.9611 135.15 81.2207 134.385 80.5491C133.986 80.1984 133.792 79.6745 133.62 79.1717C132.789 76.7477 132.098 74.2784 131.548 71.7757C131.42 72.3469 130.918 73.0831 130.439 72.7467C130.331 72.6562 130.244 72.544 130.183 72.4174C129.289 70.9025 127.634 69.9938 125.962 69.449C124.289 68.9042 122.53 68.65 120.876 68.0513C119.949 67.7156 119.064 67.2746 118.238 66.7371C118.027 67.0465 117.904 67.4072 117.882 67.7809C117.859 68.1545 117.938 68.5273 118.111 68.8596C118.478 69.5092 119.308 69.885 120.018 69.658C120.386 69.5406 120.696 69.2857 121.06 69.1598C121.425 69.0339 121.914 69.0957 122.073 69.4468C122.226 69.7828 121.995 70.1893 122.109 70.5401C122.284 71.0745 123.089 71.1157 123.371 71.6019C123.581 71.9637 123.408 72.4442 123.109 72.7361C122.81 73.0281 122.41 73.1882 122.045 73.3914C120.859 74.0508 120.016 75.1765 118.979 76.0522C117.943 76.928 116.481 77.5674 115.246 77.0057C115.54 75.5149 113.764 74.4204 113.438 72.9364C113.33 72.448 113.386 71.9291 113.232 71.4531C113.01 70.7639 112.399 70.2901 111.897 69.7678C111.289 69.1275 110.815 68.3718 110.503 67.5453C110.192 66.7188 110.049 65.8382 110.083 64.9556C110.11 64.3423 110.223 63.719 110.083 63.1212C109.943 62.5234 109.448 61.9448 108.835 61.9719C107.434 62.0337 105.669 62.1379 104.934 60.9438C104.672 60.5176 104.558 59.8934 104.937 59.5669C105.205 59.3365 105.6 59.3582 105.951 59.3928L109.107 59.7033C109.846 59.7759 110.643 59.8358 111.277 59.4499C111.91 59.064 112.185 58.0396 111.598 57.5855C111.17 57.2538 110.402 57.2718 110.277 56.7443C110.174 56.305 110.66 55.8066 110.397 55.4394C110.209 55.1762 109.786 55.2492 109.529 55.4466C109.272 55.6439 109.086 55.9325 108.799 56.0819C108.296 56.344 107.694 56.0946 107.152 55.925C106.61 55.7555 105.884 55.7411 105.621 56.2444C105.327 56.8072 105.882 57.5447 105.59 58.1087C105.204 58.8543 103.898 58.4299 103.357 59.0713C102.735 59.8072 103.779 60.9047 103.57 61.8449C103.302 61.9775 103.005 62.0383 102.707 62.0216C102.409 62.0048 102.12 61.911 101.869 61.7494C101.622 61.5814 101.425 61.3496 101.299 61.0788C101.174 60.8079 101.124 60.508 101.155 60.2109C101.207 59.788 101.427 59.3562 101.279 58.9565C101.16 58.6334 100.835 58.441 100.534 58.2743L97.4668 56.5794C97.182 57.1077 97.542 57.7626 97.9922 58.1594C98.4425 58.5561 99.0064 58.855 99.3022 59.3771C99.4893 59.7389 99.5312 60.1585 99.4195 60.5501C99.3077 60.9418 99.0506 61.276 98.7007 61.4845C98.6569 61.5148 98.607 61.5352 98.5545 61.5443C98.502 61.5535 98.4482 61.5512 98.3967 61.5375C98.3478 61.5088 98.3051 61.4705 98.2712 61.425C98.2373 61.3794 98.213 61.3275 98.1995 61.2724C97.6583 59.8875 96.8458 58.5221 95.5468 57.7986C94.2478 57.0752 92.3813 57.2239 91.5294 58.4426C91.3271 58.7321 91.1913 59.062 91.015 59.368C90.0786 60.9939 88.0711 61.7639 86.1955 61.7136C86.012 61.7237 85.8295 61.6808 85.6697 61.59C85.3666 61.3807 85.3802 60.9364 85.4266 60.571L85.6235 59.02C85.663 58.7086 85.7203 58.3643 85.9668 58.1699C86.3143 57.8959 86.8155 58.0688 87.258 58.0624C87.5933 58.0468 87.9156 57.9284 88.1813 57.7233C88.447 57.5183 88.6432 57.2365 88.7433 56.9162C88.8327 56.5927 88.8322 56.251 88.7417 55.9278C88.6512 55.6046 88.4743 55.3122 88.2299 55.0822C88.0271 54.8917 87.7549 54.6524 87.862 54.3956C87.9047 54.3246 87.9625 54.2638 88.0313 54.2175C88.1001 54.1712 88.1781 54.1405 88.26 54.1276C89.0549 53.8968 89.8947 53.8363 90.6763 53.5639C91.4579 53.2916 92.2159 52.7344 92.401 51.9277C92.4577 51.6804 92.4835 51.381 92.7056 51.2584C92.817 51.2113 92.9367 51.1869 93.0576 51.1865C93.4814 51.1262 93.8672 50.9095 94.1391 50.5789C94.4111 50.2484 94.5494 49.8281 94.527 49.4007C94.9016 49.139 95.4263 49.3315 95.7887 49.6099C96.1511 49.8883 96.471 50.2561 96.9119 50.3761C97.7337 50.5997 98.5277 49.8722 99.3793 49.8688C99.7375 49.8674 100.108 49.994 100.445 49.8726C100.787 49.7495 100.991 49.4095 101.253 49.1583C101.515 48.9071 101.975 48.7539 102.217 49.0245L102.011 47.4978C102.426 47.6026 102.859 47.6175 103.28 47.5413C103.701 47.4651 104.101 47.2997 104.453 47.0561L101.79 46.156C101.697 46.1329 101.611 46.0871 101.54 46.0228C101.347 45.8143 101.539 45.4893 101.697 45.2522C102.073 44.6851 102.137 43.7509 101.517 43.4686C101.094 43.2759 100.609 43.5072 100.203 43.7335L98.2585 44.8176C98.1967 45.1872 98.6487 45.3967 98.9288 45.6456C99.0982 45.7962 99.2181 45.9946 99.2728 46.2146C99.3274 46.4346 99.3143 46.666 99.235 46.8784C99.1557 47.0908 99.0141 47.2743 98.8286 47.4047C98.6432 47.5351 98.4226 47.6064 98.1959 47.6092C98.324 47.7757 98.4129 47.9688 98.4562 48.1743C98.4995 48.3798 98.496 48.5924 98.446 48.7963L97.1378 48.8904C96.991 48.92 96.8384 48.8902 96.7135 48.8076C96.5736 48.6833 96.5926 48.4656 96.5601 48.2813C96.4819 47.8365 96.0463 47.5247 95.6018 47.4448C95.1572 47.3648 94.7025 47.4673 94.2623 47.5685C94.0754 47.6357 93.8701 47.631 93.6865 47.5552C93.5812 47.4868 93.5012 47.3858 93.4587 47.2677C93.2658 46.7997 93.4461 46.2498 93.7561 45.8496C94.066 45.4495 94.4903 45.1569 94.8714 44.8238C95.7826 44.0243 96.4522 42.9858 96.8043 41.8258C97.5245 41.524 98.27 41.114 98.9902 40.8123C100.1 40.2502 101.346 40.0089 102.585 40.1157L105.024 40.1623C105.746 40.1761 106.488 40.1938 107.156 40.469C107.823 40.7443 108.41 41.3397 108.456 42.0605C108.47 42.1421 108.463 42.2258 108.436 42.304C108.408 42.3821 108.362 42.452 108.3 42.5071C108.206 42.5585 108.099 42.5826 107.992 42.5766C107.318 42.6002 107.031 42.768 106.358 42.7917Z" fill="#3F3D56"/>
<path d="M86.9171 50.4352C87.0124 50.345 87.0809 50.2303 87.1153 50.1037C87.1496 49.977 87.1484 49.8434 87.1117 49.7174C86.8798 49.628 86.6276 49.605 86.3834 49.6511C86.1392 49.6972 85.9127 49.8106 85.7294 49.9785C85.5849 50.1246 85.4604 50.2892 85.3591 50.468C85.0386 50.9909 84.7552 51.6154 84.9409 52.1999C84.956 52.2636 84.9837 52.3237 85.0224 52.3766C85.0611 52.4295 85.1099 52.4741 85.1661 52.5078C85.2493 52.5413 85.339 52.5553 85.4285 52.549C85.7816 52.5485 86.1343 52.5268 86.4847 52.484C86.6999 52.4576 86.9499 52.3969 87.033 52.1966C87.1424 51.9334 86.8778 51.6356 86.9549 51.3612C87.0056 51.2385 87.0826 51.1284 87.1803 51.0385C87.2287 50.9932 87.266 50.9373 87.289 50.8751C87.3121 50.8129 87.3204 50.7462 87.3132 50.6803C87.282 50.5515 87.0849 50.4785 87.014 50.5904" fill="#3F3D56"/>
<path d="M88.7485 48.0618C88.4349 47.9897 88.1116 47.9694 87.7914 48.0017C87.7206 47.9996 87.6504 48.0155 87.5875 48.048C87.5265 48.093 87.4823 48.157 87.4618 48.23C87.3942 48.447 87.4108 48.6816 87.5084 48.8869C87.6059 49.0923 87.7773 49.2533 87.9882 49.338C88.1032 49.3645 88.2134 49.4087 88.3147 49.4692C88.5854 49.6792 88.4128 50.1085 88.4641 50.4473C88.5216 50.8277 88.8898 51.147 88.8223 51.5258C88.7691 51.8242 88.4504 52.0605 88.5017 52.3592C88.5555 52.6721 88.9525 52.7661 89.269 52.7911C89.4524 52.8233 89.6411 52.8016 89.8125 52.7288C89.9843 52.6114 90.1065 52.4344 90.1555 52.2322C90.285 51.8465 90.3395 51.4396 90.3159 51.0335C90.3145 50.8487 90.2681 50.6671 90.1807 50.5044C90.0854 50.3755 89.9798 50.2545 89.8648 50.1427C89.2585 49.4374 89.8969 48.3854 88.7485 48.0618Z" fill="#3F3D56"/>
<path opacity="0.8" d="M168.48 103.311C168.48 103.311 122.041 76.6547 102.048 81.7055C102.048 81.7055 59.6783 86.2652 54.7678 96.2966C54.7678 96.2966 41.2991 54.2069 36.3887 52.804" stroke="#6C63FF" stroke-width="2" stroke-miterlimit="10"/>
<path opacity="0.8" d="M54.7678 96.2964C62.5544 75.5322 132.704 52.5232 132.704 52.5232C122.743 55.0486 102.048 81.7053 102.048 81.7053C102.048 81.7053 58.2753 49.8575 36.3887 52.8038C36.3887 52.8038 132.774 55.9605 168.48 103.311" stroke="#6C63FF" stroke-width="2" stroke-miterlimit="10"/>
<path d="M36.3878 54.8382C37.5114 54.8382 38.4222 53.9274 38.4222 52.8039C38.4222 51.6803 37.5114 50.7695 36.3878 50.7695C35.2643 50.7695 34.3535 51.6803 34.3535 52.8039C34.3535 53.9274 35.2643 54.8382 36.3878 54.8382Z" fill="#6C63FF"/>
<path d="M54.7677 98.3309C55.8913 98.3309 56.8021 97.4201 56.8021 96.2965C56.8021 95.173 55.8913 94.2622 54.7677 94.2622C53.6442 94.2622 52.7334 95.173 52.7334 96.2965C52.7334 97.4201 53.6442 98.3309 54.7677 98.3309Z" fill="#6C63FF"/>
<path d="M132.703 54.5577C133.827 54.5577 134.738 53.6469 134.738 52.5233C134.738 51.3998 133.827 50.489 132.703 50.489C131.58 50.489 130.669 51.3998 130.669 52.5233C130.669 53.6469 131.58 54.5577 132.703 54.5577Z" fill="#6C63FF"/>
<path d="M168.48 105.346C169.603 105.346 170.514 104.435 170.514 103.311C170.514 102.188 169.603 101.277 168.48 101.277C167.356 101.277 166.445 102.188 166.445 103.311C166.445 104.435 167.356 105.346 168.48 105.346Z" fill="#6C63FF"/>
<path d="M102.048 83.7398C103.172 83.7398 104.082 82.829 104.082 81.7055C104.082 80.5819 103.172 79.6711 102.048 79.6711C100.924 79.6711 100.014 80.5819 100.014 81.7055C100.014 82.829 100.924 83.7398 102.048 83.7398Z" fill="#6C63FF"/>
</g>
<defs>
<clipPath id="clip0_1_27242">
<rect width="200" height="148.559" fill="white"/>
</clipPath>
</defs>
</svg>
