<svg width="151" height="132" viewBox="0 0 151 132" fill="none" xmlns="http://www.w3.org/2000/svg">
<g clip-path="url(#clip0_1_13537)">
<path d="M149.305 129.933C149.043 130.299 148.778 130.663 148.516 131.024C147.763 131.543 146.869 131.82 145.954 131.818H5.04536C4.17146 131.819 3.31608 131.566 2.5828 131.091C2.33944 130.77 2.09883 130.447 1.85547 130.123L2.09883 129.989L73.4331 90.4492C74.066 90.0991 74.7773 89.915 75.5006 89.9141C76.2239 89.9132 76.9357 90.0954 77.5695 90.4439L149.064 129.799L149.305 129.933Z" fill="#6C63FF"/>
<path d="M145.955 46.7914L84.1315 11.0881C81.5312 9.58646 78.5817 8.79517 75.5789 8.79369C72.5762 8.79221 69.6259 9.58059 67.0241 11.0797L5.04545 46.7914C3.84045 46.7931 2.68529 47.2726 1.83322 48.1247C0.981149 48.9767 0.501705 50.1319 0.5 51.3369V127.273C0.501404 128.478 0.98075 129.633 1.83288 130.485C2.68502 131.337 3.84036 131.817 5.04545 131.818H145.955C147.159 131.816 148.314 131.337 149.166 130.485C150.018 129.633 150.498 128.478 150.5 127.273V51.3369C150.498 50.1319 150.019 48.9767 149.167 48.1247C148.315 47.2726 147.16 46.7931 145.955 46.7914ZM149.965 127.273C149.963 128.336 149.539 129.354 148.788 130.106C148.036 130.857 147.017 131.281 145.955 131.283H5.04545C3.98234 131.282 2.96332 130.858 2.21158 130.107C1.45984 129.355 1.03667 128.336 1.03476 127.273V51.3369C1.03605 50.2736 1.45902 49.2542 2.21089 48.5023C2.96276 47.7505 3.98215 47.3275 5.04545 47.3262L67.0241 11.6145C69.6259 10.1154 72.5762 9.32697 75.5789 9.32845C78.5817 9.32993 81.5312 10.1212 84.1315 11.6229L145.955 47.3262C147.018 47.3275 148.037 47.7505 148.789 48.5023C149.541 49.2542 149.964 50.2736 149.965 51.3369V127.273Z" fill="#3F3D56"/>
<path d="M75.5802 89.7541C75.1146 89.7556 74.652 89.678 74.2123 89.5245L74.1314 89.4959L74.1151 89.3162C74.0647 89.341 74.0138 89.3647 73.9629 89.3872L73.9091 89.4108L73.8553 89.3871C73.7426 89.3376 73.6307 89.2816 73.5227 89.2207L24.2969 61.5595V5.08021C24.2983 3.76876 24.82 2.51145 25.7473 1.58411C26.6746 0.656777 27.932 0.135154 29.2434 0.133682H121.757C123.068 0.135154 124.326 0.656777 125.253 1.58411C126.18 2.51145 126.702 3.76876 126.703 5.08021V61.6317L126.635 61.67L77.6378 89.2208C77.0088 89.5715 76.3004 89.7551 75.5802 89.7541Z" fill="white"/>
<path d="M75.5801 89.8877C75.0993 89.8894 74.6218 89.8092 74.1679 89.6507L74.006 89.5936L73.999 89.5172L73.909 89.5568L73.8014 89.5095C73.6847 89.4582 73.5689 89.4002 73.457 89.3372L24.1631 61.6378V5.08021C24.1646 3.73333 24.7003 2.44204 25.6527 1.48965C26.6051 0.537251 27.8964 0.00152436 29.2433 0H121.757C123.104 0.00153001 124.395 0.537256 125.347 1.48965C126.3 2.44204 126.835 3.73333 126.837 5.08021V61.7099L77.7032 89.3373C77.0542 89.6993 76.3232 89.8888 75.5801 89.8877ZM74.507 89.1988C75.4901 89.4811 76.5448 89.3633 77.4414 88.8711L126.302 61.3971V5.08021C126.301 3.8751 125.821 2.71973 124.969 1.86759C124.117 1.01545 122.962 0.536116 121.757 0.534759H29.2433C28.0382 0.53611 26.8828 1.01544 26.0307 1.86759C25.1785 2.71973 24.6992 3.8751 24.6978 5.08021V61.3247L27.9036 63.1251L73.7193 88.8712C73.7816 88.9063 73.8449 88.9394 73.9091 88.9703C73.9733 88.9394 74.0365 88.9064 74.0987 88.8714L74.4588 88.6685L74.507 89.1988Z" fill="#3F3D56"/>
<path d="M149.316 48.7647L129.912 59.6738L126.57 61.5535L77.5723 89.1043C76.9634 89.4439 76.2775 89.6215 75.5803 89.6203C75.1298 89.6216 74.6823 89.5466 74.2568 89.3984C74.1385 89.3606 74.0224 89.3159 73.9092 89.2647C73.7996 89.2166 73.6927 89.1631 73.5884 89.1043L27.7728 63.3583L24.4306 61.4813L1.72474 48.7219C1.663 48.6865 1.61771 48.6282 1.5987 48.5596C1.57968 48.4911 1.58847 48.4177 1.62317 48.3556C1.65796 48.294 1.71579 48.2486 1.78396 48.2296C1.85213 48.2106 1.92506 48.2193 1.98677 48.254L24.4306 60.8663L27.7728 62.7433L73.8504 88.6364C74.0033 88.7222 74.1623 88.7963 74.3263 88.8583C74.3959 88.885 74.4681 88.9091 74.5403 88.9305C74.9979 89.0709 75.4793 89.1173 75.9554 89.0668C76.4314 89.0162 76.8923 88.8698 77.3103 88.6364L126.57 60.9412L129.912 59.0615L149.054 48.2995C149.084 48.2823 149.118 48.2712 149.153 48.267C149.187 48.2628 149.223 48.2655 149.256 48.275C149.29 48.2844 149.322 48.3004 149.349 48.322C149.377 48.3437 149.4 48.3705 149.417 48.4011C149.434 48.4316 149.445 48.4652 149.45 48.5001C149.454 48.5349 149.451 48.5702 149.442 48.6039C149.432 48.6377 149.416 48.6693 149.395 48.6969C149.373 48.7244 149.346 48.7475 149.316 48.7647Z" fill="#3F3D56"/>
<path d="M44.3698 17.6471H36.8832C36.3159 17.6471 35.7718 17.4217 35.3706 17.0206C34.9695 16.6194 34.7441 16.0753 34.7441 15.508C34.7441 14.9407 34.9695 14.3966 35.3706 13.9955C35.7718 13.5943 36.3159 13.369 36.8832 13.369H44.3698C44.9371 13.369 45.4812 13.5943 45.8823 13.9955C46.2835 14.3966 46.5088 14.9407 46.5088 15.508C46.5088 16.0753 46.2835 16.6194 45.8823 17.0206C45.4812 17.4217 44.9371 17.6471 44.3698 17.6471Z" fill="#6C63FF"/>
<path d="M53.1933 24.8663H36.8832C36.3159 24.8663 35.7718 24.6409 35.3706 24.2398C34.9695 23.8386 34.7441 23.2946 34.7441 22.7273C34.7441 22.16 34.9695 21.6159 35.3706 21.2147C35.7718 20.8136 36.3159 20.5882 36.8832 20.5882H53.1933C53.7607 20.5882 54.3047 20.8136 54.7059 21.2147C55.107 21.6159 55.3324 22.16 55.3324 22.7273C55.3324 23.2946 55.107 23.8386 54.7059 24.2398C54.3047 24.6409 53.7607 24.8663 53.1933 24.8663Z" fill="#E6E6E6"/>
<path d="M98.7619 44.1176H52.5052C51.9379 44.1176 51.3939 43.8923 50.9927 43.4911C50.5916 43.09 50.3662 42.5459 50.3662 41.9786C50.3662 41.4113 50.5916 40.8672 50.9927 40.4661C51.3939 40.0649 51.9379 39.8396 52.5052 39.8396H98.7619C99.3292 39.8396 99.8733 40.0649 100.274 40.4661C100.676 40.8672 100.901 41.4113 100.901 41.9786C100.901 42.5459 100.676 43.09 100.274 43.4911C99.8733 43.8923 99.3292 44.1176 98.7619 44.1176Z" fill="#6C63FF"/>
<path d="M103.041 52.4064H47.9603C47.393 52.4064 46.8489 52.1811 46.4478 51.7799C46.0466 51.3788 45.8213 50.8347 45.8213 50.2674C45.8213 49.7001 46.0466 49.156 46.4478 48.7548C46.8489 48.3537 47.393 48.1283 47.9603 48.1283H103.041C103.608 48.1283 104.152 48.3537 104.553 48.7548C104.954 49.156 105.18 49.7001 105.18 50.2674C105.18 50.8347 104.954 51.3788 104.553 51.7799C104.152 52.1811 103.608 52.4064 103.041 52.4064Z" fill="#E6E6E6"/>
<path d="M103.041 60.4278H47.9603C47.393 60.4278 46.8489 60.2024 46.4478 59.8013C46.0466 59.4002 45.8213 58.8561 45.8213 58.2888C45.8213 57.7215 46.0466 57.1774 46.4478 56.7762C46.8489 56.3751 47.393 56.1497 47.9603 56.1497H103.041C103.608 56.1497 104.152 56.3751 104.553 56.7762C104.954 57.1774 105.18 57.7215 105.18 58.2888C105.18 58.8561 104.954 59.4002 104.553 59.8013C104.152 60.2024 103.608 60.4278 103.041 60.4278Z" fill="#E6E6E6"/>
</g>
<defs>
<clipPath id="clip0_1_13537">
<rect width="150" height="131.818" fill="white" transform="translate(0.5)"/>
</clipPath>
</defs>
</svg>
