<svg width="50" height="51" viewBox="0 0 50 51" fill="none" xmlns="http://www.w3.org/2000/svg">
<g id="User">
<path id="Vector" fill-rule="evenodd" clip-rule="evenodd" d="M17.9719 3.51343C13.25 3.51343 9.4094 7.3728 9.4094 12.1072C9.4094 16.8416 13.25 20.7009 17.9703 20.7009C22.6922 20.7009 26.5328 16.8416 26.5328 12.1072C26.5328 7.3728 22.6938 3.51343 17.9719 3.51343ZM17.9719 5.07593C21.8469 5.07593 24.9719 8.21343 24.9719 12.1072C24.9719 16.0009 21.8469 19.1384 17.9719 19.1384C17.0502 19.1378 16.1377 18.9553 15.2866 18.6014C14.4356 18.2474 13.6628 17.729 13.0125 17.0758C12.3622 16.4226 11.8472 15.6474 11.497 14.7948C11.1469 13.9422 10.9684 13.0289 10.9719 12.1072C10.9719 8.21343 14.0969 5.07593 17.9719 5.07593ZM38.4766 12.4666C38.2694 12.4666 38.0707 12.5489 37.9242 12.6954C37.7776 12.8419 37.6953 13.0406 37.6953 13.2478V14.0478C37.4706 14.1247 37.2504 14.2144 37.036 14.3166L36.4719 13.7541C36.3254 13.6076 36.1267 13.5253 35.9196 13.5253C35.7124 13.5253 35.5137 13.6076 35.3672 13.7541L33.711 15.4119C33.5645 15.5584 33.4822 15.7571 33.4822 15.9642C33.4822 16.1714 33.5645 16.37 33.711 16.5166L34.2735 17.0822C34.1694 17.2959 34.0781 17.5155 34 17.74H33.2031C32.9959 17.74 32.7972 17.8223 32.6507 17.9688C32.5042 18.1153 32.4219 18.314 32.4219 18.5212V20.865C32.4219 21.0722 32.5042 21.2709 32.6507 21.4174C32.7972 21.5639 32.9959 21.6462 33.2031 21.6462H34.0031C34.0813 21.8728 34.1672 22.0916 34.2719 22.3056L33.7094 22.8712C33.5629 23.0177 33.4807 23.2164 33.4807 23.4236C33.4807 23.6307 33.5629 23.8294 33.7094 23.9759L35.3657 25.6322C35.4382 25.7049 35.5244 25.7627 35.6193 25.802C35.7143 25.8414 35.816 25.8617 35.9188 25.8617C36.0215 25.8617 36.1233 25.8414 36.2182 25.802C36.3131 25.7627 36.3993 25.7049 36.4719 25.6322L37.036 25.0681C37.2516 25.1728 37.4703 25.2619 37.6953 25.34V26.1384C37.6953 26.3456 37.7776 26.5443 37.9242 26.6909C38.0707 26.8374 38.2694 26.9197 38.4766 26.9197H40.8203C41.0275 26.9197 41.2263 26.8374 41.3728 26.6909C41.5193 26.5443 41.6016 26.3456 41.6016 26.1384V25.34C41.8266 25.2619 42.0453 25.1712 42.261 25.0681L42.825 25.6322C42.9715 25.7786 43.1702 25.8609 43.3774 25.8609C43.5845 25.8609 43.7832 25.7786 43.9297 25.6322L45.586 23.9759C45.7324 23.8294 45.8147 23.6307 45.8147 23.4236C45.8147 23.2164 45.7324 23.0177 45.586 22.8712L45.0235 22.3056C45.1275 22.0914 45.2189 21.8712 45.2969 21.6462H46.0938C46.301 21.6462 46.4997 21.5639 46.6462 21.4174C46.7927 21.2709 46.875 21.0722 46.875 20.865V18.5212C46.875 18.314 46.7927 18.1153 46.6462 17.9688C46.4997 17.8223 46.301 17.74 46.0938 17.74H45.2938C45.2162 17.5156 45.1254 17.2959 45.0219 17.0822L45.5875 16.5166C45.734 16.37 45.8163 16.1714 45.8163 15.9642C45.8163 15.7571 45.734 15.5584 45.5875 15.4119L43.9313 13.7556C43.8587 13.6829 43.7725 13.6251 43.6776 13.5858C43.5827 13.5464 43.4809 13.5261 43.3781 13.5261C43.2754 13.5261 43.1736 13.5464 43.0787 13.5858C42.9838 13.6251 42.8976 13.6829 42.825 13.7556L42.261 14.3197C42.0469 14.2149 41.8267 14.123 41.6016 14.0447V13.2478C41.6016 13.0406 41.5193 12.8419 41.3728 12.6954C41.2263 12.5489 41.0275 12.4666 40.8203 12.4666H38.4766ZM39.2578 14.0291H40.0391V14.5572C40.0386 14.7346 40.0985 14.907 40.2089 15.0458C40.3194 15.1847 40.4739 15.2818 40.6469 15.3212C41.1391 15.4337 41.611 15.6259 42.0375 15.8947C42.1875 15.989 42.365 16.0295 42.5411 16.0096C42.7171 15.9898 42.8811 15.9107 43.0063 15.7853L43.3781 15.4119L43.9297 15.965L43.5578 16.3337C43.4325 16.4589 43.3534 16.6229 43.3335 16.799C43.3136 16.975 43.3542 17.1525 43.4485 17.3025C43.7141 17.7306 43.911 18.1994 44.0219 18.6931C44.0608 18.8656 44.1571 19.0199 44.295 19.1306C44.433 19.2413 44.6044 19.3019 44.7813 19.3025H45.3125V20.0837H44.7844C44.607 20.0837 44.4349 20.1439 44.2963 20.2547C44.1577 20.3654 44.0609 20.5201 44.0219 20.6931C43.9102 21.1856 43.7163 21.6557 43.4485 22.0837C43.3546 22.2335 43.3143 22.4108 43.3341 22.5865C43.354 22.7621 43.4329 22.9259 43.5578 23.0509L43.9297 23.4228L43.3781 23.9759L43.0078 23.6025C42.8828 23.4775 42.719 23.3986 42.5434 23.3788C42.3677 23.3589 42.1905 23.3992 42.0406 23.4931C41.6125 23.76 41.1423 23.9529 40.65 24.0634C40.4764 24.1022 40.3212 24.1991 40.2102 24.338C40.0991 24.4769 40.0387 24.6496 40.0391 24.8275V25.3587H39.2578V24.8306C39.2584 24.6532 39.1985 24.4808 39.088 24.3419C38.9775 24.2031 38.8231 24.1059 38.65 24.0666C38.1576 23.9548 37.6875 23.7609 37.2594 23.4931C37.1098 23.3984 36.9324 23.3574 36.7564 23.3767C36.5804 23.396 36.4162 23.4745 36.2906 23.5994L35.9188 23.9728L35.3672 23.4197L35.7391 23.0478C35.8633 22.923 35.9417 22.7598 35.9616 22.5848C35.9814 22.4098 35.9416 22.2332 35.8485 22.0837C35.5805 21.6557 35.3867 21.1856 35.275 20.6931C35.2364 20.5203 35.1403 20.3657 35.0023 20.2547C34.8643 20.1437 34.6927 20.0829 34.5156 20.0822H33.9844V19.3009H34.5125C34.6899 19.301 34.8621 19.2407 35.0007 19.13C35.1392 19.0192 35.236 18.8646 35.275 18.6916C35.3875 18.2009 35.5813 17.7291 35.8485 17.3009C35.9424 17.1511 35.9827 16.9739 35.9628 16.7982C35.9429 16.6225 35.8641 16.4588 35.7391 16.3337L35.3672 15.9619L35.9188 15.4087L36.2891 15.7791C36.4138 15.9045 36.5773 15.984 36.753 16.0044C36.9287 16.0248 37.1061 15.9851 37.2563 15.8916C37.6844 15.6244 38.1547 15.4291 38.6469 15.3181C38.82 15.2795 38.9748 15.1831 39.0858 15.0448C39.1968 14.9065 39.2575 14.7345 39.2578 14.5572V14.0291ZM39.6485 17.1212C38.2375 17.1212 37.0766 18.2822 37.0766 19.6931C37.0766 21.1041 38.2375 22.2666 39.6485 22.2666C41.0594 22.2666 42.2203 21.1041 42.2203 19.6931C42.2203 18.2822 41.0594 17.1212 39.6485 17.1212ZM39.6485 18.6837C39.9166 18.6837 40.1737 18.7903 40.3633 18.9798C40.5529 19.1694 40.6594 19.4266 40.6594 19.6947C40.6594 19.9628 40.5529 20.2199 40.3633 20.4095C40.1737 20.5991 39.9166 20.7056 39.6485 20.7056C39.3803 20.7056 39.1232 20.5991 38.9336 20.4095C38.744 20.2199 38.6375 19.9628 38.6375 19.6947C38.6375 19.4266 38.744 19.1694 38.9336 18.9798C39.1232 18.7903 39.3803 18.6837 39.6485 18.6837ZM13.3141 22.2634C6.8344 22.2634 1.59534 27.5259 1.59534 34.0291V41.0837C1.59534 41.2909 1.67765 41.4897 1.82416 41.6362C1.97067 41.7827 2.16939 41.865 2.37659 41.865H8.39846C8.54764 41.9107 8.70709 41.9107 8.85628 41.865H22.0641C22.1578 41.5822 22.2953 41.3134 22.4922 41.0744C21.8983 41.0144 21.3467 40.74 20.9407 40.3025H9.4094V34.0181C9.41088 33.9135 9.39134 33.8097 9.35196 33.7129C9.31257 33.616 9.25413 33.528 9.18011 33.4541C9.10609 33.3802 9.01798 33.322 8.92102 33.2828C8.82406 33.2436 8.72022 33.2242 8.61565 33.2259C8.51305 33.2274 8.41174 33.249 8.3175 33.2896C8.22326 33.3302 8.13794 33.3889 8.0664 33.4625C7.99487 33.536 7.93853 33.623 7.9006 33.7183C7.86267 33.8136 7.84389 33.9155 7.84534 34.0181V40.3025H3.15784V34.0275C3.15784 28.3619 7.67659 23.8259 13.3141 23.8259H22.6891C25.0406 23.8259 27.1906 24.6228 28.9063 25.9525C29.2969 25.6056 29.7969 25.3884 30.3594 25.3884H30.6313C28.4753 23.3784 25.6367 22.2615 22.6891 22.2634H13.3141ZM30.3594 26.9541C30.1522 26.9541 29.9535 27.0364 29.807 27.1829C29.6605 27.3294 29.5781 27.5281 29.5781 27.7353V29.1306C29.0938 29.2806 28.6266 29.4728 28.1766 29.7072L27.1938 28.7228C27.0473 28.5763 26.8486 28.4941 26.6414 28.4941C26.4343 28.4941 26.2356 28.5763 26.0891 28.7228L23.6782 31.1353C23.5317 31.2818 23.4494 31.4805 23.4494 31.6876C23.4494 31.8948 23.5317 32.0935 23.6782 32.24L24.6625 33.2228C24.4266 33.6712 24.2328 34.1384 24.0813 34.6228H22.6907C22.4834 34.6228 22.2847 34.7051 22.1382 34.8516C21.9917 34.9981 21.9094 35.1969 21.9094 35.4041V38.8134C21.9094 39.0206 21.9917 39.2193 22.1382 39.3659C22.2847 39.5124 22.4834 39.5947 22.6907 39.5947H24.0844C24.2344 40.0791 24.4235 40.5478 24.6578 40.9978L23.6782 41.9822C23.5322 42.1286 23.4502 42.327 23.4502 42.5337C23.4502 42.7405 23.5322 42.9389 23.6782 43.0853L26.0891 45.4962C26.2356 45.6427 26.4343 45.725 26.6414 45.725C26.8486 45.725 27.0473 45.6427 27.1938 45.4962L28.1782 44.5119C28.6266 44.7462 29.0922 44.94 29.5781 45.09V46.4853C29.5781 46.6925 29.6605 46.8912 29.807 47.0377C29.9535 47.1842 30.1522 47.2666 30.3594 47.2666H33.7672C33.9744 47.2666 34.1731 47.1842 34.3196 47.0377C34.4662 46.8912 34.5485 46.6925 34.5485 46.4853V45.0869C35.0328 44.9369 35.5016 44.7478 35.9532 44.5134L36.936 45.4978C37.0825 45.6443 37.2811 45.7265 37.4883 45.7265C37.6955 45.7265 37.8941 45.6443 38.0406 45.4978L40.4516 43.0853C40.598 42.9388 40.6803 42.7401 40.6803 42.533C40.6803 42.3258 40.598 42.1271 40.4516 41.9806L39.4656 40.9962C39.7 40.5447 39.8938 40.0791 40.0438 39.5947H41.4391C41.6463 39.5947 41.845 39.5124 41.9915 39.3659C42.138 39.2193 42.2203 39.0206 42.2203 38.8134V35.4041C42.2203 35.1969 42.138 34.9981 41.9915 34.8516C41.845 34.7051 41.6463 34.6228 41.4391 34.6228H40.0422C39.8935 34.1399 39.7016 33.6713 39.4688 33.2228L40.4516 32.2384C40.5976 32.092 40.6795 31.8936 40.6795 31.6869C40.6795 31.4801 40.5976 31.2817 40.4516 31.1353L38.0406 28.7244C37.8941 28.5779 37.6955 28.4956 37.4883 28.4956C37.2811 28.4956 37.0825 28.5779 36.936 28.7244L35.95 29.7087C35.5013 29.4731 35.0322 29.2786 34.5485 29.1275V27.7353C34.5485 27.5281 34.4662 27.3294 34.3196 27.1829C34.1731 27.0364 33.9744 26.9541 33.7672 26.9541H30.3594ZM31.1406 28.5166H32.986V29.64C32.9865 29.8166 33.0469 29.9879 33.1573 30.1258C33.2677 30.2637 33.4215 30.3602 33.5938 30.3994C34.3485 30.5712 35.0703 30.8697 35.7266 31.2806C35.8762 31.3753 36.0536 31.4164 36.2296 31.3971C36.4056 31.3778 36.5698 31.2992 36.6953 31.1744L37.4875 30.3806L38.7938 31.6869L38.0032 32.4744C37.8778 32.5995 37.7987 32.7636 37.7788 32.9396C37.7589 33.1156 37.7995 33.2932 37.8938 33.4431C38.3032 34.0994 38.6 34.8181 38.7688 35.5759C38.8079 35.7492 38.9049 35.9041 39.0438 36.0148C39.1827 36.1256 39.3552 36.1857 39.5328 36.1853H40.6578V38.0322H39.536C39.3587 38.0316 39.1865 38.0913 39.0477 38.2014C38.9089 38.3116 38.8116 38.4657 38.7719 38.6384C38.6 39.3947 38.3032 40.1166 37.8906 40.7728C37.7968 40.9226 37.7564 41.0998 37.7763 41.2755C37.7962 41.4512 37.875 41.6149 38 41.74L38.7938 42.5337L37.4875 43.84L36.6969 43.0494C36.5721 42.9251 36.4089 42.8467 36.2339 42.8269C36.0589 42.807 35.8823 42.8469 35.7328 42.94C35.0766 43.3494 34.3531 43.6447 33.5969 43.815C33.4238 43.854 33.2692 43.9508 33.1585 44.0894C33.0477 44.2279 32.9874 44.4001 32.9875 44.5775V45.7041H31.1406V44.5806C31.1408 44.4034 31.0808 44.2315 30.9703 44.0929C30.8599 43.9543 30.7056 43.8575 30.5328 43.8181C29.7773 43.6458 29.0563 43.3473 28.4 42.9353C28.2501 42.841 28.0725 42.8005 27.8965 42.8203C27.7205 42.8402 27.5564 42.9193 27.4313 43.0447L26.6422 43.84L25.336 42.5337L26.1235 41.7431C26.2482 41.6187 26.3272 41.4557 26.3476 41.2807C26.368 41.1057 26.3287 40.9289 26.236 40.7791C25.8262 40.1208 25.5304 39.3982 25.361 38.6416C25.3219 38.4682 25.2249 38.3134 25.086 38.2026C24.9471 38.0919 24.7746 38.0317 24.5969 38.0322H23.4719V36.1853H24.5938C24.7707 36.1851 24.9423 36.1249 25.0805 36.0145C25.2188 35.9041 25.3154 35.75 25.3547 35.5775C25.5266 34.8228 25.8235 34.1009 26.236 33.4447C26.3303 33.2952 26.3711 33.1182 26.3518 32.9425C26.3325 32.7669 26.2542 32.6029 26.1297 32.4775L25.336 31.6869L26.6422 30.3806L27.4297 31.1681C27.5544 31.2936 27.7179 31.373 27.8936 31.3935C28.0693 31.4139 28.2468 31.3741 28.3969 31.2806C29.0531 30.8712 29.7735 30.5759 30.5297 30.4056C30.7028 30.3666 30.8574 30.2698 30.9681 30.1312C31.0789 29.9927 31.1392 29.8205 31.1391 29.6431L31.1406 28.5166ZM32.0641 33.2041C31.0299 33.2082 30.0392 33.6206 29.3076 34.3516C28.576 35.0826 28.1628 36.073 28.1578 37.1072C28.1624 38.1421 28.5753 39.1334 29.3068 39.8654C30.0382 40.5975 31.0292 41.0112 32.0641 41.0166C33.0991 41.012 34.0903 40.5985 34.8218 39.8662C35.5532 39.1339 35.9655 38.1422 35.9688 37.1072C35.9647 36.073 35.5519 35.0824 34.8205 34.3513C34.0891 33.6201 33.0983 33.2078 32.0641 33.2041ZM32.0641 34.7666C32.6857 34.7666 33.2818 35.0135 33.7214 35.453C34.1609 35.8926 34.4078 36.4887 34.4078 37.1103C34.4078 37.7319 34.1609 38.328 33.7214 38.7676C33.2818 39.2071 32.6857 39.4541 32.0641 39.4541C30.775 39.4541 29.7203 38.3978 29.7203 37.1072C29.7203 35.8166 30.7735 34.7666 32.0641 34.7666Z" fill="#6C63FF"/>
</g>
</svg>
