<svg width="51" height="72" viewBox="0 0 51 72" fill="none" xmlns="http://www.w3.org/2000/svg">
<path id="Vector" d="M25.0658 0.782471L23.9342 0.839279L23.2866 0.871091H23.1888L21.5778 1.09151L20.4507 1.23466L20.7529 3.4888L21.88 3.34337L23.4433 3.13432L24.0364 3.1025L25.1726 3.05024L25.0658 0.782471ZM27.5381 0.848368L27.2449 3.10705L28.372 3.2502L29.4036 3.38654L30.5125 3.62741L31.6214 3.87055L32.1054 1.65277L30.9965 1.40736L29.8331 1.15513L29.7854 1.13241H29.7354L28.6674 0.996068L27.5381 0.848368ZM17.9534 1.87091L16.9014 2.29129L15.0608 3.05024L15.0153 3.07296L14.9699 3.09796L14.7199 3.22748L13.7088 3.74557L14.7472 5.76793L15.7607 5.2453L15.9674 5.14077L17.7671 4.40227L18.8124 3.9728L17.9534 1.87091ZM34.4391 2.44126L33.5824 4.55451L34.639 4.97943L34.9185 5.09305L36.5887 5.9429L37.5999 6.45871L38.6292 4.43635L37.618 3.92054L35.9093 3.05024L35.8684 3.02752L35.8229 3.00479L35.4912 2.873L34.4391 2.44126ZM11.5841 4.97943L10.6752 5.65431L9.72312 6.36555L9.68903 6.39054L9.65267 6.4269L8.83464 7.14949L7.98479 7.90617L9.49361 9.60587L10.3457 8.85146L11.1274 8.1584L12.0318 7.47898L12.9407 6.79956L11.5841 4.98171V4.97943ZM25.4703 5.1135C14.1928 5.1135 5.01943 14.2164 5.01943 25.4234C5.01943 31.5564 8.13249 35.6716 11.007 39.9526C12.1954 41.7228 13.3452 43.5429 14.3018 45.572L13.4929 45.079L12.3158 47.0172L13.2884 47.6035L13.4383 47.6944L13.4793 47.7194L13.5247 47.7467L15.4107 48.6647L15.538 48.726C16.1969 50.862 16.606 53.2616 16.606 56.0974V65.3298C16.606 65.6311 16.7257 65.9201 16.9387 66.1332C17.1518 66.3463 17.4408 66.466 17.7421 66.466H33.1984C33.4997 66.466 33.7887 66.3463 34.0018 66.1332C34.2148 65.9201 34.3345 65.6311 34.3345 65.3298V56.0974C34.3345 53.2729 34.7367 50.8802 35.3889 48.7533L35.6479 48.6238L36.2206 48.3443L37.2363 47.8398L36.3887 46.1265C37.3885 43.8678 38.6383 41.8818 39.9335 39.9526C42.8103 35.6716 45.9211 31.5564 45.9211 25.4212C45.9211 14.2164 36.7477 5.1135 25.4703 5.1135ZM40.7288 5.91335L39.2291 7.62214L40.0812 8.372L41.1719 9.32637L41.1947 9.35137L41.6787 9.849L42.4649 10.667L44.101 9.09459L43.317 8.27429L42.8103 7.75166L42.7785 7.7153L42.7444 7.68349L41.581 6.66095L40.7288 5.91335ZM25.4703 7.38581C35.5275 7.38581 43.6488 15.4525 43.6488 25.4234C43.6488 30.7929 40.9674 34.3423 38.0475 38.6869C36.4433 41.0774 34.8685 43.7769 33.7619 47.0263L33.6233 47.0945L33.6915 47.2263C32.8592 49.7256 32.3819 52.3293 32.2736 54.9613H26.6064V42.5453C26.6064 42.244 26.4867 41.955 26.2736 41.7419C26.0606 41.5289 25.7716 41.4092 25.4703 41.4092C25.1689 41.4092 24.8799 41.5289 24.6669 41.7419C24.4538 41.955 24.3341 42.244 24.3341 42.5453V54.9635H18.6669C18.56 52.386 18.0997 49.8354 17.299 47.3831L17.4285 47.124L17.1672 46.9968C16.0583 43.761 14.4927 41.0706 12.893 38.6869C9.97307 34.3423 7.29174 30.7929 7.29174 25.4234C7.29174 15.4525 15.413 7.38581 25.4703 7.38581ZM6.32828 9.7263L5.61932 10.608L5.383 10.9011L5.35346 10.9374L5.32619 10.9806L4.26502 12.5553L3.62877 13.4961L5.51252 14.7663L6.14877 13.8256L7.1554 12.3304L7.17812 12.2986L7.38945 12.0327L8.10068 11.1533L6.32828 9.72402V9.7263ZM45.6552 11.0124L43.7783 12.2804L44.4168 13.2211L44.8304 13.8301L44.8395 13.8528L45.5348 15.0958L46.0892 16.0842L48.0684 14.9708L47.514 13.9801L46.7687 12.653L46.7414 12.6144L46.7164 12.5735L46.2937 11.9532L45.6552 11.0124ZM22.0618 12.0327C21.7925 12.0323 21.5317 12.1276 21.3261 12.3015C21.1205 12.4755 20.9834 12.7168 20.9393 12.9825L18.6669 26.6164C18.6399 26.7793 18.6486 26.9461 18.6926 27.1053C18.7365 27.2644 18.8147 27.4121 18.9215 27.538C19.0284 27.6638 19.1614 27.7649 19.3113 27.8342C19.4612 27.9034 19.6244 27.9391 19.7895 27.9389H22.8753L20.9574 35.617C20.8917 35.8772 20.9202 36.1523 21.0379 36.3935C21.1555 36.6347 21.3548 36.8265 21.6003 36.9348C21.8459 37.0431 22.1218 37.0611 22.3793 36.9854C22.6368 36.9097 22.8592 36.7454 23.0071 36.5214L32.0963 22.8875C32.2102 22.7164 32.2755 22.5177 32.2853 22.3124C32.2951 22.1071 32.2491 21.903 32.1521 21.7218C32.0551 21.5407 31.9108 21.3892 31.7345 21.2835C31.5582 21.1779 31.3565 21.1221 31.151 21.122H28.0584L29.9808 13.4438C30.0226 13.2764 30.0256 13.1016 29.9898 12.9328C29.9539 12.764 29.8801 12.6055 29.7738 12.4695C29.6676 12.3335 29.5318 12.2235 29.3767 12.1478C29.2216 12.0721 29.0513 12.0327 28.8787 12.0327H22.0618ZM23.0207 14.305H27.4199L25.5021 21.9832C25.4607 22.1506 25.4579 22.3254 25.4941 22.494C25.5303 22.6627 25.6044 22.821 25.7108 22.9568C25.8173 23.0925 25.9532 23.2023 26.1084 23.2777C26.2636 23.3531 26.4339 23.3922 26.6064 23.392H29.031L24.7522 29.8067L25.4339 27.0777C25.4756 26.9104 25.4787 26.7359 25.443 26.5672C25.4073 26.3986 25.3336 26.2403 25.2276 26.1043C25.1217 25.9683 24.9861 25.8583 24.8313 25.7824C24.6765 25.7066 24.5065 25.667 24.3341 25.6666H21.1301L23.0207 14.305ZM2.49943 15.8138L2.12677 16.8795L1.55869 18.5042L1.54051 18.552L1.53142 18.602L1.39508 19.1382L1.11332 20.238L3.31746 20.797L3.59468 19.6972L3.72421 19.1905L4.26956 17.634L4.64677 16.5591L2.49943 15.8138ZM48.9751 17.2658L46.8323 18.0202L47.2095 19.0723L47.214 19.095L47.723 21.0492L47.7321 21.1038L47.9184 22.2218L50.1589 21.8491L49.9726 20.7266L49.9567 20.6379L49.9476 20.5902L49.9385 20.5402L49.4091 18.5088L49.3955 18.4588L49.3841 18.4134L49.3568 18.3338L48.9751 17.2658ZM0.661127 22.6512L0.577051 23.7987L0.488431 24.9644L0.483887 25.019V25.0644L0.497521 26.1642L0.511155 27.3004L2.78347 27.2731L2.76983 26.1369L2.7562 25.1349V25.1121L2.84028 23.9578L2.92435 22.8216L0.661127 22.6512ZM48.2161 24.2737L48.2025 25.4144L48.1934 26.9391L48.132 27.5844L48.0252 28.716L50.2885 28.9273L50.3953 27.7957L50.4566 27.1095L50.4657 27.0641V27.0118L50.4748 25.4303L50.4839 24.2941L48.2161 24.2714V24.2737ZM3.04024 29.3364L0.804283 29.7499L1.01106 30.8634L1.09287 31.3019L1.10196 31.3565L1.11332 31.3951L1.59732 33.1584L1.89499 34.2537L4.08778 33.656L3.78556 32.5585L3.31973 30.8497L3.24475 30.4498L3.04024 29.3364ZM47.6685 30.7702L47.3731 31.8609L47.164 32.6335L47.1595 32.6562L46.6937 33.9355L46.3074 35.0035L48.4433 35.7761L48.8296 34.7081L49.325 33.3402L49.3432 33.2993L49.3523 33.2516L49.5659 32.4608L49.8613 31.3655L47.6685 30.7702ZM4.874 35.4966L2.89708 36.6146L3.46289 37.6053L4.27411 39.0255L4.29683 39.0641L4.32182 39.1096L4.68312 39.6322L5.32619 40.5707L7.19857 39.2868L6.55551 38.3461L6.21466 37.8485L6.19648 37.8235L5.43753 36.4828L4.874 35.4966ZM45.4598 36.8055L44.8167 37.7417L43.7147 39.3664L43.5783 39.53L42.8625 40.4162L44.6259 41.8477L45.3439 40.9638L45.5121 40.7525L45.5439 40.7161L45.5711 40.6752L46.6982 39.0255L47.3367 38.0848L45.4598 36.8055ZM8.50288 40.9024L6.87591 42.4817L7.6644 43.2997L8.25066 43.9019L8.28701 43.9383L8.3211 43.9746L9.40045 44.9108L10.2571 45.6561L11.7477 43.9428L10.8911 43.1929L9.85264 42.2908L9.29365 41.7137L8.50288 40.9024ZM41.4787 41.9772L40.622 42.718L39.7131 43.5156L39.6949 43.5383L38.936 44.0928L38.018 44.7677L39.3655 46.5969L40.2812 45.9265L41.1151 45.3085L41.1538 45.2835L41.1901 45.2471L42.1218 44.4359L42.9739 43.686L41.4787 41.9772ZM18.8805 57.2358H25.2976C25.412 57.2534 25.5285 57.2534 25.6429 57.2358H32.0622V64.1937H18.8805V61.9213H30.0149V59.649H18.8805V57.2358ZM19.7895 68.7383C19.4881 68.7383 19.1992 68.858 18.9861 69.0711C18.773 69.2841 18.6533 69.5731 18.6533 69.8744C18.6533 70.1758 18.773 70.4648 18.9861 70.6778C19.1992 70.8909 19.4881 71.0106 19.7895 71.0106H31.151C31.4524 71.0106 31.7414 70.8909 31.9544 70.6778C32.1675 70.4648 32.2872 70.1758 32.2872 69.8744C32.2872 69.5731 32.1675 69.2841 31.9544 69.0711C31.7414 68.858 31.4524 68.7383 31.151 68.7383H19.7895Z" fill="#6C63FF"/>
</svg>
